<svg width="32" height="32" viewBox="0 0 32 32" fill="none" xmlns="http://www.w3.org/2000/svg">
<mask id="mask0_361_1832" style="mask-type:alpha" maskUnits="userSpaceOnUse" x="0" y="0" width="32" height="32">
<rect width="32" height="32" fill="#D9D9D9"/>
</mask>
<g mask="url(#mask0_361_1832)">
<path d="M12.3332 29.3333L11.7999 25.0666C11.511 24.9555 11.239 24.8222 10.9839 24.6666C10.7279 24.5111 10.4777 24.3444 10.2332 24.1666L6.26658 25.8333L2.59991 19.5L6.03325 16.9C6.01103 16.7444 5.99991 16.5942 5.99991 16.4493V15.5493C5.99991 15.4053 6.01103 15.2555 6.03325 15.1L2.59991 12.5L6.26658 6.16663L10.2332 7.83329C10.4777 7.65551 10.7332 7.48885 10.9999 7.33329C11.2666 7.17774 11.5332 7.0444 11.7999 6.93329L12.3332 2.66663H19.6666L20.1999 6.93329C20.4888 7.0444 20.7612 7.17774 21.0172 7.33329C21.2724 7.48885 21.5221 7.65551 21.7666 7.83329L25.7332 6.16663L29.3999 12.5L25.9666 15.1C25.9888 15.2555 25.9999 15.4053 25.9999 15.5493V16.4493C25.9999 16.5942 25.9777 16.7444 25.9332 16.9L29.3666 19.5L25.6999 25.8333L21.7666 24.1666C21.5221 24.3444 21.2666 24.5111 20.9999 24.6666C20.7332 24.8222 20.4666 24.9555 20.1999 25.0666L19.6666 29.3333H12.3332ZM16.0666 20.6666C17.3555 20.6666 18.4555 20.2111 19.3666 19.3C20.2777 18.3888 20.7332 17.2888 20.7332 16C20.7332 14.7111 20.2777 13.6111 19.3666 12.7C18.4555 11.7888 17.3555 11.3333 16.0666 11.3333C14.7555 11.3333 13.6497 11.7888 12.7492 12.7C11.8497 13.6111 11.3999 14.7111 11.3999 16C11.3999 17.2888 11.8497 18.3888 12.7492 19.3C13.6497 20.2111 14.7555 20.6666 16.0666 20.6666ZM16.0666 18C15.511 18 15.039 17.8053 14.6506 17.416C14.2612 17.0275 14.0666 16.5555 14.0666 16C14.0666 15.4444 14.2612 14.9724 14.6506 14.584C15.039 14.1946 15.511 14 16.0666 14C16.6221 14 17.0946 14.1946 17.4839 14.584C17.8724 14.9724 18.0666 15.4444 18.0666 16C18.0666 16.5555 17.8724 17.0275 17.4839 17.416C17.0946 17.8053 16.6221 18 16.0666 18ZM14.6666 26.6666H17.2999L17.7666 23.1333C18.4555 22.9555 19.0946 22.6942 19.6839 22.3493C20.2724 22.0053 20.811 21.5888 21.2999 21.1L24.5999 22.4666L25.8999 20.2L23.0332 18.0333C23.1444 17.7222 23.2221 17.3942 23.2666 17.0493C23.311 16.7053 23.3332 16.3555 23.3332 16C23.3332 15.6444 23.311 15.2942 23.2666 14.9493C23.2221 14.6053 23.1444 14.2777 23.0332 13.9666L25.8999 11.8L24.5999 9.53329L21.2999 10.9333C20.811 10.4222 20.2724 9.99418 19.6839 9.64929C19.0946 9.30529 18.4555 9.0444 17.7666 8.86663L17.3332 5.33329H14.6999L14.2332 8.86663C13.5444 9.0444 12.9057 9.30529 12.3172 9.64929C11.7279 9.99418 11.1888 10.4111 10.6999 10.9L7.39991 9.53329L6.09991 11.8L8.96658 13.9333C8.85547 14.2666 8.77769 14.6 8.73325 14.9333C8.6888 15.2666 8.66658 15.6222 8.66658 16C8.66658 16.3555 8.6888 16.7 8.73325 17.0333C8.77769 17.3666 8.85547 17.7 8.96658 18.0333L6.09991 20.2L7.39991 22.4666L10.6999 21.0666C11.1888 21.5777 11.7279 22.0053 12.3172 22.3493C12.9057 22.6942 13.5444 22.9555 14.2332 23.1333L14.6666 26.6666Z" fill="#50c878"/>
</g>
</svg>
