<svg width="32" height="32" viewBox="0 0 32 32" fill="none" xmlns="http://www.w3.org/2000/svg">
<mask id="mask0_361_1838" style="mask-type:alpha" maskUnits="userSpaceOnUse" x="0" y="0" width="32" height="32">
<rect width="32" height="32" fill="#D9D9D9"/>
</mask>
<g mask="url(#mask0_361_1838)">
<path d="M15.9334 24C16.4 24 16.7947 23.8386 17.1174 23.516C17.4391 23.1942 17.6 22.8 17.6 22.3333C17.6 21.8666 17.4391 21.4724 17.1174 21.1506C16.7947 20.828 16.4 20.6666 15.9334 20.6666C15.4667 20.6666 15.072 20.828 14.7494 21.1506C14.4276 21.4724 14.2667 21.8666 14.2667 22.3333C14.2667 22.8 14.4276 23.1942 14.7494 23.516C15.072 23.8386 15.4667 24 15.9334 24ZM14.7334 18.8666H17.2C17.2 18.1333 17.2836 17.5555 17.4507 17.1333C17.6169 16.7111 18.0889 16.1333 18.8667 15.4C19.4445 14.8222 19.9 14.272 20.2334 13.7493C20.5667 13.2275 20.7334 12.6 20.7334 11.8666C20.7334 10.6222 20.2778 9.66663 19.3667 8.99996C18.4556 8.33329 17.3778 7.99996 16.1334 7.99996C14.8667 7.99996 13.8391 8.33329 13.0507 8.99996C12.2614 9.66663 11.7111 10.4666 11.4 11.4L13.6 12.2666C13.7111 11.8666 13.9614 11.4333 14.3507 10.9666C14.7391 10.5 15.3334 10.2666 16.1334 10.2666C16.8445 10.2666 17.3778 10.4608 17.7334 10.8493C18.0889 11.2386 18.2667 11.6666 18.2667 12.1333C18.2667 12.5777 18.1334 12.9942 17.8667 13.3826C17.6 13.772 17.2667 14.1333 16.8667 14.4666C15.8889 15.3333 15.2889 15.9888 15.0667 16.4333C14.8445 16.8777 14.7334 17.6888 14.7334 18.8666ZM16 29.3333C14.1556 29.3333 12.4222 28.9831 10.8 28.2826C9.1778 27.5831 7.76669 26.6333 6.56669 25.4333C5.36669 24.2333 4.41691 22.8222 3.71735 21.2C3.01691 19.5777 2.66669 17.8444 2.66669 16C2.66669 14.1555 3.01691 12.4222 3.71735 10.8C4.41691 9.17774 5.36669 7.76663 6.56669 6.56663C7.76669 5.36663 9.1778 4.4164 10.8 3.71596C12.4222 3.0164 14.1556 2.66663 16 2.66663C17.8445 2.66663 19.5778 3.0164 21.2 3.71596C22.8222 4.4164 24.2334 5.36663 25.4334 6.56663C26.6334 7.76663 27.5831 9.17774 28.2827 10.8C28.9831 12.4222 29.3334 14.1555 29.3334 16C29.3334 17.8444 28.9831 19.5777 28.2827 21.2C27.5831 22.8222 26.6334 24.2333 25.4334 25.4333C24.2334 26.6333 22.8222 27.5831 21.2 28.2826C19.5778 28.9831 17.8445 29.3333 16 29.3333ZM16 26.6666C18.9778 26.6666 21.5 25.6333 23.5667 23.5666C25.6334 21.5 26.6667 18.9777 26.6667 16C26.6667 13.0222 25.6334 10.5 23.5667 8.43329C21.5 6.36663 18.9778 5.33329 16 5.33329C13.0222 5.33329 10.5 6.36663 8.43335 8.43329C6.36669 10.5 5.33335 13.0222 5.33335 16C5.33335 18.9777 6.36669 21.5 8.43335 23.5666C10.5 25.6333 13.0222 26.6666 16 26.6666Z" fill="#FF7F2F"/>
</g>
</svg>
