<svg width="12" height="15" viewBox="0 0 12 15" fill="none" xmlns="http://www.w3.org/2000/svg">
<path d="M4.45 8.1335L5.03333 6.2335L3.5 5.00016H5.4L6 3.1335L6.6 5.00016H8.5L6.95 6.2335L7.53333 8.1335L6 6.95016L4.45 8.1335ZM2 14.3335V9.1835C1.57778 8.71683 1.25 8.1835 1.01667 7.5835C0.783335 6.9835 0.666668 6.34461 0.666668 5.66683C0.666668 4.17794 1.18333 2.91683 2.21667 1.8835C3.25 0.850163 4.51111 0.333496 6 0.333496C7.48889 0.333496 8.75 0.850163 9.78333 1.8835C10.8167 2.91683 11.3333 4.17794 11.3333 5.66683C11.3333 6.34461 11.2167 6.9835 10.9833 7.5835C10.75 8.1835 10.4222 8.71683 10 9.1835V14.3335L6 13.0002L2 14.3335ZM6 9.66683C7.11111 9.66683 8.05556 9.27794 8.83333 8.50016C9.61111 7.72239 10 6.77794 10 5.66683C10 4.55572 9.61111 3.61127 8.83333 2.8335C8.05556 2.05572 7.11111 1.66683 6 1.66683C4.88889 1.66683 3.94445 2.05572 3.16667 2.8335C2.38889 3.61127 2 4.55572 2 5.66683C2 6.77794 2.38889 7.72239 3.16667 8.50016C3.94445 9.27794 4.88889 9.66683 6 9.66683ZM3.33333 12.3502L6 11.6668L8.66667 12.3502V10.2835C8.27778 10.5057 7.85845 10.6806 7.40867 10.8082C6.95845 10.9362 6.48889 11.0002 6 11.0002C5.51111 11.0002 5.04156 10.9362 4.59133 10.8082C4.14156 10.6806 3.72222 10.5057 3.33333 10.2835V12.3502Z" fill="#FF7F2F"/>
</svg>
