<svg width="32" height="32" viewBox="0 0 32 32" fill="none" xmlns="http://www.w3.org/2000/svg">
<mask id="mask0_268_1199" style="mask-type:alpha" maskUnits="userSpaceOnUse" x="0" y="0" width="32" height="32">
<rect width="32" height="32" fill="#D9D9D9"/>
</mask>
<g mask="url(#mask0_268_1199)">
<path d="M5.33337 11.9996C4.9556 11.9996 4.63915 11.8716 4.38404 11.6156C4.12804 11.3605 4.00004 11.044 4.00004 10.6662C4.00004 10.2885 4.12804 9.97158 4.38404 9.71558C4.63915 9.46047 4.9556 9.33291 5.33337 9.33291H9.33337C10.0667 9.33291 10.6943 9.5938 11.216 10.1156C11.7387 10.6382 12 11.2662 12 11.9996H5.33337ZM8.00004 26.6662C6.1556 26.6662 4.5836 26.0165 3.28404 24.7169C1.9836 23.4165 1.33337 21.844 1.33337 19.9996C1.33337 18.1551 1.9836 16.5827 3.28404 15.2822C4.5836 13.9827 6.1556 13.3329 8.00004 13.3329C8.71115 13.3329 9.40582 13.444 10.084 13.6662C10.7614 13.8885 11.3778 14.2218 11.9334 14.6662H14.6667C15.4 14.6662 16.028 14.4049 16.5507 13.8822C17.0725 13.3605 17.3334 12.7329 17.3334 11.9996V8.93291L15.9334 7.53291L14.0667 9.39958L13.0667 8.46624L17.8 3.73291L18.7334 4.66624L16.8667 6.53291L18.2667 7.99958H26.6667C27.4 7.99958 28.028 8.26091 28.5507 8.78358C29.0725 9.30535 29.3334 9.93291 29.3334 10.6662V18.7329C29.7778 19.1774 30.1112 19.6774 30.3334 20.2329C30.5556 20.7885 30.6667 21.3774 30.6667 21.9996C30.6667 23.2885 30.2112 24.3885 29.3 25.2996C28.3889 26.2107 27.2889 26.6662 26 26.6662C24.7112 26.6662 23.6112 26.2107 22.7 25.2996C21.7889 24.3885 21.3334 23.2885 21.3334 21.9996V21.3329H14.5334C14.2223 22.8885 13.4556 24.1662 12.2334 25.1662C11.0112 26.1662 9.60004 26.6662 8.00004 26.6662ZM8.00004 23.9996C9.11115 23.9996 10.0556 23.6107 10.8334 22.8329C11.6112 22.0551 12 21.1107 12 19.9996C12 18.8885 11.6112 17.944 10.8334 17.1662C10.0556 16.3885 9.11115 15.9996 8.00004 15.9996C6.88893 15.9996 5.94449 16.3885 5.16671 17.1662C4.38893 17.944 4.00004 18.8885 4.00004 19.9996C4.00004 21.1107 4.38893 22.0551 5.16671 22.8329C5.94449 23.6107 6.88893 23.9996 8.00004 23.9996ZM26 23.9996C26.5556 23.9996 27.0276 23.8049 27.416 23.4156C27.8054 23.0271 28 22.5551 28 21.9996C28 21.444 27.8054 20.972 27.416 20.5836C27.0276 20.1942 26.5556 19.9996 26 19.9996C25.4445 19.9996 24.9725 20.1942 24.584 20.5836C24.1947 20.972 24 21.444 24 21.9996C24 22.5551 24.1947 23.0271 24.584 23.4156C24.9725 23.8049 25.4445 23.9996 26 23.9996ZM8.00004 21.9996C7.44449 21.9996 6.97249 21.8049 6.58404 21.4156C6.19471 21.0271 6.00004 20.5551 6.00004 19.9996C6.00004 19.444 6.19471 18.972 6.58404 18.5836C6.97249 18.1942 7.44449 17.9996 8.00004 17.9996C8.5556 17.9996 9.0276 18.1942 9.41604 18.5836C9.80537 18.972 10 19.444 10 19.9996C10 20.5551 9.80537 21.0271 9.41604 21.4156C9.0276 21.8049 8.5556 21.9996 8.00004 21.9996ZM14.5334 18.6662H22.7334C23.1778 18.2218 23.6725 17.8885 24.2174 17.6662C24.7614 17.444 25.3556 17.3329 26 17.3329H26.6667V10.6662H20V11.9996C20 13.4662 19.4778 14.7218 18.4334 15.7662C17.3889 16.8107 16.1334 17.3329 14.6667 17.3329H14.1334C14.2 17.5329 14.2725 17.744 14.3507 17.9662C14.428 18.1885 14.4889 18.4218 14.5334 18.6662Z" fill="#FF7F2F"/>
</g>
</svg>
