<svg width="32" height="32" viewBox="0 0 32 32" fill="none" xmlns="http://www.w3.org/2000/svg">
<mask id="mask0_268_1207" style="mask-type:alpha" maskUnits="userSpaceOnUse" x="0" y="0" width="32" height="32">
<rect width="32" height="32" fill="#D9D9D9"/>
</mask>
<g mask="url(#mask0_268_1207)">
<path d="M0 24V21.9C0 20.9222 0.494667 20.1387 1.484 19.5493C2.47244 18.9609 3.75556 18.6667 5.33333 18.6667C5.62222 18.6667 5.9 18.672 6.16667 18.6827C6.43333 18.6942 6.68889 18.7222 6.93333 18.7667C6.62222 19.2111 6.38889 19.6889 6.23333 20.2C6.07778 20.7111 6 21.2556 6 21.8333V24H0ZM8 24V21.8333C8 20.3889 8.73911 19.2222 10.2173 18.3333C11.6947 17.4444 13.6222 17 16 17C18.4 17 20.3333 17.4444 21.8 18.3333C23.2667 19.2222 24 20.3889 24 21.8333V24H8ZM26 24V21.8333C26 21.2556 25.9276 20.7111 25.7827 20.2C25.6387 19.6889 25.4222 19.2111 25.1333 18.7667C25.3778 18.7222 25.628 18.6942 25.884 18.6827C26.1391 18.672 26.4 18.6667 26.6667 18.6667C28.2667 18.6667 29.5556 18.9609 30.5333 19.5493C31.5111 20.1387 32 20.9222 32 21.9V24H26ZM16 19.6667C14.7333 19.6667 13.6 19.8333 12.6 20.1667C11.6 20.5 11.0111 20.8889 10.8333 21.3333H21.2C21 20.8889 20.4053 20.5 19.416 20.1667C18.4276 19.8333 17.2889 19.6667 16 19.6667ZM5.33333 17.3333C4.6 17.3333 3.97244 17.072 3.45067 16.5493C2.928 16.0276 2.66667 15.4 2.66667 14.6667C2.66667 13.9111 2.928 13.2778 3.45067 12.7667C3.97244 12.2556 4.6 12 5.33333 12C6.08889 12 6.72222 12.2556 7.23333 12.7667C7.74444 13.2778 8 13.9111 8 14.6667C8 15.4 7.74444 16.0276 7.23333 16.5493C6.72222 17.072 6.08889 17.3333 5.33333 17.3333ZM26.6667 17.3333C25.9333 17.3333 25.3053 17.072 24.7827 16.5493C24.2609 16.0276 24 15.4 24 14.6667C24 13.9111 24.2609 13.2778 24.7827 12.7667C25.3053 12.2556 25.9333 12 26.6667 12C27.4222 12 28.0556 12.2556 28.5667 12.7667C29.0778 13.2778 29.3333 13.9111 29.3333 14.6667C29.3333 15.4 29.0778 16.0276 28.5667 16.5493C28.0556 17.072 27.4222 17.3333 26.6667 17.3333ZM16 16C14.8889 16 13.9444 15.6111 13.1667 14.8333C12.3889 14.0556 12 13.1111 12 12C12 10.8667 12.3889 9.91644 13.1667 9.14933C13.9444 8.38311 14.8889 8 16 8C17.1333 8 18.0831 8.38311 18.8493 9.14933C19.6164 9.91644 20 10.8667 20 12C20 13.1111 19.6164 14.0556 18.8493 14.8333C18.0831 15.6111 17.1333 16 16 16ZM16 10.6667C15.6222 10.6667 15.3058 10.7942 15.0507 11.0493C14.7947 11.3053 14.6667 11.6222 14.6667 12C14.6667 12.3778 14.7947 12.6942 15.0507 12.9493C15.3058 13.2053 15.6222 13.3333 16 13.3333C16.3778 13.3333 16.6947 13.2053 16.9507 12.9493C17.2058 12.6942 17.3333 12.3778 17.3333 12C17.3333 11.6222 17.2058 11.3053 16.9507 11.0493C16.6947 10.7942 16.3778 10.6667 16 10.6667Z" fill="#FF7F2F"/>
</g>
</svg>
