{
    "asset" : {
        "generator" : "Khronos glTF Blender I/O v3.3.32",
        "version" : "2.0"
    },
    "scene" : 0,
    "scenes" : [
        {
            "name" : "Scene",
            "nodes" : [
                0
            ]
        }
    ],
    "nodes" : [
        {
            "mesh" : 0,
            "name" : "MeteorSword_Mesh_MeteorSword_Mat_0",
            "scale" : [
                0.025953860953450203,
                0.025953860953450203,
                0.025953860953450203
            ]
        }
    ],
    "materials" : [
        {
            "alphaMode" : "BLEND",
            "doubleSided" : true,
            "emissiveFactor" : [
                1,
                1,
                1
            ],
            "emissiveTexture" : {
                "index" : 0
            },
            "name" : "MeteorSword_Mat",
            "occlusionTexture" : {
                "index" : 1
            },
            "pbrMetallicRoughness" : {
                "baseColorTexture" : {
                    "index" : 2
                },
                "metallicRoughnessTexture" : {
                    "index" : 1
                }
            }
        }
    ],
    "meshes" : [
        {
            "name" : "MeteorSword_Mesh_MeteorSword_Mat_0",
            "primitives" : [
                {
                    "attributes" : {
                        "POSITION" : 0,
                        "NORMAL" : 1,
                        "TEXCOORD_0" : 2
                    },
                    "indices" : 3,
                    "material" : 0
                }
            ]
        }
    ],
    "textures" : [
        {
            "sampler" : 0,
            "source" : 0
        },
        {
            "sampler" : 0,
            "source" : 1
        },
        {
            "sampler" : 0,
            "source" : 2
        }
    ],
    "images" : [
        {
            "mimeType" : "image/png",
            "name" : "MeteorSword_Mat_emissive",
            "uri" : "textures/MeteorSword_Mat_emissive.png"
        },
        {
            "mimeType" : "image/png",
            "name" : "MeteorSword_Mat_metallicRoughness",
            "uri" : "textures/MeteorSword_Mat_metallicRoughness.png"
        },
        {
            "mimeType" : "image/png",
            "name" : "MeteorSword_Mat_baseColor",
            "uri" : "textures/MeteorSword_Mat_baseColor.png"
        }
    ],
    "accessors" : [
        {
            "bufferView" : 0,
            "componentType" : 5126,
            "count" : 10830,
            "max" : [
                78.988525390625,
                226.32974243164062,
                77.05929565429688
            ],
            "min" : [
                -82.99492645263672,
                -232.97543334960938,
                -75.91081237792969
            ],
            "type" : "VEC3"
        },
        {
            "bufferView" : 1,
            "componentType" : 5126,
            "count" : 10830,
            "type" : "VEC3"
        },
        {
            "bufferView" : 2,
            "componentType" : 5126,
            "count" : 10830,
            "type" : "VEC2"
        },
        {
            "bufferView" : 3,
            "componentType" : 5123,
            "count" : 32118,
            "type" : "SCALAR"
        }
    ],
    "bufferViews" : [
        {
            "buffer" : 0,
            "byteLength" : 129960,
            "byteOffset" : 0,
            "target" : 34962
        },
        {
            "buffer" : 0,
            "byteLength" : 129960,
            "byteOffset" : 129960,
            "target" : 34962
        },
        {
            "buffer" : 0,
            "byteLength" : 86640,
            "byteOffset" : 259920,
            "target" : 34962
        },
        {
            "buffer" : 0,
            "byteLength" : 64236,
            "byteOffset" : 346560,
            "target" : 34963
        }
    ],
    "samplers" : [
        {
            "magFilter" : 9729,
            "minFilter" : 9987
        }
    ],
    "buffers" : [
        {
            "byteLength" : 410796,
            "uri" : "MeteorSword.bin"
        }
    ]
}
