{
    "asset" : {
        "generator" : "Khronos glTF Blender I/O v3.3.32",
        "version" : "2.0"
    },
    "scene" : 0,
    "scenes" : [
        {
            "name" : "Scene",
            "nodes" : [
                0
            ]
        }
    ],
    "nodes" : [
        {
            "mesh" : 0,
            "name" : "ThinSword_Mesh_ThinSword_Mat_0",
            "scale" : [
                0.025953860953450203,
                0.025953860953450203,
                0.025953860953450203
            ]
        }
    ],
    "materials" : [
        {
            "doubleSided" : true,
            "emissiveFactor" : [
                1,
                1,
                1
            ],
            "emissiveTexture" : {
                "index" : 0
            },
            "name" : "ThinSword_Mat",
            "normalTexture" : {
                "index" : 1
            },
            "pbrMetallicRoughness" : {
                "baseColorTexture" : {
                    "index" : 2
                },
                "metallicRoughnessTexture" : {
                    "index" : 3
                }
            }
        }
    ],
    "meshes" : [
        {
            "name" : "ThinSword_Mesh_ThinSword_Mat_0",
            "primitives" : [
                {
                    "attributes" : {
                        "POSITION" : 0,
                        "NORMAL" : 1,
                        "TEXCOORD_0" : 2
                    },
                    "indices" : 3,
                    "material" : 0
                }
            ]
        }
    ],
    "textures" : [
        {
            "sampler" : 0,
            "source" : 0
        },
        {
            "sampler" : 0,
            "source" : 1
        },
        {
            "sampler" : 0,
            "source" : 2
        },
        {
            "sampler" : 0,
            "source" : 3
        }
    ],
    "images" : [
        {
            "mimeType" : "image/png",
            "name" : "ThinSword_Mat_emissive",
            "uri" : "textures/ThinSword_Mat_emissive.png"
        },
        {
            "mimeType" : "image/png",
            "name" : "ThinSword_Mat_normal",
            "uri" : "textures/ThinSword_Mat_normal.png"
        },
        {
            "mimeType" : "image/png",
            "name" : "ThinSword_Mat_baseColor",
            "uri" : "textures/ThinSword_Mat_baseColor.png"
        },
        {
            "mimeType" : "image/png",
            "name" : "ThinSword_Mat_metallicRoughness",
            "uri" : "textures/ThinSword_Mat_metallicRoughness.png"
        }
    ],
    "accessors" : [
        {
            "bufferView" : 0,
            "componentType" : 5126,
            "count" : 20850,
            "max" : [
                8.56456470489502,
                290.8771057128906,
                57.89837646484375
            ],
            "min" : [
                -8.639533042907715,
                -219.088623046875,
                -58.410064697265625
            ],
            "type" : "VEC3"
        },
        {
            "bufferView" : 1,
            "componentType" : 5126,
            "count" : 20850,
            "type" : "VEC3"
        },
        {
            "bufferView" : 2,
            "componentType" : 5126,
            "count" : 20850,
            "type" : "VEC2"
        },
        {
            "bufferView" : 3,
            "componentType" : 5123,
            "count" : 63492,
            "type" : "SCALAR"
        }
    ],
    "bufferViews" : [
        {
            "buffer" : 0,
            "byteLength" : 250200,
            "byteOffset" : 0,
            "target" : 34962
        },
        {
            "buffer" : 0,
            "byteLength" : 250200,
            "byteOffset" : 250200,
            "target" : 34962
        },
        {
            "buffer" : 0,
            "byteLength" : 166800,
            "byteOffset" : 500400,
            "target" : 34962
        },
        {
            "buffer" : 0,
            "byteLength" : 126984,
            "byteOffset" : 667200,
            "target" : 34963
        }
    ],
    "samplers" : [
        {
            "magFilter" : 9729,
            "minFilter" : 9987
        }
    ],
    "buffers" : [
        {
            "byteLength" : 794184,
            "uri" : "ThinSword.bin"
        }
    ]
}
