{
    "asset" : {
        "generator" : "Khronos glTF Blender I/O v3.3.32",
        "version" : "2.0"
    },
    "scene" : 0,
    "scenes" : [
        {
            "name" : "Scene",
            "nodes" : [
                0
            ]
        }
    ],
    "nodes" : [
        {
            "mesh" : 0,
            "name" : "SunSword_Mesh_SunSword_Mat_0",
            "scale" : [
                0.025953860953450203,
                0.025953860953450203,
                0.025953860953450203
            ]
        }
    ],
    "materials" : [
        {
            "doubleSided" : true,
            "emissiveFactor" : [
                1,
                1,
                1
            ],
            "emissiveTexture" : {
                "index" : 0
            },
            "name" : "SunSword_Mat",
            "occlusionTexture" : {
                "index" : 1
            },
            "pbrMetallicRoughness" : {
                "baseColorTexture" : {
                    "index" : 2
                },
                "metallicRoughnessTexture" : {
                    "index" : 1
                }
            }
        }
    ],
    "meshes" : [
        {
            "name" : "SunSword_Mesh_SunSword_Mat_0",
            "primitives" : [
                {
                    "attributes" : {
                        "POSITION" : 0,
                        "NORMAL" : 1,
                        "TEXCOORD_0" : 2
                    },
                    "indices" : 3,
                    "material" : 0
                }
            ]
        }
    ],
    "textures" : [
        {
            "sampler" : 0,
            "source" : 0
        },
        {
            "sampler" : 0,
            "source" : 1
        },
        {
            "sampler" : 0,
            "source" : 2
        }
    ],
    "images" : [
        {
            "mimeType" : "image/png",
            "name" : "SunSword_Mat_emissive",
            "uri" : "textures/SunSword_Mat_emissive.png"
        },
        {
            "mimeType" : "image/png",
            "name" : "SunSword_Mat_metallicRoughness",
            "uri" : "textures/SunSword_Mat_metallicRoughness.png"
        },
        {
            "mimeType" : "image/png",
            "name" : "SunSword_Mat_baseColor",
            "uri" : "textures/SunSword_Mat_baseColor.png"
        }
    ],
    "accessors" : [
        {
            "bufferView" : 0,
            "componentType" : 5126,
            "count" : 4336,
            "max" : [
                20.194713592529297,
                365.2352294921875,
                99.5177001953125
            ],
            "min" : [
                -20.535388946533203,
                -193.90072631835938,
                -99.24713134765625
            ],
            "type" : "VEC3"
        },
        {
            "bufferView" : 1,
            "componentType" : 5126,
            "count" : 4336,
            "type" : "VEC3"
        },
        {
            "bufferView" : 2,
            "componentType" : 5126,
            "count" : 4336,
            "type" : "VEC2"
        },
        {
            "bufferView" : 3,
            "componentType" : 5123,
            "count" : 14628,
            "type" : "SCALAR"
        }
    ],
    "bufferViews" : [
        {
            "buffer" : 0,
            "byteLength" : 52032,
            "byteOffset" : 0,
            "target" : 34962
        },
        {
            "buffer" : 0,
            "byteLength" : 52032,
            "byteOffset" : 52032,
            "target" : 34962
        },
        {
            "buffer" : 0,
            "byteLength" : 34688,
            "byteOffset" : 104064,
            "target" : 34962
        },
        {
            "buffer" : 0,
            "byteLength" : 29256,
            "byteOffset" : 138752,
            "target" : 34963
        }
    ],
    "samplers" : [
        {
            "magFilter" : 9729,
            "minFilter" : 9987
        }
    ],
    "buffers" : [
        {
            "byteLength" : 168008,
            "uri" : "SunSword.bin"
        }
    ]
}
