<svg width="147" height="40" viewBox="0 0 147 40" fill="none" xmlns="http://www.w3.org/2000/svg">
<g clip-path="url(#clip0_94_596)">
<path d="M18.4583 0.213133C18.4584 0.143523 18.5179 0.0710441 18.5903 0.0520184C18.6628 0.0330682 18.985 0.0135896 19.3061 0.00875767L19.89 0V2.93804V5.876L19.4019 5.90137L18.9138 5.92666L18.8757 5.62467C18.834 5.29496 18.4579 0.418641 18.4583 0.213133Z" fill="#FF7F2F"/>
<path d="M21.4759 2.72626C21.5981 1.29828 21.6981 0.11378 21.6981 0.0941507C21.6981 0.0744455 21.8422 0.0773903 22.0182 0.10072C22.1943 0.124049 22.5165 0.165045 22.734 0.191847C23.0326 0.22869 23.1295 0.271347 23.1291 0.36572C23.1285 0.589122 22.2456 5.9694 22.2025 6.01258C22.1795 6.03561 21.9464 6.02572 21.6847 5.99061L21.2087 5.92666L21.2312 5.62467C21.2437 5.45857 21.3537 4.15433 21.4759 2.72626Z" fill="#FF7F2F"/>
<path d="M15.2015 0.718376C15.1839 0.589499 15.2603 0.550618 15.7461 0.441144C16.6767 0.231408 16.537 -0.0474854 17.076 3.09545C17.336 4.6111 17.5499 5.90598 17.5515 5.97295C17.5536 6.06166 17.4302 6.12115 17.0983 6.19174C16.8307 6.24867 16.6171 6.26075 16.5813 6.22096C16.5258 6.15928 15.2493 1.06876 15.2015 0.718376Z" fill="#FF7F2F"/>
<path d="M24.2177 3.4783C24.6138 1.93593 24.9378 0.660835 24.9378 0.644754C24.9378 0.614328 25.9091 0.878877 26.1951 0.987218C26.3571 1.04859 26.3445 1.09616 25.4607 3.75244C24.9661 5.23893 24.5466 6.49471 24.5285 6.5431C24.5046 6.60652 24.3638 6.58999 24.0233 6.48384C23.7637 6.40283 23.5392 6.32446 23.5244 6.30966C23.5096 6.29486 23.8216 5.02074 24.2177 3.4783Z" fill="#FF7F2F"/>
<path d="M12.0544 1.66731C12.0544 1.63001 12.3342 1.49623 12.676 1.36999C13.0178 1.24376 13.3193 1.13866 13.346 1.13647C13.4069 1.13142 13.3376 0.945995 14.3895 3.92593C14.8805 5.317 15.3022 6.50611 15.3266 6.56839C15.3601 6.65363 15.2476 6.72483 14.8725 6.85597C14.5982 6.95185 14.3644 7.0198 14.3528 7.00697C14.3024 6.95072 12.0544 1.72816 12.0544 1.66731Z" fill="#FF7F2F"/>
<path d="M25.7138 7.03771C25.7293 7.00796 26.2633 5.80307 26.9005 4.36006C27.5377 2.91705 28.0864 1.73647 28.1199 1.73647C28.1998 1.73647 29.383 2.33284 29.383 2.37308C29.383 2.40222 26.6732 7.48519 26.6307 7.53592C26.5914 7.58273 25.6861 7.09078 25.7138 7.03771Z" fill="#FF7F2F"/>
<path d="M9.13 3.2081C9.14318 3.19519 9.40725 3.02834 9.71675 2.83732C10.0264 2.64624 10.3118 2.50075 10.3513 2.51389C10.3907 2.5271 11.0442 3.6731 11.8033 5.06054C12.8784 7.02532 13.163 7.60199 13.09 7.66782C13.0385 7.71433 12.8389 7.84207 12.6465 7.95162C12.3778 8.10466 12.2795 8.12934 12.2229 8.058C12.0447 7.83324 9.10853 3.22909 9.13 3.2081Z" fill="#FF7F2F"/>
<path d="M28.0092 7.78161C28.1639 7.54084 28.8837 6.44074 29.6088 5.33688C30.334 4.23301 30.949 3.32808 30.9755 3.32589C31.0775 3.31758 32.1275 4.11862 32.1084 4.19019C32.09 4.25957 31.6079 4.89453 29.3824 7.78032L28.5779 8.82357L28.1529 8.52142L27.728 8.21935L28.0092 7.78161Z" fill="#FF7F2F"/>
<path d="M6.47461 5.23607L7.02309 4.77115C7.32483 4.51551 7.59388 4.31416 7.621 4.32375C7.69438 4.34972 11.2257 8.83571 11.2257 8.90298C11.2257 8.93477 11.0533 9.10638 10.8426 9.2844C10.5223 9.55507 10.4441 9.591 10.365 9.5038L8.62589 7.58764C7.7215 6.59105 6.86744 5.65426 6.72806 5.50591L6.47461 5.23607Z" fill="#FF7F2F"/>
<path d="M30.1106 9.10592C30.3941 8.79841 31.2702 7.84909 32.0575 6.99633C32.8448 6.14357 33.532 5.44362 33.5845 5.4409C33.7213 5.43381 34.9857 6.71797 35.5866 7.47439C41.0263 14.3209 41.4479 23.8577 36.6312 31.1055C33.3333 36.068 28.1702 39.2121 22.1714 39.9108C20.901 40.0587 18.3111 40.0168 17.1024 39.8288C13.6814 39.2966 10.6798 38.0326 7.93952 35.9702C7.00236 35.2648 5.40513 33.7748 5.44002 33.6385C5.46496 33.5408 9.53328 29.6711 9.61096 29.6711C9.63846 29.6711 9.95368 29.9491 10.3115 30.2888C14.1229 33.9081 19.6364 35.0803 24.6285 33.3328C28.6372 31.9297 31.8628 28.6973 33.263 24.6802C34.998 19.7029 33.8344 14.1537 30.263 10.372L29.5953 9.66499L30.1106 9.10592Z" fill="#FF7F2F"/>
<path d="M4.29443 7.65219C4.29443 7.63151 4.48828 7.37836 4.72522 7.08972C4.96398 6.79898 5.19836 6.58116 5.25088 6.60132C5.30294 6.62141 6.29472 7.50889 7.45482 8.57358L9.56406 10.5094L9.21576 10.9136C8.87658 11.3073 8.86332 11.3145 8.70668 11.1892C8.61823 11.1185 7.5893 10.3022 6.42017 9.37523C5.25103 8.44825 4.29443 7.67288 4.29443 7.65219Z" fill="#FF7F2F"/>
<path d="M2.46985 10.4442C2.44001 10.4269 2.58994 10.1283 2.803 9.7805L3.19033 9.14819L3.62038 9.42489C3.85695 9.5771 4.96815 10.2962 6.08975 11.0228L8.129 12.3441L7.93499 12.6838C7.82831 12.8707 7.69888 13.0689 7.64742 13.1244C7.57034 13.2072 7.10685 12.9808 5.03889 11.8504C3.65571 11.0943 2.49961 10.4615 2.46985 10.4442Z" fill="#FF7F2F"/>
<path d="M1.14604 13.476C1.1272 13.4605 1.28512 13.0202 1.57036 12.293L1.64962 12.0909L4.3093 13.2308C5.77219 13.8577 6.98299 14.3816 6.99994 14.395C7.01697 14.4084 6.94615 14.6318 6.84256 14.8917C6.71968 15.1999 6.61729 15.3555 6.54797 15.3396C6.41944 15.31 1.177 13.5014 1.14604 13.476Z" fill="#FF7F2F"/>
<path d="M17.2053 15.9966C17.7945 15.5819 18.3389 15.3549 19.0988 15.2071C19.7631 15.0779 20.713 15.1323 21.3843 15.3381C22.2001 15.5882 22.7427 15.92 23.4013 16.5717C24.4353 17.5947 24.9192 18.8438 24.8387 20.2821C24.6982 22.7922 22.7444 24.7501 20.2395 24.8909C18.8043 24.9716 17.5578 24.4866 16.5369 23.4505C16.1841 23.0924 15.8354 22.6504 15.6966 22.3854C14.5059 20.1112 15.1332 17.455 17.2053 15.9966Z" fill="#FF7F2F"/>
<path d="M0.308407 16.635C0.278722 16.6119 0.522299 15.3381 0.575038 15.2407C0.595078 15.2037 4.19667 16.0715 5.97087 16.5408C6.28165 16.623 6.29084 16.6537 6.1718 17.21C6.11349 17.4825 6.05442 17.5914 5.96462 17.5917C5.81145 17.5922 0.351652 16.6688 0.308407 16.635Z" fill="#FF7F2F"/>
<path d="M0.00105477 19.3843C0.00158215 19.0833 0.022527 18.7606 0.0474648 18.6671C0.0799367 18.5458 0.149627 18.497 0.291343 18.4964C0.56709 18.4952 5.57838 18.8774 5.76357 18.9137C5.89911 18.9403 5.91169 18.9929 5.88901 19.4375L5.8637 19.9317H2.93189H0L0.00105477 19.3843Z" fill="#FF7F2F"/>
<path d="M0.0754395 21.7683L2.58052 21.5394C3.95828 21.4135 5.27659 21.3059 5.51007 21.3005L5.93447 21.2907L5.98758 21.7874C6.01674 22.0606 6.02917 22.2937 6.01516 22.3055C5.97493 22.3394 0.583161 23.1785 0.406713 23.1783C0.269141 23.1782 0.23682 23.1089 0.161856 22.654C0.114316 22.3657 0.0754395 22.0485 0.0754395 21.949V21.7683Z" fill="#FF7F2F"/>
<path d="M1.75158 24.7314C2.3421 24.5777 3.58802 24.2527 4.52036 24.0093C5.4527 23.7658 6.23971 23.5641 6.26932 23.5611C6.34285 23.5536 6.61958 24.4868 6.56255 24.5497C6.46799 24.6539 1.10079 26.4254 1.04828 26.3696C0.980472 26.2976 0.677979 25.2805 0.677979 25.1245C0.677979 25.0418 0.969622 24.935 1.75158 24.7314Z" fill="#FF7F2F"/>
<path d="M1.77061 28.1102C1.81205 28.0943 3.01562 27.5576 4.44521 26.9172C5.8748 26.2769 7.05245 25.7512 7.06225 25.7491C7.0957 25.7417 7.54405 26.6664 7.51911 26.6914C7.47978 26.7308 2.56832 29.3713 2.44875 29.4172C2.37296 29.4464 2.24669 29.265 2.01833 28.7988C1.84068 28.4358 1.72917 28.1261 1.77061 28.1102Z" fill="#FF7F2F"/>
<path d="M3.37732 31.1255C3.36376 31.0757 4.43759 30.3057 5.76359 29.4143C7.08959 28.5229 8.17977 27.7914 8.18625 27.7886C8.20863 27.7791 8.73985 28.5395 8.75846 28.6077C8.7837 28.6999 4.21383 32.2437 4.13374 32.1941C4.04703 32.1404 3.40776 31.2373 3.37732 31.1255Z" fill="#FF7F2F"/>
<path fill-rule="evenodd" clip-rule="evenodd" d="M83.3873 8.57031C80.5045 9.26761 77.9018 11.1513 76.2356 13.7469C74.2989 16.7636 73.9763 21.2658 75.4577 24.6028C76.5032 26.9573 78.6283 29.1703 80.9141 30.2844C82.8771 31.2412 83.9982 31.4914 86.3081 31.4885C89.3739 31.4844 91.8661 30.7067 94.256 29.0082C95.2346 28.3127 97.079 26.4885 97.079 26.2162C97.079 26.1517 96.1932 25.6163 95.1105 25.0267L93.1422 23.9546L92.2721 24.9029C91.6335 25.5986 91.0121 26.0434 89.9367 26.5742C88.4912 27.2878 88.4469 27.2975 86.6601 27.2975C84.9604 27.2975 84.7791 27.2633 83.7135 26.7411C82.2589 26.0283 80.8813 24.5834 80.3583 23.2225C79.6625 21.4114 78.6844 21.5931 89.1291 21.5931H98.2758V20.0027C98.2758 17.2593 97.5457 15.1335 95.821 12.8539C94.3037 10.8485 91.6929 9.1588 89.212 8.57644C87.8427 8.25495 84.705 8.25171 83.3873 8.57031ZM134.311 8.56537C133.088 8.87392 131.748 9.53666 130.803 10.3002C128.022 12.5481 127.516 17.0762 129.81 19.1826C131.214 20.4711 132.877 21.0918 137.232 21.951C140.227 22.5421 140.563 22.6744 141.353 23.5702C141.847 24.131 141.901 24.2878 141.825 24.9558C141.656 26.4516 139.889 27.553 137.659 27.553C135.549 27.553 133.358 26.7308 131.541 25.2565C131.02 24.8337 130.565 24.4879 130.53 24.4879C130.495 24.4879 129.768 25.1947 128.914 26.0589C127.643 27.3456 127.399 27.6744 127.565 27.876C128.044 28.458 130.848 30.107 132.169 30.5829C134.083 31.2726 135.251 31.4694 137.431 31.4694C141.618 31.4694 144.616 29.8821 146.025 26.9185C146.529 25.8593 146.574 25.6255 146.574 24.0622C146.574 22.0757 146.265 21.2037 145.196 20.169C144.06 19.0709 142.795 18.6067 138.867 17.8467C136.9 17.4662 134.997 17.0284 134.638 16.8741C133.716 16.4772 133.153 15.7533 133.153 14.9642C133.153 13.0393 135.742 11.828 138.661 12.3868C139.907 12.6252 141.998 13.5946 142.566 14.1964C142.781 14.4248 143.019 14.6116 143.093 14.6116C143.168 14.6116 143.825 13.8739 144.553 12.9724L145.876 11.3333L145.37 10.9272C144.627 10.3308 141.943 9.05289 140.761 8.73259C139.317 8.34111 135.583 8.24439 134.311 8.56537ZM54.1664 11.0356V13.2493H59.0572C63.4562 13.2493 63.9376 13.2765 63.8438 13.5199C63.7865 13.6687 61.4831 17.481 58.7252 21.9914C55.9673 26.502 53.6184 30.3646 53.5052 30.5754L53.2996 30.9586H62.4523H71.605V28.7449V26.5313H66.476C63.6282 26.5313 61.347 26.4645 61.347 26.3811C61.347 26.2985 63.7319 22.3505 66.6469 17.6078C69.5619 12.8653 71.9469 8.94816 71.9469 8.90338C71.9469 8.85859 67.9463 8.82198 63.0566 8.82198H54.1664V11.0356ZM103.066 15.6758C103.069 23.3742 103.14 24.0343 104.197 26.1907C105.063 27.9567 106.97 29.8414 108.724 30.665C110.414 31.4585 111.386 31.6704 113.321 31.6666C117.727 31.6579 121.486 28.9169 122.932 24.6582C123.292 23.5985 123.311 23.237 123.369 16.1867L123.431 8.82198H121.035H118.639L118.587 15.6758L118.535 22.5296L118.06 23.4936C117.538 24.5529 116.639 25.4551 115.508 26.0545C114.9 26.377 114.511 26.4436 113.235 26.4434C111.9 26.4431 111.582 26.3831 110.831 25.9894C109.797 25.4479 108.802 24.3971 108.301 23.3167C107.95 22.5605 107.934 22.2618 107.885 15.6758L107.835 8.82198H105.449H103.063L103.066 15.6758ZM87.7613 12.6293C89.7136 13.1488 91.4359 14.5251 92.2124 16.1861C92.971 17.8093 93.4962 17.6766 86.3081 17.6766C79.0798 17.6766 79.6262 17.828 80.4698 16.0589C81.7812 13.3084 84.8638 11.8584 87.7613 12.6293Z" fill="#FF7F2F"/>
</g>
<defs>
<clipPath id="clip0_94_596">
<rect width="147" height="40" fill="white"/>
</clipPath>
</defs>
</svg>
