<svg width="94" height="24" viewBox="0 0 94 24" fill="none" xmlns="http://www.w3.org/2000/svg">
<g clip-path="url(#clip0_94_618)">
<path fill-rule="evenodd" clip-rule="evenodd" d="M30.3873 0.570308C27.5045 1.26762 24.9018 3.15127 23.2356 5.74687C21.2989 8.76358 20.9763 13.2658 22.4577 16.6028C23.5032 18.9573 25.6283 21.1703 27.9141 22.2844C29.8771 23.2413 30.9982 23.4914 33.3081 23.4885C36.3739 23.4844 38.8661 22.7067 41.256 21.0082C42.2346 20.3128 44.079 18.4885 44.079 18.2162C44.079 18.1517 43.1932 17.6163 42.1105 17.0267L40.1422 15.9546L39.2721 16.9029C38.6335 17.5986 38.0121 18.0434 36.9367 18.5742C35.4912 19.2878 35.4469 19.2975 33.6601 19.2975C31.9604 19.2975 31.7791 19.2633 30.7135 18.7411C29.2589 18.0283 27.8813 16.5834 27.3583 15.2225C26.6625 13.4114 25.6844 13.5931 36.1291 13.5931H45.2758V12.0027C45.2758 9.25927 44.5457 7.13347 42.821 4.85391C41.3037 2.84851 38.6929 1.15881 36.212 0.57644C34.8427 0.254948 31.705 0.251712 30.3873 0.570308ZM81.3109 0.565372C80.0878 0.873922 78.7478 1.53666 77.803 2.3002C75.0218 4.54809 74.5157 9.07621 76.8101 11.1826C78.2135 12.4711 79.8774 13.0918 84.2315 13.951C87.2269 14.5421 87.5634 14.6744 88.3531 15.5702C88.8475 16.131 88.9008 16.2878 88.8252 16.9558C88.656 18.4516 86.8892 19.553 84.6591 19.553C82.5486 19.553 80.3581 18.7308 78.5407 17.2565C78.0196 16.8337 77.5647 16.4879 77.5297 16.4879C77.4948 16.4879 76.7678 17.1947 75.9142 18.0589C74.6431 19.3456 74.3989 19.6744 74.5649 19.876C75.0438 20.458 77.8483 22.107 79.1687 22.5829C81.0827 23.2726 82.2507 23.4694 84.4313 23.4694C88.6182 23.4694 91.6158 21.8821 93.0252 18.9185C93.5289 17.8593 93.5739 17.6255 93.5739 16.0622C93.5739 14.0757 93.2651 13.2037 92.1955 12.169C91.0603 11.0709 89.7951 10.6067 85.8672 9.84674C83.8997 9.46616 81.9967 9.02836 81.6382 8.87409C80.7158 8.47716 80.153 7.7533 80.153 6.96422C80.153 5.03935 82.7419 3.82797 85.6613 4.38683C86.9067 4.62523 88.9984 5.59464 89.566 6.19642C89.7815 6.42476 90.0188 6.61156 90.0933 6.61156C90.168 6.61156 90.8247 5.8739 91.5528 4.97243L92.8765 3.3333L92.3704 2.92718C91.6272 2.33085 88.9432 1.05289 87.761 0.732587C86.317 0.34111 82.5831 0.244391 81.3109 0.565372ZM1.16636 3.03565V5.24931H6.05721C10.4562 5.24931 10.9376 5.27655 10.8438 5.51988C10.7865 5.66871 8.48306 9.48097 5.72519 13.9914C2.96733 18.502 0.618424 22.3646 0.505244 22.5755L0.299561 22.9586H9.45227H18.605V20.7449V18.5313H13.476C10.6282 18.5313 8.34697 18.4645 8.34697 18.3811C8.34697 18.2985 10.7319 14.3505 13.6469 9.60783C16.5619 4.86532 18.9469 0.948161 18.9469 0.903377C18.9469 0.858593 14.9463 0.821984 10.0566 0.821984H1.16636V3.03565ZM50.0658 7.67582C50.0692 15.3742 50.1401 16.0343 51.1974 18.1907C52.0633 19.9567 53.9699 21.8414 55.7241 22.665C57.4141 23.4585 58.3862 23.6704 60.3208 23.6666C64.7273 23.6579 68.4864 20.9169 69.9324 16.6582C70.2921 15.5985 70.3108 15.237 70.3694 8.18666L70.4306 0.821984H68.0347H65.6388L65.587 7.67582L65.5353 14.5297L65.06 15.4936C64.5377 16.5529 63.6388 17.4551 62.5084 18.0545C61.8997 18.377 61.5106 18.4436 60.2354 18.4434C58.9001 18.4431 58.5823 18.3831 57.831 17.9894C56.7972 17.4479 55.8024 16.3971 55.3007 15.3167C54.9497 14.5605 54.9335 14.2618 54.8853 7.67582L54.8354 0.821984H52.449H50.0628L50.0658 7.67582ZM34.7613 4.62931C36.7136 5.14884 38.4359 6.52506 39.2124 8.18615C39.971 9.80928 40.4962 9.67663 33.3081 9.67663C26.0798 9.67663 26.6262 9.82801 27.4698 8.05895C28.7812 5.3084 31.8638 3.85845 34.7613 4.62931Z" fill="#FF7F2F"/>
</g>
<defs>
<clipPath id="clip0_94_618">
<rect width="94" height="24" fill="white"/>
</clipPath>
</defs>
</svg>
