<svg width="40" height="40" viewBox="0 0 40 40" fill="none" xmlns="http://www.w3.org/2000/svg">
<g clip-path="url(#clip0_94_665)">
<path d="M18.4583 0.213133C18.4584 0.143523 18.5179 0.0710441 18.5903 0.0520184C18.6628 0.0330682 18.985 0.0135896 19.3061 0.00875767L19.89 0V2.93804V5.876L19.4019 5.90137L18.9138 5.92666L18.8757 5.62467C18.834 5.29496 18.4579 0.418641 18.4583 0.213133Z" fill="#111820"/>
<path d="M21.4759 2.72626C21.5981 1.29828 21.6981 0.113772 21.6981 0.0941431C21.6981 0.0744379 21.8422 0.0773827 22.0182 0.100712C22.1943 0.124041 22.5165 0.165037 22.734 0.191839C23.0326 0.228682 23.1295 0.271339 23.1291 0.365712C23.1285 0.589114 22.2456 5.9694 22.2025 6.01258C22.1795 6.03561 21.9464 6.02572 21.6847 5.99061L21.2087 5.92666L21.2312 5.62467C21.2437 5.45857 21.3537 4.15433 21.4759 2.72626Z" fill="#111820"/>
<path d="M15.2015 0.718376C15.1839 0.589499 15.2603 0.550618 15.7461 0.441144C16.6767 0.231408 16.537 -0.0474854 17.076 3.09545C17.336 4.6111 17.5499 5.90598 17.5515 5.97295C17.5536 6.06166 17.4302 6.12115 17.0983 6.19174C16.8307 6.24867 16.6171 6.26075 16.5813 6.22096C16.5258 6.15928 15.2493 1.06876 15.2015 0.718376Z" fill="#111820"/>
<path d="M24.2177 3.47831C24.6138 1.93594 24.9378 0.660842 24.9378 0.644761C24.9378 0.614335 25.9091 0.878884 26.1951 0.987225C26.3571 1.0486 26.3445 1.09617 25.4607 3.75245C24.9661 5.23894 24.5466 6.49472 24.5285 6.54311C24.5046 6.60653 24.3638 6.59 24.0233 6.48385C23.7637 6.40284 23.5392 6.32447 23.5244 6.30967C23.5096 6.29487 23.8216 5.02075 24.2177 3.47831Z" fill="#111820"/>
<path d="M12.0544 1.66732C12.0544 1.63002 12.3342 1.49624 12.676 1.37C13.0178 1.24377 13.3193 1.13867 13.346 1.13648C13.4069 1.13143 13.3376 0.946002 14.3895 3.92594C14.8805 5.31701 15.3022 6.50612 15.3266 6.5684C15.3601 6.65364 15.2476 6.72484 14.8725 6.85598C14.5982 6.95186 14.3644 7.01981 14.3528 7.00698C14.3024 6.95073 12.0544 1.72817 12.0544 1.66732Z" fill="#111820"/>
<path d="M25.7138 7.03771C25.7293 7.00796 26.2633 5.80307 26.9005 4.36006C27.5377 2.91705 28.0864 1.73647 28.1199 1.73647C28.1998 1.73647 29.383 2.33284 29.383 2.37308C29.383 2.40222 26.6732 7.48519 26.6307 7.53592C26.5914 7.58273 25.6861 7.09078 25.7138 7.03771Z" fill="#111820"/>
<path d="M9.13 3.2081C9.14318 3.19519 9.40725 3.02834 9.71675 2.83732C10.0264 2.64624 10.3118 2.50075 10.3513 2.51389C10.3907 2.5271 11.0442 3.6731 11.8033 5.06054C12.8784 7.02532 13.163 7.60199 13.09 7.66782C13.0385 7.71433 12.8389 7.84207 12.6465 7.95162C12.3778 8.10466 12.2795 8.12934 12.2229 8.058C12.0447 7.83324 9.10853 3.22909 9.13 3.2081Z" fill="#111820"/>
<path d="M28.0092 7.7816C28.1639 7.54083 28.8837 6.44073 29.6088 5.33687C30.334 4.233 30.949 3.32807 30.9755 3.32588C31.0775 3.31757 32.1275 4.11862 32.1084 4.19019C32.09 4.25957 31.6079 4.89452 29.3824 7.78031L28.5779 8.82356L28.1529 8.52141L27.728 8.21934L28.0092 7.7816Z" fill="#111820"/>
<path d="M6.47461 5.23607L7.02309 4.77115C7.32483 4.51551 7.59388 4.31416 7.621 4.32375C7.69438 4.34972 11.2257 8.83571 11.2257 8.90298C11.2257 8.93477 11.0533 9.10638 10.8426 9.2844C10.5223 9.55507 10.4441 9.591 10.365 9.5038L8.62589 7.58764C7.7215 6.59105 6.86744 5.65426 6.72806 5.50591L6.47461 5.23607Z" fill="#111820"/>
<path d="M30.1106 9.10592C30.3941 8.79841 31.2702 7.84909 32.0575 6.99633C32.8448 6.14357 33.532 5.44362 33.5845 5.4409C33.7213 5.43381 34.9857 6.71797 35.5866 7.47439C41.0263 14.3209 41.4479 23.8577 36.6312 31.1055C33.3333 36.068 28.1702 39.2121 22.1714 39.9108C20.901 40.0587 18.3111 40.0168 17.1024 39.8288C13.6814 39.2966 10.6798 38.0326 7.93952 35.9702C7.00236 35.2648 5.40513 33.7748 5.44002 33.6385C5.46496 33.5408 9.53328 29.6711 9.61096 29.6711C9.63846 29.6711 9.95368 29.9491 10.3115 30.2888C14.1229 33.9081 19.6364 35.0803 24.6285 33.3328C28.6372 31.9297 31.8628 28.6973 33.263 24.6802C34.998 19.7029 33.8344 14.1537 30.263 10.372L29.5953 9.66499L30.1106 9.10592Z" fill="#111820"/>
<path d="M4.29443 7.65219C4.29443 7.63151 4.48828 7.37836 4.72522 7.08972C4.96398 6.79898 5.19836 6.58116 5.25088 6.60132C5.30294 6.62141 6.29472 7.50889 7.45482 8.57358L9.56406 10.5094L9.21576 10.9136C8.87658 11.3073 8.86332 11.3145 8.70668 11.1892C8.61823 11.1185 7.5893 10.3022 6.42017 9.37523C5.25103 8.44825 4.29443 7.67288 4.29443 7.65219Z" fill="#111820"/>
<path d="M2.46985 10.4442C2.44001 10.4269 2.58994 10.1283 2.803 9.78051L3.19033 9.1482L3.62038 9.4249C3.85695 9.57711 4.96815 10.2962 6.08975 11.0228L8.129 12.3441L7.93499 12.6838C7.82831 12.8707 7.69888 13.0689 7.64742 13.1244C7.57034 13.2072 7.10685 12.9808 5.03889 11.8504C3.65571 11.0943 2.49961 10.4615 2.46985 10.4442Z" fill="#111820"/>
<path d="M1.14604 13.476C1.1272 13.4605 1.28512 13.0202 1.57036 12.293L1.64962 12.0909L4.3093 13.2308C5.77219 13.8577 6.98299 14.3816 6.99994 14.395C7.01697 14.4084 6.94615 14.6318 6.84256 14.8917C6.71968 15.1999 6.61729 15.3555 6.54797 15.3396C6.41944 15.31 1.177 13.5014 1.14604 13.476Z" fill="#111820"/>
<path d="M17.2053 15.9966C17.7945 15.5819 18.3389 15.3549 19.0988 15.2071C19.7631 15.0779 20.713 15.1323 21.3843 15.3381C22.2001 15.5882 22.7427 15.92 23.4013 16.5717C24.4353 17.5947 24.9192 18.8438 24.8387 20.2821C24.6982 22.7922 22.7444 24.7501 20.2395 24.8909C18.8043 24.9716 17.5578 24.4866 16.5369 23.4505C16.1841 23.0924 15.8354 22.6504 15.6966 22.3854C14.5059 20.1112 15.1332 17.455 17.2053 15.9966Z" fill="#111820"/>
<path d="M0.308407 16.635C0.278722 16.6119 0.522299 15.3381 0.575038 15.2407C0.595078 15.2037 4.19667 16.0715 5.97087 16.5408C6.28165 16.623 6.29084 16.6537 6.1718 17.21C6.11349 17.4825 6.05442 17.5914 5.96462 17.5917C5.81145 17.5922 0.351652 16.6688 0.308407 16.635Z" fill="#111820"/>
<path d="M0.00105477 19.3843C0.00158215 19.0833 0.022527 18.7606 0.0474648 18.6671C0.0799367 18.5458 0.149627 18.497 0.291343 18.4964C0.56709 18.4952 5.57838 18.8774 5.76357 18.9137C5.89911 18.9403 5.91169 18.9929 5.88901 19.4375L5.8637 19.9317H2.93189H0L0.00105477 19.3843Z" fill="#111820"/>
<path d="M0.0754395 21.7683L2.58052 21.5394C3.95828 21.4135 5.27659 21.3059 5.51007 21.3005L5.93447 21.2907L5.98758 21.7874C6.01674 22.0606 6.02917 22.2937 6.01516 22.3055C5.97493 22.3394 0.583161 23.1785 0.406713 23.1783C0.269141 23.1782 0.23682 23.1089 0.161856 22.654C0.114316 22.3657 0.0754395 22.0485 0.0754395 21.949V21.7683Z" fill="#111820"/>
<path d="M1.75158 24.7314C2.3421 24.5777 3.58802 24.2527 4.52036 24.0093C5.4527 23.7658 6.23971 23.5641 6.26932 23.5611C6.34285 23.5536 6.61958 24.4868 6.56255 24.5497C6.46799 24.6539 1.10079 26.4254 1.04828 26.3696C0.980472 26.2976 0.677979 25.2805 0.677979 25.1245C0.677979 25.0418 0.969622 24.935 1.75158 24.7314Z" fill="#111820"/>
<path d="M1.77061 28.1102C1.81205 28.0943 3.01562 27.5576 4.44521 26.9172C5.8748 26.2769 7.05245 25.7512 7.06225 25.7491C7.0957 25.7417 7.54405 26.6664 7.51911 26.6914C7.47978 26.7308 2.56832 29.3713 2.44875 29.4172C2.37296 29.4464 2.24669 29.265 2.01833 28.7988C1.84068 28.4358 1.72917 28.1261 1.77061 28.1102Z" fill="#111820"/>
<path d="M3.37732 31.1255C3.36376 31.0757 4.43759 30.3057 5.76359 29.4143C7.08959 28.5229 8.17977 27.7914 8.18625 27.7886C8.20863 27.7791 8.73985 28.5395 8.75846 28.6077C8.7837 28.6999 4.21383 32.2437 4.13374 32.1941C4.04703 32.1404 3.40776 31.2373 3.37732 31.1255Z" fill="#111820"/>
</g>
<defs>
<clipPath id="clip0_94_665">
<rect width="40" height="40" fill="white"/>
</clipPath>
</defs>
</svg>
