{
    "asset" : {
        "generator" : "Khronos glTF Blender I/O v3.3.32",
        "version" : "2.0"
    },
    "scene" : 0,
    "scenes" : [
        {
            "name" : "Scene",
            "nodes" : [
                0
            ]
        }
    ],
    "nodes" : [
        {
            "mesh" : 0,
            "name" : "polySurface124_LavaSword_Mat_0",
            "scale" : [
                0.025953860953450203,
                0.025953860953450203,
                0.025953860953450203
            ]
        }
    ],
    "materials" : [
        {
            "doubleSided" : true,
            "emissiveFactor" : [
                1,
                1,
                1
            ],
            "emissiveTexture" : {
                "index" : 0
            },
            "name" : "LavaSword_Mat",
            "normalTexture" : {
                "index" : 1
            },
            "occlusionTexture" : {
                "index" : 2
            },
            "pbrMetallicRoughness" : {
                "baseColorTexture" : {
                    "index" : 3
                },
                "metallicRoughnessTexture" : {
                    "index" : 2
                }
            }
        }
    ],
    "meshes" : [
        {
            "name" : "polySurface124_LavaSword_Mat_0",
            "primitives" : [
                {
                    "attributes" : {
                        "POSITION" : 0,
                        "NORMAL" : 1,
                        "TEXCOORD_0" : 2
                    },
                    "indices" : 3,
                    "material" : 0
                }
            ]
        }
    ],
    "textures" : [
        {
            "sampler" : 0,
            "source" : 0
        },
        {
            "sampler" : 0,
            "source" : 1
        },
        {
            "sampler" : 0,
            "source" : 2
        },
        {
            "sampler" : 0,
            "source" : 3
        }
    ],
    "images" : [
        {
            "mimeType" : "image/png",
            "name" : "LavaSword_Mat_emissive",
            "uri" : "textures/LavaSword_Mat_emissive.png"
        },
        {
            "mimeType" : "image/png",
            "name" : "LavaSword_Mat_normal",
            "uri" : "textures/LavaSword_Mat_normal.png"
        },
        {
            "mimeType" : "image/png",
            "name" : "LavaSword_Mat_metallicRoughness",
            "uri" : "textures/LavaSword_Mat_metallicRoughness.png"
        },
        {
            "mimeType" : "image/png",
            "name" : "LavaSword_Mat_baseColor",
            "uri" : "textures/LavaSword_Mat_baseColor.png"
        }
    ],
    "accessors" : [
        {
            "bufferView" : 0,
            "componentType" : 5126,
            "count" : 14724,
            "max" : [
                20.061656951904297,
                258.8492736816406,
                47.34521484375
            ],
            "min" : [
                -20.062124252319336,
                -297.2904052734375,
                -42.87261962890625
            ],
            "type" : "VEC3"
        },
        {
            "bufferView" : 1,
            "componentType" : 5126,
            "count" : 14724,
            "type" : "VEC3"
        },
        {
            "bufferView" : 2,
            "componentType" : 5126,
            "count" : 14724,
            "type" : "VEC2"
        },
        {
            "bufferView" : 3,
            "componentType" : 5123,
            "count" : 27780,
            "type" : "SCALAR"
        }
    ],
    "bufferViews" : [
        {
            "buffer" : 0,
            "byteLength" : 176688,
            "byteOffset" : 0,
            "target" : 34962
        },
        {
            "buffer" : 0,
            "byteLength" : 176688,
            "byteOffset" : 176688,
            "target" : 34962
        },
        {
            "buffer" : 0,
            "byteLength" : 117792,
            "byteOffset" : 353376,
            "target" : 34962
        },
        {
            "buffer" : 0,
            "byteLength" : 55560,
            "byteOffset" : 471168,
            "target" : 34963
        }
    ],
    "samplers" : [
        {
            "magFilter" : 9729,
            "minFilter" : 9987
        }
    ],
    "buffers" : [
        {
            "byteLength" : 526728,
            "uri" : "LavaSword.bin"
        }
    ]
}
