<svg xmlns="http://www.w3.org/2000/svg" width="500" height="500" style="width:100%;height:100%;transform:translate3d(0,0,0);content-visibility:visible" viewBox="0 0 500 500"><defs><clipPath id="a"><path d="M0 0h500v500H0z"/></clipPath><clipPath id="c"><path d="M0 0h500v500H0z"/></clipPath><clipPath id="b"><path d="M0 0h500v500H0z"/></clipPath></defs><g clip-path="url(#a)"><g clip-path="url(#b)" style="display:block"><path fill="none" style="display:none"/><path fill="none" style="display:none"/><path fill="#121330" d="M-36.597 120.166c-22.266 0-43.199-8.67-58.943-24.415-32.501-32.501-32.501-85.385 0-117.886l73.655-73.656c32.502-32.501 85.385-32.501 117.887 0 13.293 13.293 21.522 30.163 23.797 48.787 1.049 8.579-5.057 16.385-13.636 17.433-8.583 1.05-16.384-5.057-17.433-13.637-1.42-11.618-6.558-22.147-14.861-30.45-20.297-20.297-53.324-20.299-73.621 0L-73.407-.003c-20.298 20.297-20.298 53.324 0 73.622 9.832 9.833 22.905 15.248 36.81 15.248 13.905 0 26.979-5.415 36.811-15.248l19.335-19.335c6.111-6.111 16.022-6.111 22.133 0 6.111 6.112 6.111 16.02 0 22.132L22.347 95.751c-15.744 15.744-36.678 24.415-58.944 24.415z" style="display:block" transform="translate(183.016 287.958)"/><path fill="#121330" d="M-37.079 120.166c-21.346 0-42.692-8.125-58.943-24.375-13.292-13.293-21.521-30.163-23.796-48.787-1.049-8.579 5.057-16.385 13.636-17.433 8.582-1.051 16.384 5.057 17.433 13.637 1.42 11.619 6.558 22.148 14.86 30.45 20.298 20.297 53.325 20.297 73.621 0L73.387.003C83.22-9.83 88.635-22.903 88.635-36.808c0-13.905-5.415-26.977-15.248-36.81-9.832-9.833-22.905-15.248-36.81-15.248-13.905 0-26.979 5.414-36.811 15.247l-19.335 19.336c-6.111 6.111-16.022 6.111-22.133 0-6.111-6.112-6.111-16.021 0-22.133l19.335-19.335c15.744-15.744 36.678-24.415 58.944-24.415 22.266 0 43.199 8.67 58.943 24.415 15.744 15.744 24.415 36.677 24.415 58.943S111.264 6.391 95.52 22.135L21.865 95.791c-16.251 16.25-37.597 24.375-58.944 24.375z" style="display:block" transform="translate(317.005 213.345)"/><path style="display:none"/><path style="display:none"/></g><g clip-path="url(#c)" opacity="0" style="display:block"><path fill="none" style="display:none"/><path fill="none" style="display:none"/><path style="display:none"/><path style="display:none"/></g><path style="display:none"/></g></svg>