<svg xmlns="http://www.w3.org/2000/svg" width="500" height="500" style="width:100%;height:100%;transform:translate3d(0,0,0);content-visibility:visible" viewBox="0 0 500 500"><defs><clipPath id="a"><path d="M0 0h500v500H0z"/></clipPath><clipPath id="c"><path d="M0 0h500v500H0z"/></clipPath><clipPath id="b"><path d="M0 0h500v500H0z"/></clipPath></defs><g clip-path="url(#a)"><g clip-path="url(#b)" style="display:block"><path fill="#121330" d="M2.691-41.667H-31.25c-5.753 0-10.417 4.664-10.417 10.417V2.692c0 21.525 17.45 38.975 38.976 38.975h5.382c21.526 0 38.976-17.45 38.976-38.975v-5.383c0-21.526-17.45-38.976-38.976-38.976z" class="primary design" style="display:block" transform="translate(104.171 187.753)"/><path fill="#121330" d="M2.691-41.667H-31.25c-5.754 0-10.417 4.663-10.417 10.417V2.691c0 21.525 17.45 38.976 38.976 38.976h5.382c21.526 0 38.976-17.451 38.976-38.976v-5.383c0-21.525-17.45-38.975-38.976-38.975z" class="primary design" style="display:block" transform="translate(187.509 104.421)"/><path fill="#121330" d="M41.667-31.25c0-5.754-4.664-10.417-10.417-10.417H-2.691c-21.526 0-38.976 17.45-38.976 38.975v5.383c0 21.525 17.45 38.976 38.976 38.976h5.382c21.526 0 38.976-17.451 38.976-38.976V-31.25z" class="primary design" style="display:block" transform="translate(312.51 104.421)"/><path fill="#121330" d="M31.25-41.667H0c-23.013 0-41.667 18.655-41.667 41.667S-23.013 41.667 0 41.667c23.012 0 41.667-18.655 41.667-41.667v-31.25c0-5.753-4.664-10.417-10.417-10.417z" class="primary design" style="display:block" transform="translate(395.837 187.753)"/><path fill="none" class="primary design" style="display:none"/><path fill="#121330" d="M106.856 145.831H72.915c-5.753 0-10.417 4.664-10.417 10.417v33.942c0 21.525 17.45 38.975 38.976 38.975h5.382c21.526 0 38.976-17.45 38.976-38.975v-5.383c0-21.526-17.45-38.976-38.976-38.976zm83.339-83.332h-33.941c-5.754 0-10.417 4.663-10.417 10.417v33.941c0 21.525 17.45 38.976 38.976 38.976h5.382c21.526 0 38.976-17.451 38.976-38.976v-5.383c0-21.525-17.45-38.975-38.976-38.975zm236.886 83.332h-31.25c-23.013 0-41.667 18.655-41.667 41.667s18.654 41.667 41.667 41.667c23.012 0 41.667-18.655 41.667-41.667v-31.25c0-5.753-4.664-10.417-10.417-10.417zm-72.91-72.915c0-5.754-4.664-10.417-10.417-10.417h-33.941c-21.526 0-38.976 17.45-38.976 38.975v5.383c0 21.525 17.45 38.976 38.976 38.976h5.382c21.526 0 38.976-17.451 38.976-38.976V72.916zm-187.456 364.62c-5.328 0-10.7-.51-16.069-1.537-16.529-3.154-31.626-11.336-43.651-23.66-11.998-12.295-19.811-27.551-22.593-44.119l-.023-.135c-3.413-21.47 1.174-42.846 12.914-60.189.232-.343.478-.677.737-1l85.303-106.68c.309-.51.648-1.003 1.016-1.478 15.836-20.397 39.781-32.094 65.696-32.094 25.916 0 49.862 11.698 65.696 32.095.368.475.707.968 1.017 1.478l85.303 106.679c.293.367.569.745.829 1.137 12.058 18.223 16.437 40.365 12.331 62.344-6.224 32.421-31.872 58.656-63.838 65.359l-.142.03c-19.309 3.861-38.502 1.359-55.501-7.238-15.525-7.852-30.923-11.834-45.765-11.834-14.769 0-30.028 4.011-46.674 12.262-11.478 5.689-23.903 8.58-36.586 8.58zm-51.435-74.438c3.532 20.866 20.482 38.197 41.24 42.158 11.389 2.179 22.755.675 32.881-4.344 20.773-10.297 41.146-15.517 60.552-15.517 19.817 0 39.968 5.114 59.913 15.202 10.663 5.393 22.819 6.945 35.167 4.49 19.43-4.108 35.64-20.765 39.435-40.534 2.587-13.851.061-27.24-7.32-38.694l-85.992-107.541a15.584 15.584 0 0 1-1.156-1.655c-9.855-11.917-24.326-18.719-39.955-18.719-15.629 0-30.099 6.802-39.955 18.719a15.584 15.584 0 0 1-1.156 1.655l-86.045 107.607c-7.118 10.775-9.748 23.614-7.609 37.173z" class="primary design" style="display:block"/><g class="primary design" style="display:none"><path/><path/><path/><path/><path/></g></g><g clip-path="url(#c)" opacity="0" style="display:block"><path class="primary design" style="display:none"/><path class="primary design" style="display:none"/><path class="primary design" style="display:none"/><path class="primary design" style="display:none"/><path fill="none" class="primary design" style="display:none"/><g class="primary design" style="display:none"><path/><path/><path/><path/><path/></g></g><g class="com" style="display:none"><path/><path/><path/><path/><path/><path/><path/><path/><path/><path/><path/><path/></g></g></svg>