<svg xmlns="http://www.w3.org/2000/svg" width="500" height="500" style="width:100%;height:100%;transform:translate3d(0,0,0);content-visibility:visible" viewBox="0 0 500 500"><defs><clipPath id="c"><path d="M0 0h500v500H0z"/></clipPath><clipPath id="g"><path d="M0 0h500v500H0z"/></clipPath><clipPath id="e"><path d="M0 0h500v500H0z"/></clipPath><clipPath id="d"><path d="M0 0h500v500H0z"/></clipPath><filter id="a" width="100%" height="100%" x="0%" y="0%" filterUnits="objectBoundingBox"><feComponentTransfer in="SourceGraphic"><feFuncA tableValues="1.0 0.0" type="table"/></feComponentTransfer></filter><mask id="f" mask-type="alpha"><g filter="url(#a)"><path fill="#fff" d="M0 0h500v500H0z" opacity="0"/><use xmlns:ns1="http://www.w3.org/1999/xlink" ns1:href="#b"/></g></mask><g id="b" class="primary design" style="display:block"><path fill="#121330" d="M593.594 208h-562l-104 12v400h666V208z"/><path fill-opacity="0" stroke="#121330" stroke-width="0" d="M593.594 208h-562l-104 12v400h666V208z"/></g></defs><g clip-path="url(#c)"><g clip-path="url(#d)" opacity="0" style="display:block"><path fill="#121330" d="M8.25-5H-.54l-1.29-2.59A.76.76 0 0 0-2.5-8h-6.75c-.41 0-.75.34-.75.75v13.5C-10 7.21-9.21 8-8.25 8h16.5C9.21 8 10 7.21 10 6.25v-9.5C10-4.21 9.21-5 8.25-5zM8.5 6.25c0 .14-.11.25-.25.25h-16.5c-.14 0-.25-.11-.25-.25V-6.5h5.54l1.29 2.59c.13.25.39.41.67.41h9.25c.14 0 .25.11.25.25v9.5z" class="primary design" opacity="1" style="display:block" transform="translate(250.002 250.002) scale(20.83)"/><path fill="none" class="primary design" style="display:none"/><path fill="none" class="primary design" style="display:none"/><g fill="#121330" class="primary design" opacity="1" style="display:block"><path d="M380.212 296.903H265.628c-8.644 0-15.65-7.007-15.65-15.65s7.006-15.65 15.65-15.65h114.584c8.644 0 15.65 7.007 15.65 15.65s-7.006 15.65-15.65 15.65z" opacity="1"/><path d="M322.92 354.195c-8.644 0-15.65-7.007-15.65-15.65V223.961c0-8.643 7.006-15.65 15.65-15.65s15.65 7.007 15.65 15.65v114.584c0 8.643-7.006 15.65-15.65 15.65z" opacity="1"/></g></g><g clip-path="url(#e)" style="display:block"><path fill="#121330" d="M8.25-5H-.54l-1.29-2.59A.76.76 0 0 0-2.5-8h-6.75c-.41 0-.75.34-.75.75v13.5C-10 7.21-9.21 8-8.25 8h16.5C9.21 8 10 7.21 10 6.25v-9.5C10-4.21 9.21-5 8.25-5zM8.5 6.25c0 .14-.11.25-.25.25h-16.5c-.14 0-.25-.11-.25-.25V-6.5h5.54l1.29 2.59c.13.25.39.41.67.41h9.25c.14 0 .25.11.25.25v9.5z" class="primary design" style="display:block" transform="translate(250.002 250.002) scale(20.83)"/><path class="primary design" style="display:none"/><path fill="none" class="primary design" style="display:none"/><path fill="none" class="primary design" style="display:none"/><g fill="#121330" class="primary design" style="display:block"><path d="M380.212 296.903H265.628c-8.644 0-15.65-7.007-15.65-15.65s7.006-15.65 15.65-15.65h114.584c8.644 0 15.65 7.007 15.65 15.65s-7.006 15.65-15.65 15.65z"/><path d="M322.92 354.195c-8.644 0-15.65-7.007-15.65-15.65V223.961c0-8.643 7.006-15.65 15.65-15.65s15.65 7.007 15.65 15.65v114.584c0 8.643-7.006 15.65-15.65 15.65z"/></g><g mask="url(#f)" style="display:none"><path class="primary design"/></g></g><g clip-path="url(#g)" opacity="0" style="display:block"><path class="primary design" style="display:none"/><path fill="none" class="primary design" style="display:none"/><path fill="none" class="primary design" style="display:none"/><g class="primary design" style="display:none"><path/><path/></g></g><g class="com" style="display:none"><path/><path/><path/><path/><path/><path/><path/><path/><path/><path/><path/><path/></g></g></svg>