<svg xmlns="http://www.w3.org/2000/svg" width="500" height="500" style="width:100%;height:100%;transform:translate3d(0,0,0);content-visibility:visible" viewBox="0 0 500 500"><defs><clipPath id="a"><path d="M0 0h500v500H0z"/></clipPath><clipPath id="c"><path d="M0 0h500v500H0z"/></clipPath><clipPath id="b"><path d="M0 0h500v500H0z"/></clipPath></defs><g clip-path="url(#a)"><g clip-path="url(#b)" style="display:block"><path fill="none" class="primary design" style="display:none"/><g fill="none" class="primary design" style="display:none"><path/><path/></g><path fill="none" class="primary design" style="display:none"/><g fill="#121330" class="primary design" style="display:block"><path d="M423.154 212.27a122.817 122.817 0 0 0-23.765-18.524c-4.405-29.156-18.534-55.898-40.332-76.023-24.035-22.191-55.366-34.412-88.22-34.412-24.522 0-48.387 6.832-69.014 19.758-17.604 11.032-32.201 26.054-42.621 43.779-19.422 2.749-37.31 11.854-51.116 26.172-15.977 16.569-24.776 38.36-24.776 61.358 0 .865.012 1.713.033 2.547a99.31 99.31 0 0 0-12.741 10.763c-18.675 18.676-28.959 43.544-28.959 70.024 0 54.58 44.405 98.983 98.985 98.983h10.415c8.644 0 15.65-7.007 15.65-15.65s-7.006-15.649-15.65-15.649h-10.415c-37.321 0-67.684-30.363-67.684-67.684 0-18.12 7.028-35.13 19.791-47.893a67.897 67.897 0 0 1 14.73-11.175 15.65 15.65 0 0 0 7.742-16.355c-.407-2.308-.596-4.822-.596-7.911 0-30.849 24.129-55.917 54.934-57.069a15.65 15.65 0 0 0 13.429-8.672c16.569-33.325 50.237-54.027 87.863-54.027 51.698 0 93.986 38.804 98.364 90.261a15.652 15.652 0 0 0 8.482 12.613c8.698 4.438 16.551 10.129 23.4 16.978 16.753 16.57 25.979 38.737 25.979 62.416 0 45.663-34.238 83.482-79.64 87.968-8.602.85-14.885 8.511-14.035 17.113.851 8.601 8.505 14.884 17.114 14.035 29.456-2.911 56.684-16.592 76.669-38.523 20.114-22.073 31.193-50.695 31.193-80.593 0-32.105-12.526-62.173-35.209-84.608z"/><path d="m286.854 342.587-20.677 20.677-.003-118.47c-.001-8.643-7.007-15.649-15.65-15.649-8.644 0-15.65 7.006-15.65 15.65l.003 118.468-20.684-20.682c-6.111-6.112-16.021-6.11-22.132.001-6.111 6.112-6.111 16.021.001 22.132l47.395 47.392c.367.367.753.715 1.155 1.044.17.14.35.261.525.393.233.175.462.356.705.518.216.144.44.269.661.402.216.13.428.266.651.385.228.122.463.225.696.335.23.109.456.223.692.321.227.094.458.169.688.252.251.091.5.187.757.265.23.07.464.12.696.179.262.066.522.139.789.192.268.053.54.085.81.124.234.034.465.078.703.101a15.6 15.6 0 0 0 1.543.078c.516 0 1.031-.027 1.544-.078.233-.023.46-.066.69-.099.275-.039.55-.072.823-.126.263-.052.519-.125.777-.19.237-.06.475-.111.709-.182.252-.076.495-.171.742-.26.235-.084.472-.161.704-.257.229-.095.449-.206.673-.312.24-.113.481-.219.716-.345.213-.114.415-.245.622-.368.231-.138.465-.269.691-.42.225-.151.437-.318.654-.48.192-.144.389-.277.576-.431.38-.312.745-.643 1.094-.989.017-.016.035-.03.051-.046l47.393-47.392c6.111-6.112 6.111-16.022 0-22.133-6.113-6.112-16.022-6.111-22.133 0z"/></g><g class="primary design" style="display:none"><path/><path/></g></g><g clip-path="url(#c)" opacity="0" style="display:block"><g class="primary design" style="display:none"><path/><path/></g><path fill="none" class="primary design" style="display:none"/><path fill="none" class="primary design" style="display:none"/><path fill="none" class="primary design" style="display:none"/><path fill="none" class="primary design" style="display:none"/><path fill="none" class="primary design" style="display:none"/><path fill="none" class="primary design" style="display:none"/><path fill="none" class="primary design" style="display:none"/></g><g class="com" style="display:none"><path/><path/><path/><path/><path/><path/><path/><path/><path/><path/><path/><path/></g></g></svg>