<svg xmlns="http://www.w3.org/2000/svg" width="500" height="500" style="width:100%;height:100%;transform:translate3d(0,0,0);content-visibility:visible" viewBox="0 0 500 500"><defs><clipPath id="a"><path d="M0 0h500v500H0z"/></clipPath><clipPath id="c"><path d="M0 0h500v500H0z"/></clipPath><clipPath id="b"><path d="M0 0h500v500H0z"/></clipPath></defs><g clip-path="url(#a)"><g clip-path="url(#b)" style="display:block"><g fill="none" class="primary design" style="display:none"><path/><path/><path/></g><g fill="#121330" class="primary design" style="display:block"><path d="M338.54 458.36H161.456c-31.604 0-57.317-25.713-57.317-57.317V98.961c0-31.604 25.713-57.317 57.317-57.317H338.54c31.604 0 57.317 25.713 57.317 57.317v302.082c0 31.604-25.713 57.317-57.317 57.317zM161.456 72.944c-14.346 0-26.016 11.671-26.016 26.017v302.082c0 14.346 11.67 26.017 26.016 26.017H338.54c14.346 0 26.016-11.671 26.016-26.017V98.961c0-14.346-11.67-26.017-26.016-26.017H161.456z"/><path d="M250 390.286c-.67 0-1.351-.03-2.021-.1-.66-.06-1.33-.169-1.989-.299-.65-.13-1.31-.301-1.94-.491a17.62 17.62 0 0 1-1.89-.679c-.62-.25-1.23-.54-1.82-.85-.59-.32-1.17-.66-1.72-1.03-.561-.37-1.1-.77-1.62-1.2a19.25 19.25 0 0 1-2.851-2.851c-.42-.51-.83-1.06-1.199-1.62a21.11 21.11 0 0 1-1.03-1.719 19.81 19.81 0 0 1-.851-1.82c-.26-.61-.479-1.251-.679-1.881-.189-.64-.36-1.299-.491-1.949-.13-.66-.229-1.331-.299-1.991-.069-.67-.1-1.35-.1-2.02 0-.66.031-1.339.1-2.009.07-.67.169-1.331.299-1.991.131-.65.302-1.309.491-1.949a21.274 21.274 0 0 1 1.53-3.7c.32-.59.66-1.17 1.03-1.73.369-.55.779-1.1 1.199-1.61.42-.53.881-1.03 1.351-1.5.47-.48.979-.931 1.5-1.361.52-.42 1.059-.82 1.62-1.19.55-.37 1.13-.719 1.72-1.029.59-.31 1.2-.6 1.82-.86a20.05 20.05 0 0 1 1.89-.671c.63-.2 1.29-.359 1.94-.489.659-.14 1.329-.241 1.989-.301 1.34-.14 2.701-.14 4.031 0 .67.06 1.34.161 1.99.301.66.13 1.309.289 1.95.489.64.19 1.27.421 1.89.671.61.26 1.219.55 1.809.86.591.31 1.17.659 1.731 1.029.56.37 1.099.77 1.62 1.19.52.43 1.019.881 1.49 1.361.479.47.93.97 1.36 1.5a20.2 20.2 0 0 1 2.219 3.34c.311.59.601 1.2.861 1.81a22.28 22.28 0 0 1 1.17 3.839c.13.66.23 1.321.299 1.991.061.67.101 1.349.101 2.009 0 .67-.04 1.35-.101 2.02a22.41 22.41 0 0 1-.299 1.991 22.28 22.28 0 0 1-1.17 3.83c-.26.62-.55 1.23-.861 1.82a18.59 18.59 0 0 1-1.029 1.719 19.567 19.567 0 0 1-2.55 3.12c-.471.47-.97.931-1.49 1.351-.521.43-1.06.83-1.62 1.2-.561.37-1.14.71-1.731 1.03-.59.31-1.199.6-1.809.85-.62.26-1.25.489-1.89.679-.641.19-1.29.361-1.95.491-.65.13-1.32.239-1.99.299-.66.07-1.34.1-2.01.1zm23.869-265.259h-47.742c-8.644 0-15.65-7.007-15.65-15.65s7.006-15.65 15.65-15.65h47.742c8.644 0 15.65 7.007 15.65 15.65s-7.006 15.65-15.65 15.65z"/></g><g class="primary design" style="display:none"><path/><path/><path/></g></g><g clip-path="url(#c)" opacity="0" style="display:block"><g fill="none" class="primary design" style="display:none"><path/><path/><path/></g><g class="primary design" style="display:none"><path/><path/><path/></g><g class="primary design" style="display:none"><path/><path fill="none"/><path fill="none"/></g></g><g class="com" style="display:none"><path/><path/><path/><path/><path/><path/><path/><path/><path/><path/><path/><path/></g></g></svg>