<svg xmlns="http://www.w3.org/2000/svg" width="500" height="500" style="width:100%;height:100%;transform:translate3d(0,0,0);content-visibility:visible" viewBox="0 0 500 500"><defs><clipPath id="a"><path d="M0 0h500v500H0z"/></clipPath><clipPath id="c"><path d="M0 0h500v500H0z"/></clipPath><clipPath id="b"><path d="M0 0h500v500H0z"/></clipPath></defs><g clip-path="url(#a)"><g clip-path="url(#b)" style="display:block"><g fill="none" class="primary design" style="display:none"><path/><path/></g><g fill="none" class="primary design" style="display:none"><path/><path/></g><g fill="none" class="primary design" style="display:none"><path/><path/></g><g fill="none" class="primary design" style="display:none"><path/><path/></g><g class="primary design" style="display:none"><path/><path/><path/><path/></g><path fill="#121330" d="M442.705 171.872H265.621c-8.626 0-15.625-6.999-15.625-15.625 0-8.626 6.999-15.625 15.625-15.625h177.084c8.626 0 15.625 6.999 15.625 15.625 0 8.626-6.999 15.625-15.625 15.625zm0 187.501H265.621c-8.626 0-15.625-6.999-15.625-15.625 0-8.626 6.999-15.625 15.625-15.625h177.084c8.626 0 15.625 6.999 15.625 15.625 0 8.626-6.999 15.625-15.625 15.625zM171.87 229.164H57.286c-8.626 0-15.625-6.999-15.625-15.625V98.955c0-8.626 6.999-15.625 15.625-15.625H171.87c8.626 0 15.625 6.999 15.625 15.625v114.584c0 8.626-6.999 15.625-15.625 15.625zm-98.959-31.25h83.334V114.58H72.911v83.334zm98.959 218.751H57.286c-8.626 0-15.625-6.999-15.625-15.625V286.456c0-8.626 6.999-15.625 15.625-15.625H171.87c8.626 0 15.625 6.999 15.625 15.625V401.04c0 8.626-6.999 15.625-15.625 15.625zm-98.959-31.25h83.334v-83.334H72.911v83.334z" class="primary design" style="display:block"/></g><g clip-path="url(#c)" opacity="0" style="display:block"><path fill="none" stroke="#121330" stroke-linecap="round" stroke-linejoin="round" stroke-width="31.3" d="m159.129 591.99 4.584-.13m-35.69 13.829h-26.874v-26.874h26.874v26.874zm29.606 174.032h2.084m-28.374 16.785H97.833V763h33.506v33.506z" class="primary design" opacity="1" style="display:block"/><g class="primary design" style="display:none"><path/><path/><path/><path/></g></g><g class="com" style="display:none"><path/><path/><path/><path/><path/><path/><path/><path/><path/><path/><path/><path/></g></g></svg>