<svg xmlns="http://www.w3.org/2000/svg" width="500" height="500" style="width:100%;height:100%;transform:translate3d(0,0,0);content-visibility:visible" viewBox="0 0 500 500"><defs><clipPath id="a"><path d="M0 0h500v500H0z"/></clipPath><clipPath id="d"><path d="M0 0h500v500H0z"/></clipPath><clipPath id="c"><path d="M0 0h500v500H0z"/></clipPath><clipPath id="b"><path d="M0 0h500v500H0z"/></clipPath></defs><g clip-path="url(#a)"><g clip-path="url(#b)" opacity="0" style="display:block"><g fill="none" class="primary design" style="display:none"><path/><path/></g><g fill="none" class="primary design" style="display:none"><path/><path/></g><path fill="none" class="primary design" style="display:none"/><path fill="none" class="primary design" style="display:none"/><path class="primary design" style="display:none"/><path class="primary design" style="display:none"/><path fill="#121330" d="M5 2a3.48 3.48 0 0 0-2.706 1.308L-2.617.853C-2.548.578-2.5.296-2.5 0c0-.296-.048-.579-.117-.853l4.91-2.455A3.482 3.482 0 0 0 5-2c1.93 0 3.5-1.57 3.5-3.5S6.93-9 5-9 1.5-7.43 1.5-5.5c0 .296.048.578.117.853l-4.911 2.455A3.48 3.48 0 0 0-6-3.5c-1.93 0-3.5 1.57-3.5 3.5S-7.93 3.5-6 3.5a3.48 3.48 0 0 0 2.706-1.308l4.911 2.455A3.483 3.483 0 0 0 1.5 5.5C1.5 7.43 3.07 9 5 9s3.5-1.57 3.5-3.5S6.93 2 5 2zm0-9.5c1.103 0 2 .897 2 2s-.897 2-2 2-2-.897-2-2 .897-2 2-2zM-6 2c-1.103 0-2-.897-2-2s.897-2 2-2 2 .897 2 2-.897 2-2 2zM5 7.5c-1.103 0-2-.897-2-2s.897-2 2-2 2 .897 2 2-.897 2-2 2z" class="primary design" opacity="1" style="display:block" transform="translate(250 250) scale(20.83)"/></g><g clip-path="url(#c)" style="display:block"><g fill="none" class="primary design" style="display:none"><path/><path/></g><g fill="none" class="primary design" style="display:none"><path/><path/></g><g fill="none" class="primary design" style="display:none"><path/><path/></g><g fill="none" class="primary design" style="display:none"><path/><path/></g><path fill="none" class="primary design" style="display:none"/><path fill="#121330" d="M5 2a3.48 3.48 0 0 0-2.706 1.308L-2.617.853C-2.548.578-2.5.296-2.5 0c0-.296-.048-.579-.117-.853l4.91-2.455A3.482 3.482 0 0 0 5-2c1.93 0 3.5-1.57 3.5-3.5S6.93-9 5-9 1.5-7.43 1.5-5.5c0 .296.048.578.117.853l-4.911 2.455A3.48 3.48 0 0 0-6-3.5c-1.93 0-3.5 1.57-3.5 3.5S-7.93 3.5-6 3.5a3.48 3.48 0 0 0 2.706-1.308l4.911 2.455A3.483 3.483 0 0 0 1.5 5.5C1.5 7.43 3.07 9 5 9s3.5-1.57 3.5-3.5S6.93 2 5 2zm0-9.5c1.103 0 2 .897 2 2s-.897 2-2 2-2-.897-2-2 .897-2 2-2zM-6 2c-1.103 0-2-.897-2-2s.897-2 2-2 2 .897 2 2-.897 2-2 2zM5 7.5c-1.103 0-2-.897-2-2s.897-2 2-2 2 .897 2 2-.897 2-2 2z" class="primary design" style="display:block" transform="translate(250 250) scale(20.83)"/><path class="primary design" style="display:none"/></g><g clip-path="url(#d)" opacity="0" style="display:block"><g fill="none" class="primary design" style="display:none"><path/><path/></g><g fill="none" class="primary design" style="display:none"><path/><path/></g><path fill="none" class="primary design" style="display:none"/><path class="primary design" style="display:none"/></g><path style="display:none"/></g></svg>