<svg xmlns="http://www.w3.org/2000/svg" width="500" height="500" style="width:100%;height:100%;transform:translate3d(0,0,0);content-visibility:visible" viewBox="0 0 500 500"><defs><clipPath id="a"><path d="M0 0h500v500H0z"/></clipPath><clipPath id="e"><path d="M0 0h500v500H0z"/></clipPath><clipPath id="d"><path d="M0 0h500v500H0z"/></clipPath><clipPath id="c"><path d="M0 0h500v500H0z"/></clipPath><clipPath id="b"><path d="M0 0h500v500H0z"/></clipPath></defs><g clip-path="url(#a)"><g clip-path="url(#b)" opacity="0" style="display:block"><path fill="none" class="primary design" style="display:none"/><g fill="none" class="primary design" style="display:none"><path/><path/></g><g class="primary design" style="display:none"><path/><path/><path/></g><g fill="#121330" class="primary design" opacity="1" style="display:block"><path d="M250.004 458.362a15.653 15.653 0 0 1-11.973-5.571l-116.46-138.334c-17.468-21.01-29.403-45.886-34.587-72.031-2.472-10.875-3.674-22.029-3.674-34.09 0-91.915 74.779-166.692 166.694-166.692 91.914 0 166.692 74.777 166.692 166.692 0 12.066-1.202 23.221-3.675 34.093-5.183 26.143-17.118 51.018-34.524 71.954L261.976 452.791a15.65 15.65 0 0 1-11.972 5.571zm-.001-385.418c-74.656 0-135.392 60.736-135.392 135.392 0 9.767.96 18.71 2.937 27.338.036.158.07.317.102.476 4.149 21.106 13.808 41.239 27.928 58.222l104.425 124.04L354.49 294.299c14.06-16.91 23.718-37.043 27.866-58.149.031-.16.066-.319.102-.477 1.978-8.624 2.937-17.566 2.937-27.337 0-74.656-60.737-135.392-135.392-135.392z" opacity="1"/><path d="M250.004 269.898c-8.644 0-15.65-6.992-15.65-15.635v-.03c0-19.943 10.917-38.533 29.203-49.725 7.615-4.662 15.205-15.158 11.528-29.396-2.196-8.507-9.386-15.699-17.893-17.897-8.363-2.164-16.566-.567-23.096 4.489-6.424 4.975-10.108 12.479-10.108 20.589 0 8.643-7.007 15.65-15.651 15.65s-15.65-7.007-15.65-15.65c0-17.864 8.108-34.388 22.245-45.336 14.147-10.956 32.407-14.618 50.092-10.046 19.49 5.037 35.336 20.885 40.368 40.376 6.442 24.953-3.803 50.639-25.495 63.917-8.918 5.458-14.242 14.068-14.242 23.029 0 8.643-7.007 15.665-15.651 15.665zM250 333.003c-.66 0-1.34-.03-2.01-.1-.671-.07-1.341-.17-1.99-.3-.65-.13-1.31-.3-1.95-.49-.64-.2-1.27-.43-1.89-.68a21.334 21.334 0 0 1-5.16-3.08c-.521-.43-1.02-.88-1.49-1.35-.479-.48-.929-.98-1.36-1.5-.42-.52-.82-1.06-1.19-1.62-.37-.55-.719-1.13-1.03-1.72-.31-.59-.6-1.2-.861-1.82a20.14 20.14 0 0 1-.669-1.89c-.199-.64-.359-1.29-.5-1.94-.13-.66-.23-1.331-.3-1.991-.06-.67-.1-1.349-.1-2.019 0-.67.04-1.35.1-2.02.07-.66.17-1.33.3-1.98.141-.66.301-1.31.5-1.95.19-.64.419-1.27.669-1.89a21.81 21.81 0 0 1 1.891-3.54c.37-.56.77-1.1 1.19-1.62.431-.52.881-1.02 1.36-1.5.47-.47.969-.92 1.49-1.35.52-.42 1.069-.82 1.62-1.19a21.334 21.334 0 0 1 3.54-1.89c.62-.25 1.25-.48 1.89-.68.64-.19 1.3-.36 1.95-.49.649-.13 1.319-.23 1.99-.3 1.34-.13 2.69-.13 4.03 0 .66.07 1.33.17 1.99.3.65.13 1.309.3 1.95.49.63.2 1.27.43 1.88.68.62.26 1.229.54 1.82.86.59.31 1.17.66 1.72 1.03.56.37 1.11.77 1.62 1.19.52.43 1.03.88 1.5 1.35.47.48.93.98 1.35 1.5.431.52.83 1.06 1.2 1.62s.71 1.14 1.03 1.73c.31.58.6 1.19.85 1.81.26.62.49 1.25.679 1.89.2.64.361 1.29.491 1.95.141.65.24 1.32.3 1.98.07.67.11 1.35.11 2.02 0 .67-.04 1.349-.11 2.019-.06.66-.159 1.331-.3 1.991-.13.65-.291 1.3-.491 1.94-.189.64-.419 1.28-.679 1.89-.25.62-.54 1.23-.85 1.82-.32.59-.66 1.17-1.03 1.72-.37.56-.769 1.1-1.2 1.62-.42.52-.88 1.02-1.35 1.5-.47.47-.98.92-1.5 1.35-.51.42-1.06.819-1.62 1.189-.55.37-1.13.721-1.72 1.031-.591.32-1.2.6-1.82.86-.61.25-1.25.48-1.88.68-.641.19-1.3.36-1.95.49-.66.13-1.33.23-1.99.3-.67.07-1.35.1-2.02.1z" opacity="1"/></g></g><g clip-path="url(#c)" opacity="0" style="display:block"><g fill="none" class="primary design" style="display:none"><path/><path/></g><path fill="none" class="primary design" style="display:none"/><g class="primary design" style="display:none"><path/><path/><path/></g><g fill="#121330" class="primary design" opacity="1" style="display:block"><path d="M250.004 458.362a15.653 15.653 0 0 1-11.973-5.571l-116.46-138.334c-17.468-21.01-29.403-45.886-34.587-72.031-2.472-10.875-3.674-22.029-3.674-34.09 0-91.915 74.779-166.692 166.694-166.692 91.914 0 166.692 74.777 166.692 166.692 0 12.066-1.202 23.221-3.675 34.093-5.183 26.143-17.118 51.018-34.524 71.954L261.976 452.791a15.65 15.65 0 0 1-11.972 5.571zm-.001-385.418c-74.656 0-135.392 60.736-135.392 135.392 0 9.767.96 18.71 2.937 27.338.036.158.07.317.102.476 4.149 21.106 13.808 41.239 27.928 58.222l104.425 124.04L354.49 294.299c14.06-16.91 23.718-37.043 27.866-58.149.031-.16.066-.319.102-.477 1.978-8.624 2.937-17.566 2.937-27.337 0-74.656-60.737-135.392-135.392-135.392z" opacity="1"/><path d="M250.004 269.898c-8.644 0-15.65-6.992-15.65-15.635v-.03c0-19.943 10.917-38.533 29.203-49.725 7.615-4.662 15.205-15.158 11.528-29.396-2.196-8.507-9.386-15.699-17.893-17.897-8.363-2.164-16.566-.567-23.096 4.489-6.424 4.975-10.108 12.479-10.108 20.589 0 8.643-7.007 15.65-15.651 15.65s-15.65-7.007-15.65-15.65c0-17.864 8.108-34.388 22.245-45.336 14.147-10.956 32.407-14.618 50.092-10.046 19.49 5.037 35.336 20.885 40.368 40.376 6.442 24.953-3.803 50.639-25.495 63.917-8.918 5.458-14.242 14.068-14.242 23.029 0 8.643-7.007 15.665-15.651 15.665zM250 333.003c-.66 0-1.34-.03-2.01-.1-.671-.07-1.341-.17-1.99-.3-.65-.13-1.31-.3-1.95-.49-.64-.2-1.27-.43-1.89-.68a21.334 21.334 0 0 1-5.16-3.08c-.521-.43-1.02-.88-1.49-1.35-.479-.48-.929-.98-1.36-1.5-.42-.52-.82-1.06-1.19-1.62-.37-.55-.719-1.13-1.03-1.72-.31-.59-.6-1.2-.861-1.82a20.14 20.14 0 0 1-.669-1.89c-.199-.64-.359-1.29-.5-1.94-.13-.66-.23-1.331-.3-1.991-.06-.67-.1-1.349-.1-2.019 0-.67.04-1.35.1-2.02.07-.66.17-1.33.3-1.98.141-.66.301-1.31.5-1.95.19-.64.419-1.27.669-1.89a21.81 21.81 0 0 1 1.891-3.54c.37-.56.77-1.1 1.19-1.62.431-.52.881-1.02 1.36-1.5.47-.47.969-.92 1.49-1.35.52-.42 1.069-.82 1.62-1.19a21.334 21.334 0 0 1 3.54-1.89c.62-.25 1.25-.48 1.89-.68.64-.19 1.3-.36 1.95-.49.649-.13 1.319-.23 1.99-.3 1.34-.13 2.69-.13 4.03 0 .66.07 1.33.17 1.99.3.65.13 1.309.3 1.95.49.63.2 1.27.43 1.88.68.62.26 1.229.54 1.82.86.59.31 1.17.66 1.72 1.03.56.37 1.11.77 1.62 1.19.52.43 1.03.88 1.5 1.35.47.48.93.98 1.35 1.5.431.52.83 1.06 1.2 1.62s.71 1.14 1.03 1.73c.31.58.6 1.19.85 1.81.26.62.49 1.25.679 1.89.2.64.361 1.29.491 1.95.141.65.24 1.32.3 1.98.07.67.11 1.35.11 2.02 0 .67-.04 1.349-.11 2.019-.06.66-.159 1.331-.3 1.991-.13.65-.291 1.3-.491 1.94-.189.64-.419 1.28-.679 1.89-.25.62-.54 1.23-.85 1.82-.32.59-.66 1.17-1.03 1.72-.37.56-.769 1.1-1.2 1.62-.42.52-.88 1.02-1.35 1.5-.47.47-.98.92-1.5 1.35-.51.42-1.06.819-1.62 1.189-.55.37-1.13.721-1.72 1.031-.591.32-1.2.6-1.82.86-.61.25-1.25.48-1.88.68-.641.19-1.3.36-1.95.49-.66.13-1.33.23-1.99.3-.67.07-1.35.1-2.02.1z" opacity="1"/></g></g><g clip-path="url(#d)" style="display:block"><g fill="none" class="primary design" style="display:none"><path/><path/><path/><path/></g><g fill="#121330" class="primary design" style="display:block"><path d="M250.004 458.362a15.653 15.653 0 0 1-11.973-5.571l-116.46-138.334c-17.468-21.01-29.403-45.886-34.587-72.031-2.472-10.875-3.674-22.029-3.674-34.09 0-91.915 74.779-166.692 166.694-166.692 91.914 0 166.692 74.777 166.692 166.692 0 12.066-1.202 23.221-3.675 34.093-5.183 26.143-17.118 51.018-34.524 71.954L261.976 452.791a15.65 15.65 0 0 1-11.972 5.571zm-.001-385.418c-74.656 0-135.392 60.736-135.392 135.392 0 9.767.96 18.71 2.937 27.338.036.158.07.317.102.476 4.149 21.106 13.808 41.239 27.928 58.222l104.425 124.04L354.49 294.299c14.06-16.91 23.718-37.043 27.866-58.149.031-.16.066-.319.102-.477 1.978-8.624 2.937-17.566 2.937-27.337 0-74.656-60.737-135.392-135.392-135.392z"/><path d="M250.004 269.898c-8.644 0-15.65-6.992-15.65-15.635v-.03c0-19.943 10.917-38.533 29.203-49.725 7.615-4.662 15.205-15.158 11.528-29.396-2.196-8.507-9.386-15.699-17.893-17.897-8.363-2.164-16.566-.567-23.096 4.489-6.424 4.975-10.108 12.479-10.108 20.589 0 8.643-7.007 15.65-15.651 15.65s-15.65-7.007-15.65-15.65c0-17.864 8.108-34.388 22.245-45.336 14.147-10.956 32.407-14.618 50.092-10.046 19.49 5.037 35.336 20.885 40.368 40.376 6.442 24.953-3.803 50.639-25.495 63.917-8.918 5.458-14.242 14.068-14.242 23.029 0 8.643-7.007 15.665-15.651 15.665zM250 333.003c-.66 0-1.34-.03-2.01-.1-.671-.07-1.341-.17-1.99-.3-.65-.13-1.31-.3-1.95-.49-.64-.2-1.27-.43-1.89-.68a21.334 21.334 0 0 1-5.16-3.08c-.521-.43-1.02-.88-1.49-1.35-.479-.48-.929-.98-1.36-1.5-.42-.52-.82-1.06-1.19-1.62-.37-.55-.719-1.13-1.03-1.72-.31-.59-.6-1.2-.861-1.82a20.14 20.14 0 0 1-.669-1.89c-.199-.64-.359-1.29-.5-1.94-.13-.66-.23-1.331-.3-1.991-.06-.67-.1-1.349-.1-2.019 0-.67.04-1.35.1-2.02.07-.66.17-1.33.3-1.98.141-.66.301-1.31.5-1.95.19-.64.419-1.27.669-1.89a21.81 21.81 0 0 1 1.891-3.54c.37-.56.77-1.1 1.19-1.62.431-.52.881-1.02 1.36-1.5.47-.47.969-.92 1.49-1.35.52-.42 1.069-.82 1.62-1.19a21.334 21.334 0 0 1 3.54-1.89c.62-.25 1.25-.48 1.89-.68.64-.19 1.3-.36 1.95-.49.649-.13 1.319-.23 1.99-.3 1.34-.13 2.69-.13 4.03 0 .66.07 1.33.17 1.99.3.65.13 1.309.3 1.95.49.63.2 1.27.43 1.88.68.62.26 1.229.54 1.82.86.59.31 1.17.66 1.72 1.03.56.37 1.11.77 1.62 1.19.52.43 1.03.88 1.5 1.35.47.48.93.98 1.35 1.5.431.52.83 1.06 1.2 1.62s.71 1.14 1.03 1.73c.31.58.6 1.19.85 1.81.26.62.49 1.25.679 1.89.2.64.361 1.29.491 1.95.141.65.24 1.32.3 1.98.07.67.11 1.35.11 2.02 0 .67-.04 1.349-.11 2.019-.06.66-.159 1.331-.3 1.991-.13.65-.291 1.3-.491 1.94-.189.64-.419 1.28-.679 1.89-.25.62-.54 1.23-.85 1.82-.32.59-.66 1.17-1.03 1.72-.37.56-.769 1.1-1.2 1.62-.42.52-.88 1.02-1.35 1.5-.47.47-.98.92-1.5 1.35-.51.42-1.06.819-1.62 1.189-.55.37-1.13.721-1.72 1.031-.591.32-1.2.6-1.82.86-.61.25-1.25.48-1.88.68-.641.19-1.3.36-1.95.49-.66.13-1.33.23-1.99.3-.67.07-1.35.1-2.02.1z"/></g><g class="primary design" style="display:none"><path/><path/><path/></g></g><g clip-path="url(#e)" opacity="0" style="display:block"><path fill="none" class="primary design" style="display:none"/><g fill="none" class="primary design" style="display:none"><path/><path/><path/></g><g class="primary design" style="display:none"><path/><path/><path/></g></g><g class="com" style="display:none"><path/><path/><path/><path/><path/><path/><path/><path/><path/><path/><path/><path/></g></g></svg>