<svg xmlns="http://www.w3.org/2000/svg" width="500" height="500" style="width:100%;height:100%;transform:translate3d(0,0,0);content-visibility:visible" viewBox="0 0 500 500"><defs><clipPath id="c"><path d="M0 0h500v500H0z"/></clipPath><clipPath id="i"><path d="M0 0h500v500H0z"/></clipPath><clipPath id="d"><path d="M0 0h500v500H0z"/></clipPath><clipPath id="g"><path d="M0 0h500v500H0z"/></clipPath><clipPath id="e"><path d="M0 0h500v500H0z"/></clipPath><path id="a" class="primary design" style="display:none"/><path id="b" class="primary design" style="display:none"/><mask id="h" mask-type="alpha"><use xmlns:ns1="http://www.w3.org/1999/xlink" ns1:href="#a"/></mask><mask id="f" mask-type="alpha"><use xmlns:ns2="http://www.w3.org/1999/xlink" ns2:href="#b"/></mask></defs><g clip-path="url(#c)"><g clip-path="url(#d)" style="display:block"><path fill="none" class="primary design" style="display:none"/><g fill="none" clip-path="url(#e)" mask="url(#f)" style="display:none"><g class="primary design" style="display:none"><path/><path/></g><g class="primary design" style="display:none"><path/><path/></g><g class="primary design" style="display:none"><path/><path/></g><path class="primary design" style="display:none"/></g><g clip-path="url(#g)" mask="url(#h)" style="display:none"><g class="primary design" style="display:none"><path/><path fill="none"/><path fill="none"/></g><g class="primary design" style="display:none"><path fill="none"/><path/></g><g class="primary design" style="display:none"><path/><path fill="none"/></g><g class="primary design" style="display:none"><path fill="none"/><path/></g><g class="primary design" style="display:none"><path/><path fill="none"/><path fill="none"/></g><g class="primary design" style="display:none"><path fill="none"/><path/></g><g class="primary design" style="display:none"><path/><path fill="none"/></g><g class="primary design" style="display:none"><path fill="none"/><path/><path/></g></g><g fill="#121330" class="primary design" style="display:block"><path d="M224.605 280.603c-6.111-6.111-16.021-6.111-22.132 0l-22.788 22.788-22.788-22.788c-6.112-6.112-16.02-6.111-22.132 0-6.111 6.112-6.111 16.021 0 22.133l22.787 22.788-22.787 22.788c-6.111 6.112-6.111 16.021 0 22.133a15.6 15.6 0 0 0 11.066 4.583 15.6 15.6 0 0 0 11.066-4.584l22.788-22.787 22.788 22.787a15.596 15.596 0 0 0 11.066 4.584c4.005 0 8.01-1.528 11.066-4.583 6.111-6.112 6.111-16.021 0-22.133l-22.787-22.788 22.787-22.788c6.111-6.112 6.111-16.021 0-22.133zm141.81-124.375h-26.017v-26.017c0-8.643-7.006-15.65-15.65-15.65s-15.65 7.007-15.65 15.65v26.017h-26.017c-8.644 0-15.65 7.007-15.65 15.65s7.006 15.65 15.65 15.65h26.017v26.017c0 8.643 7.006 15.65 15.65 15.65s15.65-7.007 15.65-15.65v-26.017h26.017c8.644 0 15.65-7.007 15.65-15.65s-7.006-15.65-15.65-15.65zm-5.208 177.084h-72.916c-8.644 0-15.651 7.007-15.651 15.65s7.007 15.65 15.651 15.65h72.916c8.644 0 15.651-7.007 15.651-15.65s-7.007-15.65-15.651-15.65zm0-52.084h-72.916c-8.644 0-15.651 7.007-15.651 15.65s7.007 15.65 15.651 15.65h72.916c8.644 0 15.651-7.007 15.651-15.65s-7.007-15.65-15.651-15.65zm-148.633-93.701c8.644 0 15.651-7.007 15.651-15.65s-7.007-15.65-15.651-15.65h-72.916c-8.644 0-15.651 7.007-15.651 15.65s7.007 15.65 15.651 15.65h72.916z"/><path d="M401.041 62.477H98.956c-20.117 0-36.483 16.367-36.483 36.484v302.084c0 20.117 16.366 36.484 36.483 36.484h302.085c20.117 0 36.484-16.367 36.484-36.484V98.961c0-20.117-16.367-36.484-36.484-36.484zm5.184 338.568a5.19 5.19 0 0 1-5.184 5.184H98.956a5.19 5.19 0 0 1-5.183-5.184V98.961a5.19 5.19 0 0 1 5.183-5.184h302.085a5.19 5.19 0 0 1 5.184 5.184v302.084z"/></g><g class="primary design" style="display:none"><path/><path/><path/><path/><path/><path/></g></g><g clip-path="url(#i)" opacity="0" style="display:block"><g class="primary design" style="display:none"><path/><path fill="none"/></g><g class="primary design" style="display:none"><path/><path fill="none"/></g><g class="primary design" style="display:none"><path/><path fill="none"/></g><g class="primary design" style="display:none"><path/><path fill="none"/><path fill="none"/></g><g class="primary design" style="display:none"><path/><path fill="none"/></g><g class="primary design" style="display:none"><path fill="none"/><path/><path/><path/><path/><path/><path/></g><g class="primary design" style="display:none"><path/><path fill="none"/></g></g><g class="com" style="display:none"><path/><path/><path/><path/><path/><path/><path/><path/><path/><path/><path/><path/></g></g></svg>