<svg xmlns="http://www.w3.org/2000/svg" width="500" height="500" style="width:100%;height:100%;transform:translate3d(0,0,0);content-visibility:visible" viewBox="0 0 500 500"><defs><clipPath id="a"><path d="M0 0h500v500H0z"/></clipPath><clipPath id="d"><path d="M0 0h500v500H0z"/></clipPath><clipPath id="c"><path d="M0 0h500v500H0z"/></clipPath><clipPath id="b"><path d="M0 0h500v500H0z"/></clipPath></defs><g clip-path="url(#a)"><g clip-path="url(#b)" opacity="0" style="display:block"><path fill="none" class="primary design" style="display:none"/><path fill="none" class="primary design" style="display:none"/><g fill="none" class="primary design" style="display:none"><path/><path/></g><g fill="#121330" class="primary design" opacity="1" style="display:block"><path d="M203.128 375.028c-4.006 0-8.01-1.527-11.067-4.583-6.111-6.112-6.111-16.021 0-22.133l93.751-93.751c6.111-6.111 16.02-6.111 22.133 0 6.111 6.112 6.111 16.021 0 22.133l-93.751 93.751a15.604 15.604 0 0 1-11.066 4.583z" opacity="1"/><path d="M296.878 375.028a15.6 15.6 0 0 1-11.066-4.583l-93.751-93.751c-6.111-6.112-6.111-16.021 0-22.133 6.111-6.111 16.022-6.111 22.133 0l93.751 93.751c6.111 6.112 6.111 16.021 0 22.133a15.602 15.602 0 0 1-11.067 4.583z" opacity="1"/></g><g fill="#121330" class="primary design" opacity="1" style="display:block"><path d="M380.212 458.362H119.795c-20.117 0-36.485-16.366-36.485-36.483V78.127c0-20.117 16.368-36.483 36.485-36.483h145.833c8.644 0 15.651 7.007 15.651 15.65s-7.007 15.65-15.651 15.65H119.795a5.19 5.19 0 0 0-5.184 5.183v343.752a5.19 5.19 0 0 0 5.184 5.183h260.417a5.189 5.189 0 0 0 5.183-5.183V192.711c0-8.643 7.006-15.65 15.65-15.65s15.651 7.007 15.651 15.65v229.168c0 20.117-16.367 36.483-36.484 36.483z" opacity="1"/><path d="M401.04 208.35H265.63c-8.644 0-15.65-7.007-15.65-15.65V57.29a15.65 15.65 0 0 1 26.717-11.066l135.409 135.41a15.65 15.65 0 0 1-11.066 26.716zm-119.759-31.3h81.976l-81.976-81.977v81.977z" opacity="1"/></g><g class="primary design" style="display:none"><path/><path/></g><g class="primary design" style="display:none"><path/><path/></g></g><g clip-path="url(#c)" style="display:block"><path fill="none" class="primary design" style="display:none"/><path fill="none" class="primary design" style="display:none"/><g fill="none" class="primary design" style="display:none"><path/><path/></g><g class="primary design" style="display:none"><path/><path/></g><g class="primary design" style="display:none"><path/><path/></g><g fill="#121330" class="primary design" style="display:block"><path d="M380.212 458.362H119.795c-20.117 0-36.485-16.366-36.485-36.483V78.127c0-20.117 16.368-36.483 36.485-36.483h145.833c8.644 0 15.651 7.007 15.651 15.65s-7.007 15.65-15.651 15.65H119.795a5.19 5.19 0 0 0-5.184 5.183v343.752a5.19 5.19 0 0 0 5.184 5.183h260.417a5.189 5.189 0 0 0 5.183-5.183V192.711c0-8.643 7.006-15.65 15.65-15.65s15.651 7.007 15.651 15.65v229.168c0 20.117-16.367 36.483-36.484 36.483z"/><path d="M401.04 208.35H265.63c-8.644 0-15.65-7.007-15.65-15.65V57.29a15.65 15.65 0 0 1 26.717-11.066l135.409 135.41a15.65 15.65 0 0 1-11.066 26.716zm-119.759-31.3h81.976l-81.976-81.977v81.977z"/></g><g fill="#121330" class="primary design" style="display:block"><path d="M203.128 375.028c-4.006 0-8.01-1.527-11.067-4.583-6.111-6.112-6.111-16.021 0-22.133l93.751-93.751c6.111-6.111 16.02-6.111 22.133 0 6.111 6.112 6.111 16.021 0 22.133l-93.751 93.751a15.604 15.604 0 0 1-11.066 4.583z"/><path d="M296.878 375.028a15.6 15.6 0 0 1-11.066-4.583l-93.751-93.751c-6.111-6.112-6.111-16.021 0-22.133 6.111-6.111 16.022-6.111 22.133 0l93.751 93.751c6.111 6.112 6.111 16.021 0 22.133a15.602 15.602 0 0 1-11.067 4.583z"/></g></g><g clip-path="url(#d)" opacity="0" style="display:block"><path fill="none" class="primary design" style="display:none"/><path fill="none" class="primary design" style="display:none"/><path fill="none" class="primary design" style="display:none"/><g fill="none" class="primary design" style="display:none"><path/><path/></g><g class="primary design" style="display:none"><path/><path/></g><g class="primary design" style="display:none"><path/><path/></g></g><g class="com" style="display:none"><path/><path/><path/><path/><path/><path/><path/><path/><path/><path/><path/><path/></g></g></svg>