<svg xmlns="http://www.w3.org/2000/svg" width="500" height="500" style="width:100%;height:100%;transform:translate3d(0,0,0);content-visibility:visible" viewBox="0 0 500 500"><defs><clipPath id="a"><path d="M0 0h500v500H0z"/></clipPath><clipPath id="c"><path d="M0 0h500v500H0z"/></clipPath><clipPath id="b"><path d="M0 0h500v500H0z"/></clipPath></defs><g clip-path="url(#a)"><g clip-path="url(#b)" style="display:block"><path fill="none" class="primary design" style="display:none"/><path fill="#121330" d="M-36.466 208.363a15.65 15.65 0 0 1-15.488-17.864l18.282-127.971h-117.373a15.651 15.651 0 0 1-12.324-25.295L24.132-202.351a15.647 15.647 0 0 1 18.335-4.805 15.649 15.649 0 0 1 9.518 16.39L33.341-41.607l117.771.543a15.65 15.65 0 0 1 11.796 25.851L-24.593 202.914a15.647 15.647 0 0 1-11.873 5.449zm-82.458-177.135h103.297A15.652 15.652 0 0 1-.134 49.091l-13.254 92.771L117.084-9.921l-101.533-.468A15.648 15.648 0 0 1 .094-27.98l13.815-110.523-132.833 169.731z" class="primary design" style="display:block" transform="translate(250 250)"/><path class="primary design" style="display:none"/></g><g clip-path="url(#c)" opacity="0" style="display:block"><path fill="none" class="primary design" style="display:none"/><path class="primary design" style="display:none"/></g><g class="com" style="display:none"><path/><path/><path/><path/><path/><path/><path/><path/><path/><path/><path/><path/></g></g></svg>