<svg xmlns="http://www.w3.org/2000/svg" width="500" height="500" style="width:100%;height:100%;transform:translate3d(0,0,0);content-visibility:visible" viewBox="0 0 500 500"><defs><clipPath id="a"><path d="M0 0h500v500H0z"/></clipPath><clipPath id="g"><path d="M0 0h500v500H0z"/></clipPath><clipPath id="f"><path d="M0 0h500v500H0z"/></clipPath><clipPath id="e"><path d="M0 0h500v500H0z"/></clipPath><clipPath id="d"><path d="M0 0h500v500H0z"/></clipPath><clipPath id="c"><path d="M0 0h500v500H0z"/></clipPath><clipPath id="b"><path d="M0 0h500v500H0z"/></clipPath></defs><g clip-path="url(#a)"><g clip-path="url(#b)" opacity="0" style="display:block"><path fill="#121330" d="M7.25-9h-14.5C-8.21-9-9-8.21-9-7.25v14.5C-9 8.21-8.21 9-7.25 9h14.5C8.21 9 9 8.21 9 7.25v-14.5C9-8.21 8.21-9 7.25-9zM2.01-7.5v15h-3.99v-15h3.99zM-7.5 7.25v-14.5c0-.14.11-.25.25-.25h3.77v15h-3.77c-.14 0-.25-.11-.25-.25zm15 0c0 .14-.11.25-.25.25H3.51v-15h3.74c.14 0 .25.11.25.25v14.5z" class="primary design" opacity="1" style="display:block" transform="translate(250.002 250.002) scale(20.83)"/><path fill="none" class="primary design" style="display:none"/><path fill="none" class="primary design" style="display:none"/><path fill="none" class="primary design" style="display:none"/></g><g clip-path="url(#c)" opacity="0" style="display:block"><g class="primary design" style="display:none"><path/><path fill="none"/></g><g class="primary design" style="display:none"><path/><path fill="none"/></g><g class="primary design" style="display:none"><path/><path fill="none"/></g><g class="primary design" style="display:none"><path/><path fill="none"/></g><g class="primary design" style="display:none"><path/><path fill="none"/></g><g class="primary design" style="display:none"><path/><path fill="none"/></g><path fill="#121330" d="M7.25-9h-14.5C-8.21-9-9-8.21-9-7.25v14.5C-9 8.21-8.21 9-7.25 9h14.5C8.21 9 9 8.21 9 7.25v-14.5C9-8.21 8.21-9 7.25-9zm.25 1.75v6.5H3.51V-7.5h3.74c.14 0 .25.11.25.25zm-9.48 6.5V-7.5h3.99v6.75h-3.99zM2.01.75V7.5h-3.99V.75h3.99zM-7.25-7.5h3.77v6.75H-7.5v-6.5c0-.14.11-.25.25-.25zM-7.5 7.25V.75h4.02V7.5h-3.77c-.14 0-.25-.11-.25-.25zm14.75.25H3.51V.75H7.5v6.5c0 .14-.11.25-.25.25z" class="primary design" opacity="1" style="display:block" transform="translate(250.002 250.002) scale(20.83)"/></g><g clip-path="url(#d)" opacity="0" style="display:block"><g fill="none" class="primary design" style="display:none"><path/><path/><path/></g><g fill="none" class="primary design" style="display:none"><path/><path/><path/></g><path fill="#121330" d="M7.25-9h-14.5C-8.21-9-9-8.21-9-7.25v14.5C-9 8.21-8.21 9-7.25 9h14.5C8.21 9 9 8.21 9 7.25v-14.5C9-8.21 8.21-9 7.25-9zM2.01-7.5v15h-3.99v-15h3.99zM-7.5 7.25v-14.5c0-.14.11-.25.25-.25h3.77v15h-3.77c-.14 0-.25-.11-.25-.25zm15 0c0 .14-.11.25-.25.25H3.51v-15h3.74c.14 0 .25.11.25.25v14.5z" class="primary design" opacity="1" style="display:block" transform="translate(250.002 250.002) scale(20.83)"/><path class="primary design" style="display:none"/></g><g clip-path="url(#e)" opacity="0" style="display:block"><g class="primary design" style="display:none"><path/><path fill="none"/></g><g class="primary design" style="display:none"><path/><path fill="none"/></g><g class="primary design" style="display:none"><path/><path fill="none"/></g><g class="primary design" style="display:none"><path/><path fill="none"/></g><g class="primary design" style="display:none"><path/><path fill="none"/></g><g class="primary design" style="display:none"><path/><path fill="none"/></g><g class="primary design" opacity="1" style="display:block"><path fill="none" stroke="#121330" stroke-width="41.66" d="M250.002 250.002" opacity="1"/><path fill="#121330" d="M401.02 62.532H98.983c-19.996 0-36.452 16.456-36.452 36.452V401.02c0 19.997 16.456 36.453 36.452 36.453H401.02c19.997 0 36.453-16.456 36.453-36.453V98.984c0-19.996-16.456-36.452-36.453-36.452zm5.207 36.452V234.38h-83.112V93.777h77.904c2.917 0 5.208 2.291 5.208 5.207zM208.759 234.38V93.777h83.111v140.602h-83.11zm83.111 31.245v140.603h-83.11V265.624h83.111zM98.984 93.777h78.53v140.602H93.777V98.984c0-2.916 2.291-5.207 5.207-5.207zm-5.207 307.242V265.624h83.737v140.603h-78.53c-2.916 0-5.207-2.291-5.207-5.208zm307.242 5.208h-77.904V265.624h83.112V401.02c0 2.917-2.291 5.208-5.208 5.208z" opacity="1"/></g><g class="primary design" style="display:none"><path fill="none"/><path/></g></g><g clip-path="url(#f)" style="display:block"><g class="primary design" style="display:block"><path fill="none" stroke="#121330" stroke-width="41.66" d="M250.002 250.002"/><path fill="#121330" d="M401.02 62.532H98.983c-19.996 0-36.452 16.456-36.452 36.452V401.02c0 19.997 16.456 36.453 36.452 36.453H401.02c19.997 0 36.453-16.456 36.453-36.453V98.984c0-19.996-16.456-36.452-36.453-36.452zM291.87 93.777v312.45h-83.11V93.777h83.111zM93.777 401.019V98.984c0-2.916 2.291-5.207 5.207-5.207h78.53v312.45h-78.53c-2.916 0-5.207-2.291-5.207-5.208zm312.45 0c0 2.917-2.291 5.208-5.208 5.208h-77.904V93.777h77.904c2.917 0 5.208 2.291 5.208 5.207V401.02z"/></g><g class="primary design" style="display:none"><path fill="none"/><path/></g><path fill="none" class="primary design" style="display:none"/><path fill="none" class="primary design" style="display:none"/><path fill="none" class="primary design" style="display:none"/></g><g clip-path="url(#g)" opacity="0" style="display:block"><g fill="none" class="primary design" style="display:none"><path/><path/><path/></g><path class="primary design" style="display:none"/></g><g class="com" style="display:none"><path/><path/><path/><path/><path/><path/><path/><path/><path/><path/><path/><path/></g></g></svg>