<svg xmlns="http://www.w3.org/2000/svg" width="500" height="500" style="width:100%;height:100%;transform:translate3d(0,0,0);content-visibility:visible" viewBox="0 0 500 500"><defs><clipPath id="a"><path d="M0 0h500v500H0z"/></clipPath><clipPath id="c"><path d="M0 0h500v500H0z"/></clipPath><clipPath id="b"><path d="M0 0h500v500H0z"/></clipPath></defs><g clip-path="url(#a)"><g clip-path="url(#b)" style="display:block"><path fill="none" class="primary design" style="display:none"/><path fill="none" class="primary design" style="display:none"/><g fill="none" class="primary design" style="display:none"><path/><path/></g><g class="primary design" style="display:none"><path/><path/><path/></g><path fill="#121330" d="M418.31 83.362c-8.748 0-15.83 7.082-15.83 15.623v301.618c0 8.54 7.082 15.622 15.83 15.622 8.75 0 15.831-7.082 15.831-15.622V98.985c.209-8.54-6.874-15.623-15.83-15.623zm-290.161.416h-10.415c-32.078 0-58.324 25.621-58.324 57.283v259.958c0 8.54 7.082 15.623 15.83 15.623 8.75 0 15.832-7.082 15.832-15.623V271.04h63.531v129.98c0 8.54 7.082 15.622 15.83 15.622 8.75 0 15.832-7.082 15.832-15.623V141.061c.208-31.662-26.038-57.283-58.116-57.283zM91.072 239.795v-98.734c0-14.373 11.873-26.038 26.454-26.038h10.415c14.58 0 26.454 11.665 26.454 26.038v98.942H91.072v-.208zM302.913 83.778h-51.659c-8.748 0-15.83 7.083-15.83 15.623v301.618c0 8.54 7.082 15.623 15.83 15.623 8.749 0 15.831-7.082 15.831-15.623V270.832h35.62c32.078 0 58.323-25.621 58.323-57.283v-72.488c.209-31.662-26.037-57.283-58.115-57.283zm26.454 129.98c0 14.372-11.873 26.037-26.454 26.037h-35.62V115.023h35.62c14.58 0 26.454 11.665 26.454 26.038v72.697z" class="primary design" style="display:block"/></g><g clip-path="url(#c)" opacity="0" style="display:block"><path fill="none" stroke="#121330" stroke-linecap="round" stroke-linejoin="round" stroke-width="31.3" d="M0 0" class="primary design" opacity="1" style="display:block" transform="translate(417.946 329.805)"/><path fill="none" stroke="#121330" stroke-linecap="round" stroke-linejoin="round" stroke-width="31.3" d="M0 0" class="primary design" opacity="1" style="display:block" transform="translate(297.9 330.201)"/><path fill="none" stroke="#121330" stroke-linecap="round" stroke-linejoin="round" stroke-width="31.3" d="M122.503 330.2" class="primary design" opacity="1" style="display:block"/><g class="primary design" style="display:none"><path/><path/><path/></g></g><g class="com" style="display:none"><path/><path/><path/><path/><path/><path/><path/><path/><path/><path/><path/><path/></g></g></svg>