<svg xmlns="http://www.w3.org/2000/svg" width="500" height="500" style="width:100%;height:100%;transform:translate3d(0,0,0);content-visibility:visible" viewBox="0 0 500 500"><defs><clipPath id="a"><path d="M0 0h500v500H0z"/></clipPath><clipPath id="e"><path d="M0 0h500v500H0z"/></clipPath><clipPath id="d"><path d="M0 0h500v500H0z"/></clipPath><clipPath id="c"><path d="M0 0h500v500H0z"/></clipPath><clipPath id="b"><path d="M0 0h500v500H0z"/></clipPath></defs><g clip-path="url(#a)"><g clip-path="url(#b)" opacity="0" style="display:block"><path fill="#121330" d="m203.853-10.988-82.167-83.334c-6.065-6.153-15.976-6.224-22.132-.156C93.4-88.41 93.33-78.5 99.399-72.346L155.3-15.65h-348.009c-8.644 0-15.651 7.007-15.651 15.65s7.007 15.649 15.651 15.649h348.01L99.399 72.346C93.33 78.5 93.4 88.41 99.554 94.478a15.602 15.602 0 0 0 10.988 4.505c4.042 0 8.082-1.557 11.144-4.662l82.167-83.334c6.009-6.093 6.009-15.882 0-21.975z" class="primary design" opacity="1" style="display:block" transform="translate(250.003 250.003)"/></g><g fill="#121330" clip-path="url(#c)" opacity="0" style="display:block"><path d="m203.853-10.988-82.167-83.334c-6.065-6.153-15.976-6.224-22.132-.156C93.4-88.41 93.33-78.5 99.399-72.346L155.3-15.65h-348.009c-8.644 0-15.651 7.007-15.651 15.65s7.007 15.649 15.651 15.649h348.01L99.399 72.346C93.33 78.5 93.4 88.41 99.554 94.478a15.602 15.602 0 0 0 10.988 4.505c4.042 0 8.082-1.557 11.144-4.662l82.167-83.334c6.009-6.093 6.009-15.882 0-21.975z" class="primary design" opacity="1" style="display:block" transform="translate(250.003 250.003)"/><path d="m203.853-10.988-82.167-83.334c-6.065-6.153-15.976-6.224-22.132-.156C93.4-88.41 93.33-78.5 99.399-72.346L155.3-15.65h-348.009c-8.644 0-15.651 7.007-15.651 15.65s7.007 15.649 15.651 15.649h348.01L99.399 72.346C93.33 78.5 93.4 88.41 99.554 94.478a15.602 15.602 0 0 0 10.988 4.505c4.042 0 8.082-1.557 11.144-4.662l82.167-83.334c6.009-6.093 6.009-15.882 0-21.975z" class="primary design" opacity="1" style="display:block" transform="translate(-257.997 250.003)"/></g><g clip-path="url(#d)" style="display:block"><g fill="none" class="primary design" style="display:none"><path/><path/></g><path fill="none" class="primary design" style="display:none"/><path fill="none" class="primary design" style="display:none"/><path fill="#121330" d="m203.853-10.988-82.167-83.334c-6.065-6.153-15.976-6.224-22.132-.156C93.4-88.41 93.33-78.5 99.399-72.346L155.3-15.65h-348.009c-8.644 0-15.651 7.007-15.651 15.65s7.007 15.649 15.651 15.649h348.01L99.399 72.346C93.33 78.5 93.4 88.41 99.554 94.478a15.602 15.602 0 0 0 10.988 4.505c4.042 0 8.082-1.557 11.144-4.662l82.167-83.334c6.009-6.093 6.009-15.882 0-21.975z" class="primary design" style="display:block" transform="translate(250.003 250.003)"/><path class="primary design" style="display:none"/></g><g clip-path="url(#e)" opacity="0" style="display:block"><path fill="none" class="primary design" style="display:none"/><path fill="none" class="primary design" style="display:none"/><path class="primary design" style="display:none"/></g><g class="com" style="display:none"><path/><path/><path/><path/><path/><path/><path/><path/><path/><path/><path/><path/></g></g></svg>