<svg xmlns="http://www.w3.org/2000/svg" width="500" height="500" style="width:100%;height:100%;transform:translate3d(0,0,0);content-visibility:visible" viewBox="0 0 500 500"><defs><clipPath id="a"><path d="M0 0h500v500H0z"/></clipPath><clipPath id="c"><path d="M0 0h500v500H0z"/></clipPath><clipPath id="b"><path d="M0 0h500v500H0z"/></clipPath></defs><g clip-path="url(#a)"><g clip-path="url(#b)" style="display:block"><g class="primary design" style="display:none"><path/><path fill="none"/><path fill="none"/><path fill="none"/></g><g class="primary design" style="display:none"><path/><path fill="none"/></g><g class="primary design" style="display:none"><path/><path fill="none"/></g><g class="primary design" style="display:none"><path/><path fill="none"/><path fill="none"/><path fill="none"/></g><g class="primary design" style="display:none"><path/><path fill="none"/></g><g class="primary design" style="display:block"><path fill="none" stroke="#121330" stroke-width="2" d="M0 0"/><path fill="#121330" d="M421.88 161.487c-8.644 0-15.65-7.007-15.65-15.65V93.776h-52.056c-8.644 0-15.65-7.006-15.65-15.649 0-8.643 7.006-15.65 15.65-15.65h67.706c8.644 0 15.65 7.007 15.65 15.65v67.71c0 8.643-7.006 15.65-15.65 15.65z"/><path fill="#121330" d="M359.376 156.275a15.597 15.597 0 0 1-11.067-4.584c-6.111-6.112-6.111-16.022.001-22.133l61.879-61.872c6.112-6.111 16.022-6.112 22.132.001 6.111 6.112 6.111 16.022-.001 22.133l-61.879 61.872a15.602 15.602 0 0 1-11.065 4.583z"/><path fill="#121330" d="M359.376 234.403c-8.644 0-15.65-7.007-15.65-15.65v-62.478h-62.472c-8.644 0-15.65-7.007-15.65-15.65s7.006-15.65 15.65-15.65h78.122c8.644 0 15.65 7.007 15.65 15.65v78.128c0 8.643-7.006 15.65-15.65 15.65z"/></g><g class="primary design" style="display:block"><path fill="none" stroke="#121330" stroke-width="2" d="M250 250"/><path fill="#121330" d="M358.781 437.523c-2.659 0-5.33-.182-7.999-.553a359.407 359.407 0 0 1-112.544-35.117c-34.521-17.4-65.93-40.13-93.36-67.559-27.429-27.429-50.159-58.839-67.559-93.36A359.403 359.403 0 0 1 42.204 128.39a58.001 58.001 0 0 1 13.705-46.088 57.678 57.678 0 0 1 43.508-19.825h68.655a36.61 36.61 0 0 1 36.103 30.287l8.068 45.726c3.856 21.85-5.352 44.256-23.458 57.081l-6.573 4.655c25.147 38.34 58.332 71.28 97.082 96.364l4.3-6.097c12.816-18.172 35.247-27.416 57.148-23.553l45.665 8.059a36.607 36.607 0 0 1 30.289 36.101v68.656a57.678 57.678 0 0 1-19.825 43.508 58.004 58.004 0 0 1-38.09 14.259zM168.072 93.777H99.417c-7.737 0-14.804 3.223-19.901 9.077a26.72 26.72 0 0 0-6.31 21.228c20.247 145.722 136.162 261.637 281.885 281.886a26.708 26.708 0 0 0 21.227-6.31c5.854-5.097 9.078-12.164 9.078-19.902V311.1a5.353 5.353 0 0 0-4.428-5.278l-45.665-8.058c-10.008-1.766-20.271 2.459-26.131 10.769l-12.78 18.121c-4.691 6.651-13.697 8.599-20.717 4.474-52.733-30.981-96.999-74.948-128.011-127.145-4.167-7.013-2.248-16.049 4.408-20.764l18.621-13.19c8.279-5.864 12.49-16.108 10.726-26.099l-8.068-45.725a5.354 5.354 0 0 0-5.279-4.428z"/></g><g class="primary design" style="display:none"><path fill="none"/><path/><path/><path/></g><g class="primary design" style="display:none"><path fill="none"/><path/></g></g><g clip-path="url(#c)" opacity="0" style="display:block"><path fill="none" class="primary design" style="display:none"/><g class="primary design" style="display:none"><path/><path/><path/></g><path class="primary design" style="display:none"/><g fill="none" class="primary design" style="display:none"><path/><path/><path/></g><path fill="none" class="primary design" style="display:none"/><path fill="none" class="primary design" style="display:none"/></g><g class="com" style="display:none"><path/><path/><path/><path/><path/><path/><path/><path/><path/><path/><path/><path/></g></g></svg>