<svg xmlns="http://www.w3.org/2000/svg" width="500" height="500" style="width:100%;height:100%;transform:translate3d(0,0,0);content-visibility:visible" viewBox="0 0 500 500"><defs><clipPath id="a"><path d="M0 0h500v500H0z"/></clipPath><clipPath id="d"><path d="M0 0h500v500H0z"/></clipPath><clipPath id="c"><path d="M0 0h500v500H0z"/></clipPath><clipPath id="b"><path d="M0 0h500v500H0z"/></clipPath></defs><g clip-path="url(#a)"><g clip-path="url(#b)" opacity="0" style="display:block"><path fill="#121330" d="M192.72 312.492H98.983c-19.996 0-36.452 16.456-36.452 36.452v52.075c0 19.997 16.456 36.453 36.452 36.453h93.735c19.997 0 36.453-16.456 36.453-36.453v-52.075c0-19.996-16.247-36.452-36.453-36.452zm5.207 88.527c0 2.917-2.291 5.208-5.208 5.208H98.984c-2.916 0-5.207-2.291-5.207-5.208v-52.075c0-2.916 2.291-5.207 5.207-5.207h93.735c2.917 0 5.208 2.291 5.208 5.207v52.075zM192.72 62.532H98.985c-19.997 0-36.453 16.456-36.453 36.452v135.187c0 20.205 16.456 36.66 36.453 36.66h93.943c19.997 0 36.452-16.455 36.452-36.452V98.984c-.208-19.996-16.455-36.452-36.66-36.452zm5.207 171.847c0 2.917-2.291 5.208-5.207 5.208H98.985c-2.917 0-5.208-2.291-5.208-5.208V98.984c0-2.916 2.291-5.207 5.208-5.207h93.943c2.916 0 5.207 2.291 5.207 5.207V234.38h-.208zM401.02 62.532h-93.736c-19.996 0-36.452 16.456-36.452 36.452v52.075c0 19.997 16.456 36.453 36.452 36.453h93.735c19.997 0 36.453-16.456 36.453-36.453V98.984c0-19.996-16.456-36.452-36.453-36.452zm5.207 88.527c0 2.917-2.291 5.208-5.208 5.208h-93.735c-2.916 0-5.207-2.291-5.207-5.208V98.984c0-2.916 2.291-5.207 5.207-5.207h93.735c2.917 0 5.208 2.291 5.208 5.207v52.075zm-5.207 78.113h-93.736c-19.996 0-36.452 16.456-36.452 36.452V401.02c0 19.997 16.456 36.453 36.452 36.453h93.735c19.997 0 36.453-16.456 36.453-36.453V265.624c0-19.996-16.456-36.452-36.453-36.452zm5.207 171.847c0 2.917-2.291 5.208-5.208 5.208h-93.735c-2.916 0-5.207-2.291-5.207-5.208V265.624c0-2.916 2.291-5.207 5.207-5.207h93.735c2.917 0 5.208 2.291 5.208 5.207V401.02z" class="primary design" opacity="1" style="display:block"/><path fill="none" class="primary design" style="display:none"/><path fill="none" class="primary design" style="display:none"/><path fill="none" class="primary design" style="display:none"/><path fill="none" class="primary design" style="display:none"/><path fill="none" class="primary design" style="display:none"/><path fill="none" class="primary design" style="display:none"/><path fill="none" class="primary design" style="display:none"/><path fill="none" class="primary design" style="display:none"/><path fill="none" class="primary design" style="display:none"/><path fill="none" class="primary design" style="display:none"/></g><g clip-path="url(#c)" style="display:block"><path fill="#121330" d="M192.72 312.492H98.983c-19.996 0-36.452 16.456-36.452 36.452v52.075c0 19.997 16.456 36.453 36.452 36.453h93.735c19.997 0 36.453-16.456 36.453-36.453v-52.075c0-19.996-16.247-36.452-36.453-36.452zm5.207 88.527c0 2.917-2.291 5.208-5.208 5.208H98.984c-2.916 0-5.207-2.291-5.207-5.208v-52.075c0-2.916 2.291-5.207 5.207-5.207h93.735c2.917 0 5.208 2.291 5.208 5.207v52.075zM192.72 62.532H98.985c-19.997 0-36.453 16.456-36.453 36.452v135.187c0 20.205 16.456 36.66 36.453 36.66h93.943c19.997 0 36.452-16.455 36.452-36.452V98.984c-.208-19.996-16.455-36.452-36.66-36.452zm5.207 171.847c0 2.917-2.291 5.208-5.207 5.208H98.985c-2.917 0-5.208-2.291-5.208-5.208V98.984c0-2.916 2.291-5.207 5.208-5.207h93.943c2.916 0 5.207 2.291 5.207 5.207V234.38h-.208zM401.02 62.532h-93.736c-19.996 0-36.452 16.456-36.452 36.452v52.075c0 19.997 16.456 36.453 36.452 36.453h93.735c19.997 0 36.453-16.456 36.453-36.453V98.984c0-19.996-16.456-36.452-36.453-36.452zm5.207 88.527c0 2.917-2.291 5.208-5.208 5.208h-93.735c-2.916 0-5.207-2.291-5.207-5.208V98.984c0-2.916 2.291-5.207 5.207-5.207h93.735c2.917 0 5.208 2.291 5.208 5.207v52.075zm-5.207 78.113h-93.736c-19.996 0-36.452 16.456-36.452 36.452V401.02c0 19.997 16.456 36.453 36.452 36.453h93.735c19.997 0 36.453-16.456 36.453-36.453V265.624c0-19.996-16.456-36.452-36.453-36.452zm5.207 171.847c0 2.917-2.291 5.208-5.208 5.208h-93.735c-2.916 0-5.207-2.291-5.207-5.208V265.624c0-2.916 2.291-5.207 5.207-5.207h93.735c2.917 0 5.208 2.291 5.208 5.207V401.02z" class="primary design" style="display:block"/><g class="primary design" style="display:none"><path/><path/><path/><path/></g><path fill="none" class="primary design" style="display:none"/><path fill="none" class="primary design" style="display:none"/><path fill="none" class="primary design" style="display:none"/><path fill="none" class="primary design" style="display:none"/><path fill="none" class="primary design" style="display:none"/><path fill="none" class="primary design" style="display:none"/></g><g clip-path="url(#d)" opacity="0" style="display:block"><g class="primary design" style="display:none"><path/><path/><path/><path/></g><path fill="none" class="primary design" style="display:none"/><path fill="none" class="primary design" style="display:none"/><path fill="none" class="primary design" style="display:none"/><path fill="none" class="primary design" style="display:none"/></g><g class="com" style="display:none"><path/><path/><path/><path/><path/><path/><path/><path/><path/><path/><path/><path/></g></g></svg>