<svg xmlns="http://www.w3.org/2000/svg" width="500" height="500" style="width:100%;height:100%;transform:translate3d(0,0,0);content-visibility:visible" viewBox="0 0 500 500"><defs><clipPath id="a"><path d="M0 0h500v500H0z"/></clipPath><clipPath id="c"><path d="M0 0h500v500H0z"/></clipPath><clipPath id="b"><path d="M0 0h500v500H0z"/></clipPath></defs><g clip-path="url(#a)"><g clip-path="url(#b)" style="display:block"><path fill="none" style="display:none"/><path fill="#121330" d="M.002 187.528a15.66 15.66 0 0 1-8.467-2.484l-23.904-15.368c-81.368-52.31-135.273-137.316-147.893-233.222l-7.132-54.203c-1.074-8.168 4.369-15.771 12.447-17.388 35.445-7.092 134.479-29.9 166.651-50.005a15.652 15.652 0 0 1 16.588 0c32.172 20.105 131.206 42.913 166.651 50.005 8.078 1.617 13.521 9.22 12.447 17.388l-7.129 54.194c-12.617 95.91-66.523 180.92-147.895 233.233L8.468 185.042a15.65 15.65 0 0 1-8.466 2.486zm-154.471-294.977 5.24 39.82c11.416 86.758 60.18 163.656 133.786 210.976L0 153.276l15.44-9.926C89.05 96.027 137.815 19.125 149.228-67.637l5.237-39.812c-33.15-7.161-114.631-26.033-154.467-46.482-39.834 20.447-121.311 39.32-154.467 46.482z" style="display:block" transform="translate(250 250)"/><path style="display:none"/></g><g clip-path="url(#c)" opacity="0" style="display:block"><path fill="none" style="display:none"/><path style="display:none"/><path fill="none" style="display:none"/></g><path style="display:none"/></g></svg>