<svg xmlns="http://www.w3.org/2000/svg" width="500" height="500" style="width:100%;height:100%;transform:translate3d(0,0,0);content-visibility:visible" viewBox="0 0 500 500"><defs><clipPath id="a"><path d="M0 0h500v500H0z"/></clipPath><clipPath id="f"><path d="M0 0h500v500H0z"/></clipPath><clipPath id="e"><path d="M0 0h500v500H0z"/></clipPath><clipPath id="d"><path d="M0 0h500v500H0z"/></clipPath><clipPath id="c"><path d="M0 0h500v500H0z"/></clipPath><clipPath id="b"><path d="M0 0h500v500H0z"/></clipPath></defs><g clip-path="url(#a)"><g clip-path="url(#b)" opacity="0" style="display:block"><g class="primary design" opacity="1" style="display:block"><path fill="#121330" d="M421.06 210.5v78h-343v-78h343z"/><path fill="none" stroke="#121330" stroke-linecap="round" stroke-linejoin="round" stroke-width="31.3" d="M421.06 210.5v78h-343v-78h343z"/></g><path fill="#121330" d="M401.046 437.528h-72.917c-8.644 0-15.65-7.007-15.65-15.65s7.006-15.65 15.65-15.65h72.917a5.19 5.19 0 0 0 5.182-5.184v-72.916c0-8.643 7.007-15.65 15.651-15.65s15.65 7.007 15.65 15.65v72.916c0 20.117-16.366 36.484-36.483 36.484zM78.123 187.522c-8.644 0-15.65-7.006-15.65-15.649V98.956c0-20.117 16.366-36.482 36.483-36.482h72.917c8.644 0 15.65 7.006 15.65 15.649 0 8.643-7.006 15.65-15.65 15.65H98.956a5.189 5.189 0 0 0-5.182 5.183v72.917c0 8.643-7.007 15.649-15.651 15.649zm93.75 250.001H98.956c-20.117 0-36.483-16.366-36.483-36.483v-72.916c0-8.643 7.006-15.649 15.65-15.649s15.651 7.006 15.651 15.649v72.916a5.19 5.19 0 0 0 5.182 5.184h72.917c8.644 0 15.65 7.007 15.65 15.65s-7.006 15.649-15.65 15.649zm250-249.997c-8.644 0-15.65-7.007-15.65-15.65V98.96a5.19 5.19 0 0 0-5.184-5.184h-72.916c-8.644 0-15.65-7.007-15.65-15.65s7.006-15.65 15.65-15.65h72.916c20.117 0 36.484 16.367 36.484 36.484v72.916c0 8.643-7.006 15.65-15.65 15.65z" class="primary design" opacity="1" style="display:block"/></g><g clip-path="url(#c)" opacity="0" style="display:block"><path fill="none" class="primary design" style="display:none"/><g class="primary design" style="display:none"><path/><path fill="none"/></g><path fill="#121330" d="M401.046 437.528h-72.917c-8.644 0-15.65-7.007-15.65-15.65s7.006-15.65 15.65-15.65h72.917a5.19 5.19 0 0 0 5.182-5.184v-72.916c0-8.643 7.007-15.65 15.651-15.65s15.65 7.007 15.65 15.65v72.916c0 20.117-16.366 36.484-36.483 36.484zM78.123 187.522c-8.644 0-15.65-7.006-15.65-15.649V98.956c0-20.117 16.366-36.482 36.483-36.482h72.917c8.644 0 15.65 7.006 15.65 15.649 0 8.643-7.006 15.65-15.65 15.65H98.956a5.189 5.189 0 0 0-5.182 5.183v72.917c0 8.643-7.007 15.649-15.651 15.649zm93.75 250.001H98.956c-20.117 0-36.483-16.366-36.483-36.483v-72.916c0-8.643 7.006-15.649 15.65-15.649s15.651 7.006 15.651 15.649v72.916a5.19 5.19 0 0 0 5.182 5.184h72.917c8.644 0 15.65 7.007 15.65 15.65s-7.006 15.649-15.65 15.649zm250-249.997c-8.644 0-15.65-7.007-15.65-15.65V98.96a5.19 5.19 0 0 0-5.184-5.184h-72.916c-8.644 0-15.65-7.007-15.65-15.65s7.006-15.65 15.65-15.65h72.916c20.117 0 36.484 16.367 36.484 36.484v72.916c0 8.643-7.006 15.65-15.65 15.65z" class="primary design" opacity="1" style="display:block"/><path fill="#121330" d="M171.875 15.65h-343.75c-8.644 0-15.65-7.007-15.65-15.65s7.006-15.65 15.65-15.65h343.75c8.644 0 15.65 7.007 15.65 15.65s-7.006 15.65-15.65 15.65z" class="primary design" opacity="1" style="display:block" transform="translate(250.003 250.003)"/><path fill="none" class="primary design" style="display:none"/><g class="primary design" style="display:none"><path/><path/></g><path fill="none" class="primary design" style="display:none"/><path fill="none" class="primary design" style="display:none"/></g><g clip-path="url(#d)" opacity="0" style="display:block"><path fill="none" class="primary design" style="display:none"/><g class="primary design" style="display:none"><path/><path fill="none"/></g><path fill="#121330" d="M401.046 437.528h-72.917c-8.644 0-15.65-7.007-15.65-15.65s7.006-15.65 15.65-15.65h72.917a5.19 5.19 0 0 0 5.182-5.184v-72.916c0-8.643 7.007-15.65 15.651-15.65s15.65 7.007 15.65 15.65v72.916c0 20.117-16.366 36.484-36.483 36.484zM78.123 187.522c-8.644 0-15.65-7.006-15.65-15.649V98.956c0-20.117 16.366-36.482 36.483-36.482h72.917c8.644 0 15.65 7.006 15.65 15.649 0 8.643-7.006 15.65-15.65 15.65H98.956a5.189 5.189 0 0 0-5.182 5.183v72.917c0 8.643-7.007 15.649-15.651 15.649zm93.75 250.001H98.956c-20.117 0-36.483-16.366-36.483-36.483v-72.916c0-8.643 7.006-15.649 15.65-15.649s15.651 7.006 15.651 15.649v72.916a5.19 5.19 0 0 0 5.182 5.184h72.917c8.644 0 15.65 7.007 15.65 15.65s-7.006 15.649-15.65 15.649zm250-249.997c-8.644 0-15.65-7.007-15.65-15.65V98.96a5.19 5.19 0 0 0-5.184-5.184h-72.916c-8.644 0-15.65-7.007-15.65-15.65s7.006-15.65 15.65-15.65h72.916c20.117 0 36.484 16.367 36.484 36.484v72.916c0 8.643-7.006 15.65-15.65 15.65z" class="primary design" opacity="1" style="display:block"/><path fill="#121330" d="M171.875 15.65h-343.75c-8.644 0-15.65-7.007-15.65-15.65s7.006-15.65 15.65-15.65h343.75c8.644 0 15.65 7.007 15.65 15.65s-7.006 15.65-15.65 15.65z" class="primary design" opacity="1" style="display:block" transform="translate(250.003 250.003)"/><g class="primary design" style="display:none"><path/><path/></g><path fill="none" class="primary design" style="display:none"/><path fill="none" class="primary design" style="display:none"/></g><g clip-path="url(#e)" style="display:block"><path fill="none" class="primary design" style="display:none"/><g class="primary design" style="display:none"><path/><path fill="none"/></g><path fill="#121330" d="M401.046 437.528h-72.917c-8.644 0-15.65-7.007-15.65-15.65s7.006-15.65 15.65-15.65h72.917a5.19 5.19 0 0 0 5.182-5.184v-72.916c0-8.643 7.007-15.65 15.651-15.65s15.65 7.007 15.65 15.65v72.916c0 20.117-16.366 36.484-36.483 36.484zM78.123 187.522c-8.644 0-15.65-7.006-15.65-15.649V98.956c0-20.117 16.366-36.482 36.483-36.482h72.917c8.644 0 15.65 7.006 15.65 15.649 0 8.643-7.006 15.65-15.65 15.65H98.956a5.189 5.189 0 0 0-5.182 5.183v72.917c0 8.643-7.007 15.649-15.651 15.649zm93.75 250.001H98.956c-20.117 0-36.483-16.366-36.483-36.483v-72.916c0-8.643 7.006-15.649 15.65-15.649s15.651 7.006 15.651 15.649v72.916a5.19 5.19 0 0 0 5.182 5.184h72.917c8.644 0 15.65 7.007 15.65 15.65s-7.006 15.649-15.65 15.649zm250-249.997c-8.644 0-15.65-7.007-15.65-15.65V98.96a5.19 5.19 0 0 0-5.184-5.184h-72.916c-8.644 0-15.65-7.007-15.65-15.65s7.006-15.65 15.65-15.65h72.916c20.117 0 36.484 16.367 36.484 36.484v72.916c0 8.643-7.006 15.65-15.65 15.65z" class="primary design" style="display:block"/><path fill="#121330" d="M171.875 15.65h-343.75c-8.644 0-15.65-7.007-15.65-15.65s7.006-15.65 15.65-15.65h343.75c8.644 0 15.65 7.007 15.65 15.65s-7.006 15.65-15.65 15.65z" class="primary design" style="display:block" transform="translate(250.003 250.003)"/><g class="primary design" style="display:none"><path/><path/><path/><path/></g><path class="primary design" style="display:none"/></g><g clip-path="url(#f)" opacity="0" style="display:block"><path fill="none" class="primary design" style="display:none"/><path fill="none" class="primary design" style="display:none"/><g class="primary design" style="display:none"><path/><path/><path/><path/></g><path class="primary design" style="display:none"/></g><g class="com" style="display:none"><path/><path/><path/><path/><path/><path/><path/><path/><path/><path/><path/><path/></g></g></svg>