<svg xmlns="http://www.w3.org/2000/svg" width="500" height="500" style="width:100%;height:100%;transform:translate3d(0,0,0);content-visibility:visible" viewBox="0 0 500 500"><defs><clipPath id="c"><path d="M0 0h500v500H0z"/></clipPath><clipPath id="f"><path d="M0 0h500v500H0z"/></clipPath><clipPath id="d"><path d="M0 0h500v500H0z"/></clipPath><path id="a" class="primary design" style="display:none"/><path id="b" class="primary design" style="display:none"/><mask id="g" mask-type="alpha"><use xmlns:ns1="http://www.w3.org/1999/xlink" ns1:href="#a"/></mask><mask id="e" mask-type="alpha"><use xmlns:ns2="http://www.w3.org/1999/xlink" ns2:href="#b"/></mask></defs><g clip-path="url(#c)"><g clip-path="url(#d)" style="display:block"><path fill="#121330" d="M166.696 41.67c0-12.054-1.201-23.208-3.672-34.09-5.185-26.147-17.12-51.025-34.587-72.031L11.977-202.785a15.653 15.653 0 0 0-23.945 0L-128.49-64.378c-17.405 20.932-29.341 45.81-34.525 71.956-2.473 10.876-3.674 22.03-3.674 34.092 0 4.322.142 8.305.423 12.06a15.629 15.629 0 0 0-.343 5.143c4.135 40.796 23.224 78.524 53.749 106.234 30.729 27.894 70.514 43.255 112.031 43.255 41.516 0 81.302-15.361 112.03-43.255 29.242-26.546 47.979-62.287 53.138-101.11a15.594 15.594 0 0 0 1.411-4.835c.637-5.296.946-11.017.946-17.492zm-299.147-27.34c.036-.158.07-.316.101-.475 4.15-21.109 13.808-41.241 27.866-58.148L.004-168.406l104.427 124.04c14.119 16.98 23.776 37.113 27.928 58.221.03.157.064.314.1.47 1.975 8.63 2.936 17.568 2.937 27.32h-270.785c.001-9.758.962-18.693 2.938-27.315z" class="primary design" style="display:block" transform="translate(250 250)"/><path class="primary design" style="display:none"/><g class="primary design" mask="url(#e)" style="display:none"><path/><path fill="none"/></g><path fill="none" class="primary design" style="display:none"/></g><g clip-path="url(#f)" opacity="0" style="display:block"><path class="primary design" style="display:none"/><g class="primary design" mask="url(#g)" style="display:none"><path/><path fill="none"/></g><path fill="none" class="primary design" style="display:none"/></g><g class="com" style="display:none"><path/><path/><path/><path/><path/><path/><path/><path/><path/><path/><path/><path/></g></g></svg>