<svg xmlns="http://www.w3.org/2000/svg" width="500" height="500" style="width:100%;height:100%;transform:translate3d(0,0,0);content-visibility:visible" viewBox="0 0 500 500"><defs><clipPath id="a"><path d="M0 0h500v500H0z"/></clipPath><clipPath id="f"><path d="M0 0h500v500H0z"/></clipPath><clipPath id="e"><path d="M0 0h500v500H0z"/></clipPath><clipPath id="d"><path d="M0 0h500v500H0z"/></clipPath><clipPath id="c"><path d="M0 0h500v500H0z"/></clipPath><clipPath id="b"><path d="M0 0h500v500H0z"/></clipPath></defs><g clip-path="url(#a)"><g clip-path="url(#b)" opacity="0" style="display:block"><path fill="none" class="primary design" style="display:none"/><g fill="none" class="primary design" style="display:none"><path/><path/><path/></g><g class="primary design" style="display:none"><path/><path/></g><g fill="#121330" class="primary design" opacity="1" style="display:block"><path d="M401.038 208.307h-244.76v-46.846c0-48.809 39.708-88.517 88.517-88.517h10.417c45.725 0 83.45 34.211 87.754 79.578.816 8.604 8.447 14.923 17.057 14.102 8.605-.816 14.919-8.454 14.103-17.058-2.795-29.465-16.41-56.713-38.338-76.723-22.048-20.119-50.663-31.199-80.576-31.199h-10.417c-66.067 0-119.818 53.75-119.818 119.817v46.846H98.956c-8.644 0-15.65 7.007-15.65 15.65v177.087c0 31.604 25.713 57.316 57.317 57.316h218.749c31.604 0 57.316-25.712 57.316-57.316V223.957c0-8.643-7.006-15.65-15.65-15.65zm-15.65 192.737c0 14.346-11.67 26.016-26.016 26.016H140.623c-14.346 0-26.017-11.67-26.017-26.016V239.607h25.935c.029 0 .058.004.087.004.029 0 .058-.004.087-.004h244.673v161.437z" opacity="1"/><path d="M224.399 313.756c.03.42.061.84.101 1.26.04.42.09.84.16 1.25.06.41.13.83.21 1.24.17.81.38 1.63.62 2.43.239.8.53 1.59.85 2.36.31.77.67 1.54 1.07 2.27.39.74.819 1.46 1.279 2.16.23.34.481.69.721 1.03.25.33.509.67.779.99.261.32.541.65.821.96.28.31.57.62.87.91.29.3.599.59.91.87.31.28.63.56.96.82.195.165.4.319.604.476v27.464c0 8.643 7.007 15.65 15.651 15.65s15.65-7.007 15.65-15.65v-27.479c.196-.153.396-.302.585-.461a25.803 25.803 0 0 0 2.75-2.6c.279-.31.549-.64.819-.96.26-.32.521-.66.771-.99a26.19 26.19 0 0 0 2.01-3.19c.39-.73.75-1.5 1.07-2.27.319-.77.6-1.56.85-2.36a26.16 26.16 0 0 0 .83-3.67c.06-.41.11-.83.16-1.25a26.486 26.486 0 0 0 0-5.04c-.05-.41-.1-.83-.16-1.25a26.85 26.85 0 0 0-.83-3.67c-.25-.8-.531-1.59-.85-2.36-.32-.77-.68-1.53-1.07-2.27-.39-.73-.83-1.46-1.29-2.15-.23-.35-.47-.7-.72-1.03-.25-.34-.511-.67-.771-1-.27-.32-.54-.64-.819-.95-.28-.31-.58-.62-.87-.92-.301-.29-.61-.59-.92-.87-.311-.28-.631-.56-.96-.82-.32-.26-.65-.52-.99-.77-.33-.25-.68-.49-1.03-.72-.689-.46-1.421-.9-2.151-1.29-.739-.39-1.499-.75-2.269-1.07-.77-.32-1.571-.6-2.361-.85-.8-.24-1.62-.45-2.439-.61-.4-.08-.821-.16-1.231-.22-.42-.06-.84-.12-1.25-.16a26.624 26.624 0 0 0-5.04 0 25.082 25.082 0 0 0-2.489.38 26.1 26.1 0 0 0-2.431.61c-.8.25-1.589.53-2.359.85-.771.32-1.54.68-2.27 1.07a26.207 26.207 0 0 0-3.19 2.01c-.33.25-.671.51-.99.77-.33.26-.65.54-.96.82a24.306 24.306 0 0 0-1.78 1.79 25.133 25.133 0 0 0-1.6 1.95 25.894 25.894 0 0 0-2 3.18c-.4.74-.76 1.5-1.07 2.27-.32.77-.611 1.56-.85 2.36-.24.8-.45 1.62-.62 2.43-.08.41-.15.83-.21 1.24-.07.42-.12.84-.16 1.25-.04.42-.071.84-.101 1.26a26.487 26.487 0 0 0 0 2.52z" opacity="1"/></g></g><g clip-path="url(#c)" opacity="0" style="display:block"><path fill="none" class="primary design" style="display:none"/><g fill="none" class="primary design" style="display:none"><path/><path/><path/></g><g class="primary design" style="display:none"><path/><path/></g></g><g clip-path="url(#d)" opacity="0" style="display:block"><path fill="none" class="primary design" style="display:none"/><g fill="none" class="primary design" style="display:none"><path/><path/><path/></g><g class="primary design" style="display:none"><path/><path/></g><g fill="#121330" class="primary design" opacity="1" style="display:block"><path d="M224.505 314.63c.04.42.09.84.16 1.25.06.41.13.83.21 1.24.17.81.38 1.63.62 2.43.239.8.53 1.59.85 2.36.31.77.67 1.54 1.07 2.27.39.74.819 1.46 1.279 2.16.23.34.481.69.721 1.03.25.33.509.67.779.99.261.32.541.65.821.96.28.31.57.62.87.91.29.3.599.59.91.87.31.28.63.56.96.82.195.165.4.319.604.476v27.464c0 8.643 7.007 15.65 15.651 15.65s15.65-7.007 15.65-15.65v-27.479c.196-.153.396-.302.585-.461a25.803 25.803 0 0 0 2.75-2.6c.279-.31.549-.64.819-.96.26-.32.521-.66.771-.99a26.19 26.19 0 0 0 2.01-3.19c.39-.73.75-1.5 1.07-2.27.319-.77.6-1.56.85-2.36a26.16 26.16 0 0 0 .83-3.67c.06-.41.11-.83.16-1.25a26.486 26.486 0 0 0 0-5.04c-.05-.41-.1-.83-.16-1.25a26.85 26.85 0 0 0-.83-3.67c-.25-.8-.531-1.59-.85-2.36-.32-.77-.68-1.53-1.07-2.27-.39-.73-.83-1.46-1.29-2.15-.23-.35-.47-.7-.72-1.03-.25-.34-.511-.67-.771-1-.27-.32-.54-.64-.819-.95-.28-.31-.58-.62-.87-.92-.301-.29-.61-.59-.92-.87-.311-.28-.631-.56-.96-.82-.32-.26-.65-.52-.99-.77-.33-.25-.68-.49-1.03-.72-.689-.46-1.421-.9-2.151-1.29-.739-.39-1.499-.75-2.269-1.07-.77-.32-1.571-.6-2.361-.85-.8-.24-1.62-.45-2.439-.61-.4-.08-.821-.16-1.231-.22-.42-.06-.84-.12-1.25-.16a26.624 26.624 0 0 0-5.04 0 25.082 25.082 0 0 0-2.489.38 26.1 26.1 0 0 0-2.431.61c-.8.25-1.589.53-2.359.85-.771.32-1.54.68-2.27 1.07a26.207 26.207 0 0 0-3.19 2.01c-.33.25-.671.51-.99.77-.33.26-.65.54-.96.82a24.306 24.306 0 0 0-1.78 1.79 25.133 25.133 0 0 0-1.6 1.95 25.894 25.894 0 0 0-2 3.18c-.4.74-.76 1.5-1.07 2.27-.32.77-.611 1.56-.85 2.36-.24.8-.45 1.62-.62 2.43-.08.41-.15.83-.21 1.24-.07.42-.12.84-.16 1.25-.04.42-.071.84-.101 1.26a26.487 26.487 0 0 0 0 2.52c.03.42.061.84.101 1.26z" opacity="1"/><path d="M401.038 208.307h-26.015V161.46c0-66.067-53.75-119.817-119.817-119.817H244.79c-66.067 0-119.817 53.75-119.817 119.817v46.847H98.956c-8.644 0-15.65 7.007-15.65 15.65v177.087c0 31.604 25.713 57.316 57.317 57.316h218.749c31.604 0 57.316-25.712 57.316-57.316V223.957c0-8.643-7.006-15.65-15.65-15.65zM156.273 161.46c0-48.809 39.708-88.517 88.517-88.517h10.416c48.809 0 88.517 39.708 88.517 88.517v46.847h-187.45V161.46zm229.115 239.584c0 14.346-11.67 26.016-26.016 26.016H140.623c-14.346 0-26.017-11.67-26.017-26.016V239.607h270.782v161.437z" opacity="1"/></g></g><g clip-path="url(#e)" style="display:block"><path fill="none" class="primary design" style="display:none"/><g fill="none" class="primary design" style="display:none"><path/><path/><path/></g><g fill="#121330" class="primary design" style="display:block"><path d="M224.505 314.63c.04.42.09.84.16 1.25.06.41.13.83.21 1.24.17.81.38 1.63.62 2.43.239.8.53 1.59.85 2.36.31.77.67 1.54 1.07 2.27.39.74.819 1.46 1.279 2.16.23.34.481.69.721 1.03.25.33.509.67.779.99.261.32.541.65.821.96.28.31.57.62.87.91.29.3.599.59.91.87.31.28.63.56.96.82.195.165.4.319.604.476v27.464c0 8.643 7.007 15.65 15.651 15.65s15.65-7.007 15.65-15.65v-27.479c.196-.153.396-.302.585-.461a25.803 25.803 0 0 0 2.75-2.6c.279-.31.549-.64.819-.96.26-.32.521-.66.771-.99a26.19 26.19 0 0 0 2.01-3.19c.39-.73.75-1.5 1.07-2.27.319-.77.6-1.56.85-2.36a26.16 26.16 0 0 0 .83-3.67c.06-.41.11-.83.16-1.25a26.486 26.486 0 0 0 0-5.04c-.05-.41-.1-.83-.16-1.25a26.85 26.85 0 0 0-.83-3.67c-.25-.8-.531-1.59-.85-2.36-.32-.77-.68-1.53-1.07-2.27-.39-.73-.83-1.46-1.29-2.15-.23-.35-.47-.7-.72-1.03-.25-.34-.511-.67-.771-1-.27-.32-.54-.64-.819-.95-.28-.31-.58-.62-.87-.92-.301-.29-.61-.59-.92-.87-.311-.28-.631-.56-.96-.82-.32-.26-.65-.52-.99-.77-.33-.25-.68-.49-1.03-.72-.689-.46-1.421-.9-2.151-1.29-.739-.39-1.499-.75-2.269-1.07-.77-.32-1.571-.6-2.361-.85-.8-.24-1.62-.45-2.439-.61-.4-.08-.821-.16-1.231-.22-.42-.06-.84-.12-1.25-.16a26.624 26.624 0 0 0-5.04 0 25.082 25.082 0 0 0-2.489.38 26.1 26.1 0 0 0-2.431.61c-.8.25-1.589.53-2.359.85-.771.32-1.54.68-2.27 1.07a26.207 26.207 0 0 0-3.19 2.01c-.33.25-.671.51-.99.77-.33.26-.65.54-.96.82a24.306 24.306 0 0 0-1.78 1.79 25.133 25.133 0 0 0-1.6 1.95 25.894 25.894 0 0 0-2 3.18c-.4.74-.76 1.5-1.07 2.27-.32.77-.611 1.56-.85 2.36-.24.8-.45 1.62-.62 2.43-.08.41-.15.83-.21 1.24-.07.42-.12.84-.16 1.25-.04.42-.071.84-.101 1.26a26.487 26.487 0 0 0 0 2.52c.03.42.061.84.101 1.26z"/><path d="M401.038 208.307h-26.015V161.46c0-66.067-53.75-119.817-119.817-119.817H244.79c-66.067 0-119.817 53.75-119.817 119.817v46.847H98.956c-8.644 0-15.65 7.007-15.65 15.65v177.087c0 31.604 25.713 57.316 57.317 57.316h218.749c31.604 0 57.316-25.712 57.316-57.316V223.957c0-8.643-7.006-15.65-15.65-15.65zM156.273 161.46c0-48.809 39.708-88.517 88.517-88.517h10.416c48.809 0 88.517 39.708 88.517 88.517v46.847h-187.45V161.46zm229.115 239.584c0 14.346-11.67 26.016-26.016 26.016H140.623c-14.346 0-26.017-11.67-26.017-26.016V239.607h270.782v161.437z"/></g><g class="primary design" style="display:none"><path/><path/></g></g><g clip-path="url(#f)" opacity="0" style="display:block"><path fill="none" class="primary design" style="display:none"/><g fill="none" class="primary design" style="display:none"><path/><path/><path/></g><g class="primary design" style="display:none"><path/><path/></g></g><g class="com" style="display:none"><path/><path/><path/><path/><path/><path/><path/><path/><path/><path/><path/><path/></g></g></svg>