<svg xmlns="http://www.w3.org/2000/svg" width="500" height="500" style="width:100%;height:100%;transform:translate3d(0,0,0);content-visibility:visible" viewBox="0 0 500 500"><defs><clipPath id="a"><path d="M0 0h500v500H0z"/></clipPath><clipPath id="c"><path d="M0 0h500v500H0z"/></clipPath><clipPath id="b"><path d="M0 0h500v500H0z"/></clipPath></defs><g clip-path="url(#a)"><g fill="none" clip-path="url(#b)" style="display:none"><path class="primary design" style="display:none"/><path class="primary design" style="display:none"/><path class="primary design" style="display:none"/><path class="primary design" style="display:none"/><path class="primary design" style="display:none"/><path class="primary design" style="display:none"/></g><g class="primary design" style="display:none"><path/><path/><path/><path/></g><g fill="#121330" class="primary design" style="display:block"><path d="M353.11 146.898c-56.865-56.865-149.35-56.865-206.217 0-56.865 56.866-56.865 149.352 0 206.217 1.042 1.042 2.083 1.875 3.125 2.917l-38.119 57.074c-4.79 7.29-2.916 16.872 4.374 21.663 2.708 1.875 5.624 2.708 8.749 2.708 5 0 9.998-2.5 13.123-6.874l36.869-55.616c22.496 13.54 48.117 20.83 74.988 20.83 26.87 0 52.492-7.29 74.988-21.038l37.077 55.616c2.917 4.582 7.916 7.082 12.915 7.082 2.916 0 6.04-.833 8.749-2.708 7.082-4.79 9.165-14.58 4.374-21.663l-38.119-57.074c1.041-1.042 2.083-1.875 3.124-2.917 56.658-56.865 56.658-149.35 0-206.217zM168.973 331.036c-44.576-44.785-44.576-117.482 0-162.058 22.288-22.288 51.659-33.536 81.029-33.536 29.37 0 58.74 11.248 81.029 33.536 44.576 44.785 44.576 117.481 0 162.058-21.664 21.663-50.409 33.536-81.029 33.536-30.62 0-59.366-11.873-81.029-33.536z"/><path d="M265.624 243.55v-40.41c0-8.541-7.082-15.623-15.622-15.623s-15.623 7.082-15.623 15.622v46.868c0 2.083.417 4.166 1.25 6.04.833 1.875 1.875 3.542 3.333 5l47.284 47.284c3.125 3.124 7.082 4.582 11.04 4.582 3.958 0 7.915-1.458 11.04-4.582 6.04-6.041 6.04-16.04 0-22.08l-42.702-42.702zM432.89 140.025 359.983 67.12c-6.04-6.041-16.039-6.041-22.08 0-6.04 6.04-6.04 16.039 0 22.08l72.906 72.904c3.124 3.125 7.082 4.583 11.04 4.583 3.957 0 7.915-1.458 11.04-4.583 6.04-6.04 6.04-16.039 0-22.08zM162.1 67.12c-6.041-6.041-16.04-6.041-22.08 0l-72.905 72.905c-6.041 6.04-6.041 16.039 0 22.08 3.124 3.124 7.082 4.582 11.04 4.582 3.957 0 7.915-1.458 11.04-4.583L162.098 89.2c6.041-6.04 6.041-16.039 0-22.08z"/></g><g fill="none" clip-path="url(#c)" opacity="0" style="display:block"><path class="primary design" style="display:none"/><path stroke="#121330" stroke-linecap="round" stroke-linejoin="round" stroke-width="31.3" d="M0 0" class="primary design" opacity="1" style="display:block" transform="translate(249.998 436.003)"/><path class="primary design" style="display:none"/><path class="primary design" style="display:none"/><path class="primary design" style="display:none"/><path class="primary design" style="display:none"/></g><g class="com" style="display:none"><path/><path/><path/><path/><path/><path/><path/><path/><path/><path/><path/><path/></g></g></svg>