<svg xmlns="http://www.w3.org/2000/svg" width="500" height="500" style="width:100%;height:100%;transform:translate3d(0,0,0);content-visibility:visible" viewBox="0 0 500 500"><defs><clipPath id="a"><path d="M0 0h500v500H0z"/></clipPath><clipPath id="d"><path d="M0 0h500v500H0z"/></clipPath><clipPath id="c"><path d="M0 0h500v500H0z"/></clipPath><clipPath id="b"><path d="M0 0h500v500H0z"/></clipPath></defs><g clip-path="url(#a)"><g clip-path="url(#b)" opacity="0" style="display:block"><g fill="none" class="primary design" style="display:none"><path/><path/></g><g class="primary design" style="display:none"><path/><path/></g><g fill="#121330" class="primary design" opacity="1" style="display:block"><path d="M161.456 437.524c-8.644 0-15.65-7.007-15.65-15.65V182.29c0-20.117 16.366-36.484 36.483-36.484h239.585c8.644 0 15.65 7.007 15.65 15.65s-7.006 15.65-15.65 15.65H182.289a5.19 5.19 0 0 0-5.183 5.184v239.584c0 8.643-7.006 15.65-15.65 15.65z" opacity="1"/><path d="M317.707 354.193H78.122c-8.644 0-15.65-7.007-15.65-15.65s7.006-15.65 15.65-15.65h239.585a5.19 5.19 0 0 0 5.183-5.184V78.125c0-8.643 7.006-15.65 15.65-15.65s15.65 7.007 15.65 15.65v239.584c0 20.117-16.366 36.484-36.483 36.484z" opacity="1"/></g></g><g clip-path="url(#c)" style="display:block"><g fill="none" class="primary design" style="display:none"><path/><path/></g><g class="primary design" style="display:none"><path/><path/></g><g fill="#121330" class="primary design" style="display:block"><path d="M161.456 437.524c-8.644 0-15.65-7.007-15.65-15.65V182.29c0-20.117 16.366-36.484 36.483-36.484h239.585c8.644 0 15.65 7.007 15.65 15.65s-7.006 15.65-15.65 15.65H182.289a5.19 5.19 0 0 0-5.183 5.184v239.584c0 8.643-7.006 15.65-15.65 15.65z"/><path d="M317.707 354.193H78.122c-8.644 0-15.65-7.007-15.65-15.65s7.006-15.65 15.65-15.65h239.585a5.19 5.19 0 0 0 5.183-5.184V78.125c0-8.643 7.006-15.65 15.65-15.65s15.65 7.007 15.65 15.65v239.584c0 20.117-16.366 36.484-36.483 36.484z"/></g></g><g clip-path="url(#d)" opacity="0" style="display:block"><g fill="none" class="primary design" style="display:none"><path/><path/></g><g class="primary design" style="display:none"><path/><path/></g></g><g class="com" style="display:none"><path/><path/><path/><path/><path/><path/><path/><path/><path/><path/><path/><path/></g></g></svg>