<svg xmlns="http://www.w3.org/2000/svg" width="500" height="500" style="width:100%;height:100%;transform:translate3d(0,0,0);content-visibility:visible" viewBox="0 0 500 500"><defs><clipPath id="a"><path d="M0 0h500v500H0z"/></clipPath><clipPath id="c"><path d="M0 0h500v500H0z"/></clipPath><clipPath id="b"><path d="M0 0h500v500H0z"/></clipPath></defs><g clip-path="url(#a)"><g clip-path="url(#b)" style="display:block"><g fill="none" class="primary design" style="display:none"><path/><path/><path/><path/><path/><path/><path/></g><path class="primary design" style="display:none"/><g fill="#121330" class="primary design" style="display:block"><path d="M359.378 124.978h-36.432V72.944h15.599c8.644 0 15.651-7.007 15.651-15.65s-7.007-15.65-15.651-15.65H161.461c-8.644 0-15.65 7.007-15.65 15.65s7.006 15.65 15.65 15.65h15.6v52.034h-36.433c-20.117 0-36.484 16.366-36.484 36.483v218.751c0 20.117 16.367 36.484 36.484 36.484h10.391v20.806c0 8.643 7.007 15.649 15.651 15.649s15.65-7.006 15.65-15.649v-20.806h135.366v20.808c0 8.643 7.006 15.65 15.65 15.65s15.651-7.007 15.651-15.65v-20.808h10.391c20.117 0 36.484-16.367 36.484-36.484V161.461c0-20.117-16.367-36.483-36.484-36.483zM208.362 72.944h83.283v52.034h-83.283V72.944zm156.199 307.268a5.19 5.19 0 0 1-5.183 5.184h-218.75a5.19 5.19 0 0 1-5.183-5.184V161.461a5.189 5.189 0 0 1 5.183-5.183h218.75a5.189 5.189 0 0 1 5.183 5.183v218.751z"/><path d="M213.545 187.478c-8.644 0-15.65 7.007-15.65 15.65v135.416c0 8.643 7.006 15.65 15.65 15.65s15.65-7.007 15.65-15.65V203.128c0-8.643-7.006-15.65-15.65-15.65zm72.917 0c-8.644 0-15.65 7.007-15.65 15.65v135.416c0 8.643 7.006 15.65 15.65 15.65s15.65-7.007 15.65-15.65V203.128c0-8.643-7.006-15.65-15.65-15.65z"/></g><g class="primary design" style="display:none"><path/><path/><path/></g></g><g clip-path="url(#c)" opacity="0" style="display:block"><g fill="none" class="primary design" style="display:none"><path/><path/><path/><path/><path/><path/><path/></g><g class="primary design" style="display:none"><path/><path/><path/></g></g><g class="com" style="display:none"><path/><path/><path/><path/><path/><path/><path/><path/><path/><path/><path/><path/></g></g></svg>