<svg xmlns="http://www.w3.org/2000/svg" width="500" height="500" style="width:100%;height:100%;transform:translate3d(0,0,0);content-visibility:visible" viewBox="0 0 500 500"><defs><clipPath id="a"><path d="M0 0h500v500H0z"/></clipPath><clipPath id="c"><path d="M0 0h500v500H0z"/></clipPath><clipPath id="b"><path d="M0 0h500v500H0z"/></clipPath></defs><g clip-path="url(#a)"><g clip-path="url(#b)" style="display:block"><g class="primary design" style="display:none"><path/><path fill="none"/></g><g class="primary design" style="display:none"><path/><path fill="none"/><path fill="none"/><path fill="none"/></g><g class="primary design" style="display:none"><path/><path fill="none"/></g><g class="primary design" style="display:none"><path/><path fill="none"/></g><g class="primary design" style="display:block"><path fill="none" stroke="#121330" stroke-width="2" d="M0 0"/><path fill="#121330" d="M364.588 172.423c-8.644 0-15.65-7.007-15.65-15.65V93.777h-61.954c-8.644 0-15.651-7.007-15.651-15.65s7.007-15.65 15.651-15.65h77.604c8.644 0 15.651 7.007 15.651 15.65v78.646c0 8.643-7.007 15.65-15.651 15.65z"/><path fill="#121330" d="M250.004 208.36a15.6 15.6 0 0 1-11.066-4.583l-93.751-93.751c-6.111-6.112-6.111-16.02 0-22.132 6.111-6.111 16.021-6.111 22.132 0l82.685 82.684L352.897 67.685c6.111-6.111 16.021-6.111 22.132 0 6.111 6.112 6.111 16.021 0 22.133L261.07 203.777a15.6 15.6 0 0 1-11.066 4.583z"/></g><g class="primary design" style="display:block"><path fill="none" stroke="#121330" stroke-width="2" d="M250 250"/><path fill="#121330" d="M121.966 437.543a33.533 33.533 0 0 1-23.756-9.854l-.001-.001-41.472-41.471a51.554 51.554 0 0 1-14.968-40.028 51.828 51.828 0 0 1 20.461-37.781 309.298 309.298 0 0 1 89.856-47.117c31.592-10.417 64.539-15.7 97.917-15.7h.001c33.38 0 66.325 5.283 97.918 15.7a309.295 309.295 0 0 1 89.855 47.118 51.834 51.834 0 0 1 20.462 37.781 51.553 51.553 0 0 1-14.968 40.026l-41.472 41.472a33.556 33.556 0 0 1-43.025 3.767l-32.494-22.746c-16.247-11.374-24.589-31.354-21.25-50.903l.786-4.604c-36.664-7.314-74.75-7.172-111.609.419l.711 4.112c3.386 19.585-4.949 39.607-21.233 51.006l-32.453 22.716a33.521 33.521 0 0 1-19.266 6.088zm-1.625-31.988a2.29 2.29 0 0 0 2.941.258l32.453-22.716c6.396-4.478 9.669-12.341 8.34-20.033l-3.226-18.666c-1.386-8.021 3.608-15.765 11.486-17.812 50.94-13.237 104.631-13.42 155.264-.527 7.905 2.013 12.938 9.759 11.565 17.8l-3.28 19.216c-1.312 7.678 1.964 15.526 8.346 19.993l32.494 22.745a2.29 2.29 0 0 0 2.943-.258l41.471-41.471c4.2-4.2 6.287-9.788 5.876-15.735a20.542 20.542 0 0 0-8.112-14.972c-99.445-75.181-238.352-75.182-337.797-.001a20.546 20.546 0 0 0-8.112 14.973c-.411 5.946 1.676 11.535 5.877 15.735l41.471 41.471z"/></g><g class="primary design" style="display:none"><path fill="none"/><path/><path/></g><g class="primary design" style="display:none"><path fill="none"/><path/></g></g><g clip-path="url(#c)" opacity="0" style="display:block"><g fill="none" class="primary design" style="display:none"><path/><path/></g><path fill="none" class="primary design" style="display:none"/><g class="primary design" style="display:none"><path/><path/></g><path class="primary design" style="display:none"/></g><g class="com" style="display:none"><path/><path/><path/><path/><path/><path/><path/><path/><path/><path/><path/><path/></g></g></svg>