<svg xmlns="http://www.w3.org/2000/svg" width="500" height="500" style="width:100%;height:100%;transform:translate3d(0,0,0);content-visibility:visible" viewBox="0 0 500 500"><defs><clipPath id="a"><path d="M0 0h500v500H0z"/></clipPath><clipPath id="c"><path d="M0 0h500v500H0z"/></clipPath><clipPath id="b"><path d="M0 0h500v500H0z"/></clipPath></defs><g clip-path="url(#a)"><g clip-path="url(#b)" style="display:block"><path fill="#121330" d="M261.108 337.936a15.807 15.807 0 0 0-1.206-1.093c-.106-.087-.218-.16-.326-.244a15.87 15.87 0 0 0-.903-.664c-.175-.117-.358-.217-.537-.326-.256-.156-.509-.315-.774-.457-.198-.105-.401-.195-.602-.291-.259-.124-.516-.253-.783-.363-.203-.084-.41-.15-.615-.225-.274-.1-.546-.204-.827-.289-.211-.064-.426-.109-.639-.164-.28-.072-.557-.15-.843-.206-.255-.051-.514-.08-.771-.118-.246-.036-.487-.082-.737-.106a15.877 15.877 0 0 0-1.526-.077l-.015-.001c-.518 0-1.035.027-1.551.078-.205.02-.405.06-.608.088-.304.042-.608.079-.909.139-.236.047-.464.113-.696.17-.265.065-.53.124-.792.203-.223.068-.438.153-.657.23-.265.093-.531.182-.791.29-.197.082-.385.178-.577.267-.272.126-.547.249-.813.392-.173.093-.336.199-.505.298-.271.159-.545.314-.808.491-.169.113-.325.241-.489.36-.248.181-.5.356-.74.553-.225.185-.433.388-.647.585-.161.148-.33.284-.486.44l-42.688 42.688a15.65 15.65 0 0 0 11.066 26.716l27.041.002v35.41c0 8.643 7.006 15.65 15.65 15.65s15.65-7.007 15.65-15.65v-35.409l27.041.002h.001a15.652 15.652 0 0 0 11.066-26.717l-42.654-42.652zM237.87 162.069c.382.385.785.749 1.205 1.093.106.087.219.16.327.244.295.229.591.456.902.664.175.117.358.217.537.326.256.156.509.315.774.457.198.106.402.194.604.291.259.124.515.253.782.363.203.084.41.15.615.225.274.1.545.204.826.289.211.064.425.11.638.164.281.072.559.149.845.206.252.05.508.08.762.117.249.036.494.082.747.107.495.049.992.074 1.489.076l.05.002h.003c.516 0 1.032-.027 1.546-.078.214-.021.422-.062.634-.092.295-.041.59-.076.882-.134.242-.048.477-.116.715-.175.259-.064.519-.121.775-.199.227-.069.446-.155.668-.234.261-.092.523-.178.78-.285.198-.082.389-.18.583-.27.271-.126.543-.248.808-.39.172-.092.334-.198.502-.296.273-.16.547-.316.812-.494.162-.108.313-.231.47-.345.256-.186.513-.366.76-.569.193-.159.372-.335.557-.503.192-.174.39-.334.575-.519l42.688-42.688a15.652 15.652 0 0 0-11.065-26.717l-27.042-.001V57.293c0-8.643-7.007-15.65-15.651-15.65s-15.65 7.007-15.65 15.65v35.409l-27.041-.002h-.001a15.65 15.65 0 0 0-11.065 26.717l42.654 42.652zm163.176 108.742H98.962c-8.644 0-15.65 7.007-15.65 15.65s7.006 15.65 15.65 15.65h302.084c8.644 0 15.65-7.007 15.65-15.65s-7.006-15.65-15.65-15.65zM98.963 229.26h302.084c8.644 0 15.65-7.007 15.65-15.65s-7.006-15.65-15.65-15.65H98.963c-8.644 0-15.65 7.007-15.65 15.65s7.006 15.65 15.65 15.65z" class="primary design" style="display:block"/><g class="primary design" style="display:none"><path/><path/><path/><path/></g><path fill="none" class="primary design" style="display:none"/><path fill="none" class="primary design" style="display:none"/><path fill="none" class="primary design" style="display:none"/><path fill="none" class="primary design" style="display:none"/></g><g clip-path="url(#c)" opacity="0" style="display:block"><g class="primary design" style="display:none"><path/><path/><path/><path/></g><path fill="none" class="primary design" style="display:none"/><path fill="none" class="primary design" style="display:none"/><path fill="none" class="primary design" style="display:none"/><path fill="none" class="primary design" style="display:none"/></g><g class="com" style="display:none"><path/><path/><path/><path/><path/><path/><path/><path/><path/><path/><path/><path/></g></g></svg>