<svg xmlns="http://www.w3.org/2000/svg" width="500" height="500" style="width:100%;height:100%;transform:translate3d(0,0,0);content-visibility:visible" viewBox="0 0 500 500"><defs><clipPath id="d"><path d="M0 0h500v500H0z"/></clipPath><clipPath id="g"><path d="M0 0h500v500H0z"/></clipPath><clipPath id="e"><path d="M0 0h500v500H0z"/></clipPath><clipPath id="c"><path d="M0 0h500v500H0z"/></clipPath><filter id="a" width="100%" height="100%" x="0%" y="0%" filterUnits="objectBoundingBox"><feComponentTransfer in="SourceGraphic"><feFuncA tableValues="1.0 0.0" type="table"/></feComponentTransfer></filter><mask id="f" mask-type="alpha"><g filter="url(#a)"><path fill="#fff" d="M0 0h500v500H0z" opacity="0"/><use xmlns:ns1="http://www.w3.org/1999/xlink" ns1:href="#b"/></g></mask><g id="b" clip-path="url(#c)" style="display:none"><path fill-opacity="0" stroke-linecap="round" stroke-linejoin="round" class="primary design" style="display:none"/><g class="primary design" style="display:none"><path/><path fill-opacity="0" stroke-linecap="round" stroke-linejoin="round"/></g></g></defs><g clip-path="url(#d)"><g clip-path="url(#e)" style="display:block"><g mask="url(#f)" style="display:none"><path fill="none" class="primary design"/></g><path fill="none" class="primary design" style="display:none"/><g class="primary design" style="display:none"><path/><path fill="none"/></g><g class="primary design" style="display:none"><path/><path/><path/></g><g fill="#121330" class="primary design" style="display:block"><path d="M250.005 218.727c-8.644 0-15.65 7.007-15.65 15.65v104.168c0 8.643 7.006 15.65 15.65 15.65s15.65-7.007 15.65-15.65V234.377c0-8.643-7.006-15.65-15.65-15.65zm20.455-56.136c-.13-.66-.3-1.329-.5-1.979a21.635 21.635 0 0 0-1.56-3.771c-.319-.6-.67-1.19-1.05-1.75a19.37 19.37 0 0 0-1.21-1.649c-.439-.53-.9-1.04-1.38-1.52-.479-.48-1-.95-1.53-1.38-.52-.43-1.08-.841-1.64-1.221a24.01 24.01 0 0 0-1.76-1.049c-.601-.31-1.22-.61-1.85-.87-.62-.26-1.27-.49-1.92-.69-.649-.19-1.32-.36-1.98-.5a23.44 23.44 0 0 0-2.02-.301c-1.37-.14-2.751-.14-4.11 0-.67.07-1.36.171-2.02.301-.67.14-1.33.31-1.99.5-.64.2-1.29.43-1.92.69-.62.26-1.25.56-1.84.87-.6.32-1.19.679-1.76 1.049-.57.38-1.12.791-1.65 1.221-.529.43-1.041.9-1.52 1.38-.48.48-.941.99-1.38 1.52-.431.53-.84 1.079-1.21 1.649-.38.56-.731 1.15-1.051 1.75a21.635 21.635 0 0 0-1.559 3.771c-.2.65-.37 1.319-.5 1.979a20.116 20.116 0 0 0-.41 4.081 20.077 20.077 0 0 0 .41 4.08c.13.66.3 1.33.5 1.98a21.635 21.635 0 0 0 1.559 3.77c.32.6.671 1.19 1.051 1.75.37.57.779 1.12 1.21 1.65.439.53.9 1.04 1.38 1.52.479.49.991.949 1.52 1.379.53.43 1.08.841 1.65 1.221.57.37 1.16.73 1.76 1.04.59.32 1.22.62 1.84.88.63.26 1.28.489 1.92.679.66.2 1.32.371 1.99.511.66.13 1.35.229 2.02.299.68.07 1.369.1 2.05.1.68 0 1.371-.03 2.06-.1.67-.07 1.35-.169 2.02-.299a22.92 22.92 0 0 0 1.98-.511c.65-.19 1.3-.419 1.92-.679.63-.26 1.249-.56 1.85-.88.6-.31 1.19-.67 1.76-1.04.56-.38 1.12-.791 1.64-1.221.53-.43 1.051-.889 1.53-1.379.48-.48.941-.99 1.38-1.52.43-.53.84-1.08 1.21-1.65.38-.56.731-1.15 1.05-1.75a21.635 21.635 0 0 0 1.56-3.77c.2-.65.37-1.32.5-1.98a20.077 20.077 0 0 0 .41-4.08 20.116 20.116 0 0 0-.41-4.081z"/><path d="M458.3 244.968c-1.345-55.638-24.275-107.422-64.568-145.814-40.293-38.391-93.115-58.792-148.763-57.449-114.856 2.776-206.038 98.477-203.263 213.332 2.735 113.152 95.65 203.324 208.226 203.324 1.694 0 3.403-.02 5.106-.061 114.855-2.776 206.037-98.477 203.262-213.332zM254.282 427.009c-1.454.035-2.894.052-4.339.052-95.657 0-174.622-76.632-176.946-172.78-2.359-97.602 75.126-178.926 172.728-181.285 1.454-.035 2.893-.053 4.338-.053 95.657 0 174.623 76.634 176.946 172.781 2.358 97.602-75.126 178.927-172.727 181.285z"/></g></g><g clip-path="url(#g)" opacity="0" style="display:block"><path fill="none" class="primary design" style="display:none"/><path fill="none" class="primary design" style="display:none"/><g class="primary design" style="display:none"><path/><path fill="none"/></g><g class="primary design" style="display:none"><path/><path/><path/></g></g><g class="com" style="display:none"><path/><path/><path/><path/><path/><path/><path/><path/><path/><path/><path/><path/></g></g></svg>