<svg xmlns="http://www.w3.org/2000/svg" width="500" height="500" style="width:100%;height:100%;transform:translate3d(0,0,0);content-visibility:visible" viewBox="0 0 500 500"><defs><clipPath id="f"><path d="M0 0h500v500H0z"/></clipPath><clipPath id="n"><path d="M0 0h500v500H0z"/></clipPath><clipPath id="r"><path d="M0 0h500v500H0z"/></clipPath><clipPath id="s"><path fill="#fff" d="M500 256H0V-2h500v258"/></clipPath><clipPath id="p"><path d="M0 0h500v500H0z"/></clipPath><clipPath id="q"><path fill="#fff" d="M500 253H0v247h500V253"/></clipPath><clipPath id="o"><path fill="#fff" d="M134.103 37.3S-63.154 192.682-31.083 230.018C.988 267.354 118.94 385.74 243.16 394.26c106.252 7.287 216.613-85.827 287.035-156.249 152.753-152.753-2.664-142.984-2.664-142.984L134.103 37.3"/></clipPath><clipPath id="g"><path d="M0 0h500v500H0z"/></clipPath><clipPath id="k"><path d="M0 0h500v500H0z"/></clipPath><clipPath id="m"><path fill="#fff" d="M500 256H0V-2h500v258"/></clipPath><clipPath id="i"><path d="M0 0h500v500H0z"/></clipPath><clipPath id="j"><path fill="#fff" d="M500 253H0v247h500V253"/></clipPath><clipPath id="e"><path fill="#fff" d="M500 253H0v247h500V253"/></clipPath><filter id="a" width="100%" height="100%" x="0%" y="0%" filterUnits="objectBoundingBox"><feComponentTransfer in="SourceGraphic"><feFuncA tableValues="1.0 0.0" type="table"/></feComponentTransfer></filter><filter id="c" width="100%" height="100%" x="0%" y="0%" filterUnits="objectBoundingBox"><feComponentTransfer in="SourceGraphic"><feFuncA tableValues="1.0 0.0" type="table"/></feComponentTransfer></filter><mask id="l" mask-type="alpha"><g filter="url(#a)"><path fill="#fff" d="M0 0h500v500H0z" opacity="0"/><use xmlns:ns1="http://www.w3.org/1999/xlink" ns1:href="#b"/></g></mask><mask id="h" mask-type="alpha"><g filter="url(#c)"><path fill="#fff" d="M0 0h500v500H0z" opacity="0"/><use xmlns:ns2="http://www.w3.org/1999/xlink" ns2:href="#d"/></g></mask><path id="b" fill-opacity="0" stroke-linecap="round" stroke-linejoin="round" class="primary design" style="display:none"/><g id="d" fill-opacity="0" stroke-linecap="round" stroke-linejoin="round" clip-path="url(#e)" style="display:none"><path class="primary design" style="display:none"/><path class="primary design" style="display:none"/><path class="primary design" style="display:none"/><path class="primary design" style="display:none"/></g></defs><g clip-path="url(#f)"><g clip-path="url(#g)" style="display:block"><g mask="url(#h)" style="display:none"><path fill="none" class="primary design"/></g><path fill="#121330" d="M437.528 348.961c-.001-8.643-7.008-15.649-15.651-15.649h-52.082c-8.644 0-15.65 7.007-15.65 15.65s7.006 15.649 15.65 15.649h15.309c-33.347 39.524-82.086 62.451-135.101 62.451-62.759 0-119.499-32.201-151.78-86.138-4.439-7.417-14.049-9.828-21.466-5.391-7.416 4.439-9.829 14.049-5.391 21.466 18.138 30.306 43.846 55.682 74.347 73.388 31.527 18.301 67.59 27.975 104.29 27.975 36.553 0 72.52-9.593 104.013-27.742 19.631-11.313 37.271-25.796 52.213-42.699v13.13c.001 8.644 7.007 15.65 15.651 15.65 8.643 0 15.65-7.008 15.65-15.651l-.002-52.089zM130.211 166.694c8.644 0 15.65-7.007 15.65-15.65s-7.006-15.65-15.65-15.65h-15.308c33.347-39.525 82.085-62.451 135.101-62.451 62.758 0 119.498 32.201 151.78 86.138 2.933 4.899 8.121 7.615 13.443 7.615 2.735 0 5.505-.717 8.023-2.223 7.416-4.439 9.829-14.049 5.391-21.466-18.139-30.306-43.847-55.683-74.347-73.389-31.527-18.301-67.59-27.974-104.29-27.974-36.554 0-72.521 9.593-104.013 27.741-19.631 11.313-37.271 25.796-52.213 42.699v-13.13c-.001-8.643-7.007-15.649-15.65-15.649-8.644 0-15.651 7.006-15.651 15.65l.001 52.09c.001 8.643 7.007 15.649 15.651 15.649h52.082zm140.628 15.57c-8.644 0-15.65 7.007-15.65 15.65v113.718c0 8.643 7.006 15.65 15.65 15.65h29.517c29.684 0 53.833-24.148 53.833-53.832v-37.353c0-29.684-24.149-53.833-53.833-53.833h-29.517zm52.05 53.833v37.353c0 12.424-10.108 22.532-22.533 22.532h-13.867v-82.418h13.867c12.425 0 22.533 10.108 22.533 22.533zm-124.966 60.756h-36.461c-8.644 0-15.65 7.007-15.65 15.65s7.006 15.649 15.65 15.649h36.461c20.116 0 36.481-16.366 36.481-36.483v-15.62c0-15.03-9.134-27.965-22.144-33.547l20.226-37.09a15.652 15.652 0 0 0-13.74-23.142h-57.284c-8.644 0-15.65 7.006-15.65 15.649 0 8.643 7.006 15.65 15.65 15.65h30.924l-14.176 25.996-6.337.001c-8.643.002-15.647 7.009-15.646 15.652.002 8.643 7.007 15.648 15.65 15.648h26.046a5.188 5.188 0 0 1 5.181 5.183v15.62a5.19 5.19 0 0 1-5.181 5.184z" class="primary design" style="display:block"/><g class="primary design" style="display:none"><path/><path/><path/><path/></g><g clip-path="url(#i)" style="display:none"><g fill="none" clip-path="url(#j)"><path class="primary design" style="display:none"/><path class="primary design" style="display:none"/><path class="primary design" style="display:none"/><path class="primary design" style="display:none"/></g></g><g clip-path="url(#k)" mask="url(#l)" style="display:none"><g fill="none" clip-path="url(#m)"><path class="primary design" style="display:none"/><path class="primary design" style="display:none"/><path class="primary design" style="display:none"/><path class="primary design" style="display:none"/></g></g></g><g clip-path="url(#n)" opacity="0" style="display:block"><g class="primary design" clip-path="url(#o)" style="display:none"><path/><path/></g><g class="primary design" style="display:none"><path/><path/><path/><path/></g><g clip-path="url(#p)" style="display:none"><g fill="none" clip-path="url(#q)"><path class="primary design" style="display:none"/><path class="primary design" style="display:none"/><path class="primary design" style="display:none"/><path class="primary design" style="display:none"/></g></g><g clip-path="url(#r)" style="display:none"><g fill="none" clip-path="url(#s)"><path class="primary design" style="display:none"/><path class="primary design" style="display:none"/><path class="primary design" style="display:none"/><path class="primary design" style="display:none"/></g></g></g><g class="com" style="display:none"><path/><path/><path/><path/><path/><path/><path/><path/><path/><path/><path/><path/></g></g></svg>