<svg xmlns="http://www.w3.org/2000/svg" width="500" height="500" style="width:100%;height:100%;transform:translate3d(0,0,0);content-visibility:visible" viewBox="0 0 500 500"><defs><clipPath id="b"><path d="M0 0h500v500H0z"/></clipPath><clipPath id="d"><path d="M0 0h500v500H0z"/></clipPath><clipPath id="c"><path d="M0 0h500v500H0z"/></clipPath><mask id="e" mask-type="alpha"><use xmlns:ns1="http://www.w3.org/1999/xlink" ns1:href="#a"/></mask><g id="a" class="primary design" style="display:none"><path fill-opacity="0" stroke-linecap="round" stroke-linejoin="round"/><path/></g></defs><g clip-path="url(#b)"><g clip-path="url(#c)" style="display:block"><g fill="none" class="primary design" style="display:none"><path/><path/></g><g fill="none" class="primary design" style="display:none"><path/><path/></g><path fill="none" class="primary design" style="display:none"/><path fill="none" class="primary design" style="display:none"/><path fill="none" class="primary design" style="display:none"/><path fill="#121330" d="M151.046-187.523h-302.084c-20.117 0-36.484 16.367-36.484 36.484v302.085c0 20.117 16.367 36.483 36.484 36.483h302.084c20.117 0 36.484-16.366 36.484-36.483v-302.085c0-20.117-16.367-36.484-36.484-36.484zm5.183 36.484v135.392H-41.638v-140.576h192.684a5.19 5.19 0 0 1 5.183 5.184zM-41.638 15.653h83.284v140.576h-83.284V15.653zm-114.584 135.393v-302.085a5.19 5.19 0 0 1 5.184-5.184h78.1v312.452h-78.1a5.19 5.19 0 0 1-5.184-5.183zm307.268 5.183h-78.1V15.653h83.283v135.393a5.189 5.189 0 0 1-5.183 5.183z" class="primary design" style="display:block" transform="translate(250 250)"/><path class="primary design" style="display:none"/></g><g clip-path="url(#d)" opacity="0" style="display:block"><g mask="url(#e)" style="display:none"><path fill="none" class="primary design"/></g><path class="primary design" style="display:none"/><path fill="none" class="primary design" style="display:none"/></g><g class="com" style="display:none"><path/><path/><path/><path/><path/><path/><path/><path/><path/><path/><path/><path/></g></g></svg>