<svg xmlns="http://www.w3.org/2000/svg" width="500" height="500" style="width:100%;height:100%;transform:translate3d(0,0,0);content-visibility:visible" viewBox="0 0 500 500"><defs><clipPath id="a"><path d="M0 0h500v500H0z"/></clipPath><clipPath id="c"><path d="M0 0h500v500H0z"/></clipPath><clipPath id="b"><path d="M0 0h500v500H0z"/></clipPath></defs><g clip-path="url(#a)"><g clip-path="url(#b)" style="display:block"><g fill="none" class="primary design" style="display:none"><path/><path/></g><g fill="#121330" class="primary design" style="display:block"><path d="m320.091 198.077-67.702-10.417a15.6 15.6 0 0 0-4.76 0l-67.714 10.416c-8.542 1.314-14.402 9.305-13.088 17.848 1.313 8.543 9.302 14.408 17.847 13.089l65.335-10.051 65.323 10.05c.807.125 1.607.185 2.399.185 7.592 0 14.258-5.536 15.448-13.272 1.314-8.542-4.545-16.534-13.088-17.848z"/><path d="M448.071 86.26c-19.063-6.639-39.475-.727-51.975 15.04l-21.816 27.392-121.213-24.243a15.656 15.656 0 0 0-6.138 0l-120.844 24.169-21.735-27.291C91.83 85.535 71.421 79.622 52.353 86.26c-19.161 6.674-31.542 24.092-31.542 44.373v51.458c0 53.407 38.235 97.98 89.358 107.147 3.094 33.643 18.045 64.782 42.575 88.331 26.282 25.231 60.82 39.126 97.254 39.126 36.433 0 70.972-13.895 97.254-39.126 24.506-23.527 39.452-54.629 42.565-88.236 51.36-8.896 89.796-53.535 89.796-107.242v-51.458c0-20.281-12.381-37.699-31.542-44.373zm-395.96 95.831v-51.458c0-10.34 8.065-13.953 10.538-14.814 2.435-.848 10.872-2.997 17.195 4.98l24.517 30.784 4.294 105.217c-32.791-9.137-56.544-39.17-56.544-74.709zm197.887 203.305c-58.748 0-106.645-45.981-109.041-104.68l-.17-4.176c.017-.2.048-.395.057-.597.054-1.163-.031-2.3-.221-3.402l-4.651-113.98 114.026-22.806 114.026 22.806-4.986 122.155c-2.396 58.699-50.292 104.68-109.04 104.68zm198.315-203.305c0 35.809-23.957 65.942-56.979 74.86l4.277-104.8 24.991-31.379c6.302-7.949 14.737-5.802 17.173-4.953 2.473.861 10.538 4.474 10.538 14.814v51.458z"/></g><g class="primary design" style="display:none"><path/><path/></g></g><g clip-path="url(#c)" opacity="0" style="display:block"><g fill="none" class="primary design" style="display:none"><path/><path/></g><g class="primary design" style="display:none"><path/><path/></g></g><g class="com" style="display:none"><path/><path/><path/><path/><path/><path/><path/><path/><path/><path/><path/><path/></g></g></svg>