<svg xmlns="http://www.w3.org/2000/svg" width="500" height="500" style="width:100%;height:100%;transform:translate3d(0,0,0);content-visibility:visible" viewBox="0 0 500 500"><defs><clipPath id="a"><path d="M0 0h500v500H0z"/></clipPath><clipPath id="d"><path d="M0 0h500v500H0z"/></clipPath><clipPath id="c"><path d="M0 0h500v500H0z"/></clipPath><clipPath id="b"><path d="M0 0h500v500H0z"/></clipPath></defs><g clip-path="url(#a)"><g fill="#121330" clip-path="url(#b)" opacity="0" style="display:block"><path d="M187.47-4.531c-1.211-50.075-21.848-96.682-58.113-131.234-36.265-34.553-83.802-52.916-133.889-51.706-50.075 1.21-96.681 21.849-131.234 58.113a188.84 188.84 0 0 0-20.459 25.623l-.001-58.186c-.001-8.643-7.007-15.65-15.65-15.65-8.644 0-15.651 7.007-15.651 15.651l.002 94.212c.001 8.643 7.007 15.649 15.651 15.649h89.002c8.644 0 15.65-7.006 15.65-15.649 0-8.643-7.006-15.65-15.65-15.65h-49.283a157.304 157.304 0 0 1 19.049-24.409c28.786-30.211 67.613-47.405 109.33-48.413 41.727-1.02 81.33 14.29 111.541 43.076 30.212 28.785 47.405 67.613 48.414 109.33 1.008 41.717-14.29 81.33-43.075 111.541-28.785 30.211-67.613 47.405-109.33 48.413-41.723 1.003-81.33-14.289-111.541-43.075-23.753-22.631-39.547-51.563-45.675-83.669-1.62-8.489-9.82-14.058-18.305-12.438-8.49 1.621-14.06 9.816-12.439 18.306 7.359 38.56 26.318 73.299 54.827 100.462 35.143 33.483 80.875 51.763 129.24 51.761 1.545 0 3.1-.018 4.649-.056 50.076-1.21 96.682-21.849 131.234-58.113C170.318 93.093 188.68 45.544 187.47-4.531z" class="primary design" opacity="1" style="display:block" transform="translate(250.004 250.003)"/><path d="M-29.954-88.567c-8.644 0-15.65 7.007-15.65 15.65v87.344c0 .033.005.065.005.098.002.335.027.67.05 1.004.013.182.014.367.033.548.038.365.102.729.166 1.091.025.142.039.289.068.43a15.564 15.564 0 0 0 4.032 7.643c.087.091.168.188.257.277.037.037.068.078.106.115l59.909 58.483a15.6 15.6 0 0 0 10.931 4.451c4.068 0 8.134-1.577 11.2-4.718 6.038-6.185 5.919-16.093-.266-22.131L-14.304 7.841v-80.758c0-8.643-7.006-15.65-15.65-15.65z" class="primary design" opacity="1" style="display:block" transform="translate(279.958 255.211)"/></g><g clip-path="url(#c)" style="display:block"><g fill="#121330" class="primary design" style="display:block"><path d="M437.474 245.472c-1.211-50.075-21.848-96.682-58.113-131.234-36.265-34.553-83.802-52.916-133.889-51.706-50.075 1.21-96.681 21.849-131.234 58.113a188.84 188.84 0 0 0-20.459 25.623l-.001-58.186c-.001-8.643-7.007-15.65-15.65-15.65-8.644 0-15.651 7.007-15.651 15.651l.002 94.212c.001 8.643 7.007 15.649 15.651 15.649h89.002c8.644 0 15.65-7.006 15.65-15.649 0-8.643-7.006-15.65-15.65-15.65h-49.283a157.304 157.304 0 0 1 19.049-24.409c28.786-30.211 67.613-47.405 109.33-48.413 41.727-1.02 81.33 14.29 111.541 43.076 30.212 28.785 47.405 67.613 48.414 109.33 1.008 41.717-14.29 81.33-43.075 111.541-28.785 30.211-67.613 47.405-109.33 48.413-41.723 1.003-81.33-14.289-111.541-43.075-23.753-22.631-39.547-51.563-45.675-83.669-1.62-8.489-9.82-14.058-18.305-12.438-8.49 1.621-14.06 9.816-12.439 18.306 7.359 38.56 26.318 73.299 54.827 100.462 35.143 33.483 80.875 51.763 129.24 51.761 1.545 0 3.1-.018 4.649-.056 50.076-1.21 96.682-21.849 131.234-58.113 34.554-36.265 52.916-83.814 51.706-133.889z"/><path d="M250.004 166.644c-8.644 0-15.65 7.007-15.65 15.65v87.344c0 .033.005.065.005.098.002.335.027.67.05 1.004.013.182.014.367.033.548.038.365.102.729.166 1.091.025.142.039.289.068.43a15.564 15.564 0 0 0 4.032 7.643c.087.091.168.188.257.277.037.037.068.078.106.115l59.909 58.483a15.6 15.6 0 0 0 10.931 4.451c4.068 0 8.134-1.577 11.2-4.718 6.038-6.185 5.919-16.093-.266-22.131l-55.191-53.877v-80.758c0-8.643-7.006-15.65-15.65-15.65z"/></g><path class="primary design" style="display:none"/><g class="primary design" style="display:none"><path/><path/></g><path fill="none" class="primary design" style="display:none"/><path fill="none" class="primary design" style="display:none"/></g><g clip-path="url(#d)" opacity="0" style="display:block"><path class="primary design" style="display:none"/><g class="primary design" style="display:none"><path/><path/></g><path fill="none" class="primary design" style="display:none"/><path fill="none" class="primary design" style="display:none"/><path fill="none" class="primary design" style="display:none"/><path class="primary design" style="display:none"/></g><g class="com" style="display:none"><path/><path/><path/><path/><path/><path/><path/><path/><path/><path/><path/><path/></g></g></svg>