<svg xmlns="http://www.w3.org/2000/svg" width="500" height="500" style="width:100%;height:100%;transform:translate3d(0,0,0);content-visibility:visible" viewBox="0 0 500 500"><defs><clipPath id="a"><path d="M0 0h500v500H0z"/></clipPath><clipPath id="c"><path d="M0 0h500v500H0z"/></clipPath><clipPath id="b"><path d="M0 0h500v500H0z"/></clipPath></defs><g clip-path="url(#a)"><g clip-path="url(#b)" style="display:block"><path fill="none" style="display:none"/><path fill="none" style="display:none"/><g fill="#121330" style="display:block"><path d="M249.999 458.36c-114.89 0-208.361-93.469-208.361-208.359 0-114.89 93.471-208.359 208.361-208.359 114.89 0 208.359 93.469 208.359 208.359 0 114.89-93.469 208.359-208.359 208.359zm-.001-385.418c-97.631 0-177.059 79.428-177.059 177.059S152.367 427.06 249.998 427.06s177.059-79.428 177.059-177.059S347.629 72.942 249.998 72.942z"/><path d="M182.297 333.362a15.65 15.65 0 0 1-14.795-20.76l34.562-100.066a15.652 15.652 0 0 1 9.616-9.66l100.855-35.351a15.649 15.649 0 0 1 19.993 19.808l-34.563 101.642a15.647 15.647 0 0 1-9.847 9.801l-100.854 33.775a15.64 15.64 0 0 1-4.967.811zm46.881-103.452-21.714 62.868 63.363-21.219 21.716-63.859-63.365 22.21z"/></g><g style="display:none"><path/><path/></g></g><g clip-path="url(#c)" opacity="0" style="display:block"><path fill="none" class="primary design" style="display:none"/><path fill="none" style="display:none"/><g style="display:none"><path/><path/></g><path fill="none" style="display:none"/></g><path style="display:none"/></g></svg>