<svg xmlns="http://www.w3.org/2000/svg" width="500" height="500" style="width:100%;height:100%;transform:translate3d(0,0,0);content-visibility:visible" viewBox="0 0 500 500"><defs><clipPath id="a"><path d="M0 0h500v500H0z"/></clipPath><clipPath id="c"><path d="M0 0h500v500H0z"/></clipPath><clipPath id="b"><path d="M0 0h500v500H0z"/></clipPath></defs><g clip-path="url(#a)"><g clip-path="url(#b)" style="display:block"><path fill="none" style="display:none"/><path fill="none" style="display:none"/><path fill="none" style="display:none"/><path fill="#121330" d="M151.046-187.523H-114.58c-8.644 0-15.65 7.007-15.65 15.65v45.799c0 15.133-8.812 29.591-23.57 38.674-34.161 21.026-54.556 57.593-54.556 97.819 0 49.501 32.175 93.292 78.126 108.616v52.843c0 8.643 7.006 15.65 15.65 15.65h265.626c8.644 0 15.651-7.007 15.651-15.65v-343.751c0-8.643-7.007-15.65-15.651-15.65zm-15.65 343.752H20.863v-52.268a15.65 15.65 0 0 0-12.43-15.314c-38.067-8.005-65.696-42.219-65.696-81.353 0-9.27 1.401-18.087 4.165-26.207 2.785-8.183-1.591-17.073-9.773-19.858-8.188-2.787-17.074 1.591-19.858 9.772-3.871 11.375-5.835 23.585-5.835 36.293 0 26.465 9.195 52.258 25.89 72.629 13.701 16.718 31.931 29.21 52.236 35.984v40.322h-88.491v-49.143a15.65 15.65 0 0 0-12.43-15.314c-38.067-8.005-65.696-42.219-65.696-81.353 0-29.275 14.827-55.878 39.662-71.164 24.083-14.823 38.462-39.245 38.464-65.328v-30.15h234.325v312.452z" style="display:block" transform="translate(250 250)"/><path style="display:none"/></g><g clip-path="url(#c)" opacity="0" style="display:block"><path fill="none" style="display:none"/><path fill="none" style="display:none"/><path fill="none" style="display:none"/><path style="display:none"/></g><path style="display:none"/></g></svg>