<svg xmlns="http://www.w3.org/2000/svg" width="500" height="500" style="width:100%;height:100%;transform:translate3d(0,0,0);content-visibility:visible" viewBox="0 0 500 500"><defs><clipPath id="a"><path d="M0 0h500v500H0z"/></clipPath><clipPath id="d"><path d="M0 0h500v500H0z"/></clipPath><clipPath id="c"><path d="M0 0h500v500H0z"/></clipPath><clipPath id="b"><path d="M0 0h500v500H0z"/></clipPath></defs><g clip-path="url(#a)"><g fill="#121330" clip-path="url(#b)" opacity="0" style="display:block"><path d="M.001-208.359C-114.889-208.359-208.36-114.89-208.36 0c0 114.89 93.471 208.359 208.361 208.359C114.891 208.359 208.36 114.89 208.36 0c0-114.89-93.469-208.359-208.359-208.359zM0 177.059c-97.631 0-177.059-79.428-177.059-177.059S-97.631-177.059 0-177.059 177.059-97.631 177.059 0 97.631 177.059 0 177.059z" class="primary design" opacity="1" style="display:block" transform="translate(250.003 250.003)"/><path d="M331.296 169.066c-14.262-14.262-32.025-24.544-51.37-29.736a114.369 114.369 0 0 0-20.569-3.534l7.819-7.819c6.111-6.112 6.111-16.022 0-22.133-6.113-6.111-16.022-6.111-22.133.001l-33.597 33.599c-6.111 6.112-6.111 16.021 0 22.133l33.594 33.594a15.602 15.602 0 0 0 11.067 4.583 15.6 15.6 0 0 0 11.066-4.584c6.111-6.111 6.111-16.02 0-22.132l-5.625-5.625c17.7 2.401 34.378 10.55 47.615 23.786 29.079 29.08 32.574 74.253 8.307 107.413-5.104 6.975-3.587 16.768 3.388 21.872a15.57 15.57 0 0 0 9.229 3.021c4.82 0 9.578-2.22 12.643-6.408 15.907-21.738 23.609-48.565 21.689-75.541-1.946-27.332-13.71-53.076-33.123-72.49zm-76.42 135.683c-6.111-6.111-16.022-6.111-22.133 0-6.111 6.112-6.111 16.02 0 22.132l5.779 5.779c-17.658-2.483-34.407-10.582-47.322-23.497-29.172-29.171-32.667-74.467-8.313-107.7 5.109-6.972 3.6-16.765-3.372-21.874-6.974-5.11-16.767-3.6-21.874 3.372-15.982 21.809-23.727 48.691-21.808 75.695 1.944 27.355 13.747 53.152 33.234 72.639 19.27 19.269 44.739 30.749 71.283 33.038l-7.611 7.61c-6.111 6.112-6.111 16.021 0 22.133a15.604 15.604 0 0 0 11.067 4.583 15.6 15.6 0 0 0 11.066-4.584l33.599-33.599c6.111-6.112 6.111-16.021 0-22.133l-33.595-33.594z" class="primary design" opacity="1" style="display:block"/></g><g fill="#121330" clip-path="url(#c)" style="display:block"><path d="M.001-208.359C-114.889-208.359-208.36-114.89-208.36 0c0 114.89 93.471 208.359 208.361 208.359C114.891 208.359 208.36 114.89 208.36 0c0-114.89-93.469-208.359-208.359-208.359zM0 177.059c-97.631 0-177.059-79.428-177.059-177.059S-97.631-177.059 0-177.059 177.059-97.631 177.059 0 97.631 177.059 0 177.059z" class="primary design" style="display:block" transform="translate(250.003 250.003)"/><path d="M331.296 169.066c-14.262-14.262-32.025-24.544-51.37-29.736a114.369 114.369 0 0 0-20.569-3.534l7.819-7.819c6.111-6.112 6.111-16.022 0-22.133-6.113-6.111-16.022-6.111-22.133.001l-33.597 33.599c-6.111 6.112-6.111 16.021 0 22.133l33.594 33.594a15.602 15.602 0 0 0 11.067 4.583 15.6 15.6 0 0 0 11.066-4.584c6.111-6.111 6.111-16.02 0-22.132l-5.625-5.625c17.7 2.401 34.378 10.55 47.615 23.786 29.079 29.08 32.574 74.253 8.307 107.413-5.104 6.975-3.587 16.768 3.388 21.872a15.57 15.57 0 0 0 9.229 3.021c4.82 0 9.578-2.22 12.643-6.408 15.907-21.738 23.609-48.565 21.689-75.541-1.946-27.332-13.71-53.076-33.123-72.49zm-76.42 135.683c-6.111-6.111-16.022-6.111-22.133 0-6.111 6.112-6.111 16.02 0 22.132l5.779 5.779c-17.658-2.483-34.407-10.582-47.322-23.497-29.172-29.171-32.667-74.467-8.313-107.7 5.109-6.972 3.6-16.765-3.372-21.874-6.974-5.11-16.767-3.6-21.874 3.372-15.982 21.809-23.727 48.691-21.808 75.695 1.944 27.355 13.747 53.152 33.234 72.639 19.27 19.269 44.739 30.749 71.283 33.038l-7.611 7.61c-6.111 6.112-6.111 16.021 0 22.133a15.604 15.604 0 0 0 11.067 4.583 15.6 15.6 0 0 0 11.066-4.584l33.599-33.599c6.111-6.112 6.111-16.021 0-22.133l-33.595-33.594z" class="primary design" style="display:block"/></g><g clip-path="url(#d)" opacity="0" style="display:block"><path fill="none" class="primary design" style="display:none"/><path class="primary design" style="display:none"/><g class="primary design" style="display:none"><path/><path/></g><path fill="none" class="primary design" style="display:none"/><path fill="none" class="primary design" style="display:none"/></g><g class="com" style="display:none"><path/><path/><path/><path/><path/><path/><path/><path/><path/><path/><path/><path/></g></g></svg>