<svg xmlns="http://www.w3.org/2000/svg" width="500" height="500" style="width:100%;height:100%;transform:translate3d(0,0,0);content-visibility:visible" viewBox="0 0 500 500"><defs><clipPath id="a"><path d="M0 0h500v500H0z"/></clipPath><clipPath id="d"><path d="M0 0h500v500H0z"/></clipPath><clipPath id="c"><path d="M0 0h500v500H0z"/></clipPath><clipPath id="b"><path d="M0 0h500v500H0z"/></clipPath></defs><g clip-path="url(#a)"><g clip-path="url(#b)" opacity="0" style="display:block"><path fill="none" class="primary design" style="display:none"/><g class="primary design" style="display:none"><path/><path/><path/></g><g fill="#121330" class="primary design" opacity="1" style="display:block"><path d="M421.85 416.642H78.153c-19.996 0-36.452-16.456-36.452-36.453V119.814c0-19.996 16.456-36.452 36.452-36.452H421.85c19.997 0 36.453 16.456 36.453 36.452V380.19c0 19.997-16.456 36.453-36.453 36.453zM78.153 114.607c-2.916 0-5.207 2.291-5.207 5.207V380.19c0 2.917 2.291 5.208 5.207 5.208H421.85c2.917 0 5.208-2.291 5.208-5.208V119.814c0-2.916-2.291-5.207-5.208-5.207H78.154z" opacity="1"/><path d="M119.814 250.002c-8.54 0-15.622-7.082-15.622-15.623v-72.905c0-8.54 7.082-15.622 15.622-15.622h72.905c8.749 0 15.623 7.082 15.623 15.622s-6.874 15.623-15.623 15.623h-57.282v57.282c0 8.54-6.874 15.623-15.623 15.623zm260.376 104.15h-72.906c-8.748 0-15.622-6.874-15.622-15.623 0-8.748 7.082-15.622 15.622-15.622h57.283v-57.283c0-8.54 7.082-15.622 15.622-15.622s15.623 7.082 15.623 15.622v72.905c0 8.749-7.082 15.623-15.623 15.623z" opacity="1"/></g></g><g clip-path="url(#c)" style="display:block"><path fill="none" class="primary design" style="display:none"/><g class="primary design" style="display:none"><path/><path/><path/></g><g fill="#121330" class="primary design" style="display:block"><path d="M421.85 416.642H78.153c-19.996 0-36.452-16.456-36.452-36.453V119.814c0-19.996 16.456-36.452 36.452-36.452H421.85c19.997 0 36.453 16.456 36.453 36.452V380.19c0 19.997-16.456 36.453-36.453 36.453zM78.153 114.607c-2.916 0-5.207 2.291-5.207 5.207V380.19c0 2.917 2.291 5.208 5.207 5.208H421.85c2.917 0 5.208-2.291 5.208-5.208V119.814c0-2.916-2.291-5.207-5.208-5.207H78.154z"/><path d="M119.814 250.002c-8.54 0-15.622-7.082-15.622-15.623v-72.905c0-8.54 7.082-15.622 15.622-15.622h72.905c8.749 0 15.623 7.082 15.623 15.622s-6.874 15.623-15.623 15.623h-57.282v57.282c0 8.54-6.874 15.623-15.623 15.623zm260.376 104.15h-72.906c-8.748 0-15.622-6.874-15.622-15.623 0-8.748 7.082-15.622 15.622-15.622h57.283v-57.283c0-8.54 7.082-15.622 15.622-15.622s15.623 7.082 15.623 15.622v72.905c0 8.749-7.082 15.623-15.623 15.623z"/></g></g><g clip-path="url(#d)" opacity="0" style="display:block"><g class="primary design" style="display:none"><path/><path/><path/></g><path fill="none" class="primary design" style="display:none"/></g><g class="com" style="display:none"><path/><path/><path/><path/><path/><path/><path/><path/><path/><path/><path/><path/></g></g></svg>