<svg xmlns="http://www.w3.org/2000/svg" width="500" height="500" style="width:100%;height:100%;transform:translate3d(0,0,0);content-visibility:visible" viewBox="0 0 500 500"><defs><clipPath id="a"><path d="M0 0h500v500H0z"/></clipPath><clipPath id="d"><path d="M0 0h500v500H0z"/></clipPath><clipPath id="c"><path d="M0 0h500v500H0z"/></clipPath><clipPath id="b"><path d="M0 0h500v500H0z"/></clipPath></defs><g clip-path="url(#a)"><g fill="none" clip-path="url(#b)" opacity="0" style="display:block"><path stroke="#121330" stroke-linecap="round" stroke-linejoin="round" stroke-width="31.3" d="M192.709 46.875c0 53.958-41.041 98.334-93.75 103.542-3.333.417-6.876.625-10.417.625h-197.918c-46.042 0-83.333-37.292-83.333-83.333 0-23.125 9.376-43.958 24.375-58.959A83.188 83.188 0 0 1-150.21-5c-.624-3.543-.832-7.084-.832-10.625 0-39.167 31.042-71.252 70-72.709 18.542-37.293 57.291-62.708 101.875-62.708 60 0 108.959 45.834 113.959 104.583 10.209 5.208 19.376 11.875 27.293 19.792 18.958 18.751 30.624 44.792 30.624 73.542z" class="primary design" opacity="1" style="display:block" transform="translate(250.004 250.003)"/><path stroke="#121330" stroke-linecap="round" stroke-linejoin="round" stroke-width="31.3" d="M-81.25-88.5c16.015 0 39.714 3.202 55.554 23.321M127.422 5.6c5.506-14.139 8.483-31.07 7.828-50.85" class="primary design" opacity="1" style="display:block" transform="translate(250 250)"/><path class="primary design" style="display:none"/></g><g clip-path="url(#c)" style="display:block"><path fill="none" class="primary design" style="display:none"/><path fill="none" class="primary design" style="display:none"/><path fill="none" class="primary design" style="display:none"/><path fill="none" class="primary design" style="display:none"/><path fill="#121330" d="M173.155-37.73a122.809 122.809 0 0 0-23.765-18.524c-4.405-29.157-18.534-55.899-40.332-76.024-24.035-22.191-55.367-34.411-88.221-34.411-24.522 0-48.388 6.832-69.014 19.758-17.604 11.032-32.201 26.054-42.621 43.779-19.42 2.749-37.311 11.855-51.116 26.172-15.977 16.569-24.775 38.36-24.775 61.358 0 .865.012 1.714.033 2.547a99.316 99.316 0 0 0-12.741 10.762c-18.675 18.676-28.959 43.545-28.959 70.025 0 54.58 44.404 98.983 98.984 98.983H88.546c4.169 0 8.258-.242 12.155-.721 29.38-2.953 56.531-16.621 76.47-38.503 20.114-22.073 31.192-50.695 31.192-80.593 0-32.104-12.526-62.174-35.208-84.608zM97.423 134.845a18.49 18.49 0 0 0-.404.046c-2.637.33-5.567.504-8.473.504h-197.918c-37.321 0-67.684-30.362-67.684-67.683 0-18.12 7.028-35.129 19.791-47.893a67.922 67.922 0 0 1 14.731-11.176 15.65 15.65 0 0 0 7.741-16.355c-.407-2.307-.596-4.82-.596-7.91 0-30.849 24.13-55.917 54.935-57.069a15.795 15.795 0 0 0 1.941-.199c.131 0 .26-.003.393-.003 10.424 0 20.619 2.823 29.484 8.164a15.574 15.574 0 0 0 8.062 2.248c5.306 0 10.482-2.7 13.42-7.576 4.46-7.403 2.074-17.021-5.329-21.481a88.066 88.066 0 0 0-21.707-9.367c18.302-21.676 45.437-34.485 75.027-34.485 51.698 0 93.986 38.803 98.364 90.26.065.76.19 1.506.361 2.236.135 2.15.217 4.308.217 6.431 0 12.424-2.269 24.53-6.745 35.982-3.146 8.05.829 17.128 8.879 20.274a15.617 15.617 0 0 0 5.693 1.078c6.256 0 12.166-3.778 14.581-9.957a129.161 129.161 0 0 0 7.433-27.857c.489.467.984.927 1.463 1.406 16.753 16.57 25.979 38.736 25.979 62.415 0 45.663-34.237 83.481-79.639 87.967z" class="primary design" style="display:block" transform="translate(250 250)"/><path class="primary design" style="display:none"/></g><g clip-path="url(#d)" opacity="0" style="display:block"><path class="primary design" style="display:none"/><g class="primary design" style="display:none"><path/><path fill="none"/></g><g class="primary design" style="display:none"><path/><path fill="none"/></g><g class="primary design" style="display:none"><path/><path fill="none"/></g><g class="primary design" style="display:none"><path/><path fill="none"/></g><g class="primary design" style="display:none"><path/><path fill="none"/></g><g class="primary design" style="display:none"><path/><path fill="none"/></g></g><g class="com" style="display:none"><path/><path/><path/><path/><path/><path/><path/><path/><path/><path/><path/><path/></g></g></svg>