<svg xmlns="http://www.w3.org/2000/svg" width="500" height="500" style="width:100%;height:100%;transform:translate3d(0,0,0);content-visibility:visible" viewBox="0 0 500 500"><defs><clipPath id="a"><path d="M0 0h500v500H0z"/></clipPath><clipPath id="c"><path d="M0 0h500v500H0z"/></clipPath><clipPath id="b"><path d="M0 0h500v500H0z"/></clipPath></defs><g clip-path="url(#a)"><g clip-path="url(#b)" style="display:block"><path class="primary design" style="display:none"/><path class="primary design" style="display:none"/><path fill="#121330" d="M99.608 20.183c-6.11-6.111-16.021-6.112-22.131 0L15.645 82.01l.005-201.802c0-8.643-7.006-15.65-15.65-15.65-8.643 0-15.649 7.006-15.65 15.649l-.006 201.804-61.82-61.819c-6.113-6.111-16.021-6.111-22.132.001-6.111 6.111-6.111 16.02 0 22.132l88.535 88.534c.028.028.058.05.086.077.339.334.691.655 1.059.957.19.156.391.293.587.439.213.159.421.324.642.472.23.154.467.288.703.428.203.121.401.248.61.36.239.128.484.236.728.351.219.103.435.213.66.306.237.098.48.178.721.264.241.086.478.178.724.253.241.073.486.127.73.188.252.063.5.134.756.185.278.055.559.088.84.128.225.032.447.075.675.097.514.051 1.029.078 1.545.078s1.031-.027 1.545-.078c.232-.023.457-.066.686-.099.276-.04.553-.072.827-.126.261-.052.514-.123.77-.188.239-.06.48-.112.717-.184.249-.075.488-.169.731-.256.239-.085.48-.165.715-.262.225-.094.441-.203.661-.307.243-.114.489-.222.727-.35.209-.112.408-.24.611-.361.235-.14.473-.273.702-.426.224-.15.434-.317.649-.478.193-.144.391-.279.579-.433.399-.327.783-.672 1.147-1.037l88.547-88.541c6.112-6.111 6.112-16.021.001-22.133z" class="primary design" style="display:block" transform="translate(333.33 302.086)"/><path fill="#121330" d="M77.476-20.194c6.113 6.111 16.021 6.112 22.132 0 6.111-6.112 6.111-16.02 0-22.132L11.073-130.86c-.027-.027-.058-.049-.085-.076a15.808 15.808 0 0 0-1.06-.959c-.188-.154-.385-.288-.578-.432-.216-.161-.428-.329-.652-.479-.226-.151-.461-.283-.693-.421-.206-.123-.409-.253-.621-.367-.236-.126-.478-.233-.718-.346-.222-.105-.441-.215-.669-.31-.235-.097-.476-.176-.714-.261-.243-.087-.482-.181-.731-.256-.241-.073-.486-.127-.73-.188-.251-.063-.499-.133-.755-.184-.286-.057-.575-.091-.863-.132-.217-.031-.43-.072-.65-.094a15.702 15.702 0 0 0-3.096 0c-.212.021-.417.061-.626.09-.297.041-.594.077-.889.136-.246.049-.484.117-.726.177-.254.063-.509.12-.76.196-.237.072-.466.161-.699.244-.25.089-.5.171-.746.273-.217.09-.424.197-.636.296-.252.118-.505.229-.751.361-.202.108-.394.233-.591.35-.241.143-.485.28-.72.437-.22.147-.427.312-.639.47-.196.146-.397.283-.588.44-.399.327-.783.672-1.147 1.037l-88.547 88.541c-6.112 6.111-6.112 16.021-.001 22.133A15.599 15.599 0 0 0-88.542-15.6c4.005 0 8.01-1.528 11.065-4.584l61.832-61.827-.005 201.802c0 8.643 7.006 15.65 15.65 15.65 8.643 0 15.649-7.006 15.65-15.649l.006-201.804 61.82 61.818z" class="primary design" style="display:block" transform="translate(166.664 197.92)"/></g><g clip-path="url(#c)" opacity="0" style="display:block"><path class="primary design" style="display:none"/><path class="primary design" style="display:none"/></g><g class="com" style="display:none"><path/><path/><path/><path/><path/><path/><path/><path/><path/><path/><path/><path/></g></g></svg>