<svg xmlns="http://www.w3.org/2000/svg" width="500" height="500" style="width:100%;height:100%;transform:translate3d(0,0,0);content-visibility:visible" viewBox="0 0 500 500"><defs><clipPath id="c"><path d="M0 0h500v500H0z"/></clipPath><clipPath id="g"><path d="M0 0h500v500H0z"/></clipPath><clipPath id="e"><path d="M0 0h500v500H0z"/></clipPath><clipPath id="d"><path d="M0 0h500v500H0z"/></clipPath><clipPath id="b"><path d="M0 0h500v500H0z"/></clipPath><filter id="a" width="100%" height="100%" x="0%" y="0%" filterUnits="objectBoundingBox"><feComponentTransfer in="SourceGraphic"><feFuncA tableValues="1.0 0.0" type="table"/></feComponentTransfer></filter><mask id="f" mask-type="alpha"><g filter="url(#a)"><path fill="#fff" d="M0 0h500v500H0z" opacity="0"/><use xmlns:ns1="http://www.w3.org/1999/xlink" ns1:href="#b"/></g></mask></defs><g clip-path="url(#c)"><g clip-path="url(#b)" opacity="0" style="display:block"><g class="primary design" style="display:none"><path/><path/></g><g fill="#121330" class="primary design" opacity="1" style="display:block"><path d="M250.004 41.644c-114.89 0-208.361 93.469-208.361 208.359 0 114.89 93.471 208.359 208.361 208.359 114.89 0 208.359-93.469 208.359-208.359 0-114.89-93.469-208.359-208.359-208.359zm-.001 385.418c-97.631 0-177.059-79.428-177.059-177.059S152.372 72.944 250.003 72.944s177.059 79.428 177.059 177.059-79.428 177.059-177.059 177.059z" opacity="1"/><path d="M265.628 145.812h-31.25c-31.604 0-57.317 25.712-57.317 57.316v93.75c0 31.604 25.713 57.316 57.317 57.316h31.25c31.604 0 57.317-25.712 57.317-57.316v-5.208c0-8.643-7.006-15.65-15.65-15.65s-15.651 7.007-15.651 15.65v5.208c0 14.346-11.67 26.017-26.016 26.017h-31.25c-14.346 0-26.016-11.671-26.016-26.017v-93.75c0-14.346 11.67-26.017 26.016-26.017h31.25c14.346 0 26.016 11.671 26.016 26.017v5.208c0 8.643 7.007 15.65 15.651 15.65s15.65-7.007 15.65-15.65v-5.208c0-31.604-25.713-57.316-57.317-57.316z" opacity="1"/></g><g fill="none" class="primary design" style="display:none"><path/><path/></g></g><g clip-path="url(#d)" opacity="0" style="display:block"><g class="primary design" style="display:none"><path/><path/></g><g fill="#121330" class="primary design" opacity="1" style="display:block"><path d="M250.004 41.644c-114.89 0-208.361 93.469-208.361 208.359 0 114.89 93.471 208.359 208.361 208.359 114.89 0 208.359-93.469 208.359-208.359 0-114.89-93.469-208.359-208.359-208.359zm-.001 385.418c-97.631 0-177.059-79.428-177.059-177.059S152.372 72.944 250.003 72.944s177.059 79.428 177.059 177.059-79.428 177.059-177.059 177.059z" opacity="1"/><path d="M265.628 145.812h-31.25c-31.604 0-57.317 25.712-57.317 57.316v93.75c0 31.604 25.713 57.316 57.317 57.316h31.25c31.604 0 57.317-25.712 57.317-57.316v-5.208c0-8.643-7.006-15.65-15.65-15.65s-15.651 7.007-15.651 15.65v5.208c0 14.346-11.67 26.017-26.016 26.017h-31.25c-14.346 0-26.016-11.671-26.016-26.017v-93.75c0-14.346 11.67-26.017 26.016-26.017h31.25c14.346 0 26.016 11.671 26.016 26.017v5.208c0 8.643 7.007 15.65 15.651 15.65s15.65-7.007 15.65-15.65v-5.208c0-31.604-25.713-57.316-57.317-57.316z" opacity="1"/></g><g fill="none" class="primary design" style="display:none"><path/><path/></g></g><g clip-path="url(#e)" style="display:block"><g class="primary design" style="display:none"><path/><path/></g><g fill="#121330" class="primary design" style="display:block"><path d="M250.004 41.644c-114.89 0-208.361 93.469-208.361 208.359 0 114.89 93.471 208.359 208.361 208.359 114.89 0 208.359-93.469 208.359-208.359 0-114.89-93.469-208.359-208.359-208.359zm-.001 385.418c-97.631 0-177.059-79.428-177.059-177.059S152.372 72.944 250.003 72.944s177.059 79.428 177.059 177.059-79.428 177.059-177.059 177.059z"/><path d="M265.628 145.812h-31.25c-31.604 0-57.317 25.712-57.317 57.316v93.75c0 31.604 25.713 57.316 57.317 57.316h31.25c31.604 0 57.317-25.712 57.317-57.316v-5.208c0-8.643-7.006-15.65-15.65-15.65s-15.651 7.007-15.651 15.65v5.208c0 14.346-11.67 26.017-26.016 26.017h-31.25c-14.346 0-26.016-11.671-26.016-26.017v-93.75c0-14.346 11.67-26.017 26.016-26.017h31.25c14.346 0 26.016 11.671 26.016 26.017v5.208c0 8.643 7.007 15.65 15.651 15.65s15.65-7.007 15.65-15.65v-5.208c0-31.604-25.713-57.316-57.317-57.316z"/></g><g mask="url(#f)" style="display:none"><path class="primary design"/></g><path fill="none" class="primary design" style="display:none"/><path fill="none" class="primary design" style="display:none"/></g><g clip-path="url(#g)" opacity="0" style="display:block"><g class="primary design" style="display:none"><path/><path/></g><path fill="none" class="primary design" style="display:none"/><path fill="none" class="primary design" style="display:none"/><path fill="none" class="primary design" style="display:none"/></g><g class="com" style="display:none"><path/><path/><path/><path/><path/><path/><path/><path/><path/><path/><path/><path/></g></g></svg>