<svg xmlns="http://www.w3.org/2000/svg" width="500" height="500" style="width:100%;height:100%;transform:translate3d(0,0,0);content-visibility:visible" viewBox="0 0 500 500"><defs><clipPath id="c"><path d="M0 0h500v500H0z"/></clipPath><clipPath id="f"><path d="M0 0h500v500H0z"/></clipPath><clipPath id="d"><path d="M0 0h500v500H0z"/></clipPath><filter id="a" width="100%" height="100%" x="0%" y="0%" filterUnits="objectBoundingBox"><feComponentTransfer in="SourceGraphic"><feFuncA tableValues="1.0 0.0" type="table"/></feComponentTransfer></filter><mask id="e" mask-type="alpha"><g filter="url(#a)"><path fill="#fff" d="M0 0h500v500H0z" opacity="0"/><use xmlns:ns1="http://www.w3.org/1999/xlink" ns1:href="#b"/></g></mask><g id="b" class="primary design" style="display:none"><path/><path fill-opacity="0" stroke-linecap="round" stroke-linejoin="round"/></g></defs><g clip-path="url(#c)"><g clip-path="url(#d)" style="display:block"><g mask="url(#e)" style="display:block"><path fill="#121330" d="M427.863 84.496a15.649 15.649 0 0 0-17.055 3.393l-14.209 14.21c-12.634-12.557-26.854-23.508-42.311-32.481-31.527-18.301-67.59-27.974-104.29-27.974-36.553 0-72.52 9.593-104.013 27.741-15.606 8.994-29.953 19.991-42.691 32.611L89.188 87.889a15.648 15.648 0 0 0-26.716 11.066l.001 52.09c.001 8.643 7.006 15.649 15.65 15.649h52.083a15.65 15.65 0 0 0 11.066-26.715l-15.928-15.93C158.03 91.52 202.28 72.943 249.998 72.943c47.693 0 91.897 18.613 124.546 51.213l-15.82 15.823a15.649 15.649 0 0 0 11.066 26.715h45.355l.077.002.074-.002h6.576c8.643 0 15.649-7.006 15.65-15.649l.002-52.09a15.65 15.65 0 0 0-9.661-14.459z" class="primary design"/></g><path fill="none" class="primary design" style="display:none"/><path fill="#121330" d="m79.004-8.819-53.34-10.575.016-85.902c.004-10.857-4.25-21.058-11.977-28.725-7.692-7.632-17.911-11.835-28.774-11.835-22.47 0-40.751 18.189-40.751 40.546V37.762l-34.748-9.278c-13.348-3.563-27.277-.79-38.218 7.612-10.85 8.333-17.073 20.934-17.073 34.641a15.65 15.65 0 0 0 6.792 12.901l83.244 57.161v51.913c0 8.643 7.006 15.65 15.65 15.65H98.346c8.644 0 15.65-7.007 15.65-15.65v-56.295L124.56 54.15c3.787-29.494-16.224-57.154-45.556-62.969zM-109.723 60.92c3.165-2.43 7.202-3.23 11.078-2.196l54.436 14.536a15.654 15.654 0 0 0 19.688-15.121V-105.31c0-5.098 4.239-9.246 9.45-9.246 2.549 0 4.938.978 6.729 2.754a9.09 9.09 0 0 1 2.721 6.498l-.018 98.758A15.651 15.651 0 0 0 6.968 8.808l65.948 13.076c13.25 2.627 22.298 15.049 20.599 28.28l-8.291 64.565H-38.497l-74.032-50.835a12.859 12.859 0 0 1 2.806-2.974zM82.695 177.062H-24.524v-31.033H82.695v31.033z" class="primary design" style="display:block" transform="translate(250 250)"/><path class="primary design" style="display:none"/></g><g clip-path="url(#f)" opacity="0" style="display:block"><path fill="none" class="primary design" style="display:none"/><path fill="none" class="primary design" style="display:none"/><path fill="none" class="primary design" style="display:none"/><path fill="none" class="primary design" style="display:none"/><path class="primary design" style="display:none"/><path class="primary design" style="display:none"/></g><g class="com" style="display:none"><path/><path/><path/><path/><path/><path/><path/><path/><path/><path/><path/><path/></g></g></svg>