<svg xmlns="http://www.w3.org/2000/svg" width="500" height="500" style="width:100%;height:100%;transform:translate3d(0,0,0);content-visibility:visible" viewBox="0 0 500 500"><defs><clipPath id="a"><path d="M0 0h500v500H0z"/></clipPath><clipPath id="g"><path d="M0 0h500v500H0z"/></clipPath><clipPath id="f"><path d="M0 0h500v500H0z"/></clipPath><clipPath id="e"><path d="M0 0h500v500H0z"/></clipPath><clipPath id="d"><path d="M0 0h500v500H0z"/></clipPath><clipPath id="c"><path d="M0 0h500v500H0z"/></clipPath><clipPath id="b"><path d="M0 0h500v500H0z"/></clipPath></defs><g clip-path="url(#a)"><g clip-path="url(#b)" opacity="0" style="display:block"><path fill="#121330" d="M129.616 185.175c-2.66 0-5.333-.183-8.001-.554A359.43 359.43 0 0 1 9.071 149.506c-34.521-17.4-65.93-40.131-93.36-67.56-27.429-27.429-50.159-58.839-67.559-93.36a359.404 359.404 0 0 1-35.115-112.544 58.007 58.007 0 0 1 13.706-46.089 57.676 57.676 0 0 1 43.508-19.823h68.655a36.607 36.607 0 0 1 36.102 30.289l8.069 45.722c3.855 21.851-5.353 44.256-23.459 57.081l-6.573 4.656c25.149 38.341 58.333 71.281 97.082 96.364l4.301-6.097c12.817-18.172 35.251-27.415 57.148-23.553l45.665 8.06a36.606 36.606 0 0 1 30.289 36.101v68.655a57.676 57.676 0 0 1-19.826 43.509 58 58 0 0 1-38.088 14.258zm-259.365-343.746c-7.737 0-14.805 3.223-19.901 9.077a26.72 26.72 0 0 0-6.311 21.229c20.247 145.721 136.162 261.636 281.885 281.884a26.702 26.702 0 0 0 21.227-6.309c5.854-5.097 9.078-12.164 9.078-19.902V58.753a5.35 5.35 0 0 0-4.426-5.277l-.001-.001-45.665-8.059c-10.02-1.764-20.271 2.461-26.131 10.769L67.225 74.307c-4.69 6.65-13.697 8.597-20.717 4.473C-6.223 47.801-50.489 3.834-81.503-48.365c-4.167-7.012-2.248-16.049 4.408-20.764l18.621-13.19c8.279-5.865 12.491-16.109 10.727-26.1l-8.069-45.723a5.352 5.352 0 0 0-5.278-4.429h-68.655z" class="primary design" opacity="1" style="display:block" transform="translate(250 250)"/><path fill="none" class="primary design" style="display:none"/><path class="primary design" style="display:none"/></g><g clip-path="url(#c)" opacity="0" style="display:block"><path fill="none" class="primary design" style="display:none"/><path fill="none" class="primary design" style="display:none"/><path fill="none" class="primary design" style="display:none"/><path fill="#121330" d="M399.737 230.496c-8.644 0-15.65-7.007-15.65-15.65 0-66.04-53.726-119.767-119.766-119.767-8.644 0-15.651-7.006-15.651-15.649 0-8.643 7.007-15.65 15.651-15.65 83.299 0 151.067 67.767 151.067 151.066 0 8.643-7.007 15.65-15.651 15.65zm-40.956 207.027c-2.659 0-5.33-.183-7.999-.554a359.429 359.429 0 0 1-112.544-35.115c-34.521-17.4-65.93-40.131-93.36-67.56-27.429-27.429-50.159-58.839-67.559-93.36A359.403 359.403 0 0 1 42.204 128.39a58.002 58.002 0 0 1 13.705-46.089 57.677 57.677 0 0 1 43.508-19.824h68.655a36.61 36.61 0 0 1 36.102 30.288l8.069 45.724c3.855 21.85-5.352 44.256-23.458 57.081l-6.574 4.657c25.147 38.34 58.333 71.28 97.083 96.363l4.299-6.096c12.817-18.173 35.258-27.418 57.149-23.554l45.665 8.059a36.606 36.606 0 0 1 30.289 36.101v68.655a57.678 57.678 0 0 1-19.825 43.509 58.004 58.004 0 0 1-38.09 14.259zM99.417 93.777c-7.737 0-14.805 3.223-19.902 9.077a26.722 26.722 0 0 0-6.309 21.229C93.453 269.805 209.367 385.719 355.09 405.967a26.712 26.712 0 0 0 21.228-6.309c5.854-5.096 9.077-12.165 9.077-19.903V311.1a5.351 5.351 0 0 0-4.428-5.277l-45.665-8.059c-10.012-1.764-20.271 2.46-26.131 10.769l-12.78 18.121c-4.69 6.651-13.696 8.597-20.717 4.473-52.733-30.981-96.998-74.946-128.01-127.144-4.167-7.013-2.248-16.049 4.408-20.764l18.621-13.19c8.279-5.864 12.49-16.109 10.726-26.1l-8.069-45.724a5.353 5.353 0 0 0-5.278-4.428H99.417z" class="primary design" opacity="1" style="display:block"/><path fill="#121330" d="M29.623 45.272c-8.644 0-15.651-7.006-15.651-15.649 0-24.039-19.557-43.596-43.595-43.596-8.644 0-15.65-7.007-15.65-15.65s7.006-15.649 15.65-15.649c41.297 0 74.896 33.598 74.896 74.895 0 8.643-7.006 15.649-15.65 15.649z" class="primary design" opacity="1" style="display:block" transform="translate(293.943 185.224)"/><path class="primary design" style="display:none"/></g><g clip-path="url(#d)" opacity="0" style="display:block"><path fill="none" class="primary design" style="display:none"/><path fill="none" class="primary design" style="display:none"/><path fill="none" class="primary design" style="display:none"/><path fill="none" class="primary design" style="display:none"/><path fill="none" class="primary design" style="display:none"/><g class="primary design" style="display:none"><path/><path/></g><path class="primary design" style="display:none"/><path fill="#121330" d="M399.737 230.496c-8.644 0-15.65-7.007-15.65-15.65 0-66.04-53.726-119.767-119.766-119.767-8.644 0-15.651-7.006-15.651-15.649 0-8.643 7.007-15.65 15.651-15.65 83.299 0 151.067 67.767 151.067 151.066 0 8.643-7.007 15.65-15.651 15.65zm-40.956 207.027c-2.659 0-5.33-.183-7.999-.554a359.429 359.429 0 0 1-112.544-35.115c-34.521-17.4-65.93-40.131-93.36-67.56-27.429-27.429-50.159-58.839-67.559-93.36A359.403 359.403 0 0 1 42.204 128.39a58.002 58.002 0 0 1 13.705-46.089 57.677 57.677 0 0 1 43.508-19.824h68.655a36.61 36.61 0 0 1 36.102 30.288l8.069 45.724c3.855 21.85-5.352 44.256-23.458 57.081l-6.574 4.657c25.147 38.34 58.333 71.28 97.083 96.363l4.299-6.096c12.817-18.173 35.258-27.418 57.149-23.554l45.665 8.059a36.606 36.606 0 0 1 30.289 36.101v68.655a57.678 57.678 0 0 1-19.825 43.509 58.004 58.004 0 0 1-38.09 14.259zM99.417 93.777c-7.737 0-14.805 3.223-19.902 9.077a26.722 26.722 0 0 0-6.309 21.229C93.453 269.805 209.367 385.719 355.09 405.967a26.712 26.712 0 0 0 21.228-6.309c5.854-5.096 9.077-12.165 9.077-19.903V311.1a5.351 5.351 0 0 0-4.428-5.277l-45.665-8.059c-10.012-1.764-20.271 2.46-26.131 10.769l-12.78 18.121c-4.69 6.651-13.696 8.597-20.717 4.473-52.733-30.981-96.998-74.946-128.01-127.144-4.167-7.013-2.248-16.049 4.408-20.764l18.621-13.19c8.279-5.864 12.49-16.109 10.726-26.1l-8.069-45.724a5.353 5.353 0 0 0-5.278-4.428H99.417z" class="primary design" opacity="1" style="display:block"/><path fill="#121330" d="M29.623 45.272c-8.644 0-15.651-7.006-15.651-15.649 0-24.039-19.557-43.596-43.595-43.596-8.644 0-15.65-7.007-15.65-15.65s7.006-15.649 15.65-15.649c41.297 0 74.896 33.598 74.896 74.895 0 8.643-7.006 15.649-15.65 15.649z" class="primary design" opacity="1" style="display:block" transform="translate(293.943 185.224)"/></g><g clip-path="url(#e)" opacity="0" style="display:block"><path fill="none" class="primary design" style="display:none"/><path fill="none" class="primary design" style="display:none"/><path fill="none" class="primary design" style="display:none"/><path fill="#121330" d="M129.616 185.175c-2.66 0-5.333-.183-8.001-.554A359.43 359.43 0 0 1 9.071 149.506c-34.521-17.4-65.93-40.131-93.36-67.56-27.429-27.429-50.159-58.839-67.559-93.36a359.404 359.404 0 0 1-35.115-112.544 58.007 58.007 0 0 1 13.706-46.089 57.676 57.676 0 0 1 43.508-19.823h68.655a36.607 36.607 0 0 1 36.102 30.289l8.069 45.722c3.855 21.851-5.353 44.256-23.459 57.081l-6.573 4.656c25.149 38.341 58.333 71.281 97.082 96.364l4.301-6.097c12.817-18.172 35.251-27.415 57.148-23.553l45.665 8.06a36.606 36.606 0 0 1 30.289 36.101v68.655a57.676 57.676 0 0 1-19.826 43.509 58 58 0 0 1-38.088 14.258zm-259.365-343.746c-7.737 0-14.805 3.223-19.901 9.077a26.72 26.72 0 0 0-6.311 21.229c20.247 145.721 136.162 261.636 281.885 281.884a26.702 26.702 0 0 0 21.227-6.309c5.854-5.097 9.078-12.164 9.078-19.902V58.753a5.35 5.35 0 0 0-4.426-5.277l-.001-.001-45.665-8.059c-10.02-1.764-20.271 2.461-26.131 10.769L67.225 74.307c-4.69 6.65-13.697 8.597-20.717 4.473C-6.223 47.801-50.489 3.834-81.503-48.365c-4.167-7.012-2.248-16.049 4.408-20.764l18.621-13.19c8.279-5.865 12.491-16.109 10.727-26.1l-8.069-45.723a5.352 5.352 0 0 0-5.278-4.429h-68.655z" class="primary design" opacity="1" style="display:block" transform="translate(250 250)"/><g class="primary design" style="display:none"><path/><path/></g><path class="primary design" style="display:none"/></g><g clip-path="url(#f)" style="display:block"><path fill="none" class="primary design" style="display:none"/><path fill="none" class="primary design" style="display:none"/><path fill="none" class="primary design" style="display:none"/><path fill="none" class="primary design" style="display:none"/><path fill="#121330" d="M129.616 185.175c-2.66 0-5.333-.183-8.001-.554A359.43 359.43 0 0 1 9.071 149.506c-34.521-17.4-65.93-40.131-93.36-67.56-27.429-27.429-50.159-58.839-67.559-93.36a359.404 359.404 0 0 1-35.115-112.544 58.007 58.007 0 0 1 13.706-46.089 57.676 57.676 0 0 1 43.508-19.823h68.655a36.607 36.607 0 0 1 36.102 30.289l8.069 45.722c3.855 21.851-5.353 44.256-23.459 57.081l-6.573 4.656c25.149 38.341 58.333 71.281 97.082 96.364l4.301-6.097c12.817-18.172 35.251-27.415 57.148-23.553l45.665 8.06a36.606 36.606 0 0 1 30.289 36.101v68.655a57.676 57.676 0 0 1-19.826 43.509 58 58 0 0 1-38.088 14.258zm-259.365-343.746c-7.737 0-14.805 3.223-19.901 9.077a26.72 26.72 0 0 0-6.311 21.229c20.247 145.721 136.162 261.636 281.885 281.884a26.702 26.702 0 0 0 21.227-6.309c5.854-5.097 9.078-12.164 9.078-19.902V58.753a5.35 5.35 0 0 0-4.426-5.277l-.001-.001-45.665-8.059c-10.02-1.764-20.271 2.461-26.131 10.769L67.225 74.307c-4.69 6.65-13.697 8.597-20.717 4.473C-6.223 47.801-50.489 3.834-81.503-48.365c-4.167-7.012-2.248-16.049 4.408-20.764l18.621-13.19c8.279-5.865 12.491-16.109 10.727-26.1l-8.069-45.723a5.352 5.352 0 0 0-5.278-4.429h-68.655z" class="primary design" style="display:block" transform="translate(250 250)"/><path class="primary design" style="display:none"/></g><g clip-path="url(#g)" opacity="0" style="display:block"><path fill="none" class="primary design" style="display:none"/><path class="primary design" style="display:none"/></g><g class="com" style="display:none"><path/><path/><path/><path/><path/><path/><path/><path/><path/><path/><path/><path/></g></g></svg>