<svg xmlns="http://www.w3.org/2000/svg" width="500" height="500" style="width:100%;height:100%;transform:translate3d(0,0,0);content-visibility:visible" viewBox="0 0 500 500"><defs><clipPath id="a"><path d="M0 0h500v500H0z"/></clipPath><clipPath id="c"><path d="M0 0h500v500H0z"/></clipPath><clipPath id="b"><path d="M0 0h500v500H0z"/></clipPath></defs><g clip-path="url(#a)"><g fill="#121330" clip-path="url(#b)" style="display:block"><path d="M192.701 166.698a15.65 15.65 0 0 1-14.597-10.034l-14.174-36.85c-16.592-43.138-58.792-72.121-105.011-72.121l-15.33.002v49.162a15.65 15.65 0 0 1-26.137 11.617L-119.861-15.474a15.65 15.65 0 0 1 0-23.235L17.452-162.657a15.652 15.652 0 0 1 26.137 11.617v48.427h2.652c89.393 0 162.119 72.726 162.119 162.118v91.541a15.65 15.65 0 0 1-15.659 15.652zM58.918 16.393c29.197 0 57.351 8.737 81.417 25.266 14.489 9.951 26.875 22.301 36.725 36.499V59.505c0-72.133-58.685-130.818-130.819-130.818H27.938c-8.644 0-15.65-7.007-15.65-15.65v-28.867l-98.307 88.739 98.307 88.739V32.046c0-8.643 7.006-15.65 15.65-15.65l30.98-.003z" class="primary design" style="display:block" transform="translate(250 250)"/><path d="M67.705 140.651a15.597 15.597 0 0 1-10.612-4.151L-78.324 11.499a15.652 15.652 0 0 1 0-22.999l135.417-125c6.351-5.862 16.253-5.468 22.116.884 5.862 6.351 5.466 16.253-.885 22.115L-44.635-.001 78.324 113.501c6.351 5.862 6.747 15.764.885 22.115a15.609 15.609 0 0 1-11.504 5.035z" class="primary design" style="display:block" transform="translate(124.997 223.961)"/></g><g clip-path="url(#c)" opacity="0" style="display:block"><path fill="none" class="primary design" style="display:none"/><path fill="none" class="primary design" style="display:none"/><path class="primary design" style="display:none"/><path class="primary design" style="display:none"/></g><g class="com" style="display:none"><path/><path/><path/><path/><path/><path/><path/><path/><path/><path/><path/><path/></g></g></svg>