<svg xmlns="http://www.w3.org/2000/svg" width="500" height="500" style="width:100%;height:100%;transform:translate3d(0,0,0);content-visibility:visible" viewBox="0 0 500 500"><defs><clipPath id="a"><path d="M0 0h500v500H0z"/></clipPath><clipPath id="d"><path d="M0 0h500v500H0z"/></clipPath><clipPath id="c"><path d="M0 0h500v500H0z"/></clipPath><clipPath id="b"><path d="M0 0h500v500H0z"/></clipPath></defs><g clip-path="url(#a)"><g clip-path="url(#b)" opacity="0" style="display:block"><path fill="none" class="primary design" style="display:none"/><path fill="none" class="primary design" style="display:none"/><g fill="none" class="primary design" style="display:none"><path/><path/></g><g fill="none" class="primary design" style="display:none"><path/><path/></g><path class="primary design" style="display:none"/><path class="primary design" style="display:none"/><path fill="#121330" d="M7.991-2.796a.72.72 0 0 0-.041-.2c-.008-.023-.014-.046-.024-.068a.727.727 0 0 0-.146-.217L1.28-9.78a.723.723 0 0 0-.216-.146c-.022-.01-.045-.016-.068-.024a.726.726 0 0 0-.201-.041C.779-9.992.766-10 .75-10h-7C-7.215-10-8-9.215-8-8.25v16.5c0 .965.785 1.75 1.75 1.75h12.5C7.215 10 8 9.215 8 8.25v-11c0-.016-.008-.03-.009-.046zM1.5-7.44l3.939 3.939H1.5V-7.44zM6.25 8.5h-12.5a.25.25 0 0 1-.25-.25v-16.5a.25.25 0 0 1 .25-.25H0v5.749c0 .414.336.75.75.75H6.5V8.25a.25.25 0 0 1-.25.25z" class="primary design" opacity="1" style="display:block" transform="translate(250 250) scale(20.83)"/><path fill="#121330" d="M1.97-.294.75.926v-3.662a.75.75 0 0 0-1.5 0V.926l-1.22-1.22A.749.749 0 1 0-3.03.767l2.5 2.5a.747.747 0 0 0 1.06 0l2.5-2.5A.75.75 0 0 0 1.97-.294z" class="primary design" opacity="1" style="display:block" transform="translate(250 322.618) scale(20.83)"/></g><g clip-path="url(#c)" style="display:block"><path fill="none" class="primary design" style="display:none"/><path fill="none" class="primary design" style="display:none"/><g fill="none" class="primary design" style="display:none"><path/><path/></g><g fill="none" class="primary design" style="display:none"><path/><path/></g><path class="primary design" style="display:none"/><path class="primary design" style="display:none"/><path fill="#121330" d="M7.991-2.796a.72.72 0 0 0-.041-.2c-.008-.023-.014-.046-.024-.068a.727.727 0 0 0-.146-.217L1.28-9.78a.723.723 0 0 0-.216-.146c-.022-.01-.045-.016-.068-.024a.726.726 0 0 0-.201-.041C.779-9.992.766-10 .75-10h-7C-7.215-10-8-9.215-8-8.25v16.5c0 .965.785 1.75 1.75 1.75h12.5C7.215 10 8 9.215 8 8.25v-11c0-.016-.008-.03-.009-.046zM1.5-7.44l3.939 3.939H1.5V-7.44zM6.25 8.5h-12.5a.25.25 0 0 1-.25-.25v-16.5a.25.25 0 0 1 .25-.25H0v5.749c0 .414.336.75.75.75H6.5V8.25a.25.25 0 0 1-.25.25z" class="primary design" style="display:block" transform="translate(250 250) scale(20.83)"/><path fill="#121330" d="M1.97-.294.75.926v-3.662a.75.75 0 0 0-1.5 0V.926l-1.22-1.22A.749.749 0 1 0-3.03.767l2.5 2.5a.747.747 0 0 0 1.06 0l2.5-2.5A.75.75 0 0 0 1.97-.294z" class="primary design" style="display:block" transform="translate(250 322.618) scale(20.83)"/></g><g clip-path="url(#d)" opacity="0" style="display:block"><path fill="none" class="primary design" style="display:none"/><path fill="none" class="primary design" style="display:none"/><path fill="none" class="primary design" style="display:none"/><path fill="none" class="primary design" style="display:none"/><path class="primary design" style="display:none"/><path class="primary design" style="display:none"/></g><g class="com" style="display:none"><path/><path/><path/><path/><path/><path/><path/><path/><path/><path/><path/><path/></g></g></svg>