<svg xmlns="http://www.w3.org/2000/svg" width="500" height="500" style="width:100%;height:100%;transform:translate3d(0,0,0);content-visibility:visible" viewBox="0 0 500 500"><defs><clipPath id="b"><path d="M0 0h500v500H0z"/></clipPath><clipPath id="d"><path d="M0 0h500v500H0z"/></clipPath><clipPath id="c"><path d="M0 0h500v500H0z"/></clipPath><mask id="e" mask-type="alpha"><use xmlns:ns1="http://www.w3.org/1999/xlink" ns1:href="#a"/></mask><g id="a" class="primary design" style="display:none"><path/><path/></g></defs><g clip-path="url(#b)"><g clip-path="url(#c)" style="display:block"><path fill="none" class="primary design" style="display:none"/><path fill="none" class="primary design" style="display:none"/><g fill="#121330" class="primary design" style="display:block"><path d="M415.808 217.727h25.907c8.644 0 15.651-7.007 15.651-15.65v-82.902c0-20.058-16.318-36.376-36.376-36.376H79.017c-20.059 0-36.377 16.318-36.377 36.376v82.902c0 8.643 7.007 15.65 15.651 15.65h25.907c17.084 0 30.982 13.899 30.982 30.983 0 8.249-3.23 16.023-9.091 21.885-5.869 5.867-13.643 9.098-21.891 9.098H58.291c-8.644 0-15.651 7.007-15.651 15.65v82.902c0 20.058 16.318 36.376 36.377 36.376H420.99c20.058 0 36.376-16.318 36.376-36.376v-82.902c0-8.643-7.007-15.65-15.651-15.65h-25.907c-17.084 0-30.982-13.899-30.982-30.983 0-8.248 3.23-16.022 9.093-21.888 5.868-5.865 13.641-9.095 21.889-9.095zm0 93.266h10.257v67.252c0 2.751-2.324 5.076-5.075 5.076H239.64v-42.378c0-8.582-6.962-15.545-15.544-15.545s-15.544 6.963-15.544 15.545v42.378H79.017c-2.752 0-5.076-2.325-5.076-5.076v-67.252h10.257c16.606 0 32.24-6.486 44.023-18.265 11.774-11.777 18.26-27.41 18.26-44.018 0-34.343-27.94-62.283-62.283-62.283H73.941v-67.252c0-2.751 2.324-5.076 5.076-5.076h129.535v42.388c0 8.582 6.962 15.544 15.544 15.544s15.544-6.962 15.544-15.544v-42.388h181.35c2.751 0 5.075 2.325 5.075 5.076v67.252h-10.257c-16.606 0-32.24 6.486-44.019 18.261l-.003.003c-11.775 11.778-18.261 27.411-18.261 44.019 0 34.343 27.94 62.283 62.283 62.283z"/><path d="M224.097 206.838c-8.582 0-15.544 6.962-15.544 15.544v52.644c0 8.582 6.962 15.554 15.544 15.554s15.544-6.972 15.544-15.554v-52.644c0-8.582-6.962-15.544-15.544-15.544z"/></g><g class="primary design" style="display:none"><path/><path/></g></g><g clip-path="url(#d)" opacity="0" style="display:block"><g mask="url(#e)" style="display:none"><path fill="none" class="primary design"/></g><g class="primary design" style="display:none"><path/><path/><path fill="none"/></g><g class="primary design" style="display:none"><path/><path/><path fill="none"/></g><g class="primary design" style="display:none"><path/><path/><path fill="none"/></g><path fill="none" class="primary design" style="display:none"/><g class="primary design" style="display:none"><path/><path/></g></g><g class="com" style="display:none"><path/><path/><path/><path/><path/><path/><path/><path/><path/><path/><path/><path/></g></g></svg>