<svg xmlns="http://www.w3.org/2000/svg" width="500" height="500" style="width:100%;height:100%;transform:translate3d(0,0,0);content-visibility:visible" viewBox="0 0 500 500"><defs><clipPath id="b"><path d="M0 0h500v500H0z"/></clipPath><clipPath id="d"><path d="M0 0h500v500H0z"/></clipPath><clipPath id="c"><path d="M0 0h500v500H0z"/></clipPath><mask id="e" mask-type="alpha"><use xmlns:ns1="http://www.w3.org/1999/xlink" ns1:href="#a"/></mask><g id="a" class="primary design" style="display:none"><path/><path fill-opacity="0" stroke-linecap="round" stroke-linejoin="round"/></g></defs><g clip-path="url(#b)"><g clip-path="url(#c)" style="display:block"><path fill="none" class="primary design" style="display:none"/><g fill="none" class="primary design" style="display:none"><path/><path/><path/><path/><path/><path/></g><path fill="#121330" d="M151.046-187.523H88.615c-.023 0-.045-.004-.068-.004-.023 0-.045.004-.068.004H-88.469c-.023 0-.045-.004-.068-.004-.023 0-.045.004-.068.004h-62.434c-20.117 0-36.483 16.366-36.483 36.483v302.085c0 20.117 16.366 36.484 36.483 36.484h302.085c20.117 0 36.484-16.367 36.484-36.484V-151.04c0-20.117-16.367-36.483-36.484-36.483zm-78.15 31.3v312.452H-72.887v-312.452H72.896zm-229.118 307.268V-151.04a5.189 5.189 0 0 1 5.183-5.183h46.851v312.452h-46.851a5.19 5.19 0 0 1-5.183-5.184zm312.451 0a5.19 5.19 0 0 1-5.183 5.184h-46.849v-312.452h46.849a5.189 5.189 0 0 1 5.183 5.183v302.085z" class="primary design" style="display:block" transform="translate(250 250)"/><path class="primary design" style="display:none"/></g><g clip-path="url(#d)" opacity="0" style="display:block"><path fill="none" class="primary design" style="display:none"/><g fill="none" class="primary design" mask="url(#e)" style="display:none"><path/><path/><path/><path/><path/><path/></g><g fill="none" class="primary design" style="display:none"><path/><path/><path/><path/><path/><path/></g><path class="primary design" style="display:none"/></g><g class="com" style="display:none"><path/><path/><path/><path/><path/><path/><path/><path/><path/><path/><path/><path/></g></g></svg>