<svg xmlns="http://www.w3.org/2000/svg" width="500" height="500" style="width:100%;height:100%;transform:translate3d(0,0,0);content-visibility:visible" viewBox="0 0 500 500"><defs><clipPath id="a"><path d="M0 0h500v500H0z"/></clipPath><clipPath id="c"><path d="M0 0h500v500H0z"/></clipPath><clipPath id="b"><path d="M0 0h500v500H0z"/></clipPath></defs><g clip-path="url(#a)"><g clip-path="url(#b)" style="display:block"><g fill="none" class="primary design" style="display:none"><path/><path/><path/><path/></g><path fill="#121330" d="M208.292-63.913c-.013-.145-.03-.289-.047-.433-.04-.339-.092-.675-.154-1.009-.026-.139-.047-.279-.076-.416-.09-.422-.197-.837-.321-1.247-.048-.158-.105-.312-.157-.468a16.564 16.564 0 0 0-.299-.816c-.068-.169-.136-.338-.209-.504-.134-.305-.28-.603-.433-.898-.06-.114-.115-.23-.177-.343a16.18 16.18 0 0 0-.64-1.055c-.081-.123-.167-.243-.252-.364a15.376 15.376 0 0 0-.587-.784c-.081-.101-.158-.203-.241-.302a15.517 15.517 0 0 0-.906-.997c-.027-.027-.057-.051-.084-.078a15.343 15.343 0 0 0-.914-.831c-.102-.086-.207-.169-.311-.253a15.843 15.843 0 0 0-.8-.598c-.111-.078-.219-.158-.332-.233a15.94 15.94 0 0 0-1.111-.675c-.124-.068-.255-.127-.381-.192-.203-.104-.404-.213-.613-.309L6.538-165.26a15.648 15.648 0 0 0-13.068 0l-192.71 88.542a15.649 15.649 0 0 0 0 28.441l63.8 29.314v128.345c0 2.746.423 5.489 1.259 8.162 9.293 33.945 73.943 49.148 134.181 49.148 60.235 0 124.887-15.2 134.189-49.145a27.296 27.296 0 0 0 1.261-8.165V-18.964l41.612-19.12V38c-9.562 6-9.374 18.972-9.374 18.972 0 .019.107.278.107.278 0 14.557 10.677 26.358 25.235 26.358s25.109-14.233 25.109-26.108c0-7.5-3.389-16.75-9.776-19.5V-62.497c0-.476-.029-.948-.071-1.416zm-104.143 172.65c-.051.175-.098.35-.143.527-.41 1.607-6.328 9.015-27.788 15.887C55.594 131.755 28.526 135.392 0 135.392c-28.526 0-55.594-3.636-76.216-10.24-21.456-6.871-27.369-14.275-27.778-15.881a14.028 14.028 0 0 0-.146-.534V-4.582l97.61 44.847a15.645 15.645 0 0 0 13.068 0l97.611-44.848v113.32zM.004 8.822l-155.225-71.319L.004-133.817l155.224 71.32L.004 8.822z" class="primary design" style="display:block" transform="translate(250 250)"/><path class="primary design" style="display:none"/></g><g clip-path="url(#c)" opacity="0" style="display:block"><path fill="none" class="primary design" style="display:none"/><path fill="none" class="primary design" style="display:none"/><g fill="none" class="primary design" style="display:none"><path/><path/></g><path class="primary design" style="display:none"/></g><g class="com" style="display:none"><path/><path/><path/><path/><path/><path/><path/><path/><path/><path/><path/><path/></g></g></svg>