<svg xmlns="http://www.w3.org/2000/svg" width="500" height="500" style="width:100%;height:100%;transform:translate3d(0,0,0);content-visibility:visible" viewBox="0 0 500 500"><defs><clipPath id="a"><path d="M0 0h500v500H0z"/></clipPath><clipPath id="c"><path d="M0 0h500v500H0z"/></clipPath><clipPath id="b"><path d="M0 0h500v500H0z"/></clipPath></defs><g clip-path="url(#a)"><g clip-path="url(#b)" style="display:block"><g fill="#121330" class="primary design" style="display:block"><path d="M442.707 83.309H57.289c-8.644 0-15.65 7.007-15.65 15.65v239.583c0 8.643 7.006 15.65 15.65 15.65h109.35v31.201H98.962c-8.644 0-15.651 7.007-15.651 15.65s7.007 15.65 15.651 15.65h302.084c8.644 0 15.65-7.007 15.65-15.65s-7.006-15.65-15.65-15.65h-67.69v-31.201h109.351c8.644 0 15.65-7.007 15.65-15.65V98.959c0-8.643-7.006-15.65-15.65-15.65zM302.056 385.393H197.939v-31.201h104.117v31.201zm125.001-62.501H72.939V114.609h354.118v208.283z"/><path d="M354.899 274.837c.131.65.302 1.309.491 1.949.2.63.419 1.27.679 1.89.25.61.541 1.22.861 1.81.311.59.66 1.17 1.02 1.72.369.56.779 1.11 1.199 1.62a19.25 19.25 0 0 0 2.851 2.85c.52.43 1.059.831 1.62 1.201.55.37 1.13.709 1.72 1.029.59.31 1.2.6 1.82.85.609.26 1.25.49 1.89.68.63.2 1.29.36 1.94.49.659.14 1.329.24 1.989.3.67.07 1.351.111 2.021.111.67 0 1.35-.041 2.02-.111.66-.06 1.33-.16 1.98-.3.66-.13 1.309-.29 1.95-.49.64-.19 1.27-.42 1.89-.68.62-.25 1.229-.54 1.809-.85.591-.32 1.17-.659 1.731-1.029.56-.37 1.099-.771 1.62-1.201.52-.42 1.019-.88 1.49-1.35a19.567 19.567 0 0 0 2.55-3.12c.37-.55.719-1.13 1.029-1.72.311-.59.601-1.2.861-1.81.25-.62.48-1.26.679-1.89.19-.64.361-1.299.491-1.949.13-.66.23-1.331.299-1.991.07-.67.101-1.35.101-2.02 0-.66-.031-1.339-.101-2.009a21.872 21.872 0 0 0-.299-1.991c-.13-.65-.301-1.309-.491-1.949a26.2 26.2 0 0 0-.679-1.891c-.26-.61-.55-1.22-.861-1.81-.31-.59-.659-1.17-1.029-1.72a19.567 19.567 0 0 0-2.55-3.119c-.471-.47-.97-.931-1.49-1.351a18.98 18.98 0 0 0-1.62-1.2c-.561-.37-1.14-.71-1.731-1.03-.58-.31-1.189-.6-1.809-.85-.62-.26-1.25-.49-1.89-.68-.641-.2-1.29-.36-1.95-.49-.65-.14-1.32-.24-1.98-.3-1.34-.14-2.701-.14-4.041 0-.66.06-1.33.16-1.989.3-.65.13-1.31.29-1.94.49-.64.19-1.281.42-1.89.68-.62.25-1.23.54-1.82.85-.59.32-1.17.66-1.72 1.03-.561.37-1.1.77-1.62 1.2a19.25 19.25 0 0 0-2.851 2.851c-.42.51-.83 1.059-1.199 1.619-.36.55-.709 1.13-1.02 1.72-.32.59-.611 1.2-.861 1.81-.26.62-.479 1.261-.679 1.891-.189.64-.36 1.299-.491 1.949-.13.66-.229 1.321-.299 1.991-.069.67-.1 1.349-.1 2.009 0 .67.031 1.35.1 2.02.07.66.169 1.331.299 1.991z"/></g><g fill="none" class="primary design" style="display:none"><path/><path/><path/><path/><path/></g><g class="primary design" style="display:none"><path/><path/></g><g class="primary design" style="display:none"><path/><path fill="none"/></g></g><g clip-path="url(#c)" opacity="0" style="display:block"><g fill="none" class="primary design" style="display:none"><path/><path/><path/><path/><path/></g><g class="primary design" style="display:none"><path/><path/></g></g><g class="com" style="display:none"><path/><path/><path/><path/><path/><path/><path/><path/><path/><path/><path/><path/></g></g></svg>