<svg xmlns="http://www.w3.org/2000/svg" width="500" height="500" style="width:100%;height:100%;transform:translate3d(0,0,0);content-visibility:visible" viewBox="0 0 500 500"><defs><clipPath id="a"><path d="M0 0h500v500H0z"/></clipPath><clipPath id="d"><path d="M0 0h500v500H0z"/></clipPath><clipPath id="c"><path d="M0 0h500v500H0z"/></clipPath><clipPath id="b"><path d="M0 0h500v500H0z"/></clipPath></defs><g clip-path="url(#a)"><g clip-path="url(#b)" opacity="0" style="display:block"><path fill="#121330" d="M8.25-5H-.54l-1.29-2.59A.76.76 0 0 0-2.5-8h-6.75c-.41 0-.75.34-.75.75v13.5C-10 7.21-9.21 8-8.25 8h16.5C9.21 8 10 7.21 10 6.25v-9.5C10-4.21 9.21-5 8.25-5zM8.5 6.25c0 .14-.11.25-.25.25h-16.5c-.14 0-.25-.11-.25-.25V-6.5h5.54l1.29 2.59c.13.25.39.41.67.41h9.25c.14 0 .25.11.25.25v9.5z" class="primary design" opacity="1" style="display:block" transform="translate(250.002 250.002) scale(20.83)"/><path fill="none" class="primary design" style="display:none"/><path fill="none" class="primary design" style="display:none"/></g><g clip-path="url(#c)" style="display:block"><path fill="#121330" d="M8.25-5H-.54l-1.29-2.59A.76.76 0 0 0-2.5-8h-6.75c-.41 0-.75.34-.75.75v13.5C-10 7.21-9.21 8-8.25 8h16.5C9.21 8 10 7.21 10 6.25v-9.5C10-4.21 9.21-5 8.25-5zM8.5 6.25c0 .14-.11.25-.25.25h-16.5c-.14 0-.25-.11-.25-.25V-6.5h5.54l1.29 2.59c.13.25.39.41.67.41h9.25c.14 0 .25.11.25.25v9.5z" class="primary design" style="display:block" transform="translate(250.002 250.002) scale(20.83)"/><path class="primary design" style="display:none"/><path fill="none" class="primary design" style="display:none"/><path fill="none" class="primary design" style="display:none"/></g><g clip-path="url(#d)" opacity="0" style="display:block"><path class="primary design" style="display:none"/><path fill="none" class="primary design" style="display:none"/><path fill="none" class="primary design" style="display:none"/></g><g class="com" style="display:none"><path/><path/><path/><path/><path/><path/><path/><path/><path/><path/><path/><path/></g></g></svg>