<svg xmlns="http://www.w3.org/2000/svg" width="500" height="500" style="width:100%;height:100%;transform:translate3d(0,0,0);content-visibility:visible" viewBox="0 0 500 500"><defs><clipPath id="a"><path d="M0 0h500v500H0z"/></clipPath><clipPath id="f"><path d="M0 0h500v500H0z"/></clipPath><clipPath id="e"><path d="M0 0h500v500H0z"/></clipPath><clipPath id="d"><path d="M0 0h500v500H0z"/></clipPath><clipPath id="c"><path d="M0 0h500v500H0z"/></clipPath><clipPath id="b"><path d="M0 0h500v500H0z"/></clipPath></defs><g clip-path="url(#a)"><g clip-path="url(#b)" opacity="0" style="display:block"><path fill="#121330" d="M129.616 185.175c-2.66 0-5.333-.183-8.001-.554A359.43 359.43 0 0 1 9.071 149.506c-34.521-17.4-65.93-40.131-93.36-67.56-27.429-27.429-50.159-58.839-67.559-93.36a359.404 359.404 0 0 1-35.115-112.544 58.007 58.007 0 0 1 13.706-46.089 57.676 57.676 0 0 1 43.508-19.823h68.655a36.607 36.607 0 0 1 36.102 30.289l8.069 45.722c3.855 21.851-5.353 44.256-23.459 57.081l-6.573 4.656c25.149 38.341 58.333 71.281 97.082 96.364l4.301-6.097c12.817-18.172 35.251-27.415 57.148-23.553l45.665 8.06a36.606 36.606 0 0 1 30.289 36.101v68.655a57.676 57.676 0 0 1-19.826 43.509 58 58 0 0 1-38.088 14.258zm-259.365-343.746c-7.737 0-14.805 3.223-19.901 9.077a26.72 26.72 0 0 0-6.311 21.229c20.247 145.721 136.162 261.636 281.885 281.884a26.702 26.702 0 0 0 21.227-6.309c5.854-5.097 9.078-12.164 9.078-19.902V58.753a5.35 5.35 0 0 0-4.426-5.277l-.001-.001-45.665-8.059c-10.02-1.764-20.271 2.461-26.131 10.769L67.225 74.307c-4.69 6.65-13.697 8.597-20.717 4.473C-6.223 47.801-50.489 3.834-81.503-48.365c-4.167-7.012-2.248-16.049 4.408-20.764l18.621-13.19c8.279-5.865 12.491-16.109 10.727-26.1l-8.069-45.723a5.352 5.352 0 0 0-5.278-4.429h-68.655z" class="primary design" opacity="1" style="display:block" transform="translate(250 250)"/><path fill="none" class="primary design" style="display:none"/><path class="primary design" style="display:none"/></g><g clip-path="url(#c)" opacity="0" style="display:block"><path class="primary design" style="display:none"/><path fill="none" class="primary design" style="display:none"/><path fill="#121330" d="M-141.876 105.129a35.477 35.477 0 0 1-25.129-10.424v-.001L-212.96 48.75a55.44 55.44 0 0 1-16.096-43.041 55.741 55.741 0 0 1 22.005-40.632 341.067 341.067 0 0 1 99.08-51.954C-73.133-98.364-36.805-104.189.004-104.189c36.808 0 73.136 5.825 107.974 17.312a341.074 341.074 0 0 1 99.079 51.954A55.746 55.746 0 0 1 229.063 5.71a55.44 55.44 0 0 1-16.095 43.04l-45.955 45.955a35.489 35.489 0 0 1-45.51 3.984L85.497 73.485C68.026 61.256 59.057 39.771 62.646 18.75l1.148-6.72c-41.88-8.587-85.461-8.425-127.565.475l1.067 6.167c3.639 21.061-5.323 42.589-22.832 54.845l-35.96 25.172a35.463 35.463 0 0 1-20.38 6.44zM.003-72.777c-66.39 0-132.78 20.94-188.178 62.821a24.457 24.457 0 0 0-9.655 17.824c-.49 7.085 1.997 13.744 7.003 18.749l45.955 45.955v.001a4.23 4.23 0 0 0 5.427.474l35.96-25.172c7.621-5.335 11.522-14.705 9.937-23.873l-3.574-20.683c-1.386-8.021 3.608-15.765 11.486-17.812 56.168-14.594 115.371-14.795 171.206-.581 7.905 2.012 12.939 9.759 11.566 17.8L93.5 24.018c-1.562 9.15 2.342 18.502 9.946 23.825l36.007 25.205a4.235 4.235 0 0 0 5.428-.476l45.954-45.955c5.006-5.005 7.492-11.664 7.003-18.748a24.456 24.456 0 0 0-9.657-17.824C132.784-51.836 66.393-72.777.003-72.777z" class="primary design" opacity="1" style="display:block" transform="translate(250 250)"/></g><g clip-path="url(#d)" style="display:block"><path fill="#121330" d="M-141.876 105.129a35.477 35.477 0 0 1-25.129-10.424v-.001L-212.96 48.75a55.44 55.44 0 0 1-16.096-43.041 55.741 55.741 0 0 1 22.005-40.632 341.067 341.067 0 0 1 99.08-51.954C-73.133-98.364-36.805-104.189.004-104.189c36.808 0 73.136 5.825 107.974 17.312a341.074 341.074 0 0 1 99.079 51.954A55.746 55.746 0 0 1 229.063 5.71a55.44 55.44 0 0 1-16.095 43.04l-45.955 45.955a35.489 35.489 0 0 1-45.51 3.984L85.497 73.485C68.026 61.256 59.057 39.771 62.646 18.75l1.148-6.72c-41.88-8.587-85.461-8.425-127.565.475l1.067 6.167c3.639 21.061-5.323 42.589-22.832 54.845l-35.96 25.172a35.463 35.463 0 0 1-20.38 6.44zM.003-72.777c-66.39 0-132.78 20.94-188.178 62.821a24.457 24.457 0 0 0-9.655 17.824c-.49 7.085 1.997 13.744 7.003 18.749l45.955 45.955v.001a4.23 4.23 0 0 0 5.427.474l35.96-25.172c7.621-5.335 11.522-14.705 9.937-23.873l-3.574-20.683c-1.386-8.021 3.608-15.765 11.486-17.812 56.168-14.594 115.371-14.795 171.206-.581 7.905 2.012 12.939 9.759 11.566 17.8L93.5 24.018c-1.562 9.15 2.342 18.502 9.946 23.825l36.007 25.205a4.235 4.235 0 0 0 5.428-.476l45.954-45.955c5.006-5.005 7.492-11.664 7.003-18.748a24.456 24.456 0 0 0-9.657-17.824C132.784-51.836 66.393-72.777.003-72.777z" class="primary design" style="display:block" transform="translate(250 250)"/></g><g clip-path="url(#e)" opacity="0" style="display:block"><path fill="#121330" d="M-141.876 105.129a35.477 35.477 0 0 1-25.129-10.424v-.001L-212.96 48.75a55.44 55.44 0 0 1-16.096-43.041 55.741 55.741 0 0 1 22.005-40.632 341.067 341.067 0 0 1 99.08-51.954C-73.133-98.364-36.805-104.189.004-104.189c36.808 0 73.136 5.825 107.974 17.312a341.074 341.074 0 0 1 99.079 51.954A55.746 55.746 0 0 1 229.063 5.71a55.44 55.44 0 0 1-16.095 43.04l-45.955 45.955a35.489 35.489 0 0 1-45.51 3.984L85.497 73.485C68.026 61.256 59.057 39.771 62.646 18.75l1.148-6.72c-41.88-8.587-85.461-8.425-127.565.475l1.067 6.167c3.639 21.061-5.323 42.589-22.832 54.845l-35.96 25.172a35.463 35.463 0 0 1-20.38 6.44zM.003-72.777c-66.39 0-132.78 20.94-188.178 62.821a24.457 24.457 0 0 0-9.655 17.824c-.49 7.085 1.997 13.744 7.003 18.749l45.955 45.955v.001a4.23 4.23 0 0 0 5.427.474l35.96-25.172c7.621-5.335 11.522-14.705 9.937-23.873l-3.574-20.683c-1.386-8.021 3.608-15.765 11.486-17.812 56.168-14.594 115.371-14.795 171.206-.581 7.905 2.012 12.939 9.759 11.566 17.8L93.5 24.018c-1.562 9.15 2.342 18.502 9.946 23.825l36.007 25.205a4.235 4.235 0 0 0 5.428-.476l45.954-45.955c5.006-5.005 7.492-11.664 7.003-18.748a24.456 24.456 0 0 0-9.657-17.824C132.784-51.836 66.393-72.777.003-72.777z" class="primary design" opacity="1" style="display:block" transform="translate(250 250)"/><path fill="none" class="primary design" style="display:none"/><path fill="none" class="primary design" style="display:none"/><path fill="none" class="primary design" style="display:none"/></g><g clip-path="url(#f)" opacity="0" style="display:block"><path class="primary design" style="display:none"/><path fill="none" class="primary design" style="display:none"/></g><g class="com" style="display:none"><path/><path/><path/><path/><path/><path/><path/><path/><path/><path/><path/><path/></g></g></svg>