<svg xmlns="http://www.w3.org/2000/svg" width="500" height="500" style="width:100%;height:100%;transform:translate3d(0,0,0);content-visibility:visible" viewBox="0 0 500 500"><defs><clipPath id="d"><path d="M0 0h500v500H0z"/></clipPath><clipPath id="f"><path d="M0 0h500v500H0z"/></clipPath><clipPath id="c"><path d="M0 0h500v500H0z"/></clipPath><clipPath id="e"><path d="M0 0h500v500H0z"/></clipPath><filter id="a" width="100%" height="100%" x="0%" y="0%" filterUnits="objectBoundingBox"><feComponentTransfer in="SourceGraphic"><feFuncA tableValues="1.0 0.0" type="table"/></feComponentTransfer></filter><mask id="g" mask-type="alpha"><g filter="url(#a)"><path fill="#fff" d="M0 0h500v500H0z" opacity="0"/><use xmlns:ns1="http://www.w3.org/1999/xlink" ns1:href="#b"/></g></mask><g id="b" clip-path="url(#c)" style="display:none"><g class="primary design" style="display:none"><path fill-opacity="0" stroke-linecap="round" stroke-linejoin="round"/><path/></g><g class="primary design" style="display:none"><path fill-opacity="0" stroke-linecap="round" stroke-linejoin="round"/><path/></g><g class="primary design" style="display:none"><path fill-opacity="0" stroke-linecap="round" stroke-linejoin="round"/><path/></g><g class="primary design" style="display:none"><path fill-opacity="0" stroke-linecap="round" stroke-linejoin="round"/><path/></g></g></defs><g clip-path="url(#d)"><g clip-path="url(#e)" style="display:block"><path fill="#121330" d="m174.048 89.888-6.483-5.665c13.084-26.011 19.956-54.866 19.956-84.22 0-29.353-6.873-58.208-19.956-84.219l6.482-5.665a15.648 15.648 0 0 0 3.003-20.028c-16.808-27.118-40.025-50.335-67.14-67.141a15.65 15.65 0 0 0-20.028 3.003l-5.66 6.476C58.21-180.655 29.354-187.527 0-187.527c-29.351 0-58.207 6.872-84.226 19.955l-5.66-6.475c-5.041-5.767-13.516-7.041-20.027-3.003-27.116 16.806-50.333 40.023-67.142 67.141a15.648 15.648 0 0 0 3.003 20.028l6.478 5.662C-180.658-58.207-187.53-29.351-187.53.003c0 29.354 6.872 58.21 19.956 84.222l-6.478 5.662a15.648 15.648 0 0 0-3.003 20.028c16.81 27.119 40.027 50.335 67.142 67.14a15.6 15.6 0 0 0 8.236 2.349c4.391 0 8.727-1.845 11.791-5.351l5.66-6.476C-58.207 180.66-29.351 187.533 0 187.533c29.354 0 58.211-6.873 84.224-19.957l5.665 6.478a15.637 15.637 0 0 0 11.789 5.349c2.83 0 5.683-.766 8.235-2.347 27.103-16.793 50.319-40.009 67.138-67.137a15.65 15.65 0 0 0-3.003-20.031zM156.22.003c0 21.727-4.509 43.121-13.151 62.808L100.79 25.852c.161-.652.319-1.314.471-1.99 1.943-7.616 2.929-15.642 2.929-23.859 0-8.217-.986-16.244-2.929-23.86a91.75 91.75 0 0 0-.472-1.994l42.265-36.941A156.287 156.287 0 0 1 156.22.003zM25.503 67.997a15.51 15.51 0 0 0-.957.383c-2.091.917-4.615 1.695-7.719 2.382-.179.04-.356.083-.534.129-5.066 1.31-10.7 2.002-16.293 2.002-5.673 0-11.154-.674-16.293-2.002a16.593 16.593 0 0 0-.534-.129c-3.104-.687-5.638-1.468-7.744-2.389a16.145 16.145 0 0 0-.845-.337c-.032-.012-.06-.029-.092-.04A70.825 70.825 0 0 1-48.754 54.09a70.728 70.728 0 0 1-19.24-28.584 15.509 15.509 0 0 0-.383-.957c-.917-2.091-1.696-4.616-2.383-7.719-.04-.179-.082-.356-.128-.534-1.311-5.066-2.002-10.7-2.002-16.293 0-5.672.673-11.154 2.002-16.293.046-.178.088-.356.128-.535.687-3.103 1.466-5.628 2.383-7.719.138-.314.266-.633.383-.956a70.684 70.684 0 0 1 21.678-30.658 70.906 70.906 0 0 1 20.809-11.834c.021-.008.039-.018.06-.026.295-.108.588-.223.876-.349 2.106-.921 4.64-1.703 7.744-2.39.179-.04.356-.082.534-.128 5.139-1.328 10.62-2.002 16.293-2.002 5.593 0 11.227.692 16.293 2.002.178.046.355.088.534.128 3.104.687 5.628 1.466 7.719 2.383.314.138.634.265.957.382 19.826 7.179 35.312 22.665 42.487 42.487.008.022.02.044.028.066.111.302.23.601.359.895.917 2.091 1.696 4.616 2.383 7.719.04.179.082.357.128.535C72.217-11.151 72.89-5.669 72.89.003c0 5.593-.691 11.227-2.002 16.293-.046.178-.088.355-.128.534-.687 3.103-1.466 5.628-2.383 7.719a15.51 15.51 0 0 0-.383.957c-7.177 19.826-22.665 35.313-42.491 42.491zm117.563-172.37-5.741 5.018-.092.08-49.515 43.278c-.044-.07-.091-.138-.135-.208-.323-.508-.654-1.01-.985-1.512-.183-.277-.362-.556-.547-.831-.345-.511-.698-1.016-1.051-1.52-.182-.259-.361-.522-.545-.779a101.09 101.09 0 0 0-1.127-1.538c-.176-.237-.348-.475-.526-.71-.404-.534-.818-1.061-1.232-1.587-.161-.204-.318-.411-.481-.614-.446-.557-.901-1.105-1.358-1.652-.139-.167-.276-.336-.416-.502a100.677 100.677 0 0 0-1.576-1.812c-.085-.095-.167-.193-.252-.288a101.651 101.651 0 0 0-7.932-7.932c-.116-.104-.235-.205-.352-.308a101.103 101.103 0 0 0-1.747-1.52c-.185-.157-.375-.309-.561-.464-.526-.439-1.053-.878-1.589-1.307-.226-.181-.457-.356-.685-.535-.503-.396-1.006-.792-1.516-1.178-.253-.192-.511-.378-.766-.567-.492-.365-.984-.73-1.483-1.087-.275-.197-.555-.388-.832-.582-.486-.34-.971-.679-1.463-1.011-.293-.198-.592-.389-.887-.584-.484-.319-.968-.638-1.458-.949l-.22-.143 48.378-55.35a177.941 177.941 0 0 1 38.692 38.694zM0-156.227c21.725 0 43.111 4.527 62.797 13.167l-36.948 42.273a99.21 99.21 0 0 0-1.99-.471c-7.616-1.944-15.642-2.929-23.859-2.929-8.217 0-16.243.985-23.859 2.929a93.06 93.06 0 0 0-1.993.471l-36.949-42.273A156.324 156.324 0 0 1 0-156.227zm-104.378 13.16 4.88 5.584c.074.084.146.17.221.252L-56-87.717l-.193.125c-.525.333-1.043.674-1.561 1.016-.264.174-.529.346-.791.522-.518.349-1.031.706-1.542 1.065-.253.178-.509.352-.761.532-.514.367-1.021.744-1.527 1.12-.243.181-.489.357-.73.54-.509.385-1.01.78-1.511 1.174-.232.182-.466.361-.696.545-.511.409-1.014.828-1.517 1.247-.213.177-.428.35-.639.529-.525.445-1.043.899-1.559 1.355-.181.16-.366.317-.546.478-.573.514-1.138 1.037-1.7 1.563-.117.109-.237.216-.353.326a101.942 101.942 0 0 0-3.946 3.945c-.223.235-.438.477-.659.715-.409.44-.819.879-1.22 1.326-.284.317-.559.641-.839.961-.328.376-.659.749-.982 1.129-.302.356-.596.719-.893 1.079-.292.354-.588.706-.875 1.064-.306.381-.603.77-.904 1.156-.268.344-.538.685-.802 1.033-.307.405-.606.816-.907 1.226-.248.337-.498.672-.742 1.012-.303.423-.598.852-.894 1.279-.232.335-.467.668-.695 1.006-.297.44-.587.885-.877 1.33-.217.333-.436.663-.65.999-.069.108-.142.214-.211.323l-55.349-48.376a177.923 177.923 0 0 1 38.693-38.694zM-156.229.003c0-21.725 4.527-43.111 13.167-62.798l42.272 36.947a97.717 97.717 0 0 0-.471 1.991c-1.943 7.616-2.929 15.643-2.929 23.86 0 8.217.986 16.243 2.929 23.859.152.677.31 1.338.471 1.991L-143.062 62.8A156.297 156.297 0 0 1-156.229.003zm13.158 104.376 55.349-48.377c.067.105.137.208.204.313.223.351.453.697.68 1.045.281.43.561.861.848 1.286.239.353.484.701.727 1.051.286.413.57.827.862 1.235.255.357.518.707.778 1.06.289.393.576.789.871 1.178.276.364.56.722.841 1.082.289.37.574.743.868 1.109.301.375.609.743.915 1.113.284.344.564.691.852 1.031.342.404.693.8 1.042 1.198.26.297.516.597.779.891.441.492.892.976 1.342 1.459.18.193.355.39.536.581a101.145 101.145 0 0 0 3.957 3.957c.069.066.141.129.21.194.608.572 1.223 1.14 1.845 1.697.144.129.291.252.435.38.552.489 1.107.976 1.67 1.453.182.154.367.302.55.455.533.445 1.066.888 1.608 1.322.202.162.409.319.612.479.529.417 1.059.833 1.597 1.24.216.163.436.322.653.484.532.396 1.066.791 1.606 1.177.226.161.456.317.683.477.537.377 1.076.754 1.621 1.121.238.16.479.315.718.473.542.359 1.086.716 1.635 1.064l.177.115-43.281 49.518c-.036.039-.069.081-.104.12l-4.993 5.712a177.941 177.941 0 0 1-38.693-38.693zM0 156.233a156.325 156.325 0 0 1-62.801-13.168l36.948-42.273c.654.162 1.317.319 1.994.471 7.616 1.944 15.642 2.93 23.859 2.93 8.217 0 16.243-.986 23.859-2.93a97.495 97.495 0 0 0 1.989-.47l36.963 42.288C43.123 151.724 21.729 156.233 0 156.233zm104.377-13.159-4.856-5.553-.001-.002-43.524-49.795c.086-.054.169-.112.255-.166.435-.276.865-.56 1.295-.843.35-.23.703-.458 1.05-.692.429-.29.853-.586 1.277-.882.34-.237.681-.471 1.018-.712.425-.304.844-.616 1.264-.927.328-.243.66-.482.985-.728.422-.32.838-.649 1.255-.975.315-.246.632-.489.944-.739.426-.341.844-.691 1.264-1.039.295-.244.593-.485.885-.733.442-.375.877-.758 1.313-1.141.261-.229.526-.454.785-.686.494-.443.98-.896 1.465-1.348.193-.18.39-.355.581-.536a100.47 100.47 0 0 0 3.944-3.944c.159-.168.312-.341.47-.51.475-.509.95-1.019 1.415-1.538.213-.238.42-.483.631-.723.401-.457.805-.912 1.198-1.376.231-.272.455-.551.683-.826.365-.44.731-.879 1.089-1.325.235-.293.464-.592.696-.888.341-.436.684-.87 1.018-1.311.237-.312.467-.631.7-.946.32-.432.641-.863.954-1.301.234-.328.461-.66.692-.991.302-.433.605-.866.901-1.304.232-.344.457-.691.685-1.038.284-.432.569-.863.846-1.3l.167-.256 49.789 43.525a.247.247 0 0 1 .002.002l5.555 4.855a177.9 177.9 0 0 1-38.69 38.692z" class="primary design" style="display:block" transform="translate(250 250)"/></g><g clip-path="url(#f)" opacity="0" style="display:block"><path class="primary design" style="display:none"/><path fill="none" class="primary design" style="display:none"/><g mask="url(#g)" style="display:none"><path fill="none" class="primary design"/></g><path fill="none" class="primary design" style="display:none"/><path fill="none" class="primary design" style="display:none"/><path fill="none" class="primary design" style="display:none"/><path fill="none" class="primary design" style="display:none"/></g><g class="com" style="display:none"><path/><path/><path/><path/><path/><path/><path/><path/><path/><path/><path/><path/></g></g></svg>