<svg xmlns="http://www.w3.org/2000/svg" width="500" height="500" style="width:100%;height:100%;transform:translate3d(0,0,0);content-visibility:visible" viewBox="0 0 500 500"><defs><clipPath id="a"><path d="M0 0h500v500H0z"/></clipPath><clipPath id="c"><path d="M0 0h500v500H0z"/></clipPath><clipPath id="b"><path d="M0 0h500v500H0z"/></clipPath></defs><g clip-path="url(#a)"><g fill="#121330" clip-path="url(#b)" style="display:block"><path d="M14.399-166.692h-28.798c-31.604 0-57.318 25.713-57.318 57.317v218.75c0 31.604 25.714 57.317 57.318 57.317h70.465c8.644 0 15.651-7.007 15.651-15.65V34.621c0-8.643-7.007-15.65-15.651-15.65H5.209c-8.644 0-15.65 7.007-15.65 15.65s7.006 15.65 15.65 15.65h35.207v85.122h-54.815c-14.346 0-26.017-11.672-26.017-26.018v-218.75c0-14.346 11.671-26.018 26.017-26.018h28.798c14.346 0 26.017 11.672 26.017 26.018v12.254c0 8.643 7.006 15.65 15.65 15.65s15.651-7.007 15.651-15.65v-12.254c0-31.604-25.714-57.317-57.318-57.317z" class="primary design" style="display:block" transform="translate(123.778 250.003)"/><path d="M260.42 83.311c-8.644 0-15.65 7.007-15.65 15.65v302.084c0 8.643 7.006 15.65 15.65 15.65s15.65-7.007 15.65-15.65V98.961c0-8.643-7.006-15.65-15.65-15.65zm135.417 166.692" class="primary design" style="display:block"/><path d="M46.875-31.275h-78.099v-104.118h78.099c8.644 0 15.651-7.006 15.651-15.649 0-8.643-7.007-15.65-15.651-15.65h-93.75c-8.644 0-15.65 7.007-15.65 15.65v135.398l-.001.019.001.019v166.648c0 8.643 7.006 15.65 15.65 15.65s15.651-7.007 15.651-15.65V.025h78.099c8.644 0 15.65-7.007 15.65-15.65s-7.006-15.65-15.65-15.65z" class="primary design" style="display:block" transform="translate(395.838 250.003)"/></g><g clip-path="url(#c)" opacity="0" style="display:block"><g class="primary design" style="display:none"><path/><path/><path/></g><path fill="none" class="primary design" style="display:none"/><path fill="none" class="primary design" style="display:none"/><g fill="none" class="primary design" style="display:none"><path/><path/></g></g><g class="com" style="display:none"><path/><path/><path/><path/><path/><path/><path/><path/><path/><path/><path/><path/></g></g></svg>