<svg xmlns="http://www.w3.org/2000/svg" width="500" height="500" style="width:100%;height:100%;transform:translate3d(0,0,0);content-visibility:visible" viewBox="0 0 500 500"><defs><clipPath id="a"><path d="M0 0h500v500H0z"/></clipPath><clipPath id="c"><path d="M0 0h500v500H0z"/></clipPath><clipPath id="b"><path d="M0 0h500v500H0z"/></clipPath></defs><g clip-path="url(#a)"><g clip-path="url(#b)" style="display:block"><g fill="none" class="primary design" style="display:none"><path/><path/></g><path fill="#121330" d="M171.88-187.523H78.13c-.588 0-1.167.039-1.739.102a15.862 15.862 0 0 0-1.739-.102h-181.119c-27.228 0-50.865 19.378-56.203 46.077l-24.997 124.999c-3.38 16.904.95 34.246 11.88 47.578 10.93 13.332 27.086 20.977 44.325 20.977h76.318l-16.733 62.153c-4.741 17.611-1.098 36.013 9.996 50.489 11.095 14.476 27.917 22.779 46.155 22.779h.106a15.65 15.65 0 0 0 12.867-6.742L86.33 52.113h85.55c8.644 0 15.65-7.007 15.65-15.65v-208.336c0-8.643-7.006-15.65-15.65-15.65zM-23.114 155.209c-5.479-1.553-10.346-4.83-13.923-9.498-5.123-6.684-6.804-15.181-4.615-23.313l22.042-81.871a15.65 15.65 0 0 0-15.113-19.719h-96.739a25.925 25.925 0 0 1-20.12-9.522 25.922 25.922 0 0 1-5.392-21.596l24.996-124.998c2.423-12.119 13.152-20.915 25.511-20.915H62.479V31.575l-85.593 123.634zM156.229 20.813H93.78v-177.036h62.449V20.813z" class="primary design" style="display:block" transform="translate(250 250)"/><path class="primary design" style="display:none"/></g><g clip-path="url(#c)" opacity="0" style="display:block"><path class="primary design" style="display:none"/><g fill="none" class="primary design" style="display:none"><path/><path/></g></g><g class="com" style="display:none"><path/><path/><path/><path/><path/><path/><path/><path/><path/><path/><path/><path/></g></g></svg>