<svg xmlns="http://www.w3.org/2000/svg" width="500" height="500" style="width:100%;height:100%;transform:translate3d(0,0,0);content-visibility:visible" viewBox="0 0 500 500"><defs><clipPath id="a"><path d="M0 0h500v500H0z"/></clipPath><clipPath id="e"><path d="M0 0h500v500H0z"/></clipPath><clipPath id="d"><path d="M0 0h500v500H0z"/></clipPath><clipPath id="c"><path d="M0 0h500v500H0z"/></clipPath><clipPath id="b"><path d="M0 0h500v500H0z"/></clipPath></defs><g clip-path="url(#a)"><g clip-path="url(#b)" opacity="0" style="display:block"><path fill="none" class="primary design" style="display:none"/><path fill="#121330" d="M.004 208.362a15.653 15.653 0 0 1-11.973-5.571l-116.46-138.334c-17.468-21.01-29.402-45.888-34.586-72.03-2.473-10.875-3.674-22.029-3.674-34.091 0-91.915 74.778-166.692 166.693-166.692 91.914 0 166.692 74.777 166.692 166.692 0 12.065-1.202 23.218-3.674 34.088-5.182 26.145-17.117 51.021-34.525 71.959L11.977 202.791a15.653 15.653 0 0 1-11.973 5.571zm0-385.419c-74.656 0-135.393 60.737-135.393 135.393 0 9.768.961 18.71 2.938 27.338.036.158.069.317.101.476 4.149 21.105 13.807 41.238 27.928 58.223L.004 168.412 104.49 44.299c14.061-16.911 23.718-37.044 27.866-58.149.032-.16.066-.319.102-.478 1.978-8.624 2.938-17.565 2.938-27.336 0-74.656-60.737-135.393-135.392-135.393z" class="primary design" opacity="1" style="display:block" transform="translate(250 250)"/><path fill="#121330" d="M.004 41.694c-45.964 0-83.359-37.394-83.359-83.358 0-45.964 37.395-83.358 83.359-83.358 45.964 0 83.358 37.394 83.358 83.358C83.362 4.3 45.968 41.694.004 41.694zm0-135.417c-28.705 0-52.059 23.354-52.059 52.059S-28.701 10.395.004 10.395s52.058-23.354 52.058-52.059S28.709-93.723.004-93.723z" class="primary design" opacity="1" style="display:block" transform="translate(250 250)"/><path class="primary design" style="display:none"/><path class="primary design" style="display:none"/></g><g clip-path="url(#c)" opacity="0" style="display:block"><path fill="none" class="primary design" style="display:none"/><g class="primary design" style="display:none"><path/><path fill="none"/></g><g class="primary design" style="display:none"><path/><path fill="none"/></g><path fill="#121330" d="M.004 208.362a15.653 15.653 0 0 1-11.973-5.571l-116.46-138.334c-17.468-21.01-29.402-45.888-34.586-72.03-2.473-10.875-3.674-22.029-3.674-34.091 0-91.915 74.778-166.692 166.693-166.692 91.914 0 166.692 74.777 166.692 166.692 0 12.065-1.202 23.218-3.674 34.088-5.182 26.145-17.117 51.021-34.525 71.959L11.977 202.791a15.653 15.653 0 0 1-11.973 5.571zm0-385.419c-74.656 0-135.393 60.737-135.393 135.393 0 9.768.961 18.71 2.938 27.338.036.158.069.317.101.476 4.149 21.105 13.807 41.238 27.928 58.223L.004 168.412 104.49 44.299c14.061-16.911 23.718-37.044 27.866-58.149.032-.16.066-.319.102-.478 1.978-8.624 2.938-17.565 2.938-27.336 0-74.656-60.737-135.393-135.392-135.393z" class="primary design" opacity="1" style="display:block" transform="translate(250 250)"/><path fill="#121330" d="M.004 41.694c-45.964 0-83.359-37.394-83.359-83.358 0-45.964 37.395-83.358 83.359-83.358 45.964 0 83.358 37.394 83.358 83.358C83.362 4.3 45.968 41.694.004 41.694zm0-135.417c-28.705 0-52.059 23.354-52.059 52.059S-28.701 10.395.004 10.395s52.058-23.354 52.058-52.059S28.709-93.723.004-93.723z" class="primary design" opacity="1" style="display:block" transform="translate(250 250)"/><path class="primary design" style="display:none"/><path class="primary design" style="display:none"/></g><g clip-path="url(#d)" style="display:block"><path fill="none" class="primary design" style="display:none"/><path fill="#121330" d="M.004 208.362a15.653 15.653 0 0 1-11.973-5.571l-116.46-138.334c-17.468-21.01-29.402-45.888-34.586-72.03-2.473-10.875-3.674-22.029-3.674-34.091 0-91.915 74.778-166.692 166.693-166.692 91.914 0 166.692 74.777 166.692 166.692 0 12.065-1.202 23.218-3.674 34.088-5.182 26.145-17.117 51.021-34.525 71.959L11.977 202.791a15.653 15.653 0 0 1-11.973 5.571zm0-385.419c-74.656 0-135.393 60.737-135.393 135.393 0 9.768.961 18.71 2.938 27.338.036.158.069.317.101.476 4.149 21.105 13.807 41.238 27.928 58.223L.004 168.412 104.49 44.299c14.061-16.911 23.718-37.044 27.866-58.149.032-.16.066-.319.102-.478 1.978-8.624 2.938-17.565 2.938-27.336 0-74.656-60.737-135.393-135.392-135.393z" class="primary design" style="display:block" transform="translate(250 250)"/><path fill="#121330" d="M.004 41.694c-45.964 0-83.359-37.394-83.359-83.358 0-45.964 37.395-83.358 83.359-83.358 45.964 0 83.358 37.394 83.358 83.358C83.362 4.3 45.968 41.694.004 41.694zm0-135.417c-28.705 0-52.059 23.354-52.059 52.059S-28.701 10.395.004 10.395s52.058-23.354 52.058-52.059S28.709-93.723.004-93.723z" class="primary design" style="display:block" transform="translate(250 250)"/><path class="primary design" style="display:none"/><path class="primary design" style="display:none"/></g><g clip-path="url(#e)" opacity="0" style="display:block"><path fill="none" class="primary design" style="display:none"/><path class="primary design" style="display:none"/><path class="primary design" style="display:none"/></g><g class="com" style="display:none"><path/><path/><path/><path/><path/><path/><path/><path/><path/><path/><path/><path/></g></g></svg>