<svg xmlns="http://www.w3.org/2000/svg" width="500" height="500" style="width:100%;height:100%;transform:translate3d(0,0,0);content-visibility:visible" viewBox="0 0 500 500"><defs><clipPath id="a"><path d="M0 0h500v500H0z"/></clipPath><clipPath id="c"><path d="M0 0h500v500H0z"/></clipPath><clipPath id="b"><path d="M0 0h500v500H0z"/></clipPath></defs><g clip-path="url(#a)"><g clip-path="url(#b)" style="display:block"><path fill="none" class="primary design" style="display:none"/><path fill="none" class="primary design" style="display:none"/><path fill="none" class="primary design" style="display:none"/><path fill="none" class="primary design" style="display:none"/><g fill="#121330" class="primary design" style="display:block"><path d="M380.205 416.693H119.79c-43.093 0-78.151-35.058-78.151-78.15V161.457c0-43.092 35.058-78.15 78.151-78.15h260.415c43.092 0 78.15 35.058 78.15 78.15v177.086c0 43.092-35.058 78.15-78.15 78.15zM119.79 114.607c-25.834 0-46.851 21.017-46.851 46.85v177.086c0 25.833 21.017 46.85 46.851 46.85h260.415c25.833 0 46.85-21.017 46.85-46.85V161.457c0-25.833-21.017-46.85-46.85-46.85H119.79z"/><path d="M380.207 291.695h-52.084c-8.644 0-15.65-7.007-15.65-15.65s7.006-15.65 15.65-15.65h52.084c8.644 0 15.65 7.007 15.65 15.65s-7.006 15.65-15.65 15.65zm-208.34-.003a15.602 15.602 0 0 1-11.067-4.583l-52.077-52.077c-6.111-6.112-6.111-16.021 0-22.132 6.111-6.112 16.022-6.112 22.133-.001l52.077 52.077c6.111 6.112 6.111 16.021 0 22.133a15.6 15.6 0 0 1-11.066 4.583z"/><path d="M119.792 291.692a15.6 15.6 0 0 1-11.066-4.583c-6.111-6.112-6.111-16.021 0-22.133l52.081-52.081c6.111-6.111 16.022-6.111 22.133 0 6.111 6.112 6.111 16.021 0 22.133l-52.081 52.081a15.602 15.602 0 0 1-11.067 4.583zm156.24 0a15.6 15.6 0 0 1-11.066-4.583l-52.076-52.077c-6.111-6.112-6.111-16.021 0-22.133 6.112-6.111 16.02-6.112 22.132.001l52.076 52.076c6.111 6.112 6.111 16.021 0 22.133a15.604 15.604 0 0 1-11.066 4.583z"/><path d="M223.959 291.692a15.6 15.6 0 0 1-11.066-4.583c-6.111-6.112-6.111-16.021 0-22.133l52.081-52.081c6.111-6.111 16.022-6.111 22.133 0 6.111 6.112 6.111 16.021 0 22.133l-52.081 52.081a15.602 15.602 0 0 1-11.067 4.583z"/></g><g class="primary design" style="display:none"><path/><path/><path/><path/><path/><path/></g></g><g clip-path="url(#c)" opacity="0" style="display:block"><path fill="none" class="primary design" style="display:none"/><path fill="none" class="primary design" style="display:none"/><path fill="none" class="primary design" style="display:none"/><path fill="none" class="primary design" style="display:none"/><g class="primary design" style="display:none"><path/><path/><path/><path/><path/><path/></g></g><g class="com" style="display:none"><path/><path/><path/><path/><path/><path/><path/><path/><path/><path/><path/><path/></g></g></svg>