<svg xmlns="http://www.w3.org/2000/svg" width="500" height="500" style="width:100%;height:100%;transform:translate3d(0,0,0);content-visibility:visible" viewBox="0 0 500 500"><defs><clipPath id="d"><path d="M0 0h500v500H0z"/></clipPath><clipPath id="h"><path d="M0 0h500v500H0z"/></clipPath><clipPath id="f"><path d="M0 0h500v500H0z"/></clipPath><clipPath id="c"><path d="M0 0h500v500H0z"/></clipPath><clipPath id="e"><path d="M0 0h500v500H0z"/></clipPath><filter id="a" width="100%" height="100%" x="0%" y="0%" filterUnits="objectBoundingBox"><feComponentTransfer in="SourceGraphic"><feFuncA tableValues="1.0 0.0" type="table"/></feComponentTransfer></filter><mask id="g" mask-type="alpha"><g filter="url(#a)"><path fill="#fff" d="M0 0h500v500H0z" opacity="0"/><use xmlns:ns1="http://www.w3.org/1999/xlink" ns1:href="#b"/></g></mask><g id="b" fill-opacity="0" stroke-linecap="round" clip-path="url(#c)" style="display:none"><path stroke-linejoin="round" class="primary design" style="display:none"/><path stroke-miterlimit="10" class="primary design" style="display:none"/></g></defs><g clip-path="url(#d)"><g clip-path="url(#e)" opacity="0" style="display:block"><path fill="#121330" d="M0 67.733c-8.644 0-15.65-7.007-15.65-15.65V-52.083c0-8.643 7.006-15.65 15.65-15.65s15.65 7.007 15.65 15.65V52.083c0 8.643-7.006 15.65-15.65 15.65z" class="primary design" opacity="1" style="display:block" transform="translate(250.004 213.548)"/><path fill="#121330" d="M0 20.499c-.67 0-1.35-.04-2.021-.1a22.8 22.8 0 0 1-1.989-.3c-.65-.14-1.31-.3-1.94-.5-.64-.19-1.281-.42-1.89-.67-.62-.26-1.23-.55-1.82-.86-.59-.31-1.17-.66-1.72-1.03-.561-.37-1.1-.77-1.62-1.19a19.18 19.18 0 0 1-1.5-1.36c-.47-.47-.93-.97-1.35-1.49-.421-.52-.83-1.07-1.2-1.62-.36-.56-.709-1.14-1.02-1.73-.319-.59-.6-1.2-.86-1.81a20.97 20.97 0 0 1-.68-1.89c-.189-.64-.36-1.29-.49-1.95a21.34 21.34 0 0 1-.3-1.99c-.069-.67-.1-1.34-.1-2.01 0-.67.031-1.35.1-2.02.07-.66.169-1.33.3-1.99.13-.65.301-1.31.49-1.94.2-.64.419-1.28.68-1.89a21.32 21.32 0 0 1 1.88-3.54c.37-.56.779-1.1 1.2-1.62a19.238 19.238 0 0 1 2.85-2.85c.52-.42 1.059-.83 1.62-1.2.55-.36 1.13-.71 1.72-1.02.59-.32 1.2-.61 1.82-.86.609-.26 1.25-.48 1.89-.68.63-.19 1.29-.36 1.94-.49a22.8 22.8 0 0 1 1.989-.3c1.341-.13 2.701-.13 4.041 0 .66.07 1.33.17 1.98.3.66.13 1.309.3 1.95.49.64.2 1.27.42 1.89.68.62.25 1.23.54 1.81.86.59.31 1.17.66 1.73 1.02.56.37 1.099.78 1.62 1.2.52.42 1.019.88 1.49 1.35a19.567 19.567 0 0 1 2.55 3.12 20.427 20.427 0 0 1 1.89 3.54c.25.61.48 1.25.68 1.89.189.63.36 1.29.49 1.94.13.66.23 1.33.3 1.99.069.67.1 1.35.1 2.02 0 .67-.031 1.34-.1 2.01-.07.67-.17 1.34-.3 1.99-.13.66-.301 1.31-.49 1.95-.2.64-.43 1.27-.68 1.89a21.645 21.645 0 0 1-1.89 3.54c-.37.55-.77 1.1-1.19 1.62-.43.52-.881 1.02-1.36 1.49-.471.48-.97.93-1.49 1.36-.521.42-1.06.82-1.62 1.19s-1.14.72-1.73 1.03c-.58.31-1.19.6-1.81.86-.62.25-1.25.48-1.89.67-.641.2-1.29.36-1.95.5-.65.13-1.32.23-1.98.3-.67.06-1.35.1-2.02.1z" class="primary design" opacity="1" style="display:block" transform="translate(250.005 333.343)"/><path fill="#121330" d="M-.128 208.365c-53.739 0-104.551-20.308-143.598-57.511-40.293-38.392-63.223-90.175-64.568-145.814-2.775-114.855 88.409-210.556 203.264-213.332 55.625-1.352 108.469 19.058 148.762 57.449 40.293 38.392 63.224 90.176 64.569 145.814 2.775 114.855-88.408 210.556-203.263 213.332-1.722.042-3.45.062-5.166.062zm.191-385.419c-1.445 0-2.883.018-4.337.053-97.602 2.359-175.087 83.683-172.729 181.285 1.143 47.28 20.629 91.285 54.869 123.909 34.239 32.624 79.142 49.967 126.416 48.819 97.601-2.358 175.086-83.683 172.728-181.285C174.687-100.42 95.72-177.054.063-177.054z" class="primary design" opacity="1" style="display:block" transform="translate(250 250)"/><path class="primary design" style="display:none"/><path class="primary design" style="display:none"/><path class="primary design" style="display:none"/><path fill="none" class="primary design" style="display:none"/><path fill="none" class="primary design" style="display:none"/><path fill="none" class="primary design" style="display:none"/></g><g clip-path="url(#f)" style="display:block"><path fill="#121330" d="M0 67.733c-8.644 0-15.65-7.007-15.65-15.65V-52.083c0-8.643 7.006-15.65 15.65-15.65s15.65 7.007 15.65 15.65V52.083c0 8.643-7.006 15.65-15.65 15.65z" class="primary design" style="display:block" transform="translate(250.004 213.548)"/><path fill="#121330" d="M0 20.499c-.67 0-1.35-.04-2.021-.1a22.8 22.8 0 0 1-1.989-.3c-.65-.14-1.31-.3-1.94-.5-.64-.19-1.281-.42-1.89-.67-.62-.26-1.23-.55-1.82-.86-.59-.31-1.17-.66-1.72-1.03-.561-.37-1.1-.77-1.62-1.19a19.18 19.18 0 0 1-1.5-1.36c-.47-.47-.93-.97-1.35-1.49-.421-.52-.83-1.07-1.2-1.62-.36-.56-.709-1.14-1.02-1.73-.319-.59-.6-1.2-.86-1.81a20.97 20.97 0 0 1-.68-1.89c-.189-.64-.36-1.29-.49-1.95a21.34 21.34 0 0 1-.3-1.99c-.069-.67-.1-1.34-.1-2.01 0-.67.031-1.35.1-2.02.07-.66.169-1.33.3-1.99.13-.65.301-1.31.49-1.94.2-.64.419-1.28.68-1.89a21.32 21.32 0 0 1 1.88-3.54c.37-.56.779-1.1 1.2-1.62a19.238 19.238 0 0 1 2.85-2.85c.52-.42 1.059-.83 1.62-1.2.55-.36 1.13-.71 1.72-1.02.59-.32 1.2-.61 1.82-.86.609-.26 1.25-.48 1.89-.68.63-.19 1.29-.36 1.94-.49a22.8 22.8 0 0 1 1.989-.3c1.341-.13 2.701-.13 4.041 0 .66.07 1.33.17 1.98.3.66.13 1.309.3 1.95.49.64.2 1.27.42 1.89.68.62.25 1.23.54 1.81.86.59.31 1.17.66 1.73 1.02.56.37 1.099.78 1.62 1.2.52.42 1.019.88 1.49 1.35a19.567 19.567 0 0 1 2.55 3.12 20.427 20.427 0 0 1 1.89 3.54c.25.61.48 1.25.68 1.89.189.63.36 1.29.49 1.94.13.66.23 1.33.3 1.99.069.67.1 1.35.1 2.02 0 .67-.031 1.34-.1 2.01-.07.67-.17 1.34-.3 1.99-.13.66-.301 1.31-.49 1.95-.2.64-.43 1.27-.68 1.89a21.645 21.645 0 0 1-1.89 3.54c-.37.55-.77 1.1-1.19 1.62-.43.52-.881 1.02-1.36 1.49-.471.48-.97.93-1.49 1.36-.521.42-1.06.82-1.62 1.19s-1.14.72-1.73 1.03c-.58.31-1.19.6-1.81.86-.62.25-1.25.48-1.89.67-.641.2-1.29.36-1.95.5-.65.13-1.32.23-1.98.3-.67.06-1.35.1-2.02.1z" class="primary design" style="display:block" transform="translate(250.005 333.343)"/><path fill="#121330" d="M-.128 208.365c-53.739 0-104.551-20.308-143.598-57.511-40.293-38.392-63.223-90.175-64.568-145.814-2.775-114.855 88.409-210.556 203.264-213.332 55.625-1.352 108.469 19.058 148.762 57.449 40.293 38.392 63.224 90.176 64.569 145.814 2.775 114.855-88.408 210.556-203.263 213.332-1.722.042-3.45.062-5.166.062zm.191-385.419c-1.445 0-2.883.018-4.337.053-97.602 2.359-175.087 83.683-172.729 181.285 1.143 47.28 20.629 91.285 54.869 123.909 34.239 32.624 79.142 49.967 126.416 48.819 97.601-2.358 175.086-83.683 172.728-181.285C174.687-100.42 95.72-177.054.063-177.054z" class="primary design" style="display:block" transform="translate(250 250)"/><path class="primary design" style="display:none"/><path class="primary design" style="display:none"/><path class="primary design" style="display:none"/><g mask="url(#g)" style="display:none"><path fill="none" class="primary design"/></g><path fill="none" class="primary design" style="display:none"/><path fill="none" class="primary design" style="display:none"/></g><g clip-path="url(#h)" opacity="0" style="display:block"><path fill="none" class="primary design" style="display:none"/><path fill="none" class="primary design" style="display:none"/><path fill="none" class="primary design" style="display:none"/><path class="primary design" style="display:none"/><path class="primary design" style="display:none"/><path class="primary design" style="display:none"/></g><g class="com" style="display:none"><path/><path/><path/><path/><path/><path/><path/><path/><path/><path/><path/><path/></g></g></svg>