<svg xmlns="http://www.w3.org/2000/svg" width="500" height="500" style="width:100%;height:100%;transform:translate3d(0,0,0);content-visibility:visible" viewBox="0 0 500 500"><defs><clipPath id="a"><path d="M0 0h500v500H0z"/></clipPath><clipPath id="d"><path d="M0 0h500v500H0z"/></clipPath><clipPath id="c"><path d="M0 0h500v500H0z"/></clipPath><clipPath id="b"><path d="M0 0h500v500H0z"/></clipPath></defs><g clip-path="url(#a)"><g clip-path="url(#b)" opacity="0" style="display:block"><path fill="#121330" d="M40.795-86.411a33.91 33.91 0 0 0-.25-2 45.943 45.943 0 0 0-.79-3.94c-.16-.65-.35-1.3-.54-1.93-.19-.64-.41-1.28-.63-1.91-.23-.63-.47-1.259-.731-1.869a33.17 33.17 0 0 0-.809-1.841c-.28-.6-.589-1.2-.9-1.79-.31-.59-.64-1.18-.99-1.75-.341-.57-.7-1.14-1.07-1.7-.37-.55-.75-1.109-1.15-1.649a43.25 43.25 0 0 0-1.241-1.591c-.42-.51-.859-1.03-1.309-1.53-.45-.49-.92-.99-1.39-1.46-.48-.47-.971-.94-1.471-1.39-.5-.45-1.009-.89-1.529-1.32a38.753 38.753 0 0 0-1.59-1.229c-.54-.4-1.09-.791-1.65-1.161-.55-.37-1.12-.729-1.7-1.069a42.86 42.86 0 0 0-1.741-.98 42.72 42.72 0 0 0-1.799-.911c-.6-.28-1.22-.55-1.83-.81-.62-.25-1.25-.5-1.88-.72-.62-.23-1.26-.44-1.9-.63-.641-.2-1.289-.38-1.93-.54a68.36 68.36 0 0 0-1.96-.45c-.66-.13-1.331-.25-1.98-.34-.67-.1-1.341-.19-2-.26a70.6 70.6 0 0 0-2.011-.15c-1.35-.06-2.698-.06-4.049 0-.66.04-1.34.09-2.01.15-.66.07-1.33.16-1.99.26-.66.09-1.331.21-1.991.34-.649.14-1.309.29-1.949.45-.65.16-1.3.34-1.94.54-.64.19-1.281.4-1.901.63-.63.22-1.26.47-1.88.72-.609.26-1.229.53-1.83.81-.6.29-1.21.591-1.79.911-.59.31-1.18.64-1.75.98-.579.34-1.149.699-1.699 1.069-.561.37-1.11.761-1.65 1.161-.54.39-1.07.809-1.59 1.229-.521.43-1.03.87-1.53 1.32-.5.45-.99.92-1.46 1.39-.479.47-.951.97-1.4 1.46-.45.5-.89 1.02-1.31 1.53-.43.52-.841 1.061-1.241 1.591a43.787 43.787 0 0 0-2.219 3.349c-.35.57-.68 1.16-.991 1.75-.31.59-.62 1.19-.899 1.79-.29.61-.56 1.221-.81 1.841a37.127 37.127 0 0 0-1.36 3.779c-.19.63-.37 1.28-.54 1.93a43.083 43.083 0 0 0-.79 3.94 41.044 41.044 0 0 0-.4 4.01 34.055 34.055 0 0 0 0 4.04 41.044 41.044 0 0 0 .4 4.01 43.083 43.083 0 0 0 .79 3.94c.17.65.35 1.3.54 1.94.189.63.409 1.27.63 1.9.229.63.47 1.26.73 1.87.25.62.52 1.24.81 1.84.279.6.589 1.2.899 1.79.311.59.641 1.18.991 1.75.34.57.7 1.15 1.07 1.7a37.723 37.723 0 0 0 2.39 3.24c.42.52.86 1.03 1.31 1.53.449.49.921.99 1.4 1.46.47.48.96.941 1.46 1.391.5.45 1.009.899 1.53 1.319.52.42 1.05.84 1.59 1.24.54.39 1.089.781 1.65 1.151.55.37 1.12.729 1.699 1.069.57.34 1.16.67 1.75.99.58.31 1.19.61 1.79.9.601.28 1.221.561 1.83.811l.037.013v152.233c0 8.643 7.006 15.65 15.65 15.65s15.65-7.007 15.65-15.65V-44.508l.034-.012c.61-.25 1.23-.531 1.83-.811.601-.29 1.209-.59 1.799-.9.58-.32 1.171-.65 1.741-.99.58-.34 1.15-.699 1.7-1.069.56-.37 1.11-.761 1.65-1.151.539-.4 1.069-.82 1.59-1.24.52-.42 1.029-.869 1.529-1.319.5-.45.991-.911 1.471-1.391.47-.47.94-.97 1.39-1.46.45-.5.889-1.01 1.309-1.53a37.414 37.414 0 0 0 2.391-3.24c.37-.55.729-1.13 1.07-1.7.35-.57.68-1.16.99-1.75.311-.59.62-1.19.9-1.79.29-.6.559-1.22.809-1.84.261-.61.501-1.24.731-1.87.22-.63.44-1.27.63-1.9.19-.64.38-1.29.54-1.94.16-.65.309-1.3.439-1.96.131-.65.25-1.32.351-1.98.1-.66.189-1.33.25-2 .07-.66.12-1.34.149-2.01a34.056 34.056 0 0 0 0-4.04c-.029-.67-.079-1.34-.149-2.01z" class="primary design" opacity="1" style="display:block" transform="translate(250 334.983)"/><path fill="none" stroke="#121330" stroke-linecap="round" stroke-linejoin="round" stroke-width="31.13" d="M-104.425 162.298C-157.698 127.929-193 68.053-193 0c0-106.517 86.483-193 193-193 0 0 0 0 0 0 106.517 0 193 86.483 193 193 0 68.053-35.302 127.929-88.575 162.298" class="primary design" opacity="1" style="display:block" transform="translate(250 253)"/><path fill="none" stroke="#121330" stroke-linecap="round" stroke-linejoin="round" stroke-width="31.13" d="M-82.907 71.258C-99.38 52.114-109.342 27.211-109.342 0c0-60.346 48.996-109.342 109.342-109.342 0 0 0 0 0 0 60.346 0 109.342 48.996 109.342 109.342 0 26.964-9.782 51.663-25.989 70.736" class="primary design" opacity="1" style="display:block" transform="translate(250 252.528)"/><path fill="none" stroke="#121330" stroke-linecap="round" stroke-linejoin="round" stroke-width="31.13" d="M-14.986 20.628C-21.356 15.99-25.5 8.475-25.5 0c0-14.073 11.427-25.5 25.5-25.5 0 0 0 0 0 0 14.073 0 25.5 11.427 25.5 25.5 0 8.475-4.144 15.99-10.514 20.628" class="primary design" opacity="1" style="display:block" transform="translate(250 252)"/><path fill="none" class="primary design" style="display:none"/><path fill="none" class="primary design" style="display:none"/><path class="primary design" style="display:none"/><path class="primary design" style="display:none"/><path class="primary design" style="display:none"/></g><g clip-path="url(#c)" style="display:block"><path fill="none" class="primary design" style="display:none"/><path fill="none" class="primary design" style="display:none"/><path fill="#121330" d="M40.795-86.411a33.91 33.91 0 0 0-.25-2 45.943 45.943 0 0 0-.79-3.94c-.16-.65-.35-1.3-.54-1.93-.19-.64-.41-1.28-.63-1.91-.23-.63-.47-1.259-.731-1.869a33.17 33.17 0 0 0-.809-1.841c-.28-.6-.589-1.2-.9-1.79-.31-.59-.64-1.18-.99-1.75-.341-.57-.7-1.14-1.07-1.7-.37-.55-.75-1.109-1.15-1.649a43.25 43.25 0 0 0-1.241-1.591c-.42-.51-.859-1.03-1.309-1.53-.45-.49-.92-.99-1.39-1.46-.48-.47-.971-.94-1.471-1.39-.5-.45-1.009-.89-1.529-1.32a38.753 38.753 0 0 0-1.59-1.229c-.54-.4-1.09-.791-1.65-1.161-.55-.37-1.12-.729-1.7-1.069a42.86 42.86 0 0 0-1.741-.98 42.72 42.72 0 0 0-1.799-.911c-.6-.28-1.22-.55-1.83-.81-.62-.25-1.25-.5-1.88-.72-.62-.23-1.26-.44-1.9-.63-.641-.2-1.289-.38-1.93-.54a68.36 68.36 0 0 0-1.96-.45c-.66-.13-1.331-.25-1.98-.34-.67-.1-1.341-.19-2-.26a70.6 70.6 0 0 0-2.011-.15c-1.35-.06-2.698-.06-4.049 0-.66.04-1.34.09-2.01.15-.66.07-1.33.16-1.99.26-.66.09-1.331.21-1.991.34-.649.14-1.309.29-1.949.45-.65.16-1.3.34-1.94.54-.64.19-1.281.4-1.901.63-.63.22-1.26.47-1.88.72-.609.26-1.229.53-1.83.81-.6.29-1.21.591-1.79.911-.59.31-1.18.64-1.75.98-.579.34-1.149.699-1.699 1.069-.561.37-1.11.761-1.65 1.161-.54.39-1.07.809-1.59 1.229-.521.43-1.03.87-1.53 1.32-.5.45-.99.92-1.46 1.39-.479.47-.951.97-1.4 1.46-.45.5-.89 1.02-1.31 1.53-.43.52-.841 1.061-1.241 1.591a43.787 43.787 0 0 0-2.219 3.349c-.35.57-.68 1.16-.991 1.75-.31.59-.62 1.19-.899 1.79-.29.61-.56 1.221-.81 1.841a37.127 37.127 0 0 0-1.36 3.779c-.19.63-.37 1.28-.54 1.93a43.083 43.083 0 0 0-.79 3.94 41.044 41.044 0 0 0-.4 4.01 34.055 34.055 0 0 0 0 4.04 41.044 41.044 0 0 0 .4 4.01 43.083 43.083 0 0 0 .79 3.94c.17.65.35 1.3.54 1.94.189.63.409 1.27.63 1.9.229.63.47 1.26.73 1.87.25.62.52 1.24.81 1.84.279.6.589 1.2.899 1.79.311.59.641 1.18.991 1.75.34.57.7 1.15 1.07 1.7a37.723 37.723 0 0 0 2.39 3.24c.42.52.86 1.03 1.31 1.53.449.49.921.99 1.4 1.46.47.48.96.941 1.46 1.391.5.45 1.009.899 1.53 1.319.52.42 1.05.84 1.59 1.24.54.39 1.089.781 1.65 1.151.55.37 1.12.729 1.699 1.069.57.34 1.16.67 1.75.99.58.31 1.19.61 1.79.9.601.28 1.221.561 1.83.811l.037.013v152.233c0 8.643 7.006 15.65 15.65 15.65s15.65-7.007 15.65-15.65V-44.508l.034-.012c.61-.25 1.23-.531 1.83-.811.601-.29 1.209-.59 1.799-.9.58-.32 1.171-.65 1.741-.99.58-.34 1.15-.699 1.7-1.069.56-.37 1.11-.761 1.65-1.151.539-.4 1.069-.82 1.59-1.24.52-.42 1.029-.869 1.529-1.319.5-.45.991-.911 1.471-1.391.47-.47.94-.97 1.39-1.46.45-.5.889-1.01 1.309-1.53a37.414 37.414 0 0 0 2.391-3.24c.37-.55.729-1.13 1.07-1.7.35-.57.68-1.16.99-1.75.311-.59.62-1.19.9-1.79.29-.6.559-1.22.809-1.84.261-.61.501-1.24.731-1.87.22-.63.44-1.27.63-1.9.19-.64.38-1.29.54-1.94.16-.65.309-1.3.439-1.96.131-.65.25-1.32.351-1.98.1-.66.189-1.33.25-2 .07-.66.12-1.34.149-2.01a34.056 34.056 0 0 0 0-4.04c-.029-.67-.079-1.34-.149-2.01z" class="primary design" style="display:block" transform="translate(250 334.983)"/><path fill="#121330" d="M0-193.081c-114.889 0-208.358 93.469-208.358 208.358 0 71.191 35.781 136.728 95.713 175.311 7.267 4.677 16.951 2.579 21.631-4.688 4.679-7.267 2.58-16.951-4.688-21.63-50.942-32.795-81.355-88.494-81.355-148.993 0-97.63 79.427-177.058 177.057-177.058 97.63 0 177.057 79.428 177.057 177.058 0 60.499-30.413 116.197-81.356 148.993-7.268 4.679-9.367 14.363-4.688 21.63 2.992 4.647 8.029 7.181 13.174 7.181a15.58 15.58 0 0 0 8.457-2.493c59.933-38.583 95.714-104.121 95.714-175.311 0-114.889-93.469-208.358-208.358-208.358z" class="primary design" style="display:block" transform="translate(250.001 237.33)"/><path fill="#121330" d="M95.251 100.252c19.199-22.562 29.774-51.324 29.774-80.987C125.025-49.674 68.939-105.76 0-105.76c-68.938 0-125.025 56.086-125.025 125.025 0 29.655 10.57 58.411 29.759 80.971 5.602 6.583 15.476 7.381 22.061 1.78 6.583-5.6 7.381-15.478 1.781-22.061-14.381-16.905-22.3-38.458-22.3-60.69C-93.724-32.415-51.68-74.46 0-74.46c51.68 0 93.724 42.045 93.724 93.725 0 22.237-7.922 43.795-22.31 60.702-5.602 6.583-4.806 16.459 1.776 22.061a15.588 15.588 0 0 0 10.135 3.732c4.43 0 8.83-1.871 11.926-5.508z" class="primary design" style="display:block" transform="translate(250.007 233.344)"/><path class="primary design" style="display:none"/><path class="primary design" style="display:none"/><path class="primary design" style="display:none"/><path fill="none" class="primary design" style="display:none"/><path fill="none" class="primary design" style="display:none"/><path fill="none" class="primary design" style="display:none"/><path fill="none" class="primary design" style="display:none"/><path fill="none" class="primary design" style="display:none"/></g><g clip-path="url(#d)" opacity="0" style="display:block"><path fill="none" class="primary design" style="display:none"/><path fill="none" class="primary design" style="display:none"/><path class="primary design" style="display:none"/><path class="primary design" style="display:none"/><path class="primary design" style="display:none"/><path fill="none" class="primary design" style="display:none"/><path fill="none" class="primary design" style="display:none"/></g><g class="com" style="display:none"><path/><path/><path/><path/><path/><path/><path/><path/><path/><path/><path/><path/></g></g></svg>