<svg xmlns="http://www.w3.org/2000/svg" width="500" height="500" style="width:100%;height:100%;transform:translate3d(0,0,0);content-visibility:visible" viewBox="0 0 500 500"><defs><clipPath id="a"><path d="M0 0h500v500H0z"/></clipPath><clipPath id="d"><path d="M0 0h500v500H0z"/></clipPath><clipPath id="c"><path d="M0 0h500v500H0z"/></clipPath><clipPath id="b"><path d="M0 0h500v500H0z"/></clipPath></defs><g clip-path="url(#a)"><g clip-path="url(#b)" opacity="0" style="display:block"><path fill="none" class="primary design" style="display:none"/><path fill="none" class="primary design" style="display:none"/><path fill="none" class="primary design" style="display:none"/><path fill="none" class="primary design" style="display:none"/><path fill="none" class="primary design" style="display:none"/><path fill="none" class="primary design" style="display:none"/><path fill="none" class="primary design" style="display:none"/><g class="primary design" style="display:none"><path/><path/></g></g><g clip-path="url(#c)" style="display:block"><path fill="none" class="primary design" style="display:none"/><path fill="none" class="primary design" style="display:none"/><path fill="none" class="primary design" style="display:none"/><path fill="none" class="primary design" style="display:none"/><path fill="none" class="primary design" style="display:none"/><path fill="none" class="primary design" style="display:none"/><g class="primary design" style="display:none"><path/><path/><path/><path/><path/><path/></g><path fill="#121330" d="M385.42 197.936h-44.857c-29.846 0-54.127-24.281-54.127-54.126v-27.215c0-29.846 24.281-54.127 54.127-54.127h6.382c29.845 0 54.125 24.281 54.125 54.127v65.691c0 8.643-7.006 15.65-15.65 15.65zM340.563 93.768c-12.587 0-22.826 10.241-22.826 22.827v27.215c0 12.586 10.239 22.826 22.826 22.826h29.206v-50.041c0-12.586-10.238-22.827-22.824-22.827h-6.382zM192.711 197.936h-44.857c-29.846 0-54.127-24.281-54.127-54.126v-27.215c0-29.846 24.281-54.127 54.127-54.127h6.381c29.845 0 54.126 24.281 54.126 54.127v65.691c0 8.643-7.006 15.65-15.65 15.65zM147.854 93.768c-12.587 0-22.827 10.241-22.827 22.827v27.215c0 12.586 10.24 22.826 22.827 22.826h29.207v-50.041c0-12.586-10.24-22.827-22.826-22.827h-6.381zM291.67 333.353h-44.857c-29.846 0-54.127-24.28-54.127-54.125v-27.215c0-29.846 24.281-54.126 54.127-54.126h6.381c29.845 0 54.126 24.28 54.126 54.126v65.69c0 8.643-7.006 15.65-15.65 15.65zm-44.857-104.167c-12.587 0-22.827 10.241-22.827 22.827v27.215c0 12.586 10.24 22.826 22.827 22.826h29.207v-50.041c0-12.586-10.24-22.827-22.826-22.827h-6.381zm112.566 229.166h-218.75c-8.644 0-15.65-7.007-15.65-15.65v-10.419c0-43.092 35.058-78.151 78.15-78.151h93.749c43.093 0 78.151 35.059 78.151 78.151v10.419c0 8.643-7.006 15.65-15.65 15.65zm-202.81-31.3h186.87c-2.608-23.381-22.495-41.62-46.561-41.62h-93.749c-24.065 0-43.952 18.239-46.56 41.62zm-5.525-104.115h-93.75c-8.644 0-15.651-7.007-15.651-15.65v-10.416c0-43.092 35.058-78.15 78.151-78.15h31.25c8.644 0 15.651 7.007 15.651 15.65s-7.007 15.649-15.651 15.649h-31.25c-24.064 0-43.95 18.239-46.56 41.618h77.81c8.644 0 15.651 7.006 15.651 15.649 0 8.643-7.007 15.65-15.651 15.65zm291.668-.003h-93.75c-8.644 0-15.651-7.007-15.651-15.65s7.007-15.649 15.651-15.649h77.81c-2.61-23.379-22.496-41.618-46.56-41.618h-31.25c-8.644 0-15.651-7.006-15.651-15.649 0-8.643 7.007-15.65 15.651-15.65h31.25c43.092 0 78.151 35.058 78.151 78.15v10.416c0 8.643-7.007 15.65-15.651 15.65z" class="primary design" style="display:block"/></g><g clip-path="url(#d)" opacity="0" style="display:block"><path fill="none" class="primary design" style="display:none"/><path fill="none" class="primary design" style="display:none"/><path fill="none" class="primary design" style="display:none"/><path fill="none" class="primary design" style="display:none"/><path fill="none" class="primary design" style="display:none"/><path fill="none" class="primary design" style="display:none"/><g class="primary design" style="display:none"><path/><path/><path/><path/><path/><path/></g></g><g class="com" style="display:none"><path/><path/><path/><path/><path/><path/><path/><path/><path/><path/><path/><path/></g></g></svg>