<svg xmlns="http://www.w3.org/2000/svg" width="500" height="500" style="width:100%;height:100%;transform:translate3d(0,0,0);content-visibility:visible" viewBox="0 0 500 500"><defs><clipPath id="a"><path d="M0 0h500v500H0z"/></clipPath><clipPath id="e"><path d="M0 0h500v500H0z"/></clipPath><clipPath id="d"><path d="M0 0h500v500H0z"/></clipPath><clipPath id="c"><path d="M0 0h500v500H0z"/></clipPath><clipPath id="b"><path d="M0 0h500v500H0z"/></clipPath></defs><g clip-path="url(#a)"><g fill="none" stroke="#121330" stroke-linecap="round" stroke-linejoin="round" stroke-width="31.3" clip-path="url(#b)" opacity="0" style="display:block"><path d="M0 78.136V-78.136" class="primary design" opacity="1" style="display:block" transform="rotate(-3 7086.784 -4738.611)"/><path d="M88.562-130.209H-88.562c-11.495 0-20.814 9.318-20.814 20.813V26.141c0 57.475 46.593 104.068 104.068 104.068H5.308c57.475 0 104.068-46.593 104.068-104.068v-135.537c0-11.495-9.319-20.813-20.814-20.813z" class="primary design" opacity="1" style="display:block" transform="rotate(-3 6088.153 -4714.028)"/><path d="m-22.566 22.566 45.132-45.132" class="primary design" opacity="1" style="display:block" transform="translate(293.1 80.012)"/><path d="m22.566 22.566-45.132-45.132" class="primary design" opacity="1" style="display:block" transform="rotate(12.409 -243.442 996.236)"/><path d="M-67.709 41.667V26.042c0-37.394 30.315-67.709 67.709-67.709 0 0 0 0 0 0 37.394 0 67.709 30.315 67.709 67.709l.117 10.125" class="primary design" opacity="1" style="display:block" transform="translate(248.158 140.435)"/><path d="M30.382 0h-60.764" class="primary design" opacity="1" style="display:block" transform="rotate(27 -393.117 343.7)"/><path d="M30.382 0h-60.764" class="primary design" opacity="1" style="display:block" transform="rotate(27 -671.214 426.076)"/><path d="M30.382 0h-60.764" class="primary design" opacity="1" style="display:block" transform="rotate(27 -427.233 968.247)"/><path d="M30.382 0h-60.764" class="primary design" opacity="1" style="display:block" transform="rotate(-33 588.996 -42.782)"/><path d="M30.382 0h-60.764" class="primary design" opacity="1" style="display:block" transform="rotate(-33 534.127 -553.954)"/><path d="M30.382 0h-60.764" class="primary design" opacity="1" style="display:block" transform="rotate(-33 765.937 -498.302)"/></g><g clip-path="url(#c)" opacity="0" style="display:block"><g class="primary design" style="display:none"><path fill="none"/><path/></g><g class="primary design" opacity="1" style="display:block"><path fill="none" stroke="#121330" stroke-width="41.66" d="M250.107 250.028" opacity="1"/><path fill="#121330" d="M373.941 307.29h47.91c8.54 0 15.622-7.083 15.622-15.623s-7.082-15.622-15.623-15.622h-47.909v-36.453h47.91c8.54 0 15.622-7.082 15.622-15.622s-7.082-15.623-15.623-15.623h-47.909v-5.416c0-19.996-16.247-36.452-36.452-36.452h-5.208c0-27.912-13.956-52.492-34.994-67.698l30.203-30.203c6.041-6.04 6.041-16.04 0-22.08-6.04-6.04-16.039-6.04-22.08 0l-38.743 38.536c-5.624-1.25-11.665-2.083-17.706-2.083-6.04 0-12.081.833-17.705 2.083L192.304 46.29c-6.041-6.04-16.04-6.04-22.08 0-6.04 6.04-6.04 16.039 0 22.08l30.412 30.411c-21.039 15.206-34.786 39.786-34.786 67.698h-5.208c-19.997 0-36.452 16.247-36.452 36.452v5.416H78.155c-8.54 0-15.622 7.082-15.622 15.623 0 8.54 7.082 15.622 15.622 15.622h46.035v36.453H78.155c-8.54 0-15.622 7.082-15.622 15.622s7.082 15.623 15.622 15.623h46.035v31.245c0 1.874.208 3.54.208 5.207H78.155c-8.54 0-15.622 7.082-15.622 15.623 0 8.54 7.082 15.622 15.622 15.622h51.867c15.414 48.117 60.615 83.112 113.94 83.112h4.166c.417 0 .625.208 1.042.208.416 0 .625-.208 1.041-.208h4.374c53.117 0 98.318-34.995 113.94-83.112h53.534c8.54 0 15.622-7.082 15.622-15.622s-7.082-15.623-15.622-15.623H373.94c0-1.875.209-3.54.209-5.207V307.29h-.209zm-124.98-192.886c28.746 0 52.075 23.33 52.075 52.075h-104.15c0-28.746 23.33-52.075 52.075-52.075zm93.735 223.922c0 45.201-34.37 82.279-78.112 87.486V286.46c0-8.54-7.082-15.623-15.623-15.623-8.54 0-15.622 7.082-15.622 15.623v139.352c-43.743-5.207-77.904-42.076-77.904-87.277V202.93c0-2.916 2.29-5.207 5.207-5.207h177.055c2.916 0 5.208 2.291 5.208 5.207v135.395h-.209z" opacity="1"/></g><path fill="none" class="primary design" style="display:none"/><path fill="none" class="primary design" style="display:none"/><path fill="none" class="primary design" style="display:none"/><path fill="none" class="primary design" style="display:none"/><path fill="none" class="primary design" style="display:none"/><path fill="none" class="primary design" style="display:none"/><path fill="none" class="primary design" style="display:none"/><path fill="none" class="primary design" style="display:none"/><path fill="none" class="primary design" style="display:none"/><path fill="none" class="primary design" style="display:none"/><path fill="none" class="primary design" style="display:none"/><path fill="none" class="primary design" style="display:none"/><path fill="none" class="primary design" style="display:none"/><path fill="none" class="primary design" style="display:none"/><path fill="none" class="primary design" style="display:none"/><path fill="none" class="primary design" style="display:none"/><path fill="none" class="primary design" style="display:none"/><path fill="none" class="primary design" style="display:none"/><path fill="none" class="primary design" style="display:none"/><path fill="none" class="primary design" style="display:none"/><path fill="none" class="primary design" style="display:none"/><path fill="none" class="primary design" style="display:none"/></g><g clip-path="url(#d)" style="display:block"><g class="primary design" style="display:none"><path fill="none"/><path/></g><g class="primary design" style="display:block"><path fill="none" stroke="#121330" stroke-width="41.66" d="M250.107 250.028"/><path fill="#121330" d="M373.941 307.29h47.91c8.54 0 15.622-7.083 15.622-15.623s-7.082-15.622-15.623-15.622h-47.909v-36.453h47.91c8.54 0 15.622-7.082 15.622-15.622s-7.082-15.623-15.623-15.623h-47.909v-5.416c0-19.996-16.247-36.452-36.452-36.452h-5.208c0-27.912-13.956-52.492-34.994-67.698l30.203-30.203c6.041-6.04 6.041-16.04 0-22.08-6.04-6.04-16.039-6.04-22.08 0l-38.743 38.536c-5.624-1.25-11.665-2.083-17.706-2.083-6.04 0-12.081.833-17.705 2.083L192.304 46.29c-6.041-6.04-16.04-6.04-22.08 0-6.04 6.04-6.04 16.039 0 22.08l30.412 30.411c-21.039 15.206-34.786 39.786-34.786 67.698h-5.208c-19.997 0-36.452 16.247-36.452 36.452v5.416H78.155c-8.54 0-15.622 7.082-15.622 15.623 0 8.54 7.082 15.622 15.622 15.622h46.035v36.453H78.155c-8.54 0-15.622 7.082-15.622 15.622s7.082 15.623 15.622 15.623h46.035v31.245c0 1.874.208 3.54.208 5.207H78.155c-8.54 0-15.622 7.082-15.622 15.623 0 8.54 7.082 15.622 15.622 15.622h51.867c15.414 48.117 60.615 83.112 113.94 83.112h4.166c.417 0 .625.208 1.042.208.416 0 .625-.208 1.041-.208h4.374c53.117 0 98.318-34.995 113.94-83.112h53.534c8.54 0 15.622-7.082 15.622-15.622s-7.082-15.623-15.622-15.623H373.94c0-1.875.209-3.54.209-5.207V307.29h-.209zm-124.98-192.886c28.746 0 52.075 23.33 52.075 52.075h-104.15c0-28.746 23.33-52.075 52.075-52.075zm93.735 223.922c0 45.201-34.37 82.279-78.112 87.486V286.46c0-8.54-7.082-15.623-15.623-15.623-8.54 0-15.622 7.082-15.622 15.623v139.352c-43.743-5.207-77.904-42.076-77.904-87.277V202.93c0-2.916 2.29-5.207 5.207-5.207h177.055c2.916 0 5.208 2.291 5.208 5.207v135.395h-.209z"/></g><path fill="none" class="primary design" style="display:none"/><path fill="none" class="primary design" style="display:none"/><path fill="none" class="primary design" style="display:none"/><path fill="none" class="primary design" style="display:none"/><path fill="none" class="primary design" style="display:none"/><path fill="none" class="primary design" style="display:none"/><path fill="none" class="primary design" style="display:none"/><path fill="none" class="primary design" style="display:none"/><path fill="none" class="primary design" style="display:none"/><path fill="none" class="primary design" style="display:none"/><path fill="none" class="primary design" style="display:none"/></g><g clip-path="url(#e)" opacity="0" style="display:block"><g class="primary design" style="display:none"><path fill="none"/><path/></g><path fill="none" stroke="#121330" stroke-linecap="round" stroke-linejoin="round" stroke-width="31.3" d="M0 78.136V-78.136" class="primary design" opacity="1" style="display:block" transform="translate(250.003 827.597)"/><path fill="none" stroke="#121330" stroke-linecap="round" stroke-linejoin="round" stroke-width="31.3" d="M88.562-130.209H-88.562c-11.495 0-20.814 9.318-20.814 20.813V26.141c0 57.475 46.593 104.068 104.068 104.068H5.308c57.475 0 104.068-46.593 104.068-104.068v-135.537c0-11.495-9.319-20.813-20.814-20.813z" class="primary design" opacity="1" style="display:block" transform="translate(250.085 775.299)"/><path fill="none" stroke="#121330" stroke-linecap="round" stroke-linejoin="round" stroke-width="31.3" d="m-22.566 22.566 45.132-45.132" class="primary design" opacity="1" style="display:block" transform="translate(294.945 542.959)"/><path fill="none" stroke="#121330" stroke-linecap="round" stroke-linejoin="round" stroke-width="31.3" d="m22.566 22.566-45.132-45.132" class="primary design" opacity="1" style="display:block" transform="translate(204.861 542.856)"/><path fill="none" stroke="#121330" stroke-linecap="round" stroke-linejoin="round" stroke-width="31.3" d="M-67.709 41.667V26.042c0-37.394 30.315-67.709 67.709-67.709 0 0 0 0 0 0 37.394 0 67.709 30.315 67.709 67.709v15.625" class="primary design" opacity="1" style="display:block" transform="translate(250.003 603.382)"/><path fill="none" stroke="#121330" stroke-linecap="round" stroke-linejoin="round" stroke-width="31.3" d="M30.382 0h-60.764" class="primary design" opacity="1" style="display:block" transform="translate(109.378 686.961)"/><path fill="none" stroke="#121330" stroke-linecap="round" stroke-linejoin="round" stroke-width="31.3" d="M30.382 0h-60.764" class="primary design" opacity="1" style="display:block" transform="translate(109.378 822.378)"/><path fill="none" stroke="#121330" stroke-linecap="round" stroke-linejoin="round" stroke-width="31.3" d="M30.382 0h-60.764" class="primary design" opacity="1" style="display:block" transform="translate(392.582 754.669)"/><path fill="none" stroke="#121330" stroke-linecap="round" stroke-linejoin="round" stroke-width="31.3" d="M30.382 0h-60.764" class="primary design" opacity="1" style="display:block" transform="translate(109.378 754.669)"/><path fill="none" stroke="#121330" stroke-linecap="round" stroke-linejoin="round" stroke-width="31.3" d="M30.382 0h-60.764" class="primary design" opacity="1" style="display:block" transform="translate(392.582 686.961)"/><path fill="none" stroke="#121330" stroke-linecap="round" stroke-linejoin="round" stroke-width="31.3" d="M30.382 0h-60.764" class="primary design" opacity="1" style="display:block" transform="translate(392.582 822.378)"/></g><g class="com" style="display:none"><path/><path/><path/><path/><path/><path/><path/><path/><path/><path/><path/><path/></g></g></svg>