<svg xmlns="http://www.w3.org/2000/svg" width="500" height="500" style="width:100%;height:100%;transform:translate3d(0,0,0);content-visibility:visible" viewBox="0 0 500 500"><defs><clipPath id="a"><path d="M0 0h500v500H0z"/></clipPath><clipPath id="d"><path d="M0 0h500v500H0z"/></clipPath><clipPath id="c"><path d="M0 0h500v500H0z"/></clipPath><clipPath id="b"><path d="M0 0h500v500H0z"/></clipPath></defs><g clip-path="url(#a)"><g clip-path="url(#b)" opacity="0" style="display:block"><path fill="none" class="primary design" style="display:none"/><g fill="none" class="primary design" style="display:none"><path/><path/></g><path class="primary design" style="display:none"/><path class="primary design" style="display:none"/><path fill="#121330" d="M129.608 187.523c-2.659 0-5.33-.183-7.999-.554A359.429 359.429 0 0 1 9.065 151.854c-34.521-17.4-65.93-40.131-93.36-67.56-27.429-27.429-50.159-58.839-67.559-93.36a359.403 359.403 0 0 1-35.115-112.544 58.002 58.002 0 0 1 13.705-46.089 57.677 57.677 0 0 1 43.508-19.824h68.655a36.61 36.61 0 0 1 36.102 30.288l8.069 45.724c3.855 21.85-5.352 44.256-23.458 57.081l-6.574 4.657c25.147 38.34 58.333 71.28 97.083 96.363l4.299-6.096c12.817-18.173 35.258-27.418 57.149-23.554l45.665 8.059A36.606 36.606 0 0 1 187.523 61.1v68.655a57.678 57.678 0 0 1-19.825 43.509 58.004 58.004 0 0 1-38.09 14.259zm-259.364-343.746c-7.737 0-14.805 3.223-19.902 9.077a26.722 26.722 0 0 0-6.309 21.229C-135.72 19.805-19.806 135.719 125.917 155.967a26.712 26.712 0 0 0 21.228-6.309c5.854-5.096 9.077-12.165 9.077-19.903V61.1a5.351 5.351 0 0 0-4.428-5.277l-45.665-8.059C96.117 46 85.858 50.224 79.998 58.533l-12.78 18.121c-4.69 6.651-13.696 8.597-20.717 4.473C-6.232 50.146-50.497 6.181-81.509-46.017c-4.167-7.013-2.248-16.049 4.408-20.764l18.621-13.19c8.279-5.864 12.49-16.109 10.726-26.1l-8.069-45.724a5.353 5.353 0 0 0-5.278-4.428h-68.655z" class="primary design" opacity="1" style="display:block" transform="translate(229.173 250)"/><g fill="#121330" class="primary design" opacity="1" style="display:block"><path d="M421.875 151.069H307.291c-8.644 0-15.65-7.007-15.65-15.65s7.006-15.65 15.65-15.65h114.584c8.644 0 15.65 7.007 15.65 15.65s-7.006 15.65-15.65 15.65z" opacity="1"/><path d="M364.583 208.36c-8.644 0-15.65-7.007-15.65-15.65V78.128c0-8.643 7.006-15.65 15.65-15.65s15.65 7.007 15.65 15.65V192.71c0 8.643-7.006 15.65-15.65 15.65z" opacity="1"/></g></g><g clip-path="url(#c)" style="display:block"><path fill="none" class="primary design" style="display:none"/><g fill="none" class="primary design" style="display:none"><path/><path/></g><path class="primary design" style="display:none"/><g class="primary design" style="display:none"><path/><path/></g><path fill="#121330" d="M129.608 187.523c-2.659 0-5.33-.183-7.999-.554A359.429 359.429 0 0 1 9.065 151.854c-34.521-17.4-65.93-40.131-93.36-67.56-27.429-27.429-50.159-58.839-67.559-93.36a359.403 359.403 0 0 1-35.115-112.544 58.002 58.002 0 0 1 13.705-46.089 57.677 57.677 0 0 1 43.508-19.824h68.655a36.61 36.61 0 0 1 36.102 30.288l8.069 45.724c3.855 21.85-5.352 44.256-23.458 57.081l-6.574 4.657c25.147 38.34 58.333 71.28 97.083 96.363l4.299-6.096c12.817-18.173 35.258-27.418 57.149-23.554l45.665 8.059A36.606 36.606 0 0 1 187.523 61.1v68.655a57.678 57.678 0 0 1-19.825 43.509 58.004 58.004 0 0 1-38.09 14.259zm-259.364-343.746c-7.737 0-14.805 3.223-19.902 9.077a26.722 26.722 0 0 0-6.309 21.229C-135.72 19.805-19.806 135.719 125.917 155.967a26.712 26.712 0 0 0 21.228-6.309c5.854-5.096 9.077-12.165 9.077-19.903V61.1a5.351 5.351 0 0 0-4.428-5.277l-45.665-8.059C96.117 46 85.858 50.224 79.998 58.533l-12.78 18.121c-4.69 6.651-13.696 8.597-20.717 4.473C-6.232 50.146-50.497 6.181-81.509-46.017c-4.167-7.013-2.248-16.049 4.408-20.764l18.621-13.19c8.279-5.864 12.49-16.109 10.726-26.1l-8.069-45.724a5.353 5.353 0 0 0-5.278-4.428h-68.655z" class="primary design" style="display:block" transform="translate(229.173 250)"/><g fill="#121330" class="primary design" style="display:block"><path d="M421.875 151.069H307.291c-8.644 0-15.65-7.007-15.65-15.65s7.006-15.65 15.65-15.65h114.584c8.644 0 15.65 7.007 15.65 15.65s-7.006 15.65-15.65 15.65z"/><path d="M364.583 208.36c-8.644 0-15.65-7.007-15.65-15.65V78.128c0-8.643 7.006-15.65 15.65-15.65s15.65 7.007 15.65 15.65V192.71c0 8.643-7.006 15.65-15.65 15.65z"/></g></g><g clip-path="url(#d)" opacity="0" style="display:block"><path fill="none" class="primary design" style="display:none"/><g fill="none" class="primary design" style="display:none"><path/><path/></g><path class="primary design" style="display:none"/><g class="primary design" style="display:none"><path/><path/></g></g><g class="com" style="display:none"><path/><path/><path/><path/><path/><path/><path/><path/><path/><path/><path/><path/></g></g></svg>