<svg xmlns="http://www.w3.org/2000/svg" width="500" height="500" style="width:100%;height:100%;transform:translate3d(0,0,0);content-visibility:visible" viewBox="0 0 500 500"><defs><clipPath id="a"><path d="M0 0h500v500H0z"/></clipPath><clipPath id="f"><path d="M0 0h500v500H0z"/></clipPath><clipPath id="e"><path d="M0 0h500v500H0z"/></clipPath><clipPath id="d"><path d="M0 0h500v500H0z"/></clipPath><clipPath id="c"><path d="M0 0h500v500H0z"/></clipPath><clipPath id="b"><path d="M0 0h500v500H0z"/></clipPath></defs><g clip-path="url(#a)"><g clip-path="url(#b)" opacity="0" style="display:block"><path fill="#121330" d="M151.039 156.229h-26.01v-48.89a78.072 78.072 0 0 0-34.27-64.668L27.873.001l62.879-42.666a78.08 78.08 0 0 0 34.27-64.668v-48.89h26.017c8.644 0 15.65-7.007 15.65-15.65s-7.006-15.65-15.65-15.65h-302.083c-8.644 0-15.65 7.007-15.65 15.65s7.006 15.65 15.65 15.65h26.017v48.889a78.073 78.073 0 0 0 34.27 64.669L-27.872.005l-62.879 42.666a78.074 78.074 0 0 0-34.27 64.668v48.89h-26.023c-8.644 0-15.65 7.007-15.65 15.65s7.006 15.649 15.65 15.649h302.083c8.644 0 15.65-7.006 15.65-15.649 0-8.643-7.006-15.65-15.65-15.65zM-93.727-107.334v-48.889H93.722v48.89a46.803 46.803 0 0 1-20.544 38.767L-.002-18.91l-73.181-49.656a46.805 46.805 0 0 1-20.544-38.768zm.006 263.563v-48.89a46.805 46.805 0 0 1 20.544-38.768L.004 18.916l73.181 49.655a46.805 46.805 0 0 1 20.544 38.768v48.89h-187.45z" class="primary design" opacity="1" style="display:block" transform="translate(250 250)"/></g><g clip-path="url(#c)" opacity="0" style="display:block"><path fill="#121330" d="M151.039 156.229h-26.01v-48.89a78.072 78.072 0 0 0-34.27-64.668L27.873.001l62.879-42.666a78.08 78.08 0 0 0 34.27-64.668v-48.89h26.017c8.644 0 15.65-7.007 15.65-15.65s-7.006-15.65-15.65-15.65h-302.083c-8.644 0-15.65 7.007-15.65 15.65s7.006 15.65 15.65 15.65h26.017v48.889a78.073 78.073 0 0 0 34.27 64.669L-27.872.005l-62.879 42.666a78.074 78.074 0 0 0-34.27 64.668v48.89h-26.023c-8.644 0-15.65 7.007-15.65 15.65s7.006 15.649 15.65 15.649h302.083c8.644 0 15.65-7.006 15.65-15.649 0-8.643-7.006-15.65-15.65-15.65zM-93.727-107.334v-48.889H93.722v48.89a46.803 46.803 0 0 1-20.544 38.767L-.002-18.91l-73.181-49.656a46.805 46.805 0 0 1-20.544-38.768zm.006 263.563v-48.89a46.805 46.805 0 0 1 20.544-38.768L.004 18.916l73.181 49.655a46.805 46.805 0 0 1 20.544 38.768v48.89h-187.45z" class="primary design" opacity="1" style="display:block" transform="translate(250 250)"/><path fill="#121330" d="M-104.818-53.54h209.636L93.099-15.471 0 53.54l-83.984-65.413-20.834-38.103" opacity="1" style="display:block" transform="translate(250.651 199.373)"/><path fill="#121330" d="M-104.984 34.333h209.635l-1.135 7.334h-208.334l-.166-7.334z" opacity="1" style="display:block" transform="translate(250.651 375)"/><path style="display:none"/></g><g clip-path="url(#d)" opacity="0" style="display:block"><path fill="#121330" d="M151.039 156.229h-26.01v-48.89a78.072 78.072 0 0 0-34.27-64.668L27.873.001l62.879-42.666a78.08 78.08 0 0 0 34.27-64.668v-48.89h26.017c8.644 0 15.65-7.007 15.65-15.65s-7.006-15.65-15.65-15.65h-302.083c-8.644 0-15.65 7.007-15.65 15.65s7.006 15.65 15.65 15.65h26.017v48.889a78.073 78.073 0 0 0 34.27 64.669L-27.872.005l-62.879 42.666a78.074 78.074 0 0 0-34.27 64.668v48.89h-26.023c-8.644 0-15.65 7.007-15.65 15.65s7.006 15.649 15.65 15.649h302.083c8.644 0 15.65-7.006 15.65-15.649 0-8.643-7.006-15.65-15.65-15.65zM-93.727-107.334v-48.889H93.722v48.89a46.803 46.803 0 0 1-20.544 38.767L-.002-18.91l-73.181-49.656a46.805 46.805 0 0 1-20.544-38.768zm.006 263.563v-48.89a46.805 46.805 0 0 1 20.544-38.768L.004 18.916l73.181 49.655a46.805 46.805 0 0 1 20.544 38.768v48.89h-187.45z" class="primary design" opacity="1" style="display:block" transform="translate(250 250)"/></g><g clip-path="url(#e)" style="display:block"><path fill="#121330" d="M151.039 156.229h-26.01v-48.89a78.072 78.072 0 0 0-34.27-64.668L27.873.001l62.879-42.666a78.08 78.08 0 0 0 34.27-64.668v-48.89h26.017c8.644 0 15.65-7.007 15.65-15.65s-7.006-15.65-15.65-15.65h-302.083c-8.644 0-15.65 7.007-15.65 15.65s7.006 15.65 15.65 15.65h26.017v48.889a78.073 78.073 0 0 0 34.27 64.669L-27.872.005l-62.879 42.666a78.074 78.074 0 0 0-34.27 64.668v48.89h-26.023c-8.644 0-15.65 7.007-15.65 15.65s7.006 15.649 15.65 15.649h302.083c8.644 0 15.65-7.006 15.65-15.649 0-8.643-7.006-15.65-15.65-15.65zM-93.727-107.334v-48.889H93.722v48.89a46.803 46.803 0 0 1-20.544 38.767L-.002-18.91l-73.181-49.656a46.805 46.805 0 0 1-20.544-38.768zm.006 263.563v-48.89a46.805 46.805 0 0 1 20.544-38.768L.004 18.916l73.181 49.655a46.805 46.805 0 0 1 20.544 38.768v48.89h-187.45z" class="primary design" style="display:block" transform="translate(250 250)"/></g><g clip-path="url(#f)" opacity="0" style="display:block"><path fill="none" class="primary design" style="display:none"/><path class="primary design" style="display:none"/></g><g class="com" style="display:none"><path/><path/><path/><path/><path/><path/><path/><path/><path/><path/><path/><path/></g></g></svg>