<svg xmlns="http://www.w3.org/2000/svg" width="500" height="500" style="width:100%;height:100%;transform:translate3d(0,0,0);content-visibility:visible" viewBox="0 0 500 500"><defs><clipPath id="a"><path d="M0 0h500v500H0z"/></clipPath><clipPath id="c"><path d="M0 0h500v500H0z"/></clipPath><clipPath id="b"><path d="M0 0h500v500H0z"/></clipPath></defs><g clip-path="url(#a)"><g fill="#121330" clip-path="url(#b)" style="display:block"><path d="M52.106-.064v-109.305c0-8.643-7.006-15.65-15.65-15.65s-15.651 7.007-15.651 15.65v93.713h-41.607v-93.719c0-8.643-7.007-15.65-15.651-15.65s-15.65 7.007-15.65 15.65V-.122c0 .039-.006.077-.006.116 0 .039.006.077.006.116v109.265c0 8.643 7.006 15.65 15.65 15.65s15.651-7.007 15.651-15.65V15.644h41.607v93.731c0 8.643 7.007 15.65 15.651 15.65s15.65-7.007 15.65-15.65V.052c0-.02.003-.038.003-.058 0-.02-.003-.038-.003-.058z" class="primary design" style="display:block" transform="translate(72.919 250.003)"/><path d="M36.458-125.025h-72.916c-8.644 0-15.651 7.007-15.651 15.65s7.007 15.649 15.651 15.649h20.814v203.101c0 8.643 7.006 15.65 15.65 15.65s15.651-7.007 15.651-15.65V-93.726h20.801c8.644 0 15.651-7.006 15.651-15.649 0-8.643-7.007-15.65-15.651-15.65z" class="primary design" style="display:block" transform="translate(192.711 250.003)"/><path d="M36.458-125.025h-72.916c-8.644 0-15.651 7.007-15.651 15.65s7.007 15.649 15.651 15.649h20.814v203.101c0 8.643 7.006 15.65 15.65 15.65s15.651-7.007 15.651-15.65V-93.726h20.801c8.644 0 15.651-7.006 15.651-15.649 0-8.643-7.007-15.65-15.651-15.65z" class="primary design" style="display:block" transform="translate(307.295 250.003)"/><path d="M-6.017-125.025h-30.441c-8.644 0-15.651 7.007-15.651 15.65v218.75c0 8.643 7.007 15.65 15.651 15.65s15.65-7.007 15.65-15.65v-88.66h14.791c32.051 0 58.126-25.714 58.126-57.321v-31.099c0-31.606-26.075-57.32-58.126-57.32zm26.825 88.419c0 14.348-12.033 26.021-26.825 26.021h-14.791v-83.141h14.791c14.792 0 26.825 11.673 26.825 26.021v31.099z" class="primary design" style="display:block" transform="translate(427.087 250.003)"/></g><g clip-path="url(#c)" opacity="0" style="display:block"><path fill="none" stroke="#121330" stroke-linecap="round" stroke-linejoin="round" stroke-width="31.3" d="M72.919 368.996" class="primary design" opacity="1" style="display:block"/><g fill="none" class="primary design" style="display:none"><path/><path/></g><g fill="none" class="primary design" style="display:none"><path/><path/></g><path fill="none" class="primary design" style="display:none"/><path class="primary design" style="display:none"/><path class="primary design" style="display:none"/><path class="primary design" style="display:none"/><path class="primary design" style="display:none"/></g><g class="com" style="display:none"><path/><path/><path/><path/><path/><path/><path/><path/><path/><path/><path/><path/></g></g></svg>