<svg xmlns="http://www.w3.org/2000/svg" width="500" height="500" style="width:100%;height:100%;transform:translate3d(0,0,0);content-visibility:visible" viewBox="0 0 500 500"><defs><clipPath id="a"><path d="M0 0h500v500H0z"/></clipPath><clipPath id="d"><path d="M0 0h500v500H0z"/></clipPath><clipPath id="c"><path d="M0 0h500v500H0z"/></clipPath><clipPath id="b"><path d="M0 0h500v500H0z"/></clipPath></defs><g clip-path="url(#a)"><g clip-path="url(#b)" opacity="0" style="display:block"><g class="primary design" opacity="1" style="display:block"><path fill="#121330" d="M0 0" opacity="1"/><path fill="none" stroke="#121330" stroke-linecap="round" stroke-linejoin="round" stroke-width="31.3" d="M249.998 57.29h.001c106.43 0 192.709 86.279 192.709 192.709 0 0 0 0 0 0 0 106.43-86.279 192.71-192.709 192.71" opacity="1"/><path fill="none" stroke="#121330" stroke-linecap="round" stroke-linejoin="round" stroke-width="31.3" d="M219.503 171.315c7.94-6.366 18.68-9.854 30.501-9.854 24.45 0 44.271 19.821 44.271 44.271m-88.542 93.423c0 24.45 19.821 39.39 44.271 39.39 13.039 0 24.761-4.249 32.863-11.923m-32.863 43.173v10.417m0-41.671v10.417m-.006-197.91v10.418m0-41.672v10.418" opacity="0"/></g><g class="primary design" opacity="1" style="display:block"><path fill="#121330" d="M0 0" opacity="1"/><path fill="none" stroke="#121330" stroke-linecap="round" stroke-linejoin="round" stroke-width="31.3" d="M249.999 442.709s0 0 0 0c-106.43 0-192.71-86.28-192.71-192.71S143.569 57.29 249.999 57.29s192.709 86.279 192.709 192.709c0 0 0 0 0 0 0 106.43-86.279 192.71-192.709 192.71" opacity="1"/><path fill="none" stroke="#121330" stroke-linecap="round" stroke-linejoin="round" stroke-width="31.3" d="M205.733 299.155c0 24.45 19.821 39.39 44.271 39.39s44.271-14.94 44.271-39.39c0-24.45-15.976-33.643-53.855-56.304-17.82-10.661-34.687-17.571-34.687-42.021s19.821-39.369 44.271-39.369 44.271 19.821 44.271 44.271m-44.271 132.809v41.671m-.006-260.418v41.672" opacity="1"/></g><g class="primary design" opacity="1" style="display:block"><path fill="#121330" d="M251 57.5h-.5"/><path fill="none" stroke="#121330" stroke-linecap="round" stroke-linejoin="round" stroke-width="31.3" d="M251 57.5h-.5"/></g><g class="primary design" opacity="1" style="display:block"><path fill="#121330" d="M443.25 250.5"/><path fill="none" stroke="#121330" stroke-linecap="round" stroke-linejoin="round" stroke-width="31.3" d="M443.25 250.5s0 0 0 0"/></g><g class="primary design" opacity="1" style="display:block"><path fill="#121330" d="M417.25 153.5"/><path fill="none" stroke="#121330" stroke-linecap="round" stroke-linejoin="round" stroke-width="31.3" d="M417.25 153.5s0 0 0 0"/></g><g class="primary design" opacity="1" style="display:block"><path fill="#121330" d="M417.25 347"/><path fill="none" stroke="#121330" stroke-linecap="round" stroke-linejoin="round" stroke-width="31.3" d="M417.25 347s0 0 0 0"/></g><g class="primary design" opacity="1" style="display:block"><path fill="#121330" d="M251 442.5h-.5"/><path fill="none" stroke="#121330" stroke-linecap="round" stroke-linejoin="round" stroke-width="31.3" d="M251 442.5h-.5"/></g></g><g clip-path="url(#c)" style="display:block"><g class="primary design" style="display:none"><path fill="none"/><path/><path/></g><g class="primary design" style="display:block"><path fill="none" stroke="#121330" stroke-width="2" d="M0 0"/><path fill="#121330" d="M249.998 41.64c-114.89 0-208.359 93.469-208.359 208.359 0 114.89 93.469 208.359 208.359 208.359 114.89 0 208.359-93.469 208.359-208.359 0-114.89-93.469-208.359-208.359-208.359zm0 385.418c-97.631 0-177.059-79.428-177.059-177.059S152.367 72.94 249.998 72.94s177.059 79.428 177.059 177.059-79.428 177.059-177.059 177.059z"/><path fill="#121330" d="M249.924 177.112c.025 0 .049.003.074.003l.066-.003c15.753.033 28.56 12.859 28.56 28.62 0 8.643 7.006 15.65 15.65 15.65s15.65-7.007 15.65-15.65c0-27.629-18.8-50.937-44.276-57.836v-28.102c0-8.643-7.006-15.65-15.65-15.65s-15.651 7.007-15.651 15.65v27.69c-26.386 5.846-44.265 26.494-44.265 53.345 0 30.906 20.48 42.774 36.936 52.309 1.768 1.024 3.562 2.063 5.367 3.143l1.649.986c37.853 22.64 44.59 27.796 44.59 41.887 0 17.49-15.359 23.717-28.546 23.74-.025 0-.05-.004-.075-.004-.025 0-.049.004-.074.004-13.187-.023-28.547-6.25-28.547-23.74 0-8.643-7.006-15.65-15.65-15.65s-15.65 7.007-15.65 15.65c0 26.864 17.882 47.521 44.271 53.368v27.69c0 8.643 7.006 15.65 15.65 15.65s15.651-7.007 15.651-15.65v-27.69c26.389-5.847 44.27-26.504 44.27-53.368 0-15.958-5.462-28.599-17.191-39.787-9.731-9.283-23.532-17.538-42.633-28.962l-1.645-.985a481.14 481.14 0 0 0-5.744-3.364c-15.848-9.183-21.329-12.982-21.329-25.227 0-17.472 15.356-23.692 28.542-23.717z"/></g><g class="primary design" style="display:none"><path/><path fill="none"/><path fill="none"/></g><g class="primary design" style="display:none"><path/><path fill="none"/><path fill="none"/></g><g class="primary design" style="display:none"><path/><path fill="none"/></g><g class="primary design" style="display:none"><path/><path fill="none"/></g><g class="primary design" style="display:none"><path/><path fill="none"/></g><g class="primary design" style="display:none"><path/><path fill="none"/></g><g class="primary design" style="display:none"><path/><path fill="none"/></g><g class="primary design" style="display:none"><path/><path fill="none"/><path fill="none"/></g><g class="primary design" style="display:none"><path/><path fill="none"/><path fill="none"/></g><g class="primary design" style="display:none"><path/><path fill="none"/></g><g class="primary design" style="display:none"><path/><path fill="none"/></g><g class="primary design" style="display:none"><path/><path fill="none"/></g><g class="primary design" style="display:none"><path/><path fill="none"/></g><g class="primary design" style="display:none"><path/><path fill="none"/></g></g><g clip-path="url(#d)" opacity="0" style="display:block"><g class="primary design" style="display:none"><path fill="none"/><path/><path/></g><g class="primary design" style="display:none"><path/><path fill="none"/><path fill="none"/></g><g class="primary design" style="display:none"><path/><path fill="none"/><path fill="none"/></g><g class="primary design" style="display:none"><path/><path fill="none"/></g><g class="primary design" style="display:none"><path/><path fill="none"/></g><g class="primary design" style="display:none"><path/><path fill="none"/></g><g class="primary design" style="display:none"><path/><path fill="none"/></g><g class="primary design" style="display:none"><path/><path fill="none"/></g><g class="primary design" style="display:none"><path/><path fill="none"/><path fill="none"/></g><g class="primary design" style="display:none"><path/><path fill="none"/><path fill="none"/></g><g class="primary design" style="display:none"><path/><path fill="none"/></g><g class="primary design" style="display:none"><path/><path fill="none"/></g><g class="primary design" style="display:none"><path/><path fill="none"/></g><g class="primary design" style="display:none"><path/><path fill="none"/></g><g class="primary design" style="display:none"><path/><path fill="none"/></g></g><g class="com" style="display:none"><path/><path/><path/><path/><path/><path/><path/><path/><path/><path/><path/><path/></g></g></svg>