<svg xmlns="http://www.w3.org/2000/svg" width="500" height="500" style="width:100%;height:100%;transform:translate3d(0,0,0);content-visibility:visible" viewBox="0 0 500 500"><defs><clipPath id="a"><path d="M0 0h500v500H0z"/></clipPath><clipPath id="c"><path d="M0 0h500v500H0z"/></clipPath><clipPath id="b"><path d="M0 0h500v500H0z"/></clipPath></defs><g clip-path="url(#a)"><g clip-path="url(#b)" style="display:block"><path fill="none" class="primary design" style="display:none"/><path fill="#121330" d="M135.42 124.502c-.5 0-1.01-.01-1.521-.04-.5-.02-1-.061-1.5-.111s-1.01-.109-1.5-.189c-.5-.07-1-.16-1.489-.26-.49-.1-.98-.21-1.47-.33-.479-.13-.971-.26-1.45-.41-.48-.14-.959-.3-1.43-.47a23.9 23.9 0 0 1-1.4-.551 33.2 33.2 0 0 1-1.38-.599c-.45-.22-.9-.45-1.34-.68-.439-.24-.89-.481-1.31-.741-.43-.26-.86-.529-1.28-.799-.42-.28-.831-.57-1.241-.87-.399-.3-.799-.61-1.189-.93-.39-.31-.77-.65-1.15-.98-.37-.34-.739-.69-1.09-1.05-.36-.35-.71-.721-1.05-1.101-.34-.37-.67-.749-.99-1.139-.31-.39-.62-.79-.92-1.2-.3-.4-.59-.81-.87-1.23-.27-.42-.54-.85-.8-1.28-.26-.42-.5-.87-.74-1.31a34.9 34.9 0 0 1-.67-1.341c-.22-.45-.421-.919-.61-1.379-.2-.46-.38-.93-.55-1.4-.17-.47-.32-.95-.47-1.43-.15-.48-.28-.97-.41-1.45-.12-.49-.229-.98-.33-1.47-.1-.49-.18-.99-.26-1.49-.07-.49-.14-1-.191-1.5-.05-.5-.089-1-.109-1.5-.03-.51-.04-1.02-.04-1.52s.01-1.01.04-1.52c.02-.5.059-1 .109-1.5.051-.5.121-1.01.191-1.5.08-.5.16-1 .26-1.49.101-.49.21-.98.33-1.47.13-.48.26-.97.41-1.45.15-.48.3-.961.47-1.431.17-.47.35-.939.55-1.399.189-.46.39-.93.61-1.38.21-.45.441-.9.67-1.34.24-.44.48-.89.74-1.31.26-.43.53-.86.8-1.28.28-.42.57-.83.87-1.24.3-.4.61-.8.92-1.19.32-.39.65-.771.99-1.151.34-.37.69-.739 1.05-1.089.351-.36.72-.71 1.09-1.05.38-.34.76-.67 1.15-.98.39-.32.79-.63 1.189-.93.41-.3.821-.59 1.241-.87.42-.27.85-.54 1.28-.8.42-.26.871-.501 1.31-.741.44-.23.89-.459 1.34-.669.449-.22.92-.42 1.38-.61.46-.19.93-.38 1.4-.55.471-.16.95-.32 1.43-.47.479-.15.971-.28 1.45-.4.49-.13.98-.241 1.47-.341.489-.1.989-.179 1.489-.259.49-.07 1-.14 1.5-.19a30.845 30.845 0 0 1 6.041 0c.5.05 1.011.12 1.5.19.5.08 1 .159 1.49.259s.98.211 1.469.341c.48.12.972.25 1.451.4.48.15.959.31 1.43.47.47.17.94.36 1.4.55a32.751 32.751 0 0 1 2.719 1.279c.44.24.881.481 1.311.741.43.26.859.53 1.28.8.42.28.83.57 1.23.87.41.3.81.61 1.2.93.39.31.77.64 1.14.98.38.34.749.69 1.1 1.05.359.35.71.719 1.05 1.089.33.38.67.761.98 1.151.32.39.629.79.93 1.19.3.41.59.82.87 1.24.27.42.54.85.8 1.28.26.42.5.87.74 1.31.229.44.46.89.67 1.34.22.45.421.92.61 1.38.19.46.379.929.549 1.399.16.47.321.951.471 1.431.149.48.28.97.4 1.45.13.49.239.98.339 1.47.101.49.181.99.261 1.49.069.49.14 1 .19 1.5.05.5.08 1 .11 1.5.03.51.04 1.02.04 1.52s-.01 1.01-.04 1.52c-.03.5-.06 1-.11 1.5s-.121 1.01-.19 1.5c-.08.5-.16 1-.261 1.49-.1.49-.209.98-.339 1.47-.12.48-.251.97-.4 1.45-.15.48-.311.96-.471 1.43-.17.47-.359.94-.549 1.4-.189.46-.39.929-.61 1.379a34.9 34.9 0 0 1-.67 1.341c-.24.44-.48.89-.74 1.31-.26.43-.53.86-.8 1.28-.28.42-.57.83-.87 1.23-.301.41-.61.81-.93 1.2-.31.39-.65.769-.98 1.139a22.4 22.4 0 0 1-1.05 1.101c-.351.36-.72.71-1.1 1.05-.37.33-.75.67-1.14.98-.39.32-.79.63-1.2.93-.4.3-.81.59-1.23.87-.421.27-.85.539-1.28.799-.43.26-.871.501-1.311.741-.439.23-.889.46-1.339.68-.46.21-.92.409-1.38.599-.46.2-.93.381-1.4.551-.471.17-.95.33-1.43.47-.479.15-.971.28-1.451.41-.489.12-.979.23-1.469.33-.49.1-.99.19-1.49.26-.489.08-1 .139-1.5.189-.5.05-1 .091-1.5.111-.51.03-1.02.04-1.52.04zm114.58 0c-.5 0-1.01-.01-1.51-.04-.5-.02-1.011-.061-1.511-.111s-1-.109-1.5-.189c-.489-.07-.989-.16-1.489-.26-.48-.1-.981-.21-1.46-.33-.49-.13-.981-.26-1.461-.41-.47-.14-.949-.3-1.42-.47-.47-.17-.949-.35-1.409-.54-.46-.2-.921-.4-1.37-.61-.46-.22-.91-.44-1.35-.68-.439-.23-.88-.481-1.31-.741-.43-.26-.86-.529-1.28-.799-.41-.28-.831-.57-1.23-.87a28.72 28.72 0 0 1-2.341-1.91c-.38-.34-.749-.69-1.099-1.05-.36-.35-.71-.72-1.05-1.09-.33-.38-.661-.76-.981-1.15a28.16 28.16 0 0 1-.929-1.2c-.29-.4-.59-.81-.861-1.23-.279-.42-.549-.85-.809-1.28-.25-.42-.5-.87-.74-1.31a34.9 34.9 0 0 1-.67-1.341c-.21-.45-.421-.919-.611-1.379a34.244 34.244 0 0 1-1.019-2.83c-.14-.48-.281-.97-.401-1.45-.12-.49-.229-.98-.33-1.47-.1-.49-.189-.99-.259-1.49-.08-.49-.14-1-.19-1.5-.051-.5-.091-1-.12-1.5-.021-.51-.04-1.02-.04-1.52s.019-1.01.04-1.52c.029-.5.069-1 .12-1.5.05-.5.11-1.01.19-1.5.07-.5.159-1 .259-1.49.101-.49.21-.98.33-1.47.12-.48.261-.97.401-1.45a34.288 34.288 0 0 1 1.019-2.83c.19-.46.401-.93.611-1.38.21-.45.441-.9.67-1.34.24-.44.49-.89.74-1.31.26-.43.53-.86.809-1.28.271-.42.571-.83.861-1.23.3-.41.61-.81.929-1.2.32-.39.651-.77.981-1.14.34-.38.69-.75 1.05-1.1a27.024 27.024 0 0 1 2.25-2.03c.38-.32.78-.63 1.19-.93.399-.3.82-.59 1.23-.87.42-.27.85-.54 1.28-.8.43-.26.871-.501 1.31-.741.44-.23.89-.459 1.35-.669.449-.22.91-.42 1.37-.61.46-.19.939-.38 1.409-.55.471-.16.95-.32 1.42-.47.48-.15.971-.28 1.461-.4.479-.13.98-.241 1.46-.341.5-.1 1-.179 1.489-.259.5-.07 1-.14 1.5-.19.5-.05 1.011-.09 1.511-.11 1-.05 2.02-.05 3.03 0 .5.02 1.01.06 1.51.11s1 .12 1.5.19c.489.08.99.159 1.48.259s.99.211 1.469.341c.49.12.972.25 1.451.4.48.15.959.31 1.429.47.471.17.941.36 1.401.55.47.19.93.39 1.38.61.45.21.91.439 1.35.669.439.24.88.481 1.31.741.43.26.86.53 1.269.8.421.28.842.57 1.241.87.4.3.799.61 1.19.93.39.31.78.65 1.149.98.37.34.741.69 1.101 1.05.35.35.7.72 1.04 1.1.34.37.67.75.99 1.14.319.39.63.79.92 1.2a26.356 26.356 0 0 1 1.67 2.51c.26.42.51.87.739 1.31.24.44.46.89.681 1.34a32.628 32.628 0 0 1 1.149 2.779c.17.47.33.951.471 1.431.149.48.279.97.409 1.45.12.49.23.98.33 1.47.101.49.191.99.261 1.49.08.49.14 1 .19 1.5.05.5.089 1 .11 1.5.03.51.04 1.02.04 1.52s-.01 1.01-.04 1.52c-.021.5-.06 1-.11 1.5s-.11 1.01-.19 1.5c-.07.5-.16 1-.261 1.49-.1.49-.21.98-.33 1.47-.13.48-.26.97-.409 1.45-.141.48-.301.96-.471 1.43a32.588 32.588 0 0 1-1.149 2.779c-.221.45-.441.901-.681 1.341-.229.44-.479.89-.739 1.31a26.355 26.355 0 0 1-1.67 2.51c-.29.41-.601.81-.92 1.2-.32.39-.65.77-.99 1.15-.34.37-.69.74-1.04 1.09-.36.36-.731.71-1.101 1.05-.369.34-.759.67-1.149.99-.391.31-.79.62-1.19.92-.399.3-.82.59-1.241.87-.409.27-.839.539-1.269.799-.43.26-.871.511-1.31.741-.44.24-.9.46-1.35.68-.45.21-.91.41-1.38.61-.46.19-.93.37-1.401.54-.47.17-.949.33-1.429.47-.479.15-.961.28-1.451.41-.479.12-.979.23-1.469.33-.49.1-.991.19-1.48.26-.5.08-1 .139-1.5.189-.5.05-1.01.091-1.51.111-.5.03-1.01.04-1.52.04zm114.59 0c-.51 0-1.021-.01-1.521-.04-.5-.02-1.009-.061-1.509-.111s-1-.119-1.5-.189c-.49-.08-.991-.16-1.48-.26-.49-.1-.98-.21-1.47-.34-.479-.12-.971-.25-1.45-.4-.48-.15-.959-.31-1.43-.47-.47-.17-.94-.361-1.4-.551a23.79 23.79 0 0 1-1.38-.609c-.45-.21-.9-.44-1.34-.67-.449-.24-.89-.491-1.32-.741a52.4 52.4 0 0 1-1.27-.799c-.42-.28-.831-.57-1.24-.87-.4-.3-.8-.61-1.19-.93-.39-.31-.77-.65-1.15-.98-.37-.34-.739-.69-1.09-1.05a22.4 22.4 0 0 1-1.05-1.101c-.34-.37-.67-.749-.99-1.139-.31-.39-.62-.79-.92-1.2-.3-.4-.59-.81-.87-1.23-.27-.42-.54-.85-.8-1.28-.26-.43-.51-.87-.74-1.31-.239-.44-.46-.891-.68-1.341-.21-.45-.41-.919-.61-1.379-.189-.46-.37-.93-.54-1.4-.17-.47-.33-.95-.47-1.43-.149-.48-.28-.97-.41-1.45-.12-.49-.229-.98-.33-1.47-.1-.49-.19-.99-.26-1.49-.08-.49-.14-1-.19-1.5-.051-.5-.09-1-.11-1.5-.03-.51-.04-1.02-.04-1.52s.01-1.01.04-1.52c.02-.5.059-1 .11-1.5.05-.5.11-1.01.19-1.5.07-.5.16-1 .26-1.49.101-.49.21-.98.33-1.47.13-.48.261-.97.41-1.45.14-.48.3-.961.47-1.431.17-.47.351-.939.54-1.399.2-.46.4-.93.61-1.38.22-.45.441-.9.68-1.34.23-.44.48-.89.74-1.31.26-.43.53-.86.8-1.28.28-.42.57-.83.87-1.24.3-.4.61-.8.92-1.19.32-.39.65-.771.99-1.151.34-.37.691-.739 1.05-1.089.351-.36.72-.71 1.09-1.05.38-.34.76-.67 1.15-.99.39-.31.79-.62 1.19-.92.409-.3.82-.59 1.24-.87.42-.27.839-.54 1.27-.8.43-.26.871-.511 1.32-.741.44-.23.89-.459 1.34-.679.449-.21.92-.41 1.38-.6.46-.2.93-.38 1.4-.55.471-.17.95-.33 1.43-.47.479-.15.971-.28 1.45-.4.49-.13.98-.241 1.47-.341.489-.1.99-.189 1.48-.259.5-.07 1-.14 1.5-.19.5-.05 1.009-.09 1.509-.11 1.011-.05 2.031-.05 3.031 0 .5.02 1.01.06 1.51.11s1 .12 1.5.19c.49.07.99.159 1.49.259.49.1.981.211 1.46.341.49.12.981.25 1.46.4.471.14.95.3 1.42.47.471.17.95.35 1.41.55.46.19.92.39 1.37.6.46.22.91.449 1.349.679.44.23.881.481 1.311.741.43.26.86.53 1.28.8a37.913 37.913 0 0 1 2.43 1.79c.38.32.77.65 1.14.99.38.34.749.69 1.1 1.05.359.35.71.719 1.05 1.089.33.38.661.761.98 1.151.32.39.63.79.93 1.19.3.41.59.82.86 1.24.28.42.55.85.81 1.28.25.42.5.87.74 1.31.229.44.46.89.67 1.34.22.45.421.92.61 1.38.19.46.38.929.54 1.399.17.47.33.951.48 1.431a37.258 37.258 0 0 1 .74 2.92c.09.49.18.99.26 1.49.069.49.14 1 .19 1.5.051.5.08 1 .11 1.5.02.51.04 1.02.04 1.52s-.02 1.01-.04 1.52c-.03.5-.059 1-.11 1.5-.05.5-.121 1.01-.19 1.5-.08.5-.17 1-.26 1.49a37.258 37.258 0 0 1-.74 2.92c-.15.48-.31.96-.48 1.43-.16.47-.35.94-.54 1.4-.189.46-.39.929-.61 1.379a34.9 34.9 0 0 1-.67 1.341c-.24.44-.49.88-.74 1.31-.26.43-.53.86-.81 1.28-.27.42-.56.83-.86 1.23-.3.41-.61.81-.93 1.2a35.2 35.2 0 0 1-.98 1.139 22.4 22.4 0 0 1-1.05 1.101c-.351.36-.72.71-1.1 1.05-.37.33-.76.67-1.14.98a34.234 34.234 0 0 1-2.43 1.8c-.42.27-.85.539-1.28.799-.43.25-.871.501-1.311.741-.439.23-.889.46-1.349.67-.45.22-.91.419-1.37.609-.46.19-.939.381-1.41.551-.47.16-.949.32-1.42.47-.479.15-.97.28-1.46.4-.479.13-.97.24-1.46.34-.5.1-1 .18-1.49.26-.5.07-1 .139-1.5.189-.5.05-1.01.091-1.51.111-.5.03-1.01.04-1.51.04zM135.42 228.673c-.5 0-1.01-.021-1.521-.041a37.863 37.863 0 0 1-3-.3c-.5-.08-1-.169-1.489-.269-.49-.09-.98-.21-1.47-.33a39.14 39.14 0 0 1-1.45-.401 34.758 34.758 0 0 1-2.83-1.019 33.39 33.39 0 0 1-1.38-.611c-.45-.21-.9-.44-1.34-.67a41.79 41.79 0 0 1-1.31-.739c-.43-.26-.86-.53-1.28-.81-.42-.27-.831-.571-1.241-.861-.399-.3-.799-.609-1.189-.929-.39-.32-.77-.65-1.15-.98a27.71 27.71 0 0 1-1.09-1.051c-.36-.35-.71-.719-1.05-1.099a28.724 28.724 0 0 1-1.91-2.341c-.3-.4-.59-.82-.87-1.23-.27-.42-.54-.849-.8-1.279-.26-.43-.5-.871-.74-1.311-.229-.44-.46-.889-.67-1.339-.22-.46-.421-.921-.61-1.381-.2-.46-.38-.929-.55-1.409-.17-.47-.32-.951-.47-1.421-.15-.48-.28-.97-.41-1.45-.12-.49-.229-.98-.33-1.47-.1-.5-.18-.989-.26-1.489-.07-.5-.14-1-.191-1.5-.05-.5-.089-1.011-.109-1.511-.03-.5-.04-1.009-.04-1.509 0-.51.01-1.021.04-1.521.02-.5.059-1.01.109-1.51.051-.5.121-1 .191-1.5.08-.49.16-.99.26-1.48.101-.49.21-.989.33-1.469.13-.49.26-.971.41-1.451a27.354 27.354 0 0 1 1.02-2.84c.189-.46.39-.92.61-1.37.21-.45.441-.91.67-1.35.24-.44.48-.88.74-1.31.26-.43.53-.86.8-1.27.28-.42.57-.84.87-1.24.3-.4.61-.799.92-1.189.32-.39.65-.78.99-1.15.34-.37.69-.74 1.05-1.1.351-.35.72-.701 1.09-1.041.38-.34.76-.67 1.15-.99.39-.31.79-.63 1.189-.92.41-.3.821-.59 1.241-.87.42-.28.85-.55 1.28-.8.42-.26.871-.509 1.31-.739.44-.24.89-.461 1.34-.681.449-.21.92-.419 1.38-.609.46-.19.93-.37 1.4-.54.471-.17.95-.331 1.43-.471.479-.15.971-.28 1.45-.41.49-.12.98-.229 1.47-.329.489-.1.989-.191 1.489-.261.49-.08 1-.14 1.5-.19.5-.05 1-.089 1.5-.109a25.71 25.71 0 0 1 3.041 0c.5.02 1 .059 1.5.109s1.011.11 1.5.19c.5.07 1 .161 1.49.261s.98.209 1.469.329c.48.13.972.26 1.451.41.48.14.959.301 1.43.471.47.17.94.35 1.4.54.46.19.92.399 1.38.609.45.22.9.441 1.339.681.44.23.881.479 1.311.739a27.146 27.146 0 0 1 2.51 1.67c.41.29.81.61 1.2.92.39.32.77.65 1.14.99.38.34.749.691 1.1 1.041.359.36.71.73 1.05 1.1.33.37.67.76.98 1.15.32.39.629.789.93 1.189.3.4.59.82.87 1.24.27.41.54.84.8 1.27.26.43.5.87.74 1.31.229.44.46.9.67 1.35.22.45.421.91.61 1.37.19.47.379.941.549 1.411.16.47.321.949.471 1.429.149.48.28.961.4 1.451.13.48.239.979.339 1.469.101.49.181.99.261 1.48.069.5.14 1 .19 1.5.05.5.08 1.01.11 1.51s.04 1.011.04 1.521c0 .5-.01 1.009-.04 1.509s-.06 1.011-.11 1.511-.121 1-.19 1.5c-.08.5-.16.989-.261 1.489-.1.49-.209.98-.339 1.47-.12.48-.251.97-.4 1.45-.15.47-.311.951-.471 1.421-.17.48-.359.949-.549 1.409-.189.46-.39.921-.61 1.381-.21.45-.441.899-.67 1.339-.24.44-.48.881-.74 1.311-.26.43-.53.859-.8 1.279-.28.41-.57.83-.87 1.23-.301.41-.61.81-.93 1.19a27.024 27.024 0 0 1-2.03 2.25c-.351.36-.72.711-1.1 1.051-.37.33-.75.66-1.14.98-.39.32-.79.629-1.2.929-.4.29-.81.591-1.23.861-.421.28-.85.55-1.28.81-.43.25-.871.499-1.311.739-.439.23-.889.46-1.339.67-.46.21-.92.421-1.38.611a33.708 33.708 0 0 1-2.83 1.019c-.479.14-.971.281-1.451.401-.489.12-.979.24-1.469.33-.49.1-.99.189-1.49.269a37.863 37.863 0 0 1-3 .3c-.51.02-1.02.041-1.52.041zm114.58 0c-.5 0-1.01-.011-1.51-.041-.5-.03-1.011-.059-1.511-.109s-1-.121-1.5-.191c-.489-.08-.989-.17-1.489-.26a38 38 0 0 1-2.921-.74c-.47-.15-.949-.31-1.42-.48-.47-.16-.949-.349-1.409-.539-.46-.19-.921-.391-1.37-.611-.46-.21-.91-.44-1.35-.67-.439-.24-.88-.489-1.31-.739-.43-.26-.86-.53-1.28-.81-.41-.27-.831-.561-1.23-.861-.41-.3-.81-.609-1.19-.929-.39-.32-.781-.65-1.151-.98-.38-.34-.749-.691-1.099-1.051-.36-.35-.71-.719-1.05-1.099-.33-.37-.661-.76-.981-1.14a28.19 28.19 0 0 1-.929-1.201c-.29-.4-.59-.82-.861-1.23-.279-.42-.549-.849-.809-1.279-.25-.43-.5-.871-.74-1.311-.229-.44-.46-.89-.67-1.35-.21-.45-.421-.91-.611-1.37a37.233 37.233 0 0 1-1.019-2.83c-.14-.48-.281-.97-.401-1.46a32.97 32.97 0 0 1-.33-1.469c-.1-.49-.189-.99-.259-1.48-.08-.5-.14-1-.19-1.5-.051-.5-.091-1.011-.12-1.511-.021-.5-.04-1.009-.04-1.509 0-.51.019-1.021.04-1.521.029-.5.069-1.01.12-1.51.05-.5.11-1 .19-1.5.07-.49.159-.99.259-1.48.101-.49.21-.989.33-1.469.12-.49.261-.971.401-1.451a34.2 34.2 0 0 1 1.019-2.83 35.278 35.278 0 0 1 1.281-2.73c.24-.44.49-.88.74-1.31.26-.43.53-.86.809-1.27.271-.42.571-.83.861-1.24a35.924 35.924 0 0 1 1.91-2.339c.34-.37.69-.74 1.05-1.1.35-.35.719-.701 1.099-1.041.37-.34.761-.67 1.151-.99.38-.31.78-.63 1.19-.92.399-.3.82-.59 1.23-.87.42-.28.85-.55 1.28-.8.43-.26.871-.509 1.31-.739.44-.24.89-.461 1.35-.681.449-.21.91-.419 1.37-.609a34.108 34.108 0 0 1 2.829-1.011c.48-.15.971-.28 1.461-.41.479-.12.98-.229 1.46-.329.5-.1 1-.191 1.489-.261.5-.08 1-.14 1.5-.19.5-.05 1.011-.089 1.511-.109 1-.06 2.02-.06 3.03 0 .5.02 1.01.059 1.51.109s1 .11 1.5.19c.489.07.99.161 1.48.261s.99.209 1.469.329c.49.13.972.26 1.451.41.48.14.959.301 1.429.471.471.17.941.35 1.401.54.47.19.93.399 1.38.609.45.22.91.441 1.35.681.439.23.88.479 1.31.739.43.25.86.52 1.269.8.421.28.842.57 1.241.87.4.29.799.61 1.19.92.39.32.78.65 1.149.99.37.34.741.691 1.101 1.041.35.36.7.73 1.04 1.1.34.37.67.76.99 1.15.319.39.63.789.92 1.189.3.41.59.82.869 1.24.28.41.551.84.801 1.27.26.43.51.87.739 1.31.24.44.46.9.681 1.35.21.45.42.91.609 1.38.19.46.37.931.54 1.401.17.47.33.949.471 1.429.149.48.279.961.409 1.451.12.48.23.979.33 1.469.101.49.191.99.261 1.48.08.5.14 1 .19 1.5.05.5.089 1.01.11 1.51.03.5.04 1.011.04 1.521 0 .5-.01 1.009-.04 1.509-.021.5-.06 1.011-.11 1.511s-.11 1-.19 1.5c-.07.49-.16.99-.261 1.48-.1.5-.21.989-.33 1.469-.13.49-.26.98-.409 1.46-.141.47-.301.951-.471 1.421-.17.47-.35.949-.54 1.409-.189.46-.399.92-.609 1.37-.221.46-.441.91-.681 1.35-.229.44-.479.881-.739 1.311-.25.43-.521.859-.801 1.279-.279.41-.569.83-.869 1.23-.29.41-.601.811-.92 1.201-.32.38-.65.77-.99 1.14-.34.38-.69.749-1.04 1.099-.36.36-.731.711-1.101 1.051a35.803 35.803 0 0 1-2.339 1.909c-.399.3-.82.591-1.241.861-.409.28-.839.55-1.269.81-.43.25-.871.499-1.31.739-.44.23-.9.46-1.35.67-.45.22-.91.421-1.38.611-.46.19-.93.379-1.401.539-.47.17-.949.33-1.429.48-.479.14-.961.281-1.451.401-.479.12-.979.239-1.469.339-.49.09-.991.18-1.48.26-.5.07-1 .141-1.5.191-.5.05-1.01.079-1.51.109s-1.01.041-1.52.041zm114.59-.001c-.51 0-1.021-.01-1.521-.04s-1.009-.06-1.509-.11-1-.12-1.5-.19a75.1 75.1 0 0 1-1.48-.26c-.49-.1-.98-.22-1.47-.34a39.12 39.12 0 0 1-1.45-.4c-.48-.15-.959-.31-1.43-.48-.47-.16-.94-.35-1.4-.54-.46-.19-.931-.39-1.38-.61-.45-.21-.9-.44-1.34-.67-.449-.24-.89-.49-1.32-.74-.431-.26-.85-.53-1.27-.81-.42-.27-.831-.56-1.24-.86a34.694 34.694 0 0 1-2.34-1.91c-.37-.34-.739-.69-1.09-1.05-.359-.35-.71-.72-1.05-1.1-.34-.37-.67-.76-.99-1.14a37.915 37.915 0 0 1-1.79-2.43c-.27-.42-.54-.85-.8-1.28-.26-.43-.51-.87-.74-1.31-.239-.44-.46-.89-.68-1.35-.21-.45-.41-.91-.61-1.37-.189-.46-.37-.94-.54-1.41-.17-.47-.33-.95-.47-1.42-.149-.48-.28-.97-.41-1.46a33.012 33.012 0 0 1-.59-2.95c-.08-.5-.14-1-.19-1.5-.051-.5-.09-1.01-.11-1.51-.03-.5-.04-1.01-.04-1.51 0-.51.01-1.02.04-1.52.02-.5.059-1.01.11-1.51.05-.49.11-1 .19-1.5.07-.49.16-.99.26-1.48.101-.49.21-.99.33-1.47.13-.48.261-.97.41-1.45.14-.48.3-.96.47-1.43.17-.47.351-.94.54-1.4.2-.46.4-.93.61-1.38.22-.45.441-.9.68-1.34.23-.45.48-.89.74-1.32.26-.43.53-.86.8-1.27.28-.42.57-.83.87-1.24.3-.4.61-.8.92-1.19.32-.39.65-.77.99-1.15.34-.37.691-.74 1.05-1.1.351-.35.72-.7 1.09-1.04.38-.34.76-.67 1.15-.99.39-.31.79-.62 1.19-.92.409-.3.82-.59 1.24-.87.42-.27.839-.55 1.27-.8.43-.26.871-.51 1.32-.74.44-.24.89-.46 1.34-.68.449-.21.92-.41 1.38-.61.46-.19.93-.37 1.4-.54.471-.17.95-.33 1.43-.47.479-.15.971-.28 1.45-.41.49-.12.98-.23 1.47-.33.489-.1.99-.19 1.48-.26.5-.08 1-.14 1.5-.19.5-.05 1.009-.09 1.509-.11 1.011-.05 2.031-.05 3.031 0 .5.02 1.01.06 1.51.11s1 .11 1.5.19c.49.07.99.16 1.49.26.49.1.981.21 1.46.33.49.13.981.26 1.46.41a33.61 33.61 0 0 1 2.83 1.01c.46.2.92.4 1.37.61.46.22.91.44 1.349.68.44.23.881.48 1.311.74.43.25.86.53 1.28.8a37.913 37.913 0 0 1 2.43 1.79c.38.32.77.65 1.14.99.38.34.749.69 1.1 1.04.359.36.71.73 1.05 1.1.33.38.661.76.98 1.15.32.39.63.79.93 1.19.3.41.59.82.86 1.24.28.41.55.84.81 1.27.25.43.5.87.74 1.32.229.44.46.89.67 1.34.22.45.421.92.61 1.38.19.46.38.93.54 1.4.17.47.33.95.48 1.43a37.258 37.258 0 0 1 .74 2.92c.09.49.18.99.26 1.48.069.5.14 1.01.19 1.5.051.5.08 1.01.11 1.51.02.5.04 1.01.04 1.52 0 .5-.02 1.01-.04 1.51-.03.5-.059 1.01-.11 1.51-.05.5-.121 1-.19 1.5-.08.49-.17.99-.26 1.48-.101.5-.22.99-.34 1.47-.119.49-.26.98-.4 1.46-.15.47-.31.95-.48 1.42-.16.47-.35.95-.54 1.41-.189.46-.39.92-.61 1.37-.21.46-.441.91-.67 1.35-.24.44-.49.88-.74 1.31-.26.43-.53.86-.81 1.28-.27.41-.56.83-.86 1.23-.3.41-.61.81-.93 1.2-.319.38-.65.77-.98 1.14-.34.38-.691.75-1.05 1.1-.351.36-.72.71-1.1 1.05-.37.33-.76.66-1.14.98-.39.32-.79.63-1.2.93-.399.3-.821.59-1.23.86-.42.28-.85.55-1.28.81-.43.25-.871.5-1.311.74-.439.23-.889.46-1.349.67-.45.22-.91.42-1.37.61-.46.19-.939.38-1.41.54-.47.17-.949.33-1.42.48-.479.14-.97.28-1.46.4-.479.12-.97.24-1.46.34-.5.09-1 .18-1.49.26-.5.07-1 .14-1.5.19-.5.05-1.01.08-1.51.11s-1.01.04-1.51.04zm-229.17 104.16c-.5 0-1.01-.01-1.521-.03-.5-.03-1-.07-1.5-.12-.5-.05-1.01-.11-1.5-.19-.5-.07-1-.16-1.489-.26-.49-.1-.98-.21-1.47-.33-.479-.12-.971-.26-1.45-.41-.48-.14-.959-.3-1.43-.47-.47-.17-.94-.35-1.4-.54-.46-.19-.931-.4-1.38-.61-.45-.21-.9-.44-1.34-.68-.439-.23-.89-.48-1.31-.74-.43-.25-.86-.52-1.28-.8-.42-.28-.831-.57-1.241-.86-.399-.3-.799-.61-1.189-.93-.39-.32-.77-.65-1.15-.99-.37-.33-.739-.69-1.09-1.04-.36-.36-.71-.73-1.05-1.1-.34-.37-.67-.76-.99-1.15-.31-.39-.62-.79-.92-1.19-.3-.4-.59-.82-.87-1.24-.27-.41-.54-.84-.8-1.27-.26-.43-.5-.87-.74-1.31-.229-.44-.46-.9-.67-1.35-.22-.45-.421-.91-.61-1.38-.2-.46-.38-.93-.55-1.4-.17-.47-.32-.95-.47-1.43-.15-.48-.28-.96-.41-1.45-.12-.48-.229-.98-.33-1.47-.1-.49-.18-.99-.26-1.48-.07-.5-.14-1-.191-1.5-.05-.5-.089-1.01-.109-1.51-.03-.5-.04-1.01-.04-1.52 0-.5.01-1.01.04-1.51.02-.5.059-1.01.109-1.51.051-.5.121-1 .191-1.5.08-.49.16-.99.26-1.48.101-.49.21-.99.33-1.47.13-.49.26-.98.41-1.45.15-.48.3-.96.47-1.43.17-.47.35-.95.55-1.41.189-.46.39-.92.61-1.37.21-.46.441-.91.67-1.35.24-.44.48-.88.74-1.31.26-.43.53-.86.8-1.28a34.234 34.234 0 0 1 1.79-2.42c.32-.39.65-.78.99-1.15.34-.37.69-.74 1.05-1.1.351-.35.72-.71 1.09-1.04.38-.34.76-.67 1.15-.99.39-.32.79-.63 1.189-.93.41-.29.821-.59 1.241-.86.42-.28.85-.55 1.28-.81.42-.25.871-.5 1.31-.74.44-.23.89-.46 1.34-.67.449-.21.92-.42 1.38-.61a33.725 33.725 0 0 1 2.83-1.02c.479-.14.971-.28 1.45-.4.49-.12.98-.23 1.47-.33.489-.1.989-.19 1.489-.26.49-.08 1-.14 1.5-.19.5-.05 1-.09 1.5-.12 1.011-.05 2.031-.05 3.041 0 .5.03 1 .07 1.5.12.5.05 1.011.11 1.5.19.5.07 1 .16 1.49.26s.98.21 1.469.33c.48.12.972.26 1.451.4a34.755 34.755 0 0 1 2.83 1.02c.46.19.92.4 1.38.61.45.21.9.44 1.339.67.44.24.881.49 1.311.74.43.26.859.53 1.28.81.42.27.83.57 1.23.86a27.387 27.387 0 0 1 2.34 1.92c.38.33.749.69 1.1 1.04.359.36.71.73 1.05 1.1.33.37.67.76.98 1.15.32.38.629.79.93 1.19.3.4.59.82.87 1.23.27.42.54.85.8 1.28.26.43.5.87.74 1.31.229.44.46.89.67 1.35.22.45.421.91.61 1.37.19.46.379.94.549 1.41.16.47.321.95.471 1.43.149.47.28.96.4 1.45.13.48.239.98.339 1.47.101.49.181.99.261 1.48.069.5.14 1 .19 1.5.05.5.08 1.01.11 1.51s.04 1.01.04 1.51c0 .51-.01 1.02-.04 1.52s-.06 1.01-.11 1.51-.121 1-.19 1.5c-.08.49-.16.99-.261 1.48-.1.49-.209.99-.339 1.47-.12.49-.251.97-.4 1.45-.15.48-.311.96-.471 1.43-.17.47-.359.94-.549 1.4-.189.47-.39.93-.61 1.38-.21.45-.441.91-.67 1.35-.24.44-.48.88-.74 1.31-.26.43-.53.86-.8 1.27-.28.42-.57.84-.87 1.24-.301.4-.61.8-.93 1.19-.31.39-.65.78-.98 1.15-.34.37-.691.74-1.05 1.1-.351.35-.72.71-1.1 1.04a26.938 26.938 0 0 1-2.34 1.92c-.4.29-.81.58-1.23.86-.421.28-.85.55-1.28.8-.43.26-.871.51-1.311.74a23.7 23.7 0 0 1-1.339.68c-.46.21-.92.42-1.38.61-.46.19-.93.37-1.4.54-.471.17-.95.33-1.43.47-.479.15-.971.29-1.451.41-.489.12-.979.23-1.469.33-.49.1-.99.19-1.49.26-.489.08-1 .14-1.5.19-.5.05-1 .09-1.5.12-.51.02-1.02.03-1.52.03zm114.58 0c-.5 0-1.01-.01-1.51-.03-.5-.03-1.011-.07-1.511-.12-.5-.05-1-.11-1.5-.19-.489-.07-.989-.16-1.489-.26-.48-.1-.981-.21-1.46-.33-.49-.12-.981-.26-1.461-.41-.47-.14-.949-.3-1.42-.47-.47-.17-.949-.35-1.409-.54-.46-.19-.921-.4-1.37-.61-.46-.21-.91-.44-1.35-.68-.439-.23-.88-.48-1.31-.74-.43-.25-.86-.52-1.28-.8-.41-.28-.831-.57-1.23-.86-.41-.3-.81-.61-1.19-.93-.39-.32-.781-.65-1.151-.99-.38-.34-.749-.69-1.099-1.04-.36-.36-.71-.73-1.05-1.1a35.96 35.96 0 0 1-1.91-2.34c-.29-.4-.59-.82-.861-1.24-.279-.41-.549-.84-.809-1.27-.25-.43-.5-.87-.74-1.31a35.28 35.28 0 0 1-1.281-2.73 34.244 34.244 0 0 1-1.019-2.83c-.14-.48-.281-.96-.401-1.45-.12-.48-.229-.98-.33-1.47-.1-.49-.189-.99-.259-1.48-.08-.5-.14-1-.19-1.5-.051-.5-.091-1.01-.12-1.51-.021-.5-.04-1.01-.04-1.52 0-.5.019-1.01.04-1.51.029-.5.069-1.01.12-1.51.05-.5.11-1 .19-1.5.07-.49.159-.99.259-1.49.101-.49.21-.98.33-1.46.12-.49.261-.98.401-1.46a37.28 37.28 0 0 1 1.019-2.83c.19-.46.401-.92.611-1.37.21-.46.441-.91.67-1.35.24-.44.49-.88.74-1.31.26-.43.53-.86.809-1.28.271-.41.571-.83.861-1.23.3-.4.61-.81.929-1.19.32-.39.651-.78.981-1.15.34-.37.69-.74 1.05-1.1.35-.35.719-.71 1.099-1.04.37-.34.761-.67 1.151-.99.38-.32.78-.63 1.19-.93.399-.29.82-.58 1.23-.86.42-.28.85-.55 1.28-.81.43-.25.871-.5 1.31-.73.44-.24.89-.47 1.35-.68.449-.21.91-.42 1.37-.61.46-.19.939-.37 1.409-.54.471-.17.95-.33 1.42-.48.48-.14.971-.28 1.461-.4.479-.12.98-.23 1.46-.33.5-.1 1-.19 1.489-.27a38.312 38.312 0 0 1 3.011-.3c1-.05 2.02-.05 3.03 0a38.365 38.365 0 0 1 3.01.3 38.704 38.704 0 0 1 2.949.6c.49.12.972.26 1.451.4a34.212 34.212 0 0 1 2.83 1.02c.47.19.93.4 1.38.61.45.21.91.44 1.35.68.439.23.88.48 1.31.73.43.26.86.53 1.269.81.421.28.842.57 1.241.86.4.3.799.61 1.19.93.39.32.78.65 1.149.99.37.33.741.69 1.101 1.04.35.36.7.73 1.04 1.1.34.37.67.76.99 1.15.319.38.63.79.92 1.19.3.4.59.82.869 1.23.28.42.551.85.801 1.28.26.43.51.87.739 1.31.24.44.46.89.681 1.35.21.45.42.91.609 1.37a34.15 34.15 0 0 1 1.011 2.83c.149.48.279.97.409 1.46.12.48.23.97.33 1.46.101.5.191 1 .261 1.49.08.5.14 1 .19 1.5.05.5.089 1.01.11 1.51.03.5.04 1.01.04 1.51 0 .51-.01 1.02-.04 1.52-.021.5-.06 1.01-.11 1.51s-.11 1-.19 1.5c-.07.49-.16.99-.261 1.48-.1.49-.21.99-.33 1.47-.13.49-.26.97-.409 1.45-.141.48-.301.96-.471 1.43-.17.47-.35.94-.54 1.4a27.8 27.8 0 0 1-.609 1.38c-.221.45-.441.91-.681 1.35-.229.44-.479.88-.739 1.31-.25.43-.521.86-.801 1.27-.279.42-.569.84-.869 1.24-.29.4-.601.8-.92 1.19-.32.39-.65.78-.99 1.15-.34.37-.69.74-1.04 1.1-.36.35-.731.7-1.101 1.04-.369.34-.759.67-1.149.99-.391.32-.79.63-1.19.93-.399.29-.82.58-1.241.86-.409.28-.839.55-1.269.8-.43.26-.871.51-1.31.74-.44.24-.9.47-1.35.68-.45.21-.91.42-1.38.61-.46.19-.93.37-1.401.54-.47.17-.949.33-1.429.47-.479.15-.961.29-1.451.41-.479.12-.979.23-1.469.33-.49.1-.991.19-1.48.26-.5.08-1 .14-1.5.19-.5.05-1.01.09-1.51.12-.5.02-1.01.03-1.52.03zm114.59 0c-.51 0-1.021-.01-1.521-.03-.5-.03-1.009-.07-1.509-.12-.5-.05-1-.11-1.5-.19-.49-.07-.991-.16-1.48-.26-.49-.1-.98-.21-1.47-.33-.479-.12-.971-.26-1.45-.41-.48-.14-.959-.3-1.43-.47-.47-.17-.94-.35-1.4-.54-.46-.19-.931-.4-1.38-.61-.45-.21-.9-.44-1.34-.68-.449-.23-.89-.48-1.32-.74-.431-.25-.85-.52-1.27-.8-.42-.28-.831-.57-1.24-.86-.4-.3-.8-.61-1.19-.93-.39-.32-.77-.65-1.15-.99-.37-.33-.739-.69-1.09-1.04-.359-.36-.71-.73-1.05-1.1-.34-.37-.67-.76-.99-1.15-.31-.39-.62-.79-.92-1.19-.3-.4-.59-.82-.87-1.24-.27-.41-.54-.84-.8-1.27-.26-.43-.51-.87-.74-1.31-.239-.44-.46-.9-.68-1.35-.21-.45-.41-.91-.61-1.37-.189-.47-.37-.94-.54-1.41-.17-.47-.33-.95-.47-1.43-.149-.48-.28-.96-.41-1.45-.12-.48-.229-.98-.33-1.47-.1-.49-.19-.99-.26-1.48-.08-.5-.14-1-.19-1.5-.051-.5-.09-1.01-.11-1.51-.03-.5-.04-1.01-.04-1.52 0-.5.01-1.01.04-1.51.02-.5.059-1.01.11-1.51.05-.5.11-1 .19-1.5.07-.49.16-.99.26-1.48.101-.49.21-.99.33-1.47.13-.49.261-.98.41-1.45.14-.48.3-.96.47-1.43.17-.47.351-.95.54-1.41.2-.46.4-.92.61-1.37.22-.45.441-.91.68-1.35.23-.44.48-.88.74-1.31.26-.43.53-.86.8-1.27.28-.42.57-.84.87-1.24.3-.4.61-.81.92-1.19.32-.39.65-.78.99-1.15.34-.37.691-.74 1.05-1.1.351-.35.72-.71 1.09-1.04.38-.34.76-.67 1.15-.99.39-.32.79-.63 1.19-.93.409-.29.82-.58 1.24-.86.42-.28.839-.55 1.27-.81.43-.25.871-.5 1.32-.73.44-.24.89-.47 1.34-.68.449-.21.92-.42 1.38-.61a33.725 33.725 0 0 1 2.83-1.02c.479-.14.971-.28 1.45-.4.49-.12.98-.23 1.47-.33.489-.1.99-.19 1.48-.26.5-.08 1-.14 1.5-.19.5-.05 1.009-.09 1.509-.12 1.011-.05 2.031-.05 3.031 0 .5.03 1.01.07 1.51.12.5.05 1 .11 1.5.19.49.07.99.16 1.49.26a34.057 34.057 0 0 1 2.92.73 38.874 38.874 0 0 1 2.83 1.02c.46.19.92.4 1.37.61.46.21.91.44 1.349.68.44.23.881.48 1.311.73.43.26.86.53 1.28.81.409.28.831.57 1.23.86.41.3.81.61 1.2.93.38.32.77.65 1.14.99.38.33.749.69 1.1 1.04.359.36.71.73 1.05 1.1.33.37.661.76.98 1.15a27.09 27.09 0 0 1 1.79 2.43c.28.41.55.84.81 1.27.25.43.5.87.74 1.31.229.44.46.9.67 1.35.22.45.421.91.61 1.37.19.46.38.94.54 1.41.17.47.33.95.48 1.43a36.546 36.546 0 0 1 .74 2.92c.09.49.18.99.26 1.48.069.5.14 1 .19 1.5.051.5.08 1.01.11 1.51.02.5.04 1.01.04 1.51 0 .51-.02 1.02-.04 1.52-.03.5-.059 1.01-.11 1.51-.05.5-.121 1-.19 1.5-.08.49-.17.99-.26 1.48-.101.49-.22.99-.34 1.47-.119.49-.26.97-.4 1.45-.15.48-.31.96-.48 1.43-.16.47-.35.94-.54 1.41-.189.46-.39.92-.61 1.37-.21.45-.441.91-.67 1.35-.24.44-.49.88-.74 1.31-.26.43-.53.86-.81 1.27-.27.42-.56.84-.86 1.24a34.7 34.7 0 0 1-1.91 2.34c-.34.37-.691.74-1.05 1.1-.351.35-.72.71-1.1 1.04-.37.34-.76.67-1.14.99-.39.32-.79.63-1.2.93-.399.29-.821.58-1.23.86-.42.28-.85.55-1.28.8-.43.26-.871.51-1.311.74-.439.24-.889.47-1.349.68-.45.21-.91.42-1.37.61a33.61 33.61 0 0 1-2.83 1.01c-.479.15-.97.29-1.46.41-.479.12-.97.23-1.46.33-.5.1-1 .19-1.49.26-.5.08-1 .14-1.5.19-.5.05-1.01.09-1.51.12-.5.02-1.01.03-1.51.03zM250 437.002c-.5 0-1.01-.01-1.51-.04-.5-.02-1.011-.061-1.511-.111s-1-.109-1.5-.189c-.489-.07-.989-.16-1.489-.26-.48-.1-.981-.21-1.46-.33-.49-.13-.981-.26-1.461-.41-.47-.14-.949-.3-1.42-.47-.47-.17-.949-.35-1.409-.54-.46-.2-.921-.4-1.37-.61-.46-.22-.91-.44-1.35-.68-.439-.23-.88-.481-1.31-.741-.43-.26-.86-.529-1.28-.799-.41-.28-.831-.57-1.23-.87a28.72 28.72 0 0 1-2.341-1.91c-.38-.34-.749-.69-1.099-1.04-.36-.36-.71-.73-1.05-1.1-.33-.38-.661-.76-.981-1.15a35.96 35.96 0 0 1-.929-1.19c-.29-.41-.59-.82-.861-1.24-.279-.42-.549-.84-.809-1.27-.25-.43-.5-.87-.74-1.32a34.9 34.9 0 0 1-.67-1.341c-.21-.45-.421-.919-.611-1.379a34.244 34.244 0 0 1-1.019-2.83c-.14-.48-.281-.97-.401-1.45-.12-.49-.229-.98-.33-1.47-.1-.49-.189-.99-.259-1.49-.08-.49-.14-1-.19-1.49-.051-.5-.091-1.01-.12-1.51-.021-.51-.04-1.02-.04-1.52s.019-1.01.04-1.51c.029-.5.069-1.01.12-1.51.05-.5.11-1 .19-1.5.07-.5.159-1 .259-1.49.101-.49.21-.98.33-1.47.12-.48.261-.97.401-1.45.15-.47.309-.961.479-1.431.171-.47.351-.939.54-1.399.19-.46.401-.92.611-1.38.21-.45.441-.9.67-1.34.24-.44.49-.88.74-1.31.26-.43.53-.86.809-1.28.271-.42.571-.83.861-1.23.3-.41.61-.81.929-1.2.32-.39.651-.77.981-1.14.34-.38.69-.75 1.05-1.1a27.024 27.024 0 0 1 2.25-2.03c.38-.32.78-.63 1.19-.93.399-.3.82-.59 1.23-.86.42-.28.85-.55 1.28-.81.43-.25.871-.501 1.31-.741.44-.23.89-.459 1.35-.669.449-.22.91-.42 1.37-.61.46-.19.939-.38 1.409-.55.471-.16.95-.32 1.42-.47.48-.14.971-.28 1.461-.4.479-.13.98-.241 1.46-.341.5-.1 1-.179 1.489-.259.5-.07 1-.14 1.5-.19.5-.05 1.011-.09 1.511-.11 1-.05 2.02-.05 3.03 0 .5.02 1.01.06 1.51.11s1 .12 1.5.19c.489.08.99.159 1.48.259s.99.211 1.469.341c.49.12.972.26 1.451.4.48.15.959.31 1.429.47.471.17.941.36 1.401.55.47.19.93.39 1.38.61.45.21.91.439 1.35.669.439.24.88.491 1.31.741.43.26.86.53 1.269.81.421.27.842.56 1.241.86.4.3.799.61 1.19.93.39.31.78.65 1.149.98.37.34.741.69 1.101 1.05.35.35.7.72 1.04 1.1.34.37.67.75.99 1.14.319.39.63.79.92 1.2a26.356 26.356 0 0 1 1.67 2.51c.26.43.51.87.739 1.31.24.44.46.89.681 1.34.21.46.42.92.609 1.38.19.46.37.929.54 1.399.17.47.33.961.471 1.431.149.48.279.97.409 1.45.12.49.23.98.33 1.47.101.49.191.99.261 1.49.08.5.14 1 .19 1.5.05.5.089 1.01.11 1.51.03.5.04 1.01.04 1.51s-.01 1.01-.04 1.52c-.021.5-.06 1.01-.11 1.51-.05.49-.11 1-.19 1.49-.07.5-.16 1-.261 1.49-.1.49-.21.98-.33 1.47-.13.48-.26.97-.409 1.45-.141.48-.301.96-.471 1.43a32.588 32.588 0 0 1-1.149 2.779c-.221.45-.441.901-.681 1.341-.229.45-.479.89-.739 1.32-.25.43-.521.85-.801 1.27a33.325 33.325 0 0 1-1.789 2.43c-.32.39-.65.77-.99 1.15-.34.37-.69.74-1.04 1.1-.36.35-.731.7-1.101 1.04-.369.34-.759.67-1.149.99-.391.31-.79.62-1.19.92-.399.3-.82.59-1.241.87-.409.27-.839.539-1.269.799-.43.26-.871.511-1.31.741-.44.24-.9.46-1.35.68-.45.21-.91.41-1.38.61-.46.19-.93.37-1.401.54-.47.17-.949.33-1.429.47-.479.15-.961.28-1.451.41-.479.12-.979.23-1.469.33-.49.1-.991.19-1.48.26-.5.08-1 .139-1.5.189-.5.05-1.01.091-1.51.111-.5.03-1.01.04-1.52.04z" class="primary design" style="display:block"/><g class="primary design" style="display:none"><path/><path/><path/><path/><path/><path/><path/><path/><path/><path/></g></g><g clip-path="url(#c)" opacity="0" style="display:block"><g class="primary design" style="display:none"><path/><path fill="none"/></g><g class="primary design" style="display:none"><path/><path fill="none"/></g><g class="primary design" style="display:none"><path/><path fill="none"/></g><g class="primary design" style="display:none"><path/><path fill="none"/></g><g class="primary design" style="display:none"><path/><path fill="none"/></g><g class="primary design" style="display:none"><path/><path fill="none"/></g><g class="primary design" style="display:none"><path/><path fill="none"/></g><g class="primary design" style="display:none"><path/><path fill="none"/></g><g class="primary design" style="display:none"><path/><path fill="none"/></g><g class="primary design" style="display:none"><path/><path fill="none"/></g><g class="primary design" style="display:none"><path fill="none"/><path/><path/><path/><path/><path/><path/><path/><path/><path/><path/></g></g><g class="com" style="display:none"><path/><path/><path/><path/><path/><path/><path/><path/><path/><path/><path/><path/></g></g></svg>