<svg xmlns="http://www.w3.org/2000/svg" width="500" height="500" style="width:100%;height:100%;transform:translate3d(0,0,0);content-visibility:visible" viewBox="0 0 500 500"><defs><clipPath id="a"><path d="M0 0h500v500H0z"/></clipPath><clipPath id="c"><path d="M0 0h500v500H0z"/></clipPath><clipPath id="b"><path d="M0 0h500v500H0z"/></clipPath></defs><g clip-path="url(#a)"><g clip-path="url(#b)" style="display:block"><path fill="none" class="primary design" style="display:none"/><path fill="none" class="primary design" style="display:none"/><path fill="none" class="primary design" style="display:none"/><g fill="#121330" class="primary design" style="display:block"><path d="M250.004 458.362a15.653 15.653 0 0 1-11.973-5.571l-116.46-138.334c-17.468-21.01-29.403-45.886-34.587-72.031-2.472-10.875-3.674-22.029-3.674-34.09 0-91.915 74.779-166.692 166.694-166.692 91.914 0 166.692 74.777 166.692 166.692 0 12.066-1.202 23.221-3.675 34.093-5.183 26.143-17.118 51.018-34.524 71.954L261.976 452.791a15.65 15.65 0 0 1-11.972 5.571zm-.001-385.418c-74.656 0-135.392 60.736-135.392 135.392 0 9.767.96 18.71 2.937 27.338.036.158.07.317.102.476 4.149 21.106 13.808 41.239 27.928 58.222l104.425 124.04L354.49 294.299c14.06-16.91 23.718-37.043 27.866-58.149.031-.16.066-.319.102-.477 1.978-8.624 2.937-17.566 2.937-27.337 0-74.656-60.737-135.392-135.392-135.392z"/><path d="M233.072 266.859a15.6 15.6 0 0 1-11.059-4.578l-40.361-40.311c-6.115-6.108-6.12-16.016-.013-22.132 6.108-6.116 16.017-6.121 22.133-.013l29.3 29.265 73.58-73.494c6.115-6.107 16.024-6.101 22.133.014 6.107 6.115 6.102 16.024-.013 22.132l-84.64 84.539a15.605 15.605 0 0 1-11.06 4.578z"/></g><g class="primary design" style="display:none"><path/><path/></g></g><g clip-path="url(#c)" opacity="0" style="display:block"><path fill="none" class="primary design" style="display:none"/><path fill="none" class="primary design" style="display:none"/><g class="primary design" style="display:none"><path/><path/></g></g><g class="com" style="display:none"><path/><path/><path/><path/><path/><path/><path/><path/><path/><path/><path/><path/></g></g></svg>