<svg xmlns="http://www.w3.org/2000/svg" width="500" height="500" style="width:100%;height:100%;transform:translate3d(0,0,0);content-visibility:visible" viewBox="0 0 500 500"><defs><clipPath id="b"><path d="M0 0h500v500H0z"/></clipPath><clipPath id="e"><path d="M0 0h500v500H0z"/></clipPath><clipPath id="c"><path d="M0 0h500v500H0z"/></clipPath><mask id="d" mask-type="alpha"><use xmlns:ns1="http://www.w3.org/1999/xlink" ns1:href="#a"/></mask><g id="a" class="primary design" style="display:block"><path fill="#121331" d="M489 56v354H15V56h474z"/><path fill-opacity="0" stroke="#121331" stroke-width="0" d="M489 56v354H15V56h474z"/></g></defs><g clip-path="url(#b)"><g clip-path="url(#c)" style="display:block"><path fill="#121330" d="M171.876-166.692H98.965c-8.644 0-15.651 7.007-15.651 15.65s7.007 15.649 15.651 15.649h72.911a5.19 5.19 0 0 1 5.183 5.185v260.417a5.19 5.19 0 0 1-5.183 5.184h-343.752a5.19 5.19 0 0 1-5.183-5.184v-260.417a5.19 5.19 0 0 1 5.183-5.185h72.924c8.644 0 15.65-7.006 15.65-15.649 0-8.643-7.006-15.65-15.65-15.65h-72.924c-20.117 0-36.483 16.367-36.483 36.484v260.417c0 20.117 16.366 36.483 36.483 36.483h343.752c20.117 0 36.483-16.366 36.483-36.483v-260.417c0-20.117-16.366-36.484-36.483-36.484z" class="primary design" style="display:block" transform="translate(249.999 250.003)"/><g mask="url(#d)" style="display:block"><path fill="#121330" d="m171.222 240.241 67.703 67.703c.028.028.058.051.086.078.339.334.691.655 1.059.957.19.156.391.293.587.439.213.159.421.324.642.472.23.154.468.287.704.427.203.121.401.249.61.361.239.128.484.235.728.35.219.103.434.213.659.306.237.098.48.178.721.264.241.086.479.179.725.254.241.073.485.126.729.187.252.063.501.134.757.185.278.055.559.088.84.128.225.032.447.076.675.098.514.051 1.029.078 1.545.078s1.03-.027 1.544-.078c.232-.023.456-.066.685-.099.276-.04.554-.073.828-.127.261-.052.513-.123.769-.187.24-.06.481-.113.718-.185.248-.075.488-.168.73-.255.24-.086.481-.165.717-.263.224-.093.438-.201.656-.304.245-.115.493-.224.733-.353.204-.11.398-.235.597-.353.24-.143.483-.278.717-.435.211-.142.41-.301.614-.452.206-.153.416-.296.616-.46.341-.28.665-.58.981-.888.052-.051.109-.093.161-.145l67.714-67.711c6.111-6.111 6.111-16.02 0-22.132-6.11-6.111-16.021-6.113-22.133-.001l-40.996 40.995.005-160.134c0-8.643-7.007-15.651-15.651-15.651-8.643 0-15.649 7.007-15.65 15.65l-.005 160.136-40.987-40.988c-6.112-6.111-16.021-6.111-22.133 0-6.111 6.112-6.111 16.021 0 22.133z" class="primary design"/></g><path fill="#121330" d="m-78.775 42.322 67.703 67.703c.028.028.058.051.086.078.339.334.691.655 1.059.957.19.156.391.293.587.439.213.159.421.324.642.472.23.154.468.287.704.427.203.121.401.249.61.361.239.128.484.235.728.35.219.103.434.213.659.306.237.098.48.178.721.264.241.086.479.179.725.254.241.073.485.126.729.187.252.063.501.134.757.185.278.055.559.088.84.128.225.032.447.076.675.098.514.051 1.029.078 1.545.078s1.03-.027 1.544-.078c.232-.023.456-.066.685-.099.276-.04.554-.073.828-.127.261-.052.513-.123.769-.187.24-.06.481-.113.718-.185.248-.075.488-.168.73-.255.24-.086.481-.165.717-.263.224-.093.438-.201.656-.304.245-.115.493-.224.733-.353.204-.11.398-.235.597-.353.24-.143.483-.278.717-.435.211-.142.41-.301.614-.452.206-.153.416-.296.616-.46.341-.28.665-.58.981-.888.052-.051.109-.093.161-.145l67.714-67.711c6.111-6.111 6.111-16.02 0-22.132-6.11-6.111-16.021-6.113-22.133-.001L15.646 61.176l.005-160.134c0-8.643-7.007-15.651-15.651-15.651-8.643 0-15.649 7.007-15.65 15.65l-.005 160.136-40.987-40.988c-6.112-6.111-16.021-6.111-22.133 0-6.111 6.112-6.111 16.021 0 22.133z" class="primary design" style="display:block" transform="translate(249.997 -124.081)"/></g><g clip-path="url(#e)" opacity="0" style="display:block"><path fill="none" stroke="#121330" stroke-linecap="round" stroke-linejoin="round" stroke-width="31.3" d="M0 0" class="primary design" opacity="1" style="display:block" transform="translate(249.999 250.003)"/><path class="primary design" style="display:none"/><path fill="#121330" d="m-78.775 42.322 67.703 67.703c.028.028.058.051.086.078.339.334.691.655 1.059.957.19.156.391.293.587.439.213.159.421.324.642.472.23.154.468.287.704.427.203.121.401.249.61.361.239.128.484.235.728.35.219.103.434.213.659.306.237.098.48.178.721.264.241.086.479.179.725.254.241.073.485.126.729.187.252.063.501.134.757.185.278.055.559.088.84.128.225.032.447.076.675.098.514.051 1.029.078 1.545.078s1.03-.027 1.544-.078c.232-.023.456-.066.685-.099.276-.04.554-.073.828-.127.261-.052.513-.123.769-.187.24-.06.481-.113.718-.185.248-.075.488-.168.73-.255.24-.086.481-.165.717-.263.224-.093.438-.201.656-.304.245-.115.493-.224.733-.353.204-.11.398-.235.597-.353.24-.143.483-.278.717-.435.211-.142.41-.301.614-.452.206-.153.416-.296.616-.46.341-.28.665-.58.981-.888.052-.051.109-.093.161-.145l67.714-67.711c6.111-6.111 6.111-16.02 0-22.132-6.11-6.111-16.021-6.113-22.133-.001L15.646 61.176l.005-160.134c0-8.643-7.007-15.651-15.651-15.651-8.643 0-15.649 7.007-15.65 15.65l-.005 160.136-40.987-40.988c-6.112-6.111-16.021-6.111-22.133 0-6.111 6.112-6.111 16.021 0 22.133z" class="primary design" opacity="1" style="display:block" transform="translate(249.997 -124.081)"/></g><g class="com" style="display:none"><path/><path/><path/><path/><path/><path/><path/><path/><path/><path/><path/><path/></g></g></svg>