<svg xmlns="http://www.w3.org/2000/svg" width="500" height="500" style="width:100%;height:100%;transform:translate3d(0,0,0);content-visibility:visible" viewBox="0 0 500 500"><defs><clipPath id="a"><path d="M0 0h500v500H0z"/></clipPath><clipPath id="f"><path d="M0 0h500v500H0z"/></clipPath><clipPath id="e"><path d="M0 0h500v500H0z"/></clipPath><clipPath id="d"><path d="M0 0h500v500H0z"/></clipPath><clipPath id="c"><path d="M0 0h500v500H0z"/></clipPath><clipPath id="b"><path d="M0 0h500v500H0z"/></clipPath></defs><g clip-path="url(#a)"><g clip-path="url(#b)" opacity="0" style="display:block"><g fill="none" class="primary design" style="display:none"><path/><path/><path/><path/></g><g fill="#121330" class="primary design" opacity="1" style="display:block"><path d="M250.002 458.345c-9.593 0-19.185-3.651-26.488-10.954l-37.311-37.312a6.116 6.116 0 0 0-4.356-1.804h-52.655c-20.655 0-37.46-16.804-37.46-37.46V318.16a6.121 6.121 0 0 0-1.804-4.355l-37.312-37.314c-14.605-14.604-14.605-38.369-.001-52.975l37.312-37.315a6.12 6.12 0 0 0 1.805-4.355v-52.654c0-20.655 16.805-37.46 37.46-37.46h52.655a6.116 6.116 0 0 0 4.355-1.804l37.312-37.313c7.075-7.076 16.482-10.972 26.489-10.972 10.006 0 19.414 3.896 26.489 10.972l37.311 37.313a6.116 6.116 0 0 0 4.356 1.804h52.655c20.656 0 37.461 16.805 37.461 37.46v52.654a6.12 6.12 0 0 0 1.804 4.355l37.312 37.314c14.604 14.606 14.604 38.371 0 52.976l-37.312 37.313a6.122 6.122 0 0 0-1.804 4.356v52.655c0 20.656-16.805 37.46-37.461 37.46h-52.655a6.12 6.12 0 0 0-4.356 1.803l-37.311 37.313c-7.303 7.303-16.896 10.954-26.49 10.954zm-120.81-335.313a6.167 6.167 0 0 0-6.159 6.16v52.654c0 10.007-3.898 19.414-10.975 26.489l-37.31 37.312a6.168 6.168 0 0 0 .001 8.712l37.311 37.313c7.075 7.074 10.973 16.482 10.973 26.488v52.655a6.167 6.167 0 0 0 6.159 6.16h52.655c10.007 0 19.414 3.896 26.489 10.972l37.311 37.312a6.132 6.132 0 0 0 4.356 1.804c.952 0 2.786-.235 4.356-1.805l37.311-37.311c7.074-7.076 16.482-10.972 26.489-10.972h52.655a6.168 6.168 0 0 0 6.16-6.16V318.16c0-10.005 3.897-19.413 10.972-26.488l37.312-37.313a6.169 6.169 0 0 0 0-8.712l-37.312-37.314c-7.075-7.075-10.972-16.481-10.972-26.487v-52.654a6.168 6.168 0 0 0-6.16-6.16h-52.655c-10.007 0-19.415-3.897-26.489-10.973l-37.311-37.312a6.137 6.137 0 0 0-4.356-1.805c-.953 0-2.786.235-4.356 1.805l-37.312 37.313c-7.074 7.076-16.481 10.972-26.488 10.972h-52.655zm307.133 142.393h.009-.009z" opacity="1"/><path d="M182.295 333.362a15.603 15.603 0 0 1-11.067-4.584c-6.111-6.112-6.111-16.021 0-22.133l135.417-135.417c6.111-6.111 16.022-6.111 22.133 0 6.111 6.112 6.111 16.021 0 22.133L193.361 328.778a15.6 15.6 0 0 1-11.066 4.584zm5.21-125.361c-.67 0-1.35-.039-2.021-.099a22.806 22.806 0 0 1-1.989-.301c-.65-.14-1.31-.3-1.94-.5-.64-.19-1.281-.42-1.89-.67a23.28 23.28 0 0 1-1.82-.859c-.59-.31-1.17-.661-1.72-1.031-.561-.37-1.1-.77-1.62-1.19a20.94 20.94 0 0 1-1.5-1.359c-.47-.47-.93-.971-1.35-1.491-.421-.52-.82-1.059-1.2-1.619-.36-.56-.709-1.14-1.02-1.73-.319-.58-.61-1.2-.86-1.81a20.97 20.97 0 0 1-.68-1.89c-.189-.64-.36-1.291-.49-1.951-.131-.65-.23-1.319-.3-1.989-.069-.66-.1-1.341-.1-2.011 0-.67.031-1.349.1-2.019.07-.66.169-1.33.3-1.99.13-.65.301-1.311.49-1.951.2-.63.419-1.27.68-1.88.25-.62.541-1.229.86-1.819.311-.59.66-1.171 1.02-1.721.38-.56.779-1.1 1.2-1.62.42-.52.88-1.03 1.35-1.5a20.99 20.99 0 0 1 3.12-2.549c.55-.37 1.13-.71 1.72-1.03.59-.31 1.2-.6 1.82-.85.609-.26 1.25-.491 1.89-.681.63-.19 1.29-.359 1.94-.489.66-.13 1.33-.231 1.989-.301 1.341-.14 2.701-.14 4.041 0 .66.07 1.33.171 1.98.301.66.13 1.309.299 1.95.489.64.19 1.27.421 1.89.681.62.25 1.23.54 1.81.85.59.32 1.17.66 1.73 1.03s1.099.78 1.62 1.2c.52.42 1.019.879 1.49 1.349a19.567 19.567 0 0 1 2.55 3.12c.37.55.719 1.131 1.03 1.721.31.59.6 1.199.86 1.819.25.61.481 1.25.67 1.88.2.64.37 1.301.5 1.951.13.66.23 1.33.3 1.99.069.67.1 1.349.1 2.019 0 .67-.031 1.351-.1 2.011-.07.67-.17 1.339-.3 1.989-.13.66-.3 1.311-.5 1.951-.189.64-.42 1.27-.67 1.89-.26.61-.55 1.23-.86 1.81a21.047 21.047 0 0 1-2.22 3.349c-.43.52-.881 1.021-1.36 1.491-.471.48-.97.929-1.49 1.359-.521.42-1.06.82-1.62 1.19s-1.14.721-1.73 1.031c-.58.31-1.19.599-1.81.859-.62.25-1.25.48-1.89.67-.641.2-1.29.36-1.95.5-.65.13-1.32.231-1.98.301-.67.06-1.35.099-2.02.099zm125 125c-.67 0-1.35-.039-2.021-.099a22.806 22.806 0 0 1-1.989-.301c-.65-.13-1.31-.3-1.94-.5-.64-.19-1.281-.42-1.89-.67a23.28 23.28 0 0 1-1.82-.859c-.59-.31-1.17-.661-1.72-1.031-.561-.37-1.1-.77-1.62-1.19-.521-.43-1.03-.879-1.5-1.359-.47-.47-.93-.971-1.35-1.491-.421-.52-.83-1.059-1.2-1.619s-.71-1.14-1.03-1.73c-.31-.58-.6-1.2-.85-1.81a20.97 20.97 0 0 1-.68-1.89c-.189-.64-.36-1.291-.49-1.951-.131-.65-.23-1.319-.3-1.989-.069-.66-.1-1.341-.1-2.011 0-.67.031-1.349.1-2.019.07-.66.169-1.33.3-1.99.13-.65.301-1.31.49-1.94.2-.64.419-1.281.68-1.891.25-.62.54-1.229.85-1.819.32-.59.66-1.171 1.03-1.721.37-.56.779-1.11 1.2-1.62a19.238 19.238 0 0 1 2.85-2.849c.52-.42 1.059-.83 1.62-1.2.55-.37 1.13-.71 1.72-1.03.59-.31 1.2-.6 1.82-.85.609-.26 1.25-.491 1.89-.681.63-.19 1.29-.359 1.94-.489.66-.13 1.33-.231 1.989-.301 1.341-.14 2.701-.14 4.041 0 .66.07 1.33.171 1.98.301.66.13 1.309.299 1.95.489.64.19 1.27.421 1.89.681.62.25 1.23.54 1.81.85.59.32 1.17.66 1.73 1.03s1.099.78 1.62 1.2c.52.42 1.019.879 1.49 1.349a19.567 19.567 0 0 1 2.55 3.12c.37.55.719 1.131 1.03 1.721.31.59.6 1.199.86 1.819.25.61.481 1.251.67 1.891.2.63.36 1.29.5 1.94.13.66.23 1.33.3 1.99.06.67.1 1.349.1 2.019 0 .67-.04 1.341-.1 2.011-.07.67-.17 1.339-.3 1.989-.14.66-.3 1.311-.5 1.951-.189.64-.42 1.27-.67 1.89-.26.61-.55 1.23-.86 1.81a21.047 21.047 0 0 1-2.22 3.349c-.43.52-.881 1.021-1.36 1.491-.471.48-.97.929-1.49 1.359-.521.42-1.06.82-1.62 1.19s-1.14.721-1.73 1.031c-.58.31-1.19.599-1.81.859-.62.25-1.25.48-1.89.67-.641.2-1.29.37-1.95.5-.65.13-1.32.231-1.98.301-.67.06-1.35.099-2.02.099z" opacity="1"/></g><g class="primary design" style="display:none"><path/><path/><path/><path/></g></g><g clip-path="url(#c)" opacity="0" style="display:block"><path fill="none" class="primary design" style="display:none"/><path fill="none" class="primary design" style="display:none"/><path fill="none" class="primary design" style="display:none"/><path fill="none" class="primary design" style="display:none"/><g fill="#121330" class="primary design" opacity="1" style="display:block"><path d="M250.002 458.345c-9.593 0-19.185-3.651-26.488-10.954l-37.311-37.312a6.116 6.116 0 0 0-4.356-1.804h-52.655c-20.655 0-37.46-16.804-37.46-37.46V318.16a6.121 6.121 0 0 0-1.804-4.355l-37.312-37.314c-14.605-14.604-14.605-38.369-.001-52.975l37.312-37.315a6.12 6.12 0 0 0 1.805-4.355v-52.654c0-20.655 16.805-37.46 37.46-37.46h52.655a6.116 6.116 0 0 0 4.355-1.804l37.312-37.313c7.075-7.076 16.482-10.972 26.489-10.972 10.006 0 19.414 3.896 26.489 10.972l37.311 37.313a6.116 6.116 0 0 0 4.356 1.804h52.655c20.656 0 37.461 16.805 37.461 37.46v52.654a6.12 6.12 0 0 0 1.804 4.355l37.312 37.314c14.604 14.606 14.604 38.371 0 52.976l-37.312 37.313a6.122 6.122 0 0 0-1.804 4.356v52.655c0 20.656-16.805 37.46-37.461 37.46h-52.655a6.12 6.12 0 0 0-4.356 1.803l-37.311 37.313c-7.303 7.303-16.896 10.954-26.49 10.954zm-120.81-335.313a6.167 6.167 0 0 0-6.159 6.16v52.654c0 10.007-3.898 19.414-10.975 26.489l-37.31 37.312a6.168 6.168 0 0 0 .001 8.712l37.311 37.313c7.075 7.074 10.973 16.482 10.973 26.488v52.655a6.167 6.167 0 0 0 6.159 6.16h52.655c10.007 0 19.414 3.896 26.489 10.972l37.311 37.312a6.132 6.132 0 0 0 4.356 1.804c.952 0 2.786-.235 4.356-1.805l37.311-37.311c7.074-7.076 16.482-10.972 26.489-10.972h52.655a6.168 6.168 0 0 0 6.16-6.16V318.16c0-10.005 3.897-19.413 10.972-26.488l37.312-37.313a6.169 6.169 0 0 0 0-8.712l-37.312-37.314c-7.075-7.075-10.972-16.481-10.972-26.487v-52.654a6.168 6.168 0 0 0-6.16-6.16h-52.655c-10.007 0-19.415-3.897-26.489-10.973l-37.311-37.312a6.137 6.137 0 0 0-4.356-1.805c-.953 0-2.786.235-4.356 1.805l-37.312 37.313c-7.074 7.076-16.481 10.972-26.488 10.972h-52.655zm307.133 142.393h.009-.009z" opacity="1"/><path d="M182.295 333.362a15.603 15.603 0 0 1-11.067-4.584c-6.111-6.112-6.111-16.021 0-22.133l135.417-135.417c6.111-6.111 16.022-6.111 22.133 0 6.111 6.112 6.111 16.021 0 22.133L193.361 328.778a15.6 15.6 0 0 1-11.066 4.584zm5.21-125.361c-.67 0-1.35-.039-2.021-.099a22.806 22.806 0 0 1-1.989-.301c-.65-.14-1.31-.3-1.94-.5-.64-.19-1.281-.42-1.89-.67a23.28 23.28 0 0 1-1.82-.859c-.59-.31-1.17-.661-1.72-1.031-.561-.37-1.1-.77-1.62-1.19a20.94 20.94 0 0 1-1.5-1.359c-.47-.47-.93-.971-1.35-1.491-.421-.52-.82-1.059-1.2-1.619-.36-.56-.709-1.14-1.02-1.73-.319-.58-.61-1.2-.86-1.81a20.97 20.97 0 0 1-.68-1.89c-.189-.64-.36-1.291-.49-1.951-.131-.65-.23-1.319-.3-1.989-.069-.66-.1-1.341-.1-2.011 0-.67.031-1.349.1-2.019.07-.66.169-1.33.3-1.99.13-.65.301-1.311.49-1.951.2-.63.419-1.27.68-1.88.25-.62.541-1.229.86-1.819.311-.59.66-1.171 1.02-1.721.38-.56.779-1.1 1.2-1.62.42-.52.88-1.03 1.35-1.5a20.99 20.99 0 0 1 3.12-2.549c.55-.37 1.13-.71 1.72-1.03.59-.31 1.2-.6 1.82-.85.609-.26 1.25-.491 1.89-.681.63-.19 1.29-.359 1.94-.489.66-.13 1.33-.231 1.989-.301 1.341-.14 2.701-.14 4.041 0 .66.07 1.33.171 1.98.301.66.13 1.309.299 1.95.489.64.19 1.27.421 1.89.681.62.25 1.23.54 1.81.85.59.32 1.17.66 1.73 1.03s1.099.78 1.62 1.2c.52.42 1.019.879 1.49 1.349a19.567 19.567 0 0 1 2.55 3.12c.37.55.719 1.131 1.03 1.721.31.59.6 1.199.86 1.819.25.61.481 1.25.67 1.88.2.64.37 1.301.5 1.951.13.66.23 1.33.3 1.99.069.67.1 1.349.1 2.019 0 .67-.031 1.351-.1 2.011-.07.67-.17 1.339-.3 1.989-.13.66-.3 1.311-.5 1.951-.189.64-.42 1.27-.67 1.89-.26.61-.55 1.23-.86 1.81a21.047 21.047 0 0 1-2.22 3.349c-.43.52-.881 1.021-1.36 1.491-.471.48-.97.929-1.49 1.359-.521.42-1.06.82-1.62 1.19s-1.14.721-1.73 1.031c-.58.31-1.19.599-1.81.859-.62.25-1.25.48-1.89.67-.641.2-1.29.36-1.95.5-.65.13-1.32.231-1.98.301-.67.06-1.35.099-2.02.099zm125 125c-.67 0-1.35-.039-2.021-.099a22.806 22.806 0 0 1-1.989-.301c-.65-.13-1.31-.3-1.94-.5-.64-.19-1.281-.42-1.89-.67a23.28 23.28 0 0 1-1.82-.859c-.59-.31-1.17-.661-1.72-1.031-.561-.37-1.1-.77-1.62-1.19-.521-.43-1.03-.879-1.5-1.359-.47-.47-.93-.971-1.35-1.491-.421-.52-.83-1.059-1.2-1.619s-.71-1.14-1.03-1.73c-.31-.58-.6-1.2-.85-1.81a20.97 20.97 0 0 1-.68-1.89c-.189-.64-.36-1.291-.49-1.951-.131-.65-.23-1.319-.3-1.989-.069-.66-.1-1.341-.1-2.011 0-.67.031-1.349.1-2.019.07-.66.169-1.33.3-1.99.13-.65.301-1.31.49-1.94.2-.64.419-1.281.68-1.891.25-.62.54-1.229.85-1.819.32-.59.66-1.171 1.03-1.721.37-.56.779-1.11 1.2-1.62a19.238 19.238 0 0 1 2.85-2.849c.52-.42 1.059-.83 1.62-1.2.55-.37 1.13-.71 1.72-1.03.59-.31 1.2-.6 1.82-.85.609-.26 1.25-.491 1.89-.681.63-.19 1.29-.359 1.94-.489.66-.13 1.33-.231 1.989-.301 1.341-.14 2.701-.14 4.041 0 .66.07 1.33.171 1.98.301.66.13 1.309.299 1.95.489.64.19 1.27.421 1.89.681.62.25 1.23.54 1.81.85.59.32 1.17.66 1.73 1.03s1.099.78 1.62 1.2c.52.42 1.019.879 1.49 1.349a19.567 19.567 0 0 1 2.55 3.12c.37.55.719 1.131 1.03 1.721.31.59.6 1.199.86 1.819.25.61.481 1.251.67 1.891.2.63.36 1.29.5 1.94.13.66.23 1.33.3 1.99.06.67.1 1.349.1 2.019 0 .67-.04 1.341-.1 2.011-.07.67-.17 1.339-.3 1.989-.14.66-.3 1.311-.5 1.951-.189.64-.42 1.27-.67 1.89-.26.61-.55 1.23-.86 1.81a21.047 21.047 0 0 1-2.22 3.349c-.43.52-.881 1.021-1.36 1.491-.471.48-.97.929-1.49 1.359-.521.42-1.06.82-1.62 1.19s-1.14.721-1.73 1.031c-.58.31-1.19.599-1.81.859-.62.25-1.25.48-1.89.67-.641.2-1.29.37-1.95.5-.65.13-1.32.231-1.98.301-.67.06-1.35.099-2.02.099z" opacity="1"/></g><g class="primary design" style="display:none"><path/><path/><path/><path/></g></g><g clip-path="url(#d)" opacity="0" style="display:block"><g fill="none" class="primary design" style="display:none"><path/><path/><path/><path/></g><g fill="#121330" class="primary design" opacity="1" style="display:block"><path d="M250.002 458.345c-9.593 0-19.185-3.651-26.488-10.954l-37.311-37.312a6.116 6.116 0 0 0-4.356-1.804h-52.655c-20.655 0-37.46-16.804-37.46-37.46V318.16a6.121 6.121 0 0 0-1.804-4.355l-37.312-37.314c-14.605-14.604-14.605-38.369-.001-52.975l37.312-37.315a6.12 6.12 0 0 0 1.805-4.355v-52.654c0-20.655 16.805-37.46 37.46-37.46h52.655a6.116 6.116 0 0 0 4.355-1.804l37.312-37.313c7.075-7.076 16.482-10.972 26.489-10.972 10.006 0 19.414 3.896 26.489 10.972l37.311 37.313a6.116 6.116 0 0 0 4.356 1.804h52.655c20.656 0 37.461 16.805 37.461 37.46v52.654a6.12 6.12 0 0 0 1.804 4.355l37.312 37.314c14.604 14.606 14.604 38.371 0 52.976l-37.312 37.313a6.122 6.122 0 0 0-1.804 4.356v52.655c0 20.656-16.805 37.46-37.461 37.46h-52.655a6.12 6.12 0 0 0-4.356 1.803l-37.311 37.313c-7.303 7.303-16.896 10.954-26.49 10.954zm-120.81-335.313a6.167 6.167 0 0 0-6.159 6.16v52.654c0 10.007-3.898 19.414-10.975 26.489l-37.31 37.312a6.168 6.168 0 0 0 .001 8.712l37.311 37.313c7.075 7.074 10.973 16.482 10.973 26.488v52.655a6.167 6.167 0 0 0 6.159 6.16h52.655c10.007 0 19.414 3.896 26.489 10.972l37.311 37.312a6.132 6.132 0 0 0 4.356 1.804c.952 0 2.786-.235 4.356-1.805l37.311-37.311c7.074-7.076 16.482-10.972 26.489-10.972h52.655a6.168 6.168 0 0 0 6.16-6.16V318.16c0-10.005 3.897-19.413 10.972-26.488l37.312-37.313a6.169 6.169 0 0 0 0-8.712l-37.312-37.314c-7.075-7.075-10.972-16.481-10.972-26.487v-52.654a6.168 6.168 0 0 0-6.16-6.16h-52.655c-10.007 0-19.415-3.897-26.489-10.973l-37.311-37.312a6.137 6.137 0 0 0-4.356-1.805c-.953 0-2.786.235-4.356 1.805l-37.312 37.313c-7.074 7.076-16.481 10.972-26.488 10.972h-52.655zm307.133 142.393h.009-.009z" opacity="1"/><path d="M182.295 333.362a15.603 15.603 0 0 1-11.067-4.584c-6.111-6.112-6.111-16.021 0-22.133l135.417-135.417c6.111-6.111 16.022-6.111 22.133 0 6.111 6.112 6.111 16.021 0 22.133L193.361 328.778a15.6 15.6 0 0 1-11.066 4.584zm5.21-125.361c-.67 0-1.35-.039-2.021-.099a22.806 22.806 0 0 1-1.989-.301c-.65-.14-1.31-.3-1.94-.5-.64-.19-1.281-.42-1.89-.67a23.28 23.28 0 0 1-1.82-.859c-.59-.31-1.17-.661-1.72-1.031-.561-.37-1.1-.77-1.62-1.19a20.94 20.94 0 0 1-1.5-1.359c-.47-.47-.93-.971-1.35-1.491-.421-.52-.82-1.059-1.2-1.619-.36-.56-.709-1.14-1.02-1.73-.319-.58-.61-1.2-.86-1.81a20.97 20.97 0 0 1-.68-1.89c-.189-.64-.36-1.291-.49-1.951-.131-.65-.23-1.319-.3-1.989-.069-.66-.1-1.341-.1-2.011 0-.67.031-1.349.1-2.019.07-.66.169-1.33.3-1.99.13-.65.301-1.311.49-1.951.2-.63.419-1.27.68-1.88.25-.62.541-1.229.86-1.819.311-.59.66-1.171 1.02-1.721.38-.56.779-1.1 1.2-1.62.42-.52.88-1.03 1.35-1.5a20.99 20.99 0 0 1 3.12-2.549c.55-.37 1.13-.71 1.72-1.03.59-.31 1.2-.6 1.82-.85.609-.26 1.25-.491 1.89-.681.63-.19 1.29-.359 1.94-.489.66-.13 1.33-.231 1.989-.301 1.341-.14 2.701-.14 4.041 0 .66.07 1.33.171 1.98.301.66.13 1.309.299 1.95.489.64.19 1.27.421 1.89.681.62.25 1.23.54 1.81.85.59.32 1.17.66 1.73 1.03s1.099.78 1.62 1.2c.52.42 1.019.879 1.49 1.349a19.567 19.567 0 0 1 2.55 3.12c.37.55.719 1.131 1.03 1.721.31.59.6 1.199.86 1.819.25.61.481 1.25.67 1.88.2.64.37 1.301.5 1.951.13.66.23 1.33.3 1.99.069.67.1 1.349.1 2.019 0 .67-.031 1.351-.1 2.011-.07.67-.17 1.339-.3 1.989-.13.66-.3 1.311-.5 1.951-.189.64-.42 1.27-.67 1.89-.26.61-.55 1.23-.86 1.81a21.047 21.047 0 0 1-2.22 3.349c-.43.52-.881 1.021-1.36 1.491-.471.48-.97.929-1.49 1.359-.521.42-1.06.82-1.62 1.19s-1.14.721-1.73 1.031c-.58.31-1.19.599-1.81.859-.62.25-1.25.48-1.89.67-.641.2-1.29.36-1.95.5-.65.13-1.32.231-1.98.301-.67.06-1.35.099-2.02.099zm125 125c-.67 0-1.35-.039-2.021-.099a22.806 22.806 0 0 1-1.989-.301c-.65-.13-1.31-.3-1.94-.5-.64-.19-1.281-.42-1.89-.67a23.28 23.28 0 0 1-1.82-.859c-.59-.31-1.17-.661-1.72-1.031-.561-.37-1.1-.77-1.62-1.19-.521-.43-1.03-.879-1.5-1.359-.47-.47-.93-.971-1.35-1.491-.421-.52-.83-1.059-1.2-1.619s-.71-1.14-1.03-1.73c-.31-.58-.6-1.2-.85-1.81a20.97 20.97 0 0 1-.68-1.89c-.189-.64-.36-1.291-.49-1.951-.131-.65-.23-1.319-.3-1.989-.069-.66-.1-1.341-.1-2.011 0-.67.031-1.349.1-2.019.07-.66.169-1.33.3-1.99.13-.65.301-1.31.49-1.94.2-.64.419-1.281.68-1.891.25-.62.54-1.229.85-1.819.32-.59.66-1.171 1.03-1.721.37-.56.779-1.11 1.2-1.62a19.238 19.238 0 0 1 2.85-2.849c.52-.42 1.059-.83 1.62-1.2.55-.37 1.13-.71 1.72-1.03.59-.31 1.2-.6 1.82-.85.609-.26 1.25-.491 1.89-.681.63-.19 1.29-.359 1.94-.489.66-.13 1.33-.231 1.989-.301 1.341-.14 2.701-.14 4.041 0 .66.07 1.33.171 1.98.301.66.13 1.309.299 1.95.489.64.19 1.27.421 1.89.681.62.25 1.23.54 1.81.85.59.32 1.17.66 1.73 1.03s1.099.78 1.62 1.2c.52.42 1.019.879 1.49 1.349a19.567 19.567 0 0 1 2.55 3.12c.37.55.719 1.131 1.03 1.721.31.59.6 1.199.86 1.819.25.61.481 1.251.67 1.891.2.63.36 1.29.5 1.94.13.66.23 1.33.3 1.99.06.67.1 1.349.1 2.019 0 .67-.04 1.341-.1 2.011-.07.67-.17 1.339-.3 1.989-.14.66-.3 1.311-.5 1.951-.189.64-.42 1.27-.67 1.89-.26.61-.55 1.23-.86 1.81a21.047 21.047 0 0 1-2.22 3.349c-.43.52-.881 1.021-1.36 1.491-.471.48-.97.929-1.49 1.359-.521.42-1.06.82-1.62 1.19s-1.14.721-1.73 1.031c-.58.31-1.19.599-1.81.859-.62.25-1.25.48-1.89.67-.641.2-1.29.37-1.95.5-.65.13-1.32.231-1.98.301-.67.06-1.35.099-2.02.099z" opacity="1"/></g><g class="primary design" style="display:none"><path/><path/><path/><path/></g></g><g clip-path="url(#e)" style="display:block"><path fill="none" class="primary design" style="display:none"/><path fill="none" class="primary design" style="display:none"/><path fill="none" class="primary design" style="display:none"/><path fill="none" class="primary design" style="display:none"/><g fill="#121330" class="primary design" style="display:block"><path d="M250.002 458.345c-9.593 0-19.185-3.651-26.488-10.954l-37.311-37.312a6.116 6.116 0 0 0-4.356-1.804h-52.655c-20.655 0-37.46-16.804-37.46-37.46V318.16a6.121 6.121 0 0 0-1.804-4.355l-37.312-37.314c-14.605-14.604-14.605-38.369-.001-52.975l37.312-37.315a6.12 6.12 0 0 0 1.805-4.355v-52.654c0-20.655 16.805-37.46 37.46-37.46h52.655a6.116 6.116 0 0 0 4.355-1.804l37.312-37.313c7.075-7.076 16.482-10.972 26.489-10.972 10.006 0 19.414 3.896 26.489 10.972l37.311 37.313a6.116 6.116 0 0 0 4.356 1.804h52.655c20.656 0 37.461 16.805 37.461 37.46v52.654a6.12 6.12 0 0 0 1.804 4.355l37.312 37.314c14.604 14.606 14.604 38.371 0 52.976l-37.312 37.313a6.122 6.122 0 0 0-1.804 4.356v52.655c0 20.656-16.805 37.46-37.461 37.46h-52.655a6.12 6.12 0 0 0-4.356 1.803l-37.311 37.313c-7.303 7.303-16.896 10.954-26.49 10.954zm-120.81-335.313a6.167 6.167 0 0 0-6.159 6.16v52.654c0 10.007-3.898 19.414-10.975 26.489l-37.31 37.312a6.168 6.168 0 0 0 .001 8.712l37.311 37.313c7.075 7.074 10.973 16.482 10.973 26.488v52.655a6.167 6.167 0 0 0 6.159 6.16h52.655c10.007 0 19.414 3.896 26.489 10.972l37.311 37.312a6.132 6.132 0 0 0 4.356 1.804c.952 0 2.786-.235 4.356-1.805l37.311-37.311c7.074-7.076 16.482-10.972 26.489-10.972h52.655a6.168 6.168 0 0 0 6.16-6.16V318.16c0-10.005 3.897-19.413 10.972-26.488l37.312-37.313a6.169 6.169 0 0 0 0-8.712l-37.312-37.314c-7.075-7.075-10.972-16.481-10.972-26.487v-52.654a6.168 6.168 0 0 0-6.16-6.16h-52.655c-10.007 0-19.415-3.897-26.489-10.973l-37.311-37.312a6.137 6.137 0 0 0-4.356-1.805c-.953 0-2.786.235-4.356 1.805l-37.312 37.313c-7.074 7.076-16.481 10.972-26.488 10.972h-52.655zm307.133 142.393h.009-.009z"/><path d="M182.295 333.362a15.603 15.603 0 0 1-11.067-4.584c-6.111-6.112-6.111-16.021 0-22.133l135.417-135.417c6.111-6.111 16.022-6.111 22.133 0 6.111 6.112 6.111 16.021 0 22.133L193.361 328.778a15.6 15.6 0 0 1-11.066 4.584zm5.21-125.361c-.67 0-1.35-.039-2.021-.099a22.806 22.806 0 0 1-1.989-.301c-.65-.14-1.31-.3-1.94-.5-.64-.19-1.281-.42-1.89-.67a23.28 23.28 0 0 1-1.82-.859c-.59-.31-1.17-.661-1.72-1.031-.561-.37-1.1-.77-1.62-1.19a20.94 20.94 0 0 1-1.5-1.359c-.47-.47-.93-.971-1.35-1.491-.421-.52-.82-1.059-1.2-1.619-.36-.56-.709-1.14-1.02-1.73-.319-.58-.61-1.2-.86-1.81a20.97 20.97 0 0 1-.68-1.89c-.189-.64-.36-1.291-.49-1.951-.131-.65-.23-1.319-.3-1.989-.069-.66-.1-1.341-.1-2.011 0-.67.031-1.349.1-2.019.07-.66.169-1.33.3-1.99.13-.65.301-1.311.49-1.951.2-.63.419-1.27.68-1.88.25-.62.541-1.229.86-1.819.311-.59.66-1.171 1.02-1.721.38-.56.779-1.1 1.2-1.62.42-.52.88-1.03 1.35-1.5a20.99 20.99 0 0 1 3.12-2.549c.55-.37 1.13-.71 1.72-1.03.59-.31 1.2-.6 1.82-.85.609-.26 1.25-.491 1.89-.681.63-.19 1.29-.359 1.94-.489.66-.13 1.33-.231 1.989-.301 1.341-.14 2.701-.14 4.041 0 .66.07 1.33.171 1.98.301.66.13 1.309.299 1.95.489.64.19 1.27.421 1.89.681.62.25 1.23.54 1.81.85.59.32 1.17.66 1.73 1.03s1.099.78 1.62 1.2c.52.42 1.019.879 1.49 1.349a19.567 19.567 0 0 1 2.55 3.12c.37.55.719 1.131 1.03 1.721.31.59.6 1.199.86 1.819.25.61.481 1.25.67 1.88.2.64.37 1.301.5 1.951.13.66.23 1.33.3 1.99.069.67.1 1.349.1 2.019 0 .67-.031 1.351-.1 2.011-.07.67-.17 1.339-.3 1.989-.13.66-.3 1.311-.5 1.951-.189.64-.42 1.27-.67 1.89-.26.61-.55 1.23-.86 1.81a21.047 21.047 0 0 1-2.22 3.349c-.43.52-.881 1.021-1.36 1.491-.471.48-.97.929-1.49 1.359-.521.42-1.06.82-1.62 1.19s-1.14.721-1.73 1.031c-.58.31-1.19.599-1.81.859-.62.25-1.25.48-1.89.67-.641.2-1.29.36-1.95.5-.65.13-1.32.231-1.98.301-.67.06-1.35.099-2.02.099zm125 125c-.67 0-1.35-.039-2.021-.099a22.806 22.806 0 0 1-1.989-.301c-.65-.13-1.31-.3-1.94-.5-.64-.19-1.281-.42-1.89-.67a23.28 23.28 0 0 1-1.82-.859c-.59-.31-1.17-.661-1.72-1.031-.561-.37-1.1-.77-1.62-1.19-.521-.43-1.03-.879-1.5-1.359-.47-.47-.93-.971-1.35-1.491-.421-.52-.83-1.059-1.2-1.619s-.71-1.14-1.03-1.73c-.31-.58-.6-1.2-.85-1.81a20.97 20.97 0 0 1-.68-1.89c-.189-.64-.36-1.291-.49-1.951-.131-.65-.23-1.319-.3-1.989-.069-.66-.1-1.341-.1-2.011 0-.67.031-1.349.1-2.019.07-.66.169-1.33.3-1.99.13-.65.301-1.31.49-1.94.2-.64.419-1.281.68-1.891.25-.62.54-1.229.85-1.819.32-.59.66-1.171 1.03-1.721.37-.56.779-1.11 1.2-1.62a19.238 19.238 0 0 1 2.85-2.849c.52-.42 1.059-.83 1.62-1.2.55-.37 1.13-.71 1.72-1.03.59-.31 1.2-.6 1.82-.85.609-.26 1.25-.491 1.89-.681.63-.19 1.29-.359 1.94-.489.66-.13 1.33-.231 1.989-.301 1.341-.14 2.701-.14 4.041 0 .66.07 1.33.171 1.98.301.66.13 1.309.299 1.95.489.64.19 1.27.421 1.89.681.62.25 1.23.54 1.81.85.59.32 1.17.66 1.73 1.03s1.099.78 1.62 1.2c.52.42 1.019.879 1.49 1.349a19.567 19.567 0 0 1 2.55 3.12c.37.55.719 1.131 1.03 1.721.31.59.6 1.199.86 1.819.25.61.481 1.251.67 1.891.2.63.36 1.29.5 1.94.13.66.23 1.33.3 1.99.06.67.1 1.349.1 2.019 0 .67-.04 1.341-.1 2.011-.07.67-.17 1.339-.3 1.989-.14.66-.3 1.311-.5 1.951-.189.64-.42 1.27-.67 1.89-.26.61-.55 1.23-.86 1.81a21.047 21.047 0 0 1-2.22 3.349c-.43.52-.881 1.021-1.36 1.491-.471.48-.97.929-1.49 1.359-.521.42-1.06.82-1.62 1.19s-1.14.721-1.73 1.031c-.58.31-1.19.599-1.81.859-.62.25-1.25.48-1.89.67-.641.2-1.29.37-1.95.5-.65.13-1.32.231-1.98.301-.67.06-1.35.099-2.02.099z"/></g><g class="primary design" style="display:none"><path/><path/><path/><path/></g></g><g clip-path="url(#f)" opacity="0" style="display:block"><path fill="none" class="primary design" style="display:none"/><path fill="none" class="primary design" style="display:none"/><path fill="none" class="primary design" style="display:none"/><path fill="none" class="primary design" style="display:none"/><path fill="none" class="primary design" style="display:none"/><g class="primary design" style="display:none"><path/><path/><path/><path/></g></g><g class="com" style="display:none"><path/><path/><path/><path/><path/><path/><path/><path/><path/><path/><path/><path/></g></g></svg>