<svg xmlns="http://www.w3.org/2000/svg" width="500" height="500" style="width:100%;height:100%;transform:translate3d(0,0,0);content-visibility:visible" viewBox="0 0 500 500"><defs><clipPath id="e"><path d="M0 0h500v500H0z"/></clipPath><clipPath id="p"><path d="M0 0h500v500H0z"/></clipPath><clipPath id="o"><path d="M0 0h500v500H0z"/></clipPath><clipPath id="l"><path d="M0 0h500v500H0z"/></clipPath><clipPath id="m"><path d="M0 0h500v500H0z"/></clipPath><clipPath id="i"><path d="M0 0h500v500H0z"/></clipPath><clipPath id="j"><path d="M0 0h500v500H0z"/></clipPath><clipPath id="f"><path d="M0 0h500v500H0z"/></clipPath><mask id="n" mask-type="alpha"><use xmlns:ns1="http://www.w3.org/1999/xlink" ns1:href="#a"/></mask><mask id="k" mask-type="alpha"><use xmlns:ns2="http://www.w3.org/1999/xlink" ns2:href="#b"/></mask><mask id="h" mask-type="alpha"><use xmlns:ns3="http://www.w3.org/1999/xlink" ns3:href="#c"/></mask><mask id="g" mask-type="alpha"><use xmlns:ns4="http://www.w3.org/1999/xlink" ns4:href="#d"/></mask><g id="a" class="primary design" style="display:block"><path fill="red" d="M500-400v500H0v-500h500z"/><path fill-opacity="0" stroke="#121330" stroke-width="0" d="M500-400v500H0v-500h500z"/></g><g id="b" class="primary design" style="display:block"><path fill="#121330" d="M500-400v500H0v-500h500z"/><path fill-opacity="0" stroke="#121330" stroke-width="0" d="M500-400v500H0v-500h500z"/></g><g id="c" class="primary design" style="display:block"><path fill="#121330" d="M500-400v500H0v-500h500z"/><path fill-opacity="0" stroke="#121330" stroke-width="0" d="M500-400v500H0v-500h500z"/></g><g id="d" class="primary design" style="display:block"><path fill="#121330" d="M500-400v500H0v-500h500z"/><path fill-opacity="0" stroke="#121330" stroke-width="0" d="M500-400v500H0v-500h500z"/></g></defs><g clip-path="url(#e)"><g clip-path="url(#f)" opacity="0" style="display:block"><g class="primary design" style="display:none"><path/><path/><path/></g><g fill="none" class="primary design" style="display:none"><path/><path/></g><path fill="none" stroke="#121330" stroke-linecap="round" stroke-linejoin="round" stroke-width="31.3" d="M36.296 88.959V-4.792m-72.754 93.335v-93.75m-97.336-83.334h268.457m-280.496-83.334 33.403 306.595c2.303 21.14 20.155 37.155 41.421 37.155H71.01c21.264 0 39.119-16.015 41.422-37.155l33.401-306.595h-291.666z" class="primary design" opacity="1" style="display:block" transform="translate(249.998 270.835)"/><g class="primary design" mask="url(#g)" style="display:block"><path fill="#121330" d="m265.107 189.224-55.454 8.285-86.543-31.496 5.3-55.427 44.232-53.445 61.449-20.286 56.077 51.855 8.287 55.44-33.348 45.074z"/><path fill="#121330" d="m265.103 189.226-55.45 8.288-86.54-31.504 5.296-55.423 44.237-53.443 61.451-20.288 56.07 51.85 8.287 55.451-33.35 45.07z"/><path fill="none" stroke="#121330" stroke-linecap="round" stroke-linejoin="round" stroke-width="31.3" d="m265.103 189.226-55.45 8.288-86.54-31.504 5.296-55.423 44.237-53.443 61.451-20.288 56.07 51.85 8.287 55.451-33.35 45.07z"/></g><g class="primary design" mask="url(#h)" style="display:block"><path fill="#121330" d="m272.003 99 45.085-45.086 45.092 45.092-45.085 45.085L272.003 99z"/><path fill="none" stroke="#121330" stroke-linecap="round" stroke-linejoin="round" stroke-width="31.3" d="m272 99 45.09-45.09L362.182 99l-45.09 45.09L272.001 99z"/></g></g><g clip-path="url(#i)" opacity="0" style="display:block"><path fill="none" stroke="#121330" stroke-linecap="round" stroke-linejoin="round" stroke-width="31.3" d="M36.296 88.959V-4.792m-72.754 93.335v-93.75m-97.336-83.334h268.457m-280.496-83.334 33.403 306.595c2.303 21.14 20.155 37.155 41.421 37.155H71.01c21.264 0 39.119-16.015 41.422-37.155l33.401-306.595h-291.666z" class="primary design" opacity="1" style="display:block" transform="translate(249.998 270.835)"/><g clip-path="url(#j)" mask="url(#k)" style="display:block"><g class="primary design" style="display:block"><path fill="#121330" d="m272.003 99 45.085-45.086 45.092 45.092-45.085 45.085L272.003 99z"/><path fill="none" stroke="#121330" stroke-linecap="round" stroke-linejoin="round" stroke-width="31.3" d="m272 99 45.09-45.09L362.182 99l-45.09 45.09L272.001 99z"/></g><g class="primary design" style="display:block"><path fill="#121330" d="m265.107 189.224-55.454 8.285-86.543-31.496 5.3-55.427 44.232-53.445 61.449-20.286 56.077 51.855 8.287 55.44-33.348 45.074z"/><path fill="#121330" d="m265.103 189.226-55.45 8.288-86.54-31.504 5.296-55.423 44.237-53.443 61.451-20.288 56.07 51.85 8.287 55.451-33.35 45.07z"/><path fill="none" stroke="#121330" stroke-linecap="round" stroke-linejoin="round" stroke-width="31.3" d="m265.103 189.226-55.45 8.288-86.54-31.504 5.296-55.423 44.237-53.443 61.451-20.288 56.07 51.85 8.287 55.451-33.35 45.07z"/></g><g class="primary design" style="display:none"><path/><path fill="none"/></g><g class="primary design" style="display:block"><path fill="#121330" d="m234.918-32.982-52.936-88.1 88.1-52.936 52.936 88.1-88.1 52.936z"/><path fill="none" stroke="#121330" stroke-linecap="round" stroke-linejoin="round" stroke-width="31.3" d="m234.917-32.978-52.939-88.105 88.105-52.939 52.939 88.105-88.105 52.939z"/></g></g></g><g clip-path="url(#l)" opacity="0" style="display:block"><g fill="#121330" class="primary design" opacity="1" style="display:block"><path d="M421.85 83.362H265.623V57.324c0-8.54-7.082-15.622-15.622-15.622s-15.623 7.082-15.623 15.622v26.038H78.154c-8.54 0-15.622 7.082-15.622 15.622s7.082 15.623 15.622 15.623h12.082l31.87 292.661c3.124 29.162 27.704 51.034 56.866 51.034h142.06c29.37 0 53.742-21.872 56.866-51.034l31.87-292.661h12.081c8.54 0 15.623-7.082 15.623-15.623 0-8.54-7.082-15.622-15.623-15.622zm-74.99 320.574c-1.458 13.123-12.498 23.12-25.829 23.12h-142.06c-13.332 0-24.371-9.997-25.83-23.12l-22.496-206.01h238.712l-22.497 206.01zm25.83-237.254H127.313l-5.624-52.075h256.834l-5.832 52.075z" opacity="1"/><path d="M286.246 250.419c-8.54 0-15.622 7.082-15.622 15.622v93.735c0 8.54 7.082 15.623 15.622 15.623s15.623-7.083 15.623-15.623v-93.735c0-8.54-6.874-15.622-15.623-15.622zm-72.696-.417c-8.54 0-15.623 7.082-15.623 15.622v93.735c0 8.54 7.082 15.623 15.622 15.623s15.623-7.082 15.623-15.623v-93.735c0-8.54-7.082-15.622-15.623-15.622z" opacity="1"/></g><g fill="none" class="primary design" style="display:none"><path/><path/></g><path fill="none" class="primary design" style="display:none"/><g clip-path="url(#m)" mask="url(#n)" style="display:none"><g class="primary design" style="display:none"><path/><path/><path fill="none"/></g><g class="primary design" style="display:none"><path/><path fill="none"/></g></g></g><g clip-path="url(#o)" style="display:block"><g fill="#121330" class="primary design" style="display:block"><path d="M421.85 83.362H265.623V57.324c0-8.54-7.082-15.622-15.622-15.622s-15.623 7.082-15.623 15.622v26.038H78.154c-8.54 0-15.622 7.082-15.622 15.622s7.082 15.623 15.622 15.623h12.082l31.87 292.661c3.124 29.162 27.704 51.034 56.866 51.034h142.06c29.37 0 53.742-21.872 56.866-51.034l31.87-292.661h12.081c8.54 0 15.623-7.082 15.623-15.623 0-8.54-7.082-15.622-15.623-15.622zm-74.99 320.574c-1.458 13.123-12.498 23.12-25.829 23.12h-142.06c-13.332 0-24.371-9.997-25.83-23.12l-22.496-206.01h238.712l-22.497 206.01zm25.83-237.254H127.313l-5.624-52.075h256.834l-5.832 52.075z"/><path d="M286.246 250.419c-8.54 0-15.622 7.082-15.622 15.622v93.735c0 8.54 7.082 15.623 15.622 15.623s15.623-7.083 15.623-15.623v-93.735c0-8.54-6.874-15.622-15.623-15.622zm-72.696-.417c-8.54 0-15.623 7.082-15.623 15.622v93.735c0 8.54 7.082 15.623 15.622 15.623s15.623-7.082 15.623-15.623v-93.735c0-8.54-7.082-15.622-15.623-15.622z"/></g><g class="primary design" style="display:none"><path/><path/><path/></g><g fill="none" class="primary design" style="display:none"><path/><path/></g><g fill="none" class="primary design" style="display:none"><path/><path/></g><g fill="none" class="primary design" style="display:none"><path/><path/></g><path fill="none" class="primary design" style="display:none"/></g><g clip-path="url(#p)" opacity="0" style="display:block"><g class="primary design" style="display:none"><path/><path/><path/></g><g fill="none" class="primary design" style="display:none"><path/><path/></g><path fill="none" class="primary design" style="display:none"/></g><g class="com" style="display:none"><path/><path/><path/><path/><path/><path/><path/><path/><path/><path/><path/><path/></g></g></svg>