<svg xmlns="http://www.w3.org/2000/svg" width="500" height="500" style="width:100%;height:100%;transform:translate3d(0,0,0);content-visibility:visible" viewBox="0 0 500 500"><defs><clipPath id="a"><path d="M0 0h500v500H0z"/></clipPath><clipPath id="c"><path d="M0 0h500v500H0z"/></clipPath><clipPath id="b"><path d="M0 0h500v500H0z"/></clipPath></defs><g clip-path="url(#a)"><g clip-path="url(#b)" style="display:block"><path fill="none" class="primary design" style="display:none"/><path fill="none" class="primary design" style="display:none"/><path fill="none" class="primary design" style="display:none"/><path fill="none" class="primary design" style="display:none"/><path fill="none" class="primary design" style="display:none"/><path fill="none" class="primary design" style="display:none"/><path fill="none" class="primary design" style="display:none"/><path fill="none" class="primary design" style="display:none"/><path fill="#121330" d="M125.003 62.478H98.961c-20.117 0-36.484 16.366-36.484 36.483v26.042c0 8.643 7.006 15.649 15.65 15.649s15.651-7.006 15.651-15.649V98.961c0-2.81 2.373-5.184 5.183-5.184h26.042c8.644 0 15.65-7.007 15.65-15.65s-7.006-15.649-15.65-15.649zm125 31.299h26.042c2.81 0 5.183 2.374 5.183 5.184v26.042c0 8.643 7.007 15.649 15.651 15.649s15.65-7.006 15.65-15.649V98.961c0-20.117-16.367-36.483-36.484-36.483h-26.042c-8.644 0-15.65 7.006-15.65 15.649 0 8.643 7.006 15.65 15.65 15.65zm151.036 73.056h-177.09c-20.117 0-36.483 16.367-36.483 36.484v197.916c0 20.117 16.366 36.484 36.483 36.484h177.09c20.117 0 36.483-16.367 36.483-36.484V203.317c0-20.117-16.366-36.484-36.483-36.484zm5.183 234.4a5.19 5.19 0 0 1-5.183 5.184h-177.09a5.19 5.19 0 0 1-5.183-5.184V203.317a5.19 5.19 0 0 1 5.183-5.184h177.09a5.19 5.19 0 0 1 5.183 5.184v197.916zm-281.219-99.171H98.961c-2.81 0-5.183-2.374-5.183-5.184v-26.042c0-8.643-7.007-15.649-15.651-15.649s-15.65 7.006-15.65 15.649v26.042c0 20.117 16.367 36.483 36.484 36.483h26.042c8.644 0 15.65-7.006 15.65-15.649 0-8.643-7.006-15.65-15.65-15.65z" class="primary design" style="display:block"/><g class="primary design" style="display:none"><path/><path/><path/><path/></g></g><g clip-path="url(#c)" opacity="0" style="display:block"><path fill="none" class="primary design" style="display:none"/><path fill="none" class="primary design" style="display:none"/><path fill="none" class="primary design" style="display:none"/><path fill="none" class="primary design" style="display:none"/><g class="primary design" style="display:none"><path/><path/><path/><path/></g></g><g class="com" style="display:none"><path/><path/><path/><path/><path/><path/><path/><path/><path/><path/><path/><path/></g></g></svg>