<svg xmlns="http://www.w3.org/2000/svg" width="500" height="500" style="width:100%;height:100%;transform:translate3d(0,0,0);content-visibility:visible" viewBox="0 0 500 500"><defs><clipPath id="a"><path d="M0 0h500v500H0z"/></clipPath><clipPath id="c"><path d="M0 0h500v500H0z"/></clipPath><clipPath id="b"><path d="M0 0h500v500H0z"/></clipPath></defs><g clip-path="url(#a)"><g clip-path="url(#b)" style="display:block"><path fill="none" class="primary design" style="display:none"/><path fill="none" class="primary design" style="display:none"/><path fill="none" class="primary design" style="display:none"/><g class="primary design" style="display:none"><path/><path/><path/></g><path fill="#121330" d="M98.962 72.944h302.084c8.644 0 15.65-7.007 15.65-15.65s-7.006-15.65-15.65-15.65H98.962c-8.643 0-15.65 7.007-15.65 15.65s7.007 15.65 15.65 15.65zm302.078 353.63H98.955c-8.643 0-15.65 7.007-15.65 15.65s7.007 15.65 15.65 15.65H401.04c8.644 0 15.651-7.007 15.651-15.65s-7.007-15.65-15.651-15.65zM292.695 178.291h.001a15.65 15.65 0 0 0 11.065-26.717l-42.694-42.692-.037-.034a15.743 15.743 0 0 0-1.11-1.003c-.179-.147-.368-.274-.551-.412-.225-.169-.446-.343-.68-.5-.219-.146-.446-.273-.67-.407-.214-.128-.424-.262-.644-.38-.229-.122-.463-.226-.696-.336-.23-.109-.456-.223-.692-.321-.226-.094-.457-.168-.687-.251-.252-.091-.501-.187-.759-.265-.23-.07-.464-.12-.696-.179-.262-.066-.521-.14-.788-.193-.27-.053-.542-.085-.814-.124-.233-.034-.463-.078-.699-.101-.509-.05-1.02-.077-1.531-.077l-.012-.001H250c-.516 0-1.031.027-1.545.078-.227.022-.448.065-.672.097-.281.04-.563.074-.842.129-.258.051-.508.121-.761.185-.242.061-.485.114-.725.187-.248.075-.487.168-.729.255-.24.086-.481.164-.717.262-.225.094-.441.203-.661.307-.243.114-.489.222-.727.35-.209.112-.408.24-.611.361-.235.14-.472.274-.701.427-.224.15-.435.316-.651.477-.193.144-.39.279-.578.433a15.9 15.9 0 0 0-1.107 1l-.039.036-42.688 42.688a15.65 15.65 0 0 0 11.065 26.716l27.039.002v143.737l-27.037-.002h-.001a15.65 15.65 0 0 0-11.065 26.717l42.611 42.608c.401.407.824.792 1.267 1.153l.076.058c.371.299.755.583 1.153.847.122.081.251.15.375.228.307.192.613.381.934.552.157.084.32.153.48.231.298.146.595.292.903.419.169.069.341.125.512.188.306.114.611.229.926.324.182.055.366.093.549.141.308.081.614.165.929.227.226.045.455.069.683.104.273.041.544.091.822.118.471.046.943.068 1.416.072.04 0 .078.006.118.006h.006c.517 0 1.033-.028 1.548-.079.189-.019.373-.055.56-.08.321-.043.643-.084.961-.147.214-.043.421-.103.631-.154.289-.07.578-.135.863-.222.193-.059.379-.133.569-.199.296-.103.592-.202.883-.323.157-.065.307-.144.461-.214.314-.143.627-.285.932-.449.117-.063.227-.136.342-.202.329-.188.657-.378.974-.592.076-.051.146-.11.221-.162a15.672 15.672 0 0 0 2.122-1.761l42.688-42.688a15.65 15.65 0 0 0-11.065-26.716l-27.046-.002V178.289l27.044.002z" class="primary design" style="display:block"/></g><g clip-path="url(#c)" opacity="0" style="display:block"><path fill="none" class="primary design" style="display:none"/><path fill="none" class="primary design" style="display:none"/><path fill="none" class="primary design" style="display:none"/><g class="primary design" style="display:none"><path/><path/><path/></g></g><g class="com" style="display:none"><path/><path/><path/><path/><path/><path/><path/><path/><path/><path/><path/><path/></g></g></svg>