<svg xmlns="http://www.w3.org/2000/svg" width="500" height="500" style="width:100%;height:100%;transform:translate3d(0,0,0);content-visibility:visible" viewBox="0 0 500 500"><defs><clipPath id="a"><path d="M0 0h500v500H0z"/></clipPath><clipPath id="c"><path d="M0 0h500v500H0z"/></clipPath><clipPath id="b"><path d="M0 0h500v500H0z"/></clipPath></defs><g clip-path="url(#a)"><g clip-path="url(#b)" style="display:block"><g fill="none" class="primary design" style="display:none"><path/><path/></g><g fill="none" class="primary design" style="display:none"><path/><path/></g><path fill="none" class="primary design" style="display:none"/><g fill="#121330" class="primary design" style="display:block"><path d="m386.407 274.999-45.665-8.059c-21.901-3.863-44.333 5.381-57.149 23.553l-4.299 6.097c-38.75-25.084-71.935-58.024-97.082-96.364l6.573-4.655c18.106-12.825 27.314-35.231 23.458-57.081l-8.069-45.726a36.61 36.61 0 0 0-36.102-30.287H99.417a57.678 57.678 0 0 0-43.508 19.825 58.001 58.001 0 0 0-13.705 46.088 359.403 359.403 0 0 0 35.115 112.544c17.4 34.521 40.13 65.931 67.559 93.36 27.43 27.429 58.839 50.159 93.36 67.559a359.405 359.405 0 0 0 112.544 35.116 58.004 58.004 0 0 0 46.089-13.705 57.678 57.678 0 0 0 19.825-43.508V311.1a36.607 36.607 0 0 0-30.289-36.101zm-1.012 104.757c0 7.738-3.223 14.805-9.077 19.902a26.71 26.71 0 0 1-21.228 6.31C209.367 385.719 93.453 269.804 73.206 124.082a26.72 26.72 0 0 1 6.309-21.228C84.612 97 91.68 93.777 99.417 93.777h68.655a5.353 5.353 0 0 1 5.278 4.428l8.069 45.724c1.764 9.991-2.447 20.236-10.726 26.1l-18.621 13.189c-6.656 4.715-8.575 13.752-4.408 20.765 31.012 52.197 75.277 96.164 128.01 127.145 7.02 4.125 16.026 2.177 20.717-4.474l12.78-18.121c5.86-8.31 16.123-12.536 26.131-10.77l45.665 8.059a5.353 5.353 0 0 1 4.428 5.278v68.656z"/><path d="M421.88 62.477h-93.751c-8.644 0-15.651 7.007-15.651 15.65s7.007 15.65 15.651 15.65h55.967l-87.867 87.868c-6.111 6.112-6.111 16.02 0 22.132a15.603 15.603 0 0 0 11.067 4.584 15.6 15.6 0 0 0 11.066-4.584l87.867-87.868v55.968c0 8.643 7.007 15.65 15.651 15.65s15.65-7.007 15.65-15.65v-93.75c0-8.643-7.006-15.65-15.65-15.65z"/></g><g class="primary design" style="display:none"><path/><path/></g></g><g clip-path="url(#c)" opacity="0" style="display:block"><g class="primary design" style="display:none"><path/><path/></g><path fill="none" class="primary design" style="display:none"/><g fill="none" class="primary design" style="display:none"><path/><path/></g></g><g class="com" style="display:none"><path/><path/><path/><path/><path/><path/><path/><path/><path/><path/><path/><path/></g></g></svg>