<svg xmlns="http://www.w3.org/2000/svg" width="500" height="500" style="width:100%;height:100%;transform:translate3d(0,0,0);content-visibility:visible" viewBox="0 0 500 500"><defs><clipPath id="a"><path d="M0 0h500v500H0z"/></clipPath><clipPath id="c"><path d="M0 0h500v500H0z"/></clipPath><clipPath id="b"><path d="M0 0h500v500H0z"/></clipPath></defs><g clip-path="url(#a)"><g clip-path="url(#b)" style="display:block"><g fill="none" class="primary design" style="display:none"><path/><path/></g><path fill="none" class="primary design" style="display:none"/><path fill="none" class="primary design" style="display:none"/><path fill="#121330" d="M192.707 135.395H-80.091L113.553-58.247c15.271-15.273 15.27-40.123-.001-55.394l-41.577-41.576c-15.273-15.271-40.122-15.271-55.395 0L-203.778 65.141a15.651 15.651 0 0 0-4.584 11.067v74.837c0 8.643 7.006 15.649 15.65 15.649h67.699l.01.001h317.71c8.644 0 15.65-7.007 15.65-15.65s-7.006-15.65-15.65-15.65zM38.713-133.084c3.068-3.068 8.061-3.068 11.129 0l41.577 41.576c3.068 3.068 3.068 8.061 0 11.129L52.593-41.553-.112-94.259l38.825-38.825zM-177.062 82.69-22.245-72.126 30.46-19.42l-154.815 154.815h-52.707V82.69z" class="primary design" style="display:block" transform="translate(250 250)"/><path class="primary design" style="display:none"/></g><g clip-path="url(#c)" opacity="0" style="display:block"><path fill="none" class="primary design" style="display:none"/><path fill="none" class="primary design" style="display:none"/><path class="primary design" style="display:none"/></g><g class="com" style="display:none"><path/><path/><path/><path/><path/><path/><path/><path/><path/><path/><path/><path/></g></g></svg>