<svg xmlns="http://www.w3.org/2000/svg" width="500" height="500" style="width:100%;height:100%;transform:translate3d(0,0,0);content-visibility:visible" viewBox="0 0 500 500"><defs><clipPath id="e"><path d="M0 0h500v500H0z"/></clipPath><clipPath id="k"><path d="M0 0h500v500H0z"/></clipPath><clipPath id="j"><path d="M0 0h500v500H0z"/></clipPath><clipPath id="i"><path d="M0 0h500v500H0z"/></clipPath><clipPath id="f"><path d="M0 0h500v500H0z"/></clipPath><filter id="a" width="100%" height="100%" x="0%" y="0%" filterUnits="objectBoundingBox"><feComponentTransfer in="SourceGraphic"><feFuncA tableValues="1.0 0.0" type="table"/></feComponentTransfer></filter><filter id="c" width="100%" height="100%" x="0%" y="0%" filterUnits="objectBoundingBox"><feComponentTransfer in="SourceGraphic"><feFuncA tableValues="1.0 0.0" type="table"/></feComponentTransfer></filter><path id="b" class="primary design" style="display:none"/><path id="d" fill-opacity="0" stroke-linecap="round" stroke-linejoin="round" class="primary design" style="display:none"/><mask id="h" mask-type="alpha"><g filter="url(#a)"><path fill="#fff" d="M0 0h500v500H0z" opacity="0"/><use xmlns:ns1="http://www.w3.org/1999/xlink" ns1:href="#b"/></g></mask><mask id="g" mask-type="alpha"><g filter="url(#c)"><path fill="#fff" d="M0 0h500v500H0z" opacity="0"/><use xmlns:ns2="http://www.w3.org/1999/xlink" ns2:href="#d"/></g></mask></defs><g clip-path="url(#e)"><g clip-path="url(#f)" opacity="0" style="display:block"><g mask="url(#g)" style="display:none"><path class="primary design"/></g><g mask="url(#h)" style="display:none"><path fill="none" class="primary design"/></g><path fill="none" class="primary design" style="display:none"/><g fill="#121330" class="primary design" opacity="1" style="display:block"><path d="M250.004 41.644c-91.915 0-166.694 74.777-166.694 166.692 0 12.061 1.202 23.215 3.674 34.09 5.184 26.145 17.119 51.021 34.587 72.031l116.46 138.334a15.653 15.653 0 0 0 23.945 0l116.521-138.408c17.406-20.936 29.341-45.811 34.524-71.954 2.473-10.872 3.675-22.027 3.675-34.093 0-91.915-74.778-166.692-166.692-166.692zm132.454 194.029c-.036.158-.071.317-.102.477-4.148 21.106-13.806 41.239-27.866 58.149L250.003 418.412l-104.425-124.04c-14.12-16.983-23.779-37.116-27.928-58.222a19.181 19.181 0 0 0-.102-.476c-1.977-8.628-2.937-17.571-2.937-27.338 0-74.656 60.736-135.392 135.392-135.392 74.655 0 135.392 60.736 135.392 135.392 0 9.771-.959 18.713-2.937 27.337z" opacity="1"/><path d="M317.711 192.686h-52.057v-52.059c0-8.643-7.007-15.65-15.651-15.65s-15.65 7.007-15.65 15.65v52.059h-52.058c-8.644 0-15.651 7.007-15.651 15.65s7.007 15.65 15.651 15.65h52.058v52.059c0 8.643 7.006 15.65 15.65 15.65s15.651-7.007 15.651-15.65v-52.059h52.057c8.644 0 15.651-7.007 15.651-15.65s-7.007-15.65-15.651-15.65z" opacity="1"/></g><path class="primary design" style="display:none"/></g><g clip-path="url(#i)" opacity="0" style="display:block"><g fill="none" class="primary design" style="display:none"><path/><path/></g><g fill="#121330" class="primary design" opacity="1" style="display:block"><path d="M250.004 41.644c-91.915 0-166.694 74.777-166.694 166.692 0 12.061 1.202 23.215 3.674 34.09 5.184 26.145 17.119 51.021 34.587 72.031l116.46 138.334a15.653 15.653 0 0 0 23.945 0l116.521-138.408c17.406-20.936 29.341-45.811 34.524-71.954 2.473-10.872 3.675-22.027 3.675-34.093 0-91.915-74.778-166.692-166.692-166.692zm132.454 194.029c-.036.158-.071.317-.102.477-4.148 21.106-13.806 41.239-27.866 58.149L250.003 418.412l-104.425-124.04c-14.12-16.983-23.779-37.116-27.928-58.222a19.181 19.181 0 0 0-.102-.476c-1.977-8.628-2.937-17.571-2.937-27.338 0-74.656 60.736-135.392 135.392-135.392 74.655 0 135.392 60.736 135.392 135.392 0 9.771-.959 18.713-2.937 27.337z" opacity="1"/><path d="M317.711 192.686h-52.057v-52.059c0-8.643-7.007-15.65-15.651-15.65s-15.65 7.007-15.65 15.65v52.059h-52.058c-8.644 0-15.651 7.007-15.651 15.65s7.007 15.65 15.651 15.65h52.058v52.059c0 8.643 7.006 15.65 15.65 15.65s15.651-7.007 15.651-15.65v-52.059h52.057c8.644 0 15.651-7.007 15.651-15.65s-7.007-15.65-15.651-15.65z" opacity="1"/></g><g class="primary design" style="display:none"><path/><path/></g></g><g clip-path="url(#j)" style="display:block"><g fill="none" class="primary design" style="display:none"><path/><path/></g><g class="primary design" style="display:none"><path/><path/></g><g fill="#121330" class="primary design" style="display:block"><path d="M250.004 41.644c-91.915 0-166.694 74.777-166.694 166.692 0 12.061 1.202 23.215 3.674 34.09 5.184 26.145 17.119 51.021 34.587 72.031l116.46 138.334a15.653 15.653 0 0 0 23.945 0l116.521-138.408c17.406-20.936 29.341-45.811 34.524-71.954 2.473-10.872 3.675-22.027 3.675-34.093 0-91.915-74.778-166.692-166.692-166.692zm132.454 194.029c-.036.158-.071.317-.102.477-4.148 21.106-13.806 41.239-27.866 58.149L250.003 418.412l-104.425-124.04c-14.12-16.983-23.779-37.116-27.928-58.222a19.181 19.181 0 0 0-.102-.476c-1.977-8.628-2.937-17.571-2.937-27.338 0-74.656 60.736-135.392 135.392-135.392 74.655 0 135.392 60.736 135.392 135.392 0 9.771-.959 18.713-2.937 27.337z"/><path d="M317.711 192.686h-52.057v-52.059c0-8.643-7.007-15.65-15.651-15.65s-15.65 7.007-15.65 15.65v52.059h-52.058c-8.644 0-15.651 7.007-15.651 15.65s7.007 15.65 15.651 15.65h52.058v52.059c0 8.643 7.006 15.65 15.65 15.65s15.651-7.007 15.651-15.65v-52.059h52.057c8.644 0 15.651-7.007 15.651-15.65s-7.007-15.65-15.651-15.65z"/></g></g><g clip-path="url(#k)" opacity="0" style="display:block"><path fill="none" class="primary design" style="display:none"/><path fill="none" class="primary design" style="display:none"/><g class="primary design" style="display:none"><path/><path/></g></g><g class="com" style="display:none"><path/><path/><path/><path/><path/><path/><path/><path/><path/><path/><path/><path/></g></g></svg>