<svg xmlns="http://www.w3.org/2000/svg" width="500" height="500" style="width:100%;height:100%;transform:translate3d(0,0,0);content-visibility:visible" viewBox="0 0 500 500"><defs><clipPath id="a"><path d="M0 0h500v500H0z"/></clipPath><clipPath id="c"><path d="M0 0h500v500H0z"/></clipPath><clipPath id="b"><path d="M0 0h500v500H0z"/></clipPath></defs><g clip-path="url(#a)"><g clip-path="url(#b)" style="display:block"><path fill="none" class="primary design" style="display:none"/><path fill="#121330" d="M151.046 187.528H80.629c-8.644 0-15.65-7.006-15.65-15.649v-23.542c0-8.909-3.476-17.4-9.791-23.932-6.531-6.316-15.025-9.794-23.934-9.794-18.711 0-33.934 15.13-33.934 33.726v23.542c0 8.643-7.006 15.649-15.65 15.649h-70.208c-20.117 0-36.484-16.366-36.484-36.483v-46.85h-10.392c-40.221 0-72.942-32.722-72.942-72.942 0-19.584 7.619-37.86 21.456-51.481 13.622-13.841 31.9-21.461 51.486-21.461h10.392v-46.85c0-20.117 16.367-36.483 36.484-36.483h46.85v-10.392c0-40.22 32.721-72.942 72.942-72.942 19.585 0 37.861 7.618 51.481 21.456 13.841 13.622 21.461 31.9 21.461 51.486v10.392h46.85c20.117 0 36.484 16.366 36.484 36.483v70.209c0 8.643-7.006 15.649-15.65 15.649h-23.334c-8.911 0-17.476 3.549-24.138 9.998-6.318 6.533-9.796 15.026-9.796 23.936 0 18.711 15.223 33.934 33.934 33.934h23.334c8.644 0 15.65 7.007 15.65 15.65v70.208c0 20.117-16.367 36.483-36.484 36.483zm-54.767-31.299h54.767c2.81 0 5.183-2.374 5.183-5.184V96.486h-7.683c-35.97 0-65.234-29.263-65.234-65.233 0-17.19 6.687-33.504 18.831-45.936.084-.086.169-.171.256-.256 12.563-12.279 28.953-19.041 46.147-19.041h7.683v-54.559c0-2.81-2.373-5.184-5.183-5.184h-62.5c-8.644 0-15.65-7.006-15.65-15.649v-26.042c0-11.158-4.325-21.543-12.179-29.241-.075-.073-.15-.148-.224-.223-7.696-7.854-18.08-12.179-29.239-12.179-22.962 0-41.642 18.682-41.642 41.643v26.042c0 8.643-7.006 15.649-15.65 15.649h-62.5c-2.81 0-5.184 2.374-5.184 5.184v62.5c0 8.643-7.006 15.65-15.65 15.65h-26.042c-11.158 0-21.543 4.325-29.24 12.179-.073.075-.148.149-.223.223-7.854 7.697-12.179 18.081-12.179 29.24 0 22.961 18.68 41.642 41.642 41.642h26.042c8.644 0 15.65 7.007 15.65 15.65v62.5c0 2.81 2.374 5.184 5.184 5.184h54.558v-7.892c0-35.855 29.264-65.025 65.234-65.025 17.192 0 33.505 6.687 45.936 18.83.087.085.174.172.259.259 12.143 12.431 18.83 28.745 18.83 45.936v7.892z" class="primary design" style="display:block" transform="translate(250 250)"/><path class="primary design" style="display:none"/></g><g clip-path="url(#c)" opacity="0" style="display:block"><path fill="none" class="primary design" style="display:none"/><path class="primary design" style="display:none"/></g><g class="com" style="display:none"><path/><path/><path/><path/><path/><path/><path/><path/><path/><path/><path/><path/></g></g></svg>