<svg xmlns="http://www.w3.org/2000/svg" width="500" height="500" style="width:100%;height:100%;transform:translate3d(0,0,0);content-visibility:visible" viewBox="0 0 500 500"><defs><clipPath id="c"><path d="M0 0h500v500H0z"/></clipPath><clipPath id="g"><path d="M0 0h500v500H0z"/></clipPath><clipPath id="d"><path d="M0 0h500v500H0z"/></clipPath><clipPath id="e"><path fill="#fff" d="m6.241-9.526-13.442.096-3.841 9.458 2.689 1.056 2.112-2.16L.144-.74l6.145-.624.432 1.44.96.096L9.745-.02 6.241-9.526"/></clipPath><filter id="a" width="100%" height="100%" x="0%" y="0%" filterUnits="objectBoundingBox"><feComponentTransfer in="SourceGraphic"><feFuncA tableValues="1.0 0.0" type="table"/></feComponentTransfer></filter><path id="b" fill-opacity="0" stroke-linecap="round" stroke-linejoin="round" class="primary design" style="display:none"/><mask id="f" mask-type="alpha"><g filter="url(#a)"><path fill="#fff" d="M0 0h500v500H0z" opacity="0"/><use xmlns:ns1="http://www.w3.org/1999/xlink" ns1:href="#b"/></g></mask></defs><g clip-path="url(#c)"><g clip-path="url(#d)" style="display:block"><g class="primary design" clip-path="url(#e)" mask="url(#f)" style="display:none"><path/></g><g fill="none" class="primary design" style="display:none"><path/><path/></g><path fill="none" class="primary design" style="display:none"/><path class="primary design" style="display:none"/><path fill="#121330" d="M8.96-.51 6.25-8c-.11-.3-.39-.5-.71-.5H-5.53c-.32 0-.6.2-.71.49L-8.95-.52c-.03.09-.05.18-.05.26v7.01c0 .96.79 1.75 1.75 1.75h14.5C8.22 8.5 9 7.71 9 6.75V-.26c0-.08-.01-.17-.04-.25zM-5.01-7H5.01L7.36-.51H4.25c-.97 0-1.75.79-1.75 1.75v1.52c0 .14-.11.25-.25.25h-4.5c-.14 0-.25-.11-.25-.25V1.24c0-.97-.79-1.75-1.75-1.75h-3.11L-5.01-7zM7.5 6.75c0 .14-.11.25-.25.25h-14.5c-.14 0-.25-.11-.25-.25V.99h3.25c.14 0 .25.11.25.25v1.52c0 .96.79 1.75 1.75 1.75h4.5C3.22 4.51 4 3.72 4 2.76V1.24c0-.14.11-.25.25-.25H7.5v5.76z" class="primary design" style="display:block" transform="translate(250.002 260.417) scale(20.83)"/></g><g clip-path="url(#g)" opacity="0" style="display:block"><g fill="none" class="primary design" style="display:none"><path/><path/></g><path class="primary design" style="display:none"/></g><g class="com" style="display:none"><path/><path/><path/><path/><path/><path/><path/><path/><path/><path/><path/><path/></g></g></svg>