<svg xmlns="http://www.w3.org/2000/svg" width="500" height="500" style="width:100%;height:100%;transform:translate3d(0,0,0);content-visibility:visible" viewBox="0 0 500 500"><defs><clipPath id="a"><path d="M0 0h500v500H0z"/></clipPath><clipPath id="c"><path d="M0 0h500v500H0z"/></clipPath><clipPath id="d"><path fill="#fff"/></clipPath><clipPath id="b"><path d="M0 0h500v500H0z"/></clipPath></defs><g clip-path="url(#a)"><g clip-path="url(#b)" style="display:block"><g class="primary design" style="display:none"><path fill="none"/><path/><path fill="none"/></g><path fill="#121330" d="M184.693 45.424a15.421 15.421 0 0 0 .773-1.224c.069-.121.144-.239.21-.363.201-.376.384-.76.553-1.149.072-.166.135-.336.201-.505a15.346 15.346 0 0 0 .459-1.333c.086-.293.16-.588.228-.885.033-.145.073-.287.102-.434.087-.435.151-.873.201-1.314.016-.141.025-.285.037-.427.031-.361.049-.722.055-1.085.001-.082.012-.162.012-.244V-151.04c0-20.117-16.367-36.483-36.484-36.483h-302.085c-20.117 0-36.483 16.366-36.483 36.483v302.085c0 20.117 16.366 36.484 36.483 36.484H36.452c.52 0 1.038-.028 1.554-.079.309-.03.61-.086.914-.134.197-.031.396-.051.592-.09.371-.074.734-.173 1.095-.272.127-.035.256-.06.382-.098.368-.111.726-.246 1.082-.383.119-.046.241-.082.359-.131.339-.14.665-.301.991-.464.133-.066.27-.123.401-.193.304-.162.594-.345.885-.526.145-.09.294-.17.436-.265.286-.191.557-.403.83-.612.135-.103.275-.196.407-.304a15.93 15.93 0 0 0 1.1-.994l.042-.039L182.94 47.528c.324-.324.628-.664.919-1.011.091-.108.175-.22.263-.33.198-.25.39-.503.571-.763zm-340.921 105.621V-151.04a5.189 5.189 0 0 1 5.183-5.183H151.04a5.19 5.19 0 0 1 5.184 5.183V20.811H36.456c-8.644 0-15.65 7.007-15.65 15.65v119.768h-171.851a5.19 5.19 0 0 1-5.183-5.184z" class="primary design" style="display:block" transform="translate(250 250)"/><path class="primary design" style="display:none"/></g><g clip-path="url(#c)" opacity="0" style="display:block"><g class="primary design" clip-path="url(#d)" style="display:none"><path fill="none"/><path/><path fill="none"/></g><path class="primary design" style="display:none"/><g class="primary design" style="display:none"><path/><path fill="none"/></g></g><g class="com" style="display:none"><path/><path/><path/><path/><path/><path/><path/><path/><path/><path/><path/><path/></g></g></svg>