<svg xmlns="http://www.w3.org/2000/svg" width="500" height="500" style="width:100%;height:100%;transform:translate3d(0,0,0);content-visibility:visible" viewBox="0 0 500 500"><defs><clipPath id="a"><path d="M0 0h500v500H0z"/></clipPath><clipPath id="c"><path d="M0 0h500v500H0z"/></clipPath><clipPath id="b"><path d="M0 0h500v500H0z"/></clipPath></defs><g clip-path="url(#a)"><g clip-path="url(#b)" style="display:block"><path fill="none" class="primary design" style="display:none"/><path fill="none" class="primary design" style="display:none"/><path fill="none" class="primary design" style="display:none"/><path fill="none" class="primary design" style="display:none"/><path fill="none" class="primary design" style="display:none"/><path fill="#121330" d="M57.294 187.526c-8.644 0-15.651-7.007-15.651-15.65v-52.083c0-20.117 16.367-36.483 36.484-36.483h52.083c8.644 0 15.651 7.007 15.651 15.65s-7.007 15.65-15.651 15.65H78.127a5.189 5.189 0 0 0-5.183 5.183v52.083c0 8.643-7.006 15.65-15.65 15.65zm72.917 229.169H78.128c-20.117 0-36.483-16.366-36.483-36.483v-50.781c0-8.643 7.006-15.65 15.65-15.65s15.65 7.007 15.65 15.65v50.781a5.19 5.19 0 0 0 5.183 5.183h52.083c8.644 0 15.65 7.007 15.65 15.65s-7.006 15.65-15.65 15.65zm291.668 0h-52.083c-8.644 0-15.651-7.007-15.651-15.65s7.007-15.65 15.651-15.65h52.083a5.189 5.189 0 0 0 5.183-5.183v-52.083c0-8.643 7.006-15.65 15.65-15.65s15.651 7.007 15.651 15.65v52.083c0 20.117-16.367 36.483-36.484 36.483zm20.833-229.168c-8.644 0-15.65-7.007-15.65-15.65v-52.083a5.19 5.19 0 0 0-5.183-5.184h-52.083c-8.644 0-15.651-7.006-15.651-15.649 0-8.643 7.007-15.65 15.651-15.65h52.083c20.117 0 36.484 16.366 36.484 36.483v52.083c0 8.643-7.007 15.65-15.651 15.65zm-62.499 166.668H119.795c-8.644 0-15.65-7.007-15.65-15.65V161.461c0-8.643 7.006-15.65 15.65-15.65h260.418c8.644 0 15.65 7.007 15.65 15.65v177.084c0 8.643-7.006 15.65-15.65 15.65zm-244.768-31.3h229.118V177.111H135.445v145.784z" class="primary design" style="display:block"/><g class="primary design" style="display:none"><path/><path/><path/><path/><path/></g></g><g clip-path="url(#c)" opacity="0" style="display:block"><path fill="none" class="primary design" style="display:none"/><path fill="none" class="primary design" style="display:none"/><path fill="none" class="primary design" style="display:none"/><path fill="none" class="primary design" style="display:none"/><path fill="none" class="primary design" style="display:none"/><g class="primary design" style="display:none"><path/><path/><path/><path/><path/></g></g><g class="com" style="display:none"><path/><path/><path/><path/><path/><path/><path/><path/><path/><path/><path/><path/></g></g></svg>