<svg xmlns="http://www.w3.org/2000/svg" width="500" height="500" style="width:100%;height:100%;transform:translate3d(0,0,0);content-visibility:visible" viewBox="0 0 500 500"><defs><clipPath id="a"><path d="M0 0h500v500H0z"/></clipPath><clipPath id="d"><path d="M0 0h500v500H0z"/></clipPath><clipPath id="c"><path d="M0 0h500v500H0z"/></clipPath><clipPath id="b"><path d="M0 0h500v500H0z"/></clipPath></defs><g clip-path="url(#a)"><g clip-path="url(#b)" opacity="0" style="display:block"><path fill="#121330" d="M161.005 142.147a36.54 36.54 0 0 1-6.351-.559l-268.673-47.374c-26.63-4.695-49.837-19.481-65.347-41.631-15.511-22.15-21.465-49.015-16.77-75.645l8.255-46.814c1.501-8.512 9.613-14.197 18.129-12.694l65.549 11.558a15.65 15.65 0 0 1 12.825 13.586L-86.5-15.9l44.057 7.768-10.376-116.981a15.65 15.65 0 0 1 18.307-16.795l70.591 12.447a15.652 15.652 0 0 1 12.416 11.421L83.331 14.045l50.646 8.93c20.278 3.576 37.951 14.835 49.762 31.702 11.812 16.868 16.346 37.325 12.77 57.604-1.676 9.504-6.952 17.786-14.857 23.322-6.143 4.301-13.302 6.544-20.647 6.544zm-320.78-191.175-5.537 31.402c-6.696 37.976 18.751 74.319 56.728 81.016l268.673 47.374a4.734 4.734 0 0 0 3.61-.8 4.738 4.738 0 0 0 1.986-3.118v-.001c2.124-12.045-.57-24.196-7.585-34.215-7.016-10.019-17.514-16.706-29.559-18.83L68.035 43.131A15.65 15.65 0 0 1 55.62 31.71L20.783-100.376l-40.621-7.162L-9.462 9.443a15.648 15.648 0 0 1-18.306 16.795l-75.634-13.336A15.649 15.649 0 0 1-116.227-.684l-4.878-41.526-38.67-6.818z" class="primary design" opacity="1" style="display:block" transform="translate(249.75 204.623)"/><path fill="#121330" d="M192.709 15.65h-385.418c-8.644 0-15.651-7.007-15.651-15.65s7.007-15.65 15.651-15.65h385.418c8.644 0 15.651 7.007 15.651 15.65s-7.007 15.65-15.651 15.65z" class="primary design" opacity="1" style="display:block" transform="translate(250.003 401.045)"/><path class="primary design" style="display:none"/><path fill="none" class="primary design" style="display:none"/></g><g clip-path="url(#c)" style="display:block"><path fill="#121330" d="M192.709 15.65h-385.418c-8.644 0-15.651-7.007-15.651-15.65s7.007-15.65 15.651-15.65h385.418c8.644 0 15.651 7.007 15.651 15.65s-7.007 15.65-15.651 15.65z" class="primary design" style="display:block" transform="translate(250.003 401.045)"/><path class="primary design" style="display:none"/><path fill="none" class="primary design" style="display:none"/><path fill="#121330" d="M161.005 142.147a36.54 36.54 0 0 1-6.351-.559l-268.673-47.374c-26.63-4.695-49.837-19.481-65.347-41.631-15.511-22.15-21.465-49.015-16.77-75.645l8.255-46.814c1.501-8.512 9.613-14.197 18.129-12.694l65.549 11.558a15.65 15.65 0 0 1 12.825 13.586L-86.5-15.9l44.057 7.768-10.376-116.981a15.65 15.65 0 0 1 18.307-16.795l70.591 12.447a15.652 15.652 0 0 1 12.416 11.421L83.331 14.045l50.646 8.93c20.278 3.576 37.951 14.835 49.762 31.702 11.812 16.868 16.346 37.325 12.77 57.604-1.676 9.504-6.952 17.786-14.857 23.322-6.143 4.301-13.302 6.544-20.647 6.544zm-320.78-191.175-5.537 31.402c-6.696 37.976 18.751 74.319 56.728 81.016l268.673 47.374a4.734 4.734 0 0 0 3.61-.8 4.738 4.738 0 0 0 1.986-3.118v-.001c2.124-12.045-.57-24.196-7.585-34.215-7.016-10.019-17.514-16.706-29.559-18.83L68.035 43.131A15.65 15.65 0 0 1 55.62 31.71L20.783-100.376l-40.621-7.162L-9.462 9.443a15.648 15.648 0 0 1-18.306 16.795l-75.634-13.336A15.649 15.649 0 0 1-116.227-.684l-4.878-41.526-38.67-6.818z" class="primary design" style="display:block" transform="translate(249.75 204.623)"/><path class="primary design" style="display:none"/></g><g clip-path="url(#d)" opacity="0" style="display:block"><path class="primary design" style="display:none"/><path fill="none" stroke="#121330" stroke-dasharray="155 77" stroke-dashoffset="513.602" stroke-linecap="round" stroke-linejoin="round" stroke-width="31.3" d="M0 0" class="primary design" opacity="1" style="display:block" transform="translate(250.004 401.045)"/><path fill="#121330" d="M161.005 142.147a36.54 36.54 0 0 1-6.351-.559l-268.673-47.374c-26.63-4.695-49.837-19.481-65.347-41.631-15.511-22.15-21.465-49.015-16.77-75.645l8.255-46.814c1.501-8.512 9.613-14.197 18.129-12.694l65.549 11.558a15.65 15.65 0 0 1 12.825 13.586L-86.5-15.9l44.057 7.768-10.376-116.981a15.65 15.65 0 0 1 18.307-16.795l70.591 12.447a15.652 15.652 0 0 1 12.416 11.421L83.331 14.045l50.646 8.93c20.278 3.576 37.951 14.835 49.762 31.702 11.812 16.868 16.346 37.325 12.77 57.604-1.676 9.504-6.952 17.786-14.857 23.322-6.143 4.301-13.302 6.544-20.647 6.544zm-320.78-191.175-5.537 31.402c-6.696 37.976 18.751 74.319 56.728 81.016l268.673 47.374a4.734 4.734 0 0 0 3.61-.8 4.738 4.738 0 0 0 1.986-3.118v-.001c2.124-12.045-.57-24.196-7.585-34.215-7.016-10.019-17.514-16.706-29.559-18.83L68.035 43.131A15.65 15.65 0 0 1 55.62 31.71L20.783-100.376l-40.621-7.162L-9.462 9.443a15.648 15.648 0 0 1-18.306 16.795l-75.634-13.336A15.649 15.649 0 0 1-116.227-.684l-4.878-41.526-38.67-6.818z" class="primary design" opacity="1" style="display:block" transform="rotate(-23 121.171 630.929)"/></g><g class="com" style="display:none"><path/><path/><path/><path/><path/><path/><path/><path/><path/><path/><path/><path/></g></g></svg>