<svg xmlns="http://www.w3.org/2000/svg" width="500" height="500" style="width:100%;height:100%;transform:translate3d(0,0,0);content-visibility:visible" viewBox="0 0 500 500"><defs><clipPath id="a"><path d="M0 0h500v500H0z"/></clipPath><clipPath id="d"><path d="M0 0h500v500H0z"/></clipPath><clipPath id="c"><path d="M0 0h500v500H0z"/></clipPath><clipPath id="b"><path d="M0 0h500v500H0z"/></clipPath></defs><g clip-path="url(#a)"><g fill="#121330" clip-path="url(#b)" opacity="0" style="display:block"><path d="M171.873-51.553c8.644 0 15.65-7.006 15.651-15.649l.003-94.212c0-8.643-7.007-15.65-15.65-15.65h-.001c-8.643 0-15.649 7.006-15.65 15.649l-.002 57.725a188.84 188.84 0 0 0-20.459-25.623c-34.552-36.265-81.158-56.903-131.233-58.113-50.054-1.209-97.626 17.152-133.89 51.705-36.264 34.553-56.902 81.16-58.112 131.235-1.211 50.075 17.152 97.624 51.705 133.889 36.8 38.623 86.254 58.084 135.808 58.079 46.493-.004 93.077-17.144 129.315-51.671 28.509-27.163 47.468-61.903 54.828-100.462 1.621-8.49-3.948-16.686-12.438-18.307-8.493-1.62-16.686 3.948-18.306 12.438-6.129 32.106-21.924 61.038-45.676 83.669-62.367 59.424-161.449 57.027-220.871-5.338C-141.89 77.6-157.188 37.987-156.179-3.73c1.008-41.717 18.201-80.545 48.413-109.33 30.211-28.785 69.796-44.076 111.541-43.075 41.717 1.008 80.545 18.201 109.33 48.413a157.31 157.31 0 0 1 19.334 24.869H82.872c-8.644 0-15.65 7.007-15.65 15.65s7.006 15.65 15.65 15.65h89.001z" class="primary design" opacity="1" style="display:block" transform="translate(250.004 249.958)"/><path d="M-46.845 12.997c.013.183.014.369.033.55.038.36.1.716.163 1.073.026.149.041.301.071.448a15.566 15.566 0 0 0 4.008 7.616c.096.101.185.208.284.306.037.036.067.077.104.113l62.501 61.013a15.598 15.598 0 0 0 10.931 4.451c4.068 0 8.134-1.577 11.2-4.718 6.037-6.185 5.918-16.093-.268-22.131L-15.6 5.312v-78.229c0-8.643-7.006-15.65-15.65-15.65s-15.651 7.007-15.651 15.65v84.813c0 .033.005.066.005.099.002.335.028.668.051 1.002z" class="primary design" opacity="1" style="display:block" transform="translate(276.045 255.211)"/></g><g clip-path="url(#c)" style="display:block"><path fill="none" class="primary design" style="display:none"/><path fill="none" class="primary design" style="display:none"/><path fill="#121330" d="M171.873-51.553c8.644 0 15.65-7.006 15.651-15.649l.003-94.212c0-8.643-7.007-15.65-15.65-15.65h-.001c-8.643 0-15.649 7.006-15.65 15.649l-.002 57.725a188.84 188.84 0 0 0-20.459-25.623c-34.552-36.265-81.158-56.903-131.233-58.113-50.054-1.209-97.626 17.152-133.89 51.705-36.264 34.553-56.902 81.16-58.112 131.235-1.211 50.075 17.152 97.624 51.705 133.889 36.8 38.623 86.254 58.084 135.808 58.079 46.493-.004 93.077-17.144 129.315-51.671 28.509-27.163 47.468-61.903 54.828-100.462 1.621-8.49-3.948-16.686-12.438-18.307-8.493-1.62-16.686 3.948-18.306 12.438-6.129 32.106-21.924 61.038-45.676 83.669-62.367 59.424-161.449 57.027-220.871-5.338C-141.89 77.6-157.188 37.987-156.179-3.73c1.008-41.717 18.201-80.545 48.413-109.33 30.211-28.785 69.796-44.076 111.541-43.075 41.717 1.008 80.545 18.201 109.33 48.413a157.31 157.31 0 0 1 19.334 24.869H82.872c-8.644 0-15.65 7.007-15.65 15.65s7.006 15.65 15.65 15.65h89.001z" class="primary design" style="display:block" transform="translate(250.004 249.958)"/><path fill="#121330" d="M-46.845 12.997c.013.183.014.369.033.55.038.36.1.716.163 1.073.026.149.041.301.071.448a15.566 15.566 0 0 0 4.008 7.616c.096.101.185.208.284.306.037.036.067.077.104.113l62.501 61.013a15.598 15.598 0 0 0 10.931 4.451c4.068 0 8.134-1.577 11.2-4.718 6.037-6.185 5.918-16.093-.268-22.131L-15.6 5.312v-78.229c0-8.643-7.006-15.65-15.65-15.65s-15.651 7.007-15.651 15.65v84.813c0 .033.005.066.005.099.002.335.028.668.051 1.002z" class="primary design" style="display:block" transform="translate(276.045 255.211)"/><path class="primary design" style="display:none"/></g><g clip-path="url(#d)" opacity="0" style="display:block"><path fill="none" class="primary design" style="display:none"/><path fill="none" class="primary design" style="display:none"/><path fill="none" class="primary design" style="display:none"/><path class="primary design" style="display:none"/><path class="primary design" style="display:none"/><path class="primary design" style="display:none"/></g><g class="com" style="display:none"><path/><path/><path/><path/><path/><path/><path/><path/><path/><path/><path/><path/></g></g></svg>