<svg xmlns="http://www.w3.org/2000/svg" width="500" height="500" style="width:100%;height:100%;transform:translate3d(0,0,0);content-visibility:visible" viewBox="0 0 500 500"><defs><clipPath id="a"><path d="M0 0h500v500H0z"/></clipPath><clipPath id="c"><path d="M0 0h500v500H0z"/></clipPath><clipPath id="b"><path d="M0 0h500v500H0z"/></clipPath></defs><g clip-path="url(#a)"><g clip-path="url(#b)" style="display:block"><g fill="none" class="primary design" style="display:none"><path/><path/><path/></g><path fill="#121330" d="m206.367-72.185-22.284-82.916a15.65 15.65 0 0 0-15.113-11.588h-337.944a15.65 15.65 0 0 0-15.113 11.588l-22.284 82.916c-4.67 17.375-1.072 35.527 9.871 49.799 7.655 9.984 18.081 16.969 29.806 20.262v153.168c0 8.643 7.006 15.65 15.65 15.65s15.65-7.007 15.65-15.65V.027h93.699v151.019c0 8.643 7.006 15.65 15.65 15.65h177.084c8.644 0 15.65-7.007 15.65-15.65V-2.124c11.726-3.294 22.153-10.278 29.808-20.263 10.943-14.272 14.54-32.423 9.87-49.798zm-70.978 207.581H-10.395V.029h145.784v135.367zm36.269-176.828c-4.95 6.456-12.447 10.159-20.568 10.159h-302.185c-8.12 0-15.616-3.703-20.566-10.158-4.972-6.484-6.606-14.733-4.484-22.63l19.17-71.328h313.946l19.17 71.328v.001c2.122 7.896.488 16.144-4.483 22.628z" class="primary design" style="display:block" transform="translate(250 250)"/><path class="primary design" style="display:none"/></g><g clip-path="url(#c)" opacity="0" style="display:block"><g fill="none" class="primary design" style="display:none"><path/><path/><path/></g><path class="primary design" style="display:none"/></g><g class="com" style="display:none"><path/><path/><path/><path/><path/><path/><path/><path/><path/><path/><path/><path/></g></g></svg>