<svg xmlns="http://www.w3.org/2000/svg" width="500" height="500" style="width:100%;height:100%;transform:translate3d(0,0,0);content-visibility:visible" viewBox="0 0 500 500"><defs><clipPath id="a"><path d="M0 0h500v500H0z"/></clipPath><clipPath id="c"><path d="M0 0h500v500H0z"/></clipPath><clipPath id="b"><path d="M0 0h500v500H0z"/></clipPath></defs><g clip-path="url(#a)"><g clip-path="url(#b)" style="display:block"><path fill="none" class="primary design" style="display:none"/><g fill="none" class="primary design" style="display:none"><path/><path/></g><g fill="#121330" class="primary design" style="display:block"><path d="M135.414 354.195c-51.708 0-93.775-42.067-93.775-93.775 0-51.708 42.067-93.775 93.775-93.775 51.708 0 93.775 42.067 93.775 93.775 0 51.708-42.067 93.775-93.775 93.775zm0-156.25c-34.449 0-62.475 28.026-62.475 62.475s28.026 62.475 62.475 62.475 62.475-28.026 62.475-62.475-28.026-62.475-62.475-62.475zm229.168 156.25c-51.708 0-93.776-42.067-93.776-93.775 0-51.708 42.068-93.775 93.776-93.775s93.776 42.067 93.776 93.775c0 51.708-42.068 93.775-93.776 93.775zm0-156.25c-34.449 0-62.475 28.026-62.475 62.475s28.026 62.475 62.475 62.475 62.475-28.026 62.475-62.475-28.026-62.475-62.475-62.475z"/><path d="M364.582 354.195H135.414c-8.644 0-15.65-7.007-15.65-15.65s7.006-15.65 15.65-15.65h229.168c8.644 0 15.65 7.007 15.65 15.65s-7.006 15.65-15.65 15.65z"/></g><g class="primary design" style="display:none"><path/><path/><path/></g></g><g clip-path="url(#c)" opacity="0" style="display:block"><path fill="none" class="primary design" style="display:none"/><g class="primary design" style="display:none"><path/><path/><path/></g><path fill="none" class="primary design" style="display:none"/><path fill="none" class="primary design" style="display:none"/></g><g class="com" style="display:none"><path/><path/><path/><path/><path/><path/><path/><path/><path/><path/><path/><path/></g></g></svg>