<svg xmlns="http://www.w3.org/2000/svg" width="500" height="500" style="width:100%;height:100%;transform:translate3d(0,0,0);content-visibility:visible" viewBox="0 0 500 500"><defs><clipPath id="a"><path d="M0 0h500v500H0z"/></clipPath><clipPath id="c"><path d="M0 0h500v500H0z"/></clipPath><clipPath id="b"><path d="M0 0h500v500H0z"/></clipPath></defs><g clip-path="url(#a)"><g clip-path="url(#b)" style="display:block"><g class="primary design" style="display:none"><path/><path fill="none"/></g><g class="primary design" style="display:none"><path/><path fill="none"/><path fill="none"/><path fill="none"/></g><g class="primary design" style="display:none"><path/><path fill="none"/><path fill="none"/></g><g class="primary design" style="display:none"><path/><path fill="none"/></g><g class="primary design" style="display:none"><path/><path fill="none"/></g><g class="primary design" style="display:none"><path/><path fill="none"/></g><g class="primary design" style="display:none"><path/><path fill="none"/><path fill="none"/></g><g class="primary design" style="display:none"><path fill="none"/><path/><path/></g><g class="primary design" style="display:block"><path fill="none" stroke="#121330" stroke-width="2" d="M0 0"/><path fill="#121330" d="m386.407 274.999-45.665-8.059c-21.901-3.863-44.333 5.381-57.149 23.553l-4.299 6.097c-38.75-25.084-71.935-58.024-97.082-96.364l6.573-4.655c18.106-12.825 27.314-35.231 23.458-57.081l-8.069-45.726a36.61 36.61 0 0 0-36.102-30.287H99.417a57.678 57.678 0 0 0-43.508 19.825 58.001 58.001 0 0 0-13.705 46.088 359.403 359.403 0 0 0 35.115 112.544c17.4 34.521 40.13 65.931 67.559 93.36 27.43 27.429 58.839 50.159 93.36 67.559a359.405 359.405 0 0 0 112.544 35.116 58.004 58.004 0 0 0 46.089-13.705 57.678 57.678 0 0 0 19.825-43.508V311.1a36.607 36.607 0 0 0-30.289-36.101zm-1.012 104.757c0 7.738-3.223 14.805-9.077 19.902a26.71 26.71 0 0 1-21.228 6.31C209.367 385.719 93.453 269.804 73.206 124.082a26.72 26.72 0 0 1 6.309-21.228C84.612 97 91.68 93.777 99.417 93.777h68.655a5.353 5.353 0 0 1 5.278 4.428l8.069 45.724c1.764 9.991-2.447 20.236-10.726 26.1l-18.621 13.189c-6.656 4.715-8.575 13.752-4.408 20.765 31.012 52.197 75.277 96.164 128.01 127.145 7.02 4.125 16.026 2.177 20.717-4.474l12.78-18.121c5.86-8.31 16.123-12.536 26.131-10.77l45.665 8.059a5.353 5.353 0 0 1 4.428 5.278v68.656z"/><path fill="#121330" d="M433.974 202.643c.08-.097.148-.202.225-.301.238-.304.473-.61.689-.932.056-.084.103-.174.158-.259.222-.345.438-.695.633-1.058.031-.057.055-.118.085-.176.206-.395.4-.796.572-1.21.014-.034.024-.071.038-.105.177-.436.34-.879.478-1.333.013-.041.02-.084.032-.125.131-.445.248-.895.34-1.355.023-.115.033-.233.053-.348.068-.386.136-.772.175-1.168a15.623 15.623 0 0 0 0-3.125 15.75 15.75 0 0 0-.173-1.158c-.021-.119-.031-.241-.055-.359a15.484 15.484 0 0 0-.338-1.346c-.013-.044-.022-.089-.035-.133a15.439 15.439 0 0 0-.474-1.325c-.015-.037-.027-.076-.042-.113-.171-.411-.364-.81-.568-1.203-.031-.06-.056-.123-.088-.183-.193-.36-.408-.707-.628-1.05-.056-.088-.105-.181-.163-.268-.215-.32-.45-.625-.687-.928-.078-.1-.146-.206-.227-.304-.311-.378-.641-.74-.985-1.087-.015-.015-.027-.032-.042-.047l-31.251-31.25c-6.113-6.111-16.022-6.111-22.133.001-6.111 6.112-6.111 16.02 0 22.132l4.534 4.534h-61.15V115.91l4.533 4.533a15.597 15.597 0 0 0 11.066 4.584c4.005 0 8.011-1.529 11.067-4.584 6.111-6.112 6.111-16.021 0-22.132l-31.247-31.247a15.653 15.653 0 0 0-1.138-1.031c-.094-.078-.197-.144-.293-.219-.306-.24-.614-.478-.938-.695-.089-.059-.184-.108-.274-.166a15.869 15.869 0 0 0-1.043-.624c-.065-.035-.132-.061-.197-.095a15.747 15.747 0 0 0-1.189-.562c-.041-.017-.085-.029-.126-.046a15.48 15.48 0 0 0-1.312-.47c-.046-.014-.094-.022-.141-.036-.44-.129-.885-.246-1.34-.337-.119-.024-.241-.034-.36-.055a15.722 15.722 0 0 0-1.157-.172 15.603 15.603 0 0 0-3.124 0c-.382.038-.756.103-1.13.168-.129.023-.26.033-.388.059-.448.089-.886.205-1.32.332-.053.015-.107.025-.16.041-.442.135-.873.293-1.298.465-.046.019-.094.032-.14.051-.403.168-.794.358-1.18.558-.068.035-.139.063-.206.099-.353.189-.692.4-1.028.615-.095.061-.195.113-.289.176-.315.211-.615.443-.914.676-.105.081-.214.154-.317.238-.374.308-.732.634-1.076.974-.019.018-.04.034-.058.052l-31.251 31.251c-6.111 6.112-6.111 16.021 0 22.132 6.112 6.112 16.021 6.111 22.133 0l4.534-4.534v70.319l-37.083 37.083c-6.111 6.112-6.111 16.021 0 22.133a15.6 15.6 0 0 0 11.066 4.583c4.005 0 8.011-1.527 11.067-4.583l37.083-37.084h70.318l-4.534 4.535c-6.111 6.112-6.111 16.021 0 22.132a15.597 15.597 0 0 0 11.066 4.584c4.005 0 8.011-1.529 11.067-4.584l31.251-31.25c.015-.015.027-.032.042-.047.344-.347.674-.709.985-1.087z"/></g></g><g clip-path="url(#c)" opacity="0" style="display:block"><g class="primary design" style="display:none"><path/><path/></g><path fill="none" class="primary design" style="display:none"/><path fill="none" class="primary design" style="display:none"/><path fill="none" class="primary design" style="display:none"/><g fill="none" class="primary design" style="display:none"><path/><path/></g><path fill="none" class="primary design" style="display:none"/></g><g class="com" style="display:none"><path/><path/><path/><path/><path/><path/><path/><path/><path/><path/><path/><path/></g></g></svg>