<svg xmlns="http://www.w3.org/2000/svg" width="500" height="500" style="width:100%;height:100%;transform:translate3d(0,0,0);content-visibility:visible" viewBox="0 0 500 500"><defs><clipPath id="a"><path d="M0 0h500v500H0z"/></clipPath><clipPath id="c"><path d="M0 0h500v500H0z"/></clipPath><clipPath id="b"><path d="M0 0h500v500H0z"/></clipPath></defs><g clip-path="url(#a)"><g clip-path="url(#b)" style="display:block"><path fill="none" class="primary design" style="display:none"/><g fill="none" class="primary design" style="display:none"><path/><path/></g><g fill="none" class="primary design" style="display:none"><path/><path/></g><g fill="#121330" class="primary design" style="display:block"><path d="M151.043 416.695h-10.415c-54.58 0-98.985-44.403-98.985-98.983 0-26.48 10.284-51.348 28.959-70.024a99.31 99.31 0 0 1 12.741-10.763 101.08 101.08 0 0 1-.033-2.547c0-22.998 8.799-44.789 24.776-61.358 13.806-14.318 31.694-23.423 51.116-26.172 10.42-17.725 25.017-32.747 42.621-43.779 20.627-12.926 44.492-19.758 69.014-19.758 32.854 0 64.185 12.221 88.22 34.412 21.798 20.125 35.927 46.867 40.332 76.023a122.817 122.817 0 0 1 23.765 18.524c22.683 22.435 35.209 52.503 35.209 84.608 0 29.898-11.079 58.52-31.193 80.593-19.985 21.931-47.213 35.612-76.669 38.523-8.609.849-16.263-5.434-17.114-14.035-.85-8.602 5.433-16.263 14.035-17.113 45.402-4.486 79.64-42.305 79.64-87.968 0-23.679-9.226-45.846-25.979-62.416-6.849-6.849-14.702-12.54-23.4-16.978a15.652 15.652 0 0 1-8.482-12.613c-4.378-51.457-46.666-90.261-98.364-90.261-37.626 0-71.294 20.702-87.863 54.027a15.65 15.65 0 0 1-13.429 8.672c-30.805 1.152-54.934 26.22-54.934 57.069 0 3.089.189 5.603.596 7.911a15.65 15.65 0 0 1-7.742 16.355 67.897 67.897 0 0 0-14.73 11.175c-12.763 12.763-19.791 29.773-19.791 47.893 0 37.321 30.363 67.684 67.684 67.684h10.415c8.644 0 15.65 7.006 15.65 15.649 0 8.643-7.006 15.65-15.65 15.65z"/><path d="M203.127 307.842c-4.006 0-8.01-1.528-11.066-4.584-6.111-6.112-6.111-16.022.001-22.133l47.4-47.397c6.109-6.112 16.019-6.112 22.132 0l47.393 47.392c6.111 6.112 6.111 16.022 0 22.133-6.111 6.112-16.022 6.111-22.133 0l-36.326-36.326-36.335 36.331a15.6 15.6 0 0 1-11.066 4.584z"/><path d="M250.524 416.695c-.001 0 0 0 0 0-8.644 0-15.65-7.006-15.65-15.65l.004-156.251c.001-8.643 7.007-15.649 15.65-15.649.001 0 0 0 0 0 8.644 0 15.65 7.006 15.65 15.65l-.004 156.251c-.001 8.643-7.007 15.649-15.65 15.649z"/></g><g class="primary design" style="display:none"><path/><path/><path/></g></g><g clip-path="url(#c)" opacity="0" style="display:block"><g class="primary design" style="display:none"><path/><path/><path/></g><path fill="none" class="primary design" style="display:none"/><path fill="none" class="primary design" style="display:none"/><path fill="none" class="primary design" style="display:none"/><path fill="none" class="primary design" style="display:none"/><path fill="none" class="primary design" style="display:none"/><path fill="none" class="primary design" style="display:none"/><g fill="none" class="primary design" style="display:none"><path/><path/></g></g><g class="com" style="display:none"><path/><path/><path/><path/><path/><path/><path/><path/><path/><path/><path/><path/></g></g></svg>