<svg xmlns="http://www.w3.org/2000/svg" width="500" height="500" style="width:100%;height:100%;transform:translate3d(0,0,0);content-visibility:visible" viewBox="0 0 500 500"><defs><clipPath id="e"><path d="M0 0h500v500H0z"/></clipPath><clipPath id="i"><path d="M0 0h500v500H0z"/></clipPath><clipPath id="g"><path d="M0 0h500v500H0z"/></clipPath><clipPath id="f"><path d="M0 0h500v500H0z"/></clipPath><filter id="a" width="100%" height="100%" x="0%" y="0%" filterUnits="objectBoundingBox"><feComponentTransfer in="SourceGraphic"><feFuncA tableValues="1.0 0.0" type="table"/></feComponentTransfer></filter><filter id="c" width="100%" height="100%" x="0%" y="0%" filterUnits="objectBoundingBox"><feComponentTransfer in="SourceGraphic"><feFuncA tableValues="1.0 0.0" type="table"/></feComponentTransfer></filter><path id="b" class="primary design" style="display:none"/><path id="d" class="primary design" style="display:none"/><mask id="j" mask-type="alpha"><g filter="url(#a)"><path fill="#fff" d="M0 0h500v500H0z" opacity="0"/><use xmlns:ns1="http://www.w3.org/1999/xlink" ns1:href="#b"/></g></mask><mask id="h" mask-type="alpha"><g filter="url(#c)"><path fill="#fff" d="M0 0h500v500H0z" opacity="0"/><use xmlns:ns2="http://www.w3.org/1999/xlink" ns2:href="#d"/></g></mask></defs><g clip-path="url(#e)"><g clip-path="url(#f)" opacity="0" style="display:block"><path fill="#121330" d="M8.97-4.95 5-3.34v-.91C5-5.77 3.76-7 2.25-7h-9.5C-8.77-7-10-5.77-10-4.25v8.5C-10 5.77-8.77 7-7.25 7h9.5C3.77 7 5 5.77 5 4.25v-.91l3.97 1.61c.09.04.19.05.28.05.15 0 .29-.04.42-.13.21-.14.33-.37.33-.62v-8.5c0-.25-.12-.48-.33-.62a.76.76 0 0 0-.7-.08zM3.5 4.25c0 .69-.56 1.25-1.25 1.25h-9.5c-.69 0-1.25-.56-1.25-1.25v-8.5c0-.69.56-1.25 1.25-1.25h9.5c.69 0 1.25.56 1.25 1.25v8.5zm5-1.11L5 1.72v-3.44l3.5-1.42v6.28z" class="primary design" opacity="1" style="display:block" transform="translate(250.002 250.002) scale(20.83)"/></g><g clip-path="url(#g)" style="display:block"><path fill="#121330" d="M8.97-4.95 5-3.34v-.91C5-5.77 3.76-7 2.25-7h-9.5C-8.77-7-10-5.77-10-4.25v8.5C-10 5.77-8.77 7-7.25 7h9.5C3.77 7 5 5.77 5 4.25v-.91l3.97 1.61c.09.04.19.05.28.05.15 0 .29-.04.42-.13.21-.14.33-.37.33-.62v-8.5c0-.25-.12-.48-.33-.62a.76.76 0 0 0-.7-.08zM3.5 4.25c0 .69-.56 1.25-1.25 1.25h-9.5c-.69 0-1.25-.56-1.25-1.25v-8.5c0-.69.56-1.25 1.25-1.25h9.5c.69 0 1.25.56 1.25 1.25v8.5zm5-1.11L5 1.72v-3.44l3.5-1.42v6.28z" class="primary design" style="display:block" transform="translate(250.002 250.002) scale(20.83)"/><path class="primary design" style="display:none"/><g fill="none" class="primary design" mask="url(#h)" style="display:none"><path/><path/><path/></g><g fill="none" class="primary design" style="display:none"><path/><path/></g></g><g clip-path="url(#i)" opacity="0" style="display:block"><path class="primary design" style="display:none"/><g fill="none" class="primary design" mask="url(#j)" style="display:none"><path/><path/><path/></g><g fill="none" class="primary design" style="display:none"><path/><path/></g></g><g class="com" style="display:none"><path/><path/><path/><path/><path/><path/><path/><path/><path/><path/><path/><path/></g></g></svg>