<svg xmlns="http://www.w3.org/2000/svg" width="500" height="500" style="width:100%;height:100%;transform:translate3d(0,0,0);content-visibility:visible" viewBox="0 0 500 500"><defs><clipPath id="a"><path d="M0 0h500v500H0z"/></clipPath><clipPath id="c"><path d="M0 0h500v500H0z"/></clipPath><clipPath id="b"><path d="M0 0h500v500H0z"/></clipPath></defs><g clip-path="url(#a)"><g clip-path="url(#b)" style="display:block"><g class="primary design" style="display:none"><path/><path fill="none"/></g><g class="primary design" style="display:none"><path/><path fill="none"/></g><g class="primary design" style="display:none"><path/><path fill="none"/></g><g class="primary design" style="display:none"><path/><path fill="none"/></g><g class="primary design" style="display:none"><path/><path fill="none"/></g><g class="primary design" style="display:none"><path fill="none"/><path/><path/></g><g class="primary design" style="display:block"><path fill="none" stroke="#121330" stroke-width="41.66" d="M-4957.497-4957.498"/><path fill="#121330" d="M241.671 125.022h16.664c2.291 0 4.583-.417 6.457-1.25 6.041-2.5 10.207-8.54 10.207-15.414V75.03c0-18.33-14.998-33.328-33.328-33.328-18.33 0-33.328 14.998-33.328 33.328v16.664c0 18.33 14.998 33.328 33.328 33.328zm180.179 263.5-37.702-.209-23.33-81.653c-4.374-15.623-18.955-26.454-34.994-26.454h-102.9c-2.916 0-5.207-2.292-5.207-5.208v-77.07c0-12.082 9.79-21.872 21.871-21.872s21.872 9.79 21.872 21.871v36.453c0 8.54 7.082 15.622 15.622 15.622h61.449c8.54 0 15.622-7.082 15.622-15.622s-7.082-15.623-15.622-15.623h-45.826v-20.83c0-29.37-23.747-53.116-53.117-53.116-29.37 0-53.116 23.746-53.116 53.116v10.415c-68.531.625-123.939 56.45-123.939 124.98 0 68.947 56.033 124.98 124.98 124.98 57.907 0 107.691-38.952 121.022-94.985 2.083-8.332-3.124-16.872-11.456-18.747-8.124-1.874-16.872 3.125-18.747 11.457-9.999 41.66-47.284 71.03-90.61 71.03-51.66 0-93.736-42.077-93.736-93.735 0-51.242 41.452-93.11 92.694-93.527v35.411c0 19.997 16.456 36.453 36.452 36.453h103.109c2.291 0 4.374 1.458 4.999 3.75l26.454 92.901c1.875 6.666 7.916 11.248 14.998 11.248l49.367.209c8.54 0 15.622-6.874 15.622-15.623-.208-8.54-7.082-15.622-15.83-15.622z"/></g></g><g clip-path="url(#c)" opacity="0" style="display:block"><g class="primary design" opacity="1" style="display:block"><path fill="#121330" d="M187.515 331.793" opacity="1"/><path fill="none" stroke="#121330" stroke-linecap="round" stroke-linejoin="round" stroke-width="31.3" d="M187.515 331.793" opacity="1"/></g><g class="primary design" style="display:none"><path/><path fill="none"/></g><g class="primary design" style="display:none"><path/><path fill="none"/></g><g class="primary design" style="display:none"><path/><path fill="none"/></g><g class="primary design" style="display:none"><path fill="none"/><path/><path/></g></g><g class="com" style="display:none"><path/><path/><path/><path/><path/><path/><path/><path/><path/><path/><path/><path/></g></g></svg>