<svg xmlns="http://www.w3.org/2000/svg" width="500" height="500" style="width:100%;height:100%;transform:translate3d(0,0,0);content-visibility:visible" viewBox="0 0 500 500"><defs><clipPath id="a"><path d="M0 0h500v500H0z"/></clipPath><clipPath id="c"><path d="M0 0h500v500H0z"/></clipPath><clipPath id="b"><path d="M0 0h500v500H0z"/></clipPath></defs><g clip-path="url(#a)"><g clip-path="url(#b)" style="display:block"><path fill="none" class="primary design" style="display:none"/><path fill="none" class="primary design" style="display:none"/><path fill="none" class="primary design" style="display:none"/><path fill="#121330" d="M421.878 62.478H286.462c-8.644 0-15.651 7.007-15.651 15.65v72.916c0 8.643 7.007 15.65 15.651 15.65h135.416c8.644 0 15.651-7.007 15.651-15.65V78.128c0-8.643-7.007-15.65-15.651-15.65zm-15.65 72.917H302.112V93.777h104.116v41.618zm15.65 62.5H286.462c-8.644 0-15.651 7.007-15.651 15.65v72.916c0 8.643 7.007 15.65 15.651 15.65h135.416c8.644 0 15.651-7.007 15.651-15.65v-72.916c0-8.643-7.007-15.65-15.651-15.65zm-15.65 72.917H302.112v-41.618h104.116v41.618zm15.651 62.5H286.463c-8.644 0-15.65 7.007-15.65 15.65v72.916c0 8.643 7.006 15.65 15.65 15.65h135.416c8.644 0 15.65-7.007 15.65-15.65v-72.916c0-8.643-7.006-15.65-15.65-15.65zm-15.65 72.917H302.113v-41.618h104.116v41.618zM166.023 162.111a15.602 15.602 0 0 0 11.067 4.583 15.6 15.6 0 0 0 11.066-4.584l36.455-36.455c6.111-6.112 6.111-16.02 0-22.132l-36.459-36.461c-6.11-6.111-16.022-6.113-22.132-.001-6.112 6.111-6.112 16.02-.001 22.132l9.742 9.743h-55.966c-31.604 0-57.318 25.713-57.318 57.317v187.501c0 31.604 25.714 57.316 57.318 57.316h93.749c8.644 0 15.65-7.006 15.65-15.649 0-8.643-7.006-15.65-15.65-15.65h-93.749c-14.346 0-26.017-11.671-26.017-26.017V156.253c0-14.346 11.671-26.017 26.017-26.017h55.971l-9.743 9.743c-6.111 6.111-6.111 16.02 0 22.132z" class="primary design" style="display:block"/><g class="primary design" style="display:none"><path/><path/><path/><path/></g><g fill="none" class="primary design" style="display:none"><path/><path/></g><path fill="none" class="primary design" style="display:none"/><path fill="none" class="primary design" style="display:none"/></g><g clip-path="url(#c)" opacity="0" style="display:block"><g class="primary design" style="display:none"><path/><path/><path/><path/></g><path fill="none" class="primary design" style="display:none"/><path fill="none" class="primary design" style="display:none"/><path fill="none" class="primary design" style="display:none"/><path fill="none" class="primary design" style="display:none"/><path fill="none" class="primary design" style="display:none"/></g><g class="com" style="display:none"><path/><path/><path/><path/><path/><path/><path/><path/><path/><path/><path/><path/></g></g></svg>