<svg xmlns="http://www.w3.org/2000/svg" width="500" height="500" style="width:100%;height:100%;transform:translate3d(0,0,0);content-visibility:visible" viewBox="0 0 500 500"><defs><clipPath id="c"><path d="M0 0h500v500H0z"/></clipPath><clipPath id="f"><path d="M0 0h500v500H0z"/></clipPath><clipPath id="d"><path d="M0 0h500v500H0z"/></clipPath><mask id="g" mask-type="alpha"><use xmlns:ns1="http://www.w3.org/1999/xlink" ns1:href="#a"/></mask><mask id="e" mask-type="alpha"><use xmlns:ns2="http://www.w3.org/1999/xlink" ns2:href="#b"/></mask><path id="b" class="primary design" style="display:none"/><g id="a" class="primary design" style="display:none"><path fill-opacity="0" stroke-linecap="round" stroke-linejoin="round"/><path/></g></defs><g clip-path="url(#c)"><g clip-path="url(#d)" style="display:block"><g fill="none" class="primary design" mask="url(#e)" style="display:none"><path/><path/></g><path fill="none" class="primary design" style="display:none"/><path fill="#121330" d="m187.53-57.289-.001-.02v-93.731c0-20.117-16.366-36.484-36.483-36.484h-302.085c-20.117 0-36.483 16.367-36.483 36.484v302.085c0 20.117 16.366 36.483 36.483 36.483h93.741l.01.001.01-.001H57.286l.01.001.01-.001h93.74c20.117 0 36.483-16.366 36.483-36.483V-57.27l.001-.019zm-31.301-93.751v78.101H72.946v-83.285h78.1a5.19 5.19 0 0 1 5.183 5.184zM-41.638-72.939v-83.285h83.284v83.285h-83.284zm83.284 31.3v197.867h-83.284V-41.639h83.284zm-192.685-114.585h78.101v83.285h-83.284v-78.101a5.19 5.19 0 0 1 5.183-5.184zm-5.183 307.269V-41.639h83.284v197.867h-78.101a5.189 5.189 0 0 1-5.183-5.183zm307.268 5.183h-78.1V-41.639h83.283v192.684a5.189 5.189 0 0 1-5.183 5.183z" class="primary design" style="display:block" transform="translate(250 250)"/><path class="primary design" style="display:none"/></g><g clip-path="url(#f)" opacity="0" style="display:block"><g fill="none" class="primary design" mask="url(#g)" style="display:none"><path/><path/></g><path fill="none" class="primary design" style="display:none"/><path class="primary design" style="display:none"/></g><g class="com" style="display:none"><path/><path/><path/><path/><path/><path/><path/><path/><path/><path/><path/><path/></g></g></svg>