<svg xmlns="http://www.w3.org/2000/svg" width="500" height="500" style="width:100%;height:100%;transform:translate3d(0,0,0);content-visibility:visible" viewBox="0 0 500 500"><defs><clipPath id="a"><path d="M0 0h500v500H0z"/></clipPath><clipPath id="c"><path d="M0 0h500v500H0z"/></clipPath><clipPath id="b"><path d="M0 0h500v500H0z"/></clipPath></defs><g clip-path="url(#a)"><g clip-path="url(#b)" style="display:block"><path fill="none" class="primary design" style="display:none"/><g fill="none" class="primary design" style="display:none"><path/><path/><path/></g><g fill="#121330" class="primary design" style="display:block"><path d="M401.045 437.529H98.961c-20.117 0-36.484-16.367-36.484-36.484V98.961c0-20.117 16.367-36.484 36.484-36.484l187.501-.004c4.15 0 8.131 1.649 11.067 4.584l135.41 135.41a15.65 15.65 0 0 1 2.809 3.827l.005.011a15.65 15.65 0 0 1 1.776 7.239v187.501c0 20.117-16.367 36.484-36.484 36.484zM279.98 93.774l-181.019.003a5.19 5.19 0 0 0-5.183 5.184v302.084a5.19 5.19 0 0 0 5.183 5.184h302.084a5.19 5.19 0 0 0 5.183-5.184V220.021L279.98 93.774z"/><path d="M338.54 270.861H161.456c-8.644 0-15.65-7.007-15.65-15.65s7.006-15.65 15.65-15.65H338.54c8.644 0 15.65 7.007 15.65 15.65s-7.006 15.65-15.65 15.65zm-83.334-72.921h-93.75c-8.644 0-15.65-7.007-15.65-15.65s7.006-15.65 15.65-15.65h93.75c8.644 0 15.65 7.007 15.65 15.65s-7.006 15.65-15.65 15.65zm83.334 145.836H161.456c-8.644 0-15.65-7.007-15.65-15.65s7.006-15.65 15.65-15.65H338.54c8.644 0 15.65 7.007 15.65 15.65s-7.006 15.65-15.65 15.65z"/></g><g class="primary design" style="display:none"><path/><path/><path/><path/></g></g><g clip-path="url(#c)" opacity="0" style="display:block"><g fill="none" class="primary design" style="display:none"><path/><path/><path/></g><path fill="none" class="primary design" style="display:none"/><path fill="none" class="primary design" style="display:none"/><g class="primary design" style="display:none"><path/><path/><path/><path/></g></g><g class="com" style="display:none"><path/><path/><path/><path/><path/><path/><path/><path/><path/><path/><path/><path/></g></g></svg>