<svg xmlns="http://www.w3.org/2000/svg" width="500" height="500" style="width:100%;height:100%;transform:translate3d(0,0,0);content-visibility:visible" viewBox="0 0 500 500"><defs><clipPath id="a"><path d="M0 0h500v500H0z"/></clipPath><clipPath id="c"><path d="M0 0h500v500H0z"/></clipPath><clipPath id="b"><path d="M0 0h500v500H0z"/></clipPath></defs><g clip-path="url(#a)"><g clip-path="url(#b)" style="display:block"><g fill="none" class="primary design" style="display:none"><path/><path/></g><g fill="none" class="primary design" style="display:none"><path/><path/></g><path fill="none" class="primary design" style="display:none"/><path fill="none" class="primary design" style="display:none"/><g fill="#121330" class="primary design" style="display:block"><path d="M261.07 129.561a15.652 15.652 0 0 0-22.133 0l-52.084 52.084c-6.111 6.112-6.111 16.02 0 22.132 6.112 6.111 16.021 6.111 22.133 0l25.367-25.367v118.468c0 8.643 7.006 15.65 15.65 15.65s15.651-7.007 15.651-15.65V178.411l25.366 25.366a15.6 15.6 0 0 0 11.066 4.584c4.005 0 8.011-1.529 11.067-4.584 6.111-6.112 6.111-16.02 0-22.132l-52.083-52.084zm14.975 214.167h-52.084c-8.644 0-15.65 7.007-15.65 15.65s7.006 15.65 15.65 15.65h52.084c8.644 0 15.65-7.007 15.65-15.65s-7.006-15.65-15.65-15.65z"/><path d="M250.004 41.644c-114.89 0-208.361 93.469-208.361 208.359 0 114.89 93.471 208.359 208.361 208.359 114.89 0 208.359-93.469 208.359-208.359 0-114.89-93.469-208.359-208.359-208.359zm-.001 385.418c-97.631 0-177.059-79.428-177.059-177.059S152.372 72.944 250.003 72.944s177.059 79.428 177.059 177.059-79.428 177.059-177.059 177.059z"/></g><g class="primary design" style="display:none"><path/><path/><path/></g></g><g clip-path="url(#c)" opacity="0" style="display:block"><g fill="none" class="primary design" style="display:none"><path/><path/></g><path fill="none" class="primary design" style="display:none"/><g class="primary design" style="display:none"><path/><path/><path/></g><path fill="none" class="primary design" style="display:none"/></g><g class="com" style="display:none"><path/><path/><path/><path/><path/><path/><path/><path/><path/><path/><path/><path/></g></g></svg>