<svg xmlns="http://www.w3.org/2000/svg" width="500" height="500" style="width:100%;height:100%;transform:translate3d(0,0,0);content-visibility:visible" viewBox="0 0 500 500"><defs><clipPath id="a"><path d="M0 0h500v500H0z"/></clipPath><clipPath id="c"><path d="M0 0h500v500H0z"/></clipPath><clipPath id="b"><path d="M0 0h500v500H0z"/></clipPath></defs><g clip-path="url(#a)"><g clip-path="url(#b)" style="display:block"><path fill="#121330" d="M182.942 108.726c-6.112-6.111-16.02-6.111-22.132 0l-25.368 25.368-.004-225.346c-.002-41.598-33.845-75.44-75.443-75.44h-.203c-41.599 0-75.442 33.843-75.442 75.442V91.837c0 24.34-19.802 44.142-44.142 44.142h-.209c-24.34 0-44.142-19.802-44.142-44.142v-225.93l25.368 25.367c6.111 6.111 16.021 6.111 22.132 0 6.111-6.112 6.111-16.02 0-22.132l-52.084-52.084a15.652 15.652 0 0 0-22.132 0l-52.083 52.084c-6.111 6.111-6.111 16.02 0 22.132a15.602 15.602 0 0 0 11.066 4.584 15.6 15.6 0 0 0 11.066-4.584l25.367-25.367v225.93c0 41.599 33.843 75.442 75.442 75.442h.209c41.599 0 75.442-33.843 75.442-75.442V-91.25c0-24.34 19.802-44.143 44.142-44.143h.203c24.339 0 44.142 19.803 44.142 44.142l.004 225.344-25.367-25.367c-6.111-6.111-16.021-6.111-22.132 0-6.111 6.112-6.111 16.021 0 22.133l52.084 52.083a15.6 15.6 0 0 0 11.066 4.584 15.6 15.6 0 0 0 11.066-4.584l52.084-52.083c6.111-6.112 6.111-16.021 0-22.133z" class="primary design" style="display:block" transform="translate(250.004 250.003)"/></g><g clip-path="url(#c)" opacity="0" style="display:block"><path fill="none" class="primary design" style="display:none"/><path fill="none" class="primary design" style="display:none"/><path fill="none" class="primary design" style="display:none"/><path class="primary design" style="display:none"/></g><g class="com" style="display:none"><path/><path/><path/><path/><path/><path/><path/><path/><path/><path/><path/><path/></g></g></svg>