<svg xmlns="http://www.w3.org/2000/svg" width="500" height="500" style="width:100%;height:100%;transform:translate3d(0,0,0);content-visibility:visible" viewBox="0 0 500 500"><defs><clipPath id="c"><path d="M0 0h500v500H0z"/></clipPath><clipPath id="g"><path d="M0 0h500v500H0z"/></clipPath><clipPath id="d"><path d="M0 0h500v500H0z"/></clipPath><clipPath id="e"><path d="M0 0h500v500H0z"/></clipPath><filter id="a" width="100%" height="100%" x="0%" y="0%" filterUnits="objectBoundingBox"><feComponentTransfer in="SourceGraphic"><feFuncA tableValues="1.0 0.0" type="table"/></feComponentTransfer></filter><path id="b" style="display:none"/><mask id="f" mask-type="alpha"><g filter="url(#a)"><path fill="#fff" d="M0 0h500v500H0z" opacity="0"/><use xmlns:ns1="http://www.w3.org/1999/xlink" ns1:href="#b"/></g></mask></defs><g clip-path="url(#c)"><g clip-path="url(#d)" style="display:block"><g clip-path="url(#e)" mask="url(#f)" style="display:none"><g style="display:none"><path/><path fill="none"/></g><g style="display:none"><path/><path fill="none"/></g><g style="display:none"><path/><path fill="none"/></g><g style="display:none"><path/><path fill="none"/></g></g><path fill="#121330" d="M-57.287 208.362a15.65 15.65 0 0 1-15.651-15.65V33.539l-97-93.296c-11.175-10.747-17.584-25.804-17.584-41.31v-70.806c0-8.643 7.006-15.65 15.65-15.65H171.88c8.644 0 15.65 7.007 15.65 15.65v70.806c0 15.504-6.409 30.561-17.585 41.31L72.946 33.539v117.506a15.65 15.65 0 0 1-10.301 14.708L-51.939 207.42a15.658 15.658 0 0 1-5.348.942zm-98.935-364.585v55.156c0 7.038 2.91 13.873 7.982 18.751l101.801 97.914a15.653 15.653 0 0 1 4.801 11.28v143.491l83.284-30.285V26.878c0-4.256 1.734-8.33 4.801-11.28l101.801-97.913a26.149 26.149 0 0 0 7.981-18.752v-55.156h-312.451z" style="display:block" transform="translate(250 250)"/></g><g clip-path="url(#g)" opacity="0" style="display:block"><path fill="none" style="display:none"/><path style="display:none"/></g><path style="display:none"/></g></svg>