<svg xmlns="http://www.w3.org/2000/svg" width="500" height="500" style="width:100%;height:100%;transform:translate3d(0,0,0);content-visibility:visible" viewBox="0 0 500 500"><defs><clipPath id="a"><path d="M0 0h500v500H0z"/></clipPath><clipPath id="d"><path d="M0 0h500v500H0z"/></clipPath><clipPath id="c"><path d="M0 0h500v500H0z"/></clipPath><clipPath id="b"><path d="M0 0h500v500H0z"/></clipPath></defs><g clip-path="url(#a)"><g clip-path="url(#b)" opacity="0" style="display:block"><path fill="#121330" d="M171.875-83.353c-8.644 0-15.651 7.007-15.651 15.65v93.745c0 14.346-11.67 26.016-26.016 26.016h-260.416c-14.346 0-26.016-11.67-26.016-26.016v-93.75c0-8.643-7.007-15.65-15.651-15.65s-15.65 7.007-15.65 15.65v93.75c0 31.604 25.713 57.316 57.317 57.316h260.416c31.604 0 57.317-25.712 57.317-57.316v-93.745c0-8.643-7.006-15.65-15.65-15.65z" class="primary design" opacity="1" style="display:block" transform="translate(249.998 354.165)"/><path fill="none" stroke="#121330" stroke-linecap="round" stroke-linejoin="round" stroke-width="31.3" d="m249.997 338.545 88.549-88.544m-177.084.009 88.535 88.535s0 0 0 0m-.001 0 .008-239.588" class="primary design" opacity="1" style="display:block"/><g fill="none" class="primary design" style="display:none"><path/><path/></g><g class="primary design" style="display:none"><path/><path/></g></g><g clip-path="url(#c)" style="display:block"><path fill="none" class="primary design" style="display:none"/><g fill="none" class="primary design" style="display:none"><path/><path/></g><g fill="none" class="primary design" style="display:none"><path/><path/></g><g fill="#121330" class="primary design" style="display:block"><path d="M421.873 270.812c-8.644 0-15.651 7.007-15.651 15.65v93.745c0 14.346-11.67 26.016-26.016 26.016H119.79c-14.346 0-26.016-11.67-26.016-26.016v-93.75c0-8.643-7.007-15.65-15.651-15.65s-15.65 7.007-15.65 15.65v93.75c0 31.604 25.713 57.316 57.317 57.316h260.416c31.604 0 57.317-25.712 57.317-57.316v-93.745c0-8.643-7.006-15.65-15.65-15.65z"/><path d="M238.93 349.612c.02.02.042.037.063.057.346.342.707.669 1.083.978.186.153.382.286.573.429.217.162.43.331.656.482.226.151.46.283.692.421.207.123.409.253.622.367.235.126.476.232.716.345.223.105.442.217.671.312.233.097.472.174.709.259.245.088.487.182.737.258.237.072.477.124.716.184.256.064.509.136.77.188.274.054.549.086.825.126.23.033.456.076.689.099a15.9 15.9 0 0 0 1.527.077l.016.001h.001c.516 0 1.031-.027 1.545-.078.232-.023.457-.066.686-.099.276-.04.553-.072.827-.126.261-.052.514-.123.77-.188.239-.06.48-.112.717-.184.249-.075.488-.169.731-.256.239-.085.48-.165.715-.262.225-.094.441-.203.661-.307.243-.114.489-.222.727-.35.209-.112.408-.24.611-.361.235-.14.473-.273.702-.426.224-.15.434-.317.649-.478.193-.144.391-.279.579-.433.399-.327.783-.672 1.147-1.037l88.548-88.543c6.112-6.111 6.112-16.02.001-22.132-6.11-6.111-16.021-6.113-22.131-.001l-61.833 61.828.006-201.805c0-8.643-7.006-15.65-15.649-15.65h-.001c-8.643 0-15.649 7.006-15.65 15.649l-.007 201.807-61.819-61.819c-6.112-6.111-16.02-6.111-22.132 0-6.111 6.112-6.111 16.021 0 22.132l88.534 88.536z"/></g><g class="primary design" style="display:none"><path/><path/></g></g><g clip-path="url(#d)" opacity="0" style="display:block"><g class="primary design" style="display:none"><path/><path/></g><path fill="none" class="primary design" style="display:none"/><g fill="none" class="primary design" style="display:none"><path/><path/></g></g><g class="com" style="display:none"><path/><path/><path/><path/><path/><path/><path/><path/><path/><path/><path/><path/></g></g></svg>