<svg xmlns="http://www.w3.org/2000/svg" width="500" height="500" style="width:100%;height:100%;transform:translate3d(0,0,0);content-visibility:visible" viewBox="0 0 500 500"><defs><clipPath id="b"><path d="M0 0h500v500H0z"/></clipPath><clipPath id="d"><path d="M0 0h500v500H0z"/></clipPath><clipPath id="c"><path d="M0 0h500v500H0z"/></clipPath><mask id="e" mask-type="alpha"><use xmlns:ns1="http://www.w3.org/1999/xlink" ns1:href="#a"/></mask><g id="a" class="primary design" style="display:none"><path fill-opacity="0" stroke-linecap="round" stroke-linejoin="round"/><path/></g></defs><g clip-path="url(#b)"><g clip-path="url(#c)" style="display:block"><g fill="none" class="primary design" style="display:none"><path/><path/></g><path fill="#121330" d="M151.046-187.524h-302.085c-20.117 0-36.483 16.367-36.483 36.484v302.085c0 20.117 16.366 36.483 36.483 36.483h93.741l.01.001.01-.001h208.324c20.117 0 36.483-16.366 36.483-36.483V-151.04c0-20.117-16.366-36.484-36.483-36.484zM-156.222-41.639h83.284v83.284h-83.284v-83.284zm5.183-114.585h78.101v83.285h-83.284v-78.101a5.19 5.19 0 0 1 5.183-5.184zm-5.183 307.269v-78.1h83.284v83.283h-78.101a5.189 5.189 0 0 1-5.183-5.183zm312.451 0a5.189 5.189 0 0 1-5.183 5.183H-41.638v-312.452h192.684a5.19 5.19 0 0 1 5.183 5.184v302.085z" class="primary design" style="display:block" transform="translate(250 250)"/><path class="primary design" style="display:none"/></g><g clip-path="url(#d)" opacity="0" style="display:block"><g mask="url(#e)" style="display:none"><path fill="none" class="primary design"/></g><path class="primary design" style="display:none"/><path fill="none" class="primary design" style="display:none"/></g><g class="com" style="display:none"><path/><path/><path/><path/><path/><path/><path/><path/><path/><path/><path/><path/></g></g></svg>