<svg xmlns="http://www.w3.org/2000/svg" width="500" height="500" style="width:100%;height:100%;transform:translate3d(0,0,0);content-visibility:visible" viewBox="0 0 500 500"><defs><clipPath id="a"><path d="M0 0h500v500H0z"/></clipPath><clipPath id="c"><path d="M0 0h500v500H0z"/></clipPath><clipPath id="b"><path d="M0 0h500v500H0z"/></clipPath></defs><g clip-path="url(#a)"><g clip-path="url(#b)" style="display:block"><g fill="none" class="primary design" style="display:none"><path/><path/><path/></g><path fill="#121330" d="M178.774 99.979 84.085-51.364v-104.859h4.461c8.644 0 15.65-7.007 15.65-15.65s-7.006-15.65-15.65-15.65H-88.538c-8.644 0-15.65 7.007-15.65 15.65s7.006 15.65 15.65 15.65h4.46v104.859l-94.69 151.343c-11.154 17.829-11.733 39.45-1.547 57.837 10.306 18.605 29.23 29.713 50.622 29.713h259.394c21.392 0 40.315-11.108 50.621-29.713 10.186-18.387 9.606-40.008-1.548-57.837zM52.784-156.223v109.351c0 2.936.826 5.812 2.383 8.301L79.286-.022H-79.279l24.119-38.549a15.652 15.652 0 0 0 2.383-8.301v-109.351H52.784zM152.942 142.65c-4.71 8.503-13.398 13.579-23.241 13.579h-259.394c-9.844 0-18.533-5.077-23.243-13.58-4.59-8.285-4.325-18.029.704-26.068l53.37-85.303H98.869l53.37 85.303c5.03 8.039 5.293 17.784.703 26.069z" class="primary design" style="display:block" transform="translate(250 250)"/><path class="primary design" style="display:none"/></g><g clip-path="url(#c)" opacity="0" style="display:block"><g fill="none" class="primary design" style="display:none"><path/><path/><path/></g><path class="primary design" style="display:none"/></g><g class="com" style="display:none"><path/><path/><path/><path/><path/><path/><path/><path/><path/><path/><path/><path/></g></g></svg>