<svg xmlns="http://www.w3.org/2000/svg" width="500" height="500" style="width:100%;height:100%;transform:translate3d(0,0,0);content-visibility:visible" viewBox="0 0 500 500"><defs><clipPath id="a"><path d="M0 0h500v500H0z"/></clipPath><clipPath id="c"><path d="M0 0h500v500H0z"/></clipPath><clipPath id="b"><path d="M0 0h500v500H0z"/></clipPath></defs><g clip-path="url(#a)"><g clip-path="url(#b)" style="display:block"><path fill="none" class="primary design" style="display:none"/><path fill="none" class="primary design" style="display:none"/><g fill="#121330" class="primary design" style="display:block"><path d="M424.95 114.865c-35.445-7.092-134.479-29.902-166.652-50.009a15.647 15.647 0 0 0-16.588 0c-32.173 20.107-131.207 42.917-166.652 50.009-8.073 1.615-13.516 9.211-12.448 17.375l7.087 54.191c12.72 96.068 66.627 181.068 147.879 233.192l23.959 15.416a15.636 15.636 0 0 0 8.469 2.49c2.944 0 5.89-.83 8.469-2.49l23.94-15.404c81.27-52.136 135.177-137.135 147.901-233.228l7.084-54.167c1.068-8.164-4.375-15.76-12.448-17.375zm-25.669 67.458c-11.51 86.919-60.266 163.813-133.787 210.978l-15.49 9.968-15.509-9.979c-73.503-47.153-122.259-124.047-133.765-210.942l-5.205-39.794c33.146-7.159 114.639-26.034 154.479-46.487 39.84 20.453 121.333 39.328 154.479 46.487l-5.202 39.769z"/><path d="M193.355 233.648c-6.115-6.107-16.024-6.103-22.133.013-6.107 6.116-6.101 16.025.014 22.133l52.218 52.155a15.602 15.602 0 0 0 11.06 4.577c4.002 0 8.005-1.526 11.06-4.577L355.08 198.571c6.115-6.108 6.121-16.018.014-22.133-6.109-6.116-16.018-6.12-22.133-.013l-98.447 98.332-41.159-41.109z"/></g><g class="primary design" style="display:none"><path/><path/></g></g><g clip-path="url(#c)" opacity="0" style="display:block"><path fill="none" class="primary design" style="display:none"/><path fill="none" class="primary design" style="display:none"/><path fill="none" class="primary design" style="display:none"/><g class="primary design" style="display:none"><path/><path/></g></g><g class="com" style="display:none"><path/><path/><path/><path/><path/><path/><path/><path/><path/><path/><path/><path/></g></g></svg>