<svg xmlns="http://www.w3.org/2000/svg" width="500" height="500" style="width:100%;height:100%;transform:translate3d(0,0,0);content-visibility:visible" viewBox="0 0 500 500"><defs><clipPath id="a"><path d="M0 0h500v500H0z"/></clipPath><clipPath id="c"><path d="M0 0h500v500H0z"/></clipPath><clipPath id="b"><path d="M0 0h500v500H0z"/></clipPath></defs><g clip-path="url(#a)"><g clip-path="url(#b)" style="display:block"><g class="primary design" style="display:none"><path/><path fill="none"/></g><g class="primary design" style="display:none"><path/><path fill="none"/></g><g class="primary design" style="display:none"><path/><path fill="none"/></g><g class="primary design" style="display:none"><path/><path fill="none"/></g><g class="primary design" style="display:none"><path/><path fill="none"/></g><g class="primary design" style="display:none"><path/><path fill="none"/></g><g class="primary design" style="display:none"><path/><path fill="none"/></g><g class="primary design" style="display:none"><path/><path fill="none"/></g><g class="primary design" style="display:block"><path fill="none" stroke="#121330" stroke-width="2" d="M250 250"/><path fill="#121330" d="M421.88 124.982h-46.852v-5.188c0-20.117-16.367-36.484-36.484-36.484H161.462c-20.117 0-36.484 16.367-36.484 36.484v5.188H78.13c-20.12 0-36.49 16.365-36.49 36.48v177.08c0 20.121 16.37 36.49 36.49 36.49h46.848v5.18c0 20.117 16.367 36.483 36.484 36.483h177.082c20.117 0 36.484-16.366 36.484-36.483v-5.18h46.852c20.115 0 36.48-16.369 36.48-36.49v-177.08c0-20.115-16.365-36.48-36.48-36.48zM78.13 343.732a5.196 5.196 0 0 1-5.19-5.19v-177.08c0-2.856 2.329-5.18 5.19-5.18h46.848v187.45H78.13zm265.598 36.48a5.19 5.19 0 0 1-5.184 5.183H161.462a5.19 5.19 0 0 1-5.184-5.183v-20.791l.002-.039-.002-.039V140.671l.002-.039-.002-.039v-20.799a5.19 5.19 0 0 1 5.184-5.184h177.082a5.19 5.19 0 0 1 5.184 5.184v260.418zm83.332-41.67c0 2.862-2.324 5.19-5.18 5.19h-46.852v-187.45h46.852a5.186 5.186 0 0 1 5.18 5.18v177.08z"/></g><g class="primary design" style="display:none"><path fill="none"/><path/></g></g><g clip-path="url(#c)" opacity="0" style="display:block"><path fill="none" class="primary design" style="display:none"/><path fill="none" class="primary design" style="display:none"/><path fill="none" class="primary design" style="display:none"/><path class="primary design" style="display:none"/></g><g class="com" style="display:none"><path/><path/><path/><path/><path/><path/><path/><path/><path/><path/><path/><path/></g></g></svg>