<svg xmlns="http://www.w3.org/2000/svg" width="500" height="500" style="width:100%;height:100%;transform:translate3d(0,0,0);content-visibility:visible" viewBox="0 0 500 500"><defs><clipPath id="a"><path d="M0 0h500v500H0z"/></clipPath><clipPath id="c"><path d="M0 0h500v500H0z"/></clipPath><clipPath id="b"><path d="M0 0h500v500H0z"/></clipPath></defs><g clip-path="url(#a)"><g clip-path="url(#b)" style="display:block"><g fill="none" class="primary design" style="display:none"><path/><path/><path/></g><g fill="#121330" class="primary design" style="display:block"><path d="M380.206 437.523h-52.083c-8.644 0-15.65-7.007-15.65-15.65v-93.75c0-31.604 25.713-57.316 57.317-57.316h10.416c31.604 0 57.317 25.712 57.317 57.316v52.084c0 31.604-25.713 57.316-57.317 57.316zm-36.433-31.299h36.433c14.346 0 26.017-11.671 26.017-26.017v-52.084c0-14.346-11.671-26.017-26.017-26.017H369.79c-14.346 0-26.017 11.671-26.017 26.017v78.101zm-171.896 31.299h-52.083c-31.604 0-57.318-25.712-57.318-57.316v-52.084c0-31.604 25.714-57.316 57.318-57.316h10.416c31.604 0 57.318 25.712 57.318 57.316v93.75c0 8.643-7.007 15.65-15.651 15.65zm-52.083-135.417c-14.346 0-26.017 11.671-26.017 26.017v52.084c0 14.346 11.671 26.017 26.017 26.017h36.433v-78.101c0-14.346-11.671-26.017-26.017-26.017h-10.416z"/><path d="M421.873 348.985c-8.644 0-15.651-7.007-15.651-15.65v-88.541c0-83.271-67.746-151.017-151.017-151.017h-10.411c-83.271 0-151.016 67.746-151.016 151.017v88.541c0 8.643-7.007 15.65-15.651 15.65s-15.65-7.007-15.65-15.65v-88.541c0-100.53 81.787-182.317 182.317-182.317h10.411c100.53 0 182.318 81.787 182.318 182.317v88.541c0 8.643-7.006 15.65-15.65 15.65z"/></g><g class="primary design" style="display:none"><path/><path/><path/></g></g><g clip-path="url(#c)" opacity="0" style="display:block"><g fill="none" class="primary design" style="display:none"><path/><path/><path/></g><g class="primary design" style="display:none"><path/><path/><path/></g><path fill="none" class="primary design" style="display:none"/><path fill="none" class="primary design" style="display:none"/></g><g class="com" style="display:none"><path/><path/><path/><path/><path/><path/><path/><path/><path/><path/><path/><path/></g></g></svg>