<svg xmlns="http://www.w3.org/2000/svg" width="500" height="500" style="width:100%;height:100%;transform:translate3d(0,0,0);content-visibility:visible" viewBox="0 0 500 500"><defs><clipPath id="d"><path d="M0 0h500v500H0z"/></clipPath><clipPath id="i"><path d="M0 0h500v500H0z"/></clipPath><clipPath id="g"><path d="M0 0h500v500H0z"/></clipPath><clipPath id="e"><path d="M0 0h500v500H0z"/></clipPath><path id="a" class="primary design" style="display:none"/><path id="b" class="primary design" style="display:none"/><path id="c" fill="#121331" d="M-145.998-137.757a5.597 5.597 0 0 1 5.59-5.59h280.815a5.597 5.597 0 0 1 5.59 5.59V58.79H73.005c-3.06 0-6.062.832-8.686 2.406l-24.06 14.443h-80.511l-24.085-14.446a16.87 16.87 0 0 0-8.68-2.403h-72.981v-196.547z" class="primary design" style="display:block" transform="translate(249.998 250.003)"/><mask id="j" mask-type="alpha"><use xmlns:ns1="http://www.w3.org/1999/xlink" ns1:href="#a"/></mask><mask id="h" mask-type="alpha"><use xmlns:ns2="http://www.w3.org/1999/xlink" ns2:href="#b"/></mask><mask id="f" mask-type="alpha"><use xmlns:ns3="http://www.w3.org/1999/xlink" ns3:href="#c"/></mask></defs><g clip-path="url(#d)"><g clip-path="url(#e)" opacity="0" style="display:block"><g class="primary design" mask="url(#f)" style="display:block"><path fill="#121330" d="M203.234 450.906c6.505 5.692 16.392 5.032 22.083-1.473l9.032-10.321-.001 52.099c0 8.644 7.006 15.65 15.65 15.65 8.643 0 15.65-7.006 15.651-15.649l.001-52.098 9.028 10.319a15.612 15.612 0 0 0 11.784 5.345 15.59 15.59 0 0 0 10.3-3.872c6.505-5.691 7.164-15.578 1.473-22.083l-36.457-41.667c-.091-.104-.194-.193-.287-.294a15.496 15.496 0 0 0-.693-.711 14.879 14.879 0 0 0-.474-.432 15.183 15.183 0 0 0-.747-.617 15.007 15.007 0 0 0-.498-.373 15.469 15.469 0 0 0-.846-.56c-.16-.099-.319-.199-.482-.292a15.884 15.884 0 0 0-.978-.509c-.145-.069-.286-.143-.433-.208a15.583 15.583 0 0 0-1.124-.44c-.124-.044-.245-.095-.37-.136a15.79 15.79 0 0 0-1.251-.342c-.106-.025-.209-.058-.316-.081a15.57 15.57 0 0 0-1.342-.218c-.095-.012-.188-.033-.283-.043a15.854 15.854 0 0 0-1.654-.089h-.001l-.015.001c-.553.001-1.098.031-1.636.088-.107.011-.212.034-.319.048-.439.055-.876.121-1.303.212-.12.026-.235.063-.354.091-.409.097-.814.202-1.21.331-.138.045-.272.101-.409.15-.366.131-.729.267-1.082.423-.16.071-.315.152-.472.228-.318.154-.632.312-.937.486-.176.1-.347.208-.519.315-.274.171-.543.346-.805.533a15.787 15.787 0 0 0-1.241.984c-.173.152-.344.305-.511.465-.224.215-.438.438-.649.666-.103.111-.215.209-.315.323l-36.46 41.667c-5.692 6.504-5.033 16.392 1.472 22.084zm0-237c6.505 5.692 16.392 5.032 22.083-1.473l9.032-10.321-.001 52.099c0 8.644 7.006 15.65 15.65 15.65 8.643 0 15.65-7.006 15.651-15.649l.001-52.098 9.028 10.319a15.612 15.612 0 0 0 11.784 5.345 15.59 15.59 0 0 0 10.3-3.872c6.505-5.691 7.164-15.578 1.473-22.083l-36.457-41.667c-.091-.104-.194-.193-.287-.294a15.496 15.496 0 0 0-.693-.711 14.879 14.879 0 0 0-.474-.432 15.183 15.183 0 0 0-.747-.617 15.007 15.007 0 0 0-.498-.373 15.469 15.469 0 0 0-.846-.56c-.16-.099-.319-.199-.482-.292a15.884 15.884 0 0 0-.978-.509c-.145-.069-.286-.143-.433-.208a15.583 15.583 0 0 0-1.124-.44c-.124-.044-.245-.095-.37-.136a15.79 15.79 0 0 0-1.251-.342c-.106-.025-.209-.058-.316-.081a15.57 15.57 0 0 0-1.342-.218c-.095-.012-.188-.033-.283-.043a15.854 15.854 0 0 0-1.654-.089h-.001l-.015.001c-.553.001-1.098.031-1.636.088-.107.011-.212.034-.319.048-.439.055-.876.121-1.303.212-.12.026-.235.063-.354.091-.409.097-.814.202-1.21.331-.138.045-.272.101-.409.15-.366.131-.729.267-1.082.423-.16.071-.315.152-.472.228-.318.154-.632.312-.937.486-.176.1-.347.208-.519.315-.274.171-.543.346-.805.533a15.787 15.787 0 0 0-1.241.984c-.173.152-.344.305-.511.465-.224.215-.438.438-.649.666-.103.111-.215.209-.315.323l-36.46 41.667c-5.692 6.504-5.033 16.392 1.472 22.084z"/></g><path fill="#121330" d="M192.708 52.06h-26.016v-182.269c0-20.117-16.367-36.484-36.484-36.484h-260.416c-20.117 0-36.485 16.367-36.485 36.484V52.06h-26.015c-8.644 0-15.651 7.007-15.651 15.65v41.666c0 31.604 25.713 57.317 57.317 57.317h302.084c31.604 0 57.317-25.713 57.317-57.317V67.71c0-8.643-7.007-15.65-15.651-15.65zm-328.1-182.269a5.19 5.19 0 0 1 5.184-5.184h260.416a5.19 5.19 0 0 1 5.183 5.184V52.06H67.702c-2.838 0-5.621.772-8.055 2.232L37.334 67.685h-74.662l-22.336-13.396a15.652 15.652 0 0 0-8.049-2.229h-67.679v-182.269zm312.45 239.585c0 14.346-11.67 26.017-26.016 26.017h-302.084c-14.346 0-26.016-11.671-26.016-26.017V83.36h105.012l22.336 13.396a15.652 15.652 0 0 0 8.049 2.229H41.67c2.838 0 5.621-.772 8.055-2.232L72.038 83.36h105.02v26.016z" class="primary design" opacity="1" style="display:block" transform="translate(249.998 250.003)"/></g><g clip-path="url(#g)" style="display:block"><path fill="none" class="primary design" style="display:none"/><path fill="none" class="primary design" style="display:none"/><g class="primary design" mask="url(#h)" style="display:none"><path/><path/><path/></g><g fill="#121330" class="primary design" style="display:block"><path d="M442.706 302.063H416.69V119.794c0-20.117-16.367-36.484-36.484-36.484H119.79c-20.117 0-36.485 16.367-36.485 36.484v182.269H57.29c-8.644 0-15.651 7.007-15.651 15.65v41.666c0 31.604 25.713 57.317 57.317 57.317H401.04c31.604 0 57.317-25.713 57.317-57.317v-41.666c0-8.643-7.007-15.65-15.651-15.65zm-328.1-182.269a5.19 5.19 0 0 1 5.184-5.184h260.416a5.19 5.19 0 0 1 5.183 5.184v182.269H317.7c-2.838 0-5.621.772-8.055 2.232l-22.313 13.393H212.67l-22.336-13.396a15.652 15.652 0 0 0-8.049-2.229h-67.679V119.794zm312.45 239.585c0 14.346-11.67 26.017-26.016 26.017H98.956c-14.346 0-26.016-11.671-26.016-26.017v-26.016h105.012l22.336 13.396a15.652 15.652 0 0 0 8.049 2.229h83.331c2.838 0 5.621-.772 8.055-2.232l22.313-13.393h105.02v26.016z"/><path d="M203.234 214.906c6.505 5.692 16.392 5.032 22.083-1.473l9.032-10.321-.001 52.099c0 8.644 7.006 15.65 15.65 15.65 8.643 0 15.65-7.006 15.651-15.649l.001-52.098 9.028 10.319a15.612 15.612 0 0 0 11.784 5.345 15.59 15.59 0 0 0 10.3-3.872c6.505-5.691 7.164-15.578 1.473-22.083l-36.457-41.667c-.091-.104-.194-.193-.287-.294a15.496 15.496 0 0 0-.693-.711 14.879 14.879 0 0 0-.474-.432 15.183 15.183 0 0 0-.747-.617 15.007 15.007 0 0 0-.498-.373 15.469 15.469 0 0 0-.846-.56c-.16-.099-.319-.199-.482-.292a15.884 15.884 0 0 0-.978-.509c-.145-.069-.286-.143-.433-.208a15.583 15.583 0 0 0-1.124-.44c-.124-.044-.245-.095-.37-.136a15.79 15.79 0 0 0-1.251-.342c-.106-.025-.209-.058-.316-.081a15.57 15.57 0 0 0-1.342-.218c-.095-.012-.188-.033-.283-.043a15.854 15.854 0 0 0-1.654-.089h-.001l-.015.001c-.553.001-1.098.031-1.636.088-.107.011-.212.034-.319.048-.439.055-.876.121-1.303.212-.12.026-.235.063-.354.091-.409.097-.814.202-1.21.331-.138.045-.272.101-.409.15-.366.131-.729.267-1.082.423-.16.071-.315.152-.472.228-.318.154-.632.312-.937.486-.176.1-.347.208-.519.315-.274.171-.543.346-.805.533a15.787 15.787 0 0 0-1.241.984c-.173.152-.344.305-.511.465-.224.215-.438.438-.649.666-.103.111-.215.209-.315.323l-36.46 41.667c-5.692 6.504-5.033 16.392 1.472 22.084z"/></g><g class="primary design" style="display:none"><path/><path/></g></g><g clip-path="url(#i)" opacity="0" style="display:block"><path fill="none" class="primary design" style="display:none"/><path fill="none" class="primary design" style="display:none"/><g class="primary design" mask="url(#j)" style="display:none"><path/><path/><path/></g><g class="primary design" style="display:none"><path/><path/></g></g><g class="com" style="display:none"><path/><path/><path/><path/><path/><path/><path/><path/><path/><path/><path/><path/></g></g></svg>