<svg xmlns="http://www.w3.org/2000/svg" width="500" height="500" style="width:100%;height:100%;transform:translate3d(0,0,0);content-visibility:visible" viewBox="0 0 500 500"><defs><clipPath id="a"><path d="M0 0h500v500H0z"/></clipPath><clipPath id="c"><path d="M0 0h500v500H0z"/></clipPath><clipPath id="b"><path d="M0 0h500v500H0z"/></clipPath></defs><g clip-path="url(#a)"><g clip-path="url(#b)" style="display:block"><g class="primary design" style="display:none"><path/><path/></g><g fill="#121330" class="primary design" style="display:block"><path d="M250.21 281.247c-6.249 0-11.456 2.29-15.622 5.624l-49.16-13.123c-8.54-2.292-16.871 2.708-19.163 11.04-2.291 8.332 2.708 16.872 11.04 19.163l48.95 13.123c3.958 9.582 13.332 16.248 24.164 16.248 14.372 0 26.037-11.665 26.037-26.038 0-14.373-11.873-26.037-26.246-26.037z"/><path d="M446.845 254.792c-.208-.625-.416-.833-.624-1.458-28.954-80.82-105.817-138.728-196.22-138.728-90.818 0-167.889 58.533-196.426 139.561 0 .209-.208.209-.208.417v.208c-7.5 21.455-11.665 44.368-11.665 68.114v57.283c0 8.54 7.082 15.622 15.622 15.622H442.68c8.54 0 15.623-7.082 15.623-15.622v-57.283c0-23.746-4.166-46.45-11.457-67.489v-.625zm-19.788 109.774H72.947v-41.66c0-15.622 2.291-30.62 6.04-45.2l21.247 5.623c1.25.417 2.708.625 3.958.625 6.874 0 13.123-4.582 14.998-11.664 2.29-8.332-2.708-16.873-11.04-19.164l-18.54-4.791c26.247-55.824 80.613-96.026 144.77-101.65v26.662c0 8.54 7.082 15.623 15.622 15.623s15.622-7.083 15.622-15.623v-26.454c64.157 5.624 118.523 45.826 144.56 101.65l-18.538 5c-8.332 2.29-13.331 10.831-11.04 19.163 1.875 7.082 8.124 11.665 14.998 11.665 1.25 0 2.708-.208 3.957-.625l21.039-5.624c3.749 14.373 6.04 29.579 6.04 45.201v41.243h.417z"/></g><g fill="none" class="primary design" style="display:none"><path/><path/><path/><path/></g><g class="primary design" style="display:none"><path/><path fill="none"/><path fill="none"/></g></g><g clip-path="url(#c)" opacity="0" style="display:block"><g class="primary design" style="display:none"><path fill="none"/><path/><path/></g><g fill="none" class="primary design" style="display:none"><path/><path/><path/><path/><path/></g><g class="primary design" style="display:none"><path/><path fill="none"/><path fill="none"/></g></g><g class="com" style="display:none"><path/><path/><path/><path/><path/><path/><path/><path/><path/><path/><path/><path/></g></g></svg>