<svg xmlns="http://www.w3.org/2000/svg" width="500" height="500" style="width:100%;height:100%;transform:translate3d(0,0,0);content-visibility:visible" viewBox="0 0 500 500"><defs><clipPath id="a"><path d="M0 0h500v500H0z"/></clipPath><clipPath id="c"><path d="M0 0h500v500H0z"/></clipPath><clipPath id="b"><path d="M0 0h500v500H0z"/></clipPath></defs><g clip-path="url(#a)"><g clip-path="url(#b)" style="display:block"><g class="primary design" style="display:none"><path/><path fill="none"/></g><g class="primary design" style="display:none"><path/><path fill="none"/></g><g class="primary design" style="display:none"><path/><path fill="none"/></g><g class="primary design" style="display:none"><path/><path fill="none"/></g><g class="primary design" style="display:none"><path/><path fill="none"/></g><g class="primary design" style="display:none"><path/><path fill="none"/></g><g class="primary design" style="display:block"><path fill="none" stroke="#121330" stroke-width="2" d="M0 0"/><path fill="#121330" d="M421.88 62.478H78.128c-8.644 0-15.65 7.007-15.65 15.65v72.916c0 8.643 7.006 15.65 15.65 15.65H421.88c8.644 0 15.65-7.007 15.65-15.65V78.128c0-8.643-7.006-15.65-15.65-15.65zm-15.65 72.916H93.778V93.778H406.23v41.616zm15.65 62.501H78.128c-8.644 0-15.65 7.007-15.65 15.65v72.916c0 8.643 7.006 15.65 15.65 15.65H421.88c8.644 0 15.65-7.007 15.65-15.65v-72.916c0-8.643-7.006-15.65-15.65-15.65zm-15.65 72.916H93.778v-41.616H406.23v41.616zm15.65 62.502H78.128c-8.644 0-15.65 7.007-15.65 15.65v72.916c0 8.643 7.006 15.65 15.65 15.65H421.88c8.644 0 15.65-7.007 15.65-15.65v-72.916c0-8.643-7.006-15.65-15.65-15.65zm-15.65 72.916H93.778v-41.616H406.23v41.616z"/></g><g class="primary design" style="display:none"><path fill="none"/><path/><path/><path/></g></g><g clip-path="url(#c)" opacity="0" style="display:block"><path fill="none" class="primary design" style="display:none"/><path fill="none" class="primary design" style="display:none"/><path fill="none" class="primary design" style="display:none"/><g class="primary design" style="display:none"><path/><path/><path/></g></g><g class="com" style="display:none"><path/><path/><path/><path/><path/><path/><path/><path/><path/><path/><path/><path/></g></g></svg>