<svg xmlns="http://www.w3.org/2000/svg" width="500" height="500" style="width:100%;height:100%;transform:translate3d(0,0,0);content-visibility:visible" viewBox="0 0 500 500"><defs><clipPath id="c"><path d="M0 0h500v500H0z"/></clipPath><clipPath id="f"><path d="M0 0h500v500H0z"/></clipPath><clipPath id="d"><path d="M0 0h500v500H0z"/></clipPath><filter id="a" width="100%" height="100%" x="0%" y="0%" filterUnits="objectBoundingBox"><feComponentTransfer in="SourceGraphic"><feFuncA tableValues="1.0 0.0" type="table"/></feComponentTransfer></filter><mask id="e" mask-type="alpha"><g filter="url(#a)"><path fill="#fff" d="M0 0h500v500H0z" opacity="0"/><use xmlns:ns1="http://www.w3.org/1999/xlink" ns1:href="#b"/></g></mask><g id="b" class="primary design" style="display:none"><path fill-opacity="0" stroke-linecap="round" stroke-linejoin="round"/><path/></g></defs><g clip-path="url(#c)"><g clip-path="url(#d)" style="display:block"><path fill="none" class="primary design" style="display:none"/><g class="primary design" mask="url(#e)" style="display:none"><path/><path/></g><g class="primary design" style="display:none"><path/><path/></g><g fill="#121330" class="primary design" style="display:block"><path d="M358.781 437.523c-2.659 0-5.33-.183-7.999-.554a359.405 359.405 0 0 1-112.544-35.116c-34.521-17.4-65.93-40.13-93.36-67.559-27.429-27.429-50.159-58.839-67.559-93.36A359.403 359.403 0 0 1 42.204 128.39a58.001 58.001 0 0 1 13.705-46.088 57.678 57.678 0 0 1 43.508-19.825h68.655a36.61 36.61 0 0 1 36.102 30.287l8.069 45.726c3.856 21.85-5.352 44.256-23.458 57.081l-6.573 4.655c25.147 38.34 58.332 71.28 97.082 96.364l4.299-6.097c12.816-18.172 35.248-27.416 57.149-23.553l45.665 8.059a36.607 36.607 0 0 1 30.289 36.101v68.656a57.678 57.678 0 0 1-19.825 43.508 58.004 58.004 0 0 1-38.09 14.259zM168.072 93.777H99.417c-7.737 0-14.805 3.223-19.902 9.077a26.72 26.72 0 0 0-6.309 21.228C93.453 269.804 209.367 385.719 355.09 405.968a26.71 26.71 0 0 0 21.228-6.31c5.854-5.097 9.077-12.164 9.077-19.902V311.1a5.353 5.353 0 0 0-4.428-5.278l-45.665-8.059c-10.008-1.766-20.271 2.46-26.131 10.77l-12.78 18.121c-4.691 6.651-13.697 8.599-20.717 4.474-52.733-30.981-96.998-74.948-128.01-127.145-4.167-7.013-2.248-16.05 4.408-20.765l18.621-13.189c8.279-5.864 12.49-16.109 10.726-26.1l-8.069-45.724a5.353 5.353 0 0 0-5.278-4.428z"/><path d="M401.046 208.361h-93.75c-8.644 0-15.65-7.007-15.65-15.65v-93.75c0-8.643 7.006-15.65 15.65-15.65s15.65 7.007 15.65 15.65v78.1h78.1c8.644 0 15.65 7.007 15.65 15.65s-7.006 15.65-15.65 15.65z"/><path d="M307.921 207.735a15.602 15.602 0 0 1-11.067-4.583c-6.111-6.112-6.111-16.021 0-22.133L410.813 67.06c6.111-6.111 16.022-6.111 22.133 0 6.111 6.112 6.111 16.021 0 22.133L318.987 203.152a15.6 15.6 0 0 1-11.066 4.583z"/></g><g class="primary design" style="display:none"><path/><path/><path/></g></g><g clip-path="url(#f)" opacity="0" style="display:block"><path class="primary design" style="display:none"/><path fill="none" class="primary design" style="display:none"/><g class="primary design" style="display:none"><path/><path/></g></g><g class="com" style="display:none"><path/><path/><path/><path/><path/><path/><path/><path/><path/><path/><path/><path/></g></g></svg>