<svg xmlns="http://www.w3.org/2000/svg" width="500" height="500" style="width:100%;height:100%;transform:translate3d(0,0,0);content-visibility:visible" viewBox="0 0 500 500"><defs><clipPath id="a"><path d="M0 0h500v500H0z"/></clipPath><clipPath id="c"><path d="M0 0h500v500H0z"/></clipPath><clipPath id="b"><path d="M0 0h500v500H0z"/></clipPath></defs><g clip-path="url(#a)"><g clip-path="url(#b)" style="display:block"><path fill="none" class="primary design" style="display:none"/><path fill="none" class="primary design" style="display:none"/><path fill="#121330" d="M442.713 385.395a109.86 109.86 0 0 1-66.407-22.276c18.185-22.874 29.458-51.487 30.638-82.647h35.447c8.644 0 15.65-7.007 15.65-15.65s-7.006-15.65-15.65-15.65H369.66v-25.211c0-8.643-7.006-15.65-15.65-15.65s-15.651 7.007-15.651 15.65v25.211H265.63c-8.644 0-15.65 7.007-15.65 15.65s7.006 15.65 15.65 15.65h109.992c-1.092 22.463-8.92 43.182-21.497 60.171a110.843 110.843 0 0 1-12.889-22.641c-3.362-7.962-12.539-11.69-20.505-8.33-7.962 3.362-11.692 12.543-8.331 20.505a142.13 142.13 0 0 0 19.502 32.935c-18.452 13.976-41.412 22.277-66.273 22.277-8.644 0-15.65 7.007-15.65 15.65s7.006 15.65 15.65 15.65c33.447 0 64.213-11.697 88.453-31.211 24.598 19.804 55.631 31.217 88.631 31.217 8.644 0 15.65-7.007 15.65-15.65s-7.006-15.65-15.65-15.65zM208.357 218.636v-57.175c0-43.092-35.058-78.151-78.149-78.151h-10.416c-43.091 0-78.148 35.059-78.148 78.151v135.417c0 8.643 7.006 15.65 15.65 15.65s15.65-7.007 15.65-15.65v-62.476h104.112v62.476c0 8.643 7.006 15.65 15.65 15.65s15.651-7.007 15.651-15.65v-78.009c0-.039.005-.078.005-.117 0-.039-.005-.077-.005-.116zM72.944 203.103v-41.642c0-25.833 21.016-46.851 46.848-46.851h10.416c25.832 0 46.848 21.018 46.848 46.851v41.642H72.944z" class="primary design" style="display:block"/><g class="primary design" style="display:none"><path/><path/></g></g><g clip-path="url(#c)" opacity="0" style="display:block"><g fill="none" class="primary design" style="display:none"><path/><path/><path/><path/></g><g fill="none" class="primary design" style="display:none"><path/><path/></g><g class="primary design" style="display:none"><path/><path/></g></g><g class="com" style="display:none"><path/><path/><path/><path/><path/><path/><path/><path/><path/><path/><path/><path/></g></g></svg>