<svg xmlns="http://www.w3.org/2000/svg" width="500" height="500" style="width:100%;height:100%;transform:translate3d(0,0,0);content-visibility:visible" viewBox="0 0 500 500"><defs><clipPath id="a"><path d="M0 0h500v500H0z"/></clipPath><clipPath id="c"><path d="M0 0h500v500H0z"/></clipPath><clipPath id="b"><path d="M0 0h500v500H0z"/></clipPath></defs><g clip-path="url(#a)"><g clip-path="url(#b)" style="display:block"><g fill="none" class="primary design" style="display:none"><path/><path/></g><path fill="#121330" d="M150.045-187.53H83.357v-5.179c0-8.643-7.006-15.65-15.65-15.65H-67.71c-8.644 0-15.65 7.007-15.65 15.65v5.179h-66.685c-9.181 0-16.65 7.469-16.65 16.65v362.589c0 9.181 7.469 16.65 16.65 16.65h300.09c9.181 0 16.65-7.469 16.65-16.65V-170.88c0-9.181-7.469-16.65-16.65-16.65zM-52.06-177.06H52.057v5.141l-.002.039.002.038v36.4H-52.06v-41.618zm187.455 354.12h-270.79v-333.29h52.035v36.438c0 8.643 7.006 15.649 15.65 15.649H67.707c8.644 0 15.65-7.006 15.65-15.649v-36.438h52.038v333.29z" class="primary design" style="display:block" transform="translate(250.005 250.003)"/><g class="primary design" style="display:none"><path/><path/></g><path fill="#121330" d="M292.32 212.895c-6.111-6.111-16.022-6.111-22.133 0-6.111 6.112-6.111 16.021 0 22.133l46.226 46.225-46.226 46.225c-6.111 6.112-6.111 16.021 0 22.133a15.603 15.603 0 0 0 11.067 4.584c4.005 0 8.01-1.529 11.066-4.584l57.292-57.291a15.651 15.651 0 0 0 0-22.133l-57.292-57.292zm-62.499 0c-6.111-6.111-16.022-6.111-22.133 0l-57.292 57.292a15.65 15.65 0 0 0 0 22.133l57.292 57.291a15.6 15.6 0 0 0 11.066 4.584c4.005 0 8.011-1.528 11.067-4.584 6.111-6.112 6.111-16.021 0-22.133l-46.226-46.225 46.226-46.225c6.111-6.112 6.111-16.021 0-22.133z" class="primary design" style="display:block"/></g><g clip-path="url(#c)" opacity="0" style="display:block"><g fill="none" class="primary design" style="display:none"><path/><path/></g><g class="primary design" style="display:none"><path/><path/><path/></g><path fill="none" class="primary design" style="display:none"/></g><g class="com" style="display:none"><path/><path/><path/><path/><path/><path/><path/><path/><path/><path/><path/><path/></g></g></svg>