<svg xmlns="http://www.w3.org/2000/svg" width="500" height="500" style="width:100%;height:100%;transform:translate3d(0,0,0);content-visibility:visible" viewBox="0 0 500 500"><defs><clipPath id="a"><path d="M0 0h500v500H0z"/></clipPath><clipPath id="c"><path d="M0 0h500v500H0z"/></clipPath><clipPath id="b"><path d="M0 0h500v500H0z"/></clipPath></defs><g clip-path="url(#a)"><g clip-path="url(#b)" style="display:block"><path fill="#121330" d="M151.046-114.606H83.362v-36.434c0-20.117-16.366-36.484-36.483-36.484h-93.75c-20.117 0-36.483 16.367-36.483 36.484v36.434h-67.684c-20.117 0-36.484 16.367-36.484 36.484v229.168c0 20.117 16.367 36.483 36.484 36.483h302.084c20.117 0 36.484-16.366 36.484-36.483V-78.122c0-20.117-16.367-36.484-36.484-36.484zm-203.1-36.434a5.19 5.19 0 0 1 5.183-5.184h93.75a5.19 5.19 0 0 1 5.183 5.184v36.434H-52.054v-36.434zm-98.984 67.734h302.084a5.19 5.19 0 0 1 5.183 5.184v78.1h-312.451v-78.1a5.19 5.19 0 0 1 5.184-5.184zm302.084 239.535h-302.084a5.19 5.19 0 0 1-5.184-5.183V31.278h52.034v36.438c0 8.643 7.006 15.65 15.65 15.65s15.65-7.007 15.65-15.65V31.278H72.896v36.438c0 8.643 7.006 15.65 15.65 15.65s15.65-7.007 15.65-15.65V31.278h52.033v119.768a5.189 5.189 0 0 1-5.183 5.183z" class="primary design" style="display:block" transform="translate(250 250)"/></g><g clip-path="url(#c)" opacity="0" style="display:block"><g fill="none" class="primary design" style="display:none"><path/><path/><path/><path/><path/></g><path class="primary design" style="display:none"/><path fill="none" class="primary design" style="display:none"/><path fill="none" class="primary design" style="display:none"/></g><g class="com" style="display:none"><path/><path/><path/><path/><path/><path/><path/><path/><path/><path/><path/><path/></g></g></svg>