<svg xmlns="http://www.w3.org/2000/svg" width="500" height="500" style="width:100%;height:100%;transform:translate3d(0,0,0);content-visibility:visible" viewBox="0 0 500 500"><defs><clipPath id="a"><path d="M0 0h500v500H0z"/></clipPath><clipPath id="c"><path d="M0 0h500v500H0z"/></clipPath><clipPath id="b"><path d="M0 0h500v500H0z"/></clipPath></defs><g clip-path="url(#a)"><g clip-path="url(#b)" style="display:block"><path fill="none" class="primary design" style="display:none"/><path fill="none" class="primary design" style="display:none"/><path class="primary design" style="display:none"/><g class="primary design" style="display:none"><path/><path/><path/><path/></g><g fill="#121330" class="primary design" style="display:block"><path d="M146.062 378.353c-21.408 0-42.809-8.146-59.107-24.443-32.592-32.592-32.592-85.623 0-118.215l73.906-73.906c32.592-32.592 85.623-32.592 118.215 0 13.329 13.33 21.581 30.246 23.862 48.922 1.049 8.58-5.057 16.385-13.637 17.433-8.577 1.045-16.384-5.058-17.431-13.637-1.426-11.67-6.588-22.246-14.927-30.585-20.387-20.389-53.562-20.389-73.949 0l-73.907 73.906c-20.388 20.388-20.388 53.561 0 73.949 20.388 20.389 53.563 20.387 73.949 0l19.401-19.401c6.112-6.111 16.021-6.112 22.133.001 6.111 6.112 6.111 16.02 0 22.132l-19.402 19.401c-16.294 16.293-37.704 24.443-59.106 24.443z"/><path d="M280.026 303.524c-21.405 0-42.81-8.148-59.106-24.443-13.33-13.331-21.583-30.248-23.864-48.923-1.049-8.58 5.057-16.384 13.637-17.432 8.571-1.046 16.384 5.056 17.432 13.636 1.426 11.669 6.588 22.246 14.928 30.586 20.386 20.387 53.56 20.388 73.948 0l73.907-73.907c20.388-20.388 20.388-53.561 0-73.949-20.387-20.389-53.562-20.389-73.949 0l-19.401 19.401c-6.111 6.112-16.019 6.111-22.132 0-6.111-6.112-6.111-16.02 0-22.132l19.4-19.401c32.592-32.592 85.623-32.592 118.215 0s32.592 85.622 0 118.214l-73.907 73.907c-16.296 16.295-37.702 24.443-59.108 24.443zm89.764 134.005c-8.644 0-15.65-7.007-15.65-15.65V317.711c0-8.643 7.006-15.65 15.65-15.65s15.65 7.007 15.65 15.65v104.168c0 8.643-7.006 15.65-15.65 15.65z"/><path d="M421.873 385.445H317.707c-8.644 0-15.651-7.007-15.651-15.65s7.007-15.65 15.651-15.65h104.166c8.644 0 15.651 7.007 15.651 15.65s-7.007 15.65-15.651 15.65z"/></g></g><g clip-path="url(#c)" opacity="0" style="display:block"><path fill="none" class="primary design" style="display:none"/><path fill="none" class="primary design" style="display:none"/><path class="primary design" style="display:none"/><g class="primary design" style="display:none"><path/><path/><path/><path/></g></g><g class="com" style="display:none"><path/><path/><path/><path/><path/><path/><path/><path/><path/><path/><path/><path/></g></g></svg>