<svg xmlns="http://www.w3.org/2000/svg" width="500" height="500" style="width:100%;height:100%;transform:translate3d(0,0,0);content-visibility:visible" viewBox="0 0 500 500"><defs><clipPath id="a"><path d="M0 0h500v500H0z"/></clipPath><clipPath id="d"><path d="M0 0h500v500H0z"/></clipPath><clipPath id="c"><path d="M0 0h500v500H0z"/></clipPath><clipPath id="b"><path d="M0 0h500v500H0z"/></clipPath></defs><g clip-path="url(#a)"><g clip-path="url(#b)" opacity="0" style="display:block"><g class="primary design" style="display:none"><path/><path fill="none"/></g><g class="primary design" style="display:none"><path/><path fill="none"/></g><g class="primary design" style="display:none"><path/><path fill="none"/></g><g class="primary design" style="display:none"><path/><path fill="none"/></g><g class="primary design" style="display:none"><path/><path fill="none"/></g><g class="primary design" style="display:none"><path/><path fill="none"/></g><g class="primary design" style="display:none"><path/><path fill="none"/></g><g class="primary design" style="display:none"><path/><path fill="none"/></g><g class="primary design" style="display:none"><path/><path fill="none"/></g><g class="primary design" style="display:none"><path/><path fill="none"/></g><g class="primary design" style="display:none"><path/><path fill="none"/></g><g class="primary design" style="display:none"><path/><path fill="none"/></g><g class="primary design" style="display:none"><path fill="none"/><path/></g><g class="primary design" opacity="1" style="display:block"><path fill="none" stroke="#121330" stroke-width="2" d="M0 0" opacity="1"/><path fill="#121330" d="M346.202 169.642c-5.52-6.651-15.385-7.571-22.037-2.052-6.652 5.519-7.572 15.386-2.053 22.038 6.994 8.431 12.487 18.192 16.317 28.991 3.517 9.966 5.3 20.526 5.3 31.384s-1.783 21.416-5.292 31.36c-3.838 10.822-9.331 20.585-16.325 29.016-5.519 6.652-4.599 16.518 2.053 22.037a15.582 15.582 0 0 0 9.983 3.605c4.496 0 8.959-1.928 12.054-5.658 9.351-11.272 16.664-24.238 21.742-38.561 4.701-13.32 7.085-27.383 7.085-41.799 0-14.415-2.383-28.479-7.092-41.822-5.071-14.301-12.384-27.268-21.735-38.539zm91.216-12.409c-7.639-16.158-17.192-31.152-28.395-44.566-5.54-6.632-15.408-7.52-22.044-1.98-6.634 5.541-7.519 15.41-1.979 22.044 9.516 11.393 17.64 24.158 24.148 37.939a8.4 8.4 0 0 0 .065.136c11.673 24.113 17.843 51.499 17.843 79.196 0 27.698-6.17 55.084-17.843 79.197a8.4 8.4 0 0 0-.065.136c-6.509 13.782-14.633 26.546-24.148 37.939-5.54 6.634-4.655 16.503 1.979 22.044a15.588 15.588 0 0 0 10.023 3.638 15.62 15.62 0 0 0 12.021-5.618c11.203-13.414 20.756-28.409 28.395-44.569 13.698-28.323 20.939-60.399 20.939-92.767 0-32.368-7.241-64.445-20.939-92.769zm-259.523 32.394c5.519-6.652 4.599-16.518-2.053-22.037-6.654-5.519-16.519-4.598-22.037 2.053-9.353 11.274-16.665 24.241-21.741 38.559-4.701 13.32-7.086 27.384-7.086 41.801 0 14.417 2.384 28.48 7.092 41.82 5.069 14.297 12.382 27.265 21.735 38.54a15.616 15.616 0 0 0 12.054 5.658c3.52 0 7.061-1.182 9.982-3.605 6.652-5.518 7.573-15.384 2.054-22.037-6.995-8.434-12.488-18.195-16.316-28.994-3.518-9.964-5.301-20.523-5.301-31.382 0-10.858 1.783-21.417 5.294-31.362 3.835-10.819 9.328-20.58 16.323-29.014zM90.847 170.67c6.509-13.782 14.634-26.546 24.149-37.938 5.541-6.634 4.655-16.503-1.979-22.044-6.634-5.542-16.504-4.655-22.043 1.979-11.204 13.413-20.757 28.407-28.396 44.566-13.698 28.326-20.939 60.401-20.939 92.77 0 32.367 7.241 64.444 20.938 92.768 7.64 16.161 17.193 31.154 28.397 44.568a15.616 15.616 0 0 0 12.02 5.618c3.537 0 7.095-1.194 10.023-3.639 6.634-5.541 7.52-15.41 1.979-22.044-9.515-11.392-17.64-24.156-24.149-37.938a8.4 8.4 0 0 0-.065-.136C79.11 305.086 72.94 277.7 72.94 250.003c0-27.697 6.17-55.083 17.842-79.197a8.4 8.4 0 0 0 .065-.136zm199.943 75.302c-.061-.67-.15-1.34-.25-2-.101-.66-.21-1.33-.351-1.98-.13-.65-.279-1.31-.439-1.96-.16-.65-.351-1.3-.54-1.94-.19-.63-.41-1.27-.63-1.9-.23-.63-.471-1.26-.721-1.87-.26-.62-.529-1.23-.819-1.84-.28-.6-.58-1.2-.9-1.79-.31-.59-.64-1.18-.98-1.75-.351-.57-.71-1.14-1.07-1.7-.37-.56-.76-1.11-1.16-1.65-.399-.53-.81-1.07-1.23-1.59-.431-.52-.87-1.03-1.32-1.53-.45-.49-.92-.99-1.39-1.46-.48-.47-.97-.94-1.47-1.39-.489-.45-1.01-.89-1.53-1.32-.511-.42-1.051-.84-1.591-1.23a36.71 36.71 0 0 0-3.339-2.23c-.58-.34-1.16-.67-1.75-.99-.59-.31-1.19-.61-1.8-.9-.6-.28-1.22-.55-1.83-.81-.62-.25-1.25-.5-1.87-.72-.63-.23-1.27-.44-1.911-.63-.64-.2-1.289-.38-1.929-.54-.65-.17-1.31-.32-1.96-.45-.66-.13-1.321-.25-1.98-.35-.66-.1-1.341-.18-2-.25-.671-.06-1.34-.12-2.01-.15-1.34-.07-2.701-.07-4.041 0-.67.03-1.349.09-2.009.15-.67.07-1.34.15-2 .25-.66.1-1.331.22-1.98.35-.66.13-1.32.28-1.96.45-.65.16-1.3.34-1.94.54-.63.19-1.281.4-1.901.63-.63.22-1.26.47-1.87.72-.619.26-1.239.53-1.84.81-.6.29-1.21.59-1.79.9-.59.32-1.18.65-1.75.99-.569.34-1.149.7-1.699 1.07-.561.37-1.11.76-1.65 1.16a37.458 37.458 0 0 0-3.12 2.55c-.5.45-.99.92-1.46 1.39-.479.47-.951.97-1.401 1.46-.439.5-.889 1.01-1.309 1.53-.42.52-.84 1.06-1.24 1.59-.39.54-.78 1.09-1.15 1.65a43.795 43.795 0 0 0-2.06 3.45c-.31.59-.61 1.19-.9 1.79-.28.61-.56 1.22-.81 1.84-.26.61-.5 1.24-.72 1.87-.23.63-.441 1.27-.64 1.9-.19.64-.37 1.29-.54 1.94a43.081 43.081 0 0 0-.79 3.94 41.048 41.048 0 0 0-.4 4.01c-.04.67-.05 1.35-.05 2.02 0 .67.01 1.35.05 2.02a41.048 41.048 0 0 0 .4 4.01 43.081 43.081 0 0 0 .79 3.94c.17.65.35 1.3.54 1.93.199.64.41 1.28.64 1.91.22.63.46 1.26.72 1.87.25.62.53 1.23.81 1.84.29.6.59 1.2.9 1.79a43.793 43.793 0 0 0 2.06 3.45c.37.55.76 1.11 1.15 1.65.4.53.82 1.07 1.24 1.59.42.51.87 1.03 1.309 1.53.45.49.922.99 1.401 1.46.47.47.96.94 1.46 1.39a37.46 37.46 0 0 0 3.12 2.55c.54.4 1.089.79 1.65 1.16.55.37 1.13.73 1.699 1.07.57.34 1.16.67 1.75.99.58.31 1.19.61 1.79.9.601.28 1.221.55 1.84.81.61.25 1.24.5 1.87.72.62.23 1.271.44 1.901.63.64.2 1.29.38 1.94.54.64.17 1.3.32 1.96.45.649.13 1.32.25 1.98.35.66.1 1.33.18 2 .25.66.06 1.339.12 2.009.15.67.03 1.351.05 2.021.05.67 0 1.35-.02 2.02-.05.67-.03 1.339-.09 2.01-.15.659-.07 1.34-.15 2-.25.659-.1 1.32-.22 1.98-.35.65-.13 1.31-.28 1.96-.45.64-.16 1.289-.34 1.929-.54.641-.19 1.281-.4 1.911-.63.62-.22 1.25-.47 1.87-.72.61-.26 1.23-.53 1.83-.81.61-.29 1.21-.59 1.8-.9.59-.32 1.17-.65 1.75-.99a36.706 36.706 0 0 0 3.339-2.23c.54-.39 1.08-.81 1.591-1.23.52-.43 1.041-.87 1.53-1.32.5-.45.99-.92 1.47-1.39.47-.47.94-.97 1.39-1.46.45-.5.889-1.02 1.32-1.53.42-.52.831-1.06 1.23-1.59.4-.54.79-1.1 1.16-1.65.36-.56.719-1.13 1.07-1.7.34-.57.67-1.16.98-1.75.32-.59.62-1.19.9-1.79.29-.61.559-1.22.819-1.84.25-.61.491-1.24.721-1.87.22-.63.44-1.27.63-1.91.189-.63.38-1.28.54-1.93.16-.65.309-1.31.439-1.96.141-.65.25-1.32.351-1.98.1-.66.189-1.33.25-2 .069-.66.12-1.34.16-2.01.029-.67.05-1.35.05-2.02 0-.67-.021-1.35-.05-2.02-.04-.67-.091-1.35-.16-2.01z" opacity="1"/></g><g class="primary design" style="display:none"><path fill="none"/><path/><path/><path/><path/><path/></g></g><g clip-path="url(#c)" style="display:block"><g class="primary design" style="display:none"><path/><path fill="none"/></g><g class="primary design" style="display:none"><path/><path fill="none"/></g><g class="primary design" style="display:none"><path/><path fill="none"/></g><g class="primary design" style="display:none"><path/><path fill="none"/></g><g class="primary design" style="display:none"><path/><path fill="none"/></g><g class="primary design" style="display:none"><path/><path fill="none"/></g><g class="primary design" style="display:none"><path/><path fill="none"/></g><g class="primary design" style="display:none"><path/><path fill="none"/></g><g class="primary design" style="display:none"><path/><path fill="none"/></g><g class="primary design" style="display:none"><path/><path fill="none"/></g><g class="primary design" style="display:none"><path fill="none"/><path/></g><g class="primary design" style="display:block"><path fill="none" stroke="#121330" stroke-width="2" d="M0 0"/><path fill="#121330" d="M346.202 169.642c-5.52-6.651-15.385-7.571-22.037-2.052-6.652 5.519-7.572 15.386-2.053 22.038 6.994 8.431 12.487 18.192 16.317 28.991 3.517 9.966 5.3 20.526 5.3 31.384s-1.783 21.416-5.292 31.36c-3.838 10.822-9.331 20.585-16.325 29.016-5.519 6.652-4.599 16.518 2.053 22.037a15.582 15.582 0 0 0 9.983 3.605c4.496 0 8.959-1.928 12.054-5.658 9.351-11.272 16.664-24.238 21.742-38.561 4.701-13.32 7.085-27.383 7.085-41.799 0-14.415-2.383-28.479-7.092-41.822-5.071-14.301-12.384-27.268-21.735-38.539zm91.216-12.409c-7.639-16.158-17.192-31.152-28.395-44.566-5.54-6.632-15.408-7.52-22.044-1.98-6.634 5.541-7.519 15.41-1.979 22.044 9.516 11.393 17.64 24.158 24.148 37.939a8.4 8.4 0 0 0 .065.136c11.673 24.113 17.843 51.499 17.843 79.196 0 27.698-6.17 55.084-17.843 79.197a8.4 8.4 0 0 0-.065.136c-6.509 13.782-14.633 26.546-24.148 37.939-5.54 6.634-4.655 16.503 1.979 22.044a15.588 15.588 0 0 0 10.023 3.638 15.62 15.62 0 0 0 12.021-5.618c11.203-13.414 20.756-28.409 28.395-44.569 13.698-28.323 20.939-60.399 20.939-92.767 0-32.368-7.241-64.445-20.939-92.769zm-259.523 32.394c5.519-6.652 4.599-16.518-2.053-22.037-6.654-5.519-16.519-4.598-22.037 2.053-9.353 11.274-16.665 24.241-21.741 38.559-4.701 13.32-7.086 27.384-7.086 41.801 0 14.417 2.384 28.48 7.092 41.82 5.069 14.297 12.382 27.265 21.735 38.54a15.616 15.616 0 0 0 12.054 5.658c3.52 0 7.061-1.182 9.982-3.605 6.652-5.518 7.573-15.384 2.054-22.037-6.995-8.434-12.488-18.195-16.316-28.994-3.518-9.964-5.301-20.523-5.301-31.382 0-10.858 1.783-21.417 5.294-31.362 3.835-10.819 9.328-20.58 16.323-29.014zM90.847 170.67c6.509-13.782 14.634-26.546 24.149-37.938 5.541-6.634 4.655-16.503-1.979-22.044-6.634-5.542-16.504-4.655-22.043 1.979-11.204 13.413-20.757 28.407-28.396 44.566-13.698 28.326-20.939 60.401-20.939 92.77 0 32.367 7.241 64.444 20.938 92.768 7.64 16.161 17.193 31.154 28.397 44.568a15.616 15.616 0 0 0 12.02 5.618c3.537 0 7.095-1.194 10.023-3.639 6.634-5.541 7.52-15.41 1.979-22.044-9.515-11.392-17.64-24.156-24.149-37.938a8.4 8.4 0 0 0-.065-.136C79.11 305.086 72.94 277.7 72.94 250.003c0-27.697 6.17-55.083 17.842-79.197a8.4 8.4 0 0 0 .065-.136zm199.943 75.302c-.061-.67-.15-1.34-.25-2-.101-.66-.21-1.33-.351-1.98-.13-.65-.279-1.31-.439-1.96-.16-.65-.351-1.3-.54-1.94-.19-.63-.41-1.27-.63-1.9-.23-.63-.471-1.26-.721-1.87-.26-.62-.529-1.23-.819-1.84-.28-.6-.58-1.2-.9-1.79-.31-.59-.64-1.18-.98-1.75-.351-.57-.71-1.14-1.07-1.7-.37-.56-.76-1.11-1.16-1.65-.399-.53-.81-1.07-1.23-1.59-.431-.52-.87-1.03-1.32-1.53-.45-.49-.92-.99-1.39-1.46-.48-.47-.97-.94-1.47-1.39-.489-.45-1.01-.89-1.53-1.32-.511-.42-1.051-.84-1.591-1.23a36.71 36.71 0 0 0-3.339-2.23c-.58-.34-1.16-.67-1.75-.99-.59-.31-1.19-.61-1.8-.9-.6-.28-1.22-.55-1.83-.81-.62-.25-1.25-.5-1.87-.72-.63-.23-1.27-.44-1.911-.63-.64-.2-1.289-.38-1.929-.54-.65-.17-1.31-.32-1.96-.45-.66-.13-1.321-.25-1.98-.35-.66-.1-1.341-.18-2-.25-.671-.06-1.34-.12-2.01-.15-1.34-.07-2.701-.07-4.041 0-.67.03-1.349.09-2.009.15-.67.07-1.34.15-2 .25-.66.1-1.331.22-1.98.35-.66.13-1.32.28-1.96.45-.65.16-1.3.34-1.94.54-.63.19-1.281.4-1.901.63-.63.22-1.26.47-1.87.72-.619.26-1.239.53-1.84.81-.6.29-1.21.59-1.79.9-.59.32-1.18.65-1.75.99-.569.34-1.149.7-1.699 1.07-.561.37-1.11.76-1.65 1.16a37.458 37.458 0 0 0-3.12 2.55c-.5.45-.99.92-1.46 1.39-.479.47-.951.97-1.401 1.46-.439.5-.889 1.01-1.309 1.53-.42.52-.84 1.06-1.24 1.59-.39.54-.78 1.09-1.15 1.65a43.795 43.795 0 0 0-2.06 3.45c-.31.59-.61 1.19-.9 1.79-.28.61-.56 1.22-.81 1.84-.26.61-.5 1.24-.72 1.87-.23.63-.441 1.27-.64 1.9-.19.64-.37 1.29-.54 1.94a43.081 43.081 0 0 0-.79 3.94 41.048 41.048 0 0 0-.4 4.01c-.04.67-.05 1.35-.05 2.02 0 .67.01 1.35.05 2.02a41.048 41.048 0 0 0 .4 4.01 43.081 43.081 0 0 0 .79 3.94c.17.65.35 1.3.54 1.93.199.64.41 1.28.64 1.91.22.63.46 1.26.72 1.87.25.62.53 1.23.81 1.84.29.6.59 1.2.9 1.79a43.793 43.793 0 0 0 2.06 3.45c.37.55.76 1.11 1.15 1.65.4.53.82 1.07 1.24 1.59.42.51.87 1.03 1.309 1.53.45.49.922.99 1.401 1.46.47.47.96.94 1.46 1.39a37.46 37.46 0 0 0 3.12 2.55c.54.4 1.089.79 1.65 1.16.55.37 1.13.73 1.699 1.07.57.34 1.16.67 1.75.99.58.31 1.19.61 1.79.9.601.28 1.221.55 1.84.81.61.25 1.24.5 1.87.72.62.23 1.271.44 1.901.63.64.2 1.29.38 1.94.54.64.17 1.3.32 1.96.45.649.13 1.32.25 1.98.35.66.1 1.33.18 2 .25.66.06 1.339.12 2.009.15.67.03 1.351.05 2.021.05.67 0 1.35-.02 2.02-.05.67-.03 1.339-.09 2.01-.15.659-.07 1.34-.15 2-.25.659-.1 1.32-.22 1.98-.35.65-.13 1.31-.28 1.96-.45.64-.16 1.289-.34 1.929-.54.641-.19 1.281-.4 1.911-.63.62-.22 1.25-.47 1.87-.72.61-.26 1.23-.53 1.83-.81.61-.29 1.21-.59 1.8-.9.59-.32 1.17-.65 1.75-.99a36.706 36.706 0 0 0 3.339-2.23c.54-.39 1.08-.81 1.591-1.23.52-.43 1.041-.87 1.53-1.32.5-.45.99-.92 1.47-1.39.47-.47.94-.97 1.39-1.46.45-.5.889-1.02 1.32-1.53.42-.52.831-1.06 1.23-1.59.4-.54.79-1.1 1.16-1.65.36-.56.719-1.13 1.07-1.7.34-.57.67-1.16.98-1.75.32-.59.62-1.19.9-1.79.29-.61.559-1.22.819-1.84.25-.61.491-1.24.721-1.87.22-.63.44-1.27.63-1.91.189-.63.38-1.28.54-1.93.16-.65.309-1.31.439-1.96.141-.65.25-1.32.351-1.98.1-.66.189-1.33.25-2 .069-.66.12-1.34.16-2.01.029-.67.05-1.35.05-2.02 0-.67-.021-1.35-.05-2.02-.04-.67-.091-1.35-.16-2.01z"/></g><g class="primary design" style="display:none"><path fill="none"/><path/><path/><path/><path/><path/></g></g><g clip-path="url(#d)" opacity="0" style="display:block"><g class="primary design" style="display:none"><path/><path fill="none"/></g><g class="primary design" style="display:none"><path/><path fill="none"/></g><g class="primary design" style="display:none"><path/><path fill="none"/></g><g class="primary design" style="display:none"><path/><path fill="none"/></g><g class="primary design" style="display:none"><path/><path fill="none"/></g><g class="primary design" style="display:none"><path/><path fill="none"/></g><g class="primary design" style="display:none"><path fill="none"/><path/></g><g class="primary design" style="display:none"><path fill="none"/><path/><path/><path/><path/><path/></g></g><g class="com" style="display:none"><path/><path/><path/><path/><path/><path/><path/><path/><path/><path/><path/><path/></g></g></svg>