<svg xmlns="http://www.w3.org/2000/svg" width="500" height="500" style="width:100%;height:100%;transform:translate3d(0,0,0);content-visibility:visible" viewBox="0 0 500 500"><defs><clipPath id="a"><path d="M0 0h500v500H0z"/></clipPath><clipPath id="c"><path d="M0 0h500v500H0z"/></clipPath><clipPath id="b"><path d="M0 0h500v500H0z"/></clipPath></defs><g clip-path="url(#a)"><g clip-path="url(#b)" style="display:block"><g class="primary design" style="display:none"><path/><path fill="none"/></g><g class="primary design" style="display:none"><path fill="none"/><path/><path/></g><g class="primary design" style="display:block"><path fill="none" stroke="#121330" stroke-width="41.66" d="M-4957.498-4957.504"/><path fill="#121330" d="M78.154 187.506h46.868v145.81h-25.83c-8.54 0-15.622 7.082-15.622 15.622s7.082 15.623 15.623 15.623h302.035c8.54 0 15.622-7.082 15.622-15.623 0-8.54-7.082-15.622-15.83-15.622h-26.038v-145.81h46.867c8.54 0 15.623-7.082 15.623-15.623v-52.075c0-7.29-5-13.54-11.873-15.205L253.75 62.943c-2.5-.625-4.999-.625-7.29 0l-171.848 41.66c-7.082 1.666-12.081 7.915-12.081 15.205v52.075c0 8.54 7.082 15.623 15.622 15.623zm78.113 0h78.112v145.81h-78.112v-145.81zm187.47.208v145.602h-78.113v-145.81l78.113.208c0-.208 0-.208 0 0zm-249.96-55.616 156.225-37.91 156.225 37.91v24.163H93.777v-24.163zM421.85 406.221H78.153c-8.54 0-15.622 7.082-15.622 15.623 0 8.54 7.082 15.622 15.622 15.622H421.85c8.54 0 15.623-7.082 15.623-15.622s-7.082-15.623-15.623-15.623z"/></g></g><g clip-path="url(#c)" opacity="0" style="display:block"><path fill="none" class="primary design" style="display:none"/><g class="primary design" style="display:none"><path/><path/></g></g><g class="com" style="display:none"><path/><path/><path/><path/><path/><path/><path/><path/><path/><path/><path/><path/></g></g></svg>