<svg xmlns="http://www.w3.org/2000/svg" width="500" height="500" style="width:100%;height:100%;transform:translate3d(0,0,0);content-visibility:visible" viewBox="0 0 500 500"><defs><clipPath id="d"><path d="M0 0h500v500H0z"/></clipPath><clipPath id="h"><path d="M0 0h500v500H0z"/></clipPath><clipPath id="f"><path d="M0 0h500v500H0z"/></clipPath><clipPath id="c"><path d="M0 0h500v500H0z"/></clipPath><clipPath id="e"><path d="M0 0h500v500H0z"/></clipPath><filter id="a" width="100%" height="100%" x="0%" y="0%" filterUnits="objectBoundingBox"><feComponentTransfer in="SourceGraphic"><feFuncA tableValues="1.0 0.0" type="table"/></feComponentTransfer></filter><mask id="g" mask-type="alpha"><g filter="url(#a)"><path fill="#fff" d="M0 0h500v500H0z" opacity="0"/><use xmlns:ns1="http://www.w3.org/1999/xlink" ns1:href="#b"/></g></mask><g id="b" fill-opacity="0" stroke-linecap="round" clip-path="url(#c)" style="display:none"><path stroke-miterlimit="10" class="primary design" style="display:none"/><path stroke-linejoin="round" class="primary design" style="display:none"/></g></defs><g clip-path="url(#d)"><g clip-path="url(#e)" opacity="0" style="display:block"><path class="primary design" style="display:none"/><g fill="#121330" class="primary design" opacity="1" style="display:block"><path d="M250.004 302.091c-8.644 0-15.651-6.987-15.651-15.63v-.039c0-23.962 12.889-46.368 34.477-59.934 11.629-7.308 21.176-23.379 16.29-42.81-3.124-12.422-13.271-22.904-25.25-26.083-11.319-3.005-22.516-.843-31.525 6.089-9.39 7.223-14.775 18.309-14.775 30.415 0 8.643-7.006 15.65-15.65 15.65s-15.651-7.007-15.651-15.65c0-21.9 9.839-42.029 26.991-55.224 16.642-12.801 38.013-17.004 58.637-11.533 22.996 6.102 41.672 25.219 47.578 48.703 7.546 30.008-4.507 60.929-29.991 76.944-12.417 7.803-19.83 20.302-19.83 33.433 0 8.643-7.006 15.669-15.65 15.669zM250 374.673c-.66 0-1.34-.041-2.01-.101-.671-.07-1.341-.17-1.99-.3a22.3 22.3 0 0 1-3.84-1.17c-.61-.26-1.22-.55-1.81-.86a20.2 20.2 0 0 1-1.73-1.029 22.99 22.99 0 0 1-1.62-1.191c-.521-.43-1.02-.88-1.49-1.36-.479-.47-.929-.969-1.36-1.489a21.081 21.081 0 0 1-2.22-3.351c-.31-.59-.6-1.2-.861-1.81a21.2 21.2 0 0 1-.669-1.89 22.08 22.08 0 0 1-.5-1.949 21.7 21.7 0 0 1-.3-1.991c-.06-.66-.1-1.339-.1-2.009 0-.67.04-1.35.1-2.02.07-.66.17-1.331.3-1.991.141-.65.301-1.3.5-1.94.19-.64.419-1.28.669-1.89.261-.62.551-1.23.861-1.82.311-.59.66-1.17 1.03-1.72a19.776 19.776 0 0 1 2.55-3.119c.47-.47.969-.931 1.49-1.351.52-.42 1.069-.83 1.62-1.2.56-.37 1.14-.71 1.73-1.03.59-.31 1.2-.6 1.81-.85.62-.26 1.25-.49 1.89-.68.64-.19 1.3-.36 1.95-.49.649-.13 1.319-.23 1.99-.3 1.34-.14 2.69-.14 4.03 0 .66.07 1.33.17 1.99.3.65.13 1.309.3 1.95.49.63.19 1.27.42 1.88.68.62.25 1.229.54 1.82.85.59.32 1.17.66 1.72 1.03.56.37 1.11.78 1.62 1.2a19.25 19.25 0 0 1 2.85 2.851c.431.52.83 1.059 1.2 1.619.37.55.71 1.13 1.03 1.72.31.59.6 1.2.85 1.82.26.61.49 1.25.679 1.89.2.63.361 1.29.491 1.94.141.66.24 1.331.3 1.991.07.67.11 1.35.11 2.02 0 .67-.04 1.349-.11 2.009-.06.67-.159 1.341-.3 1.991a18.52 18.52 0 0 1-.491 1.949c-.189.64-.419 1.27-.679 1.89-.25.61-.54 1.22-.85 1.81-.32.59-.66 1.17-1.03 1.73s-.769 1.101-1.2 1.621c-.42.52-.88 1.019-1.35 1.489-.47.48-.98.93-1.5 1.36-.51.42-1.06.821-1.62 1.191-.55.37-1.13.719-1.72 1.029-.591.31-1.2.6-1.82.86-.61.25-1.25.48-1.88.67-.641.2-1.3.36-1.95.5-.66.13-1.33.23-1.99.3-.67.06-1.35.101-2.02.101z" opacity="1"/><path d="M250.004 458.362c-114.89 0-208.361-93.469-208.361-208.359 0-114.89 93.471-208.359 208.361-208.359 114.89 0 208.359 93.469 208.359 208.359 0 114.89-93.469 208.359-208.359 208.359zm-.001-385.418c-97.631 0-177.059 79.428-177.059 177.059s79.428 177.059 177.059 177.059 177.059-79.428 177.059-177.059S347.634 72.944 250.003 72.944z" opacity="1"/></g><g class="primary design" style="display:none"><path/><path/><path/></g><path fill="none" class="primary design" style="display:none"/><path fill="none" class="primary design" style="display:none"/><path fill="none" class="primary design" style="display:none"/></g><g clip-path="url(#f)" style="display:block"><g mask="url(#g)" style="display:none"><path class="primary design"/></g><path fill="none" class="primary design" style="display:none"/><path fill="none" class="primary design" style="display:none"/><path fill="none" class="primary design" style="display:none"/><g fill="#121330" class="primary design" style="display:block"><path d="M250.004 302.091c-8.644 0-15.651-6.987-15.651-15.63v-.039c0-23.962 12.889-46.368 34.477-59.934 11.629-7.308 21.176-23.379 16.29-42.81-3.124-12.422-13.271-22.904-25.25-26.083-11.319-3.005-22.516-.843-31.525 6.089-9.39 7.223-14.775 18.309-14.775 30.415 0 8.643-7.006 15.65-15.65 15.65s-15.651-7.007-15.651-15.65c0-21.9 9.839-42.029 26.991-55.224 16.642-12.801 38.013-17.004 58.637-11.533 22.996 6.102 41.672 25.219 47.578 48.703 7.546 30.008-4.507 60.929-29.991 76.944-12.417 7.803-19.83 20.302-19.83 33.433 0 8.643-7.006 15.669-15.65 15.669zM250 374.673c-.66 0-1.34-.041-2.01-.101-.671-.07-1.341-.17-1.99-.3a22.3 22.3 0 0 1-3.84-1.17c-.61-.26-1.22-.55-1.81-.86a20.2 20.2 0 0 1-1.73-1.029 22.99 22.99 0 0 1-1.62-1.191c-.521-.43-1.02-.88-1.49-1.36-.479-.47-.929-.969-1.36-1.489a21.081 21.081 0 0 1-2.22-3.351c-.31-.59-.6-1.2-.861-1.81a21.2 21.2 0 0 1-.669-1.89 22.08 22.08 0 0 1-.5-1.949 21.7 21.7 0 0 1-.3-1.991c-.06-.66-.1-1.339-.1-2.009 0-.67.04-1.35.1-2.02.07-.66.17-1.331.3-1.991.141-.65.301-1.3.5-1.94.19-.64.419-1.28.669-1.89.261-.62.551-1.23.861-1.82.311-.59.66-1.17 1.03-1.72a19.776 19.776 0 0 1 2.55-3.119c.47-.47.969-.931 1.49-1.351.52-.42 1.069-.83 1.62-1.2.56-.37 1.14-.71 1.73-1.03.59-.31 1.2-.6 1.81-.85.62-.26 1.25-.49 1.89-.68.64-.19 1.3-.36 1.95-.49.649-.13 1.319-.23 1.99-.3 1.34-.14 2.69-.14 4.03 0 .66.07 1.33.17 1.99.3.65.13 1.309.3 1.95.49.63.19 1.27.42 1.88.68.62.25 1.229.54 1.82.85.59.32 1.17.66 1.72 1.03.56.37 1.11.78 1.62 1.2a19.25 19.25 0 0 1 2.85 2.851c.431.52.83 1.059 1.2 1.619.37.55.71 1.13 1.03 1.72.31.59.6 1.2.85 1.82.26.61.49 1.25.679 1.89.2.63.361 1.29.491 1.94.141.66.24 1.331.3 1.991.07.67.11 1.35.11 2.02 0 .67-.04 1.349-.11 2.009-.06.67-.159 1.341-.3 1.991a18.52 18.52 0 0 1-.491 1.949c-.189.64-.419 1.27-.679 1.89-.25.61-.54 1.22-.85 1.81-.32.59-.66 1.17-1.03 1.73s-.769 1.101-1.2 1.621c-.42.52-.88 1.019-1.35 1.489-.47.48-.98.93-1.5 1.36-.51.42-1.06.821-1.62 1.191-.55.37-1.13.719-1.72 1.029-.591.31-1.2.6-1.82.86-.61.25-1.25.48-1.88.67-.641.2-1.3.36-1.95.5-.66.13-1.33.23-1.99.3-.67.06-1.35.101-2.02.101z"/><path d="M250.004 458.362c-114.89 0-208.361-93.469-208.361-208.359 0-114.89 93.471-208.359 208.361-208.359 114.89 0 208.359 93.469 208.359 208.359 0 114.89-93.469 208.359-208.359 208.359zm-.001-385.418c-97.631 0-177.059 79.428-177.059 177.059s79.428 177.059 177.059 177.059 177.059-79.428 177.059-177.059S347.634 72.944 250.003 72.944z"/></g><g class="primary design" style="display:none"><path/><path/><path/></g></g><g clip-path="url(#h)" opacity="0" style="display:block"><path fill="none" class="primary design" style="display:none"/><g class="primary design" style="display:none"><path/><path/><path/></g><path fill="none" class="primary design" style="display:none"/><path fill="none" class="primary design" style="display:none"/><path fill="none" class="primary design" style="display:none"/></g><g class="com" style="display:none"><path/><path/><path/><path/><path/><path/><path/><path/><path/><path/><path/><path/></g></g></svg>