<svg xmlns="http://www.w3.org/2000/svg" width="500" height="500" style="width:100%;height:100%;transform:translate3d(0,0,0);content-visibility:visible" viewBox="0 0 500 500"><defs><clipPath id="a"><path d="M0 0h500v500H0z"/></clipPath><clipPath id="c"><path d="M0 0h500v500H0z"/></clipPath><clipPath id="b"><path d="M0 0h500v500H0z"/></clipPath></defs><g clip-path="url(#a)"><g clip-path="url(#b)" style="display:block"><path class="primary design" style="display:none"/><path fill="#121330" d="M8.59 2.48a.768.768 0 0 0-1.01.33A8.452 8.452 0 0 1 .75 7.44V1.5h2.5c.41 0 .75-.34.75-.75S3.66 0 3.25 0H.75v-2.09A3.495 3.495 0 0 0 3.5-5.5C3.5-7.43 1.93-9 0-9s-3.5 1.57-3.5 3.5c0 1.67 1.18 3.07 2.75 3.41V0h-2.5C-3.66 0-4 .34-4 .75s.34.75.75.75h2.5v5.95c-2.89-.27-5.51-1.99-6.83-4.61a.75.75 0 0 0-1.01-.33.75.75 0 0 0-.33 1.01C-7.23 6.86-3.73 9 .02 9h.22c3.7-.09 7.03-2.21 8.68-5.51.19-.38.04-.83-.33-1.01zM-2-5.5c0-1.1.9-2 2-2s2 .9 2 2-.9 2-2 2-2-.9-2-2z" class="primary design" style="display:block" transform="translate(250.002 250.002) scale(20.83)"/><path fill="none" class="primary design" style="display:none"/><g fill="none" class="primary design" style="display:none"><path/><path/></g></g><g clip-path="url(#c)" opacity="0" style="display:block"><path class="primary design" style="display:none"/><path fill="none" class="primary design" style="display:none"/><g fill="none" class="primary design" style="display:none"><path/><path/></g></g><g class="com" style="display:none"><path/><path/><path/><path/><path/><path/><path/><path/><path/><path/><path/><path/></g></g></svg>