<svg xmlns="http://www.w3.org/2000/svg" width="500" height="500" style="width:100%;height:100%;transform:translate3d(0,0,0);content-visibility:visible" viewBox="0 0 500 500"><defs><clipPath id="a"><path d="M0 0h500v500H0z"/></clipPath><clipPath id="e"><path d="M0 0h500v500H0z"/></clipPath><clipPath id="d"><path d="M0 0h500v500H0z"/></clipPath><clipPath id="c"><path d="M0 0h500v500H0z"/></clipPath><clipPath id="b"><path d="M0 0h500v500H0z"/></clipPath></defs><g clip-path="url(#a)"><g clip-path="url(#b)" opacity="0" style="display:block"><path fill="none" class="primary design" style="display:none"/><path fill="none" class="primary design" style="display:none"/><g fill="#121330" class="primary design" opacity="1" style="display:block"><path d="M250.004 41.644c-91.915 0-166.694 74.777-166.694 166.692 0 12.061 1.202 23.215 3.674 34.09 5.184 26.145 17.119 51.021 34.587 72.031l116.46 138.334a15.653 15.653 0 0 0 23.945 0l116.521-138.408c17.406-20.936 29.341-45.811 34.524-71.954 2.473-10.872 3.675-22.027 3.675-34.093 0-91.915-74.778-166.692-166.692-166.692zm-.001 376.768-75.065-89.165c7.469-15.431 23.249-25.677 40.69-25.677h68.751c17.439 0 33.219 10.247 40.689 25.677l-75.065 89.165zm132.455-182.739c-.036.158-.071.317-.102.477-4.148 21.106-13.806 41.239-27.866 58.149l-8.2 9.74c-14.141-19.468-37.021-31.769-61.912-31.769h-68.75c-24.891 0-47.772 12.3-61.912 31.769l-8.138-9.667c-14.12-16.983-23.779-37.116-27.928-58.222a19.181 19.181 0 0 0-.102-.476c-1.977-8.628-2.937-17.571-2.937-27.338 0-74.656 60.736-135.392 135.392-135.392 74.655 0 135.392 60.736 135.392 135.392 0 9.771-.959 18.713-2.937 27.337z" opacity="1"/><path d="M250.004 104.145c-31.604 0-57.317 25.712-57.317 57.316v20.834c0 31.604 25.713 57.316 57.317 57.316h41.667c8.644 0 15.65-7.007 15.65-15.65v-62.5c0-31.604-25.713-57.316-57.317-57.316zm26.017 104.167h-26.017c-14.346 0-26.017-11.671-26.017-26.017v-20.834c0-14.346 11.671-26.017 26.017-26.017s26.017 11.671 26.017 26.017v46.851z" opacity="1"/></g><g class="primary design" style="display:none"><path/><path/></g></g><g clip-path="url(#c)" opacity="0" style="display:block"><path fill="none" class="primary design" style="display:none"/><path fill="none" class="primary design" style="display:none"/><path fill="none" class="primary design" style="display:none"/><path fill="none" class="primary design" style="display:none"/><g fill="#121330" class="primary design" opacity="1" style="display:block"><path d="M250.004 41.644c-91.915 0-166.694 74.777-166.694 166.692 0 12.061 1.202 23.215 3.674 34.09 5.184 26.145 17.119 51.021 34.587 72.031l116.46 138.334a15.653 15.653 0 0 0 23.945 0l116.521-138.408c17.406-20.936 29.341-45.811 34.524-71.954 2.473-10.872 3.675-22.027 3.675-34.093 0-91.915-74.778-166.692-166.692-166.692zm-.001 376.768-75.065-89.165c7.469-15.431 23.249-25.677 40.69-25.677h68.751c17.439 0 33.219 10.247 40.689 25.677l-75.065 89.165zm132.455-182.739c-.036.158-.071.317-.102.477-4.148 21.106-13.806 41.239-27.866 58.149l-8.2 9.74c-14.141-19.468-37.021-31.769-61.912-31.769h-68.75c-24.891 0-47.772 12.3-61.912 31.769l-8.138-9.667c-14.12-16.983-23.779-37.116-27.928-58.222a19.181 19.181 0 0 0-.102-.476c-1.977-8.628-2.937-17.571-2.937-27.338 0-74.656 60.736-135.392 135.392-135.392 74.655 0 135.392 60.736 135.392 135.392 0 9.771-.959 18.713-2.937 27.337z" opacity="1"/><path d="M250.004 104.145c-31.604 0-57.317 25.712-57.317 57.316v20.834c0 31.604 25.713 57.316 57.317 57.316h41.667c8.644 0 15.65-7.007 15.65-15.65v-62.5c0-31.604-25.713-57.316-57.317-57.316zm26.017 104.167h-26.017c-14.346 0-26.017-11.671-26.017-26.017v-20.834c0-14.346 11.671-26.017 26.017-26.017s26.017 11.671 26.017 26.017v46.851z" opacity="1"/></g><g class="primary design" style="display:none"><path/><path/></g></g><g clip-path="url(#d)" style="display:block"><path fill="none" class="primary design" style="display:none"/><path fill="none" class="primary design" style="display:none"/><g fill="#121330" class="primary design" style="display:block"><path d="M250.004 41.644c-91.915 0-166.694 74.777-166.694 166.692 0 12.061 1.202 23.215 3.674 34.09 5.184 26.145 17.119 51.021 34.587 72.031l116.46 138.334a15.653 15.653 0 0 0 23.945 0l116.521-138.408c17.406-20.936 29.341-45.811 34.524-71.954 2.473-10.872 3.675-22.027 3.675-34.093 0-91.915-74.778-166.692-166.692-166.692zm-.001 376.768-75.065-89.165c7.469-15.431 23.249-25.677 40.69-25.677h68.751c17.439 0 33.219 10.247 40.689 25.677l-75.065 89.165zm132.455-182.739c-.036.158-.071.317-.102.477-4.148 21.106-13.806 41.239-27.866 58.149l-8.2 9.74c-14.141-19.468-37.021-31.769-61.912-31.769h-68.75c-24.891 0-47.772 12.3-61.912 31.769l-8.138-9.667c-14.12-16.983-23.779-37.116-27.928-58.222a19.181 19.181 0 0 0-.102-.476c-1.977-8.628-2.937-17.571-2.937-27.338 0-74.656 60.736-135.392 135.392-135.392 74.655 0 135.392 60.736 135.392 135.392 0 9.771-.959 18.713-2.937 27.337z"/><path d="M250.004 104.145c-31.604 0-57.317 25.712-57.317 57.316v20.834c0 31.604 25.713 57.316 57.317 57.316h41.667c8.644 0 15.65-7.007 15.65-15.65v-62.5c0-31.604-25.713-57.316-57.317-57.316zm26.017 104.167h-26.017c-14.346 0-26.017-11.671-26.017-26.017v-20.834c0-14.346 11.671-26.017 26.017-26.017s26.017 11.671 26.017 26.017v46.851z"/></g><g class="primary design" style="display:none"><path/><path/></g></g><g clip-path="url(#e)" opacity="0" style="display:block"><g class="primary design" style="display:none"><path/><path/></g><path fill="none" class="primary design" style="display:none"/><path fill="none" class="primary design" style="display:none"/></g><g class="com" style="display:none"><path/><path/><path/><path/><path/><path/><path/><path/><path/><path/><path/><path/></g></g></svg>