<svg xmlns="http://www.w3.org/2000/svg" width="500" height="500" style="width:100%;height:100%;transform:translate3d(0,0,0);content-visibility:visible" viewBox="0 0 500 500"><defs><clipPath id="d"><path d="M0 0h500v500H0z"/></clipPath><clipPath id="g"><path d="M0 0h500v500H0z"/></clipPath><clipPath id="e"><path d="M0 0h500v500H0z"/></clipPath><clipPath id="c"><path d="M0 0h500v500H0z"/></clipPath><filter id="a" width="100%" height="100%" x="0%" y="0%" filterUnits="objectBoundingBox"><feComponentTransfer in="SourceGraphic"><feFuncA tableValues="1.0 0.0" type="table"/></feComponentTransfer></filter><mask id="f" mask-type="alpha"><g filter="url(#a)"><path fill="#fff" d="M0 0h500v500H0z" opacity="0"/><use xmlns:ns1="http://www.w3.org/1999/xlink" ns1:href="#b"/></g></mask><g id="b" fill-opacity="0" stroke-linecap="round" clip-path="url(#c)" style="display:none"><path stroke-linejoin="round" class="primary design" style="display:none"/><path stroke-miterlimit="10" class="primary design" style="display:none"/></g></defs><g clip-path="url(#d)"><g clip-path="url(#e)" style="display:block"><g mask="url(#f)" style="display:none"><path fill="none" class="primary design"/></g><path fill="none" class="primary design" style="display:none"/><path fill="none" class="primary design" style="display:none"/><path fill="#121330" d="M0 57.317c-8.644 0-15.65-7.007-15.65-15.65v-83.334c0-8.643 7.006-15.65 15.65-15.65s15.65 7.007 15.65 15.65v83.334c0 8.643-7.006 15.65-15.65 15.65z" class="primary design" style="display:block" transform="translate(250.004 244.799)"/><path fill="#121330" d="M0 20.499c-.67 0-1.35-.03-2.021-.1a22.8 22.8 0 0 1-1.989-.3c-.65-.13-1.31-.3-1.94-.49-.64-.2-1.281-.43-1.89-.68-.62-.26-1.23-.54-1.82-.86-.59-.31-1.17-.66-1.72-1.02-.561-.38-1.1-.78-1.62-1.2-.521-.42-1.03-.88-1.5-1.35a21.248 21.248 0 0 1-2.55-3.12 21.321 21.321 0 0 1-1.88-3.54 19.92 19.92 0 0 1-.68-1.89c-.189-.64-.36-1.29-.49-1.94-.131-.66-.23-1.33-.3-1.99-.069-.67-.1-1.35-.1-2.02 0-.67.031-1.35.1-2.01.07-.67.169-1.34.3-1.99.13-.66.301-1.31.49-1.95.2-.64.419-1.27.68-1.89.26-.62.541-1.23.86-1.81.311-.59.66-1.17 1.02-1.73a20.922 20.922 0 0 1 2.55-3.12c.47-.47.979-.92 1.5-1.35.52-.42 1.059-.82 1.62-1.19.55-.37 1.13-.72 1.72-1.03.59-.31 1.2-.6 1.82-.86.609-.25 1.25-.48 1.89-.67.63-.2 1.29-.37 1.94-.5a22.8 22.8 0 0 1 1.989-.3c1.341-.13 2.701-.13 4.041 0 .66.07 1.33.17 1.98.3.66.13 1.309.3 1.95.5.64.19 1.27.42 1.89.67a21.487 21.487 0 0 1 3.54 1.89c.56.37 1.099.77 1.62 1.19.52.43 1.019.88 1.49 1.35.479.48.93.98 1.36 1.5a21.064 21.064 0 0 1 3.08 5.16c.25.62.48 1.25.68 1.89.189.64.36 1.29.49 1.95.13.65.23 1.32.3 1.99.069.66.1 1.34.1 2.01 0 .67-.031 1.35-.1 2.02-.07.66-.17 1.33-.3 1.99-.13.65-.301 1.3-.49 1.94-.2.64-.43 1.28-.68 1.89a20.427 20.427 0 0 1-1.89 3.54c-.37.56-.77 1.1-1.19 1.62-.43.52-.881 1.02-1.36 1.5-.471.47-.97.93-1.49 1.35-.521.42-1.06.82-1.62 1.2-.56.36-1.14.71-1.73 1.02-.58.32-1.19.6-1.81.86-.62.25-1.25.48-1.89.68-.641.19-1.29.36-1.95.49-.65.13-1.32.23-1.98.3-.67.07-1.35.1-2.02.1z" class="primary design" style="display:block" transform="translate(250.005 354.173)"/><path fill="#121330" d="M192.713 187.526h-385.419a15.65 15.65 0 0 1-13.836-22.963l192.71-364.585a15.65 15.65 0 0 1 27.672 0l192.709 364.585a15.65 15.65 0 0 1-13.836 22.963zm-359.445-31.3h333.471L.004-159.219l-166.736 315.445z" class="primary design" style="display:block" transform="translate(250 250)"/><path class="primary design" style="display:none"/><path class="primary design" style="display:none"/><path class="primary design" style="display:none"/></g><g clip-path="url(#g)" opacity="0" style="display:block"><path fill="none" class="primary design" style="display:none"/><path fill="none" class="primary design" style="display:none"/><path fill="none" class="primary design" style="display:none"/><path class="primary design" style="display:none"/><path class="primary design" style="display:none"/><path class="primary design" style="display:none"/></g><g class="com" style="display:none"><path/><path/><path/><path/><path/><path/><path/><path/><path/><path/><path/><path/></g></g></svg>