<svg xmlns="http://www.w3.org/2000/svg" width="500" height="500" style="width:100%;height:100%;transform:translate3d(0,0,0);content-visibility:visible" viewBox="0 0 500 500"><defs><clipPath id="a"><path d="M0 0h500v500H0z"/></clipPath><clipPath id="c"><path d="M0 0h500v500H0z"/></clipPath><clipPath id="b"><path d="M0 0h500v500H0z"/></clipPath></defs><g clip-path="url(#a)"><g clip-path="url(#b)" style="display:block"><g fill="#121330" style="display:block"><path d="M348.96 416.695H140.628c-54.58 0-98.985-44.403-98.985-98.983 0-26.48 10.284-51.348 28.959-70.024a99.31 99.31 0 0 1 12.741-10.763 101.08 101.08 0 0 1-.033-2.547c0-22.998 8.799-44.789 24.776-61.358 13.806-14.318 31.694-23.423 51.116-26.172 10.42-17.725 25.017-32.747 42.621-43.779 20.627-12.926 44.492-19.758 69.014-19.758 32.854 0 64.185 12.221 88.22 34.412 21.798 20.125 35.927 46.867 40.332 76.023a122.817 122.817 0 0 1 23.765 18.524c22.683 22.435 35.209 52.504 35.209 84.609 0 29.898-11.079 58.519-31.193 80.592-18.944 20.789-44.398 34.165-72.087 37.981-1.881.8-3.95 1.243-6.123 1.243zM270.836 114.61c-37.626 0-71.293 20.702-87.862 54.027a15.65 15.65 0 0 1-13.429 8.672c-30.805 1.152-54.934 26.22-54.934 57.069 0 3.089.189 5.603.596 7.911a15.65 15.65 0 0 1-7.742 16.355 67.897 67.897 0 0 0-14.73 11.175c-12.763 12.763-19.791 29.773-19.791 47.893 0 37.321 30.363 67.684 67.684 67.684h203.946a15.696 15.696 0 0 1 2.848-.55c45.402-4.486 79.64-42.305 79.64-87.968 0-23.679-9.226-45.846-25.979-62.416-6.849-6.849-14.702-12.54-23.4-16.978a15.652 15.652 0 0 1-8.482-12.613c-4.378-51.457-46.667-90.261-98.365-90.261z"/><path d="M238.281 333.362a15.603 15.603 0 0 1-10.98-4.498l-40.361-39.736c-6.159-6.064-6.236-15.973-.173-22.132 6.063-6.159 15.973-6.236 22.132-.173l29.382 28.927 73.66-72.524c6.16-6.064 16.068-5.986 22.132.172 6.063 6.159 5.986 16.068-.173 22.132l-84.64 83.334a15.599 15.599 0 0 1-10.979 4.498z"/></g><g style="display:none"><path/><path/></g><path fill="none" style="display:none"/><path fill="none" style="display:none"/></g><g clip-path="url(#c)" opacity="0" style="display:block"><g style="display:none"><path/><path/></g><path fill="none" style="display:none"/><path fill="none" style="display:none"/><path fill="none" style="display:none"/><path fill="none" style="display:none"/><path fill="none" style="display:none"/><path fill="none" style="display:none"/><path fill="none" style="display:none"/></g><path style="display:none"/></g></svg>