<svg xmlns="http://www.w3.org/2000/svg" width="500" height="500" style="width:100%;height:100%;transform:translate3d(0,0,0);content-visibility:visible" viewBox="0 0 500 500"><defs><clipPath id="a"><path d="M0 0h500v500H0z"/></clipPath><clipPath id="c"><path d="M0 0h500v500H0z"/></clipPath><clipPath id="b"><path d="M0 0h500v500H0z"/></clipPath></defs><g clip-path="url(#a)"><g clip-path="url(#b)" style="display:block"><g class="primary design" style="display:none"><path fill="none"/><path/><path/><path/></g><g class="primary design" style="display:none"><path fill="none"/><path/><path/><path/></g><g class="primary design" style="display:none"><path fill="none"/><path/><path/><path/></g><g class="primary design" style="display:none"><path fill="none"/><path/><path/><path/></g><g class="primary design" style="display:none"><path/><path fill="none"/></g><g class="primary design" style="display:none"><path/><path fill="none"/></g><g class="primary design" style="display:block"><path fill="none" stroke="#121330" stroke-width="2" d="M0 0"/><path fill="#121330" d="M203.124 343.758h-46.876v-46.876h46.876v46.876zm5.696-78.126h-58.268c-14.099 0-25.554 11.465-25.554 25.554v58.258c0 14.099 11.455 25.564 25.554 25.564h58.268c14.099 0 25.554-11.465 25.554-25.564v-58.258c0-14.089-11.455-25.554-25.554-25.554z"/></g><g class="primary design" style="display:block"><path fill="none" stroke="#121330" stroke-width="2" d="M0 0"/><path fill="#121330" d="M203.124 203.132h-46.876v-46.876h46.876v46.876zm5.696-78.126h-58.268c-14.099 0-25.554 11.465-25.554 25.554v58.258c0 14.099 11.455 25.564 25.554 25.564h58.268c14.099 0 25.554-11.465 25.554-25.564V150.56c0-14.089-11.455-25.554-25.554-25.554z"/></g><g class="primary design" style="display:block"><path fill="none" stroke="#121330" stroke-width="2" d="M0 0"/><path fill="#121330" d="M296.874 156.256h46.876v46.876h-46.876v-46.876zm-5.696 78.126h58.268c14.099 0 25.554-11.465 25.554-25.564V150.56c0-14.089-11.455-25.554-25.554-25.554h-58.268c-14.099 0-25.554 11.465-25.554 25.554v58.258c0 14.099 11.455 25.564 25.554 25.564z"/></g><g class="primary design" style="display:block"><path fill="none" stroke="#121330" stroke-width="2" d="M320.311 320.312"/><path fill="#121330" d="M338.539 375.002H355c11.044 0 19.999-8.954 19.999-19.998v-16.463h-36.454v-36.46h36.454V285.12c0-10.77-8.731-19.498-19.499-19.498h-16.961v36.459h-36.455v-36.459H289.75c-13.325 0-24.127 10.8-24.127 24.127V352c0 12.704 10.299 23.002 23.003 23.002h13.458v-36.461h36.455v36.461z"/></g><g class="primary design" style="display:block"><path fill="none" stroke="#121330" stroke-width="2" d="M0 0"/><path fill="#121330" d="M421.875 312.508c-8.626 0-15.625 6.999-15.625 15.625v72.907a5.217 5.217 0 0 1-5.208 5.208h-72.917c-8.626 0-15.625 6.999-15.625 15.625 0 8.626 6.999 15.625 15.625 15.625h72.917c20.101 0 36.458-16.357 36.458-36.458v-72.907c0-8.626-6.999-15.625-15.625-15.625zM78.123 187.496c8.626 0 15.625-6.999 15.625-15.625V98.954a5.217 5.217 0 0 1 5.208-5.208h72.917c8.626 0 15.625-6.999 15.625-15.625 0-8.626-6.999-15.625-15.625-15.625H98.956c-20.101 0-36.458 16.357-36.458 36.458v72.917c0 8.626 6.999 15.625 15.625 15.625zm93.75 218.752H98.956a5.217 5.217 0 0 1-5.208-5.208v-72.917c0-8.626-6.999-15.625-15.625-15.625-8.626 0-15.625 6.999-15.625 15.625v72.917c0 20.101 16.357 36.458 36.458 36.458h72.917c8.626 0 15.625-6.999 15.625-15.625 0-8.626-6.999-15.625-15.625-15.625zM401.042 62.506h-72.917c-8.626 0-15.625 6.999-15.625 15.625 0 8.626 6.999 15.625 15.625 15.625h72.917a5.217 5.217 0 0 1 5.208 5.208v72.907c0 8.626 6.999 15.625 15.625 15.625 8.626 0 15.625-6.999 15.625-15.625V98.964c0-20.101-16.357-36.458-36.458-36.458z"/></g><g class="primary design" style="display:none"><path fill="none"/><path/></g><g class="primary design" style="display:none"><path fill="none"/><path/></g><g class="primary design" style="display:none"><path fill="none"/><path/></g><g class="primary design" style="display:none"><path fill="none"/><path/></g><g class="primary design" style="display:none"><path fill="none"/><path/><path/><path/><path/></g></g><g clip-path="url(#c)" opacity="0" style="display:block"><g class="primary design" style="display:none"><path/><path fill="none"/></g><g class="primary design" style="display:none"><path/><path/><path/></g><g class="primary design" style="display:none"><path/><path/><path/></g><g class="primary design" style="display:none"><path/><path/><path/></g><g class="primary design" style="display:none"><path/><path/><path/></g><path class="primary design" style="display:none"/><path class="primary design" style="display:none"/><path class="primary design" style="display:none"/><path class="primary design" style="display:none"/><g class="primary design" style="display:none"><path/><path/><path/><path/></g></g><g class="com" style="display:none"><path/><path/><path/><path/><path/><path/><path/><path/><path/><path/><path/><path/></g></g></svg>