<svg xmlns="http://www.w3.org/2000/svg" width="500" height="500" style="width:100%;height:100%;transform:translate3d(0,0,0);content-visibility:visible" viewBox="0 0 500 500"><defs><clipPath id="b"><path d="M0 0h500v500H0z"/></clipPath><clipPath id="k"><path d="M0 0h500v500H0z"/></clipPath><clipPath id="j"><path d="M0 0h500v500H0z"/></clipPath><clipPath id="i"><path d="M0 0h500v500H0z"/></clipPath><clipPath id="h"><path d="M0 0h500v500H0z"/></clipPath><clipPath id="g"><path d="M0 0h500v500H0z"/></clipPath><clipPath id="f"><path d="M0 0h500v500H0z"/></clipPath><clipPath id="d"><path d="M0 0h500v500H0z"/></clipPath><clipPath id="c"><path d="M0 0h500v500H0z"/></clipPath><path id="a" fill="#121330" d="M-111.687 187.528a15.65 15.65 0 0 1-15.426-18.295l19.941-116.261-84.47-82.337a15.649 15.649 0 0 1 8.674-26.694l116.734-16.962 52.204-105.778a15.65 15.65 0 0 1 28.068 0L66.242-73.021l116.733 16.962a15.65 15.65 0 0 1 8.673 26.694L107.18 52.972l19.94 116.261a15.65 15.65 0 0 1-22.707 16.498L.004 130.84l-104.41 54.891a15.63 15.63 0 0 1-7.281 1.797z" class="primary design" style="display:block" transform="translate(250 250)"/><mask id="e" mask-type="alpha"><use xmlns:ns1="http://www.w3.org/1999/xlink" ns1:href="#a"/></mask></defs><g clip-path="url(#b)"><g clip-path="url(#c)" opacity="0" style="display:block"><g class="primary design" style="display:none"><path/><path fill="none"/></g><path fill="#121330" d="M-111.687 187.528a15.65 15.65 0 0 1-15.426-18.295l19.941-116.261-84.47-82.337a15.649 15.649 0 0 1 8.674-26.694l116.734-16.962 52.204-105.778a15.65 15.65 0 0 1 28.068 0L66.242-73.021l116.733 16.962a15.65 15.65 0 0 1 8.673 26.694L107.18 52.972l19.94 116.261a15.65 15.65 0 0 1-22.707 16.498L.004 130.84l-104.41 54.891a15.63 15.63 0 0 1-7.281 1.797z" class="primary design" opacity="1" style="display:block" transform="translate(250 250)"/><path class="primary design" style="display:none"/></g><g clip-path="url(#d)" opacity="0" style="display:block"><path fill="#121330" d="M-111.687 187.528a15.65 15.65 0 0 1-15.426-18.295l19.941-116.261-84.47-82.337a15.649 15.649 0 0 1 8.674-26.694l116.734-16.962 52.204-105.778a15.65 15.65 0 0 1 28.068 0L66.242-73.021l116.733 16.962a15.65 15.65 0 0 1 8.673 26.694L107.18 52.972l19.94 116.261a15.65 15.65 0 0 1-22.707 16.498L.004 130.84l-104.41 54.891a15.63 15.63 0 0 1-7.281 1.797zM.004 97.509c2.502 0 5.003.599 7.282 1.798L90.91 143.27 74.939 50.154a15.65 15.65 0 0 1 4.501-13.852l67.654-65.946L53.6-43.229a15.653 15.653 0 0 1-11.785-8.561L.004-136.511-41.808-51.79a15.65 15.65 0 0 1-11.784 8.561l-93.494 13.585 67.653 65.945a15.652 15.652 0 0 1 4.501 13.853l-15.971 93.116 83.625-43.964a15.645 15.645 0 0 1 7.282-1.797z" class="primary design" opacity="1" style="display:block" transform="translate(250 250)"/><g mask="url(#e)" style="display:block"><path fill="#121330" d="M138.313 663.528a15.65 15.65 0 0 1-15.426-18.295l19.941-116.261-62.872-30.306a15.65 15.65 0 0 1 .753-28.058l107.142-49.347 48.119-24.729c2.637-.326 8.077-.532 14.034-.532 5.957 0 11.397.206 14.034.532l49.04 24.069 108.131 47.137a15.65 15.65 0 0 1 1.329 28.036l-65.358 33.198 19.94 116.261a15.65 15.65 0 0 1-22.707 16.498L250.004 606.84l-104.41 54.891a15.63 15.63 0 0 1-7.281 1.797z" class="primary design"/></g></g><g clip-path="url(#f)" opacity="0" style="display:block"><path fill="none" class="primary design" style="display:none"/><path fill="#121330" d="M-111.687 187.528a15.65 15.65 0 0 1-15.426-18.295l19.941-116.261-84.47-82.337a15.649 15.649 0 0 1 8.674-26.694l116.734-16.962 52.204-105.778a15.65 15.65 0 0 1 28.068 0L66.242-73.021l116.733 16.962a15.65 15.65 0 0 1 8.673 26.694L107.18 52.972l19.94 116.261a15.65 15.65 0 0 1-22.707 16.498L.004 130.84l-104.41 54.891a15.63 15.63 0 0 1-7.281 1.797zM.004 97.509c2.502 0 5.003.599 7.282 1.798L90.91 143.27 74.939 50.154a15.65 15.65 0 0 1 4.501-13.852l67.654-65.946L53.6-43.229a15.653 15.653 0 0 1-11.785-8.561L.004-136.511-41.808-51.79a15.65 15.65 0 0 1-11.784 8.561l-93.494 13.585 67.653 65.945a15.652 15.652 0 0 1 4.501 13.853l-15.971 93.116 83.625-43.964a15.645 15.645 0 0 1 7.282-1.797z" class="primary design" opacity="1" style="display:block" transform="translate(250 250)"/><path class="primary design" style="display:none"/></g><g clip-path="url(#g)" opacity="0" style="display:block"><path fill="none" class="primary design" style="display:none"/><path class="primary design" style="display:none"/></g><g clip-path="url(#h)" opacity="0" style="display:block"><g class="primary design" style="display:none"><path/><path fill="none"/></g><path fill="#121330" d="M-111.687 187.528a15.65 15.65 0 0 1-15.426-18.295l19.941-116.261-84.47-82.337a15.649 15.649 0 0 1 8.674-26.694l116.734-16.962 52.204-105.778a15.65 15.65 0 0 1 28.068 0L66.242-73.021l116.733 16.962a15.65 15.65 0 0 1 8.673 26.694L107.18 52.972l19.94 116.261a15.65 15.65 0 0 1-22.707 16.498L.004 130.84l-104.41 54.891a15.63 15.63 0 0 1-7.281 1.797z" class="primary design" opacity="1" style="display:block" transform="translate(250 250)"/><path class="primary design" style="display:none"/></g><g clip-path="url(#i)" opacity="0" style="display:block"><path fill="#121330" d="M-111.687 187.528a15.65 15.65 0 0 1-15.426-18.295l19.941-116.261-84.47-82.337a15.649 15.649 0 0 1 8.674-26.694l116.734-16.962 52.204-105.778a15.65 15.65 0 0 1 28.068 0L66.242-73.021l116.733 16.962a15.65 15.65 0 0 1 8.673 26.694L107.18 52.972l19.94 116.261a15.65 15.65 0 0 1-22.707 16.498L.004 130.84l-104.41 54.891a15.63 15.63 0 0 1-7.281 1.797zM.004 97.509c2.502 0 5.003.599 7.282 1.798L90.91 143.27 74.939 50.154a15.65 15.65 0 0 1 4.501-13.852l67.654-65.946L53.6-43.229a15.653 15.653 0 0 1-11.785-8.561L.004-136.511-41.808-51.79a15.65 15.65 0 0 1-11.784 8.561l-93.494 13.585 67.653 65.945a15.652 15.652 0 0 1 4.501 13.853l-15.971 93.116 83.625-43.964a15.645 15.645 0 0 1 7.282-1.797z" class="primary design" opacity="1" style="display:block" transform="translate(250 250)"/><path class="primary design" style="display:none"/></g><g clip-path="url(#j)" style="display:block"><path fill="none" class="primary design" style="display:none"/><path fill="#121330" d="M-111.687 187.528a15.65 15.65 0 0 1-15.426-18.295l19.941-116.261-84.47-82.337a15.649 15.649 0 0 1 8.674-26.694l116.734-16.962 52.204-105.778a15.65 15.65 0 0 1 28.068 0L66.242-73.021l116.733 16.962a15.65 15.65 0 0 1 8.673 26.694L107.18 52.972l19.94 116.261a15.65 15.65 0 0 1-22.707 16.498L.004 130.84l-104.41 54.891a15.63 15.63 0 0 1-7.281 1.797zM.004 97.509c2.502 0 5.003.599 7.282 1.798L90.91 143.27 74.939 50.154a15.65 15.65 0 0 1 4.501-13.852l67.654-65.946L53.6-43.229a15.653 15.653 0 0 1-11.785-8.561L.004-136.511-41.808-51.79a15.65 15.65 0 0 1-11.784 8.561l-93.494 13.585 67.653 65.945a15.652 15.652 0 0 1 4.501 13.853l-15.971 93.116 83.625-43.964a15.645 15.645 0 0 1 7.282-1.797z" class="primary design" style="display:block" transform="translate(250 250)"/><path class="primary design" style="display:none"/></g><g clip-path="url(#k)" opacity="0" style="display:block"><path fill="none" class="primary design" style="display:none"/><path class="primary design" style="display:none"/></g><g class="com" style="display:none"><path/><path/><path/><path/><path/><path/><path/><path/><path/><path/><path/><path/></g></g></svg>