<svg xmlns="http://www.w3.org/2000/svg" width="500" height="500" style="width:100%;height:100%;transform:translate3d(0,0,0);content-visibility:visible" viewBox="0 0 500 500"><defs><clipPath id="a"><path d="M0 0h500v500H0z"/></clipPath><clipPath id="c"><path d="M0 0h500v500H0z"/></clipPath><clipPath id="b"><path d="M0 0h500v500H0z"/></clipPath></defs><g clip-path="url(#a)"><g clip-path="url(#b)" style="display:block"><path fill="none" class="primary design" style="display:none"/><path fill="none" class="primary design" style="display:none"/><path fill="none" class="primary design" style="display:none"/><path fill="none" class="primary design" style="display:none"/><path fill="none" class="primary design" style="display:none"/><path fill="none" class="primary design" style="display:none"/><path fill="none" class="primary design" style="display:none"/><path fill="none" class="primary design" style="display:none"/><path fill="none" class="primary design" style="display:none"/><path fill="none" class="primary design" style="display:none"/><path fill="none" class="primary design" style="display:none"/><path fill="#121330" d="M162.112 192.061a15.65 15.65 0 0 0-25.913 6.117L63.282 416.929a15.651 15.651 0 0 0 19.796 19.796l218.751-72.917a15.647 15.647 0 0 0 6.117-25.913L162.112 192.061zm-59.238 205.073 55.01-165.035 110.024 110.023-165.034 55.012zm157.791-171.631a15.6 15.6 0 0 0 11.066 4.583c4.005 0 8.011-1.527 11.067-4.583 1.639-1.639 2.392-1.884 9.163-1.595 7.854.335 21 .895 32.627-10.732 11.622-11.622 11.054-24.766 10.714-32.619-.292-6.753-.052-7.506 1.575-9.133 1.647-1.647 2.409-1.892 9.183-1.606 7.852.331 21.001.884 32.631-10.746 11.635-11.635 11.093-24.785 10.768-32.641-.28-6.794-.034-7.556 1.628-9.217 1.661-1.662 2.421-1.909 9.218-1.628 7.858.324 21.005.866 32.64-10.768 6.111-6.112 6.111-16.021 0-22.133-6.111-6.111-16.022-6.111-22.133 0-1.661 1.662-2.421 1.908-9.217 1.628-7.858-.325-21.006-.866-32.641 10.768-11.635 11.635-11.093 24.785-10.768 32.641.28 6.794.034 7.556-1.628 9.218-1.647 1.647-2.402 1.893-9.182 1.605-7.853-.329-21.002-.883-32.632 10.746-11.621 11.622-11.053 24.765-10.713 32.618.292 6.753.052 7.507-1.576 9.134-1.64 1.639-2.392 1.882-9.163 1.594-7.853-.334-21-.894-32.627 10.733-6.111 6.112-6.111 16.021 0 22.133zM161.461 93.775c20.09 0 36.434 16.345 36.434 36.434v41.668c0 8.643 7.006 15.65 15.65 15.65s15.651-7.007 15.651-15.65v-41.668c0-37.348-30.386-67.734-67.74-67.734-8.644 0-15.648 7.007-15.648 15.65s7.009 15.65 15.653 15.65zm208.335 177.03h-41.667c-8.644 0-15.651 7.007-15.651 15.65s7.007 15.649 15.651 15.649h41.667c20.089 0 36.433 16.345 36.433 36.441 0 8.643 7.006 15.646 15.65 15.646s15.651-7.01 15.651-15.653c0-37.348-30.386-67.733-67.734-67.733zM250.284 102.013c.1.5.23 1.001.38 1.491.14.49.321.97.51 1.44.2.47.42.939.66 1.389.24.45.5.89.78 1.31.279.43.591.851.911 1.241.329.4.68.78 1.04 1.14.359.36.739.709 1.139 1.039.39.32.809.63 1.24.91.42.28.86.541 1.31.781.45.24.92.459 1.39.659.471.19.95.37 1.44.52.49.14.99.27 1.49.37a15.72 15.72 0 0 0 3.06.311 15.68 15.68 0 0 0 3.05-.311c.5-.1 1-.23 1.49-.37.49-.15.969-.33 1.44-.52.47-.2.94-.419 1.39-.659a15.784 15.784 0 0 0 2.55-1.691c.4-.33.78-.679 1.14-1.039.359-.36.711-.74 1.03-1.14.33-.39.63-.811.92-1.241.28-.42.54-.86.78-1.31.24-.45.46-.919.66-1.389.19-.47.37-.95.51-1.44a15.508 15.508 0 0 0 .69-4.54 15.884 15.884 0 0 0-.31-3.06c-.1-.5-.23-1.001-.38-1.491-.14-.48-.32-.97-.51-1.44-.2-.47-.42-.929-.66-1.379-.24-.45-.5-.9-.78-1.32a15.92 15.92 0 0 0-1.95-2.381c-.36-.36-.74-.709-1.14-1.029-.399-.32-.809-.631-1.239-.911a14.608 14.608 0 0 0-2.701-1.44c-.471-.2-.95-.37-1.44-.52-.49-.15-.99-.279-1.49-.379-.5-.1-1.01-.17-1.52-.23-1.021-.1-2.049-.1-3.07 0-.51.06-1.02.13-1.52.23s-1 .229-1.49.379-.969.32-1.44.52a14.608 14.608 0 0 0-2.7 1.44c-.431.28-.85.591-1.24.911-.4.32-.78.669-1.139 1.029-.36.36-.711.75-1.04 1.14a15.56 15.56 0 0 0-1.691 2.561c-.24.45-.46.909-.66 1.379-.189.47-.37.96-.51 1.44a15.508 15.508 0 0 0-.69 4.551 15.414 15.414 0 0 0 .31 3.049zm186.56 127.82c-.149-.49-.32-.97-.52-1.44a15.594 15.594 0 0 0-1.43-2.699c-.29-.43-.59-.841-.92-1.241-.319-.4-.671-.78-1.03-1.14-.36-.36-.749-.709-1.14-1.039-.399-.32-.81-.621-1.24-.911-.421-.28-.87-.54-1.31-.78-.45-.24-.92-.459-1.39-.659-.471-.19-.95-.371-1.44-.511a15.488 15.488 0 0 0-3-.61c-1.03-.1-2.059-.1-3.08 0a15.476 15.476 0 0 0-3.01.61c-.49.14-.969.321-1.44.511-.47.2-.94.419-1.39.659-.45.24-.89.5-1.31.78-.431.29-.85.591-1.24.911-.4.33-.781.679-1.14 1.039-.36.36-.711.74-1.04 1.14-.32.4-.631.811-.91 1.241-.28.42-.54.86-.78 1.31-.24.45-.46.919-.66 1.389-.189.47-.37.95-.51 1.44a15.488 15.488 0 0 0-.69 4.54 15.72 15.72 0 0 0 .31 3.06c.1.5.23 1.001.38 1.491.14.49.321.969.51 1.439.2.47.42.941.66 1.391.24.45.5.889.78 1.309.279.43.59.84.91 1.24.329.39.68.781 1.04 1.141.359.36.74.709 1.14 1.029.39.33.809.63 1.24.92.42.28.86.541 1.31.781.45.24.92.459 1.39.659.471.19.95.36 1.44.51a15.488 15.488 0 0 0 3.01.61c.51.05 1.03.071 1.54.071s1.02-.021 1.53-.071a15.476 15.476 0 0 0 3.01-.61c.48-.15.969-.32 1.44-.51.47-.2.94-.419 1.38-.659.45-.24.899-.501 1.32-.781.43-.29.841-.59 1.24-.92.391-.32.78-.669 1.14-1.029a15.826 15.826 0 0 0 2.73-3.69c.24-.45.46-.921.65-1.391.2-.47.371-.949.52-1.439.15-.49.28-.991.38-1.491.101-.5.169-1.01.23-1.52.05-.51.07-1.02.07-1.54 0-.51-.02-1.02-.07-1.53a19.2 19.2 0 0 0-.23-1.52c-.1-.5-.23-1-.38-1.49z" class="primary design" style="display:block"/><g class="primary design" style="display:none"><path/><path/><path/><path/><path/><path/></g></g><g clip-path="url(#c)" opacity="0" style="display:block"><path fill="none" class="primary design" style="display:none"/><path fill="none" class="primary design" style="display:none"/><path fill="none" class="primary design" style="display:none"/><path fill="none" class="primary design" style="display:none"/><path fill="none" class="primary design" style="display:none"/><path fill="none" class="primary design" style="display:none"/><path fill="none" class="primary design" style="display:none"/><g class="primary design" style="display:none"><path/><path/><path/><path/><path/><path/></g></g><g class="com" style="display:none"><path/><path/><path/><path/><path/><path/><path/><path/><path/><path/><path/><path/></g></g></svg>