<svg xmlns="http://www.w3.org/2000/svg" width="500" height="500" style="width:100%;height:100%;transform:translate3d(0,0,0);content-visibility:visible" viewBox="0 0 500 500"><defs><clipPath id="d"><path d="M0 0h500v500H0z"/></clipPath><clipPath id="h"><path d="M0 0h500v500H0z"/></clipPath><clipPath id="f"><path d="M0 0h500v500H0z"/></clipPath><clipPath id="c"><path d="M0 0h500v500H0z"/></clipPath><clipPath id="e"><path d="M0 0h500v500H0z"/></clipPath><filter id="a" width="100%" height="100%" x="0%" y="0%" filterUnits="objectBoundingBox"><feComponentTransfer in="SourceGraphic"><feFuncA tableValues="1.0 0.0" type="table"/></feComponentTransfer></filter><mask id="g" mask-type="alpha"><g filter="url(#a)"><path fill="#fff" d="M0 0h500v500H0z" opacity="0"/><use xmlns:ns1="http://www.w3.org/1999/xlink" ns1:href="#b"/></g></mask><g id="b" fill-opacity="0" stroke-linecap="round" clip-path="url(#c)" style="display:none"><path stroke-miterlimit="10" class="primary design" style="display:none"/><path stroke-linejoin="round" class="primary design" style="display:none"/></g></defs><g clip-path="url(#d)"><g clip-path="url(#e)" opacity="0" style="display:block"><path fill="none" class="primary design" style="display:none"/><path fill="none" class="primary design" style="display:none"/><path fill="none" class="primary design" style="display:none"/><path fill="none" class="primary design" style="display:none"/><path fill="#121330" d="M151.692 188.183h-302.735c-20.117 0-36.484-16.366-36.484-36.483v-302.737c0-20.117 16.367-36.484 36.484-36.484h302.735c20.117 0 36.485 16.367 36.485 36.484V151.7c0 20.117-16.368 36.483-36.485 36.483zm-302.735-344.404a5.19 5.19 0 0 0-5.184 5.184V151.7a5.19 5.19 0 0 0 5.184 5.183h302.735a5.19 5.19 0 0 0 5.184-5.183v-302.737a5.19 5.19 0 0 0-5.184-5.184h-302.735z" class="primary design" opacity="1" style="display:block" transform="translate(250 250)"/><path fill="#121330" d="M.017 88.55c-8.644 0-15.65-6.987-15.65-15.63v-.039c0-24.039 13.218-46.481 35.358-60.032C34.295 3.93 40.88-12.797 36.499-29.767 33.29-42.197 22.782-52.708 10.351-55.92c-12.093-3.126-23.977-.799-33.465 6.549-9.338 7.231-14.692 18.139-14.692 29.929 0 8.643-7.006 15.65-15.65 15.65s-15.651-7.007-15.651-15.65c0-21.544 9.778-41.472 26.828-54.676C-25.215-87.333-3.18-91.745 18.183-86.225c23.476 6.067 42.561 25.157 48.622 48.633 7.777 30.123-4.576 61.123-30.739 77.138-12.773 7.818-20.398 20.279-20.398 33.335 0 8.643-7.007 15.669-15.651 15.669z" class="primary design" opacity="1" style="display:block" transform="translate(249.981 213.542)"/><path fill="#121330" d="M0 20.503c-.67 0-1.34-.041-2.011-.111-.67-.06-1.34-.16-1.989-.3-.66-.13-1.31-.29-1.95-.49-.64-.19-1.271-.42-1.89-.67-.61-.26-1.22-.55-1.81-.86-.59-.32-1.17-.659-1.73-1.029-.551-.37-1.1-.771-1.61-1.191-.53-.43-1.03-.89-1.5-1.36a19.58 19.58 0 0 1-2.55-3.12c-.37-.55-.72-1.13-1.03-1.72-.31-.59-.6-1.2-.861-1.81a22.39 22.39 0 0 1-1.17-3.839c-.13-.66-.229-1.331-.299-1.991-.06-.67-.1-1.349-.1-2.009 0-.67.04-1.35.1-2.02.07-.66.169-1.331.299-1.991a22.641 22.641 0 0 1 1.17-3.84c.261-.61.551-1.22.861-1.81.31-.59.66-1.17 1.03-1.72a19.58 19.58 0 0 1 2.55-3.119c.47-.47.97-.931 1.5-1.351.51-.43 1.059-.83 1.61-1.2.56-.37 1.14-.71 1.73-1.03.59-.31 1.2-.6 1.81-.85.619-.26 1.25-.49 1.89-.68.64-.2 1.29-.36 1.95-.49.649-.14 1.319-.24 1.989-.3 1.33-.14 2.691-.14 4.031 0 .66.06 1.33.16 1.99.3.65.13 1.309.29 1.939.49.641.19 1.281.42 1.891.68.62.25 1.229.54 1.82.85.59.32 1.17.66 1.72 1.03.56.37 1.099.77 1.62 1.2a19.434 19.434 0 0 1 2.85 2.851 19.367 19.367 0 0 1 2.219 3.339c.32.59.611 1.2.861 1.81.26.62.48 1.261.679 1.891.19.64.361 1.299.491 1.949.13.66.23 1.331.299 1.991.07.67.101 1.35.101 2.02 0 .66-.031 1.339-.101 2.009a22.41 22.41 0 0 1-.299 1.991c-.13.65-.301 1.309-.491 1.949-.199.63-.419 1.27-.679 1.89-.25.61-.541 1.22-.861 1.81a19.383 19.383 0 0 1-2.219 3.34c-.42.52-.88 1.03-1.35 1.5-.471.47-.98.93-1.5 1.36a21.273 21.273 0 0 1-3.34 2.22c-.591.31-1.2.6-1.82.86-.61.25-1.25.48-1.891.67-.63.2-1.289.36-1.939.49-.66.14-1.33.24-1.99.3-.67.07-1.35.111-2.02.111z" class="primary design" opacity="1" style="display:block" transform="translate(249.995 354.169)"/><path class="primary design" style="display:none"/><path class="primary design" style="display:none"/><path class="primary design" style="display:none"/></g><g clip-path="url(#f)" style="display:block"><g mask="url(#g)" style="display:none"><path fill="none" class="primary design"/></g><path fill="none" class="primary design" style="display:none"/><path fill="none" class="primary design" style="display:none"/><path fill="none" class="primary design" style="display:none"/><path fill="#121330" d="M151.692 188.183h-302.735c-20.117 0-36.484-16.366-36.484-36.483v-302.737c0-20.117 16.367-36.484 36.484-36.484h302.735c20.117 0 36.485 16.367 36.485 36.484V151.7c0 20.117-16.368 36.483-36.485 36.483zm-302.735-344.404a5.19 5.19 0 0 0-5.184 5.184V151.7a5.19 5.19 0 0 0 5.184 5.183h302.735a5.19 5.19 0 0 0 5.184-5.183v-302.737a5.19 5.19 0 0 0-5.184-5.184h-302.735z" class="primary design" style="display:block" transform="translate(250 250)"/><path fill="#121330" d="M.017 88.55c-8.644 0-15.65-6.987-15.65-15.63v-.039c0-24.039 13.218-46.481 35.358-60.032C34.295 3.93 40.88-12.797 36.499-29.767 33.29-42.197 22.782-52.708 10.351-55.92c-12.093-3.126-23.977-.799-33.465 6.549-9.338 7.231-14.692 18.139-14.692 29.929 0 8.643-7.006 15.65-15.65 15.65s-15.651-7.007-15.651-15.65c0-21.544 9.778-41.472 26.828-54.676C-25.215-87.333-3.18-91.745 18.183-86.225c23.476 6.067 42.561 25.157 48.622 48.633 7.777 30.123-4.576 61.123-30.739 77.138-12.773 7.818-20.398 20.279-20.398 33.335 0 8.643-7.007 15.669-15.651 15.669z" class="primary design" style="display:block" transform="translate(249.981 213.542)"/><path fill="#121330" d="M0 20.503c-.67 0-1.34-.041-2.011-.111-.67-.06-1.34-.16-1.989-.3-.66-.13-1.31-.29-1.95-.49-.64-.19-1.271-.42-1.89-.67-.61-.26-1.22-.55-1.81-.86-.59-.32-1.17-.659-1.73-1.029-.551-.37-1.1-.771-1.61-1.191-.53-.43-1.03-.89-1.5-1.36a19.58 19.58 0 0 1-2.55-3.12c-.37-.55-.72-1.13-1.03-1.72-.31-.59-.6-1.2-.861-1.81a22.39 22.39 0 0 1-1.17-3.839c-.13-.66-.229-1.331-.299-1.991-.06-.67-.1-1.349-.1-2.009 0-.67.04-1.35.1-2.02.07-.66.169-1.331.299-1.991a22.641 22.641 0 0 1 1.17-3.84c.261-.61.551-1.22.861-1.81.31-.59.66-1.17 1.03-1.72a19.58 19.58 0 0 1 2.55-3.119c.47-.47.97-.931 1.5-1.351.51-.43 1.059-.83 1.61-1.2.56-.37 1.14-.71 1.73-1.03.59-.31 1.2-.6 1.81-.85.619-.26 1.25-.49 1.89-.68.64-.2 1.29-.36 1.95-.49.649-.14 1.319-.24 1.989-.3 1.33-.14 2.691-.14 4.031 0 .66.06 1.33.16 1.99.3.65.13 1.309.29 1.939.49.641.19 1.281.42 1.891.68.62.25 1.229.54 1.82.85.59.32 1.17.66 1.72 1.03.56.37 1.099.77 1.62 1.2a19.434 19.434 0 0 1 2.85 2.851 19.367 19.367 0 0 1 2.219 3.339c.32.59.611 1.2.861 1.81.26.62.48 1.261.679 1.891.19.64.361 1.299.491 1.949.13.66.23 1.331.299 1.991.07.67.101 1.35.101 2.02 0 .66-.031 1.339-.101 2.009a22.41 22.41 0 0 1-.299 1.991c-.13.65-.301 1.309-.491 1.949-.199.63-.419 1.27-.679 1.89-.25.61-.541 1.22-.861 1.81a19.383 19.383 0 0 1-2.219 3.34c-.42.52-.88 1.03-1.35 1.5-.471.47-.98.93-1.5 1.36a21.273 21.273 0 0 1-3.34 2.22c-.591.31-1.2.6-1.82.86-.61.25-1.25.48-1.891.67-.63.2-1.289.36-1.939.49-.66.14-1.33.24-1.99.3-.67.07-1.35.111-2.02.111z" class="primary design" style="display:block" transform="translate(249.995 354.169)"/><path class="primary design" style="display:none"/><path class="primary design" style="display:none"/><path class="primary design" style="display:none"/></g><g clip-path="url(#h)" opacity="0" style="display:block"><path fill="none" class="primary design" style="display:none"/><path fill="none" class="primary design" style="display:none"/><path fill="none" class="primary design" style="display:none"/><path fill="none" class="primary design" style="display:none"/><path class="primary design" style="display:none"/><path class="primary design" style="display:none"/><path class="primary design" style="display:none"/></g><g class="com" style="display:none"><path/><path/><path/><path/><path/><path/><path/><path/><path/><path/><path/><path/></g></g></svg>