<svg xmlns="http://www.w3.org/2000/svg" width="500" height="500" style="width:100%;height:100%;transform:translate3d(0,0,0);content-visibility:visible" viewBox="0 0 500 500"><defs><clipPath id="a"><path d="M0 0h500v500H0z"/></clipPath><clipPath id="e"><path d="M0 0h500v500H0z"/></clipPath><clipPath id="d"><path d="M0 0h500v500H0z"/></clipPath><clipPath id="c"><path d="M0 0h500v500H0z"/></clipPath><clipPath id="b"><path d="M0 0h500v500H0z"/></clipPath></defs><g clip-path="url(#a)"><g clip-path="url(#b)" opacity="0" style="display:block"><path fill="#121330" d="M-87.386 166.669a37.521 37.521 0 0 1-18.476-4.861c-11.685-6.598-18.658-18.444-18.658-31.701v-260.004c0-13.379 6.995-25.308 18.72-31.926 11.746-6.638 26.203-6.434 37.663.531L149.445-31.219c11.052 6.659 17.659 18.281 17.7 31.068.041 12.909-6.627 24.695-17.822 31.538L-68.218 161.359c-5.852 3.534-12.5 5.31-19.168 5.31zm0-301.979c-1.366 0-2.467.49-3.018.817-1.285.715-2.794 2.104-2.794 4.596v260.004c0 2.472 1.712 3.799 2.732 4.391.938.511 3.405 1.613 6.138-.041l217.48-129.95c2.304-1.409 2.671-3.473 2.671-4.576 0-1.246-.448-3.003-2.508-4.249L-84.266-134.411a5.91 5.91 0 0 0-3.12-.899z" class="primary design" opacity="1" style="display:block" transform="translate(250 250)"/><path class="primary design" style="display:none"/><path class="primary design" style="display:none"/><path fill="none" class="primary design" style="display:none"/><path fill="none" class="primary design" style="display:none"/></g><g clip-path="url(#c)" style="display:block"><path class="primary design" style="display:none"/><path fill="#121330" d="M-59.912 167.34h-46.27c-21.391 0-38.785-16.662-38.785-37.154v-259.024c0-20.492 17.394-37.154 38.785-37.154h46.27c21.391 0 38.785 16.662 38.785 37.154v259.024c0 20.492-17.394 37.154-38.785 37.154zm-46.27-302.198c-4.038 0-7.463 2.757-7.463 6.02v259.024c0 3.263 3.425 6.02 7.463 6.02h46.27c4.038 0 7.463-2.757 7.463-6.02v-259.024c0-3.263-3.425-6.02-7.463-6.02h-46.27zM107.75 167.34H61.216c-21.473 0-38.949-16.662-38.949-37.154v-259.024c0-20.492 17.476-37.154 38.949-37.154h46.534c21.473 0 38.949 16.662 38.949 37.154v259.024c0 20.492-17.476 37.154-38.949 37.154zM61.216-134.858c-4.058 0-7.627 2.817-7.627 6.02v259.024c0 3.203 3.569 6.02 7.627 6.02h46.534c4.058 0 7.627-2.817 7.627-6.02v-259.024c0-3.203-3.569-6.02-7.627-6.02H61.216z" class="primary design" style="display:block" transform="translate(250 250)"/><path fill="none" class="primary design" style="display:none"/><path fill="none" class="primary design" style="display:none"/></g><g clip-path="url(#d)" opacity="0" style="display:block"><path fill="#121330" d="M-59.912 167.34h-46.27c-21.391 0-38.785-16.662-38.785-37.154v-259.024c0-20.492 17.394-37.154 38.785-37.154h46.27c21.391 0 38.785 16.662 38.785 37.154v259.024c0 20.492-17.394 37.154-38.785 37.154zm-46.27-302.198c-4.038 0-7.463 2.757-7.463 6.02v259.024c0 3.263 3.425 6.02 7.463 6.02h46.27c4.038 0 7.463-2.757 7.463-6.02v-259.024c0-3.263-3.425-6.02-7.463-6.02h-46.27zM107.75 167.34H61.216c-21.473 0-38.949-16.662-38.949-37.154v-259.024c0-20.492 17.476-37.154 38.949-37.154h46.534c21.473 0 38.949 16.662 38.949 37.154v259.024c0 20.492-17.476 37.154-38.949 37.154zM61.216-134.858c-4.058 0-7.627 2.817-7.627 6.02v259.024c0 3.203 3.569 6.02 7.627 6.02h46.534c4.058 0 7.627-2.817 7.627-6.02v-259.024c0-3.203-3.569-6.02-7.627-6.02H61.216z" class="primary design" opacity="1" style="display:block" transform="translate(250 250)"/></g><g clip-path="url(#e)" opacity="0" style="display:block"><path class="primary design" style="display:none"/><path class="primary design" style="display:none"/></g><g class="com" style="display:none"><path/><path/><path/><path/><path/><path/><path/><path/><path/><path/><path/><path/></g></g></svg>