<svg xmlns="http://www.w3.org/2000/svg" width="500" height="500" style="width:100%;height:100%;transform:translate3d(0,0,0);content-visibility:visible" viewBox="0 0 500 500"><defs><clipPath id="a"><path d="M0 0h500v500H0z"/></clipPath><clipPath id="c"><path d="M0 0h500v500H0z"/></clipPath><clipPath id="b"><path d="M0 0h500v500H0z"/></clipPath></defs><g clip-path="url(#a)"><g clip-path="url(#b)" style="display:block"><g fill="none" class="primary design" style="display:none"><path/><path/></g><path fill="none" class="primary design" style="display:none"/><path fill="none" class="primary design" style="display:none"/><path fill="none" class="primary design" style="display:none"/><path fill="none" class="primary design" style="display:none"/><path fill="none" class="primary design" style="display:none"/><g fill="#121330" class="primary design" style="display:block"><path d="M421.878 166.694H286.462c-8.644 0-15.651-7.007-15.651-15.65V78.128c0-8.643 7.007-15.65 15.651-15.65h135.416c8.644 0 15.651 7.007 15.651 15.65v72.916c0 8.643-7.007 15.65-15.651 15.65zm-119.766-31.299h104.116V93.777H302.112v41.618zm119.766 166.716H286.462c-8.644 0-15.651-7.007-15.651-15.65v-72.916c0-8.643 7.007-15.65 15.651-15.65h135.416c8.644 0 15.651 7.007 15.651 15.65v72.916c0 8.643-7.007 15.65-15.651 15.65zm-119.766-31.299h104.116v-41.618H302.112v41.618zm119.766 166.716H286.462c-8.644 0-15.651-7.007-15.651-15.65v-72.916c0-8.643 7.007-15.65 15.651-15.65h135.416c8.644 0 15.651 7.007 15.651 15.65v72.916c0 8.643-7.007 15.65-15.651 15.65zm-119.766-31.299h104.116v-41.618H302.112v41.618zm-93.776-5.159h-88.541c-31.604 0-57.317-25.713-57.317-57.317V156.252c0-31.604 25.713-57.316 57.317-57.316h93.749c8.644 0 15.65 7.007 15.65 15.65s-7.006 15.65-15.65 15.65h-93.749c-14.346 0-26.017 11.67-26.017 26.016v187.501c0 14.346 11.671 26.017 26.017 26.017h88.541c8.644 0 15.65 7.007 15.65 15.65s-7.006 15.65-15.65 15.65z"/><path d="M177.085 437.528a15.597 15.597 0 0 1-11.065-4.583c-6.112-6.111-6.112-16.02-.001-22.132l25.394-25.395-25.39-25.391c-6.111-6.111-6.111-16.02 0-22.132 6.112-6.111 16.021-6.112 22.133.001l36.455 36.455c6.111 6.112 6.111 16.02 0 22.132l-36.459 36.461a15.603 15.603 0 0 1-11.067 4.584z"/></g><g class="primary design" style="display:none"><path/><path/><path/><path/><path/></g></g><g clip-path="url(#c)" opacity="0" style="display:block"><path fill="none" class="primary design" style="display:none"/><path fill="none" class="primary design" style="display:none"/><path fill="none" class="primary design" style="display:none"/><path fill="none" class="primary design" style="display:none"/><path fill="none" class="primary design" style="display:none"/><g class="primary design" style="display:none"><path/><path/><path/><path/><path/></g></g></g></svg>