<svg xmlns="http://www.w3.org/2000/svg" width="500" height="500" style="width:100%;height:100%;transform:translate3d(0,0,0);content-visibility:visible" viewBox="0 0 500 500"><defs><clipPath id="k"><path d="M0 0h500v500H0z"/></clipPath><clipPath id="C"><path d="M0 0h500v500H0z"/></clipPath><clipPath id="G"><path d="M0 0h500v500H0z"/></clipPath><clipPath id="E"><path d="M0 0h500v500H0z"/></clipPath><clipPath id="D"><path d="M0 0h500v500H0z"/></clipPath><clipPath id="v"><path d="M0 0h500v500H0z"/></clipPath><clipPath id="A"><path d="M0 0h500v500H0z"/></clipPath><clipPath id="z"><path d="M0 0h500v500H0z"/></clipPath><clipPath id="x"><path d="M0 0h500v500H0z"/></clipPath><clipPath id="w"><path d="M0 0h500v500H0z"/></clipPath><clipPath id="o"><path d="M0 0h500v500H0z"/></clipPath><clipPath id="t"><path d="M0 0h500v500H0z"/></clipPath><clipPath id="s"><path d="M0 0h500v500H0z"/></clipPath><clipPath id="q"><path d="M0 0h500v500H0z"/></clipPath><clipPath id="p"><path d="M0 0h500v500H0z"/></clipPath><clipPath id="l"><path d="M0 0h500v500H0z"/></clipPath><clipPath id="n"><path d="M0 0h500v500H0z"/></clipPath><clipPath id="m"><path d="M0 0h500v500H0z"/></clipPath><filter id="a" width="100%" height="100%" x="0%" y="0%" filterUnits="objectBoundingBox"><feComponentTransfer in="SourceGraphic"><feFuncA tableValues="1.0 0.0" type="table"/></feComponentTransfer></filter><filter id="c" width="100%" height="100%" x="0%" y="0%" filterUnits="objectBoundingBox"><feComponentTransfer in="SourceGraphic"><feFuncA tableValues="1.0 0.0" type="table"/></feComponentTransfer></filter><filter id="e" width="100%" height="100%" x="0%" y="0%" filterUnits="objectBoundingBox"><feComponentTransfer in="SourceGraphic"><feFuncA tableValues="1.0 0.0" type="table"/></feComponentTransfer></filter><filter id="g" width="100%" height="100%" x="0%" y="0%" filterUnits="objectBoundingBox"><feComponentTransfer in="SourceGraphic"><feFuncA tableValues="1.0 0.0" type="table"/></feComponentTransfer></filter><filter id="i" width="100%" height="100%" x="0%" y="0%" filterUnits="objectBoundingBox"><feComponentTransfer in="SourceGraphic"><feFuncA tableValues="1.0 0.0" type="table"/></feComponentTransfer></filter><mask id="F" mask-type="alpha"><g filter="url(#a)"><path fill="#fff" d="M0 0h500v500H0z" opacity="0"/><use xmlns:ns1="http://www.w3.org/1999/xlink" ns1:href="#b"/></g></mask><mask id="B" mask-type="alpha"><g filter="url(#c)"><path fill="#fff" d="M0 0h500v500H0z" opacity="0"/><use xmlns:ns2="http://www.w3.org/1999/xlink" ns2:href="#d"/></g></mask><mask id="y" mask-type="alpha"><g filter="url(#e)"><path fill="#fff" d="M0 0h500v500H0z" opacity="0"/><use xmlns:ns3="http://www.w3.org/1999/xlink" ns3:href="#f"/></g></mask><mask id="u" mask-type="alpha"><g filter="url(#g)"><path fill="#fff" d="M0 0h500v500H0z" opacity="0"/><use xmlns:ns4="http://www.w3.org/1999/xlink" ns4:href="#h"/></g></mask><mask id="r" mask-type="alpha"><g filter="url(#i)"><path fill="#fff" d="M0 0h500v500H0z" opacity="0"/><use xmlns:ns5="http://www.w3.org/1999/xlink" ns5:href="#j"/></g></mask><g id="b" style="display:none"><path/><path fill-opacity="0"/></g><g id="d" style="display:none"><path/><path fill-opacity="0"/></g><g id="f" style="display:none"><path/><path fill-opacity="0"/></g><g id="h" style="display:none"><path/><path fill-opacity="0"/></g><g id="j" style="display:none"><path/><path fill-opacity="0"/></g></defs><g clip-path="url(#k)"><g clip-path="url(#l)" opacity="0" style="display:block"><path fill="#121330" d="M88.542-208.334H-88.542c-20.101 0-36.459 16.357-36.459 36.458v52.084c0 8.626 6.999 15.625 15.625 15.625 8.626 0 15.626-6.999 15.626-15.625v-52.084a5.217 5.217 0 0 1 5.208-5.208H88.542a5.217 5.217 0 0 1 5.208 5.208v343.752a5.217 5.217 0 0 1-5.208 5.208H36.459c-8.626 0-15.626 6.999-15.626 15.625 0 8.626 7 15.625 15.626 15.625h52.083c20.101 0 36.459-16.357 36.459-36.458v-343.752c0-20.101-16.358-36.458-36.459-36.458z" opacity="1" style="display:block" transform="translate(291.664 250.005)"/><g clip-path="url(#m)" opacity="1" style="display:block"><path fill="#121330" d="M29.843 5.819 14.828 31.72c-2.816 4.879-7.884 7.507-13.139 7.507-2.44 0-5.068-.562-7.508-2.064l-12.951-7.508c-14.451-8.258-19.331-26.652-11.073-40.917l7.507-12.95c5.632-9.759 15.766-15.015 26.089-15.015 5.068 0 10.323 1.126 15.015 3.942C33.22-27.027 38.101-8.633 29.843 5.819z" opacity="1" style="display:block" transform="translate(299.483 148.275)"/><path fill="none" stroke="#121330" stroke-linecap="round" stroke-linejoin="round" stroke-width="31.3" d="M15.628-57.29h-78.131l-46.869 52.084M109.372 57.29H57.295v-72.913" opacity="1" style="display:block" transform="translate(229.167 260.417)"/><g opacity="0" style="display:block"><path fill="#121330" d="m286.982 229.165-45.306 78.147-5.426 9.358s-16.25 13.08-43.125.207c-25.566-12.246-23.842-31.097-23.842-31.097l5.064-8.564 47.366-80.113" opacity="1"/></g><path fill="#121330" d="M112.967-98.552 67.661-20.405l-5.426 9.358s-16.25 13.08-43.125.207C-6.456-23.086-4.732-41.937-4.732-41.937l5.064-8.564 47.366-80.113" opacity="1" style="display:block" transform="translate(174.015 327.717)"/><path fill="none" stroke="#121330" stroke-linecap="round" stroke-linejoin="round" stroke-width="31.3" d="M41.583-23.917s10.25 4.499 15.712 8.294c0-23.012-18.655-41.667-41.667-41.667l-9.545 2.623" opacity="1" style="display:block" transform="translate(229.167 260.417)"/><path fill="none" stroke="#121330" stroke-linecap="round" stroke-linejoin="round" stroke-width="36.13" d="m-64.5 43.5-35.75 60.25-71 15.75" opacity="1" style="display:block" transform="translate(250 250)"/><path fill="none" stroke="#121330" stroke-linecap="round" stroke-linejoin="round" stroke-width="36.13" d="m-40.784 58.804 39.866 60.21.202 71.682" opacity="1" style="display:block" transform="translate(249.999 250)"/></g><g clip-path="url(#n)" style="display:none"><path style="display:none"/><path fill="none" style="display:none"/><path fill="none" style="display:none"/><path style="display:none"/><path style="display:none"/><path fill="none" style="display:none"/><path fill="none" style="display:none"/><path fill="none" style="display:none"/></g><g style="display:none"><path/><path/><path/></g></g><g clip-path="url(#o)" opacity="0" style="display:block"><path fill="none" style="display:none"/><g fill="#121330" opacity="1" style="display:block"><path d="M380.206 41.671H203.122c-20.101 0-36.459 16.357-36.459 36.458v52.084c0 8.626 6.999 15.625 15.625 15.625 8.626 0 15.626-6.999 15.626-15.625V78.129a5.217 5.217 0 0 1 5.208-5.208h177.084a5.217 5.217 0 0 1 5.208 5.208v343.752a5.217 5.217 0 0 1-5.208 5.208h-52.083c-8.626 0-15.626 6.999-15.626 15.625 0 8.626 7 15.625 15.626 15.625h52.083c20.101 0 36.459-16.357 36.459-36.458V78.129c0-20.101-16.358-36.458-36.459-36.458z" opacity="1"/><path d="M293.664 185.438c2.44 1.502 5.068 2.064 7.508 2.064 5.255 0 10.323-2.628 13.139-7.507l15.015-25.901c8.258-14.453 3.378-32.846-11.075-41.104-4.692-2.816-9.947-3.942-15.015-3.942-10.323 0-20.457 5.256-26.089 15.015l-7.507 12.95c-8.258 14.265-3.378 32.659 11.073 40.917l12.951 7.508zm60.5 132.265c0-8.626-6.999-15.625-15.625-15.625h-36.458v-57.282c0-31.596-25.696-57.292-57.292-57.292h-78.126a15.653 15.653 0 0 0-11.617 5.168l-46.875 52.084c-5.778 6.419-5.249 16.296 1.16 22.074 6.449 5.788 16.316 5.26 22.074-1.159l42.216-46.916h35.29l-70.578 119.373-62.917 13.958c-10 2.084-16.041 11.875-13.958 21.667 1.876 8.541 9.375 14.167 17.708 14.167 1.458 0 2.708 0 3.958-.417l70.834-15.625c5-1.041 9.167-4.167 11.667-8.333l27.5-46.668 37.709 58.126-.001 65.204c.207 10 8.977 18.125 18.978 18.125h.208c10.001-.208 17.48-8.335 17.273-18.543v-70.203c-.209-3.334-1.041-6.875-3.125-9.792L236.25 316.67l34.58-59.645v60.678c0 8.626 6.999 15.625 15.625 15.625h52.084c8.626 0 15.625-6.999 15.625-15.625z" opacity="1"/></g><g style="display:none"><path/><path/><path/></g><g clip-path="url(#p)" style="display:none"><path style="display:none"/><path fill="none" style="display:none"/><path fill="none" style="display:none"/><path style="display:none"/><path style="display:none"/><path fill="none" style="display:none"/><path fill="none" style="display:none"/><path fill="none" style="display:none"/></g><g clip-path="url(#q)" mask="url(#r)" style="display:none"><path style="display:none"/><path fill="none" style="display:none"/><path fill="none" style="display:none"/><path style="display:none"/><path style="display:none"/><path fill="none" style="display:none"/><path fill="none" style="display:none"/><path fill="none" style="display:none"/></g><g clip-path="url(#s)" style="display:none"><path style="display:none"/><path fill="none" style="display:none"/><path fill="none" style="display:none"/><path style="display:none"/><path style="display:none"/><path fill="none" style="display:none"/><path fill="none" style="display:none"/><path fill="none" style="display:none"/></g><g clip-path="url(#t)" mask="url(#u)" style="display:none"><path style="display:none"/><path fill="none" style="display:none"/><path fill="none" style="display:none"/><path style="display:none"/><path style="display:none"/><path fill="none" style="display:none"/><path fill="none" style="display:none"/><path fill="none" style="display:none"/></g></g><g clip-path="url(#v)" style="display:block"><path fill="none" style="display:none"/><g fill="#121330" style="display:block"><path d="M380.206 41.671H203.122c-20.101 0-36.459 16.357-36.459 36.458v52.084c0 8.626 6.999 15.625 15.625 15.625 8.626 0 15.626-6.999 15.626-15.625V78.129a5.217 5.217 0 0 1 5.208-5.208h177.084a5.217 5.217 0 0 1 5.208 5.208v343.752a5.217 5.217 0 0 1-5.208 5.208h-52.083c-8.626 0-15.626 6.999-15.626 15.625 0 8.626 7 15.625 15.626 15.625h52.083c20.101 0 36.459-16.357 36.459-36.458V78.129c0-20.101-16.358-36.458-36.459-36.458z"/><path d="M293.664 185.438c2.44 1.502 5.068 2.064 7.508 2.064 5.255 0 10.323-2.628 13.139-7.507l15.015-25.901c8.258-14.453 3.378-32.846-11.075-41.104-4.692-2.816-9.947-3.942-15.015-3.942-10.323 0-20.457 5.256-26.089 15.015l-7.507 12.95c-8.258 14.265-3.378 32.659 11.073 40.917l12.951 7.508zm60.5 132.265c0-8.626-6.999-15.625-15.625-15.625h-36.458v-57.282c0-31.596-25.696-57.292-57.292-57.292h-78.126a15.653 15.653 0 0 0-11.617 5.168l-46.875 52.084c-5.778 6.419-5.249 16.296 1.16 22.074 6.449 5.788 16.316 5.26 22.074-1.159l42.216-46.916h35.29l-70.578 119.373-62.917 13.958c-10 2.084-16.041 11.875-13.958 21.667 1.876 8.541 9.375 14.167 17.708 14.167 1.458 0 2.708 0 3.958-.417l70.834-15.625c5-1.041 9.167-4.167 11.667-8.333l27.5-46.668 37.709 58.126-.001 65.204c.207 10 8.977 18.125 18.978 18.125h.208c10.001-.208 17.48-8.335 17.273-18.543v-70.203c-.209-3.334-1.041-6.875-3.125-9.792L236.25 316.67l34.58-59.645v60.678c0 8.626 6.999 15.625 15.625 15.625h52.084c8.626 0 15.625-6.999 15.625-15.625z"/></g><g style="display:none"><path/><path/><path/></g><g clip-path="url(#w)" style="display:none"><path style="display:none"/><path fill="none" style="display:none"/><path fill="none" style="display:none"/><path style="display:none"/><path style="display:none"/><path fill="none" style="display:none"/><path fill="none" style="display:none"/><path fill="none" style="display:none"/></g><g clip-path="url(#x)" mask="url(#y)" style="display:none"><path style="display:none"/><path fill="none" style="display:none"/><path fill="none" style="display:none"/><path style="display:none"/><path style="display:none"/><path fill="none" style="display:none"/><path fill="none" style="display:none"/><path fill="none" style="display:none"/></g><g clip-path="url(#z)" style="display:none"><path style="display:none"/><path fill="none" style="display:none"/><path fill="none" style="display:none"/><path style="display:none"/><path style="display:none"/><path fill="none" style="display:none"/><path fill="none" style="display:none"/><path fill="none" style="display:none"/></g><g clip-path="url(#A)" mask="url(#B)" style="display:none"><path style="display:none"/><path fill="none" style="display:none"/><path fill="none" style="display:none"/><path style="display:none"/><path style="display:none"/><path fill="none" style="display:none"/><path fill="none" style="display:none"/><path fill="none" style="display:none"/></g></g><g clip-path="url(#C)" opacity="0" style="display:block"><path fill="none" style="display:none"/><g style="display:none"><path/><path/><path/></g><g clip-path="url(#D)" style="display:none"><path style="display:none"/><path fill="none" style="display:none"/><path fill="none" style="display:none"/><path style="display:none"/><path style="display:none"/><path fill="none" style="display:none"/><path fill="none" style="display:none"/><path fill="none" style="display:none"/></g><g clip-path="url(#E)" mask="url(#F)" style="display:none"><path style="display:none"/><path fill="none" style="display:none"/><path fill="none" style="display:none"/><path style="display:none"/><path style="display:none"/><path fill="none" style="display:none"/><path fill="none" style="display:none"/><path fill="none" style="display:none"/></g><g clip-path="url(#G)" style="display:none"><path style="display:none"/><path fill="none" style="display:none"/><path fill="none" style="display:none"/><path style="display:none"/><path style="display:none"/><path fill="none" style="display:none"/><path fill="none" style="display:none"/><path fill="none" style="display:none"/></g></g><path style="display:none"/></g></svg>