<svg xmlns="http://www.w3.org/2000/svg" width="500" height="500" style="width:100%;height:100%;transform:translate3d(0,0,0);content-visibility:visible" viewBox="0 0 500 500"><defs><clipPath id="b"><path d="M0 0h500v500H0z"/></clipPath><clipPath id="d"><path d="M0 0h500v500H0z"/></clipPath><clipPath id="c"><path d="M0 0h500v500H0z"/></clipPath><mask id="e" mask-type="alpha"><use xmlns:ns1="http://www.w3.org/1999/xlink" ns1:href="#a"/></mask><g id="a" class="primary design" style="display:none"><path fill-opacity="0" stroke-linecap="round" stroke-linejoin="round"/><path/></g></defs><g clip-path="url(#b)"><g clip-path="url(#c)" style="display:block"><g fill="#121330" class="primary design" style="display:block"><path d="M401.046 437.529H98.962c-20.117 0-36.484-16.367-36.484-36.484V98.961c0-20.117 16.367-36.484 36.484-36.484h302.084c20.117 0 36.484 16.367 36.484 36.484v302.084c0 20.117-16.367 36.484-36.484 36.484zM98.962 93.777a5.19 5.19 0 0 0-5.184 5.184v302.084a5.19 5.19 0 0 0 5.184 5.184h302.084a5.19 5.19 0 0 0 5.184-5.184V98.961a5.19 5.19 0 0 0-5.184-5.184H98.962z"/><path d="M421.88 265.653H78.128c-8.644 0-15.65-7.007-15.65-15.65s7.006-15.65 15.65-15.65H421.88c8.644 0 15.65 7.007 15.65 15.65s-7.006 15.65-15.65 15.65z"/></g><g fill="none" class="primary design" style="display:none"><path/><path/><path/><path/><path/></g><g class="primary design" style="display:none"><path/><path/></g></g><g clip-path="url(#d)" opacity="0" style="display:block"><g class="primary design" style="display:none"><path/><path/></g><g fill="none" class="primary design" mask="url(#e)" style="display:none"><path/><path/><path/><path/></g><path fill="none" class="primary design" style="display:none"/></g><g class="com" style="display:none"><path/><path/><path/><path/><path/><path/><path/><path/><path/><path/><path/><path/></g></g></svg>