<svg xmlns="http://www.w3.org/2000/svg" width="500" height="500" style="width:100%;height:100%;transform:translate3d(0,0,0);content-visibility:visible" viewBox="0 0 500 500"><defs><clipPath id="a"><path d="M0 0h500v500H0z"/></clipPath><clipPath id="c"><path d="M0 0h500v500H0z"/></clipPath><clipPath id="b"><path d="M0 0h500v500H0z"/></clipPath></defs><g clip-path="url(#a)"><g clip-path="url(#b)" style="display:block"><path fill="none" class="primary design" style="display:none"/><path fill="none" class="primary design" style="display:none"/><path fill="#121330" d="M192.707 52.06h-26.018v-182.269c0-20.117-16.366-36.483-36.483-36.483H-130.21c-20.117 0-36.484 16.366-36.484 36.483V52.06h-26.017c-8.644 0-15.65 7.007-15.65 15.65v41.667c0 31.604 25.713 57.316 57.317 57.316H151.04c31.604 0 57.317-25.712 57.317-57.316V67.71c0-8.643-7.006-15.65-15.65-15.65zm-328.101-182.269a5.19 5.19 0 0 1 5.184-5.183h260.416a5.189 5.189 0 0 1 5.183 5.183V52.06H67.7c-2.838 0-5.621.772-8.054 2.232L37.333 67.686h-74.662l-22.336-13.397a15.656 15.656 0 0 0-8.05-2.229h-67.679v-182.269zm312.451 239.586c0 14.346-11.671 26.017-26.017 26.017h-302.084c-14.346 0-26.017-11.671-26.017-26.017V83.36h105.013l22.336 13.396a15.656 15.656 0 0 0 8.05 2.229h83.331c2.838 0 5.621-.771 8.055-2.231L72.037 83.36h105.02v26.017z" class="primary design" style="display:block" transform="translate(250 250)"/><path class="primary design" style="display:none"/></g><g clip-path="url(#c)" opacity="0" style="display:block"><path fill="none" class="primary design" style="display:none"/><path fill="none" class="primary design" style="display:none"/><path class="primary design" style="display:none"/></g><g class="com" style="display:none"><path/><path/><path/><path/><path/><path/><path/><path/><path/><path/><path/><path/></g></g></svg>