<svg xmlns="http://www.w3.org/2000/svg" width="500" height="500" style="width:100%;height:100%;transform:translate3d(0,0,0);content-visibility:visible" viewBox="0 0 500 500"><defs><clipPath id="a"><path d="M0 0h500v500H0z"/></clipPath><clipPath id="c"><path d="M0 0h500v500H0z"/></clipPath><clipPath id="b"><path d="M0 0h500v500H0z"/></clipPath></defs><g clip-path="url(#a)"><g clip-path="url(#b)" style="display:block"><path fill="none" class="primary design" style="display:none"/><g fill="none" class="primary design" style="display:none"><path/><path/></g><path fill="none" class="primary design" style="display:none"/><path fill="#121330" d="M171.879-166.691h-343.752c-20.117 0-36.483 16.367-36.483 36.484v260.418c0 8.849 3.168 16.969 8.427 23.293.266.334.547.658.843.972 6.686 7.491 16.406 12.218 27.213 12.218H76.963c.047 0 .093.004.14.004.044 0 .086-.004.13-.004h94.646c20.117 0 36.483-16.366 36.483-36.483v-260.418c0-20.117-16.366-36.484-36.483-36.484zm-343.752 31.3h343.752a5.19 5.19 0 0 1 5.183 5.184V97.541L107.869-13.482a15.647 15.647 0 0 0-13.254-7.372h-.027a15.648 15.648 0 0 0-13.253 7.326L37.36 56.495-44.371-76.523a15.65 15.65 0 0 0-13.334-7.457h-.009a15.65 15.65 0 0 0-13.334 7.471L-177.056 96.435v-226.642a5.19 5.19 0 0 1 5.183-5.184zM85.839 135.394 55.638 86.243l38.899-61.94 69.235 111.091H85.839zm-36.736 0h-213.327L-57.689-38.41 49.103 135.394z" class="primary design" style="display:block" transform="translate(250 250)"/><path class="primary design" style="display:none"/></g><g clip-path="url(#c)" opacity="0" style="display:block"><path fill="none" class="primary design" style="display:none"/><g fill="none" class="primary design" style="display:none"><path/><path/></g><path class="primary design" style="display:none"/><g class="primary design" style="display:none"><path/><path fill="none"/></g></g><g class="com" style="display:none"><path/><path/><path/><path/><path/><path/><path/><path/><path/><path/><path/><path/></g></g></svg>