<svg xmlns="http://www.w3.org/2000/svg" width="500" height="500" style="width:100%;height:100%;transform:translate3d(0,0,0);content-visibility:visible" viewBox="0 0 500 500"><defs><clipPath id="a"><path d="M0 0h500v500H0z"/></clipPath><clipPath id="c"><path d="M0 0h500v500H0z"/></clipPath><clipPath id="b"><path d="M0 0h500v500H0z"/></clipPath></defs><g clip-path="url(#a)"><g clip-path="url(#b)" style="display:block"><g class="primary design" style="display:none"><path fill="none"/><path/></g><g class="primary design" style="display:none"><path fill="none"/><path/></g><g class="primary design" style="display:none"><path/><path fill="none"/></g><g class="primary design" style="display:none"><path/><path fill="none"/></g><g class="primary design" style="display:none"><path/><path fill="none"/></g><g class="primary design" style="display:block"><path fill="none" stroke="#121330" stroke-width="41.66" d="M-4957.497-4957.498"/><path fill="#121330" d="M250.003 125.022h16.664c2.291 0 4.583-.417 6.457-1.25 6.04-2.5 10.207-8.54 10.207-15.414V75.03c0-18.33-14.998-33.328-33.328-33.328-18.33 0-33.328 14.998-33.328 33.328v16.664c0 18.33 14.998 33.328 33.328 33.328zm171.847 20.83H78.155c-8.748 0-15.622 7.082-15.622 15.622s6.874 15.623 15.622 15.623h93.735c11.457 0 20.83 9.373 20.83 20.83v242.045c0 9.998 8.124 18.122 18.123 18.122 9.998 0 18.122-8.124 18.122-18.122v-127.48c0-11.457 9.373-20.83 20.83-20.83 11.456 0 20.83 9.373 20.83 20.83v127.48c0 9.998 8.123 18.33 18.33 18.33 10.207 0 18.33-8.124 18.33-18.33V197.927c0-11.457 9.374-20.83 20.83-20.83h93.735c8.749 0 15.623-7.082 15.623-15.623 0-8.54-6.874-15.622-15.623-15.622z"/></g><g class="primary design" style="display:none"><path fill="none"/><path/><path/></g></g><g clip-path="url(#c)" opacity="0" style="display:block"><g class="primary design" style="display:none"><path fill="none"/><path/></g><g class="primary design" style="display:none"><path fill="none"/><path/></g><g class="primary design" style="display:none"><path/><path fill="none"/></g><g class="primary design" style="display:none"><path/><path fill="none"/></g><g class="primary design" style="display:none"><path/><path fill="none"/></g><g class="primary design" style="display:none"><path fill="none"/><path/><path/></g></g><g class="com" style="display:none"><path/><path/><path/><path/><path/><path/><path/><path/><path/><path/><path/><path/></g></g></svg>