<svg xmlns="http://www.w3.org/2000/svg" width="500" height="500" style="width:100%;height:100%;transform:translate3d(0,0,0);content-visibility:visible" viewBox="0 0 500 500"><defs><clipPath id="a"><path d="M0 0h500v500H0z"/></clipPath><clipPath id="c"><path d="M0 0h500v500H0z"/></clipPath><clipPath id="b"><path d="M0 0h500v500H0z"/></clipPath></defs><g clip-path="url(#a)"><g clip-path="url(#b)" style="display:block"><g fill="none" class="primary design" style="display:none"><path/><path/><path/></g><g fill="none" class="primary design" style="display:none"><path/><path/><path/></g><path fill="none" class="primary design" style="display:none"/><path fill="none" class="primary design" style="display:none"/><path fill="none" class="primary design" style="display:none"/><g fill="#121330" class="primary design" style="display:block"><path d="m421.913 407.097-343.75-.868c-8.639-.002-15.668 6.967-15.69 15.61-.021 8.643 6.967 15.668 15.611 15.69l343.749.868h.04c8.624 0 15.628-6.981 15.65-15.61.021-8.643-6.967-15.668-15.61-15.69zm-.04-63.368H78.123c-8.644 0-15.65 7.007-15.65 15.65s7.006 15.65 15.65 15.65h343.75c8.644 0 15.65-7.007 15.65-15.65s-7.006-15.65-15.65-15.65zM249.998 124.973c-34.477 0-62.525 28.048-62.525 62.525 0 34.477 28.048 62.525 62.525 62.525 34.477 0 62.525-28.048 62.525-62.525 0-34.477-28.048-62.525-62.525-62.525zm0 93.75c-17.218 0-31.225-14.007-31.225-31.225 0-17.217 14.007-31.225 31.225-31.225 17.218 0 31.225 14.008 31.225 31.225 0 17.218-14.007 31.225-31.225 31.225z"/><path d="M421.873 62.473h-31.25l-.01.001h-281.23l-.01-.001h-31.25c-8.644 0-15.65 7.007-15.65 15.65v218.75c0 8.643 7.006 15.65 15.65 15.65h343.75c8.644 0 15.65-7.007 15.65-15.65V78.123c0-8.643-7.006-15.65-15.65-15.65zm-298.425 218.75c-4.004-14.35-15.325-25.67-29.675-29.675v-129.22c13.289-4.719 23.836-15.266 28.555-28.555h254.22c4.004 14.35 15.325 25.671 29.675 29.675v128.1c-14.35 4.004-25.671 15.325-29.675 29.675h-253.1z"/></g><g class="primary design" style="display:none"><path/><path/><path/><path/></g></g><g clip-path="url(#c)" opacity="0" style="display:block"><g fill="none" class="primary design" style="display:none"><path/><path/><path/></g><path fill="none" class="primary design" style="display:none"/><path fill="none" class="primary design" style="display:none"/><g class="primary design" style="display:none"><path/><path/><path/><path/></g></g><g class="com" style="display:none"><path/><path/><path/><path/><path/><path/><path/><path/><path/><path/><path/><path/></g></g></svg>