<svg xmlns="http://www.w3.org/2000/svg" width="500" height="500" style="width:100%;height:100%;transform:translate3d(0,0,0);content-visibility:visible" viewBox="0 0 500 500"><defs><clipPath id="a"><path d="M0 0h500v500H0z"/></clipPath><clipPath id="c"><path d="M0 0h500v500H0z"/></clipPath><clipPath id="b"><path d="M0 0h500v500H0z"/></clipPath></defs><g clip-path="url(#a)"><g clip-path="url(#b)" style="display:block"><path fill="none" class="primary design" style="display:none"/><path fill="#121330" d="M171.864 187.525a15.65 15.65 0 0 1-14.597-10.034l-16.128-41.932c-19.198-49.914-68.028-83.45-121.507-83.45L.029 52.11v58.101a15.65 15.65 0 0 1-26.136 11.617L-182.358-19.214a15.65 15.65 0 0 1 0-23.235L-26.107-183.49A15.65 15.65 0 0 1 .029-171.873v57.263h5.176c100.53 0 182.318 81.788 182.318 182.318v104.165a15.65 15.65 0 0 1-15.659 15.652zM19.631 20.809c32.785 0 64.399 9.81 91.423 28.371 18.261 12.542 33.546 28.474 45.169 46.929V67.708c0-83.271-67.747-151.018-151.018-151.018h-20.826c-8.644 0-15.65-7.007-15.65-15.65v-37.703L-148.516-30.831-31.271 75.002v-38.54c0-8.643 7.006-15.65 15.649-15.65l35.253-.003z" class="primary design" style="display:block" transform="translate(250 250)"/><path class="primary design" style="display:none"/></g><g clip-path="url(#c)" opacity="0" style="display:block"><path fill="none" class="primary design" style="display:none"/><path class="primary design" style="display:none"/></g><g class="com" style="display:none"><path/><path/><path/><path/><path/><path/><path/><path/><path/><path/><path/><path/></g></g></svg>