<svg xmlns="http://www.w3.org/2000/svg" width="500" height="500" style="width:100%;height:100%;transform:translate3d(0,0,0);content-visibility:visible" viewBox="0 0 500 500"><defs><clipPath id="a"><path d="M0 0h500v500H0z"/></clipPath><clipPath id="d"><path d="M0 0h500v500H0z"/></clipPath><clipPath id="c"><path d="M0 0h500v500H0z"/></clipPath><clipPath id="b"><path d="M0 0h500v500H0z"/></clipPath></defs><g clip-path="url(#a)"><g clip-path="url(#b)" style="display:block"><g fill="none" class="primary design" style="display:none"><path/><path/><path/></g><g fill="none" class="primary design" style="display:none"><path/><path/><path/></g><g fill="none" class="primary design" style="display:none"><path/><path/><path/></g><path fill="#121330" d="M125.003 187.527c29.074 0 53.577-19.947 60.542-46.875H421.44c8.644 0 15.65-7.007 15.65-15.65s-7.006-15.65-15.65-15.65H185.545c-6.965-26.928-31.468-46.875-60.542-46.875-34.477 0-62.525 28.048-62.525 62.525 0 34.477 28.048 62.525 62.525 62.525zm0-93.75c17.218 0 31.225 14.008 31.225 31.225 0 17.218-14.007 31.225-31.225 31.225-17.218 0-31.224-14.007-31.224-31.225 0-17.217 14.006-31.225 31.224-31.225zm296.432 266.879H185.54c-6.965-26.928-31.468-46.875-60.542-46.875-34.477 0-62.525 28.048-62.525 62.525 0 34.477 28.048 62.525 62.525 62.525 29.074 0 53.577-19.947 60.542-46.875h235.895c8.644 0 15.65-7.007 15.65-15.65s-7.006-15.65-15.65-15.65zm-296.437 46.875c-17.218 0-31.224-14.008-31.224-31.225 0-17.218 14.006-31.225 31.224-31.225s31.225 14.007 31.225 31.225c0 17.217-14.007 31.225-31.225 31.225zm296.874-173.183h-48.827c-6.965-26.928-31.467-46.875-60.541-46.875-29.074 0-53.577 19.947-60.542 46.875H79.876c-8.644 0-15.65 7.007-15.65 15.65s7.006 15.65 15.65 15.65h172.086c6.965 26.928 31.468 46.875 60.542 46.875s53.576-19.947 60.541-46.875h48.827c8.644 0 15.65-7.007 15.65-15.65s-7.006-15.65-15.65-15.65zm-109.368 46.875c-17.218 0-31.225-14.007-31.225-31.225 0-17.217 14.007-31.225 31.225-31.225 17.218 0 31.224 14.008 31.224 31.225 0 17.218-14.006 31.225-31.224 31.225z" class="primary design" style="display:block"/><g class="primary design" style="display:none"><path/><path/><path/></g></g><g clip-path="url(#c)" opacity="0" style="display:block"><g fill="none" class="primary design" style="display:none"><path/><path/><path/></g><g fill="none" class="primary design" style="display:none"><path/><path/><path/></g><g fill="none" class="primary design" style="display:none"><path/><path/><path/></g><path fill="#121330" d="M125.003 187.527c29.074 0 53.577-19.947 60.542-46.875H421.44c8.644 0 15.65-7.007 15.65-15.65s-7.006-15.65-15.65-15.65H185.545c-6.965-26.928-31.468-46.875-60.542-46.875-34.477 0-62.525 28.048-62.525 62.525 0 34.477 28.048 62.525 62.525 62.525zm0-93.75c17.218 0 31.225 14.008 31.225 31.225 0 17.218-14.007 31.225-31.225 31.225-17.218 0-31.224-14.007-31.224-31.225 0-17.217 14.006-31.225 31.224-31.225zm296.432 266.879H185.54c-6.965-26.928-31.468-46.875-60.542-46.875-34.477 0-62.525 28.048-62.525 62.525 0 34.477 28.048 62.525 62.525 62.525 29.074 0 53.577-19.947 60.542-46.875h235.895c8.644 0 15.65-7.007 15.65-15.65s-7.006-15.65-15.65-15.65zm-296.437 46.875c-17.218 0-31.224-14.008-31.224-31.225 0-17.218 14.006-31.225 31.224-31.225s31.225 14.007 31.225 31.225c0 17.217-14.007 31.225-31.225 31.225zm296.874-173.183h-48.827c-6.965-26.928-31.467-46.875-60.541-46.875-29.074 0-53.577 19.947-60.542 46.875H79.876c-8.644 0-15.65 7.007-15.65 15.65s7.006 15.65 15.65 15.65h172.086c6.965 26.928 31.468 46.875 60.542 46.875s53.576-19.947 60.541-46.875h48.827c8.644 0 15.65-7.007 15.65-15.65s-7.006-15.65-15.65-15.65zm-109.368 46.875c-17.218 0-31.225-14.007-31.225-31.225 0-17.217 14.007-31.225 31.225-31.225 17.218 0 31.224 14.008 31.224 31.225 0 17.218-14.006 31.225-31.224 31.225z" class="primary design" opacity="1" style="display:block"/><g class="primary design" style="display:none"><path/><path/><path/></g></g><g clip-path="url(#d)" opacity="0" style="display:block"><g fill="none" class="primary design" style="display:none"><path/><path/></g><g fill="none" class="primary design" style="display:none"><path/><path/><path/></g><g fill="none" class="primary design" style="display:none"><path/><path/></g><g class="primary design" style="display:none"><path/><path/><path/></g></g><g class="com" style="display:none"><path/><path/><path/><path/><path/><path/><path/><path/><path/><path/><path/><path/></g></g></svg>