<svg xmlns="http://www.w3.org/2000/svg" width="500" height="500" style="width:100%;height:100%;transform:translate3d(0,0,0);content-visibility:visible" viewBox="0 0 500 500"><defs><clipPath id="a"><path d="M0 0h500v500H0z"/></clipPath><clipPath id="c"><path d="M0 0h500v500H0z"/></clipPath><clipPath id="b"><path d="M0 0h500v500H0z"/></clipPath></defs><g clip-path="url(#a)"><g clip-path="url(#b)" style="display:block"><path fill="none" class="primary design" style="display:none"/><path fill="none" class="primary design" style="display:none"/><path fill="#121330" d="M442.707 83.31c-8.644 0-15.65 7.007-15.65 15.65v112.87c0 8.643 7.006 15.65 15.65 15.65s15.65-7.007 15.65-15.65V98.96c0-8.643-7.006-15.65-15.65-15.65zm-61.795 0h-99.999c-18.157 0-33.921 12.923-37.483 30.729l-13.542 67.72c-2.254 11.273.634 22.838 7.923 31.729 7.289 8.89 18.064 13.99 29.56 13.99h19.608v25.016c.001 12.917 5.032 25.06 14.166 34.192 9.134 9.131 21.273 14.158 34.187 14.158h.009a15.648 15.648 0 0 0 13.29-7.391l45.582-73.364a15.654 15.654 0 0 0 2.358-8.261l-.009-112.869c-.001-8.643-7.007-15.649-15.65-15.649zM327.74 267.77a17.054 17.054 0 0 1-4.464-3.219 16.94 16.94 0 0 1-4.996-12.059l-.001-40.665c-.001-8.643-7.007-15.649-15.651-15.649h-35.257c-2.852 0-4.579-1.588-5.355-2.534-.775-.946-1.994-2.952-1.435-5.748l13.542-67.719a6.944 6.944 0 0 1 6.79-5.567h84.35l.007 92.754-37.53 60.406zm-270.451 4.755c-8.644 0-15.65 7.007-15.65 15.65v112.87c0 8.643 7.006 15.65 15.65 15.65s15.65-7.007 15.65-15.65v-112.87c0-8.643-7.006-15.65-15.65-15.65zm175.337.003h-19.609l-.001-25.015c0-12.917-5.031-25.061-14.166-34.194-9.133-9.131-21.272-14.158-34.186-14.158h-.01a15.648 15.648 0 0 0-13.29 7.391l-45.582 73.364a15.654 15.654 0 0 0-2.358 8.261l.009 112.869c.001 8.643 7.008 15.649 15.651 15.649h100c18.157 0 33.92-12.923 37.482-30.729l13.54-67.719c2.255-11.273-.632-22.837-7.921-31.728-7.288-8.892-18.062-13.991-29.559-13.991zm6.788 39.581-13.54 67.72a6.944 6.944 0 0 1-6.79 5.566h-84.352l-.007-92.754 37.53-60.406a17.06 17.06 0 0 1 4.465 3.219 16.94 16.94 0 0 1 4.995 12.06l.002 40.664c.001 8.643 7.008 15.65 15.651 15.65h35.258c2.851 0 4.578 1.588 5.354 2.534.775.946 1.994 2.951 1.434 5.747z" class="primary design" style="display:block"/><g class="primary design" style="display:none"><path/><path/><path/><path/></g></g><g clip-path="url(#c)" opacity="0" style="display:block"><path fill="none" class="primary design" style="display:none"/><path fill="none" class="primary design" style="display:none"/><g class="primary design" style="display:none"><path/><path/><path/><path/></g></g><g class="com" style="display:none"><path/><path/><path/><path/><path/><path/><path/><path/><path/><path/><path/><path/></g></g></svg>