<svg xmlns="http://www.w3.org/2000/svg" width="500" height="500" style="width:100%;height:100%;transform:translate3d(0,0,0);content-visibility:visible" viewBox="0 0 500 500"><defs><clipPath id="a"><path d="M0 0h500v500H0z"/></clipPath><clipPath id="d"><path d="M0 0h500v500H0z"/></clipPath><clipPath id="c"><path d="M0 0h500v500H0z"/></clipPath><clipPath id="b"><path d="M0 0h500v500H0z"/></clipPath></defs><g clip-path="url(#a)"><g fill="#121330" clip-path="url(#b)" opacity="0" style="display:block"><g class="primary design" opacity="1" style="display:block"><path d="M437.524 326.385v-34.724c0-11.506-9.328-20.834-20.833-20.834h-34.726v55.558h-55.551v-55.558H291.69c-11.506 0-20.833 9.328-20.833 20.834v34.724h-.003v55.559h.003v34.725c0 11.505 9.327 20.834 20.833 20.834h34.724v-55.559h55.551v55.559h34.726c11.505 0 20.833-9.329 20.833-20.834v-34.725h-55.55v-55.559h55.55z" opacity="1"/><path d="M270.854 326.385v-34.724c0-11.506 9.328-20.834 20.833-20.834h34.726v55.558h55.551v-55.558h34.724c11.506 0 20.833 9.328 20.833 20.834v34.724h.003v55.559h-.003v34.725c0 11.505-9.327 20.834-20.833 20.834h-34.724v-55.559h-55.551v55.559h-34.726c-11.505 0-20.833-9.329-20.833-20.834v-34.725h55.55v-55.559h-55.55z" opacity="0"/><path d="M270.854 381.945v34.724c0 11.506 9.328 20.834 20.833 20.834h34.726v-55.558h55.551v55.558h34.724c11.506 0 20.833-9.328 20.833-20.834v-34.724h.003v-55.559h-.003v-34.725c0-11.505-9.327-20.834-20.833-20.834h-34.724l-.108 166.559h-55.551l.108-166.559h-34.726c-11.505 0-20.833 9.329-20.833 20.834v34.725h55.55v55.559h-55.55z" opacity="0"/></g><g class="primary design" opacity="1" style="display:block"><path d="M327.261 62.83h-34.724c-11.506 0-20.834 9.328-20.834 20.833v34.726h55.558v55.551h-55.558v34.724c0 11.506 9.328 20.833 20.834 20.833h34.724v.003h55.559v-.003h34.725c11.505 0 20.834-9.327 20.834-20.833V173.94H382.82v-55.551h55.559V83.663c0-11.505-9.329-20.833-20.834-20.833H382.82v55.55h-55.559V62.83z" opacity="0"/><path d="M327.261 229.5h-34.724c-11.506 0-20.834-9.328-20.834-20.833v-34.726h55.558V118.39h-55.558V83.666c0-11.506 9.328-20.833 20.834-20.833h34.724v-.003h55.559v.003h34.725c11.505 0 20.834 9.327 20.834 20.833v34.724H382.82v55.551h55.559v34.726c0 11.505-9.329 20.833-20.834 20.833H382.82v-55.55h-55.559v55.55z" opacity="0"/><path d="M382.821 229.5h34.724c11.506 0 20.834-9.328 20.834-20.833v-34.726h-55.558V118.39h55.558V83.666c0-11.506-9.328-20.833-20.834-20.833h-34.724v-.003h-55.559v.003h-34.725c-11.505 0-20.834 9.327-20.834 20.833v34.724l166.559.108v55.551l-166.559-.108v34.726c0 11.505 9.329 20.833 20.834 20.833h34.725v-55.55h55.559v55.55z" opacity="1"/></g><g class="primary design" opacity="1" style="display:block"><path d="M173.947 437.5h34.724c11.506 0 20.834-9.328 20.834-20.833v-34.726h-55.558V326.39h55.558v-34.724c0-11.506-9.328-20.833-20.834-20.833h-34.724v-.003h-55.559v.003H83.663c-11.505 0-20.834 9.327-20.834 20.833v34.724h55.559v55.551H62.829v34.726c0 11.505 9.329 20.833 20.834 20.833h34.725v-55.55h55.559v55.55z" opacity="0"/><path d="M173.947 270.83h34.724c11.506 0 20.834 9.328 20.834 20.833v34.726h-55.558v55.551h55.558v34.724c0 11.506-9.328 20.833-20.834 20.833h-34.724v.003h-55.559v-.003H83.663c-11.505 0-20.834-9.327-20.834-20.833V381.94h55.559v-55.551H62.829v-34.726c0-11.505 9.329-20.833 20.834-20.833h34.725v55.55h55.559v-55.55z" opacity="0"/><path d="M118.387 270.83H83.663c-11.506 0-20.834 9.328-20.834 20.833v34.726h55.558v55.551H62.829v34.724c0 11.506 9.328 20.833 20.834 20.833h34.724v.003h55.559v-.003h34.725c11.505 0 20.834-9.327 20.834-20.833V381.94l-166.559-.108v-55.551l166.559.108v-34.726c0-11.505-9.329-20.833-20.834-20.833h-34.725l.013 55.425H118.4l-.013-55.425z" opacity="1"/></g><g class="primary design" opacity="1" style="display:block"><path d="M229.502 118.385V83.661c0-11.506-9.328-20.834-20.833-20.834h-34.726v55.558h-55.551V62.827H83.668c-11.506 0-20.833 9.328-20.833 20.834v34.724h-.003v55.559h.003v34.725c0 11.505 9.327 20.834 20.833 20.834h34.724v-55.559h55.551v55.559h34.726c11.505 0 20.833-9.329 20.833-20.834v-34.725h-55.55v-55.559h55.55z" opacity="0"/><path d="M62.832 118.385V83.661c0-11.506 9.328-20.834 20.833-20.834h34.726v55.558h55.551V62.827h34.724c11.506 0 20.833 9.328 20.833 20.834v34.724h.003v55.559h-.003v34.725c0 11.505-9.327 20.834-20.833 20.834h-34.724v-55.559h-55.551v55.559H83.665c-11.505 0-20.833-9.329-20.833-20.834v-34.725h55.55v-55.559h-55.55z" opacity="1"/><path d="M62.832 173.945v34.724c0 11.506 9.328 20.834 20.833 20.834h34.726v-55.558h55.551v55.558h34.724c11.506 0 20.833-9.328 20.833-20.834v-34.724h.003v-55.559h-.003V83.661c0-11.505-9.327-20.834-20.833-20.834h-34.724l-.108 166.559h-55.551l.108-166.559H83.665c-11.505 0-20.833 9.329-20.833 20.834v34.725h55.55v55.559h-55.55z" opacity="0"/></g></g><g clip-path="url(#c)" style="display:block"><g class="primary design" style="display:none"><path/><path/><path/></g><path fill="none" class="primary design" style="display:none"/><g class="primary design" style="display:none"><path/><path/><path/></g><path fill="none" class="primary design" style="display:none"/><g class="primary design" style="display:none"><path/><path/><path/></g><path fill="none" class="primary design" style="display:none"/><g class="primary design" style="display:none"><path/><path/><path/></g><path fill="#121330" d="M192.706 270.813h-93.75c-20.117 0-36.484 16.366-36.484 36.483v93.75c0 20.117 16.367 36.483 36.484 36.483h93.75c20.117 0 36.484-16.366 36.484-36.483v-93.75c0-20.117-16.367-36.483-36.484-36.483zm5.184 130.233a5.19 5.19 0 0 1-5.184 5.184h-93.75a5.19 5.19 0 0 1-5.184-5.184v-93.75a5.19 5.19 0 0 1 5.184-5.184h93.75a5.19 5.19 0 0 1 5.184 5.184v93.75zm-5.184-338.573h-93.75c-20.117 0-36.484 16.366-36.484 36.483v93.75c0 20.117 16.367 36.483 36.484 36.483h93.75c20.117 0 36.484-16.366 36.484-36.483v-93.75c0-20.117-16.367-36.483-36.484-36.483zm5.184 130.233a5.19 5.19 0 0 1-5.184 5.184h-93.75a5.19 5.19 0 0 1-5.184-5.184v-93.75a5.19 5.19 0 0 1 5.184-5.184h93.75a5.19 5.19 0 0 1 5.184 5.184v93.75zM401.041 62.473h-93.75c-20.117 0-36.484 16.367-36.484 36.484v93.75c0 20.117 16.367 36.484 36.484 36.484h93.75c20.117 0 36.484-16.367 36.484-36.484v-93.75c0-20.117-16.367-36.484-36.484-36.484zm5.183 130.234a5.19 5.19 0 0 1-5.183 5.184h-93.75a5.19 5.19 0 0 1-5.183-5.184v-93.75a5.19 5.19 0 0 1 5.183-5.184h93.75a5.19 5.19 0 0 1 5.183 5.184v93.75zm10.445 78.12h-34.726v55.558h-55.551v-55.558h-34.724c-11.506 0-20.833 9.328-20.833 20.834v34.724h-.003v55.559h.003v34.725c0 11.505 9.327 20.834 20.833 20.834h34.724v-55.559h55.551v55.559h34.726c11.505 0 20.833-9.329 20.833-20.834v-34.725h-55.55v-55.559h55.55v-34.724c0-11.506-9.328-20.834-20.833-20.834z" class="primary design" style="display:block"/><g class="primary design" style="display:none"><path/><path/><path/><path/></g></g><g clip-path="url(#d)" opacity="0" style="display:block"><g class="primary design" style="display:none"><path/><path/><path/></g><path fill="none" class="primary design" style="display:none"/><g class="primary design" style="display:none"><path/><path/><path/></g><path fill="none" class="primary design" style="display:none"/><g class="primary design" style="display:none"><path/><path/><path/></g><path fill="none" class="primary design" style="display:none"/><g class="primary design" style="display:none"><path/><path/><path/></g><g class="primary design" style="display:none"><path/><path/><path/><path/></g></g><g class="com" style="display:none"><path/><path/><path/><path/><path/><path/><path/><path/><path/><path/><path/><path/></g></g></svg>