<svg xmlns="http://www.w3.org/2000/svg" width="500" height="500" style="width:100%;height:100%;transform:translate3d(0,0,0);content-visibility:visible" viewBox="0 0 500 500"><defs><clipPath id="a"><path d="M0 0h500v500H0z"/></clipPath><clipPath id="c"><path d="M0 0h500v500H0z"/></clipPath><clipPath id="b"><path d="M0 0h500v500H0z"/></clipPath></defs><g clip-path="url(#a)"><g clip-path="url(#b)" style="display:block"><path fill="none" class="primary design" style="display:none"/><path fill="none" class="primary design" style="display:none"/><path fill="none" class="primary design" style="display:none"/><path fill="none" class="primary design" style="display:none"/><path fill="#121330" d="M442.712 83.31H57.294c-8.644 0-15.651 7.007-15.651 15.65v114.584c0 8.643 7.007 15.65 15.651 15.65h385.418c8.644 0 15.651-7.007 15.651-15.65V98.96c0-8.643-7.007-15.65-15.651-15.65zm-15.65 114.584H72.944V114.61h354.118v83.284zm15.65 72.917H57.294c-8.644 0-15.651 7.007-15.651 15.65v114.584c0 8.643 7.007 15.65 15.651 15.65h385.418c8.644 0 15.651-7.007 15.651-15.65V286.461c0-8.643-7.007-15.65-15.651-15.65zm-15.65 114.584H72.944v-83.284h354.118v83.284z" class="primary design" style="display:block"/><g class="primary design" style="display:none"><path/><path/></g></g><g clip-path="url(#c)" opacity="0" style="display:block"><path fill="none" class="primary design" style="display:none"/><path fill="none" class="primary design" style="display:none"/><g class="primary design" style="display:none"><path/><path/></g></g><g class="com" style="display:none"><path/><path/><path/><path/><path/><path/><path/><path/><path/><path/><path/><path/></g></g></svg>