<svg xmlns="http://www.w3.org/2000/svg" width="500" height="500" style="width:100%;height:100%;transform:translate3d(0,0,0);content-visibility:visible" viewBox="0 0 500 500"><defs><clipPath id="i"><path d="M0 0h500v500H0z"/></clipPath><clipPath id="s"><path d="M0 0h500v500H0z"/></clipPath><clipPath id="r"><path d="M0 0h500v500H0z"/></clipPath><clipPath id="o"><path d="M0 0h500v500H0z"/></clipPath><clipPath id="l"><path d="M0 0h500v500H0z"/></clipPath><clipPath id="k"><path d="M0 0h500v500H0z"/></clipPath><clipPath id="j"><path d="M0 0h500v500H0z"/></clipPath><filter id="a" width="100%" height="100%" x="0%" y="0%" filterUnits="objectBoundingBox"><feComponentTransfer in="SourceGraphic"><feFuncA tableValues="1.0 0.0" type="table"/></feComponentTransfer></filter><filter id="c" width="100%" height="100%" x="0%" y="0%" filterUnits="objectBoundingBox"><feComponentTransfer in="SourceGraphic"><feFuncA tableValues="1.0 0.0" type="table"/></feComponentTransfer></filter><filter id="e" width="100%" height="100%" x="0%" y="0%" filterUnits="objectBoundingBox"><feComponentTransfer in="SourceGraphic"><feFuncA tableValues="1.0 0.0" type="table"/></feComponentTransfer></filter><filter id="g" width="100%" height="100%" x="0%" y="0%" filterUnits="objectBoundingBox"><feComponentTransfer in="SourceGraphic"><feFuncA tableValues="1.0 0.0" type="table"/></feComponentTransfer></filter><path id="b" fill-opacity="0" stroke-linecap="round" stroke-linejoin="round" class="primary design" style="display:none"/><path id="d" fill-opacity="0" stroke-linecap="round" stroke-linejoin="round" class="primary design" style="display:none"/><path id="f" fill-opacity="0" stroke-linecap="round" stroke-linejoin="round" class="primary design" style="display:none"/><path id="h" fill-opacity="0" stroke-linecap="round" stroke-linejoin="round" class="primary design" style="display:none"/><mask id="q" mask-type="alpha"><g filter="url(#a)"><path fill="#fff" d="M0 0h500v500H0z" opacity="0"/><use xmlns:ns1="http://www.w3.org/1999/xlink" ns1:href="#b"/></g></mask><mask id="p" mask-type="alpha"><g filter="url(#c)"><path fill="#fff" d="M0 0h500v500H0z" opacity="0"/><use xmlns:ns2="http://www.w3.org/1999/xlink" ns2:href="#d"/></g></mask><mask id="n" mask-type="alpha"><g filter="url(#e)"><path fill="#fff" d="M0 0h500v500H0z" opacity="0"/><use xmlns:ns3="http://www.w3.org/1999/xlink" ns3:href="#f"/></g></mask><mask id="m" mask-type="alpha"><g filter="url(#g)"><path fill="#fff" d="M0 0h500v500H0z" opacity="0"/><use xmlns:ns4="http://www.w3.org/1999/xlink" ns4:href="#h"/></g></mask></defs><g clip-path="url(#i)"><g clip-path="url(#j)" opacity="0" style="display:block"><path fill="none" class="primary design" style="display:none"/><path fill="none" class="primary design" style="display:none"/><path fill="none" style="display:none"/><path fill="none" style="display:none"/><path fill="none" style="display:none"/><path fill="none" style="display:none"/><path style="display:none"/><path fill="#121330" d="M-8.566-5.095a.75.75 0 1 0-1.428.458A11.885 11.885 0 0 0-8.012-.915L-9.531.604a.749.749 0 1 0 1.061 1.06L-7.007.201c.857.834 1.844 1.53 2.935 2.034l-.653 2.437a.75.75 0 0 0 1.449.388l.616-2.299A9.614 9.614 0 0 0 0 3.134a9.64 9.64 0 0 0 2.41-.304l.597 2.23a.75.75 0 0 0 1.449-.388l-.624-2.329A10.559 10.559 0 0 0 7.007.202l1.462 1.462A.75.75 0 0 0 9.53.604L8.012-.914a11.89 11.89 0 0 0 1.982-3.723.75.75 0 1 0-1.428-.458C7.364-1.339 4.029 1.634 0 1.634c-4.029 0-7.364-2.973-8.566-6.729z" opacity="1" style="display:block" transform="translate(250.004 288.875) scale(20.83332)"/></g><g clip-path="url(#k)" opacity="0" style="display:block"><path fill="none" class="primary design" style="display:none"/><path fill="none" class="primary design" style="display:none"/><path fill="#121330" d="M.005 104.191c-57.452 0-104.193-46.74-104.193-104.192 0-57.452 46.741-104.192 104.193-104.192S104.197-57.453 104.197-.001c0 57.452-46.74 104.192-104.192 104.192zm0-177.084c-40.192 0-72.892 32.699-72.892 72.892s32.7 72.892 72.892 72.892c40.192 0 72.891-32.699 72.891-72.892S40.197-72.893.005-72.893z" class="primary design" opacity="1" style="display:block" transform="translate(250 250)"/><path fill="#121330" d="M.004 166.695c-47.439 0-92.674-16.537-130.814-47.823-35.23-28.9-62.505-69.421-76.801-114.099a15.645 15.645 0 0 1 0-9.539c14.295-44.68 41.57-85.203 76.801-114.103 38.139-31.285 83.374-47.82 130.814-47.82 47.439 0 92.672 16.535 130.809 47.819 35.228 28.897 62.503 69.421 76.805 114.103a15.651 15.651 0 0 1 0 9.541c-14.302 44.679-41.578 85.2-76.805 114.098C92.675 150.158 47.442 166.695.004 166.695zM-176.21.003C-152.564 68.172-89.75 135.395.004 135.395c89.741 0 152.558-67.222 176.213-135.392C152.564-68.167 89.748-135.39.004-135.39c-89.757 0-152.569 67.224-176.214 135.393z" class="primary design" opacity="1" style="display:block" transform="translate(250 250)"/><path fill="none" style="display:none"/><path fill="none" style="display:none"/><path fill="none" style="display:none"/><path fill="none" style="display:none"/><path style="display:none"/></g><g clip-path="url(#l)" opacity="0" style="display:block"><g mask="url(#m)" style="display:none"><path fill="none" class="primary design"/></g><g mask="url(#n)" style="display:none"><path fill="none" class="primary design"/></g><g class="primary design" style="display:none"><path/><path/><path/></g><g fill="#121330" class="primary design" opacity="1" style="display:block"><path d="M458.24 245.237c-11.03-34.5-29.9-66.54-54.28-92.68l-22.04 22.04c20.47 22.37 35.69 48.81 44.92 75.41-23.66 68.17-86.67 135.39-176.84 135.39-23.96 0-46-4.74-65.89-12.99l-23.43 23.43c27.93 13.74 58.17 20.86 89.32 20.86 47.47 0 92.8-16.53 131.1-47.8 35.46-28.96 62.85-69.48 77.14-114.12 1-3.11 1-6.44 0-9.54zm-327.8 92.55c-26.78-24.61-46.27-56.09-57.27-87.78 23.65-68.17 86.65-135.4 176.83-135.4 30.89 0 58.59 7.89 82.61 21.01 9.39 5.12 18.21 11.04 26.44 17.58.04.05.09.08.13.12l22.08-22.08c-.05-.04-.09-.08-.14-.11l-.02-.02a223.448 223.448 0 0 0-25.78-18.2c-32.22-19.45-68.11-29.6-105.32-29.6-47.46 0-92.8 16.53-131.09 47.8-35.47 28.96-62.87 69.49-77.15 114.13-.99 3.1-.99 6.43 0 9.54 12.85 40.13 36.29 76.95 66.68 105.01a225.246 225.246 0 0 0 24.4 19.62c.05.04.1.07.15.1l22.33-22.33c-.05-.03-.1-.06-.15-.1-8.82-5.76-17.07-12.24-24.73-19.29z" opacity="1"/><path d="m346.3 210.217-24.92 24.92c.99 4.8 1.52 9.77 1.52 14.86 0 40.2-32.7 72.89-72.9 72.89-5.09 0-10.06-.52-14.85-1.52l-24.92 24.92c12.26 5.09 25.7 7.9 39.77 7.9 57.46 0 104.2-46.74 104.2-104.19 0-14.08-2.81-27.52-7.9-39.78zm-161.22 72.93a72.596 72.596 0 0 1-7.97-33.15c0-40.19 32.7-72.89 72.89-72.89 11.93 0 23.2 2.88 33.15 7.97a73.817 73.817 0 0 1 24.14 19.88c.03.05.07.1.1.15l22.24-22.24a.71.71 0 0 0-.12-.13 104.454 104.454 0 0 0-23.48-20.54c-16.19-10.37-35.42-16.39-56.03-16.39-57.45 0-104.19 46.74-104.19 104.19 0 20.61 6.02 39.84 16.39 56.03 5.64 8.82 12.58 16.74 20.54 23.48.05.04.09.08.14.11l22.23-22.23c-.05-.03-.1-.07-.15-.1a73.817 73.817 0 0 1-19.88-24.14z" opacity="1"/><path d="M68.363 437.438a15.513 15.513 0 0 1-11.006-4.559c-6.079-6.078-6.079-15.933 0-22.011l343.75-343.751c6.078-6.079 15.934-6.079 22.012 0 6.079 6.078 6.079 15.934 0 22.012l-343.75 343.75a15.513 15.513 0 0 1-11.006 4.559z" opacity="1"/></g><path fill="none" class="primary design" style="display:none"/></g><g clip-path="url(#o)" opacity="0" style="display:block"><g mask="url(#p)" style="display:none"><path fill="none" class="primary design"/></g><g mask="url(#q)" style="display:none"><path fill="none" class="primary design"/></g><path fill="#121330" d="M.005 104.191c-57.452 0-104.193-46.74-104.193-104.192 0-57.452 46.741-104.192 104.193-104.192S104.197-57.453 104.197-.001c0 57.452-46.74 104.192-104.192 104.192zm0-177.084c-40.192 0-72.892 32.699-72.892 72.892s32.7 72.892 72.892 72.892c40.192 0 72.891-32.699 72.891-72.892S40.197-72.893.005-72.893z" class="primary design" opacity="1" style="display:block" transform="translate(250 250)"/><path fill="#121330" d="M.004 166.695c-47.439 0-92.674-16.537-130.814-47.823-35.23-28.9-62.505-69.421-76.801-114.099a15.645 15.645 0 0 1 0-9.539c14.295-44.68 41.57-85.203 76.801-114.103 38.139-31.285 83.374-47.82 130.814-47.82 47.439 0 92.672 16.535 130.809 47.819 35.228 28.897 62.503 69.421 76.805 114.103a15.651 15.651 0 0 1 0 9.541c-14.302 44.679-41.578 85.2-76.805 114.098C92.675 150.158 47.442 166.695.004 166.695zM-176.21.003C-152.564 68.172-89.75 135.395.004 135.395c89.741 0 152.558-67.222 176.213-135.392C152.564-68.167 89.748-135.39.004-135.39c-89.757 0-152.569 67.224-176.214 135.393z" class="primary design" opacity="1" style="display:block" transform="translate(250 250)"/><g class="primary design" style="display:none"><path/><path/><path/></g><path fill="none" class="primary design" style="display:none"/></g><g clip-path="url(#r)" style="display:block"><path fill="none" class="primary design" style="display:none"/><path fill="none" class="primary design" style="display:none"/><path fill="#121330" d="M.005 104.191c-57.452 0-104.193-46.74-104.193-104.192 0-57.452 46.741-104.192 104.193-104.192S104.197-57.453 104.197-.001c0 57.452-46.74 104.192-104.192 104.192zm0-177.084c-40.192 0-72.892 32.699-72.892 72.892s32.7 72.892 72.892 72.892c40.192 0 72.891-32.699 72.891-72.892S40.197-72.893.005-72.893z" class="primary design" style="display:block" transform="translate(250 250)"/><path fill="#121330" d="M.004 166.695c-47.439 0-92.674-16.537-130.814-47.823-35.23-28.9-62.505-69.421-76.801-114.099a15.645 15.645 0 0 1 0-9.539c14.295-44.68 41.57-85.203 76.801-114.103 38.139-31.285 83.374-47.82 130.814-47.82 47.439 0 92.672 16.535 130.809 47.819 35.228 28.897 62.503 69.421 76.805 114.103a15.651 15.651 0 0 1 0 9.541c-14.302 44.679-41.578 85.2-76.805 114.098C92.675 150.158 47.442 166.695.004 166.695zM-176.21.003C-152.564 68.172-89.75 135.395.004 135.395c89.741 0 152.558-67.222 176.213-135.392C152.564-68.167 89.748-135.39.004-135.39c-89.757 0-152.569 67.224-176.214 135.393z" class="primary design" style="display:block" transform="translate(250 250)"/><path class="primary design" style="display:none"/><path class="primary design" style="display:none"/></g><g clip-path="url(#s)" opacity="0" style="display:block"><path fill="none" class="primary design" style="display:none"/><path fill="none" class="primary design" style="display:none"/><path fill="none" class="primary design" style="display:none"/><path class="primary design" style="display:none"/><path class="primary design" style="display:none"/></g><path style="display:none"/></g></svg>