<svg xmlns="http://www.w3.org/2000/svg" width="500" height="500" style="width:100%;height:100%;transform:translate3d(0,0,0);content-visibility:visible" viewBox="0 0 500 500"><defs><clipPath id="a"><path d="M0 0h500v500H0z"/></clipPath><clipPath id="d"><path d="M0 0h500v500H0z"/></clipPath><clipPath id="c"><path d="M0 0h500v500H0z"/></clipPath><clipPath id="b"><path d="M0 0h500v500H0z"/></clipPath></defs><g clip-path="url(#a)"><g clip-path="url(#b)" opacity="0" style="display:block"><path fill="none" stroke="#121330" stroke-linecap="round" stroke-linejoin="round" stroke-width="31.3" d="M46.877 203.126v72.917c0 11.506-9.328 20.833-20.834 20.833h-72.917M-296.876 46.875v-72.917c0-11.506 9.328-20.833 20.834-20.833h72.917m0 343.751h-72.917c-11.506 0-20.834-9.327-20.834-20.833v-72.917M-46.875-46.875h72.917c11.506 0 20.833 9.327 20.833 20.833v72.917" class="primary design" opacity="1" style="display:block" transform="translate(375.003 125.002)"/><path fill="none" stroke="#121330" stroke-linecap="round" stroke-linejoin="round" stroke-width="31.3" d="m0-31.25-109.376 62.5L.033 93.731 109.376 31.25 0-31.25z" class="primary design" opacity="1" style="display:block" transform="translate(249.998 161.456)"/><path fill="none" stroke="#121330" stroke-linecap="round" stroke-linejoin="round" stroke-width="31.3" d="m-109.375 31.249-.001.001L.033 93.731 109.376 31.25s0 0 0 0" class="primary design" opacity="1" style="display:block" transform="translate(249.998 276.456)"/><path fill="none" stroke="#121330" stroke-linecap="round" stroke-linejoin="round" stroke-width="31.3" d="m0-31.25-109.376 62.5L.033 93.731 109.376 31.25 0-31.25z" class="primary design" opacity="1" style="display:block" transform="translate(249.998 161.456)"/><path fill="none" stroke="#121330" stroke-linecap="round" stroke-linejoin="round" stroke-width="31.3" d="M54.687-88.542V26.041" class="primary design" opacity="1" style="display:block" transform="translate(86.186 281.248)"/><path fill="none" stroke="#121330" stroke-linecap="round" stroke-linejoin="round" stroke-width="31.3" d="M54.687-88.542V26.041" class="primary design" opacity="1" style="display:block" transform="translate(195.186 343.248)"/><path fill="none" stroke="#121330" stroke-linecap="round" stroke-linejoin="round" stroke-width="31.3" d="M54.687-88.542V26.041" class="primary design" opacity="1" style="display:block" transform="translate(304.686 281.248)"/><g opacity="0" style="display:block"><path fill="none" stroke="#121330" stroke-linecap="round" stroke-linejoin="round" stroke-width="31.3" d="M322.873 151.206v114.583" class="primary design" opacity="1"/></g><path fill="none" class="primary design" style="display:none"/><path fill="none" class="primary design" style="display:none"/><path fill="none" class="primary design" style="display:none"/><path fill="none" class="primary design" style="display:none"/><path fill="none" class="primary design" style="display:none"/><path fill="none" class="primary design" style="display:none"/><path fill="none" class="primary design" style="display:none"/></g><g clip-path="url(#c)" style="display:block"><g class="primary design" style="display:none"><path/><path fill="none"/></g><g class="primary design" style="display:none"><path/><path fill="none"/></g><g class="primary design" style="display:none"><path/><path fill="none"/></g><g class="primary design" style="display:none"><path/><path fill="none"/></g><g class="primary design" style="display:none"><path/><path fill="none"/></g><g class="primary design" style="display:none"><path/><path fill="none"/></g><g class="primary design" style="display:none"><path/><path fill="none"/></g><g class="primary design" style="display:none"><path/><path fill="none"/></g><g class="primary design" style="display:none"><path/><path fill="none"/></g><g class="primary design" style="display:none"><path/><path fill="none"/></g><g class="primary design" style="display:none"><path/><path fill="none"/></g><g class="primary design" style="display:none"><path/><path fill="none"/></g><g class="primary design" style="display:none"><path/><path fill="none"/></g><g class="primary design" style="display:none"><path/><path fill="none"/></g><g class="primary design" style="display:none"><path/><path fill="none"/></g><g class="primary design" style="display:none"><path/><path fill="none"/></g><g class="primary design" style="display:none"><path/><path fill="none"/></g><g class="primary design" style="display:none"><path/><path fill="none"/></g><g class="primary design" style="display:none"><path/><path fill="none"/></g><g class="primary design" style="display:none"><path/><path fill="none"/></g><g class="primary design" style="display:none"><path/><path fill="none"/></g><g class="primary design" style="display:block"><path fill="none" stroke="#121330" stroke-width="2" d="M0 0"/><path fill="#121330" d="M401.047 437.529H328.13c-8.644 0-15.651-7.007-15.651-15.65s7.007-15.65 15.651-15.65h72.917a5.19 5.19 0 0 0 5.183-5.184v-72.916c0-8.643 7.006-15.65 15.65-15.65s15.651 7.007 15.651 15.65v72.916c0 20.117-16.367 36.484-36.484 36.484zM78.128 187.527c-8.644 0-15.65-7.007-15.65-15.65V98.961c0-20.117 16.367-36.484 36.484-36.484h72.916c8.644 0 15.65 7.007 15.65 15.65s-7.006 15.65-15.65 15.65H98.962a5.19 5.19 0 0 0-5.184 5.184v72.916c0 8.643-7.006 15.65-15.65 15.65zm93.75 250.002H98.962c-20.117 0-36.484-16.367-36.484-36.484v-72.916c0-8.643 7.006-15.65 15.65-15.65s15.65 7.007 15.65 15.65v72.916a5.19 5.19 0 0 0 5.184 5.184h72.916c8.644 0 15.65 7.007 15.65 15.65s-7.006 15.65-15.65 15.65zm250-250.002c-8.644 0-15.65-7.007-15.65-15.65V98.961a5.19 5.19 0 0 0-5.183-5.184h-72.917c-8.644 0-15.651-7.007-15.651-15.65s7.007-15.65 15.651-15.65h72.917c20.117 0 36.484 16.367 36.484 36.484v72.916c0 8.643-7.007 15.65-15.651 15.65zM249.999 385.44c-2.68 0-5.359-.687-7.765-2.062l-109.375-62.501a15.65 15.65 0 0 1-7.886-13.588V192.706a15.649 15.649 0 0 1 23.415-13.587l109.375 62.5a15.649 15.649 0 0 1 7.886 13.587V369.79a15.65 15.65 0 0 1-15.65 15.65zm-93.725-87.233 78.074 44.615v-78.533l-78.074-44.615v78.533z"/><path fill="#121330" d="M249.998 385.441a15.65 15.65 0 0 1-15.65-15.65V255.207a15.65 15.65 0 0 1 7.886-13.588l109.375-62.5a15.648 15.648 0 0 1 15.62.053 15.649 15.649 0 0 1 7.795 13.535V307.29a15.65 15.65 0 0 1-7.886 13.588l-109.375 62.501a15.64 15.64 0 0 1-7.765 2.062zm15.651-121.152v78.534l78.074-44.615v-78.533l-78.074 44.614zm93.725 43.001h.009-.009z"/><path fill="#121330" d="M140.637 208.359c-5.434 0-10.713-2.833-13.602-7.888-4.288-7.504-1.682-17.064 5.823-21.352l109.375-62.501a15.651 15.651 0 0 1 15.529 0l109.376 62.501c7.504 4.288 10.111 13.848 5.823 21.352-4.289 7.504-13.85 10.112-21.352 5.824l-101.611-58.064-101.611 58.064a15.584 15.584 0 0 1-7.75 2.064z"/></g><g class="primary design" style="display:none"><path fill="none"/><path/><path/><path/><path/><path/><path/><path/></g></g><g clip-path="url(#d)" opacity="0" style="display:block"><g class="primary design" style="display:none"><path/><path fill="none"/></g><g class="primary design" style="display:none"><path/><path fill="none"/></g><g class="primary design" style="display:none"><path/><path fill="none"/></g><g class="primary design" style="display:none"><path/><path fill="none"/></g><g class="primary design" style="display:none"><path/><path fill="none"/></g><g class="primary design" style="display:none"><path/><path fill="none"/></g><g class="primary design" style="display:none"><path/><path fill="none"/></g><g class="primary design" style="display:none"><path/><path fill="none"/></g><g class="primary design" style="display:none"><path/><path fill="none"/></g><g class="primary design" style="display:none"><path/><path fill="none"/></g><g class="primary design" style="display:none"><path/><path fill="none"/></g><g class="primary design" style="display:none"><path/><path fill="none"/></g><g class="primary design" style="display:none"><path/><path fill="none"/></g><g class="primary design" style="display:none"><path/><path fill="none"/></g><g class="primary design" style="display:none"><path/><path fill="none"/></g><g class="primary design" style="display:none"><path/><path fill="none"/></g><g class="primary design" style="display:none"><path/><path fill="none"/></g><g class="primary design" style="display:none"><path/><path fill="none"/></g><g class="primary design" style="display:none"><path/><path fill="none"/></g><g class="primary design" style="display:none"><path fill="none"/><path/><path/><path/><path/><path/><path/><path/></g></g><g class="com" style="display:none"><path/><path/><path/><path/><path/><path/><path/><path/><path/><path/><path/><path/></g></g></svg>