<svg xmlns="http://www.w3.org/2000/svg" width="500" height="500" style="width:100%;height:100%;transform:translate3d(0,0,0);content-visibility:visible" viewBox="0 0 500 500"><defs><clipPath id="c"><path d="M0 0h500v500H0z"/></clipPath><clipPath id="i"><path d="M0 0h500v500H0z"/></clipPath><clipPath id="h"><path d="M0 0h500v500H0z"/></clipPath><clipPath id="f"><path d="M0 0h500v500H0z"/></clipPath><clipPath id="e"><path d="M0 0h500v500H0z"/></clipPath><clipPath id="d"><path d="M0 0h500v500H0z"/></clipPath><filter id="a" width="100%" height="100%" x="0%" y="0%" filterUnits="objectBoundingBox"><feComponentTransfer in="SourceGraphic"><feFuncA tableValues="1.0 0.0" type="table"/></feComponentTransfer></filter><path id="b" class="primary design" style="display:none"/><mask id="g" mask-type="alpha"><g filter="url(#a)"><path fill="#fff" d="M0 0h500v500H0z" opacity="0"/><use xmlns:ns1="http://www.w3.org/1999/xlink" ns1:href="#b"/></g></mask></defs><g clip-path="url(#c)"><g clip-path="url(#d)" opacity="0" style="display:block"><g fill="#121330" class="primary design" opacity="1" style="display:block"><path d="M213.55 322.907h-93.736c-8.54 0-15.622 7.082-15.622 15.622s7.082 15.623 15.622 15.623h93.735c8.54 0 15.623-7.082 15.623-15.623 0-8.54-7.082-15.622-15.623-15.622zm93.734 0H276.04c-8.54 0-15.622 7.082-15.622 15.622s7.082 15.623 15.622 15.623h31.245c8.54 0 15.623-7.082 15.623-15.623 0-8.54-7.082-15.622-15.623-15.622z" opacity="1"/><path d="M421.85 83.362H78.153c-20.205 0-36.452 16.456-36.452 36.452V380.19c0 19.997 16.247 36.453 36.452 36.453H421.85c19.997 0 36.453-16.456 36.453-36.453V119.814c0-19.996-16.247-36.452-36.453-36.452zM78.153 114.607H421.85c2.917 0 5.208 2.291 5.208 5.207v46.868H72.947v-46.868c0-2.916 2.291-5.207 5.207-5.207zm348.903 124.98H72.947v-41.66h354.11v41.66zm-5.208 145.81H78.154c-2.916 0-5.207-2.291-5.207-5.208V270.832h354.11v109.357c0 2.917-2.291 5.208-5.208 5.208z" opacity="1"/></g><g fill="none" class="primary design" style="display:none"><path/><path/><path/><path/><path/></g><path fill="none" class="primary design" style="display:none"/></g><g clip-path="url(#e)" opacity="0" style="display:block"><g fill="#121330" class="primary design" opacity="1" style="display:block"><path d="M213.55 322.907h-93.736c-8.54 0-15.622 7.082-15.622 15.622s7.082 15.623 15.622 15.623h93.735c8.54 0 15.623-7.082 15.623-15.623 0-8.54-7.082-15.622-15.623-15.622zm93.734 0H276.04c-8.54 0-15.622 7.082-15.622 15.622s7.082 15.623 15.622 15.623h31.245c8.54 0 15.623-7.082 15.623-15.623 0-8.54-7.082-15.622-15.623-15.622z" opacity="1"/><path d="M421.85 83.362H78.153c-20.205 0-36.452 16.456-36.452 36.452V380.19c0 19.997 16.247 36.453 36.452 36.453H421.85c19.997 0 36.453-16.456 36.453-36.453V119.814c0-19.996-16.247-36.452-36.453-36.452zM78.153 114.607H421.85c2.917 0 5.208 2.291 5.208 5.207v46.868H72.947v-46.868c0-2.916 2.291-5.207 5.207-5.207zm348.903 124.98H72.947v-41.66h354.11v41.66zm-5.208 145.81H78.154c-2.916 0-5.207-2.291-5.207-5.208V270.832h354.11v109.357c0 2.917-2.291 5.208-5.208 5.208z" opacity="1"/></g><g fill="none" class="primary design" style="display:none"><path/><path/><path/><path/><path/></g><path fill="none" class="primary design" style="display:none"/></g><g clip-path="url(#f)" opacity="0" style="display:block"><g fill="#121330" class="primary design" opacity="1" style="display:block"><path d="M213.55 322.907h-93.736c-8.54 0-15.622 7.082-15.622 15.622s7.082 15.623 15.622 15.623h93.735c8.54 0 15.623-7.082 15.623-15.623 0-8.54-7.082-15.622-15.623-15.622zm93.734 0H276.04c-8.54 0-15.622 7.082-15.622 15.622s7.082 15.623 15.622 15.623h31.245c8.54 0 15.623-7.082 15.623-15.623 0-8.54-7.082-15.622-15.623-15.622z" opacity="1"/><path d="M421.85 83.362H78.153c-20.205 0-36.452 16.456-36.452 36.452V380.19c0 19.997 16.247 36.453 36.452 36.453H421.85c19.997 0 36.453-16.456 36.453-36.453V119.814c0-19.996-16.247-36.452-36.453-36.452zM78.153 114.607H421.85c2.917 0 5.208 2.291 5.208 5.207v46.868H72.947v-46.868c0-2.916 2.291-5.207 5.207-5.207zm348.903 124.98H72.947v-41.66h354.11v41.66zm-5.208 145.81H78.154c-2.916 0-5.207-2.291-5.207-5.208V270.832h354.11v109.357c0 2.917-2.291 5.208-5.208 5.208z" opacity="1"/></g><g fill="none" class="primary design" mask="url(#g)" style="display:none"><path/><path/></g><g fill="none" class="primary design" style="display:none"><path/><path/><path/><path/><path/></g></g><g clip-path="url(#h)" style="display:block"><g fill="#121330" class="primary design" style="display:block"><path d="M213.55 322.907h-93.736c-8.54 0-15.622 7.082-15.622 15.622s7.082 15.623 15.622 15.623h93.735c8.54 0 15.623-7.082 15.623-15.623 0-8.54-7.082-15.622-15.623-15.622zm93.734 0H276.04c-8.54 0-15.622 7.082-15.622 15.622s7.082 15.623 15.622 15.623h31.245c8.54 0 15.623-7.082 15.623-15.623 0-8.54-7.082-15.622-15.623-15.622z"/><path d="M421.85 83.362H78.153c-20.205 0-36.452 16.456-36.452 36.452V380.19c0 19.997 16.247 36.453 36.452 36.453H421.85c19.997 0 36.453-16.456 36.453-36.453V119.814c0-19.996-16.247-36.452-36.453-36.452zM78.153 114.607H421.85c2.917 0 5.208 2.291 5.208 5.207v46.868H72.947v-46.868c0-2.916 2.291-5.207 5.207-5.207zm348.903 124.98H72.947v-41.66h354.11v41.66zm-5.208 145.81H78.154c-2.916 0-5.207-2.291-5.207-5.208V270.832h354.11v109.357c0 2.917-2.291 5.208-5.208 5.208z"/></g><g class="primary design" style="display:none"><path/><path/><path/></g><g fill="none" class="primary design" style="display:none"><path/><path/><path/><path/><path/></g></g><g clip-path="url(#i)" opacity="0" style="display:block"><g class="primary design" style="display:none"><path/><path/><path/></g><g fill="none" class="primary design" style="display:none"><path/><path/><path/><path/><path/></g></g><g class="com" style="display:none"><path/><path/><path/><path/><path/><path/><path/><path/><path/><path/><path/><path/></g></g></svg>