<svg xmlns="http://www.w3.org/2000/svg" width="500" height="500" style="width:100%;height:100%;transform:translate3d(0,0,0);content-visibility:visible" viewBox="0 0 500 500"><defs><clipPath id="a"><path d="M0 0h500v500H0z"/></clipPath><clipPath id="c"><path d="M0 0h500v500H0z"/></clipPath><clipPath id="b"><path d="M0 0h500v500H0z"/></clipPath></defs><g clip-path="url(#a)"><g clip-path="url(#b)" style="display:block"><path fill="none" class="primary design" style="display:none"/><path fill="#121330" d="M0 208.357c-66.066 0-119.816-53.748-119.816-119.815v-208.333c0-48.836 39.73-88.566 88.566-88.566 48.836 0 88.567 39.73 88.567 88.566V72.914c0 28.732-23.376 52.107-52.108 52.107-28.732 0-52.108-23.375-52.108-52.107L-46.9-67.71c0-8.643 7.006-15.65 15.65-15.65s15.65 7.006 15.65 15.65l.001 140.624c0 11.474 9.334 20.808 20.808 20.808s20.808-9.334 20.808-20.808v-192.705c0-31.577-25.69-57.267-57.266-57.267-31.577 0-57.267 25.69-57.267 57.267V88.542c0 48.808 39.708 88.516 88.516 88.516 48.808 0 88.516-39.708 88.516-88.516v-156.25c0-8.643 7.006-15.649 15.65-15.649s15.65 7.006 15.65 15.649v156.25c0 66.067-53.75 119.815-119.816 119.815z" class="primary design" style="display:block" transform="translate(255.207 250.002)"/><path class="primary design" style="display:none"/></g><g clip-path="url(#c)" opacity="0" style="display:block"><path fill="none" class="primary design" style="display:none"/><path class="primary design" style="display:none"/></g><g class="com" style="display:none"><path/><path/><path/><path/><path/><path/><path/><path/><path/><path/><path/><path/></g></g></svg>