<svg xmlns="http://www.w3.org/2000/svg" width="500" height="500" style="width:100%;height:100%;transform:translate3d(0,0,0);content-visibility:visible" viewBox="0 0 500 500"><defs><clipPath id="a"><path d="M0 0h500v500H0z"/></clipPath><clipPath id="c"><path d="M0 0h500v500H0z"/></clipPath><clipPath id="b"><path d="M0 0h500v500H0z"/></clipPath></defs><g clip-path="url(#a)"><g clip-path="url(#b)" style="display:block"><path fill="none" class="primary design" style="display:none"/><path fill="#121330" d="M182.946-47.522 47.528-182.939c-6.111-6.111-16.021-6.111-22.132 0-6.111 6.112-6.111 16.02 0 22.132l8.272 8.273-89.672 77.581c-16.8-9.78-36.166-14.466-55.689-13.324-24.095 1.41-46.808 11.63-63.954 28.776l-7.291 7.291c-6.111 6.112-6.111 16.021 0 22.133l95.535 95.535-74.689 74.507c-6.119 6.104-6.131 16.014-.027 22.133a15.6 15.6 0 0 0 11.08 4.597c3.998 0 7.998-1.523 11.053-4.57l74.715-74.534 95.875 95.875a15.654 15.654 0 0 0 22.133-.001l7.291-7.291c31.988-31.988 37.738-81.497 15.455-119.839l77.567-89.487 7.763 7.763a15.602 15.602 0 0 0 11.067 4.583 15.6 15.6 0 0 0 11.066-4.583c6.111-6.112 6.111-16.021 0-22.133zM44.011 44.857a15.648 15.648 0 0 0-.561 19.814c19.717 25.537 18.618 61.351-1.929 85.446l-94.696-94.696c-.3-.361-.612-.715-.95-1.054a15.664 15.664 0 0 0-1.104-1l-94.361-94.361c24.042-20.497 59.766-21.596 85.237-1.929a15.652 15.652 0 0 0 19.804-.552L55.69-130.199l75.026 75.025L44.011 44.857z" class="primary design" style="display:block" transform="translate(250 250)"/><path class="primary design" style="display:none"/></g><g clip-path="url(#c)" opacity="0" style="display:block"><path fill="none" class="primary design" style="display:none"/><path class="primary design" style="display:none"/></g><g class="com" style="display:none"><path/><path/><path/><path/><path/><path/><path/><path/><path/><path/><path/><path/></g></g></svg>