<svg xmlns="http://www.w3.org/2000/svg" width="500" height="500" style="width:100%;height:100%;transform:translate3d(0,0,0);content-visibility:visible" viewBox="0 0 500 500"><defs><clipPath id="i"><path d="M0 0h500v500H0z"/></clipPath><clipPath id="n"><path d="M0 0h500v500H0z"/></clipPath><clipPath id="l"><path d="M0 0h500v500H0z"/></clipPath><clipPath id="j"><path d="M0 0h500v500H0z"/></clipPath><filter id="a" width="100%" height="100%" x="0%" y="0%" filterUnits="objectBoundingBox"><feComponentTransfer in="SourceGraphic"><feFuncA tableValues="1.0 0.0" type="table"/></feComponentTransfer></filter><filter id="c" width="100%" height="100%" x="0%" y="0%" filterUnits="objectBoundingBox"><feComponentTransfer in="SourceGraphic"><feFuncA tableValues="1.0 0.0" type="table"/></feComponentTransfer></filter><filter id="e" width="100%" height="100%" x="0%" y="0%" filterUnits="objectBoundingBox"><feComponentTransfer in="SourceGraphic"><feFuncA tableValues="1.0 0.0" type="table"/></feComponentTransfer></filter><filter id="g" width="100%" height="100%" x="0%" y="0%" filterUnits="objectBoundingBox"><feComponentTransfer in="SourceGraphic"><feFuncA tableValues="1.0 0.0" type="table"/></feComponentTransfer></filter><path id="b" fill-opacity="0" stroke-linecap="round" stroke-linejoin="round" style="display:none"/><path id="d" fill-opacity="0" stroke-linecap="round" stroke-linejoin="round" style="display:none"/><path id="f" fill-opacity="0" stroke-linecap="round" stroke-linejoin="round" style="display:none"/><path id="h" fill-opacity="0" stroke="#121330" stroke-linecap="round" stroke-linejoin="round" stroke-width="61" d="M0 32.563v-65.126l-54.192-53.685" style="display:block" transform="translate(250.005 326.811)"/><mask id="p" mask-type="alpha"><g filter="url(#a)"><path fill="#fff" d="M0 0h500v500H0z" opacity="0"/><use xmlns:ns1="http://www.w3.org/1999/xlink" ns1:href="#b"/></g></mask><mask id="o" mask-type="alpha"><g filter="url(#c)"><path fill="#fff" d="M0 0h500v500H0z" opacity="0"/><use xmlns:ns2="http://www.w3.org/1999/xlink" ns2:href="#d"/></g></mask><mask id="m" mask-type="alpha"><g filter="url(#e)"><path fill="#fff" d="M0 0h500v500H0z" opacity="0"/><use xmlns:ns3="http://www.w3.org/1999/xlink" ns3:href="#f"/></g></mask><mask id="k" mask-type="alpha"><g filter="url(#g)"><path fill="#fff" d="M0 0h500v500H0z" opacity="0"/><use xmlns:ns4="http://www.w3.org/1999/xlink" ns4:href="#h"/></g></mask></defs><g clip-path="url(#i)"><g clip-path="url(#j)" opacity="0" style="display:block"><path fill="none" stroke="#121330" stroke-linecap="round" stroke-linejoin="round" stroke-width="31.3" d="M-67.709 0c0-37.394 30.315-67.709 67.709-67.709 37.394 0 67.709 30.315 67.709 67.709 0 37.394-30.315 67.709-67.709 67.709-37.394 0-67.709-30.315-67.709-67.709z" opacity="1" style="display:block" transform="translate(374.998 333.334)"/><g mask="url(#k)" style="display:block"><path fill="none" stroke="#121330" stroke-linecap="round" stroke-linejoin="round" stroke-width="31.3" d="M57.289 333.337c0-37.394 30.315-67.709 67.709-67.709 37.394 0 67.709 30.315 67.709 67.709 0 37.394-30.315 67.709-67.709 67.709-37.394 0-67.709-30.315-67.709-67.709z"/></g><path fill="none" stroke="#121330" stroke-linecap="round" stroke-linejoin="round" stroke-width="31.3" d="M-91.138 6.102c-8.136-8.136-8.136-21.327 0-29.463l28.707-28.706c16.272-16.272 42.654-16.272 58.926 0" opacity="1" style="display:block" transform="translate(282.973 229.977)"/><path fill="#121330" d="M25.78-29.264c-10.952-10.953-28.709-10.953-39.661 0l-11.898 11.898c-10.953 10.952-10.953 28.71 0 39.662l11.898 11.898c4.381 4.381 11.483 4.381 15.864 0L25.78 10.397c10.952-10.953 10.952-28.709 0-39.661z" opacity="1" style="display:block" transform="translate(320.456 120.496)"/><path fill="none" stroke="#121330" stroke-linecap="round" stroke-linejoin="round" stroke-width="31.3" d="M0 32.563v-65.126l-54.192-53.685" opacity="1" style="display:block" transform="translate(250.005 326.811)"/><path fill="none" stroke="#121330" stroke-linecap="round" stroke-linejoin="round" stroke-width="31.3" d="m-3.505-52.067 35.78 35.78H97.24" opacity="1" style="display:block" transform="translate(282.973 229.977)"/></g><g clip-path="url(#l)" style="display:block"><path fill="none" style="display:none"/><g mask="url(#m)" style="display:none"><path/></g><path fill="none" style="display:none"/><path style="display:none"/><path fill="none" style="display:none"/><path fill="none" style="display:none"/><g fill="#121330" style="display:block"><path d="M374.998 249.976c-45.964 0-83.359 37.394-83.359 83.358 0 45.964 37.395 83.358 83.359 83.358 45.964 0 83.359-37.394 83.359-83.358 0-45.964-37.395-83.358-83.359-83.358zm0 135.417c-28.705 0-52.059-23.354-52.059-52.059s23.354-52.059 52.059-52.059 52.059 23.354 52.059 52.059-23.354 52.059-52.059 52.059zm-250-135.414c-45.964 0-83.359 37.394-83.359 83.358 0 45.964 37.395 83.358 83.359 83.358 45.964 0 83.359-37.394 83.359-83.358 0-45.964-37.395-83.358-83.359-83.358zm0 135.417c-28.705 0-52.059-23.354-52.059-52.059s23.354-52.059 52.059-52.059 52.059 23.354 52.059 52.059-23.354 52.059-52.059 52.059z"/><path d="M231.609 188.975c4.914-4.914 11.447-7.62 18.396-7.62 6.949 0 13.483 2.707 18.397 7.621l35.78 35.78a15.652 15.652 0 0 0 11.066 4.584h64.965c8.644 0 15.651-7.007 15.651-15.65s-7.007-15.65-15.651-15.65h-58.482l-31.197-31.197c-10.826-10.826-25.219-16.788-40.529-16.788-15.311 0-29.704 5.962-40.529 16.788l-28.707 28.706c-14.225 14.225-14.225 37.371 0 51.596l53.586 53.585v58.643c0 8.643 7.006 15.65 15.65 15.65s15.651-7.007 15.651-15.65v-65.125c0-.059-.008-.117-.009-.176a15.532 15.532 0 0 0-.069-1.364c-.025-.252-.072-.497-.108-.746-.038-.256-.067-.513-.117-.767-.054-.275-.129-.542-.198-.812-.057-.225-.107-.451-.174-.674-.079-.261-.177-.515-.269-.77-.081-.226-.155-.454-.247-.677-.098-.237-.214-.464-.323-.695-.11-.232-.213-.466-.335-.694-.117-.219-.251-.427-.378-.64-.135-.226-.262-.454-.409-.674-.155-.232-.327-.45-.494-.673-.14-.186-.269-.377-.418-.558a15.445 15.445 0 0 0-1.008-1.116l-.028-.031-58.17-58.169a5.189 5.189 0 0 1 0-7.33l28.707-28.707zm74.966-34.285c4.381 4.381 11.483 4.381 15.864 0l23.797-23.797c10.952-10.953 10.952-28.709 0-39.661-10.952-10.953-28.709-10.953-39.661 0l-11.898 11.898c-10.953 10.952-10.953 28.71 0 39.662l11.898 11.898z"/></g><g style="display:none"><path/><path/><path/><path/></g></g><g clip-path="url(#n)" opacity="0" style="display:block"><path fill="none" style="display:none"/><g mask="url(#o)" style="display:none"><path fill="none"/></g><g mask="url(#p)" style="display:none"><path/></g><path fill="none" style="display:none"/><path fill="none" style="display:none"/><path fill="none" style="display:none"/><path style="display:none"/><path fill="none" style="display:none"/><g style="display:none"><path/><path/><path/><path/></g></g><path style="display:none"/></g></svg>