<svg xmlns="http://www.w3.org/2000/svg" width="500" height="500" style="width:100%;height:100%;transform:translate3d(0,0,0);content-visibility:visible" viewBox="0 0 500 500"><defs><clipPath id="a"><path d="M0 0h500v500H0z"/></clipPath><clipPath id="c"><path d="M0 0h500v500H0z"/></clipPath><clipPath id="b"><path d="M0 0h500v500H0z"/></clipPath></defs><g clip-path="url(#a)"><g clip-path="url(#b)" style="display:block"><path fill="none" class="primary design" style="display:none"/><path fill="none" class="primary design" style="display:none"/><path fill="none" class="primary design" style="display:none"/><path fill="none" class="primary design" style="display:none"/><path fill="none" class="primary design" style="display:none"/><path fill="none" class="primary design" style="display:none"/><path fill="none" class="primary design" style="display:none"/><path fill="none" class="primary design" style="display:none"/><path fill="#121330" d="M109.384 229.746a15.606 15.606 0 0 1-11.06-4.577l-52.089-52.025c-6.115-6.108-6.12-16.016-.013-22.132 6.109-6.115 16.018-6.121 22.133-.014l41.029 40.979L212.901 88.583c6.115-6.107 16.026-6.103 22.133.013 6.107 6.115 6.102 16.024-.013 22.132L120.443 225.169a15.602 15.602 0 0 1-11.059 4.577zm0 186.25a15.605 15.605 0 0 1-11.06-4.576l-52.09-52.026c-6.115-6.108-6.12-16.017-.013-22.133 6.109-6.114 16.018-6.121 22.133-.013l41.03 40.979L212.9 274.833c6.115-6.107 16.024-6.102 22.133.013 6.107 6.115 6.102 16.024-.013 22.132L120.443 411.419a15.602 15.602 0 0 1-11.059 4.577zm333.324-233.682H286.46c-8.644 0-15.65-7.007-15.65-15.65s7.006-15.65 15.65-15.65h156.248c8.644 0 15.65 7.007 15.65 15.65s-7.006 15.65-15.65 15.65zm0 187.499H286.46c-8.644 0-15.65-7.007-15.65-15.65s7.006-15.65 15.65-15.65h156.248c8.644 0 15.65 7.007 15.65 15.65s-7.006 15.65-15.65 15.65z" class="primary design" style="display:block"/><g class="primary design" style="display:none"><path/><path/><path/><path/></g></g><g clip-path="url(#c)" opacity="0" style="display:block"><path fill="none" class="primary design" style="display:none"/><path fill="none" class="primary design" style="display:none"/><path fill="none" stroke="#121330" stroke-linecap="round" stroke-linejoin="round" stroke-width="31.3" d="M0 0" class="primary design" opacity="1" style="display:block" transform="translate(140.628 156.876)"/><path fill="none" class="primary design" style="display:none"/><g class="primary design" style="display:none"><path/><path/><path/><path/></g></g><g class="com" style="display:none"><path/><path/><path/><path/><path/><path/><path/><path/><path/><path/><path/><path/></g></g></svg>