<svg xmlns="http://www.w3.org/2000/svg" width="500" height="500" style="width:100%;height:100%;transform:translate3d(0,0,0);content-visibility:visible" viewBox="0 0 500 500"><defs><clipPath id="a"><path d="M0 0h500v500H0z"/></clipPath><clipPath id="c"><path d="M0 0h500v500H0z"/></clipPath><clipPath id="b"><path d="M0 0h500v500H0z"/></clipPath></defs><g clip-path="url(#a)"><g clip-path="url(#b)" style="display:block"><path fill="none" class="primary design" style="display:none"/><path fill="none" class="primary design" style="display:none"/><path fill="#121330" d="M.004 187.528a15.65 15.65 0 0 1-15.65-15.649V29.807l-126.508 87.246c-7.112 4.907-16.861 3.118-21.768-3.998-4.907-7.115-3.117-16.861 3.998-21.768L-27.562.003l-132.362-91.284c-7.115-4.907-8.905-14.653-3.998-21.769 4.906-7.116 14.654-8.905 21.768-3.998l126.508 87.247v-142.072a15.65 15.65 0 0 1 23.564-13.501L158.96-96.832a15.652 15.652 0 0 1-.354 27.204L32.4.003l126.206 69.631a15.648 15.648 0 0 1 .354 27.204L7.918 185.38a15.636 15.636 0 0 1-7.914 2.148zm15.65-161.017v118.053l103.742-60.815L15.654 26.511zm0-171.069v118.053l103.742-57.238-103.742-60.815z" class="primary design" style="display:block" transform="translate(250 250)"/><path class="primary design" style="display:none"/></g><g clip-path="url(#c)" opacity="0" style="display:block"><path fill="none" class="primary design" style="display:none"/><path class="primary design" style="display:none"/></g><g class="com" style="display:none"><path/><path/><path/><path/><path/><path/><path/><path/><path/><path/><path/><path/></g></g></svg>