<svg xmlns="http://www.w3.org/2000/svg" width="500" height="500" style="width:100%;height:100%;transform:translate3d(0,0,0);content-visibility:visible" viewBox="0 0 500 500"><defs><clipPath id="c"><path d="M0 0h500v500H0z"/></clipPath><clipPath id="f"><path d="M0 0h500v500H0z"/></clipPath><clipPath id="d"><path d="M0 0h500v500H0z"/></clipPath><path id="a" class="primary design" style="display:none"/><path id="b" class="primary design" style="display:none"/><mask id="g" mask-type="alpha"><use xmlns:ns1="http://www.w3.org/1999/xlink" ns1:href="#a"/></mask><mask id="e" mask-type="alpha"><use xmlns:ns2="http://www.w3.org/1999/xlink" ns2:href="#b"/></mask></defs><g clip-path="url(#c)"><g clip-path="url(#d)" style="display:block"><path fill="none" class="primary design" style="display:none"/><g class="primary design" mask="url(#e)" style="display:none"><path/><path/><path/></g><path fill="none" class="primary design" style="display:none"/><g fill="#121330" class="primary design" style="display:block"><path d="M401.046 437.529H98.962c-20.117 0-36.484-16.367-36.484-36.484V98.96c0-20.117 16.367-36.483 36.484-36.483h302.084c20.117 0 36.484 16.366 36.484 36.483v302.085c0 20.117-16.367 36.484-36.484 36.484zM98.962 93.777a5.19 5.19 0 0 0-5.184 5.183v302.085a5.19 5.19 0 0 0 5.184 5.184h302.084a5.19 5.19 0 0 0 5.184-5.184V98.96a5.19 5.19 0 0 0-5.184-5.183H98.962z"/><path d="M226.019 354.195a15.602 15.602 0 0 1-11.059-4.576l-43.725-43.671c-6.115-6.108-6.121-16.017-.014-22.133 6.108-6.114 16.017-6.121 22.133-.013l32.665 32.624 80.633-80.538c6.115-6.107 16.025-6.102 22.132.013 6.108 6.115 6.102 16.024-.013 22.132l-91.692 91.585a15.604 15.604 0 0 1-11.06 4.577zM421.88 187.528H78.128c-8.644 0-15.65-7.007-15.65-15.65s7.006-15.65 15.65-15.65H421.88c8.644 0 15.65 7.007 15.65 15.65s-7.006 15.65-15.65 15.65zm-62.5-46.875a15.884 15.884 0 0 1-4.54-.68c-.49-.15-.98-.33-1.45-.52s-.93-.41-1.38-.65a15.616 15.616 0 0 1-2.55-1.7c-.4-.33-.79-.67-1.15-1.03-.359-.37-.711-.75-1.03-1.15-.32-.39-.631-.81-.91-1.23-.28-.43-.551-.87-.79-1.32-.24-.45-.46-.92-.65-1.39-.2-.47-.371-.95-.52-1.44-.15-.49-.271-.99-.38-1.48-.101-.5-.17-1.02-.22-1.52-.06-.51-.08-1.03-.08-1.54s.02-1.03.08-1.54c.05-.51.119-1.02.22-1.52.109-.5.23-1 .38-1.48.149-.49.32-.98.52-1.45.19-.47.41-.929.65-1.379.239-.45.51-.891.79-1.321.279-.42.59-.84.91-1.23.319-.4.671-.78 1.03-1.15.36-.36.75-.71 1.15-1.03a15.616 15.616 0 0 1 3.93-2.35c.47-.2.96-.37 1.44-.52.489-.15.989-.27 1.489-.38.5-.1 1.011-.17 1.521-.22 1.02-.11 2.059-.11 3.08 0 .5.05 1.02.12 1.52.22.5.11 1 .23 1.48.38.49.15.969.32 1.439.52.471.19.941.41 1.391.65.45.24.889.51 1.319.79.421.28.841.59 1.231.91.4.32.781.67 1.14 1.03a15.616 15.616 0 0 1 3.39 5.08c.189.47.371.96.52 1.45.15.48.27.98.37 1.48a15.782 15.782 0 0 1 .31 3.06 15.884 15.884 0 0 1-.31 3.06c-.1.49-.22.99-.37 1.48a17.6 17.6 0 0 1-.52 1.44c-.19.47-.41.94-.65 1.39a15.616 15.616 0 0 1-3.88 4.73c-.39.32-.81.63-1.231.91-.43.28-.869.55-1.319.79-.45.24-.92.46-1.391.65-.47.19-.949.37-1.439.52-.48.15-.98.27-1.48.37a15.884 15.884 0 0 1-3.06.31zm-62.5 0a15.884 15.884 0 0 1-4.54-.68c-.49-.15-.98-.32-1.45-.52-.47-.19-.93-.41-1.38-.65a15.871 15.871 0 0 1-3.7-2.73c-.359-.37-.711-.75-1.03-1.15-.32-.39-.631-.81-.91-1.23-.28-.43-.551-.87-.79-1.32-.24-.45-.46-.92-.65-1.39-.2-.47-.371-.95-.52-1.44-.15-.48-.28-.98-.38-1.48-.101-.5-.17-1.02-.22-1.52-.06-.51-.08-1.03-.08-1.54s.02-1.03.08-1.54c.05-.51.119-1.02.22-1.52.1-.5.23-1 .38-1.49.149-.48.32-.97.52-1.44a15.621 15.621 0 0 1 1.44-2.7c.279-.43.59-.84.91-1.23a14.076 14.076 0 0 1 2.18-2.18c.39-.32.81-.63 1.23-.91.42-.29.87-.55 1.32-.79.45-.24.91-.46 1.38-.65.47-.2.96-.37 1.44-.52.489-.15.989-.28 1.489-.38.5-.1 1.011-.17 1.521-.22 1.02-.11 2.059-.11 3.08 0 .51.05 1.02.12 1.52.22s1 .23 1.48.38c.49.15.979.32 1.439.52.48.19.941.41 1.391.65.45.24.889.5 1.319.79.421.28.841.59 1.231.91.4.32.781.67 1.14 1.03.37.36.71.75 1.04 1.15a15.89 15.89 0 0 1 1.7 2.551c.23.45.45.909.65 1.379.189.47.371.96.52 1.44.141.49.27.99.37 1.49a15.782 15.782 0 0 1 .31 3.06 15.884 15.884 0 0 1-.31 3.06c-.1.5-.229 1-.37 1.48a17.6 17.6 0 0 1-.52 1.44c-.2.48-.42.94-.65 1.39a15.616 15.616 0 0 1-3.88 4.73c-.39.32-.81.63-1.231.91-.43.28-.869.55-1.319.79-.45.24-.911.46-1.391.65-.46.2-.949.37-1.439.52-.48.15-.98.27-1.48.37a15.476 15.476 0 0 1-3.06.31z"/></g><g class="primary design" style="display:none"><path/><path/><path/><path/><path/></g></g><g clip-path="url(#f)" opacity="0" style="display:block"><path fill="none" class="primary design" style="display:none"/><g class="primary design" mask="url(#g)" style="display:none"><path/><path/><path/></g><path fill="none" class="primary design" style="display:none"/><g class="primary design" style="display:none"><path/><path/><path/><path/><path/></g><g fill="none" class="primary design" style="display:none"><path/><path/></g></g><g class="com" style="display:none"><path/><path/><path/><path/><path/><path/><path/><path/><path/><path/><path/><path/></g></g></svg>