<svg xmlns="http://www.w3.org/2000/svg" width="500" height="500" style="width:100%;height:100%;transform:translate3d(0,0,0);content-visibility:visible" viewBox="0 0 500 500"><defs><clipPath id="i"><path d="M0 0h500v500H0z"/></clipPath><clipPath id="q"><path d="M0 0h500v500H0z"/></clipPath><clipPath id="n"><path d="M0 0h500v500H0z"/></clipPath><clipPath id="m"><path d="M0 0h500v500H0z"/></clipPath><clipPath id="j"><path d="M0 0h500v500H0z"/></clipPath><filter id="a" width="100%" height="100%" x="0%" y="0%" filterUnits="objectBoundingBox"><feComponentTransfer in="SourceGraphic"><feFuncA tableValues="1.0 0.0" type="table"/></feComponentTransfer></filter><filter id="c" width="100%" height="100%" x="0%" y="0%" filterUnits="objectBoundingBox"><feComponentTransfer in="SourceGraphic"><feFuncA tableValues="1.0 0.0" type="table"/></feComponentTransfer></filter><filter id="e" width="100%" height="100%" x="0%" y="0%" filterUnits="objectBoundingBox"><feComponentTransfer in="SourceGraphic"><feFuncA tableValues="1.0 0.0" type="table"/></feComponentTransfer></filter><filter id="g" width="100%" height="100%" x="0%" y="0%" filterUnits="objectBoundingBox"><feComponentTransfer in="SourceGraphic"><feFuncA tableValues="1.0 0.0" type="table"/></feComponentTransfer></filter><path id="b" class="primary design" style="display:none"/><path id="d" class="primary design" style="display:none"/><path id="f" class="primary design" style="display:none"/><path id="h" class="primary design" style="display:none"/><mask id="p" mask-type="alpha"><g filter="url(#a)"><path fill="#fff" d="M0 0h500v500H0z" opacity="0"/><use xmlns:ns1="http://www.w3.org/1999/xlink" ns1:href="#b"/></g></mask><mask id="o" mask-type="alpha"><g filter="url(#c)"><path fill="#fff" d="M0 0h500v500H0z" opacity="0"/><use xmlns:ns2="http://www.w3.org/1999/xlink" ns2:href="#d"/></g></mask><mask id="l" mask-type="alpha"><g filter="url(#e)"><path fill="#fff" d="M0 0h500v500H0z" opacity="0"/><use xmlns:ns3="http://www.w3.org/1999/xlink" ns3:href="#f"/></g></mask><mask id="k" mask-type="alpha"><g filter="url(#g)"><path fill="#fff" d="M0 0h500v500H0z" opacity="0"/><use xmlns:ns4="http://www.w3.org/1999/xlink" ns4:href="#h"/></g></mask></defs><g clip-path="url(#i)"><g clip-path="url(#j)" opacity="0" style="display:block"><path fill="none" class="primary design" style="display:none"/><g mask="url(#k)" style="display:none"><path fill="none" class="primary design"/></g><g class="primary design" mask="url(#l)" style="display:none"><path/><path/><path/></g><path fill="none" class="primary design" style="display:none"/><path fill="#121330" d="M208.348-83.786c-.005-.273-.02-.546-.04-.819a15.64 15.64 0 0 0-.064-.717c-.03-.251-.068-.5-.11-.749a15.963 15.963 0 0 0-.14-.75 15.58 15.58 0 0 0-.184-.738c-.051-.191-.096-.382-.155-.572-.015-.048-.036-.095-.051-.143a15.178 15.178 0 0 0-.282-.79c-.064-.167-.12-.335-.19-.5-.017-.041-.038-.08-.055-.12a15.824 15.824 0 0 0-.421-.883c-.064-.126-.12-.255-.188-.38l-.047-.079a15.83 15.83 0 0 0-.593-.979c-.054-.084-.097-.17-.153-.253-.021-.031-.047-.059-.068-.09a15.615 15.615 0 0 0-.683-.909l-.029-.037c-.041-.051-.076-.107-.118-.158l-.148-.176c-.2-.234-.415-.458-.63-.682l-.098-.105c-.049-.051-.094-.106-.144-.156-.08-.08-.162-.16-.244-.238-.168-.16-.347-.31-.523-.463-.055-.048-.109-.099-.165-.146-.066-.056-.127-.117-.194-.172a14.3 14.3 0 0 0-.34-.269c-.045-.035-.084-.074-.13-.109L47.167-213.345c-27.768-21.027-66.555-21.029-94.325 0L-202.151-95.968c-.034.026-.063.055-.097.081-.115.089-.232.175-.345.267-.16.13-.308.273-.462.409l-.036.031c-.126.112-.255.22-.377.335-.084.08-.17.158-.253.24-.147.146-.282.303-.423.455-.148.158-.299.314-.439.477-.053.062-.11.121-.162.184-.13.156-.244.322-.368.483-.149.194-.3.388-.439.588-.155.222-.297.453-.44.684-.12.194-.245.385-.356.584-.047.084-.099.166-.145.251-.036.067-.063.137-.098.204-.059.114-.112.232-.168.347-.086.176-.175.35-.254.528-.046.104-.097.205-.141.31-.076.182-.133.368-.202.552l-.021.059c-.058.158-.121.315-.174.475-.039.118-.085.233-.121.352-.067.219-.114.44-.171.661-.039.151-.081.301-.115.452-.028.124-.064.243-.089.368-.044.221-.069.443-.104.665-.026.167-.053.333-.074.5-.015.119-.04.234-.052.354-.02.203-.022.407-.034.61a15.5 15.5 0 0 0-.028.569c-.003.134-.017.268-.017.402v234.536c0 8.643 7.006 15.65 15.65 15.65h385.41c8.644 0 15.65-7.007 15.65-15.65V-83.368c.001-.14-.003-.278-.006-.418zm-236.61-104.607c16.642-12.603 39.889-12.604 56.533 0L165.838-84.214.002 27.918l-165.833-112.13 137.569-104.181zm-148.794 323.788V-54.019L-8.764 59.774a15.624 15.624 0 0 0 8.766 2.685c3.06 0 6.119-.894 8.766-2.685L177.054-54.015v189.41h-354.11z" class="primary design" opacity="1" style="display:block" transform="translate(250 250)"/><g class="primary design" style="display:none"><path/><path/><path/></g></g><g clip-path="url(#m)" opacity="0" style="display:block"><path fill="none" class="primary design" style="display:none"/><path fill="none" class="primary design" style="display:none"/><path fill="none" class="primary design" style="display:none"/><path fill="none" class="primary design" style="display:none"/><path fill="#121330" d="M208.348-83.786c-.005-.273-.02-.546-.04-.819a15.64 15.64 0 0 0-.064-.717c-.03-.251-.068-.5-.11-.749a15.963 15.963 0 0 0-.14-.75 15.58 15.58 0 0 0-.184-.738c-.051-.191-.096-.382-.155-.572-.015-.048-.036-.095-.051-.143a15.178 15.178 0 0 0-.282-.79c-.064-.167-.12-.335-.19-.5-.017-.041-.038-.08-.055-.12a15.824 15.824 0 0 0-.421-.883c-.064-.126-.12-.255-.188-.38l-.047-.079a15.83 15.83 0 0 0-.593-.979c-.054-.084-.097-.17-.153-.253-.021-.031-.047-.059-.068-.09a15.615 15.615 0 0 0-.683-.909l-.029-.037c-.041-.051-.076-.107-.118-.158l-.148-.176c-.2-.234-.415-.458-.63-.682l-.098-.105c-.049-.051-.094-.106-.144-.156-.08-.08-.162-.16-.244-.238-.168-.16-.347-.31-.523-.463-.055-.048-.109-.099-.165-.146-.066-.056-.127-.117-.194-.172a14.3 14.3 0 0 0-.34-.269c-.045-.035-.084-.074-.13-.109L47.167-213.345c-27.768-21.027-66.555-21.029-94.325 0L-202.151-95.968c-.034.026-.063.055-.097.081-.115.089-.232.175-.345.267-.16.13-.308.273-.462.409l-.036.031c-.126.112-.255.22-.377.335-.084.08-.17.158-.253.24-.147.146-.282.303-.423.455-.148.158-.299.314-.439.477-.053.062-.11.121-.162.184-.13.156-.244.322-.368.483-.149.194-.3.388-.439.588-.155.222-.297.453-.44.684-.12.194-.245.385-.356.584-.047.084-.099.166-.145.251-.036.067-.063.137-.098.204-.059.114-.112.232-.168.347-.086.176-.175.35-.254.528-.046.104-.097.205-.141.31-.076.182-.133.368-.202.552l-.021.059c-.058.158-.121.315-.174.475-.039.118-.085.233-.121.352-.067.219-.114.44-.171.661-.039.151-.081.301-.115.452-.028.124-.064.243-.089.368-.044.221-.069.443-.104.665-.026.167-.053.333-.074.5-.015.119-.04.234-.052.354-.02.203-.022.407-.034.61a15.5 15.5 0 0 0-.028.569c-.003.134-.017.268-.017.402v234.536c0 8.643 7.006 15.65 15.65 15.65h385.41c8.644 0 15.65-7.007 15.65-15.65V-83.368c.001-.14-.003-.278-.006-.418zm-236.61-104.607c16.642-12.603 39.889-12.604 56.533 0L165.838-84.214.002 27.918l-165.833-112.13 137.569-104.181zm-148.794 323.788V-54.019L-8.764 59.774a15.624 15.624 0 0 0 8.766 2.685c3.06 0 6.119-.894 8.766-2.685L177.054-54.015v189.41h-354.11z" class="primary design" opacity="1" style="display:block" transform="translate(250 250)"/><path class="primary design" style="display:none"/></g><g clip-path="url(#n)" style="display:block"><path fill="none" class="primary design" style="display:none"/><g mask="url(#o)" style="display:none"><path fill="none" class="primary design"/></g><g class="primary design" mask="url(#p)" style="display:none"><path/><path/><path/></g><path fill="none" class="primary design" style="display:none"/><path fill="#121330" d="M208.348-83.786c-.005-.273-.02-.546-.04-.819a15.64 15.64 0 0 0-.064-.717c-.03-.251-.068-.5-.11-.749a15.963 15.963 0 0 0-.14-.75 15.58 15.58 0 0 0-.184-.738c-.051-.191-.096-.382-.155-.572-.015-.048-.036-.095-.051-.143a15.178 15.178 0 0 0-.282-.79c-.064-.167-.12-.335-.19-.5-.017-.041-.038-.08-.055-.12a15.824 15.824 0 0 0-.421-.883c-.064-.126-.12-.255-.188-.38l-.047-.079a15.83 15.83 0 0 0-.593-.979c-.054-.084-.097-.17-.153-.253-.021-.031-.047-.059-.068-.09a15.615 15.615 0 0 0-.683-.909l-.029-.037c-.041-.051-.076-.107-.118-.158l-.148-.176c-.2-.234-.415-.458-.63-.682l-.098-.105c-.049-.051-.094-.106-.144-.156-.08-.08-.162-.16-.244-.238-.168-.16-.347-.31-.523-.463-.055-.048-.109-.099-.165-.146-.066-.056-.127-.117-.194-.172a14.3 14.3 0 0 0-.34-.269c-.045-.035-.084-.074-.13-.109L47.167-213.345c-27.768-21.027-66.555-21.029-94.325 0L-202.151-95.968c-.034.026-.063.055-.097.081-.115.089-.232.175-.345.267-.16.13-.308.273-.462.409l-.036.031c-.126.112-.255.22-.377.335-.084.08-.17.158-.253.24-.147.146-.282.303-.423.455-.148.158-.299.314-.439.477-.053.062-.11.121-.162.184-.13.156-.244.322-.368.483-.149.194-.3.388-.439.588-.155.222-.297.453-.44.684-.12.194-.245.385-.356.584-.047.084-.099.166-.145.251-.036.067-.063.137-.098.204-.059.114-.112.232-.168.347-.086.176-.175.35-.254.528-.046.104-.097.205-.141.31-.076.182-.133.368-.202.552l-.021.059c-.058.158-.121.315-.174.475-.039.118-.085.233-.121.352-.067.219-.114.44-.171.661-.039.151-.081.301-.115.452-.028.124-.064.243-.089.368-.044.221-.069.443-.104.665-.026.167-.053.333-.074.5-.015.119-.04.234-.052.354-.02.203-.022.407-.034.61a15.5 15.5 0 0 0-.028.569c-.003.134-.017.268-.017.402v234.536c0 8.643 7.006 15.65 15.65 15.65h385.41c8.644 0 15.65-7.007 15.65-15.65V-83.368c.001-.14-.003-.278-.006-.418zm-236.61-104.607c16.642-12.603 39.889-12.604 56.533 0L165.838-84.214.002 27.918l-165.833-112.13 137.569-104.181zm-148.794 323.788V-54.019L-8.764 59.774a15.624 15.624 0 0 0 8.766 2.685c3.06 0 6.119-.894 8.766-2.685L177.054-54.015v189.41h-354.11z" class="primary design" style="display:block" transform="translate(250 250)"/><path class="primary design" style="display:none"/></g><g clip-path="url(#q)" opacity="0" style="display:block"><g fill="none" class="primary design" style="display:none"><path/><path/></g><path fill="none" class="primary design" style="display:none"/><g fill="none" class="primary design" style="display:none"><path/><path/></g><path class="primary design" style="display:none"/></g><g class="com" style="display:none"><path/><path/><path/><path/><path/><path/><path/><path/><path/><path/><path/><path/></g></g></svg>