<svg xmlns="http://www.w3.org/2000/svg" width="500" height="500" style="width:100%;height:100%;transform:translate3d(0,0,0);content-visibility:visible" viewBox="0 0 500 500"><defs><clipPath id="a"><path d="M0 0h500v500H0z"/></clipPath><clipPath id="c"><path d="M0 0h500v500H0z"/></clipPath><clipPath id="b"><path d="M0 0h500v500H0z"/></clipPath></defs><g clip-path="url(#a)"><g clip-path="url(#b)" style="display:block"><path fill="#121330" d="M192.709 15.65h-385.418c-8.644 0-15.651-7.007-15.651-15.65s7.007-15.65 15.651-15.65h385.418c8.644 0 15.651 7.007 15.651 15.65s-7.007 15.65-15.651 15.65z" class="primary design" style="display:block" transform="translate(250.003 401.045)"/><path class="primary design" style="display:none"/><path fill="#121330" d="M-100.396 131.949c-17.152 0-34.078-4.498-49.331-13.304-22.897-13.22-39.276-34.565-46.119-60.104l-11.979-44.708A15.649 15.649 0 0 1-196.76-5.335l62.602-16.774a15.652 15.652 0 0 1 17.366 6.894l21.23 34.377 41.261-11.056-57.024-98.498a15.65 15.65 0 0 1 9.493-22.958l67.417-18.065a15.649 15.649 0 0 1 16.079 5.105L66.592-24.287l48.113-12.892c40.199-10.769 81.666 13.17 92.438 53.368 5.079 18.957-6.211 38.511-25.167 43.591l-256.591 68.754a99.537 99.537 0 0 1-25.781 3.415zm-73.145-111.101 7.93 29.592c4.679 17.463 15.878 32.058 31.535 41.098s33.898 11.44 51.359 6.762l256.591-68.753a4.295 4.295 0 0 0 3.034-5.256c-6.304-23.529-30.579-37.54-54.101-31.236L65.02 8.538a15.65 15.65 0 0 1-16.079-5.104L-35.986-98.59l-38.02 10.188 57.024 98.498a15.65 15.65 0 0 1-9.493 22.958l-72.232 19.355a15.647 15.647 0 0 1-17.366-6.893l-21.231-34.377-36.237 9.709z" class="primary design" style="display:block" transform="translate(250.003 215.258)"/><path fill="none" class="primary design" style="display:none"/><path class="primary design" style="display:none"/></g><g clip-path="url(#c)" opacity="0" style="display:block"><path class="primary design" style="display:none"/><path fill="none" stroke="#121330" stroke-dasharray="155 77" stroke-dashoffset="513.602" stroke-linecap="round" stroke-linejoin="round" stroke-width="31.3" d="M0 0" class="primary design" opacity="1" style="display:block" transform="translate(250.004 401.045)"/><path fill="#121330" d="M-100.396 131.949c-17.152 0-34.078-4.498-49.331-13.304-22.897-13.22-39.276-34.565-46.119-60.104l-11.979-44.708A15.649 15.649 0 0 1-196.76-5.335l62.602-16.774a15.652 15.652 0 0 1 17.366 6.894l21.23 34.377 41.261-11.056-57.024-98.498a15.65 15.65 0 0 1 9.493-22.958l67.417-18.065a15.649 15.649 0 0 1 16.079 5.105L66.592-24.287l48.113-12.892c40.199-10.769 81.666 13.17 92.438 53.368 5.079 18.957-6.211 38.511-25.167 43.591l-256.591 68.754a99.537 99.537 0 0 1-25.781 3.415zm-73.145-111.101 7.93 29.592c4.679 17.463 15.878 32.058 31.535 41.098s33.898 11.44 51.359 6.762l256.591-68.753a4.295 4.295 0 0 0 3.034-5.256c-6.304-23.529-30.579-37.54-54.101-31.236L65.02 8.538a15.65 15.65 0 0 1-16.079-5.104L-35.986-98.59l-38.02 10.188 57.024 98.498a15.65 15.65 0 0 1-9.493 22.958l-72.232 19.355a15.647 15.647 0 0 1-17.366-6.893l-21.231-34.377-36.237 9.709z" class="primary design" opacity="1" style="display:block" transform="rotate(15 -1074.937 -638.968)"/></g><g class="com" style="display:none"><path/><path/><path/><path/><path/><path/><path/><path/><path/><path/><path/><path/></g></g></svg>