<svg xmlns="http://www.w3.org/2000/svg" width="500" height="500" style="width:100%;height:100%;transform:translate3d(0,0,0);content-visibility:visible" viewBox="0 0 500 500"><defs><clipPath id="e"><path d="M0 0h500v500H0z"/></clipPath><clipPath id="l"><path d="M0 0h500v500H0z"/></clipPath><clipPath id="k"><path d="M0 0h500v500H0z"/></clipPath><clipPath id="j"><path d="M0 0h500v500H0z"/></clipPath><clipPath id="h"><path d="M0 0h500v500H0z"/></clipPath><clipPath id="f"><path d="M0 0h500v500H0z"/></clipPath><filter id="a" width="100%" height="100%" x="0%" y="0%" filterUnits="objectBoundingBox"><feComponentTransfer in="SourceGraphic"><feFuncA tableValues="1.0 0.0" type="table"/></feComponentTransfer></filter><filter id="c" width="100%" height="100%" x="0%" y="0%" filterUnits="objectBoundingBox"><feComponentTransfer in="SourceGraphic"><feFuncA tableValues="1.0 0.0" type="table"/></feComponentTransfer></filter><mask id="i" mask-type="alpha"><g filter="url(#a)"><path fill="#fff" d="M0 0h500v500H0z" opacity="0"/><use xmlns:ns1="http://www.w3.org/1999/xlink" ns1:href="#b"/></g></mask><mask id="g" mask-type="alpha"><g filter="url(#c)"><path fill="#fff" d="M0 0h500v500H0z" opacity="0"/><use xmlns:ns2="http://www.w3.org/1999/xlink" ns2:href="#d"/></g></mask><g id="b" style="display:none"><path/><path fill-opacity="0"/></g><g id="d" style="display:none"><path/><path fill-opacity="0"/></g></defs><g clip-path="url(#e)"><g clip-path="url(#f)" opacity="0" style="display:block"><path class="primary design" style="display:none"/><path fill="#121330" d="M6.05 9.998c-.37 0-.74-.1-1.06-.31L.13 6.548a.262.262 0 0 0-.27 0L-5 9.688c-.6.39-1.36.42-1.99.07-.62-.34-1.01-1-1.01-1.71v-16.3c0-.96.78-1.75 1.75-1.75h12.5c.97 0 1.75.79 1.75 1.75v16.3c0 .71-.39 1.37-1.02 1.71-.29.16-.61.24-.93.24z" class="primary design" opacity="1" style="display:block" transform="translate(250.002 250.041) scale(20.83)"/><g class="primary design" mask="url(#g)" style="display:none"><path/><path fill="none"/></g><path fill="none" class="primary design" style="display:none"/><path fill="none" class="primary design" style="display:none"/></g><g clip-path="url(#h)" opacity="0" style="display:block"><path class="primary design" style="display:none"/><path fill="#121330" d="M6.05 9.998c-.37 0-.74-.1-1.06-.31L.13 6.548a.262.262 0 0 0-.27 0L-5 9.688c-.6.39-1.36.42-1.99.07-.62-.34-1.01-1-1.01-1.71v-16.3c0-.96.78-1.75 1.75-1.75h12.5c.97 0 1.75.79 1.75 1.75v16.3c0 .71-.39 1.37-1.02 1.71-.29.16-.61.24-.93.24zm-.24-1.57c.2.13.39.05.46.02a.44.44 0 0 0 .23-.4v-16.3c0-.14-.11-.25-.25-.25h-12.5c-.14 0-.25.11-.25.25v16.3c0 .24.16.36.23.4.07.04.26.12.46-.02l4.86-3.14c.58-.37 1.32-.37 1.89 0l4.87 3.14z" class="primary design" opacity="1" style="display:block" transform="translate(250.002 250.041) scale(20.83)"/><g mask="url(#i)" style="display:none"><path fill="none" class="primary design"/></g><g class="primary design" style="display:none"><path/><path fill="none"/></g><g class="primary design" style="display:none"><path/><path fill="none"/></g></g><g clip-path="url(#j)" style="display:block"><path class="primary design" style="display:none"/><path fill="#121330" d="M6.05 9.998c-.37 0-.74-.1-1.06-.31L.13 6.548a.262.262 0 0 0-.27 0L-5 9.688c-.6.39-1.36.42-1.99.07-.62-.34-1.01-1-1.01-1.71v-16.3c0-.96.78-1.75 1.75-1.75h12.5c.97 0 1.75.79 1.75 1.75v16.3c0 .71-.39 1.37-1.02 1.71-.29.16-.61.24-.93.24zm-.24-1.57c.2.13.39.05.46.02a.44.44 0 0 0 .23-.4v-16.3c0-.14-.11-.25-.25-.25h-12.5c-.14 0-.25.11-.25.25v16.3c0 .24.16.36.23.4.07.04.26.12.46-.02l4.86-3.14c.58-.37 1.32-.37 1.89 0l4.87 3.14z" class="primary design" style="display:block" transform="translate(250.002 250.041) scale(20.83)"/><path fill="none" class="primary design" style="display:none"/></g><g clip-path="url(#k)" opacity="0" style="display:block"><path class="primary design" style="display:none"/><path fill="#121330" d="M6.05 9.998c-.37 0-.74-.1-1.06-.31L.13 6.548a.262.262 0 0 0-.27 0L-5 9.688c-.6.39-1.36.42-1.99.07-.62-.34-1.01-1-1.01-1.71v-16.3c0-.96.78-1.75 1.75-1.75h12.5c.97 0 1.75.79 1.75 1.75v16.3c0 .71-.39 1.37-1.02 1.71-.29.16-.61.24-.93.24zm-.24-1.57c.2.13.39.05.46.02a.44.44 0 0 0 .23-.4v-16.3c0-.14-.11-.25-.25-.25h-12.5c-.14 0-.25.11-.25.25v16.3c0 .24.16.36.23.4.07.04.26.12.46-.02l4.86-3.14c.58-.37 1.32-.37 1.89 0l4.87 3.14z" class="primary design" opacity="1" style="display:block" transform="translate(250.002 250.041) scale(20.83)"/><path fill="none" class="primary design" style="display:none"/></g><g clip-path="url(#l)" opacity="0" style="display:block"><path class="primary design" style="display:none"/><path fill="none" class="primary design" style="display:none"/><g class="primary design" style="display:none"><path/><path fill="none"/></g></g><path style="display:none"/></g></svg>