<svg xmlns="http://www.w3.org/2000/svg" width="500" height="500" style="width:100%;height:100%;transform:translate3d(0,0,0);content-visibility:visible" viewBox="0 0 500 500"><defs><clipPath id="c"><path d="M0 0h500v500H0z"/></clipPath><clipPath id="e"><path d="M0 0h500v500H0z"/></clipPath><clipPath id="d"><path d="M0 0h500v500H0z"/></clipPath><filter id="a" width="100%" height="100%" x="0%" y="0%" filterUnits="objectBoundingBox"><feComponentTransfer in="SourceGraphic"><feFuncA tableValues="1.0 0.0" type="table"/></feComponentTransfer></filter><mask id="f" mask-type="alpha"><g filter="url(#a)"><path fill="#fff" d="M0 0h500v500H0z" opacity="0"/><use xmlns:ns1="http://www.w3.org/1999/xlink" ns1:href="#b"/></g></mask><g id="b" style="display:block"><path d="m258.246 107.14-110.037 54.23L36.674 450.854s31.263 74.279 215.28 94.57c140.376 15.479 210.129-90.966 210.129-90.966l-75.838-287.434-128-59.885z"/><path fill-opacity="0" stroke="#000" stroke-width="31.3" d="m258.246 107.14-110.037 54.23L36.674 450.854s31.263 74.279 215.28 94.57c140.376 15.479 210.129-90.966 210.129-90.966l-75.838-287.434-128-59.885z"/></g></defs><g clip-path="url(#c)"><g clip-path="url(#d)" style="display:block"><g style="display:none"><path fill="none"/><path fill="none"/><path/><path/></g><g fill="#121330" style="display:block"><path d="m435.248 352.321-33.504-55.035c-.03-.052-.064-.102-.094-.154L263.372 69.989a15.651 15.651 0 0 0-26.737.001L98.355 297.136c-.029.05-.061.099-.09.149L64.76 352.321c-4.086 6.711-2.561 15.413 3.564 20.336 25.186 20.245 53.334 36.018 83.662 46.881 31.379 11.239 64.358 16.937 98.018 16.937s66.637-5.698 98.016-16.937c30.329-10.862 58.477-26.635 83.664-46.881 6.125-4.923 7.65-13.625 3.564-20.336zM250.004 108.224l116.94 192.091c-34.88 21.626-75.009 32.997-116.94 32.997s-82.06-11.371-116.94-32.997l46.809-76.891a31.098 31.098 0 0 0 18.047 5.746c17.259 0 31.251-13.991 31.251-31.25 0-12.076-6.854-22.545-16.88-27.748l37.713-61.948zm0 296.951c-55.102 0-107.084-16.763-151.181-48.613l17.965-29.511c39.783 24.617 85.493 37.561 133.216 37.561 47.723 0 93.433-12.944 133.216-37.561l17.965 29.511c-44.099 31.85-96.08 48.613-151.181 48.613z"/><path d="M281.254 291.67c17.259 0 31.25-13.991 31.25-31.25s-13.991-31.25-31.25-31.25-31.25 13.991-31.25 31.25 13.991 31.25 31.25 31.25z"/></g><g style="display:none"><path/><path/></g></g><g clip-path="url(#e)" opacity="0" style="display:block"><g mask="url(#f)" style="display:none"><path fill="none"/><path fill="none"/><path/><path/></g><g style="display:none"><path/><path fill="none"/></g><g style="display:none"><path/><path/></g></g><path style="display:none"/></g></svg>