{
    "asset" : {
        "generator" : "Khronos glTF Blender I/O v3.3.32",
        "version" : "2.0"
    },
    "scene" : 0,
    "scenes" : [
        {
            "name" : "Scene",
            "nodes" : [
                0
            ]
        }
    ],
    "nodes" : [
        {
            "mesh" : 0,
            "name" : "BloodSword_Mesh_BloodSword_Mat1_0",
            "scale" : [
                0.025953860953450203,
                0.025953860953450203,
                0.025953860953450203
            ]
        }
    ],
    "materials" : [
        {
            "doubleSided" : true,
            "name" : "BloodSword_Mat1",
            "normalTexture" : {
                "index" : 0
            },
            "occlusionTexture" : {
                "index" : 1
            },
            "pbrMetallicRoughness" : {
                "baseColorTexture" : {
                    "index" : 2
                },
                "metallicFactor" : 0,
                "metallicRoughnessTexture" : {
                    "index" : 1
                }
            }
        }
    ],
    "meshes" : [
        {
            "name" : "BloodSword_Mesh_BloodSword_Mat1_0",
            "primitives" : [
                {
                    "attributes" : {
                        "POSITION" : 0,
                        "NORMAL" : 1,
                        "TEXCOORD_0" : 2
                    },
                    "indices" : 3,
                    "material" : 0
                }
            ]
        }
    ],
    "textures" : [
        {
            "sampler" : 0,
            "source" : 0
        },
        {
            "sampler" : 0,
            "source" : 1
        },
        {
            "sampler" : 0,
            "source" : 2
        }
    ],
    "images" : [
        {
            "mimeType" : "image/png",
            "name" : "BloodSword_Mat1_normal",
            "uri" : "textures/BloodSword_Mat1_normal.png"
        },
        {
            "mimeType" : "image/png",
            "name" : "BloodSword_Mat1_metallicRoughness",
            "uri" : "textures/BloodSword_Mat1_metallicRoughness.png"
        },
        {
            "mimeType" : "image/png",
            "name" : "BloodSword_Mat1_baseColor",
            "uri" : "textures/BloodSword_Mat1_baseColor.png"
        }
    ],
    "accessors" : [
        {
            "bufferView" : 0,
            "componentType" : 5126,
            "count" : 5960,
            "max" : [
                8.922945022583008,
                336.8447265625,
                37.4169921875
            ],
            "min" : [
                -8.9229736328125,
                -191.88525390625,
                -49.57989501953125
            ],
            "type" : "VEC3"
        },
        {
            "bufferView" : 1,
            "componentType" : 5126,
            "count" : 5960,
            "type" : "VEC3"
        },
        {
            "bufferView" : 2,
            "componentType" : 5126,
            "count" : 5960,
            "type" : "VEC2"
        },
        {
            "bufferView" : 3,
            "componentType" : 5123,
            "count" : 30768,
            "type" : "SCALAR"
        }
    ],
    "bufferViews" : [
        {
            "buffer" : 0,
            "byteLength" : 71520,
            "byteOffset" : 0,
            "target" : 34962
        },
        {
            "buffer" : 0,
            "byteLength" : 71520,
            "byteOffset" : 71520,
            "target" : 34962
        },
        {
            "buffer" : 0,
            "byteLength" : 47680,
            "byteOffset" : 143040,
            "target" : 34962
        },
        {
            "buffer" : 0,
            "byteLength" : 61536,
            "byteOffset" : 190720,
            "target" : 34963
        }
    ],
    "samplers" : [
        {
            "magFilter" : 9729,
            "minFilter" : 9987
        }
    ],
    "buffers" : [
        {
            "byteLength" : 252256,
            "uri" : "BloodSword.bin"
        }
    ]
}
