{
	"asset":{
		"generator":"Khronos glTF Blender I/O v3.5.30",
		"version":"2.0"
	},
	"scene":0,
	"scenes":[
		{
			"name":"Scene",
			"nodes":[
				12
			]
		}
	],
	"nodes":[
		{
			"mesh":0,
			"name":"Object_10"
		},
		{
			"mesh":1,
			"name":"Object_11"
		},
		{
			"mesh":2,
			"name":"Object_12"
		},
		{
			"mesh":3,
			"name":"Object_13"
		},
		{
			"mesh":4,
			"name":"Object_14"
		},
		{
			"mesh":5,
			"name":"Object_15"
		},
		{
			"mesh":6,
			"name":"Object_4"
		},
		{
			"mesh":7,
			"name":"Object_5"
		},
		{
			"mesh":8,
			"name":"Object_6"
		},
		{
			"mesh":9,
			"name":"Object_7"
		},
		{
			"mesh":10,
			"name":"Object_8"
		},
		{
			"mesh":11,
			"name":"Object_9"
		},
		{
			"children":[
				0,
				1,
				2,
				3,
				4,
				5,
				6,
				7,
				8,
				9,
				10,
				11
			],
			"name":"Iphone 13 pro_0",
			"scale":[
				0.04335892200469971,
				0.04335892200469971,
				0.04335892200469971
			],
			"translation":[
				0,
				3.5,
				0
			]
		}
	],
	"materials":[
		{
			"alphaMode":"BLEND",
			"doubleSided":true,
			"name":"GLASS",
			"pbrMetallicRoughness":{
				"baseColorFactor":[
					0,
					0,
					0,
					1
				],
				"baseColorTexture":{
					"index":0
				},
				"metallicFactor":0,
				"roughnessFactor":0
			}
		},
		{
			"doubleSided":true,
			"name":"Lenscover",
			"pbrMetallicRoughness":{
				"baseColorFactor":[
					0.026162799447774887,
					0.026162799447774887,
					0.026162799447774887,
					1
				],
				"metallicFactor":0,
				"roughnessFactor":0.4581820070743561
			}
		},
		{
			"doubleSided":true,
			"name":"material",
			"pbrMetallicRoughness":{
				"baseColorTexture":{
					"index":1
				},
				"metallicFactor":0,
				"roughnessFactor":0.07933580130338669
			}
		},
		{
			"doubleSided":true,
			"emissiveFactor":[
				1,
				1,
				1
			],
			"emissiveTexture":{
				"index":2,
				"texCoord":1
			},
			"name":"Display",
			"pbrMetallicRoughness":{
				"baseColorTexture":{
					"index":3
				},
				"metallicFactor":0,
				"roughnessFactor":0
			}
		},
		{
			"doubleSided":true,
			"name":"Lens.2",
			"pbrMetallicRoughness":{
				"baseColorTexture":{
					"index":4
				},
				"metallicFactor":0,
				"roughnessFactor":0
			}
		},
		{
			"alphaMode":"BLEND",
			"doubleSided":true,
			"name":"material_11",
			"pbrMetallicRoughness":{
				"baseColorFactor":[
					0,
					0,
					0,
					1
				],
				"baseColorTexture":{
					"index":5
				},
				"metallicFactor":0,
				"roughnessFactor":0
			}
		},
		{
			"doubleSided":true,
			"name":"Material.001",
			"pbrMetallicRoughness":{
				"baseColorFactor":[
					0,
					0,
					0,
					1
				],
				"metallicFactor":0.14760099351406097,
				"roughnessFactor":0.22693699598312378
			}
		},
		{
			"doubleSided":true,
			"name":"Black",
			"pbrMetallicRoughness":{
				"baseColorFactor":[
					0,
					0,
					0,
					1
				],
				"metallicFactor":0,
				"roughnessFactor":0
			}
		},
		{
			"doubleSided":true,
			"name":"Back",
			"pbrMetallicRoughness":{
				"baseColorFactor":[
					0,
					0,
					0,
					1
				],
				"metallicFactor":0.00738007016479969,
				"roughnessFactor":0.5
			}
		},
		{
			"doubleSided":true,
			"name":"GOLD",
			"pbrMetallicRoughness":{
				"baseColorFactor":[
					0.010377500206232071,
					0.010377500206232071,
					0.010377500206232071,
					1
				],
				"roughnessFactor":0
			}
		},
		{
			"doubleSided":true,
			"name":"BARRES",
			"pbrMetallicRoughness":{
				"baseColorFactor":[
					0.800000011920929,
					0.800000011920929,
					0.800000011920929,
					1
				],
				"roughnessFactor":0.19454500079154968
			}
		},
		{
			"doubleSided":true,
			"name":"Labber",
			"pbrMetallicRoughness":{
				"baseColorFactor":[
					0.0839902013540268,
					0.0839902013540268,
					0.0839902013540268,
					1
				],
				"metallicFactor":0,
				"roughnessFactor":0.41525399684906006
			}
		}
	],
	"meshes":[
		{
			"name":"Object_6",
			"primitives":[
				{
					"attributes":{
						"POSITION":0,
						"TEXCOORD_0":1,
						"TEXCOORD_1":2,
						"NORMAL":3
					},
					"indices":4,
					"material":0
				}
			]
		},
		{
			"name":"Object_7",
			"primitives":[
				{
					"attributes":{
						"POSITION":5,
						"TEXCOORD_0":6,
						"TEXCOORD_1":7,
						"NORMAL":8
					},
					"indices":9,
					"material":1
				}
			]
		},
		{
			"name":"Object_8",
			"primitives":[
				{
					"attributes":{
						"POSITION":10,
						"TEXCOORD_0":11,
						"TEXCOORD_1":12,
						"NORMAL":13
					},
					"indices":14,
					"material":2
				}
			]
		},
		{
			"name":"Object_9",
			"primitives":[
				{
					"attributes":{
						"POSITION":15,
						"TEXCOORD_0":16,
						"TEXCOORD_1":17,
						"TEXCOORD_2":18,
						"NORMAL":19
					},
					"indices":20,
					"material":3
				}
			]
		},
		{
			"name":"Object_10",
			"primitives":[
				{
					"attributes":{
						"POSITION":21,
						"TEXCOORD_0":22,
						"TEXCOORD_1":23,
						"NORMAL":24
					},
					"indices":25,
					"material":4
				}
			]
		},
		{
			"name":"Object_11",
			"primitives":[
				{
					"attributes":{
						"POSITION":26,
						"TEXCOORD_0":27,
						"TEXCOORD_1":28,
						"NORMAL":29
					},
					"indices":30,
					"material":5
				}
			]
		},
		{
			"name":"Object_0",
			"primitives":[
				{
					"attributes":{
						"POSITION":31,
						"TEXCOORD_0":32,
						"TEXCOORD_1":33,
						"NORMAL":34
					},
					"indices":35,
					"material":6
				}
			]
		},
		{
			"name":"Object_1",
			"primitives":[
				{
					"attributes":{
						"POSITION":36,
						"TEXCOORD_0":37,
						"TEXCOORD_1":38,
						"NORMAL":39
					},
					"indices":40,
					"material":7
				}
			]
		},
		{
			"name":"Object_2",
			"primitives":[
				{
					"attributes":{
						"POSITION":41,
						"TEXCOORD_0":42,
						"TEXCOORD_1":43,
						"NORMAL":44
					},
					"indices":45,
					"material":8
				}
			]
		},
		{
			"name":"Object_3",
			"primitives":[
				{
					"attributes":{
						"POSITION":46,
						"TEXCOORD_0":47,
						"TEXCOORD_1":48,
						"NORMAL":49
					},
					"indices":50,
					"material":9
				}
			]
		},
		{
			"name":"Object_4",
			"primitives":[
				{
					"attributes":{
						"POSITION":51,
						"TEXCOORD_0":52,
						"TEXCOORD_1":53,
						"NORMAL":54
					},
					"indices":55,
					"material":10
				}
			]
		},
		{
			"name":"Object_5",
			"primitives":[
				{
					"attributes":{
						"POSITION":56,
						"TEXCOORD_0":57,
						"TEXCOORD_1":58,
						"NORMAL":59
					},
					"indices":60,
					"material":11
				}
			]
		}
	],
	"textures":[
		{
			"sampler":0,
			"source":0
		},
		{
			"sampler":0,
			"source":1
		},
		{
			"sampler":0,
			"source":2
		},
		{
			"sampler":0,
			"source":2
		},
		{
			"sampler":0,
			"source":1
		},
		{
			"sampler":0,
			"source":0
		}
	],
	"images":[
		{
			"mimeType":"image/png",
			"name":"GLASS_baseColor.png",
			"uri":"../iphone14/textures/GLASS_baseColor.png"
		},
		{
			"mimeType":"image/png",
			"name":"material_baseColor.png",
			"uri":"../iphone14/textures/material_baseColor.png"
		},
		{
			"mimeType":"image/jpeg",
			"name":"Display_baseColor.jpeg",
			"uri":"../iphone14/textures/Display_baseColor.jpeg"
		}
	],
	"accessors":[
		{
			"bufferView":0,
			"componentType":5126,
			"count":10304,
			"max":[
				4.730194568634033,
				12.393310546875,
				27.931072235107422
			],
			"min":[
				-0.9639185667037964,
				-79.19928741455078,
				-16.049423217773438
			],
			"type":"VEC3"
		},
		{
			"bufferView":1,
			"componentType":5126,
			"count":10304,
			"type":"VEC2"
		},
		{
			"bufferView":2,
			"componentType":5126,
			"count":10304,
			"type":"VEC2"
		},
		{
			"bufferView":3,
			"componentType":5126,
			"count":10304,
			"type":"VEC3"
		},
		{
			"bufferView":4,
			"componentType":5123,
			"count":47844,
			"type":"SCALAR"
		},
		{
			"bufferView":5,
			"componentType":5126,
			"count":4104,
			"max":[
				4.552739143371582,
				10.946208953857422,
				2.349792003631592
			],
			"min":[
				-0.9589555263519287,
				-8.072735786437988,
				-11.665291786193848
			],
			"type":"VEC3"
		},
		{
			"bufferView":6,
			"componentType":5126,
			"count":4104,
			"type":"VEC2"
		},
		{
			"bufferView":7,
			"componentType":5126,
			"count":4104,
			"type":"VEC2"
		},
		{
			"bufferView":8,
			"componentType":5126,
			"count":4104,
			"type":"VEC3"
		},
		{
			"bufferView":9,
			"componentType":5123,
			"count":20112,
			"type":"SCALAR"
		},
		{
			"bufferView":10,
			"componentType":5126,
			"count":771,
			"max":[
				0.02212923765182495,
				5.837022304534912,
				0.9890192151069641
			],
			"min":[
				-0.670011579990387,
				-5.8867998123168945,
				-9.476167678833008
			],
			"type":"VEC3"
		},
		{
			"bufferView":11,
			"componentType":5126,
			"count":771,
			"type":"VEC2"
		},
		{
			"bufferView":12,
			"componentType":5126,
			"count":771,
			"type":"VEC2"
		},
		{
			"bufferView":13,
			"componentType":5126,
			"count":771,
			"type":"VEC3"
		},
		{
			"bufferView":14,
			"componentType":5123,
			"count":4320,
			"type":"SCALAR"
		},
		{
			"bufferView":15,
			"componentType":5126,
			"count":310,
			"max":[
				4.134151458740234,
				11.395790100097656,
				26.969499588012695
			],
			"min":[
				4.134151458740234,
				-78.16706848144531,
				-15.087850570678711
			],
			"type":"VEC3"
		},
		{
			"bufferView":16,
			"componentType":5126,
			"count":310,
			"type":"VEC2"
		},
		{
			"bufferView":17,
			"componentType":5126,
			"count":310,
			"type":"VEC2"
		},
		{
			"bufferView":18,
			"componentType":5126,
			"count":310,
			"type":"VEC2"
		},
		{
			"bufferView":19,
			"componentType":5126,
			"count":310,
			"type":"VEC3"
		},
		{
			"bufferView":20,
			"componentType":5123,
			"count":930,
			"type":"SCALAR"
		},
		{
			"bufferView":21,
			"componentType":5126,
			"count":257,
			"max":[
				4.577549457550049,
				10.589385986328125,
				1.8427785634994507
			],
			"min":[
				4.330817222595215,
				9.470283508300781,
				0.7236761450767517
			],
			"type":"VEC3"
		},
		{
			"bufferView":22,
			"componentType":5126,
			"count":257,
			"type":"VEC2"
		},
		{
			"bufferView":23,
			"componentType":5126,
			"count":257,
			"type":"VEC2"
		},
		{
			"bufferView":24,
			"componentType":5126,
			"count":257,
			"type":"VEC3"
		},
		{
			"bufferView":25,
			"componentType":5123,
			"count":1440,
			"type":"SCALAR"
		},
		{
			"bufferView":26,
			"componentType":5126,
			"count":4833,
			"max":[
				-0.6623821258544922,
				7.915506362915039,
				3.064974784851074
			],
			"min":[
				-0.9639185667037964,
				-7.964262962341309,
				-11.556818962097168
			],
			"type":"VEC3"
		},
		{
			"bufferView":27,
			"componentType":5126,
			"count":4833,
			"type":"VEC2"
		},
		{
			"bufferView":28,
			"componentType":5126,
			"count":4833,
			"type":"VEC2"
		},
		{
			"bufferView":29,
			"componentType":5126,
			"count":4833,
			"type":"VEC3"
		},
		{
			"bufferView":30,
			"componentType":5123,
			"count":21864,
			"type":"SCALAR"
		},
		{
			"bufferView":31,
			"componentType":5126,
			"count":393,
			"max":[
				4.401400566101074,
				10.674793243408203,
				17.187145233154297
			],
			"min":[
				-0.1242825984954834,
				-79.26216125488281,
				-8.418596267700195
			],
			"type":"VEC3"
		},
		{
			"bufferView":32,
			"componentType":5126,
			"count":393,
			"type":"VEC2"
		},
		{
			"bufferView":33,
			"componentType":5126,
			"count":393,
			"type":"VEC2"
		},
		{
			"bufferView":34,
			"componentType":5126,
			"count":393,
			"type":"VEC3"
		},
		{
			"bufferView":35,
			"componentType":5123,
			"count":1086,
			"type":"SCALAR"
		},
		{
			"bufferView":36,
			"componentType":5126,
			"count":4660,
			"max":[
				4.595296859741211,
				12.399787902832031,
				27.93754768371582
			],
			"min":[
				-0.9129217267036438,
				-79.20576477050781,
				-16.055898666381836
			],
			"type":"VEC3"
		},
		{
			"bufferView":37,
			"componentType":5126,
			"count":4660,
			"type":"VEC2"
		},
		{
			"bufferView":38,
			"componentType":5126,
			"count":4660,
			"type":"VEC2"
		},
		{
			"bufferView":39,
			"componentType":5126,
			"count":4660,
			"type":"VEC3"
		},
		{
			"bufferView":40,
			"componentType":5123,
			"count":18180,
			"type":"SCALAR"
		},
		{
			"bufferView":41,
			"componentType":5126,
			"count":7809,
			"max":[
				0.47168636322021484,
				12.393303871154785,
				27.931076049804688
			],
			"min":[
				-0.5017433166503906,
				-79.19927978515625,
				-16.04941177368164
			],
			"type":"VEC3"
		},
		{
			"bufferView":42,
			"componentType":5126,
			"count":7809,
			"type":"VEC2"
		},
		{
			"bufferView":43,
			"componentType":5126,
			"count":7809,
			"type":"VEC2"
		},
		{
			"bufferView":44,
			"componentType":5126,
			"count":7809,
			"type":"VEC3"
		},
		{
			"bufferView":45,
			"componentType":5123,
			"count":38472,
			"type":"SCALAR"
		},
		{
			"bufferView":46,
			"componentType":5126,
			"count":56852,
			"max":[
				4.708446502685547,
				13.093894958496094,
				28.980194091796875
			],
			"min":[
				-0.8881158828735352,
				-79.89987182617188,
				-16.983213424682617
			],
			"type":"VEC3"
		},
		{
			"bufferView":47,
			"componentType":5126,
			"count":56852,
			"type":"VEC2"
		},
		{
			"bufferView":48,
			"componentType":5126,
			"count":56852,
			"type":"VEC2"
		},
		{
			"bufferView":49,
			"componentType":5126,
			"count":56852,
			"type":"VEC3"
		},
		{
			"bufferView":50,
			"componentType":5123,
			"count":279687,
			"type":"SCALAR"
		},
		{
			"bufferView":51,
			"componentType":5126,
			"count":547,
			"max":[
				4.708446502685547,
				13.093360900878906,
				28.63162612915039
			],
			"min":[
				0.07437777519226074,
				-79.89924621582031,
				-16.74997901916504
			],
			"type":"VEC3"
		},
		{
			"bufferView":52,
			"componentType":5126,
			"count":547,
			"type":"VEC2"
		},
		{
			"bufferView":53,
			"componentType":5126,
			"count":547,
			"type":"VEC2"
		},
		{
			"bufferView":54,
			"componentType":5126,
			"count":547,
			"type":"VEC3"
		},
		{
			"bufferView":55,
			"componentType":5123,
			"count":1560,
			"type":"SCALAR"
		},
		{
			"bufferView":56,
			"componentType":5126,
			"count":3595,
			"max":[
				0.4006235599517822,
				8.659247398376465,
				3.183018207550049
			],
			"min":[
				-0.9589555263519287,
				-3.1734490394592285,
				-3.173450469970703
			],
			"type":"VEC3"
		},
		{
			"bufferView":57,
			"componentType":5126,
			"count":3595,
			"type":"VEC2"
		},
		{
			"bufferView":58,
			"componentType":5126,
			"count":3595,
			"type":"VEC2"
		},
		{
			"bufferView":59,
			"componentType":5126,
			"count":3595,
			"type":"VEC3"
		},
		{
			"bufferView":60,
			"componentType":5123,
			"count":19968,
			"type":"SCALAR"
		}
	],
	"bufferViews":[
		{
			"buffer":0,
			"byteLength":123648,
			"byteOffset":0,
			"target":34962
		},
		{
			"buffer":0,
			"byteLength":82432,
			"byteOffset":123648,
			"target":34962
		},
		{
			"buffer":0,
			"byteLength":82432,
			"byteOffset":206080,
			"target":34962
		},
		{
			"buffer":0,
			"byteLength":123648,
			"byteOffset":288512,
			"target":34962
		},
		{
			"buffer":0,
			"byteLength":95688,
			"byteOffset":412160,
			"target":34963
		},
		{
			"buffer":0,
			"byteLength":49248,
			"byteOffset":507848,
			"target":34962
		},
		{
			"buffer":0,
			"byteLength":32832,
			"byteOffset":557096,
			"target":34962
		},
		{
			"buffer":0,
			"byteLength":32832,
			"byteOffset":589928,
			"target":34962
		},
		{
			"buffer":0,
			"byteLength":49248,
			"byteOffset":622760,
			"target":34962
		},
		{
			"buffer":0,
			"byteLength":40224,
			"byteOffset":672008,
			"target":34963
		},
		{
			"buffer":0,
			"byteLength":9252,
			"byteOffset":712232,
			"target":34962
		},
		{
			"buffer":0,
			"byteLength":6168,
			"byteOffset":721484,
			"target":34962
		},
		{
			"buffer":0,
			"byteLength":6168,
			"byteOffset":727652,
			"target":34962
		},
		{
			"buffer":0,
			"byteLength":9252,
			"byteOffset":733820,
			"target":34962
		},
		{
			"buffer":0,
			"byteLength":8640,
			"byteOffset":743072,
			"target":34963
		},
		{
			"buffer":0,
			"byteLength":3720,
			"byteOffset":751712,
			"target":34962
		},
		{
			"buffer":0,
			"byteLength":2480,
			"byteOffset":755432,
			"target":34962
		},
		{
			"buffer":0,
			"byteLength":2480,
			"byteOffset":757912,
			"target":34962
		},
		{
			"buffer":0,
			"byteLength":2480,
			"byteOffset":760392,
			"target":34962
		},
		{
			"buffer":0,
			"byteLength":3720,
			"byteOffset":762872,
			"target":34962
		},
		{
			"buffer":0,
			"byteLength":1860,
			"byteOffset":766592,
			"target":34963
		},
		{
			"buffer":0,
			"byteLength":3084,
			"byteOffset":768452,
			"target":34962
		},
		{
			"buffer":0,
			"byteLength":2056,
			"byteOffset":771536,
			"target":34962
		},
		{
			"buffer":0,
			"byteLength":2056,
			"byteOffset":773592,
			"target":34962
		},
		{
			"buffer":0,
			"byteLength":3084,
			"byteOffset":775648,
			"target":34962
		},
		{
			"buffer":0,
			"byteLength":2880,
			"byteOffset":778732,
			"target":34963
		},
		{
			"buffer":0,
			"byteLength":57996,
			"byteOffset":781612,
			"target":34962
		},
		{
			"buffer":0,
			"byteLength":38664,
			"byteOffset":839608,
			"target":34962
		},
		{
			"buffer":0,
			"byteLength":38664,
			"byteOffset":878272,
			"target":34962
		},
		{
			"buffer":0,
			"byteLength":57996,
			"byteOffset":916936,
			"target":34962
		},
		{
			"buffer":0,
			"byteLength":43728,
			"byteOffset":974932,
			"target":34963
		},
		{
			"buffer":0,
			"byteLength":4716,
			"byteOffset":1018660,
			"target":34962
		},
		{
			"buffer":0,
			"byteLength":3144,
			"byteOffset":1023376,
			"target":34962
		},
		{
			"buffer":0,
			"byteLength":3144,
			"byteOffset":1026520,
			"target":34962
		},
		{
			"buffer":0,
			"byteLength":4716,
			"byteOffset":1029664,
			"target":34962
		},
		{
			"buffer":0,
			"byteLength":2172,
			"byteOffset":1034380,
			"target":34963
		},
		{
			"buffer":0,
			"byteLength":55920,
			"byteOffset":1036552,
			"target":34962
		},
		{
			"buffer":0,
			"byteLength":37280,
			"byteOffset":1092472,
			"target":34962
		},
		{
			"buffer":0,
			"byteLength":37280,
			"byteOffset":1129752,
			"target":34962
		},
		{
			"buffer":0,
			"byteLength":55920,
			"byteOffset":1167032,
			"target":34962
		},
		{
			"buffer":0,
			"byteLength":36360,
			"byteOffset":1222952,
			"target":34963
		},
		{
			"buffer":0,
			"byteLength":93708,
			"byteOffset":1259312,
			"target":34962
		},
		{
			"buffer":0,
			"byteLength":62472,
			"byteOffset":1353020,
			"target":34962
		},
		{
			"buffer":0,
			"byteLength":62472,
			"byteOffset":1415492,
			"target":34962
		},
		{
			"buffer":0,
			"byteLength":93708,
			"byteOffset":1477964,
			"target":34962
		},
		{
			"buffer":0,
			"byteLength":76944,
			"byteOffset":1571672,
			"target":34963
		},
		{
			"buffer":0,
			"byteLength":682224,
			"byteOffset":1648616,
			"target":34962
		},
		{
			"buffer":0,
			"byteLength":454816,
			"byteOffset":2330840,
			"target":34962
		},
		{
			"buffer":0,
			"byteLength":454816,
			"byteOffset":2785656,
			"target":34962
		},
		{
			"buffer":0,
			"byteLength":682224,
			"byteOffset":3240472,
			"target":34962
		},
		{
			"buffer":0,
			"byteLength":559374,
			"byteOffset":3922696,
			"target":34963
		},
		{
			"buffer":0,
			"byteLength":6564,
			"byteOffset":4482072,
			"target":34962
		},
		{
			"buffer":0,
			"byteLength":4376,
			"byteOffset":4488636,
			"target":34962
		},
		{
			"buffer":0,
			"byteLength":4376,
			"byteOffset":4493012,
			"target":34962
		},
		{
			"buffer":0,
			"byteLength":6564,
			"byteOffset":4497388,
			"target":34962
		},
		{
			"buffer":0,
			"byteLength":3120,
			"byteOffset":4503952,
			"target":34963
		},
		{
			"buffer":0,
			"byteLength":43140,
			"byteOffset":4507072,
			"target":34962
		},
		{
			"buffer":0,
			"byteLength":28760,
			"byteOffset":4550212,
			"target":34962
		},
		{
			"buffer":0,
			"byteLength":28760,
			"byteOffset":4578972,
			"target":34962
		},
		{
			"buffer":0,
			"byteLength":43140,
			"byteOffset":4607732,
			"target":34962
		},
		{
			"buffer":0,
			"byteLength":39936,
			"byteOffset":4650872,
			"target":34963
		}
	],
	"samplers":[
		{
			"magFilter":9729,
			"minFilter":9987
		}
	],
	"buffers":[
		{
			"byteLength":4690808,
			"uri":"untitled.bin"
		}
	]
}
